<svg width="574" height="574" viewBox="0 0 574 574" fill="none" xmlns="http://www.w3.org/2000/svg">
<g filter="url(#filter0_d_127_34)">
<rect x="27" y="12.2773" width="519.783" height="519.783" rx="73.6907" fill="#2FD82F"/>
</g>
<mask id="path-2-outside-1_127_34" maskUnits="userSpaceOnUse" x="215.762" y="123.663" width="107" height="308" fill="black">
<rect fill="white" x="215.762" y="123.663" width="107" height="308"/>
<path d="M306.387 271.17C306.387 276.038 306.643 282.955 307.156 291.922C307.924 300.889 308.693 310.753 309.462 321.513C310.486 332.018 311.511 342.906 312.536 354.179C313.561 365.196 314.586 375.316 315.61 384.539C316.635 393.506 317.404 401.064 317.916 407.213C318.685 413.105 319.069 416.18 319.069 416.436C319.069 419.254 318.044 421.56 315.995 423.353C314.201 425.403 311.639 426.684 308.309 427.196C305.49 427.196 303.057 426.3 301.007 424.506C298.957 422.713 297.804 420.407 297.548 417.589C297.292 416.82 296.78 413.361 296.011 407.213C295.499 401.064 294.73 393.378 293.705 384.154C292.937 374.931 292.04 364.811 291.015 353.795C289.99 342.778 288.966 332.018 287.941 321.513C287.172 311.009 286.404 301.274 285.635 292.307C285.123 283.34 284.866 276.294 284.866 271.17C284.866 264.253 284.61 255.67 284.098 245.422C283.585 235.174 282.945 224.541 282.176 213.525C281.408 202.508 280.383 191.62 279.102 180.859C278.077 170.099 277.052 160.876 276.027 153.19C270.903 156.776 265.907 160.235 261.04 163.566C256.428 166.896 252.329 169.843 248.742 172.405C245.411 174.967 242.721 177.016 240.672 178.553L237.213 181.244C235.42 183.037 233.242 183.934 230.68 183.934C227.349 183.934 224.659 182.653 222.61 180.091C220.816 178.297 219.919 175.991 219.919 173.173C219.919 170.099 220.944 167.537 222.994 165.487C223.25 165.231 224.915 163.95 227.99 161.644C231.064 159.082 234.907 156.136 239.519 152.805C244.387 149.218 249.767 145.375 255.659 141.276C261.552 136.921 267.573 132.822 273.722 128.979C275.515 127.954 277.436 127.441 279.486 127.441C281.536 127.441 283.585 128.082 285.635 129.363C287.941 129.619 289.99 130.516 291.784 132.053C293.577 133.59 294.73 135.512 295.242 137.818C296.78 144.991 298.189 154.599 299.47 166.64C300.751 178.425 301.904 190.851 302.928 203.917C303.953 216.984 304.722 229.665 305.234 241.963C306.003 254.005 306.387 263.74 306.387 271.17Z"/>
</mask>
<path d="M306.387 271.17C306.387 276.038 306.643 282.955 307.156 291.922C307.924 300.889 308.693 310.753 309.462 321.513C310.486 332.018 311.511 342.906 312.536 354.179C313.561 365.196 314.586 375.316 315.61 384.539C316.635 393.506 317.404 401.064 317.916 407.213C318.685 413.105 319.069 416.18 319.069 416.436C319.069 419.254 318.044 421.56 315.995 423.353C314.201 425.403 311.639 426.684 308.309 427.196C305.49 427.196 303.057 426.3 301.007 424.506C298.957 422.713 297.804 420.407 297.548 417.589C297.292 416.82 296.78 413.361 296.011 407.213C295.499 401.064 294.73 393.378 293.705 384.154C292.937 374.931 292.04 364.811 291.015 353.795C289.99 342.778 288.966 332.018 287.941 321.513C287.172 311.009 286.404 301.274 285.635 292.307C285.123 283.34 284.866 276.294 284.866 271.17C284.866 264.253 284.61 255.67 284.098 245.422C283.585 235.174 282.945 224.541 282.176 213.525C281.408 202.508 280.383 191.62 279.102 180.859C278.077 170.099 277.052 160.876 276.027 153.19C270.903 156.776 265.907 160.235 261.04 163.566C256.428 166.896 252.329 169.843 248.742 172.405C245.411 174.967 242.721 177.016 240.672 178.553L237.213 181.244C235.42 183.037 233.242 183.934 230.68 183.934C227.349 183.934 224.659 182.653 222.61 180.091C220.816 178.297 219.919 175.991 219.919 173.173C219.919 170.099 220.944 167.537 222.994 165.487C223.25 165.231 224.915 163.95 227.99 161.644C231.064 159.082 234.907 156.136 239.519 152.805C244.387 149.218 249.767 145.375 255.659 141.276C261.552 136.921 267.573 132.822 273.722 128.979C275.515 127.954 277.436 127.441 279.486 127.441C281.536 127.441 283.585 128.082 285.635 129.363C287.941 129.619 289.99 130.516 291.784 132.053C293.577 133.59 294.73 135.512 295.242 137.818C296.78 144.991 298.189 154.599 299.47 166.64C300.751 178.425 301.904 190.851 302.928 203.917C303.953 216.984 304.722 229.665 305.234 241.963C306.003 254.005 306.387 263.74 306.387 271.17Z" fill="white"/>
<path d="M307.156 291.922L303.529 292.129L303.532 292.181L303.537 292.232L307.156 291.922ZM309.462 321.513L305.838 321.772L305.842 321.819L305.846 321.866L309.462 321.513ZM312.536 354.179L308.918 354.508L308.919 354.515L312.536 354.179ZM315.61 384.539L312 384.94L312.001 384.951L315.61 384.539ZM317.916 407.213L314.296 407.514L314.303 407.599L314.314 407.682L317.916 407.213ZM315.995 423.353L313.603 420.619L313.42 420.779L313.261 420.961L315.995 423.353ZM308.309 427.196V430.829H308.586L308.861 430.786L308.309 427.196ZM297.548 417.589L301.166 417.26L301.128 416.84L300.994 416.44L297.548 417.589ZM296.011 407.213L292.391 407.514L292.397 407.589L292.407 407.663L296.011 407.213ZM293.705 384.154L290.085 384.456L290.089 384.506L290.095 384.556L293.705 384.154ZM287.941 321.513L284.318 321.779L284.321 321.822L284.325 321.866L287.941 321.513ZM285.635 292.307L282.008 292.514L282.011 292.565L282.016 292.617L285.635 292.307ZM279.102 180.859L275.486 181.204L275.49 181.246L275.495 181.289L279.102 180.859ZM276.027 153.19L279.628 152.709L278.838 146.788L273.944 150.214L276.027 153.19ZM261.04 163.566L258.988 160.568L258.95 160.594L258.913 160.621L261.04 163.566ZM248.742 172.405L246.631 169.449L246.578 169.486L246.527 169.525L248.742 172.405ZM240.672 178.553L238.492 175.647L238.467 175.667L238.442 175.686L240.672 178.553ZM237.213 181.244L234.983 178.376L234.804 178.515L234.644 178.675L237.213 181.244ZM222.61 180.091L225.446 177.821L225.32 177.664L225.178 177.522L222.61 180.091ZM222.994 165.487L220.425 162.919L222.994 165.487ZM227.99 161.644L230.169 164.55L230.244 164.494L230.315 164.435L227.99 161.644ZM239.519 152.805L241.646 155.75L241.66 155.74L241.674 155.73L239.519 152.805ZM255.659 141.276L257.734 144.258L257.777 144.228L257.819 144.197L255.659 141.276ZM273.722 128.979L271.919 125.825L271.857 125.86L271.796 125.898L273.722 128.979ZM285.635 129.363L283.71 132.443L284.411 132.882L285.234 132.973L285.635 129.363ZM295.242 137.818L298.794 137.056L298.791 137.043L298.788 137.03L295.242 137.818ZM299.47 166.64L295.858 167.024L295.858 167.033L299.47 166.64ZM305.234 241.963L301.605 242.114L301.607 242.154L301.609 242.194L305.234 241.963ZM306.387 271.17H302.755C302.755 276.142 303.016 283.141 303.529 292.129L307.156 291.922L310.782 291.715C310.271 282.77 310.02 275.934 310.02 271.17H306.387ZM307.156 291.922L303.537 292.232C304.303 301.179 305.071 311.026 305.838 321.772L309.462 321.513L313.085 321.255C312.315 310.48 311.545 300.599 310.775 291.612L307.156 291.922ZM309.462 321.513L305.846 321.866C306.87 332.362 307.894 343.242 308.918 354.508L312.536 354.179L316.154 353.85C315.128 342.57 314.103 331.673 313.077 321.161L309.462 321.513ZM312.536 354.179L308.919 354.515C309.946 365.55 310.972 375.692 312 384.94L315.61 384.539L319.221 384.138C318.199 374.94 317.176 364.842 316.153 353.843L312.536 354.179ZM315.61 384.539L312.001 384.951C313.024 393.897 313.788 401.415 314.296 407.514L317.916 407.213L321.536 406.911C321.02 400.712 320.247 393.115 319.219 384.126L315.61 384.539ZM317.916 407.213L314.314 407.682C314.698 410.627 314.985 412.861 315.176 414.388C315.272 415.153 315.342 415.732 315.388 416.132C315.453 416.688 315.437 416.64 315.437 416.436H319.069H322.702C322.702 416.103 322.638 415.575 322.606 415.299C322.556 414.865 322.482 414.259 322.385 413.487C322.192 411.94 321.903 409.691 321.518 406.743L317.916 407.213ZM319.069 416.436H315.437C315.437 418.248 314.833 419.543 313.603 420.619L315.995 423.353L318.387 426.087C321.255 423.577 322.702 420.26 322.702 416.436H319.069ZM315.995 423.353L313.261 420.961C312.155 422.225 310.449 423.192 307.756 423.606L308.309 427.196L308.861 430.786C312.83 430.176 316.247 428.581 318.728 425.745L315.995 423.353ZM308.309 427.196V423.564C306.337 423.564 304.762 422.965 303.399 421.772L301.007 424.506L298.615 427.24C301.352 429.634 304.644 430.829 308.309 430.829V427.196ZM301.007 424.506L303.399 421.772C302.081 420.619 301.341 419.189 301.166 417.26L297.548 417.589L293.931 417.918C294.268 421.625 295.833 424.806 298.615 427.24L301.007 424.506ZM297.548 417.589L300.994 416.44C301.023 416.525 300.982 416.406 300.882 415.858C300.796 415.385 300.691 414.732 300.565 413.886C300.315 412.197 299.999 409.826 299.616 406.762L296.011 407.213L292.407 407.663C292.792 410.747 293.116 413.181 293.378 414.951C293.615 416.545 293.849 417.979 294.102 418.737L297.548 417.589ZM296.011 407.213L299.631 406.911C299.115 400.717 298.342 392.995 297.316 383.753L293.705 384.154L290.095 384.556C291.118 393.76 291.882 401.411 292.391 407.514L296.011 407.213ZM293.705 384.154L297.325 383.853C296.555 374.616 295.658 364.484 294.632 353.458L291.015 353.795L287.398 354.131C288.422 365.138 289.318 375.247 290.085 384.456L293.705 384.154ZM291.015 353.795L294.632 353.458C293.607 342.436 292.581 331.671 291.556 321.161L287.941 321.513L284.325 321.866C285.35 332.365 286.374 343.12 287.398 354.131L291.015 353.795ZM287.941 321.513L291.564 321.248C290.794 310.732 290.024 300.981 289.254 291.996L285.635 292.307L282.016 292.617C282.783 301.566 283.55 311.287 284.318 321.779L287.941 321.513ZM285.635 292.307L289.262 292.099C288.751 283.158 288.499 276.192 288.499 271.17H284.866H281.234C281.234 276.396 281.494 283.521 282.008 292.514L285.635 292.307ZM284.866 271.17H288.499C288.499 264.171 288.24 255.523 287.726 245.24L284.098 245.422L280.47 245.603C280.98 255.817 281.234 264.334 281.234 271.17H284.866ZM284.098 245.422L287.726 245.24C287.212 234.967 286.57 224.311 285.8 213.272L282.176 213.525L278.552 213.778C279.32 224.772 279.959 235.381 280.47 245.603L284.098 245.422ZM282.176 213.525L285.8 213.272C285.027 202.198 283.997 191.25 282.709 180.43L279.102 180.859L275.495 181.289C276.769 191.989 277.788 202.819 278.552 213.778L282.176 213.525ZM279.102 180.859L282.718 180.515C281.69 169.725 280.661 160.454 279.628 152.709L276.027 153.19L272.427 153.67C273.444 161.297 274.464 170.472 275.486 181.204L279.102 180.859ZM276.027 153.19L273.944 150.214C268.83 153.794 263.845 157.245 258.988 160.568L261.04 163.566L263.091 166.564C267.97 163.225 272.977 159.759 278.111 156.165L276.027 153.19ZM261.04 163.566L258.913 160.621C254.305 163.949 250.211 166.891 246.631 169.449L248.742 172.405L250.853 175.361C254.447 172.794 258.551 169.844 263.166 166.511L261.04 163.566ZM248.742 172.405L246.527 169.525C243.202 172.083 240.525 174.123 238.492 175.647L240.672 178.553L242.851 181.459C244.918 179.91 247.621 177.85 250.957 175.284L248.742 172.405ZM240.672 178.553L238.442 175.686L234.983 178.376L237.213 181.244L239.443 184.111L242.902 181.421L240.672 178.553ZM237.213 181.244L234.644 178.675C233.54 179.779 232.289 180.301 230.68 180.301V183.934V187.566C234.194 187.566 237.299 186.295 239.782 183.812L237.213 181.244ZM230.68 183.934V180.301C228.433 180.301 226.794 179.507 225.446 177.821L222.61 180.091L219.773 182.36C222.524 185.799 226.265 187.566 230.68 187.566V183.934ZM222.61 180.091L225.178 177.522C224.145 176.489 223.552 175.145 223.552 173.173H219.919H216.287C216.287 176.838 217.488 180.106 220.041 182.659L222.61 180.091ZM219.919 173.173H223.552C223.552 170.997 224.239 169.38 225.562 168.056L222.994 165.487L220.425 162.919C217.65 165.694 216.287 169.2 216.287 173.173H219.919ZM222.994 165.487L225.562 168.056C225.456 168.162 225.438 168.164 225.719 167.939C225.933 167.768 226.241 167.528 226.65 167.214C227.465 166.587 228.636 165.7 230.169 164.55L227.99 161.644L225.81 158.738C224.269 159.894 223.07 160.801 222.22 161.455C221.501 162.008 220.766 162.578 220.425 162.919L222.994 165.487ZM227.99 161.644L230.315 164.435C233.305 161.944 237.076 159.05 241.646 155.75L239.519 152.805L237.392 149.86C232.738 153.222 228.824 156.221 225.664 158.854L227.99 161.644ZM239.519 152.805L241.674 155.73C246.511 152.166 251.863 148.342 257.734 144.258L255.659 141.276L253.585 138.294C247.67 142.409 242.263 146.271 237.364 149.881L239.519 152.805ZM255.659 141.276L257.819 144.197C263.636 139.898 269.579 135.851 275.647 132.059L273.722 128.979L271.796 125.898C265.567 129.792 259.468 133.944 253.5 138.355L255.659 141.276ZM273.722 128.979L275.524 132.133C276.773 131.419 278.074 131.074 279.486 131.074V127.441V123.809C276.799 123.809 274.257 124.489 271.919 125.825L273.722 128.979ZM279.486 127.441V131.074C280.741 131.074 282.132 131.458 283.71 132.443L285.635 129.363L287.56 126.283C285.038 124.706 282.33 123.809 279.486 123.809V127.441ZM285.635 129.363L285.234 132.973C286.801 133.147 288.169 133.739 289.42 134.811L291.784 132.053L294.148 129.295C291.811 127.292 289.081 126.091 286.036 125.753L285.635 129.363ZM291.784 132.053L289.42 134.811C290.616 135.837 291.355 137.067 291.696 138.606L295.242 137.818L298.788 137.03C298.106 133.956 296.538 131.344 294.148 129.295L291.784 132.053ZM295.242 137.818L291.691 138.579C293.19 145.574 294.583 155.04 295.858 167.024L299.47 166.64L303.082 166.256C301.795 154.158 300.37 144.408 298.794 137.056L295.242 137.818ZM299.47 166.64L295.858 167.033C297.135 178.778 298.285 191.168 299.307 204.201L302.928 203.917L306.55 203.633C305.523 190.535 304.366 178.072 303.081 166.248L299.47 166.64ZM302.928 203.917L299.307 204.201C300.329 217.226 301.094 229.864 301.605 242.114L305.234 241.963L308.864 241.812C308.349 229.467 307.578 216.741 306.55 203.633L302.928 203.917ZM305.234 241.963L301.609 242.194C302.375 254.2 302.755 263.85 302.755 271.17H306.387H310.02C310.02 263.631 309.63 253.809 308.859 241.732L305.234 241.963Z" fill="white" mask="url(#path-2-outside-1_127_34)"/>
<defs>
<filter id="filter0_d_127_34" x="0.623865" y="0.973285" width="572.535" height="572.535" filterUnits="userSpaceOnUse" color-interpolation-filters="sRGB">
<feFlood flood-opacity="0" result="BackgroundImageFix"/>
<feColorMatrix in="SourceAlpha" type="matrix" values="0 0 0 0 0 0 0 0 0 0 0 0 0 0 0 0 0 0 127 0" result="hardAlpha"/>
<feMorphology radius="11.3041" operator="dilate" in="SourceAlpha" result="effect1_dropShadow_127_34"/>
<feOffset dy="15.0721"/>
<feGaussianBlur stdDeviation="7.53604"/>
<feComposite in2="hardAlpha" operator="out"/>
<feColorMatrix type="matrix" values="0 0 0 0 0.12549 0 0 0 0 0.278431 0 0 0 0 0.27451 0 0 0 0.28 0"/>
<feBlend mode="normal" in2="BackgroundImageFix" result="effect1_dropShadow_127_34"/>
<feBlend mode="normal" in="SourceGraphic" in2="effect1_dropShadow_127_34" result="shape"/>
</filter>
</defs>
</svg>
