<svg width="574" height="574" viewBox="0 0 574 574" fill="none" xmlns="http://www.w3.org/2000/svg">
<g filter="url(#filter0_d_127_3)">
<rect x="27" y="12" width="519.783" height="519.783" rx="73.6907" fill="#DF1313"/>
</g>
<mask id="path-2-outside-1_127_3" maskUnits="userSpaceOnUse" x="215.762" y="123.386" width="107" height="308" fill="black">
<rect fill="white" x="215.762" y="123.386" width="107" height="308"/>
<path d="M306.387 270.893C306.387 275.76 306.643 282.678 307.156 291.645C307.924 300.612 308.693 310.476 309.462 321.236C310.486 331.74 311.511 342.629 312.536 353.902C313.561 364.918 314.586 375.038 315.61 384.261C316.635 393.228 317.404 400.786 317.916 406.935C318.685 412.828 319.069 415.902 319.069 416.158C319.069 418.977 318.044 421.282 315.995 423.076C314.201 425.125 311.639 426.406 308.309 426.919C305.49 426.919 303.057 426.022 301.007 424.229C298.957 422.435 297.804 420.13 297.548 417.311C297.292 416.543 296.78 413.084 296.011 406.935C295.499 400.786 294.73 393.1 293.705 383.877C292.937 374.654 292.04 364.534 291.015 353.517C289.99 342.501 288.966 331.74 287.941 321.236C287.172 310.732 286.404 300.996 285.635 292.029C285.123 283.062 284.866 276.017 284.866 270.893C284.866 263.975 284.61 255.392 284.098 245.144C283.585 234.896 282.945 224.264 282.176 213.247C281.408 202.231 280.383 191.342 279.102 180.582C278.077 169.821 277.052 160.598 276.027 152.912C270.903 156.499 265.907 159.958 261.04 163.288C256.428 166.619 252.329 169.565 248.742 172.127C245.411 174.689 242.721 176.739 240.672 178.276L237.213 180.966C235.42 182.76 233.242 183.656 230.68 183.656C227.349 183.656 224.659 182.375 222.61 179.813C220.816 178.02 219.919 175.714 219.919 172.896C219.919 169.821 220.944 167.259 222.994 165.21C223.25 164.954 224.915 163.673 227.99 161.367C231.064 158.805 234.907 155.859 239.519 152.528C244.387 148.941 249.767 145.098 255.659 140.999C261.552 136.643 267.573 132.544 273.722 128.701C275.515 127.676 277.436 127.164 279.486 127.164C281.536 127.164 283.585 127.805 285.635 129.086C287.941 129.342 289.99 130.238 291.784 131.776C293.577 133.313 294.73 135.234 295.242 137.54C296.78 144.714 298.189 154.321 299.47 166.363C300.751 178.148 301.904 190.574 302.928 203.64C303.953 216.706 304.722 229.388 305.234 241.686C306.003 253.727 306.387 263.463 306.387 270.893Z"/>
</mask>
<path d="M306.387 270.893C306.387 275.76 306.643 282.678 307.156 291.645C307.924 300.612 308.693 310.476 309.462 321.236C310.486 331.74 311.511 342.629 312.536 353.902C313.561 364.918 314.586 375.038 315.61 384.261C316.635 393.228 317.404 400.786 317.916 406.935C318.685 412.828 319.069 415.902 319.069 416.158C319.069 418.977 318.044 421.282 315.995 423.076C314.201 425.125 311.639 426.406 308.309 426.919C305.49 426.919 303.057 426.022 301.007 424.229C298.957 422.435 297.804 420.13 297.548 417.311C297.292 416.543 296.78 413.084 296.011 406.935C295.499 400.786 294.73 393.1 293.705 383.877C292.937 374.654 292.04 364.534 291.015 353.517C289.99 342.501 288.966 331.74 287.941 321.236C287.172 310.732 286.404 300.996 285.635 292.029C285.123 283.062 284.866 276.017 284.866 270.893C284.866 263.975 284.61 255.392 284.098 245.144C283.585 234.896 282.945 224.264 282.176 213.247C281.408 202.231 280.383 191.342 279.102 180.582C278.077 169.821 277.052 160.598 276.027 152.912C270.903 156.499 265.907 159.958 261.04 163.288C256.428 166.619 252.329 169.565 248.742 172.127C245.411 174.689 242.721 176.739 240.672 178.276L237.213 180.966C235.42 182.76 233.242 183.656 230.68 183.656C227.349 183.656 224.659 182.375 222.61 179.813C220.816 178.02 219.919 175.714 219.919 172.896C219.919 169.821 220.944 167.259 222.994 165.21C223.25 164.954 224.915 163.673 227.99 161.367C231.064 158.805 234.907 155.859 239.519 152.528C244.387 148.941 249.767 145.098 255.659 140.999C261.552 136.643 267.573 132.544 273.722 128.701C275.515 127.676 277.436 127.164 279.486 127.164C281.536 127.164 283.585 127.805 285.635 129.086C287.941 129.342 289.99 130.238 291.784 131.776C293.577 133.313 294.73 135.234 295.242 137.54C296.78 144.714 298.189 154.321 299.47 166.363C300.751 178.148 301.904 190.574 302.928 203.64C303.953 216.706 304.722 229.388 305.234 241.686C306.003 253.727 306.387 263.463 306.387 270.893Z" fill="white"/>
<path d="M307.156 291.645L303.529 291.852L303.532 291.904L303.537 291.955L307.156 291.645ZM309.462 321.236L305.838 321.495L305.842 321.542L305.846 321.589L309.462 321.236ZM312.536 353.902L308.918 354.231L308.919 354.238L312.536 353.902ZM315.61 384.261L312 384.663L312.001 384.674L315.61 384.261ZM317.916 406.935L314.296 407.237L314.303 407.321L314.314 407.405L317.916 406.935ZM315.995 423.076L313.603 420.342L313.42 420.502L313.261 420.684L315.995 423.076ZM308.309 426.919V430.551H308.586L308.861 430.509L308.309 426.919ZM297.548 417.311L301.166 416.982L301.128 416.563L300.994 416.163L297.548 417.311ZM296.011 406.935L292.391 407.237L292.397 407.311L292.407 407.386L296.011 406.935ZM293.705 383.877L290.085 384.179L290.089 384.229L290.095 384.278L293.705 383.877ZM287.941 321.236L284.318 321.501L284.321 321.545L284.325 321.589L287.941 321.236ZM285.635 292.029L282.008 292.236L282.011 292.288L282.016 292.339L285.635 292.029ZM279.102 180.582L275.486 180.926L275.49 180.969L275.495 181.011L279.102 180.582ZM276.027 152.912L279.628 152.432L278.838 146.51L273.944 149.936L276.027 152.912ZM261.04 163.288L258.988 160.29L258.95 160.316L258.913 160.344L261.04 163.288ZM248.742 172.127L246.631 169.171L246.578 169.209L246.527 169.248L248.742 172.127ZM240.672 178.276L238.492 175.37L238.467 175.389L238.442 175.409L240.672 178.276ZM237.213 180.966L234.983 178.099L234.804 178.238L234.644 178.398L237.213 180.966ZM222.61 179.813L225.446 177.544L225.32 177.387L225.178 177.245L222.61 179.813ZM222.994 165.21L220.425 162.641L222.994 165.21ZM227.99 161.367L230.169 164.273L230.244 164.217L230.315 164.157L227.99 161.367ZM239.519 152.528L241.646 155.473L241.66 155.463L241.674 155.452L239.519 152.528ZM255.659 140.999L257.734 143.981L257.777 143.951L257.819 143.92L255.659 140.999ZM273.722 128.701L271.919 125.547L271.857 125.583L271.796 125.621L273.722 128.701ZM285.635 129.086L283.71 132.166L284.411 132.604L285.234 132.696L285.635 129.086ZM295.242 137.54L298.794 136.779L298.791 136.766L298.788 136.752L295.242 137.54ZM299.47 166.363L295.858 166.747L295.858 166.755L299.47 166.363ZM305.234 241.686L301.605 241.837L301.607 241.877L301.609 241.917L305.234 241.686ZM306.387 270.893H302.755C302.755 275.865 303.016 282.863 303.529 291.852L307.156 291.645L310.782 291.438C310.271 282.493 310.02 275.656 310.02 270.893H306.387ZM307.156 291.645L303.537 291.955C304.303 300.902 305.071 310.748 305.838 321.495L309.462 321.236L313.085 320.977C312.315 310.203 311.545 300.322 310.775 291.335L307.156 291.645ZM309.462 321.236L305.846 321.589C306.87 332.085 307.894 342.965 308.918 354.231L312.536 353.902L316.154 353.573C315.128 342.293 314.103 331.396 313.077 320.883L309.462 321.236ZM312.536 353.902L308.919 354.238C309.946 365.272 310.972 375.414 312 384.663L315.61 384.261L319.221 383.86C318.199 374.662 317.176 364.564 316.153 353.565L312.536 353.902ZM315.61 384.261L312.001 384.674C313.024 393.619 313.788 401.138 314.296 407.237L317.916 406.935L321.536 406.634C321.02 400.435 320.247 392.838 319.219 383.849L315.61 384.261ZM317.916 406.935L314.314 407.405C314.698 410.35 314.985 412.584 315.176 414.111C315.272 414.876 315.342 415.455 315.388 415.854C315.453 416.411 315.437 416.363 315.437 416.158H319.069H322.702C322.702 415.826 322.638 415.298 322.606 415.021C322.556 414.588 322.482 413.982 322.385 413.21C322.192 411.663 321.903 409.413 321.518 406.465L317.916 406.935ZM319.069 416.158H315.437C315.437 417.971 314.833 419.265 313.603 420.342L315.995 423.076L318.387 425.81C321.255 423.299 322.702 419.983 322.702 416.158H319.069ZM315.995 423.076L313.261 420.684C312.155 421.948 310.449 422.914 307.756 423.329L308.309 426.919L308.861 430.509C312.83 429.899 316.247 428.303 318.728 425.468L315.995 423.076ZM308.309 426.919V423.286C306.337 423.286 304.762 422.687 303.399 421.495L301.007 424.229L298.615 426.963C301.352 429.357 304.644 430.551 308.309 430.551V426.919ZM301.007 424.229L303.399 421.495C302.081 420.342 301.341 418.912 301.166 416.982L297.548 417.311L293.931 417.64C294.268 421.347 295.833 424.529 298.615 426.963L301.007 424.229ZM297.548 417.311L300.994 416.163C301.023 416.248 300.982 416.128 300.882 415.581C300.796 415.108 300.691 414.455 300.565 413.609C300.315 411.919 299.999 409.549 299.616 406.485L296.011 406.935L292.407 407.386C292.792 410.47 293.116 412.904 293.378 414.673C293.615 416.268 293.849 417.702 294.102 418.46L297.548 417.311ZM296.011 406.935L299.631 406.634C299.115 400.439 298.342 392.718 297.316 383.476L293.705 383.877L290.095 384.278C291.118 393.483 291.882 401.133 292.391 407.237L296.011 406.935ZM293.705 383.877L297.325 383.575C296.555 374.339 295.658 364.207 294.632 353.181L291.015 353.517L287.398 353.854C288.422 364.861 289.318 374.969 290.085 384.179L293.705 383.877ZM291.015 353.517L294.632 353.181C293.607 342.159 292.581 331.393 291.556 320.883L287.941 321.236L284.325 321.589C285.35 332.087 286.374 342.842 287.398 353.854L291.015 353.517ZM287.941 321.236L291.564 320.971C290.794 310.454 290.024 300.703 289.254 291.719L285.635 292.029L282.016 292.339C282.783 301.289 283.55 311.01 284.318 321.501L287.941 321.236ZM285.635 292.029L289.262 291.822C288.751 282.881 288.499 275.915 288.499 270.893H284.866H281.234C281.234 276.118 281.494 283.243 282.008 292.236L285.635 292.029ZM284.866 270.893H288.499C288.499 263.893 288.24 255.246 287.726 244.963L284.098 245.144L280.47 245.326C280.98 255.539 281.234 264.057 281.234 270.893H284.866ZM284.098 245.144L287.726 244.963C287.212 234.69 286.57 224.033 285.8 212.995L282.176 213.247L278.552 213.5C279.32 224.495 279.959 235.103 280.47 245.326L284.098 245.144ZM282.176 213.247L285.8 212.995C285.027 201.92 283.997 190.973 282.709 180.152L279.102 180.582L275.495 181.011C276.769 191.712 277.788 202.542 278.552 213.5L282.176 213.247ZM279.102 180.582L282.718 180.237C281.69 169.448 280.661 160.177 279.628 152.432L276.027 152.912L272.427 153.392C273.444 161.02 274.464 170.195 275.486 180.926L279.102 180.582ZM276.027 152.912L273.944 149.936C268.83 153.516 263.845 156.968 258.988 160.29L261.04 163.288L263.091 166.286C267.97 162.948 272.977 159.482 278.111 155.888L276.027 152.912ZM261.04 163.288L258.913 160.344C254.305 163.671 250.211 166.614 246.631 169.171L248.742 172.127L250.853 175.083C254.447 172.517 258.551 169.566 263.166 166.233L261.04 163.288ZM248.742 172.127L246.527 169.248C243.202 171.806 240.525 173.845 238.492 175.37L240.672 178.276L242.851 181.182C244.918 179.632 247.621 177.573 250.957 175.007L248.742 172.127ZM240.672 178.276L238.442 175.409L234.983 178.099L237.213 180.966L239.443 183.834L242.902 181.143L240.672 178.276ZM237.213 180.966L234.644 178.398C233.54 179.502 232.289 180.024 230.68 180.024V183.656V187.289C234.194 187.289 237.299 186.017 239.782 183.535L237.213 180.966ZM230.68 183.656V180.024C228.433 180.024 226.794 179.229 225.446 177.544L222.61 179.813L219.773 182.083C222.524 185.521 226.265 187.289 230.68 187.289V183.656ZM222.61 179.813L225.178 177.245C224.145 176.211 223.552 174.868 223.552 172.896H219.919H216.287C216.287 176.56 217.488 179.829 220.041 182.382L222.61 179.813ZM219.919 172.896H223.552C223.552 170.72 224.239 169.102 225.562 167.778L222.994 165.21L220.425 162.641C217.65 165.417 216.287 168.923 216.287 172.896H219.919ZM222.994 165.21L225.562 167.778C225.456 167.884 225.438 167.887 225.719 167.662C225.933 167.491 226.241 167.251 226.65 166.936C227.465 166.309 228.636 165.423 230.169 164.273L227.99 161.367L225.81 158.461C224.269 159.617 223.07 160.524 222.22 161.178C221.501 161.731 220.766 162.3 220.425 162.641L222.994 165.21ZM227.99 161.367L230.315 164.157C233.305 161.666 237.076 158.773 241.646 155.473L239.519 152.528L237.392 149.583C232.738 152.944 228.824 155.943 225.664 158.576L227.99 161.367ZM239.519 152.528L241.674 155.452C246.511 151.888 251.863 148.065 257.734 143.981L255.659 140.999L253.585 138.017C247.67 142.132 242.263 145.994 237.364 149.604L239.519 152.528ZM255.659 140.999L257.819 143.92C263.636 139.62 269.579 135.574 275.647 131.782L273.722 128.701L271.796 125.621C265.567 129.514 259.468 133.667 253.5 138.078L255.659 140.999ZM273.722 128.701L275.524 131.855C276.773 131.141 278.074 130.797 279.486 130.797V127.164V123.532C276.799 123.532 274.257 124.211 271.919 125.547L273.722 128.701ZM279.486 127.164V130.797C280.741 130.797 282.132 131.18 283.71 132.166L285.635 129.086L287.56 126.005C285.038 124.429 282.33 123.532 279.486 123.532V127.164ZM285.635 129.086L285.234 132.696C286.801 132.87 288.169 133.462 289.42 134.534L291.784 131.776L294.148 129.018C291.811 127.015 289.081 125.814 286.036 125.475L285.635 129.086ZM291.784 131.776L289.42 134.534C290.616 135.559 291.355 136.79 291.696 138.328L295.242 137.54L298.788 136.752C298.106 133.679 296.538 131.066 294.148 129.018L291.784 131.776ZM295.242 137.54L291.691 138.301C293.19 145.297 294.583 154.762 295.858 166.747L299.47 166.363L303.082 165.978C301.795 153.88 300.37 144.131 298.794 136.779L295.242 137.54ZM299.47 166.363L295.858 166.755C297.135 178.501 298.285 190.89 299.307 203.924L302.928 203.64L306.55 203.356C305.523 190.257 304.366 177.795 303.081 165.97L299.47 166.363ZM302.928 203.64L299.307 203.924C300.329 216.949 301.094 229.586 301.605 241.837L305.234 241.686L308.864 241.535C308.349 229.19 307.578 216.464 306.55 203.356L302.928 203.64ZM305.234 241.686L301.609 241.917C302.375 253.923 302.755 263.572 302.755 270.893H306.387H310.02C310.02 263.353 309.63 253.532 308.859 241.454L305.234 241.686Z" fill="white" mask="url(#path-2-outside-1_127_3)"/>
<defs>
<filter id="filter0_d_127_3" x="0.623865" y="0.695941" width="572.535" height="572.535" filterUnits="userSpaceOnUse" color-interpolation-filters="sRGB">
<feFlood flood-opacity="0" result="BackgroundImageFix"/>
<feColorMatrix in="SourceAlpha" type="matrix" values="0 0 0 0 0 0 0 0 0 0 0 0 0 0 0 0 0 0 127 0" result="hardAlpha"/>
<feMorphology radius="11.3041" operator="dilate" in="SourceAlpha" result="effect1_dropShadow_127_3"/>
<feOffset dy="15.0721"/>
<feGaussianBlur stdDeviation="7.53604"/>
<feComposite in2="hardAlpha" operator="out"/>
<feColorMatrix type="matrix" values="0 0 0 0 0.12549 0 0 0 0 0.278431 0 0 0 0 0.27451 0 0 0 0.28 0"/>
<feBlend mode="normal" in2="BackgroundImageFix" result="effect1_dropShadow_127_3"/>
<feBlend mode="normal" in="SourceGraphic" in2="effect1_dropShadow_127_3" result="shape"/>
</filter>
</defs>
</svg>
