<svg width="574" height="574" viewBox="0 0 574 574" fill="none" xmlns="http://www.w3.org/2000/svg">
<g filter="url(#filter0_d_127_37)">
<rect x="27.3135" y="12.2773" width="519.783" height="519.783" rx="73.6907" fill="#2FD82F"/>
</g>
<mask id="path-2-outside-1_127_37" maskUnits="userSpaceOnUse" x="181.458" y="117.663" width="211" height="315" fill="black">
<rect fill="white" x="181.458" y="117.663" width="211" height="315"/>
<path d="M380.369 407.597C386.005 408.878 388.824 413.233 388.824 420.663C388.311 423.225 386.902 425.275 384.596 426.812C382.291 428.349 379.344 428.99 375.757 428.733C370.633 427.965 364.741 427.068 358.08 426.043C352.443 425.275 345.526 424.506 337.327 423.737C329.385 423.225 320.546 422.841 310.811 422.585H305.43C295.695 422.585 285.831 422.841 275.839 423.353C265.847 424.122 256.752 424.89 248.554 425.659C240.612 426.428 233.95 427.068 228.57 427.581C223.19 428.349 220.244 428.733 219.731 428.733C218.963 428.733 218.066 428.605 217.041 428.349C216.273 428.349 214.607 428.349 212.045 428.349C208.971 428.349 206.409 427.196 204.359 424.89C202.31 422.841 201.285 420.407 201.285 417.589C201.541 396.068 204.487 377.878 210.124 363.018C216.016 348.158 225.111 334.58 237.409 322.282C244.839 314.852 253.037 308.191 262.004 302.298C270.971 296.15 279.938 290.129 288.905 284.236C296.848 279.368 304.534 274.501 311.963 269.633C319.393 264.509 325.926 259.257 331.563 253.876C337.199 248.496 341.683 242.86 345.013 236.967C348.6 230.818 350.394 224.285 350.394 217.368C350.394 209.682 350.009 202.508 349.241 195.847C348.472 188.93 346.679 182.525 343.86 176.632C341.042 170.739 336.815 165.487 331.179 160.876C325.542 156.264 317.728 152.165 307.736 148.578C302.1 146.528 297.104 145.119 292.748 144.351C288.649 143.326 284.678 142.813 280.835 142.813C275.455 142.813 269.818 143.582 263.926 145.119C258.033 146.656 250.603 148.834 241.636 151.652C235.231 153.702 229.851 156.904 225.496 161.26C221.14 165.359 217.554 169.586 214.735 173.942C211.405 179.066 208.587 184.574 206.281 190.467C204.487 195.591 200.004 198.025 192.83 197.768C190.524 197 188.603 195.591 187.066 193.541C185.785 191.235 185.4 188.161 185.913 184.318C185.913 183.806 186.809 181.244 188.603 176.632C190.396 172.02 193.214 166.896 197.057 161.26C201.157 155.367 206.409 149.603 212.814 143.966C219.219 138.074 227.033 133.718 236.256 130.9C245.223 128.082 253.165 125.904 260.083 124.367C267 122.574 273.918 121.677 280.835 121.677C285.703 121.677 290.827 122.189 296.207 123.214C301.844 124.239 308.12 125.904 315.038 128.21C329.129 133.078 340.017 139.355 347.703 147.041C355.646 154.471 361.282 162.285 364.613 170.483C368.2 178.682 370.249 187.008 370.762 195.463C371.53 203.661 371.914 210.963 371.914 217.368C371.914 227.36 369.865 236.327 365.766 244.269C361.666 252.211 356.158 259.641 349.241 266.558C342.579 273.22 334.893 279.497 326.183 285.389C317.728 291.026 309.145 296.662 300.434 302.298C291.98 307.935 283.525 313.571 275.071 319.208C266.616 324.844 259.058 330.993 252.397 337.654C243.174 346.621 236.256 356.485 231.645 367.245C227.033 378.006 224.215 391.072 223.19 406.444C226.521 406.188 231.132 405.803 237.025 405.291C242.917 404.522 249.579 403.882 257.008 403.37C264.438 402.601 272.252 402.089 280.451 401.832C288.905 401.32 297.36 401.064 305.815 401.064H311.195C332.203 401.576 348.856 402.857 361.154 404.907C373.452 406.7 379.857 407.597 380.369 407.597Z"/>
</mask>
<path d="M380.369 407.597C386.005 408.878 388.824 413.233 388.824 420.663C388.311 423.225 386.902 425.275 384.596 426.812C382.291 428.349 379.344 428.99 375.757 428.733C370.633 427.965 364.741 427.068 358.08 426.043C352.443 425.275 345.526 424.506 337.327 423.737C329.385 423.225 320.546 422.841 310.811 422.585H305.43C295.695 422.585 285.831 422.841 275.839 423.353C265.847 424.122 256.752 424.89 248.554 425.659C240.612 426.428 233.95 427.068 228.57 427.581C223.19 428.349 220.244 428.733 219.731 428.733C218.963 428.733 218.066 428.605 217.041 428.349C216.273 428.349 214.607 428.349 212.045 428.349C208.971 428.349 206.409 427.196 204.359 424.89C202.31 422.841 201.285 420.407 201.285 417.589C201.541 396.068 204.487 377.878 210.124 363.018C216.016 348.158 225.111 334.58 237.409 322.282C244.839 314.852 253.037 308.191 262.004 302.298C270.971 296.15 279.938 290.129 288.905 284.236C296.848 279.368 304.534 274.501 311.963 269.633C319.393 264.509 325.926 259.257 331.563 253.876C337.199 248.496 341.683 242.86 345.013 236.967C348.6 230.818 350.394 224.285 350.394 217.368C350.394 209.682 350.009 202.508 349.241 195.847C348.472 188.93 346.679 182.525 343.86 176.632C341.042 170.739 336.815 165.487 331.179 160.876C325.542 156.264 317.728 152.165 307.736 148.578C302.1 146.528 297.104 145.119 292.748 144.351C288.649 143.326 284.678 142.813 280.835 142.813C275.455 142.813 269.818 143.582 263.926 145.119C258.033 146.656 250.603 148.834 241.636 151.652C235.231 153.702 229.851 156.904 225.496 161.26C221.14 165.359 217.554 169.586 214.735 173.942C211.405 179.066 208.587 184.574 206.281 190.467C204.487 195.591 200.004 198.025 192.83 197.768C190.524 197 188.603 195.591 187.066 193.541C185.785 191.235 185.4 188.161 185.913 184.318C185.913 183.806 186.809 181.244 188.603 176.632C190.396 172.02 193.214 166.896 197.057 161.26C201.157 155.367 206.409 149.603 212.814 143.966C219.219 138.074 227.033 133.718 236.256 130.9C245.223 128.082 253.165 125.904 260.083 124.367C267 122.574 273.918 121.677 280.835 121.677C285.703 121.677 290.827 122.189 296.207 123.214C301.844 124.239 308.12 125.904 315.038 128.21C329.129 133.078 340.017 139.355 347.703 147.041C355.646 154.471 361.282 162.285 364.613 170.483C368.2 178.682 370.249 187.008 370.762 195.463C371.53 203.661 371.914 210.963 371.914 217.368C371.914 227.36 369.865 236.327 365.766 244.269C361.666 252.211 356.158 259.641 349.241 266.558C342.579 273.22 334.893 279.497 326.183 285.389C317.728 291.026 309.145 296.662 300.434 302.298C291.98 307.935 283.525 313.571 275.071 319.208C266.616 324.844 259.058 330.993 252.397 337.654C243.174 346.621 236.256 356.485 231.645 367.245C227.033 378.006 224.215 391.072 223.19 406.444C226.521 406.188 231.132 405.803 237.025 405.291C242.917 404.522 249.579 403.882 257.008 403.37C264.438 402.601 272.252 402.089 280.451 401.832C288.905 401.32 297.36 401.064 305.815 401.064H311.195C332.203 401.576 348.856 402.857 361.154 404.907C373.452 406.7 379.857 407.597 380.369 407.597Z" fill="white"/>
<path d="M380.369 407.597L381.174 404.055L380.777 403.964H380.369V407.597ZM388.824 420.663L392.386 421.375L392.456 421.023V420.663H388.824ZM375.757 428.733L375.219 432.326L375.358 432.347L375.499 432.357L375.757 428.733ZM358.08 426.043L358.632 422.453L358.601 422.448L358.57 422.444L358.08 426.043ZM337.327 423.737L337.666 420.121L337.614 420.116L337.561 420.112L337.327 423.737ZM310.811 422.585L310.906 418.953L310.858 418.952H310.811V422.585ZM275.839 423.353L275.653 419.725L275.607 419.728L275.561 419.731L275.839 423.353ZM248.554 425.659L248.215 422.042L248.204 422.043L248.554 425.659ZM228.57 427.581L228.226 423.964L228.141 423.972L228.056 423.984L228.57 427.581ZM217.041 428.349L217.922 424.825L217.488 424.717H217.041V428.349ZM204.359 424.89L207.074 422.477L207.003 422.397L206.928 422.322L204.359 424.89ZM201.285 417.589L197.653 417.545L197.652 417.567V417.589H201.285ZM210.124 363.018L206.747 361.679L206.737 361.704L206.727 361.73L210.124 363.018ZM237.409 322.282L234.841 319.713L237.409 322.282ZM262.004 302.298L263.999 305.334L264.029 305.314L264.059 305.294L262.004 302.298ZM288.905 284.236L287.007 281.139L286.958 281.169L286.911 281.2L288.905 284.236ZM311.963 269.633L313.954 272.671L313.99 272.648L314.026 272.623L311.963 269.633ZM345.013 236.967L341.876 235.137L341.863 235.158L341.851 235.18L345.013 236.967ZM349.241 195.847L345.63 196.248L345.631 196.256L345.632 196.263L349.241 195.847ZM307.736 148.578L306.495 151.992L306.502 151.994L306.509 151.997L307.736 148.578ZM292.748 144.351L291.867 147.875L291.991 147.906L292.117 147.928L292.748 144.351ZM241.636 151.652L240.547 148.187L240.538 148.19L240.529 148.193L241.636 151.652ZM225.496 161.26L227.985 163.905L228.025 163.867L228.064 163.828L225.496 161.26ZM214.735 173.942L217.781 175.922L217.785 175.915L214.735 173.942ZM206.281 190.467L202.898 189.143L202.874 189.204L202.852 189.267L206.281 190.467ZM192.83 197.768L191.681 201.215L192.178 201.38L192.701 201.399L192.83 197.768ZM187.066 193.541L183.89 195.305L184.011 195.522L184.16 195.721L187.066 193.541ZM185.913 184.318L189.513 184.798L189.545 184.559V184.318H185.913ZM197.057 161.26L194.076 159.185L194.066 159.199L194.056 159.214L197.057 161.26ZM212.814 143.966L215.214 146.693L215.244 146.667L215.273 146.64L212.814 143.966ZM236.256 130.9L237.318 134.374L237.332 134.37L237.345 134.366L236.256 130.9ZM260.083 124.367L260.871 127.913L260.933 127.899L260.994 127.883L260.083 124.367ZM296.207 123.214L295.527 126.782L295.542 126.785L295.557 126.788L296.207 123.214ZM315.038 128.21L316.224 124.777L316.205 124.77L316.187 124.764L315.038 128.21ZM347.703 147.041L345.135 149.609L345.178 149.652L345.222 149.693L347.703 147.041ZM364.613 170.483L361.247 171.85L361.265 171.895L361.285 171.939L364.613 170.483ZM370.762 195.463L367.136 195.682L367.139 195.742L367.145 195.802L370.762 195.463ZM326.183 285.389L328.198 288.412L328.208 288.405L328.218 288.398L326.183 285.389ZM300.434 302.298L298.461 299.249L298.44 299.262L298.419 299.276L300.434 302.298ZM275.071 319.208L277.086 322.23L275.071 319.208ZM252.397 337.654L254.929 340.259L254.947 340.241L254.965 340.223L252.397 337.654ZM223.19 406.444L219.565 406.202L219.286 410.387L223.469 410.066L223.19 406.444ZM237.025 405.291L237.339 408.91L237.417 408.903L237.495 408.893L237.025 405.291ZM257.008 403.37L257.258 406.993L257.32 406.989L257.382 406.983L257.008 403.37ZM280.451 401.832L280.564 405.463L280.617 405.461L280.671 405.458L280.451 401.832ZM311.195 401.064L311.283 397.432L311.239 397.431H311.195V401.064ZM361.154 404.907L360.557 408.49L360.593 408.496L360.63 408.501L361.154 404.907ZM380.369 407.597L379.564 411.139C381.573 411.596 382.827 412.509 383.66 413.798C384.558 415.185 385.191 417.36 385.191 420.663H388.824H392.456C392.456 416.536 391.68 412.819 389.76 409.851C387.775 406.783 384.801 404.879 381.174 404.055L380.369 407.597ZM388.824 420.663L385.262 419.951C384.951 421.506 384.14 422.751 382.581 423.789L384.596 426.812L386.611 429.834C389.665 427.799 391.672 424.944 392.386 421.375L388.824 420.663ZM384.596 426.812L382.581 423.789C381.122 424.762 379.04 425.326 376.016 425.11L375.757 428.733L375.499 432.357C379.648 432.653 383.459 431.936 386.611 429.834L384.596 426.812ZM375.757 428.733L376.296 425.141C371.178 424.373 365.29 423.477 358.632 422.453L358.08 426.043L357.527 429.634C364.192 430.659 370.089 431.556 375.219 432.326L375.757 428.733ZM358.08 426.043L358.57 422.444C352.867 421.666 345.895 420.892 337.666 420.121L337.327 423.737L336.988 427.354C345.156 428.12 352.02 428.883 357.589 429.643L358.08 426.043ZM337.327 423.737L337.561 420.112C329.564 419.597 320.678 419.21 310.906 418.953L310.811 422.585L310.715 426.216C320.414 426.471 329.206 426.854 337.093 427.362L337.327 423.737ZM310.811 422.585V418.952H305.43V422.585V426.217H310.811V422.585ZM305.43 422.585V418.952C295.631 418.952 285.705 419.21 275.653 419.725L275.839 423.353L276.025 426.981C285.957 426.472 295.758 426.217 305.43 426.217V422.585ZM275.839 423.353L275.561 419.731C265.553 420.501 256.437 421.271 248.215 422.042L248.554 425.659L248.893 429.276C257.067 428.509 266.142 427.742 276.118 426.975L275.839 423.353ZM248.554 425.659L248.204 422.043C240.263 422.812 233.604 423.452 228.226 423.964L228.57 427.581L228.915 431.197C234.297 430.684 240.96 430.043 248.904 429.275L248.554 425.659ZM228.57 427.581L228.056 423.984C225.371 424.368 223.307 424.654 221.855 424.843C220.24 425.054 219.686 425.101 219.731 425.101V428.733V432.366C220.288 432.366 221.464 432.221 222.795 432.047C224.29 431.852 226.389 431.562 229.084 431.177L228.57 427.581ZM219.731 428.733V425.101C219.347 425.101 218.758 425.034 217.922 424.825L217.041 428.349L216.16 431.873C217.374 432.177 218.578 432.366 219.731 432.366V428.733ZM217.041 428.349V424.717C217.04 424.717 217.038 424.717 217.037 424.717C217.035 424.717 217.034 424.717 217.032 424.717C217.031 424.717 217.029 424.717 217.028 424.717C217.026 424.717 217.024 424.717 217.023 424.717C217.021 424.717 217.02 424.717 217.018 424.717C217.017 424.717 217.015 424.717 217.014 424.717C217.012 424.717 217.011 424.717 217.009 424.717C217.008 424.717 217.006 424.717 217.004 424.717C217.003 424.717 217.001 424.717 217 424.717C216.998 424.717 216.997 424.717 216.995 424.717C216.994 424.717 216.992 424.717 216.99 424.717C216.989 424.717 216.987 424.717 216.986 424.717C216.984 424.717 216.982 424.717 216.981 424.717C216.979 424.717 216.978 424.717 216.976 424.717C216.974 424.717 216.973 424.717 216.971 424.717C216.97 424.717 216.968 424.717 216.966 424.717C216.965 424.717 216.963 424.717 216.962 424.717C216.96 424.717 216.958 424.717 216.957 424.717C216.955 424.717 216.953 424.717 216.952 424.717C216.95 424.717 216.949 424.717 216.947 424.717C216.945 424.717 216.944 424.717 216.942 424.717C216.94 424.717 216.939 424.717 216.937 424.717C216.935 424.717 216.934 424.717 216.932 424.717C216.93 424.717 216.929 424.717 216.927 424.717C216.925 424.717 216.924 424.717 216.922 424.717C216.92 424.717 216.919 424.717 216.917 424.717C216.915 424.717 216.914 424.717 216.912 424.717C216.91 424.717 216.909 424.717 216.907 424.717C216.905 424.717 216.904 424.717 216.902 424.717C216.9 424.717 216.899 424.717 216.897 424.717C216.895 424.717 216.893 424.717 216.892 424.717C216.89 424.717 216.888 424.717 216.887 424.717C216.885 424.717 216.883 424.717 216.881 424.717C216.88 424.717 216.878 424.717 216.876 424.717C216.874 424.717 216.873 424.717 216.871 424.717C216.869 424.717 216.867 424.717 216.866 424.717C216.864 424.717 216.862 424.717 216.86 424.717C216.859 424.717 216.857 424.717 216.855 424.717C216.853 424.717 216.852 424.717 216.85 424.717C216.848 424.717 216.846 424.717 216.845 424.717C216.843 424.717 216.841 424.717 216.839 424.717C216.837 424.717 216.836 424.717 216.834 424.717C216.832 424.717 216.83 424.717 216.829 424.717C216.827 424.717 216.825 424.717 216.823 424.717C216.821 424.717 216.82 424.717 216.818 424.717C216.816 424.717 216.814 424.717 216.812 424.717C216.81 424.717 216.809 424.717 216.807 424.717C216.805 424.717 216.803 424.717 216.801 424.717C216.799 424.717 216.798 424.717 216.796 424.717C216.794 424.717 216.792 424.717 216.79 424.717C216.788 424.717 216.787 424.717 216.785 424.717C216.783 424.717 216.781 424.717 216.779 424.717C216.777 424.717 216.775 424.717 216.774 424.717C216.772 424.717 216.77 424.717 216.768 424.717C216.766 424.717 216.764 424.717 216.762 424.717C216.761 424.717 216.759 424.717 216.757 424.717C216.755 424.717 216.753 424.717 216.751 424.717C216.749 424.717 216.747 424.717 216.745 424.717C216.744 424.717 216.742 424.717 216.74 424.717C216.738 424.717 216.736 424.717 216.734 424.717C216.732 424.717 216.73 424.717 216.728 424.717C216.726 424.717 216.724 424.717 216.722 424.717C216.721 424.717 216.719 424.717 216.717 424.717C216.715 424.717 216.713 424.717 216.711 424.717C216.709 424.717 216.707 424.717 216.705 424.717C216.703 424.717 216.701 424.717 216.699 424.717C216.697 424.717 216.695 424.717 216.693 424.717C216.691 424.717 216.689 424.717 216.687 424.717C216.685 424.717 216.684 424.717 216.682 424.717C216.68 424.717 216.678 424.717 216.676 424.717C216.674 424.717 216.672 424.717 216.67 424.717C216.668 424.717 216.666 424.717 216.664 424.717C216.662 424.717 216.66 424.717 216.658 424.717C216.656 424.717 216.654 424.717 216.652 424.717C216.65 424.717 216.648 424.717 216.646 424.717C216.644 424.717 216.642 424.717 216.64 424.717C216.638 424.717 216.636 424.717 216.634 424.717C216.631 424.717 216.629 424.717 216.627 424.717C216.625 424.717 216.623 424.717 216.621 424.717C216.619 424.717 216.617 424.717 216.615 424.717C216.613 424.717 216.611 424.717 216.609 424.717C216.607 424.717 216.605 424.717 216.603 424.717C216.601 424.717 216.599 424.717 216.597 424.717C216.595 424.717 216.593 424.717 216.59 424.717C216.588 424.717 216.586 424.717 216.584 424.717C216.582 424.717 216.58 424.717 216.578 424.717C216.576 424.717 216.574 424.717 216.572 424.717C216.57 424.717 216.567 424.717 216.565 424.717C216.563 424.717 216.561 424.717 216.559 424.717C216.557 424.717 216.555 424.717 216.553 424.717C216.551 424.717 216.548 424.717 216.546 424.717C216.544 424.717 216.542 424.717 216.54 424.717C216.538 424.717 216.536 424.717 216.534 424.717C216.531 424.717 216.529 424.717 216.527 424.717C216.525 424.717 216.523 424.717 216.521 424.717C216.519 424.717 216.516 424.717 216.514 424.717C216.512 424.717 216.51 424.717 216.508 424.717C216.506 424.717 216.503 424.717 216.501 424.717C216.499 424.717 216.497 424.717 216.495 424.717C216.493 424.717 216.49 424.717 216.488 424.717C216.486 424.717 216.484 424.717 216.482 424.717C216.479 424.717 216.477 424.717 216.475 424.717C216.473 424.717 216.471 424.717 216.468 424.717C216.466 424.717 216.464 424.717 216.462 424.717C216.46 424.717 216.457 424.717 216.455 424.717C216.453 424.717 216.451 424.717 216.448 424.717C216.446 424.717 216.444 424.717 216.442 424.717C216.44 424.717 216.437 424.717 216.435 424.717C216.433 424.717 216.431 424.717 216.428 424.717C216.426 424.717 216.424 424.717 216.422 424.717C216.419 424.717 216.417 424.717 216.415 424.717C216.413 424.717 216.41 424.717 216.408 424.717C216.406 424.717 216.403 424.717 216.401 424.717C216.399 424.717 216.397 424.717 216.394 424.717C216.392 424.717 216.39 424.717 216.388 424.717C216.385 424.717 216.383 424.717 216.381 424.717C216.378 424.717 216.376 424.717 216.374 424.717C216.371 424.717 216.369 424.717 216.367 424.717C216.365 424.717 216.362 424.717 216.36 424.717C216.358 424.717 216.355 424.717 216.353 424.717C216.351 424.717 216.348 424.717 216.346 424.717C216.344 424.717 216.341 424.717 216.339 424.717C216.337 424.717 216.334 424.717 216.332 424.717C216.33 424.717 216.327 424.717 216.325 424.717C216.323 424.717 216.32 424.717 216.318 424.717C216.315 424.717 216.313 424.717 216.311 424.717C216.308 424.717 216.306 424.717 216.304 424.717C216.301 424.717 216.299 424.717 216.297 424.717C216.294 424.717 216.292 424.717 216.289 424.717C216.287 424.717 216.285 424.717 216.282 424.717C216.28 424.717 216.277 424.717 216.275 424.717C216.273 424.717 216.27 424.717 216.268 424.717C216.265 424.717 216.263 424.717 216.261 424.717C216.258 424.717 216.256 424.717 216.253 424.717C216.251 424.717 216.249 424.717 216.246 424.717C216.244 424.717 216.241 424.717 216.239 424.717C216.236 424.717 216.234 424.717 216.232 424.717C216.229 424.717 216.227 424.717 216.224 424.717C216.222 424.717 216.219 424.717 216.217 424.717C216.214 424.717 216.212 424.717 216.21 424.717C216.207 424.717 216.205 424.717 216.202 424.717C216.2 424.717 216.197 424.717 216.195 424.717C216.192 424.717 216.19 424.717 216.187 424.717C216.185 424.717 216.182 424.717 216.18 424.717C216.177 424.717 216.175 424.717 216.172 424.717C216.17 424.717 216.167 424.717 216.165 424.717C216.162 424.717 216.16 424.717 216.157 424.717C216.155 424.717 216.152 424.717 216.15 424.717C216.147 424.717 216.145 424.717 216.142 424.717C216.14 424.717 216.137 424.717 216.135 424.717C216.132 424.717 216.13 424.717 216.127 424.717C216.125 424.717 216.122 424.717 216.12 424.717C216.117 424.717 216.114 424.717 216.112 424.717C216.109 424.717 216.107 424.717 216.104 424.717C216.102 424.717 216.099 424.717 216.097 424.717C216.094 424.717 216.091 424.717 216.089 424.717C216.086 424.717 216.084 424.717 216.081 424.717C216.079 424.717 216.076 424.717 216.073 424.717C216.071 424.717 216.068 424.717 216.066 424.717C216.063 424.717 216.06 424.717 216.058 424.717C216.055 424.717 216.053 424.717 216.05 424.717C216.047 424.717 216.045 424.717 216.042 424.717C216.04 424.717 216.037 424.717 216.034 424.717C216.032 424.717 216.029 424.717 216.027 424.717C216.024 424.717 216.021 424.717 216.019 424.717C216.016 424.717 216.013 424.717 216.011 424.717C216.008 424.717 216.005 424.717 216.003 424.717C216 424.717 215.998 424.717 215.995 424.717C215.992 424.717 215.99 424.717 215.987 424.717C215.984 424.717 215.982 424.717 215.979 424.717C215.976 424.717 215.974 424.717 215.971 424.717C215.968 424.717 215.966 424.717 215.963 424.717C215.96 424.717 215.958 424.717 215.955 424.717C215.952 424.717 215.95 424.717 215.947 424.717C215.944 424.717 215.941 424.717 215.939 424.717C215.936 424.717 215.933 424.717 215.931 424.717C215.928 424.717 215.925 424.717 215.923 424.717C215.92 424.717 215.917 424.717 215.914 424.717C215.912 424.717 215.909 424.717 215.906 424.717C215.903 424.717 215.901 424.717 215.898 424.717C215.895 424.717 215.893 424.717 215.89 424.717C215.887 424.717 215.884 424.717 215.882 424.717C215.879 424.717 215.876 424.717 215.873 424.717C215.871 424.717 215.868 424.717 215.865 424.717C215.862 424.717 215.86 424.717 215.857 424.717C215.854 424.717 215.851 424.717 215.848 424.717C215.846 424.717 215.843 424.717 215.84 424.717C215.837 424.717 215.835 424.717 215.832 424.717C215.829 424.717 215.826 424.717 215.823 424.717C215.821 424.717 215.818 424.717 215.815 424.717C215.812 424.717 215.809 424.717 215.807 424.717C215.804 424.717 215.801 424.717 215.798 424.717C215.795 424.717 215.793 424.717 215.79 424.717C215.787 424.717 215.784 424.717 215.781 424.717C215.778 424.717 215.776 424.717 215.773 424.717C215.77 424.717 215.767 424.717 215.764 424.717C215.761 424.717 215.759 424.717 215.756 424.717C215.753 424.717 215.75 424.717 215.747 424.717C215.744 424.717 215.741 424.717 215.739 424.717C215.736 424.717 215.733 424.717 215.73 424.717C215.727 424.717 215.724 424.717 215.721 424.717C215.718 424.717 215.716 424.717 215.713 424.717C215.71 424.717 215.707 424.717 215.704 424.717C215.701 424.717 215.698 424.717 215.695 424.717C215.692 424.717 215.69 424.717 215.687 424.717C215.684 424.717 215.681 424.717 215.678 424.717C215.675 424.717 215.672 424.717 215.669 424.717C215.666 424.717 215.663 424.717 215.66 424.717C215.658 424.717 215.655 424.717 215.652 424.717C215.649 424.717 215.646 424.717 215.643 424.717C215.64 424.717 215.637 424.717 215.634 424.717C215.631 424.717 215.628 424.717 215.625 424.717C215.622 424.717 215.619 424.717 215.616 424.717C215.613 424.717 215.61 424.717 215.607 424.717C215.604 424.717 215.601 424.717 215.599 424.717C215.596 424.717 215.593 424.717 215.59 424.717C215.587 424.717 215.584 424.717 215.581 424.717C215.578 424.717 215.575 424.717 215.572 424.717C215.569 424.717 215.566 424.717 215.563 424.717C215.56 424.717 215.557 424.717 215.554 424.717C215.551 424.717 215.548 424.717 215.545 424.717C215.542 424.717 215.539 424.717 215.536 424.717C215.533 424.717 215.53 424.717 215.527 424.717C215.524 424.717 215.52 424.717 215.517 424.717C215.514 424.717 215.511 424.717 215.508 424.717C215.505 424.717 215.502 424.717 215.499 424.717C215.496 424.717 215.493 424.717 215.49 424.717C215.487 424.717 215.484 424.717 215.481 424.717C215.478 424.717 215.475 424.717 215.472 424.717C215.469 424.717 215.466 424.717 215.462 424.717C215.459 424.717 215.456 424.717 215.453 424.717C215.45 424.717 215.447 424.717 215.444 424.717C215.441 424.717 215.438 424.717 215.435 424.717C215.432 424.717 215.429 424.717 215.425 424.717C215.422 424.717 215.419 424.717 215.416 424.717C215.413 424.717 215.41 424.717 215.407 424.717C215.404 424.717 215.401 424.717 215.397 424.717C215.394 424.717 215.391 424.717 215.388 424.717C215.385 424.717 215.382 424.717 215.379 424.717C215.375 424.717 215.372 424.717 215.369 424.717C215.366 424.717 215.363 424.717 215.36 424.717C215.357 424.717 215.353 424.717 215.35 424.717C215.347 424.717 215.344 424.717 215.341 424.717C215.338 424.717 215.334 424.717 215.331 424.717C215.328 424.717 215.325 424.717 215.322 424.717C215.319 424.717 215.315 424.717 215.312 424.717C215.309 424.717 215.306 424.717 215.303 424.717C215.3 424.717 215.296 424.717 215.293 424.717C215.29 424.717 215.287 424.717 215.284 424.717C215.28 424.717 215.277 424.717 215.274 424.717C215.271 424.717 215.267 424.717 215.264 424.717C215.261 424.717 215.258 424.717 215.255 424.717C215.251 424.717 215.248 424.717 215.245 424.717C215.242 424.717 215.238 424.717 215.235 424.717C215.232 424.717 215.229 424.717 215.225 424.717C215.222 424.717 215.219 424.717 215.216 424.717C215.212 424.717 215.209 424.717 215.206 424.717C215.203 424.717 215.199 424.717 215.196 424.717C215.193 424.717 215.19 424.717 215.186 424.717C215.183 424.717 215.18 424.717 215.177 424.717C215.173 424.717 215.17 424.717 215.167 424.717C215.163 424.717 215.16 424.717 215.157 424.717C215.153 424.717 215.15 424.717 215.147 424.717C215.144 424.717 215.14 424.717 215.137 424.717C215.134 424.717 215.13 424.717 215.127 424.717C215.124 424.717 215.12 424.717 215.117 424.717C215.114 424.717 215.11 424.717 215.107 424.717C215.104 424.717 215.1 424.717 215.097 424.717C215.094 424.717 215.09 424.717 215.087 424.717C215.084 424.717 215.08 424.717 215.077 424.717C215.074 424.717 215.07 424.717 215.067 424.717C215.064 424.717 215.06 424.717 215.057 424.717C215.054 424.717 215.05 424.717 215.047 424.717C215.043 424.717 215.04 424.717 215.037 424.717C215.033 424.717 215.03 424.717 215.027 424.717C215.023 424.717 215.02 424.717 215.016 424.717C215.013 424.717 215.01 424.717 215.006 424.717C215.003 424.717 214.999 424.717 214.996 424.717C214.993 424.717 214.989 424.717 214.986 424.717C214.982 424.717 214.979 424.717 214.976 424.717C214.972 424.717 214.969 424.717 214.965 424.717C214.962 424.717 214.959 424.717 214.955 424.717C214.952 424.717 214.948 424.717 214.945 424.717C214.941 424.717 214.938 424.717 214.934 424.717C214.931 424.717 214.928 424.717 214.924 424.717C214.921 424.717 214.917 424.717 214.914 424.717C214.91 424.717 214.907 424.717 214.903 424.717C214.9 424.717 214.896 424.717 214.893 424.717C214.889 424.717 214.886 424.717 214.883 424.717C214.879 424.717 214.876 424.717 214.872 424.717C214.869 424.717 214.865 424.717 214.862 424.717C214.858 424.717 214.855 424.717 214.851 424.717C214.848 424.717 214.844 424.717 214.841 424.717C214.837 424.717 214.834 424.717 214.83 424.717C214.827 424.717 214.823 424.717 214.82 424.717C214.816 424.717 214.813 424.717 214.809 424.717C214.805 424.717 214.802 424.717 214.798 424.717C214.795 424.717 214.791 424.717 214.788 424.717C214.784 424.717 214.781 424.717 214.777 424.717C214.774 424.717 214.77 424.717 214.767 424.717C214.763 424.717 214.759 424.717 214.756 424.717C214.752 424.717 214.749 424.717 214.745 424.717C214.742 424.717 214.738 424.717 214.734 424.717C214.731 424.717 214.727 424.717 214.724 424.717C214.72 424.717 214.717 424.717 214.713 424.717C214.709 424.717 214.706 424.717 214.702 424.717C214.699 424.717 214.695 424.717 214.691 424.717C214.688 424.717 214.684 424.717 214.681 424.717C214.677 424.717 214.673 424.717 214.67 424.717C214.666 424.717 214.662 424.717 214.659 424.717C214.655 424.717 214.652 424.717 214.648 424.717C214.644 424.717 214.641 424.717 214.637 424.717C214.633 424.717 214.63 424.717 214.626 424.717C214.623 424.717 214.619 424.717 214.615 424.717C214.612 424.717 214.608 424.717 214.604 424.717C214.601 424.717 214.597 424.717 214.593 424.717C214.59 424.717 214.586 424.717 214.582 424.717C214.579 424.717 214.575 424.717 214.571 424.717C214.568 424.717 214.564 424.717 214.56 424.717C214.557 424.717 214.553 424.717 214.549 424.717C214.545 424.717 214.542 424.717 214.538 424.717C214.534 424.717 214.531 424.717 214.527 424.717C214.523 424.717 214.52 424.717 214.516 424.717C214.512 424.717 214.508 424.717 214.505 424.717C214.501 424.717 214.497 424.717 214.494 424.717C214.49 424.717 214.486 424.717 214.482 424.717C214.479 424.717 214.475 424.717 214.471 424.717C214.467 424.717 214.464 424.717 214.46 424.717C214.456 424.717 214.452 424.717 214.449 424.717C214.445 424.717 214.441 424.717 214.437 424.717C214.434 424.717 214.43 424.717 214.426 424.717C214.422 424.717 214.419 424.717 214.415 424.717C214.411 424.717 214.407 424.717 214.404 424.717C214.4 424.717 214.396 424.717 214.392 424.717C214.388 424.717 214.385 424.717 214.381 424.717C214.377 424.717 214.373 424.717 214.369 424.717C214.366 424.717 214.362 424.717 214.358 424.717C214.354 424.717 214.35 424.717 214.347 424.717C214.343 424.717 214.339 424.717 214.335 424.717C214.331 424.717 214.327 424.717 214.324 424.717C214.32 424.717 214.316 424.717 214.312 424.717C214.308 424.717 214.304 424.717 214.301 424.717C214.297 424.717 214.293 424.717 214.289 424.717C214.285 424.717 214.281 424.717 214.278 424.717C214.274 424.717 214.27 424.717 214.266 424.717C214.262 424.717 214.258 424.717 214.254 424.717C214.251 424.717 214.247 424.717 214.243 424.717C214.239 424.717 214.235 424.717 214.231 424.717C214.227 424.717 214.223 424.717 214.219 424.717C214.216 424.717 214.212 424.717 214.208 424.717C214.204 424.717 214.2 424.717 214.196 424.717C214.192 424.717 214.188 424.717 214.184 424.717C214.18 424.717 214.177 424.717 214.173 424.717C214.169 424.717 214.165 424.717 214.161 424.717C214.157 424.717 214.153 424.717 214.149 424.717C214.145 424.717 214.141 424.717 214.137 424.717C214.133 424.717 214.129 424.717 214.126 424.717C214.122 424.717 214.118 424.717 214.114 424.717C214.11 424.717 214.106 424.717 214.102 424.717C214.098 424.717 214.094 424.717 214.09 424.717C214.086 424.717 214.082 424.717 214.078 424.717C214.074 424.717 214.07 424.717 214.066 424.717C214.062 424.717 214.058 424.717 214.054 424.717C214.05 424.717 214.046 424.717 214.042 424.717C214.038 424.717 214.034 424.717 214.03 424.717C214.026 424.717 214.022 424.717 214.018 424.717C214.014 424.717 214.01 424.717 214.006 424.717C214.002 424.717 213.998 424.717 213.994 424.717C213.99 424.717 213.986 424.717 213.982 424.717C213.978 424.717 213.974 424.717 213.97 424.717C213.966 424.717 213.962 424.717 213.958 424.717C213.954 424.717 213.95 424.717 213.946 424.717C213.942 424.717 213.938 424.717 213.934 424.717C213.93 424.717 213.925 424.717 213.921 424.717C213.917 424.717 213.913 424.717 213.909 424.717C213.905 424.717 213.901 424.717 213.897 424.717C213.893 424.717 213.889 424.717 213.885 424.717C213.881 424.717 213.877 424.717 213.873 424.717C213.868 424.717 213.864 424.717 213.86 424.717C213.856 424.717 213.852 424.717 213.848 424.717C213.844 424.717 213.84 424.717 213.836 424.717C213.832 424.717 213.827 424.717 213.823 424.717C213.819 424.717 213.815 424.717 213.811 424.717C213.807 424.717 213.803 424.717 213.799 424.717C213.794 424.717 213.79 424.717 213.786 424.717C213.782 424.717 213.778 424.717 213.774 424.717C213.77 424.717 213.765 424.717 213.761 424.717C213.757 424.717 213.753 424.717 213.749 424.717C213.745 424.717 213.741 424.717 213.736 424.717C213.732 424.717 213.728 424.717 213.724 424.717C213.72 424.717 213.716 424.717 213.711 424.717C213.707 424.717 213.703 424.717 213.699 424.717C213.695 424.717 213.69 424.717 213.686 424.717C213.682 424.717 213.678 424.717 213.674 424.717C213.67 424.717 213.665 424.717 213.661 424.717C213.657 424.717 213.653 424.717 213.649 424.717C213.644 424.717 213.64 424.717 213.636 424.717C213.632 424.717 213.627 424.717 213.623 424.717C213.619 424.717 213.615 424.717 213.611 424.717C213.606 424.717 213.602 424.717 213.598 424.717C213.594 424.717 213.589 424.717 213.585 424.717C213.581 424.717 213.577 424.717 213.572 424.717C213.568 424.717 213.564 424.717 213.56 424.717C213.555 424.717 213.551 424.717 213.547 424.717C213.543 424.717 213.538 424.717 213.534 424.717C213.53 424.717 213.525 424.717 213.521 424.717C213.517 424.717 213.513 424.717 213.508 424.717C213.504 424.717 213.5 424.717 213.495 424.717C213.491 424.717 213.487 424.717 213.483 424.717C213.478 424.717 213.474 424.717 213.47 424.717C213.465 424.717 213.461 424.717 213.457 424.717C213.452 424.717 213.448 424.717 213.444 424.717C213.439 424.717 213.435 424.717 213.431 424.717C213.426 424.717 213.422 424.717 213.418 424.717C213.413 424.717 213.409 424.717 213.405 424.717C213.4 424.717 213.396 424.717 213.392 424.717C213.387 424.717 213.383 424.717 213.379 424.717C213.374 424.717 213.37 424.717 213.366 424.717C213.361 424.717 213.357 424.717 213.353 424.717C213.348 424.717 213.344 424.717 213.339 424.717C213.335 424.717 213.331 424.717 213.326 424.717C213.322 424.717 213.318 424.717 213.313 424.717C213.309 424.717 213.304 424.717 213.3 424.717C213.296 424.717 213.291 424.717 213.287 424.717C213.282 424.717 213.278 424.717 213.274 424.717C213.269 424.717 213.265 424.717 213.26 424.717C213.256 424.717 213.252 424.717 213.247 424.717C213.243 424.717 213.238 424.717 213.234 424.717C213.229 424.717 213.225 424.717 213.221 424.717C213.216 424.717 213.212 424.717 213.207 424.717C213.203 424.717 213.198 424.717 213.194 424.717C213.189 424.717 213.185 424.717 213.18 424.717C213.176 424.717 213.172 424.717 213.167 424.717C213.163 424.717 213.158 424.717 213.154 424.717C213.149 424.717 213.145 424.717 213.14 424.717C213.136 424.717 213.131 424.717 213.127 424.717C213.122 424.717 213.118 424.717 213.113 424.717C213.109 424.717 213.104 424.717 213.1 424.717C213.095 424.717 213.091 424.717 213.086 424.717C213.082 424.717 213.077 424.717 213.073 424.717C213.068 424.717 213.064 424.717 213.059 424.717C213.055 424.717 213.05 424.717 213.046 424.717C213.041 424.717 213.037 424.717 213.032 424.717C213.028 424.717 213.023 424.717 213.019 424.717C213.014 424.717 213.009 424.717 213.005 424.717C213 424.717 212.996 424.717 212.991 424.717C212.987 424.717 212.982 424.717 212.978 424.717C212.973 424.717 212.969 424.717 212.964 424.717C212.959 424.717 212.955 424.717 212.95 424.717C212.946 424.717 212.941 424.717 212.937 424.717C212.932 424.717 212.927 424.717 212.923 424.717C212.918 424.717 212.914 424.717 212.909 424.717C212.904 424.717 212.9 424.717 212.895 424.717C212.891 424.717 212.886 424.717 212.881 424.717C212.877 424.717 212.872 424.717 212.868 424.717C212.863 424.717 212.858 424.717 212.854 424.717C212.849 424.717 212.844 424.717 212.84 424.717C212.835 424.717 212.831 424.717 212.826 424.717C212.821 424.717 212.817 424.717 212.812 424.717C212.807 424.717 212.803 424.717 212.798 424.717C212.793 424.717 212.789 424.717 212.784 424.717C212.779 424.717 212.775 424.717 212.77 424.717C212.765 424.717 212.761 424.717 212.756 424.717C212.751 424.717 212.747 424.717 212.742 424.717C212.737 424.717 212.733 424.717 212.728 424.717C212.723 424.717 212.719 424.717 212.714 424.717C212.709 424.717 212.705 424.717 212.7 424.717C212.695 424.717 212.691 424.717 212.686 424.717C212.681 424.717 212.676 424.717 212.672 424.717C212.667 424.717 212.662 424.717 212.658 424.717C212.653 424.717 212.648 424.717 212.643 424.717C212.639 424.717 212.634 424.717 212.629 424.717C212.625 424.717 212.62 424.717 212.615 424.717C212.61 424.717 212.606 424.717 212.601 424.717C212.596 424.717 212.591 424.717 212.587 424.717C212.582 424.717 212.577 424.717 212.572 424.717C212.568 424.717 212.563 424.717 212.558 424.717C212.553 424.717 212.549 424.717 212.544 424.717C212.539 424.717 212.534 424.717 212.529 424.717C212.525 424.717 212.52 424.717 212.515 424.717C212.51 424.717 212.506 424.717 212.501 424.717C212.496 424.717 212.491 424.717 212.486 424.717C212.482 424.717 212.477 424.717 212.472 424.717C212.467 424.717 212.462 424.717 212.458 424.717C212.453 424.717 212.448 424.717 212.443 424.717C212.438 424.717 212.433 424.717 212.429 424.717C212.424 424.717 212.419 424.717 212.414 424.717C212.409 424.717 212.404 424.717 212.4 424.717C212.395 424.717 212.39 424.717 212.385 424.717C212.38 424.717 212.375 424.717 212.371 424.717C212.366 424.717 212.361 424.717 212.356 424.717C212.351 424.717 212.346 424.717 212.341 424.717C212.336 424.717 212.332 424.717 212.327 424.717C212.322 424.717 212.317 424.717 212.312 424.717C212.307 424.717 212.302 424.717 212.297 424.717C212.293 424.717 212.288 424.717 212.283 424.717C212.278 424.717 212.273 424.717 212.268 424.717C212.263 424.717 212.258 424.717 212.253 424.717C212.248 424.717 212.244 424.717 212.239 424.717C212.234 424.717 212.229 424.717 212.224 424.717C212.219 424.717 212.214 424.717 212.209 424.717C212.204 424.717 212.199 424.717 212.194 424.717C212.189 424.717 212.184 424.717 212.179 424.717C212.175 424.717 212.17 424.717 212.165 424.717C212.16 424.717 212.155 424.717 212.15 424.717C212.145 424.717 212.14 424.717 212.135 424.717C212.13 424.717 212.125 424.717 212.12 424.717C212.115 424.717 212.11 424.717 212.105 424.717C212.1 424.717 212.095 424.717 212.09 424.717C212.085 424.717 212.08 424.717 212.075 424.717C212.07 424.717 212.065 424.717 212.06 424.717C212.055 424.717 212.05 424.717 212.045 424.717V428.349V431.982C212.05 431.982 212.055 431.982 212.06 431.982C212.065 431.982 212.07 431.982 212.075 431.982C212.08 431.982 212.085 431.982 212.09 431.982C212.095 431.982 212.1 431.982 212.105 431.982C212.11 431.982 212.115 431.982 212.12 431.982C212.125 431.982 212.13 431.982 212.135 431.982C212.14 431.982 212.145 431.982 212.15 431.982C212.155 431.982 212.16 431.982 212.165 431.982C212.17 431.982 212.175 431.982 212.179 431.982C212.184 431.982 212.189 431.982 212.194 431.982C212.199 431.982 212.204 431.982 212.209 431.982C212.214 431.982 212.219 431.982 212.224 431.982C212.229 431.982 212.234 431.982 212.239 431.982C212.244 431.982 212.248 431.982 212.253 431.982C212.258 431.982 212.263 431.982 212.268 431.982C212.273 431.982 212.278 431.982 212.283 431.982C212.288 431.982 212.293 431.982 212.297 431.982C212.302 431.982 212.307 431.982 212.312 431.982C212.317 431.982 212.322 431.982 212.327 431.982C212.332 431.982 212.336 431.982 212.341 431.982C212.346 431.982 212.351 431.982 212.356 431.982C212.361 431.982 212.366 431.982 212.371 431.982C212.375 431.982 212.38 431.982 212.385 431.982C212.39 431.982 212.395 431.982 212.4 431.982C212.404 431.982 212.409 431.982 212.414 431.982C212.419 431.982 212.424 431.982 212.429 431.982C212.433 431.982 212.438 431.982 212.443 431.982C212.448 431.982 212.453 431.982 212.458 431.982C212.462 431.982 212.467 431.982 212.472 431.982C212.477 431.982 212.482 431.982 212.486 431.982C212.491 431.982 212.496 431.982 212.501 431.982C212.506 431.982 212.51 431.982 212.515 431.982C212.52 431.982 212.525 431.982 212.529 431.982C212.534 431.982 212.539 431.982 212.544 431.982C212.549 431.982 212.553 431.982 212.558 431.982C212.563 431.982 212.568 431.982 212.572 431.982C212.577 431.982 212.582 431.982 212.587 431.982C212.591 431.982 212.596 431.982 212.601 431.982C212.606 431.982 212.61 431.982 212.615 431.982C212.62 431.982 212.625 431.982 212.629 431.982C212.634 431.982 212.639 431.982 212.643 431.982C212.648 431.982 212.653 431.982 212.658 431.982C212.662 431.982 212.667 431.982 212.672 431.982C212.676 431.982 212.681 431.982 212.686 431.982C212.691 431.982 212.695 431.982 212.7 431.982C212.705 431.982 212.709 431.982 212.714 431.982C212.719 431.982 212.723 431.982 212.728 431.982C212.733 431.982 212.737 431.982 212.742 431.982C212.747 431.982 212.751 431.982 212.756 431.982C212.761 431.982 212.765 431.982 212.77 431.982C212.775 431.982 212.779 431.982 212.784 431.982C212.789 431.982 212.793 431.982 212.798 431.982C212.803 431.982 212.807 431.982 212.812 431.982C212.817 431.982 212.821 431.982 212.826 431.982C212.831 431.982 212.835 431.982 212.84 431.982C212.844 431.982 212.849 431.982 212.854 431.982C212.858 431.982 212.863 431.982 212.868 431.982C212.872 431.982 212.877 431.982 212.881 431.982C212.886 431.982 212.891 431.982 212.895 431.982C212.9 431.982 212.904 431.982 212.909 431.982C212.914 431.982 212.918 431.982 212.923 431.982C212.927 431.982 212.932 431.982 212.937 431.982C212.941 431.982 212.946 431.982 212.95 431.982C212.955 431.982 212.959 431.982 212.964 431.982C212.969 431.982 212.973 431.982 212.978 431.982C212.982 431.982 212.987 431.982 212.991 431.982C212.996 431.982 213 431.982 213.005 431.982C213.009 431.982 213.014 431.982 213.019 431.982C213.023 431.982 213.028 431.982 213.032 431.982C213.037 431.982 213.041 431.982 213.046 431.982C213.05 431.982 213.055 431.982 213.059 431.982C213.064 431.982 213.068 431.982 213.073 431.982C213.077 431.982 213.082 431.982 213.086 431.982C213.091 431.982 213.095 431.982 213.1 431.982C213.104 431.982 213.109 431.982 213.113 431.982C213.118 431.982 213.122 431.982 213.127 431.982C213.131 431.982 213.136 431.982 213.14 431.982C213.145 431.982 213.149 431.982 213.154 431.982C213.158 431.982 213.163 431.982 213.167 431.982C213.172 431.982 213.176 431.982 213.18 431.982C213.185 431.982 213.189 431.982 213.194 431.982C213.198 431.982 213.203 431.982 213.207 431.982C213.212 431.982 213.216 431.982 213.221 431.982C213.225 431.982 213.229 431.982 213.234 431.982C213.238 431.982 213.243 431.982 213.247 431.982C213.252 431.982 213.256 431.982 213.26 431.982C213.265 431.982 213.269 431.982 213.274 431.982C213.278 431.982 213.282 431.982 213.287 431.982C213.291 431.982 213.296 431.982 213.3 431.982C213.304 431.982 213.309 431.982 213.313 431.982C213.318 431.982 213.322 431.982 213.326 431.982C213.331 431.982 213.335 431.982 213.339 431.982C213.344 431.982 213.348 431.982 213.353 431.982C213.357 431.982 213.361 431.982 213.366 431.982C213.37 431.982 213.374 431.982 213.379 431.982C213.383 431.982 213.387 431.982 213.392 431.982C213.396 431.982 213.4 431.982 213.405 431.982C213.409 431.982 213.413 431.982 213.418 431.982C213.422 431.982 213.426 431.982 213.431 431.982C213.435 431.982 213.439 431.982 213.444 431.982C213.448 431.982 213.452 431.982 213.457 431.982C213.461 431.982 213.465 431.982 213.47 431.982C213.474 431.982 213.478 431.982 213.483 431.982C213.487 431.982 213.491 431.982 213.495 431.982C213.5 431.982 213.504 431.982 213.508 431.982C213.513 431.982 213.517 431.982 213.521 431.982C213.525 431.982 213.53 431.982 213.534 431.982C213.538 431.982 213.543 431.982 213.547 431.982C213.551 431.982 213.555 431.982 213.56 431.982C213.564 431.982 213.568 431.982 213.572 431.982C213.577 431.982 213.581 431.982 213.585 431.982C213.589 431.982 213.594 431.982 213.598 431.982C213.602 431.982 213.606 431.982 213.611 431.982C213.615 431.982 213.619 431.982 213.623 431.982C213.627 431.982 213.632 431.982 213.636 431.982C213.64 431.982 213.644 431.982 213.649 431.982C213.653 431.982 213.657 431.982 213.661 431.982C213.665 431.982 213.67 431.982 213.674 431.982C213.678 431.982 213.682 431.982 213.686 431.982C213.69 431.982 213.695 431.982 213.699 431.982C213.703 431.982 213.707 431.982 213.711 431.982C213.716 431.982 213.72 431.982 213.724 431.982C213.728 431.982 213.732 431.982 213.736 431.982C213.741 431.982 213.745 431.982 213.749 431.982C213.753 431.982 213.757 431.982 213.761 431.982C213.765 431.982 213.77 431.982 213.774 431.982C213.778 431.982 213.782 431.982 213.786 431.982C213.79 431.982 213.794 431.982 213.799 431.982C213.803 431.982 213.807 431.982 213.811 431.982C213.815 431.982 213.819 431.982 213.823 431.982C213.827 431.982 213.832 431.982 213.836 431.982C213.84 431.982 213.844 431.982 213.848 431.982C213.852 431.982 213.856 431.982 213.86 431.982C213.864 431.982 213.868 431.982 213.873 431.982C213.877 431.982 213.881 431.982 213.885 431.982C213.889 431.982 213.893 431.982 213.897 431.982C213.901 431.982 213.905 431.982 213.909 431.982C213.913 431.982 213.917 431.982 213.921 431.982C213.925 431.982 213.93 431.982 213.934 431.982C213.938 431.982 213.942 431.982 213.946 431.982C213.95 431.982 213.954 431.982 213.958 431.982C213.962 431.982 213.966 431.982 213.97 431.982C213.974 431.982 213.978 431.982 213.982 431.982C213.986 431.982 213.99 431.982 213.994 431.982C213.998 431.982 214.002 431.982 214.006 431.982C214.01 431.982 214.014 431.982 214.018 431.982C214.022 431.982 214.026 431.982 214.03 431.982C214.034 431.982 214.038 431.982 214.042 431.982C214.046 431.982 214.05 431.982 214.054 431.982C214.058 431.982 214.062 431.982 214.066 431.982C214.07 431.982 214.074 431.982 214.078 431.982C214.082 431.982 214.086 431.982 214.09 431.982C214.094 431.982 214.098 431.982 214.102 431.982C214.106 431.982 214.11 431.982 214.114 431.982C214.118 431.982 214.122 431.982 214.126 431.982C214.129 431.982 214.133 431.982 214.137 431.982C214.141 431.982 214.145 431.982 214.149 431.982C214.153 431.982 214.157 431.982 214.161 431.982C214.165 431.982 214.169 431.982 214.173 431.982C214.177 431.982 214.18 431.982 214.184 431.982C214.188 431.982 214.192 431.982 214.196 431.982C214.2 431.982 214.204 431.982 214.208 431.982C214.212 431.982 214.216 431.982 214.219 431.982C214.223 431.982 214.227 431.982 214.231 431.982C214.235 431.982 214.239 431.982 214.243 431.982C214.247 431.982 214.251 431.982 214.254 431.982C214.258 431.982 214.262 431.982 214.266 431.982C214.27 431.982 214.274 431.982 214.278 431.982C214.281 431.982 214.285 431.982 214.289 431.982C214.293 431.982 214.297 431.982 214.301 431.982C214.304 431.982 214.308 431.982 214.312 431.982C214.316 431.982 214.32 431.982 214.324 431.982C214.327 431.982 214.331 431.982 214.335 431.982C214.339 431.982 214.343 431.982 214.347 431.982C214.35 431.982 214.354 431.982 214.358 431.982C214.362 431.982 214.366 431.982 214.369 431.982C214.373 431.982 214.377 431.982 214.381 431.982C214.385 431.982 214.388 431.982 214.392 431.982C214.396 431.982 214.4 431.982 214.404 431.982C214.407 431.982 214.411 431.982 214.415 431.982C214.419 431.982 214.422 431.982 214.426 431.982C214.43 431.982 214.434 431.982 214.437 431.982C214.441 431.982 214.445 431.982 214.449 431.982C214.452 431.982 214.456 431.982 214.46 431.982C214.464 431.982 214.467 431.982 214.471 431.982C214.475 431.982 214.479 431.982 214.482 431.982C214.486 431.982 214.49 431.982 214.494 431.982C214.497 431.982 214.501 431.982 214.505 431.982C214.508 431.982 214.512 431.982 214.516 431.982C214.52 431.982 214.523 431.982 214.527 431.982C214.531 431.982 214.534 431.982 214.538 431.982C214.542 431.982 214.545 431.982 214.549 431.982C214.553 431.982 214.557 431.982 214.56 431.982C214.564 431.982 214.568 431.982 214.571 431.982C214.575 431.982 214.579 431.982 214.582 431.982C214.586 431.982 214.59 431.982 214.593 431.982C214.597 431.982 214.601 431.982 214.604 431.982C214.608 431.982 214.612 431.982 214.615 431.982C214.619 431.982 214.623 431.982 214.626 431.982C214.63 431.982 214.633 431.982 214.637 431.982C214.641 431.982 214.644 431.982 214.648 431.982C214.652 431.982 214.655 431.982 214.659 431.982C214.662 431.982 214.666 431.982 214.67 431.982C214.673 431.982 214.677 431.982 214.681 431.982C214.684 431.982 214.688 431.982 214.691 431.982C214.695 431.982 214.699 431.982 214.702 431.982C214.706 431.982 214.709 431.982 214.713 431.982C214.717 431.982 214.72 431.982 214.724 431.982C214.727 431.982 214.731 431.982 214.734 431.982C214.738 431.982 214.742 431.982 214.745 431.982C214.749 431.982 214.752 431.982 214.756 431.982C214.759 431.982 214.763 431.982 214.767 431.982C214.77 431.982 214.774 431.982 214.777 431.982C214.781 431.982 214.784 431.982 214.788 431.982C214.791 431.982 214.795 431.982 214.798 431.982C214.802 431.982 214.805 431.982 214.809 431.982C214.813 431.982 214.816 431.982 214.82 431.982C214.823 431.982 214.827 431.982 214.83 431.982C214.834 431.982 214.837 431.982 214.841 431.982C214.844 431.982 214.848 431.982 214.851 431.982C214.855 431.982 214.858 431.982 214.862 431.982C214.865 431.982 214.869 431.982 214.872 431.982C214.876 431.982 214.879 431.982 214.883 431.982C214.886 431.982 214.889 431.982 214.893 431.982C214.896 431.982 214.9 431.982 214.903 431.982C214.907 431.982 214.91 431.982 214.914 431.982C214.917 431.982 214.921 431.982 214.924 431.982C214.928 431.982 214.931 431.982 214.934 431.982C214.938 431.982 214.941 431.982 214.945 431.982C214.948 431.982 214.952 431.982 214.955 431.982C214.959 431.982 214.962 431.982 214.965 431.982C214.969 431.982 214.972 431.982 214.976 431.982C214.979 431.982 214.982 431.982 214.986 431.982C214.989 431.982 214.993 431.982 214.996 431.982C214.999 431.982 215.003 431.982 215.006 431.982C215.01 431.982 215.013 431.982 215.016 431.982C215.02 431.982 215.023 431.982 215.027 431.982C215.03 431.982 215.033 431.982 215.037 431.982C215.04 431.982 215.043 431.982 215.047 431.982C215.05 431.982 215.054 431.982 215.057 431.982C215.06 431.982 215.064 431.982 215.067 431.982C215.07 431.982 215.074 431.982 215.077 431.982C215.08 431.982 215.084 431.982 215.087 431.982C215.09 431.982 215.094 431.982 215.097 431.982C215.1 431.982 215.104 431.982 215.107 431.982C215.11 431.982 215.114 431.982 215.117 431.982C215.12 431.982 215.124 431.982 215.127 431.982C215.13 431.982 215.134 431.982 215.137 431.982C215.14 431.982 215.144 431.982 215.147 431.982C215.15 431.982 215.153 431.982 215.157 431.982C215.16 431.982 215.163 431.982 215.167 431.982C215.17 431.982 215.173 431.982 215.177 431.982C215.18 431.982 215.183 431.982 215.186 431.982C215.19 431.982 215.193 431.982 215.196 431.982C215.199 431.982 215.203 431.982 215.206 431.982C215.209 431.982 215.212 431.982 215.216 431.982C215.219 431.982 215.222 431.982 215.225 431.982C215.229 431.982 215.232 431.982 215.235 431.982C215.238 431.982 215.242 431.982 215.245 431.982C215.248 431.982 215.251 431.982 215.255 431.982C215.258 431.982 215.261 431.982 215.264 431.982C215.267 431.982 215.271 431.982 215.274 431.982C215.277 431.982 215.28 431.982 215.284 431.982C215.287 431.982 215.29 431.982 215.293 431.982C215.296 431.982 215.3 431.982 215.303 431.982C215.306 431.982 215.309 431.982 215.312 431.982C215.315 431.982 215.319 431.982 215.322 431.982C215.325 431.982 215.328 431.982 215.331 431.982C215.334 431.982 215.338 431.982 215.341 431.982C215.344 431.982 215.347 431.982 215.35 431.982C215.353 431.982 215.357 431.982 215.36 431.982C215.363 431.982 215.366 431.982 215.369 431.982C215.372 431.982 215.375 431.982 215.379 431.982C215.382 431.982 215.385 431.982 215.388 431.982C215.391 431.982 215.394 431.982 215.397 431.982C215.401 431.982 215.404 431.982 215.407 431.982C215.41 431.982 215.413 431.982 215.416 431.982C215.419 431.982 215.422 431.982 215.425 431.982C215.429 431.982 215.432 431.982 215.435 431.982C215.438 431.982 215.441 431.982 215.444 431.982C215.447 431.982 215.45 431.982 215.453 431.982C215.456 431.982 215.459 431.982 215.462 431.982C215.466 431.982 215.469 431.982 215.472 431.982C215.475 431.982 215.478 431.982 215.481 431.982C215.484 431.982 215.487 431.982 215.49 431.982C215.493 431.982 215.496 431.982 215.499 431.982C215.502 431.982 215.505 431.982 215.508 431.982C215.511 431.982 215.514 431.982 215.517 431.982C215.52 431.982 215.524 431.982 215.527 431.982C215.53 431.982 215.533 431.982 215.536 431.982C215.539 431.982 215.542 431.982 215.545 431.982C215.548 431.982 215.551 431.982 215.554 431.982C215.557 431.982 215.56 431.982 215.563 431.982C215.566 431.982 215.569 431.982 215.572 431.982C215.575 431.982 215.578 431.982 215.581 431.982C215.584 431.982 215.587 431.982 215.59 431.982C215.593 431.982 215.596 431.982 215.599 431.982C215.601 431.982 215.604 431.982 215.607 431.982C215.61 431.982 215.613 431.982 215.616 431.982C215.619 431.982 215.622 431.982 215.625 431.982C215.628 431.982 215.631 431.982 215.634 431.982C215.637 431.982 215.64 431.982 215.643 431.982C215.646 431.982 215.649 431.982 215.652 431.982C215.655 431.982 215.658 431.982 215.66 431.982C215.663 431.982 215.666 431.982 215.669 431.982C215.672 431.982 215.675 431.982 215.678 431.982C215.681 431.982 215.684 431.982 215.687 431.982C215.69 431.982 215.692 431.982 215.695 431.982C215.698 431.982 215.701 431.982 215.704 431.982C215.707 431.982 215.71 431.982 215.713 431.982C215.716 431.982 215.718 431.982 215.721 431.982C215.724 431.982 215.727 431.982 215.73 431.982C215.733 431.982 215.736 431.982 215.739 431.982C215.741 431.982 215.744 431.982 215.747 431.982C215.75 431.982 215.753 431.982 215.756 431.982C215.759 431.982 215.761 431.982 215.764 431.982C215.767 431.982 215.77 431.982 215.773 431.982C215.776 431.982 215.778 431.982 215.781 431.982C215.784 431.982 215.787 431.982 215.79 431.982C215.793 431.982 215.795 431.982 215.798 431.982C215.801 431.982 215.804 431.982 215.807 431.982C215.809 431.982 215.812 431.982 215.815 431.982C215.818 431.982 215.821 431.982 215.823 431.982C215.826 431.982 215.829 431.982 215.832 431.982C215.835 431.982 215.837 431.982 215.84 431.982C215.843 431.982 215.846 431.982 215.848 431.982C215.851 431.982 215.854 431.982 215.857 431.982C215.86 431.982 215.862 431.982 215.865 431.982C215.868 431.982 215.871 431.982 215.873 431.982C215.876 431.982 215.879 431.982 215.882 431.982C215.884 431.982 215.887 431.982 215.89 431.982C215.893 431.982 215.895 431.982 215.898 431.982C215.901 431.982 215.903 431.982 215.906 431.982C215.909 431.982 215.912 431.982 215.914 431.982C215.917 431.982 215.92 431.982 215.923 431.982C215.925 431.982 215.928 431.982 215.931 431.982C215.933 431.982 215.936 431.982 215.939 431.982C215.941 431.982 215.944 431.982 215.947 431.982C215.95 431.982 215.952 431.982 215.955 431.982C215.958 431.982 215.96 431.982 215.963 431.982C215.966 431.982 215.968 431.982 215.971 431.982C215.974 431.982 215.976 431.982 215.979 431.982C215.982 431.982 215.984 431.982 215.987 431.982C215.99 431.982 215.992 431.982 215.995 431.982C215.998 431.982 216 431.982 216.003 431.982C216.005 431.982 216.008 431.982 216.011 431.982C216.013 431.982 216.016 431.982 216.019 431.982C216.021 431.982 216.024 431.982 216.027 431.982C216.029 431.982 216.032 431.982 216.034 431.982C216.037 431.982 216.04 431.982 216.042 431.982C216.045 431.982 216.047 431.982 216.05 431.982C216.053 431.982 216.055 431.982 216.058 431.982C216.06 431.982 216.063 431.982 216.066 431.982C216.068 431.982 216.071 431.982 216.073 431.982C216.076 431.982 216.079 431.982 216.081 431.982C216.084 431.982 216.086 431.982 216.089 431.982C216.091 431.982 216.094 431.982 216.097 431.982C216.099 431.982 216.102 431.982 216.104 431.982C216.107 431.982 216.109 431.982 216.112 431.982C216.114 431.982 216.117 431.982 216.12 431.982C216.122 431.982 216.125 431.982 216.127 431.982C216.13 431.982 216.132 431.982 216.135 431.982C216.137 431.982 216.14 431.982 216.142 431.982C216.145 431.982 216.147 431.982 216.15 431.982C216.152 431.982 216.155 431.982 216.157 431.982C216.16 431.982 216.162 431.982 216.165 431.982C216.167 431.982 216.17 431.982 216.172 431.982C216.175 431.982 216.177 431.982 216.18 431.982C216.182 431.982 216.185 431.982 216.187 431.982C216.19 431.982 216.192 431.982 216.195 431.982C216.197 431.982 216.2 431.982 216.202 431.982C216.205 431.982 216.207 431.982 216.21 431.982C216.212 431.982 216.214 431.982 216.217 431.982C216.219 431.982 216.222 431.982 216.224 431.982C216.227 431.982 216.229 431.982 216.232 431.982C216.234 431.982 216.236 431.982 216.239 431.982C216.241 431.982 216.244 431.982 216.246 431.982C216.249 431.982 216.251 431.982 216.253 431.982C216.256 431.982 216.258 431.982 216.261 431.982C216.263 431.982 216.265 431.982 216.268 431.982C216.27 431.982 216.273 431.982 216.275 431.982C216.277 431.982 216.28 431.982 216.282 431.982C216.285 431.982 216.287 431.982 216.289 431.982C216.292 431.982 216.294 431.982 216.297 431.982C216.299 431.982 216.301 431.982 216.304 431.982C216.306 431.982 216.308 431.982 216.311 431.982C216.313 431.982 216.315 431.982 216.318 431.982C216.32 431.982 216.323 431.982 216.325 431.982C216.327 431.982 216.33 431.982 216.332 431.982C216.334 431.982 216.337 431.982 216.339 431.982C216.341 431.982 216.344 431.982 216.346 431.982C216.348 431.982 216.351 431.982 216.353 431.982C216.355 431.982 216.358 431.982 216.36 431.982C216.362 431.982 216.365 431.982 216.367 431.982C216.369 431.982 216.371 431.982 216.374 431.982C216.376 431.982 216.378 431.982 216.381 431.982C216.383 431.982 216.385 431.982 216.388 431.982C216.39 431.982 216.392 431.982 216.394 431.982C216.397 431.982 216.399 431.982 216.401 431.982C216.403 431.982 216.406 431.982 216.408 431.982C216.41 431.982 216.413 431.982 216.415 431.982C216.417 431.982 216.419 431.982 216.422 431.982C216.424 431.982 216.426 431.982 216.428 431.982C216.431 431.982 216.433 431.982 216.435 431.982C216.437 431.982 216.44 431.982 216.442 431.982C216.444 431.982 216.446 431.982 216.448 431.982C216.451 431.982 216.453 431.982 216.455 431.982C216.457 431.982 216.46 431.982 216.462 431.982C216.464 431.982 216.466 431.982 216.468 431.982C216.471 431.982 216.473 431.982 216.475 431.982C216.477 431.982 216.479 431.982 216.482 431.982C216.484 431.982 216.486 431.982 216.488 431.982C216.49 431.982 216.493 431.982 216.495 431.982C216.497 431.982 216.499 431.982 216.501 431.982C216.503 431.982 216.506 431.982 216.508 431.982C216.51 431.982 216.512 431.982 216.514 431.982C216.516 431.982 216.519 431.982 216.521 431.982C216.523 431.982 216.525 431.982 216.527 431.982C216.529 431.982 216.531 431.982 216.534 431.982C216.536 431.982 216.538 431.982 216.54 431.982C216.542 431.982 216.544 431.982 216.546 431.982C216.548 431.982 216.551 431.982 216.553 431.982C216.555 431.982 216.557 431.982 216.559 431.982C216.561 431.982 216.563 431.982 216.565 431.982C216.567 431.982 216.57 431.982 216.572 431.982C216.574 431.982 216.576 431.982 216.578 431.982C216.58 431.982 216.582 431.982 216.584 431.982C216.586 431.982 216.588 431.982 216.59 431.982C216.593 431.982 216.595 431.982 216.597 431.982C216.599 431.982 216.601 431.982 216.603 431.982C216.605 431.982 216.607 431.982 216.609 431.982C216.611 431.982 216.613 431.982 216.615 431.982C216.617 431.982 216.619 431.982 216.621 431.982C216.623 431.982 216.625 431.982 216.627 431.982C216.629 431.982 216.631 431.982 216.634 431.982C216.636 431.982 216.638 431.982 216.64 431.982C216.642 431.982 216.644 431.982 216.646 431.982C216.648 431.982 216.65 431.982 216.652 431.982C216.654 431.982 216.656 431.982 216.658 431.982C216.66 431.982 216.662 431.982 216.664 431.982C216.666 431.982 216.668 431.982 216.67 431.982C216.672 431.982 216.674 431.982 216.676 431.982C216.678 431.982 216.68 431.982 216.682 431.982C216.684 431.982 216.685 431.982 216.687 431.982C216.689 431.982 216.691 431.982 216.693 431.982C216.695 431.982 216.697 431.982 216.699 431.982C216.701 431.982 216.703 431.982 216.705 431.982C216.707 431.982 216.709 431.982 216.711 431.982C216.713 431.982 216.715 431.982 216.717 431.982C216.719 431.982 216.721 431.982 216.722 431.982C216.724 431.982 216.726 431.982 216.728 431.982C216.73 431.982 216.732 431.982 216.734 431.982C216.736 431.982 216.738 431.982 216.74 431.982C216.742 431.982 216.744 431.982 216.745 431.982C216.747 431.982 216.749 431.982 216.751 431.982C216.753 431.982 216.755 431.982 216.757 431.982C216.759 431.982 216.761 431.982 216.762 431.982C216.764 431.982 216.766 431.982 216.768 431.982C216.77 431.982 216.772 431.982 216.774 431.982C216.775 431.982 216.777 431.982 216.779 431.982C216.781 431.982 216.783 431.982 216.785 431.982C216.787 431.982 216.788 431.982 216.79 431.982C216.792 431.982 216.794 431.982 216.796 431.982C216.798 431.982 216.799 431.982 216.801 431.982C216.803 431.982 216.805 431.982 216.807 431.982C216.809 431.982 216.81 431.982 216.812 431.982C216.814 431.982 216.816 431.982 216.818 431.982C216.82 431.982 216.821 431.982 216.823 431.982C216.825 431.982 216.827 431.982 216.829 431.982C216.83 431.982 216.832 431.982 216.834 431.982C216.836 431.982 216.837 431.982 216.839 431.982C216.841 431.982 216.843 431.982 216.845 431.982C216.846 431.982 216.848 431.982 216.85 431.982C216.852 431.982 216.853 431.982 216.855 431.982C216.857 431.982 216.859 431.982 216.86 431.982C216.862 431.982 216.864 431.982 216.866 431.982C216.867 431.982 216.869 431.982 216.871 431.982C216.873 431.982 216.874 431.982 216.876 431.982C216.878 431.982 216.88 431.982 216.881 431.982C216.883 431.982 216.885 431.982 216.887 431.982C216.888 431.982 216.89 431.982 216.892 431.982C216.893 431.982 216.895 431.982 216.897 431.982C216.899 431.982 216.9 431.982 216.902 431.982C216.904 431.982 216.905 431.982 216.907 431.982C216.909 431.982 216.91 431.982 216.912 431.982C216.914 431.982 216.915 431.982 216.917 431.982C216.919 431.982 216.92 431.982 216.922 431.982C216.924 431.982 216.925 431.982 216.927 431.982C216.929 431.982 216.93 431.982 216.932 431.982C216.934 431.982 216.935 431.982 216.937 431.982C216.939 431.982 216.94 431.982 216.942 431.982C216.944 431.982 216.945 431.982 216.947 431.982C216.949 431.982 216.95 431.982 216.952 431.982C216.953 431.982 216.955 431.982 216.957 431.982C216.958 431.982 216.96 431.982 216.962 431.982C216.963 431.982 216.965 431.982 216.966 431.982C216.968 431.982 216.97 431.982 216.971 431.982C216.973 431.982 216.974 431.982 216.976 431.982C216.978 431.982 216.979 431.982 216.981 431.982C216.982 431.982 216.984 431.982 216.986 431.982C216.987 431.982 216.989 431.982 216.99 431.982C216.992 431.982 216.994 431.982 216.995 431.982C216.997 431.982 216.998 431.982 217 431.982C217.001 431.982 217.003 431.982 217.004 431.982C217.006 431.982 217.008 431.982 217.009 431.982C217.011 431.982 217.012 431.982 217.014 431.982C217.015 431.982 217.017 431.982 217.018 431.982C217.02 431.982 217.021 431.982 217.023 431.982C217.024 431.982 217.026 431.982 217.028 431.982C217.029 431.982 217.031 431.982 217.032 431.982C217.034 431.982 217.035 431.982 217.037 431.982C217.038 431.982 217.04 431.982 217.041 431.982V428.349ZM212.045 428.349V424.717C210.013 424.717 208.437 424.01 207.074 422.477L204.359 424.89L201.644 427.304C204.38 430.382 207.929 431.982 212.045 431.982V428.349ZM204.359 424.89L206.928 422.322C205.538 420.932 204.917 419.413 204.917 417.589H201.285H197.652C197.652 421.401 199.082 424.75 201.791 427.459L204.359 424.89ZM201.285 417.589L204.917 417.632C205.17 396.396 208.078 378.655 213.52 364.306L210.124 363.018L206.727 361.73C200.897 377.101 197.912 395.74 197.653 417.545L201.285 417.589ZM210.124 363.018L213.5 364.357C219.195 349.997 227.999 336.829 239.978 324.851L237.409 322.282L234.841 319.713C222.224 332.33 212.838 346.319 206.747 361.679L210.124 363.018ZM237.409 322.282L239.978 324.851C247.229 317.599 255.234 311.094 263.999 305.334L262.004 302.298L260.009 299.263C250.84 305.288 242.449 312.105 234.841 319.713L237.409 322.282ZM262.004 302.298L264.059 305.294C273.006 299.159 281.954 293.151 290.9 287.272L288.905 284.236L286.911 281.2C277.923 287.106 268.936 293.14 259.95 299.303L262.004 302.298ZM288.905 284.236L290.804 287.333C298.776 282.447 306.492 277.56 313.954 272.671L311.963 269.633L309.973 266.594C302.575 271.441 294.92 276.289 287.007 281.139L288.905 284.236ZM311.963 269.633L314.026 272.623C321.589 267.407 328.276 262.036 334.071 256.504L331.563 253.876L329.055 251.249C323.577 256.478 317.197 261.611 309.901 266.642L311.963 269.633ZM331.563 253.876L334.071 256.504C339.927 250.914 344.645 245.001 348.176 238.755L345.013 236.967L341.851 235.18C338.72 240.719 334.471 246.079 329.055 251.249L331.563 253.876ZM345.013 236.967L348.151 238.798C352.052 232.11 354.026 224.948 354.026 217.368H350.394H346.761C346.761 223.623 345.148 229.527 341.876 235.137L345.013 236.967ZM350.394 217.368H354.026C354.026 209.562 353.636 202.248 352.849 195.431L349.241 195.847L345.632 196.263C346.383 202.768 346.761 209.801 346.761 217.368H350.394ZM349.241 195.847L352.851 195.446C352.04 188.15 350.143 181.348 347.138 175.065L343.86 176.632L340.583 178.199C343.215 183.701 344.904 189.709 345.63 196.248L349.241 195.847ZM343.86 176.632L347.138 175.065C344.064 168.638 339.48 162.975 333.479 158.064L331.179 160.876L328.878 163.687C334.149 168 338.021 172.841 340.583 178.199L343.86 176.632ZM331.179 160.876L333.479 158.064C327.411 153.1 319.183 148.828 308.963 145.159L307.736 148.578L306.509 151.997C316.273 155.502 323.673 159.428 328.878 163.687L331.179 160.876ZM307.736 148.578L308.978 145.164C303.208 143.066 298.001 141.589 293.38 140.773L292.748 144.351L292.117 147.928C296.206 148.65 300.992 149.991 306.495 151.992L307.736 148.578ZM292.748 144.351L293.629 140.827C289.27 139.737 285.003 139.181 280.835 139.181V142.813V146.446C284.353 146.446 288.028 146.915 291.867 147.875L292.748 144.351ZM280.835 142.813V139.181C275.108 139.181 269.162 139.999 263.009 141.604L263.926 145.119L264.843 148.634C270.475 147.165 275.802 146.446 280.835 146.446V142.813ZM263.926 145.119L263.009 141.604C257.036 143.162 249.544 145.359 240.547 148.187L241.636 151.652L242.726 155.118C251.663 152.309 259.03 150.151 264.843 148.634L263.926 145.119ZM241.636 151.652L240.529 148.193C233.625 150.402 227.728 153.89 222.927 158.691L225.496 161.26L228.064 163.828C231.974 159.919 236.838 157.002 242.744 155.112L241.636 151.652ZM225.496 161.26L223.006 158.615C218.469 162.885 214.685 167.333 211.686 171.968L214.735 173.942L217.785 175.915C220.422 171.84 223.811 167.834 227.985 163.905L225.496 161.26ZM214.735 173.942L211.69 171.962C208.22 177.3 205.29 183.029 202.898 189.143L206.281 190.467L209.663 191.79C211.883 186.119 214.589 180.832 217.781 175.922L214.735 173.942ZM206.281 190.467L202.852 189.267C202.233 191.037 201.235 192.186 199.84 192.943C198.355 193.749 196.149 194.252 192.96 194.138L192.83 197.768L192.701 201.399C196.685 201.541 200.307 200.956 203.306 199.328C206.395 197.651 208.535 195.021 209.709 191.667L206.281 190.467ZM192.83 197.768L193.979 194.322C192.413 193.8 191.091 192.854 189.972 191.362L187.066 193.541L184.16 195.721C186.115 198.328 188.636 200.199 191.681 201.215L192.83 197.768ZM187.066 193.541L190.241 191.777C189.48 190.408 189.058 188.215 189.513 184.798L185.913 184.318L182.312 183.838C181.743 188.107 182.089 192.063 183.89 195.305L187.066 193.541ZM185.913 184.318H189.545C189.545 184.665 189.486 184.886 189.503 184.806C189.507 184.789 189.525 184.716 189.568 184.566C189.654 184.271 189.799 183.827 190.014 183.212C190.442 181.99 191.097 180.242 191.988 177.949L188.603 176.632L185.217 175.315C184.316 177.634 183.626 179.473 183.157 180.812C182.924 181.478 182.732 182.059 182.594 182.532C182.525 182.767 182.459 183.014 182.406 183.253C182.368 183.43 182.28 183.843 182.28 184.318H185.913ZM188.603 176.632L191.988 177.949C193.652 173.67 196.317 168.794 200.059 163.306L197.057 161.26L194.056 159.214C190.112 164.999 187.14 170.371 185.217 175.315L188.603 176.632ZM197.057 161.26L200.039 163.334C203.944 157.722 208.988 152.172 215.214 146.693L212.814 143.966L210.414 141.239C203.829 147.034 198.37 153.013 194.076 159.185L197.057 161.26ZM212.814 143.966L215.273 146.64C221.237 141.153 228.558 137.051 237.318 134.374L236.256 130.9L235.195 127.426C225.508 130.386 217.201 134.994 210.354 141.293L212.814 143.966ZM236.256 130.9L237.345 134.366C246.243 131.569 254.081 129.422 260.871 127.913L260.083 124.367L259.295 120.821C252.249 122.387 244.203 124.595 235.167 127.435L236.256 130.9ZM260.083 124.367L260.994 127.883C267.624 126.164 274.235 125.309 280.835 125.309V121.677V118.044C273.6 118.044 266.376 118.983 259.171 120.851L260.083 124.367ZM280.835 121.677V125.309C285.449 125.309 290.344 125.795 295.527 126.782L296.207 123.214L296.887 119.646C291.31 118.583 285.957 118.044 280.835 118.044V121.677ZM296.207 123.214L295.557 126.788C300.986 127.775 307.093 129.391 313.889 131.656L315.038 128.21L316.187 124.764C309.148 122.418 302.701 120.703 296.857 119.64L296.207 123.214ZM315.038 128.21L313.852 131.643C327.605 136.395 337.955 142.429 345.135 149.609L347.703 147.041L350.272 144.472C342.08 136.28 330.653 129.761 316.224 124.777L315.038 128.21ZM347.703 147.041L345.222 149.693C352.866 156.844 358.155 164.238 361.247 171.85L364.613 170.483L367.978 169.116C364.41 160.332 358.426 152.097 350.185 144.388L347.703 147.041ZM364.613 170.483L361.285 171.939C364.71 179.768 366.651 187.678 367.136 195.682L370.762 195.463L374.387 195.243C373.848 186.338 371.689 177.595 367.941 169.027L364.613 170.483ZM370.762 195.463L367.145 195.802C367.906 203.917 368.282 211.103 368.282 217.368H371.914H375.547C375.547 210.823 375.155 203.405 374.378 195.124L370.762 195.463ZM371.914 217.368H368.282C368.282 226.849 366.341 235.234 362.538 242.603L365.766 244.269L368.994 245.935C373.389 237.419 375.547 227.87 375.547 217.368H371.914ZM365.766 244.269L362.538 242.603C358.626 250.182 353.349 257.312 346.672 263.99L349.241 266.558L351.809 269.127C358.967 261.969 364.707 254.24 368.994 245.935L365.766 244.269ZM349.241 266.558L346.672 263.99C340.192 270.47 332.689 276.602 324.147 282.38L326.183 285.389L328.218 288.398C337.098 282.391 344.967 275.969 351.809 269.127L349.241 266.558ZM326.183 285.389L324.168 282.367C315.727 287.994 307.158 293.621 298.461 299.249L300.434 302.298L302.408 305.348C311.132 299.703 319.729 294.057 328.198 288.412L326.183 285.389ZM300.434 302.298L298.419 299.276C298.302 299.354 297.744 299.726 297.627 299.804C297.509 299.883 296.952 300.254 296.834 300.333C296.717 300.411 296.159 300.783 296.042 300.861C295.924 300.94 295.367 301.311 295.249 301.39C295.131 301.468 294.574 301.84 294.456 301.918C294.339 301.996 293.781 302.368 293.664 302.446C293.546 302.525 292.989 302.896 292.871 302.975C292.754 303.053 292.196 303.425 292.079 303.503C291.961 303.582 291.403 303.953 291.286 304.032C291.168 304.11 290.611 304.482 290.493 304.56C290.376 304.638 289.818 305.01 289.701 305.088C289.583 305.167 289.026 305.539 288.908 305.617C288.79 305.695 288.233 306.067 288.115 306.145C287.998 306.224 287.44 306.595 287.323 306.674C287.205 306.752 286.648 307.124 286.53 307.202C286.413 307.281 285.855 307.652 285.738 307.731C285.267 308.044 284.623 308.474 284.152 308.787C283.682 309.101 283.037 309.531 282.567 309.844C282.097 310.158 281.452 310.588 280.982 310.901C280.512 311.215 279.867 311.644 279.397 311.958C278.926 312.271 278.282 312.701 277.811 313.015C277.341 313.328 276.696 313.758 276.226 314.072C275.756 314.385 275.111 314.815 274.641 315.128C274.171 315.442 273.526 315.872 273.056 316.185L275.071 319.208L277.086 322.23C277.203 322.152 277.761 321.78 277.878 321.702C277.996 321.623 278.553 321.252 278.671 321.173C278.788 321.095 279.346 320.723 279.463 320.645C279.581 320.566 280.138 320.195 280.256 320.116C280.374 320.038 280.931 319.666 281.049 319.588C281.166 319.51 281.724 319.138 281.841 319.06C281.959 318.981 282.516 318.61 282.634 318.531C282.751 318.453 283.309 318.081 283.427 318.003C283.544 317.924 284.102 317.553 284.219 317.474C284.337 317.396 284.894 317.024 285.012 316.946C285.129 316.868 285.687 316.496 285.804 316.418C285.922 316.339 286.479 315.967 286.597 315.889C286.715 315.811 287.272 315.439 287.39 315.361C287.507 315.282 288.065 314.911 288.182 314.832C288.3 314.754 288.857 314.382 288.975 314.304C289.092 314.225 289.65 313.854 289.767 313.775C290.238 313.462 290.882 313.032 291.353 312.719C291.823 312.405 292.468 311.975 292.938 311.662C293.408 311.348 294.053 310.918 294.523 310.605C294.993 310.291 295.638 309.862 296.108 309.548C296.579 309.235 297.223 308.805 297.694 308.491C298.164 308.178 298.809 307.748 299.279 307.434C299.749 307.121 300.394 306.691 300.864 306.378C301.334 306.064 301.979 305.634 302.449 305.321L300.434 302.298ZM275.071 319.208L273.056 316.185C264.417 321.944 256.671 328.242 249.828 335.085L252.397 337.654L254.965 340.223C261.445 333.743 268.815 327.744 277.086 322.23L275.071 319.208ZM252.397 337.654L249.865 335.05C240.332 344.318 233.124 354.572 228.306 365.814L231.645 367.245L234.983 368.676C239.388 358.398 246.015 348.925 254.929 340.259L252.397 337.654ZM231.645 367.245L228.306 365.814C223.49 377.05 220.609 390.543 219.565 406.202L223.19 406.444L226.814 406.686C227.82 391.601 230.576 378.961 234.983 368.676L231.645 367.245ZM223.19 406.444L223.469 410.066C226.817 409.808 231.442 409.423 237.339 408.91L237.025 405.291L236.71 401.672C230.822 402.184 226.224 402.567 222.911 402.822L223.19 406.444ZM237.025 405.291L237.495 408.893C243.299 408.136 249.885 407.502 257.258 406.993L257.008 403.37L256.759 399.746C249.273 400.262 242.536 400.909 236.555 401.689L237.025 405.291ZM257.008 403.37L257.382 406.983C264.718 406.224 272.444 405.717 280.564 405.463L280.451 401.832L280.337 398.202C272.06 398.46 264.159 398.978 256.635 399.756L257.008 403.37ZM280.451 401.832L280.671 405.458C289.052 404.95 297.433 404.696 305.815 404.696V401.064V397.431C297.287 397.431 288.759 397.69 280.231 398.206L280.451 401.832ZM305.815 401.064V404.696H311.195V401.064V397.431H305.815V401.064ZM311.195 401.064L311.106 404.695C332.043 405.206 348.503 406.481 360.557 408.49L361.154 404.907L361.751 401.324C349.21 399.233 332.364 397.946 311.283 397.432L311.195 401.064ZM361.154 404.907L360.63 408.501C366.78 409.398 371.464 410.072 374.677 410.522C376.282 410.746 377.53 410.917 378.413 411.031C378.853 411.088 379.216 411.133 379.493 411.164C379.669 411.184 380.055 411.229 380.369 411.229V407.597V403.964C380.555 403.964 380.629 403.981 380.308 403.945C380.089 403.92 379.772 403.881 379.347 403.826C378.501 403.717 377.282 403.551 375.685 403.327C372.493 402.88 367.825 402.209 361.678 401.312L361.154 404.907Z" fill="white" mask="url(#path-2-outside-1_127_37)"/>
<defs>
<filter id="filter0_d_127_37" x="0.937342" y="0.973285" width="572.535" height="572.535" filterUnits="userSpaceOnUse" color-interpolation-filters="sRGB">
<feFlood flood-opacity="0" result="BackgroundImageFix"/>
<feColorMatrix in="SourceAlpha" type="matrix" values="0 0 0 0 0 0 0 0 0 0 0 0 0 0 0 0 0 0 127 0" result="hardAlpha"/>
<feMorphology radius="11.3041" operator="dilate" in="SourceAlpha" result="effect1_dropShadow_127_37"/>
<feOffset dy="15.0721"/>
<feGaussianBlur stdDeviation="7.53604"/>
<feComposite in2="hardAlpha" operator="out"/>
<feColorMatrix type="matrix" values="0 0 0 0 0.12549 0 0 0 0 0.278431 0 0 0 0 0.27451 0 0 0 0.28 0"/>
<feBlend mode="normal" in2="BackgroundImageFix" result="effect1_dropShadow_127_37"/>
<feBlend mode="normal" in="SourceGraphic" in2="effect1_dropShadow_127_37" result="shape"/>
</filter>
</defs>
</svg>
