<svg width="574" height="574" viewBox="0 0 574 574" fill="none" xmlns="http://www.w3.org/2000/svg">
<g filter="url(#filter0_d_127_6)">
<rect x="27.3135" y="12" width="519.783" height="519.783" rx="73.6907" fill="#DF1313"/>
</g>
<mask id="path-2-outside-1_127_6" maskUnits="userSpaceOnUse" x="181.458" y="117.386" width="211" height="315" fill="black">
<rect fill="white" x="181.458" y="117.386" width="211" height="315"/>
<path d="M380.369 407.32C386.005 408.601 388.824 412.956 388.824 420.386C388.311 422.948 386.902 424.997 384.596 426.535C382.291 428.072 379.344 428.712 375.757 428.456C370.633 427.687 364.741 426.791 358.08 425.766C352.443 424.997 345.526 424.229 337.327 423.46C329.385 422.948 320.546 422.563 310.811 422.307H305.43C295.695 422.307 285.831 422.563 275.839 423.076C265.847 423.844 256.752 424.613 248.554 425.382C240.612 426.15 233.95 426.791 228.57 427.303C223.19 428.072 220.244 428.456 219.731 428.456C218.963 428.456 218.066 428.328 217.041 428.072C216.273 428.072 214.607 428.072 212.045 428.072C208.971 428.072 206.409 426.919 204.359 424.613C202.31 422.563 201.285 420.13 201.285 417.311C201.541 395.79 204.487 377.6 210.124 362.741C216.016 347.881 225.111 334.302 237.409 322.005C244.839 314.575 253.037 307.914 262.004 302.021C270.971 295.872 279.938 289.851 288.905 283.959C296.848 279.091 304.534 274.223 311.963 269.355C319.393 264.231 325.926 258.979 331.563 253.599C337.199 248.219 341.683 242.582 345.013 236.69C348.6 230.541 350.394 224.008 350.394 217.09C350.394 209.404 350.009 202.231 349.241 195.57C348.472 188.652 346.679 182.247 343.86 176.355C341.042 170.462 336.815 165.21 331.179 160.598C325.542 155.987 317.728 151.887 307.736 148.301C302.1 146.251 297.104 144.842 292.748 144.073C288.649 143.048 284.678 142.536 280.835 142.536C275.455 142.536 269.818 143.305 263.926 144.842C258.033 146.379 250.603 148.557 241.636 151.375C235.231 153.425 229.851 156.627 225.496 160.983C221.14 165.082 217.554 169.309 214.735 173.664C211.405 178.788 208.587 184.297 206.281 190.189C204.487 195.313 200.004 197.747 192.83 197.491C190.524 196.723 188.603 195.313 187.066 193.264C185.785 190.958 185.4 187.884 185.913 184.041C185.913 183.528 186.809 180.966 188.603 176.355C190.396 171.743 193.214 166.619 197.057 160.983C201.157 155.09 206.409 149.325 212.814 143.689C219.219 137.796 227.033 133.441 236.256 130.623C245.223 127.805 253.165 125.627 260.083 124.09C267 122.296 273.918 121.4 280.835 121.4C285.703 121.4 290.827 121.912 296.207 122.937C301.844 123.962 308.12 125.627 315.038 127.933C329.129 132.8 340.017 139.077 347.703 146.763C355.646 154.193 361.282 162.007 364.613 170.206C368.2 178.404 370.249 186.731 370.762 195.185C371.53 203.384 371.914 210.685 371.914 217.09C371.914 227.082 369.865 236.049 365.766 243.992C361.666 251.934 356.158 259.364 349.241 266.281C342.579 272.942 334.893 279.219 326.183 285.112C317.728 290.748 309.145 296.385 300.434 302.021C291.98 307.657 283.525 313.294 275.071 318.93C266.616 324.567 259.058 330.716 252.397 337.377C243.174 346.344 236.256 356.207 231.645 366.968C227.033 377.728 224.215 390.795 223.19 406.167C226.521 405.91 231.132 405.526 237.025 405.014C242.917 404.245 249.579 403.605 257.008 403.092C264.438 402.324 272.252 401.811 280.451 401.555C288.905 401.043 297.36 400.786 305.815 400.786H311.195C332.203 401.299 348.856 402.58 361.154 404.629C373.452 406.423 379.857 407.32 380.369 407.32Z"/>
</mask>
<path d="M380.369 407.32C386.005 408.601 388.824 412.956 388.824 420.386C388.311 422.948 386.902 424.997 384.596 426.535C382.291 428.072 379.344 428.712 375.757 428.456C370.633 427.687 364.741 426.791 358.08 425.766C352.443 424.997 345.526 424.229 337.327 423.46C329.385 422.948 320.546 422.563 310.811 422.307H305.43C295.695 422.307 285.831 422.563 275.839 423.076C265.847 423.844 256.752 424.613 248.554 425.382C240.612 426.15 233.95 426.791 228.57 427.303C223.19 428.072 220.244 428.456 219.731 428.456C218.963 428.456 218.066 428.328 217.041 428.072C216.273 428.072 214.607 428.072 212.045 428.072C208.971 428.072 206.409 426.919 204.359 424.613C202.31 422.563 201.285 420.13 201.285 417.311C201.541 395.79 204.487 377.6 210.124 362.741C216.016 347.881 225.111 334.302 237.409 322.005C244.839 314.575 253.037 307.914 262.004 302.021C270.971 295.872 279.938 289.851 288.905 283.959C296.848 279.091 304.534 274.223 311.963 269.355C319.393 264.231 325.926 258.979 331.563 253.599C337.199 248.219 341.683 242.582 345.013 236.69C348.6 230.541 350.394 224.008 350.394 217.09C350.394 209.404 350.009 202.231 349.241 195.57C348.472 188.652 346.679 182.247 343.86 176.355C341.042 170.462 336.815 165.21 331.179 160.598C325.542 155.987 317.728 151.887 307.736 148.301C302.1 146.251 297.104 144.842 292.748 144.073C288.649 143.048 284.678 142.536 280.835 142.536C275.455 142.536 269.818 143.305 263.926 144.842C258.033 146.379 250.603 148.557 241.636 151.375C235.231 153.425 229.851 156.627 225.496 160.983C221.14 165.082 217.554 169.309 214.735 173.664C211.405 178.788 208.587 184.297 206.281 190.189C204.487 195.313 200.004 197.747 192.83 197.491C190.524 196.723 188.603 195.313 187.066 193.264C185.785 190.958 185.4 187.884 185.913 184.041C185.913 183.528 186.809 180.966 188.603 176.355C190.396 171.743 193.214 166.619 197.057 160.983C201.157 155.09 206.409 149.325 212.814 143.689C219.219 137.796 227.033 133.441 236.256 130.623C245.223 127.805 253.165 125.627 260.083 124.09C267 122.296 273.918 121.4 280.835 121.4C285.703 121.4 290.827 121.912 296.207 122.937C301.844 123.962 308.12 125.627 315.038 127.933C329.129 132.8 340.017 139.077 347.703 146.763C355.646 154.193 361.282 162.007 364.613 170.206C368.2 178.404 370.249 186.731 370.762 195.185C371.53 203.384 371.914 210.685 371.914 217.09C371.914 227.082 369.865 236.049 365.766 243.992C361.666 251.934 356.158 259.364 349.241 266.281C342.579 272.942 334.893 279.219 326.183 285.112C317.728 290.748 309.145 296.385 300.434 302.021C291.98 307.657 283.525 313.294 275.071 318.93C266.616 324.567 259.058 330.716 252.397 337.377C243.174 346.344 236.256 356.207 231.645 366.968C227.033 377.728 224.215 390.795 223.19 406.167C226.521 405.91 231.132 405.526 237.025 405.014C242.917 404.245 249.579 403.605 257.008 403.092C264.438 402.324 272.252 401.811 280.451 401.555C288.905 401.043 297.36 400.786 305.815 400.786H311.195C332.203 401.299 348.856 402.58 361.154 404.629C373.452 406.423 379.857 407.32 380.369 407.32Z" fill="white"/>
<path d="M380.369 407.32L381.174 403.777L380.777 403.687H380.369V407.32ZM388.824 420.386L392.386 421.098L392.456 420.745V420.386H388.824ZM375.757 428.456L375.219 432.048L375.358 432.069L375.499 432.079L375.757 428.456ZM358.08 425.766L358.632 422.176L358.601 422.171L358.57 422.167L358.08 425.766ZM337.327 423.46L337.666 419.843L337.614 419.839L337.561 419.835L337.327 423.46ZM310.811 422.307L310.906 418.676L310.858 418.675H310.811V422.307ZM275.839 423.076L275.653 419.448L275.607 419.45L275.561 419.454L275.839 423.076ZM248.554 425.382L248.215 421.765L248.204 421.766L248.554 425.382ZM228.57 427.303L228.226 423.687L228.141 423.695L228.056 423.707L228.57 427.303ZM217.041 428.072L217.922 424.548L217.488 424.439H217.041V428.072ZM204.359 424.613L207.074 422.2L207.003 422.12L206.928 422.044L204.359 424.613ZM201.285 417.311L197.653 417.268L197.652 417.29V417.311H201.285ZM210.124 362.741L206.747 361.402L206.737 361.427L206.727 361.452L210.124 362.741ZM237.409 322.005L234.841 319.436L237.409 322.005ZM262.004 302.021L263.999 305.057L264.029 305.037L264.059 305.017L262.004 302.021ZM288.905 283.959L287.007 280.862L286.958 280.892L286.911 280.923L288.905 283.959ZM311.963 269.355L313.954 272.394L313.99 272.37L314.026 272.346L311.963 269.355ZM345.013 236.69L341.876 234.86L341.863 234.881L341.851 234.902L345.013 236.69ZM349.241 195.57L345.63 195.971L345.631 195.978L345.632 195.986L349.241 195.57ZM307.736 148.301L306.495 151.714L306.502 151.717L306.509 151.72L307.736 148.301ZM292.748 144.073L291.867 147.597L291.991 147.628L292.117 147.651L292.748 144.073ZM241.636 151.375L240.547 147.91L240.538 147.912L240.529 147.915L241.636 151.375ZM225.496 160.983L227.985 163.628L228.025 163.59L228.064 163.551L225.496 160.983ZM214.735 173.664L217.781 175.644L217.785 175.638L214.735 173.664ZM206.281 190.189L202.898 188.866L202.874 188.927L202.852 188.989L206.281 190.189ZM192.83 197.491L191.681 200.937L192.178 201.103L192.701 201.121L192.83 197.491ZM187.066 193.264L183.89 195.028L184.011 195.245L184.16 195.443L187.066 193.264ZM185.913 184.041L189.513 184.521L189.545 184.282V184.041H185.913ZM197.057 160.983L194.076 158.908L194.066 158.922L194.056 158.936L197.057 160.983ZM212.814 143.689L215.214 146.416L215.244 146.389L215.273 146.362L212.814 143.689ZM236.256 130.623L237.318 134.097L237.332 134.093L237.345 134.088L236.256 130.623ZM260.083 124.09L260.871 127.636L260.933 127.622L260.994 127.606L260.083 124.09ZM296.207 122.937L295.527 126.505L295.542 126.508L295.557 126.511L296.207 122.937ZM315.038 127.933L316.224 124.499L316.205 124.493L316.187 124.487L315.038 127.933ZM347.703 146.763L345.135 149.332L345.178 149.375L345.222 149.416L347.703 146.763ZM364.613 170.206L361.247 171.573L361.265 171.618L361.285 171.662L364.613 170.206ZM370.762 195.185L367.136 195.405L367.139 195.465L367.145 195.524L370.762 195.185ZM326.183 285.112L328.198 288.134L328.208 288.127L328.218 288.121L326.183 285.112ZM300.434 302.021L298.461 298.971L298.44 298.985L298.419 298.999L300.434 302.021ZM275.071 318.93L277.086 321.953L275.071 318.93ZM252.397 337.377L254.929 339.981L254.947 339.963L254.965 339.945L252.397 337.377ZM223.19 406.167L219.565 405.925L219.286 410.11L223.469 409.788L223.19 406.167ZM237.025 405.014L237.339 408.633L237.417 408.626L237.495 408.616L237.025 405.014ZM257.008 403.092L257.258 406.716L257.32 406.712L257.382 406.705L257.008 403.092ZM280.451 401.555L280.564 405.186L280.617 405.184L280.671 405.181L280.451 401.555ZM311.195 400.786L311.283 397.155L311.239 397.154H311.195V400.786ZM361.154 404.629L360.557 408.213L360.593 408.219L360.63 408.224L361.154 404.629ZM380.369 407.32L379.564 410.862C381.573 411.318 382.827 412.232 383.66 413.52C384.558 414.908 385.191 417.083 385.191 420.386H388.824H392.456C392.456 416.259 391.68 412.541 389.76 409.573C387.775 406.506 384.801 404.602 381.174 403.777L380.369 407.32ZM388.824 420.386L385.262 419.673C384.951 421.229 384.14 422.473 382.581 423.512L384.596 426.535L386.611 429.557C389.665 427.521 391.672 424.667 392.386 421.098L388.824 420.386ZM384.596 426.535L382.581 423.512C381.122 424.485 379.04 425.049 376.016 424.833L375.757 428.456L375.499 432.079C379.648 432.376 383.459 431.659 386.611 429.557L384.596 426.535ZM375.757 428.456L376.296 424.864C371.178 424.096 365.29 423.2 358.632 422.176L358.08 425.766L357.527 429.356C364.192 430.382 370.089 431.279 375.219 432.048L375.757 428.456ZM358.08 425.766L358.57 422.167C352.867 421.389 345.895 420.615 337.666 419.843L337.327 423.46L336.988 427.077C345.156 427.843 352.02 428.606 357.589 429.365L358.08 425.766ZM337.327 423.46L337.561 419.835C329.564 419.319 320.678 418.933 310.906 418.676L310.811 422.307L310.715 425.939C320.414 426.194 329.206 426.576 337.093 427.085L337.327 423.46ZM310.811 422.307V418.675H305.43V422.307V425.94H310.811V422.307ZM305.43 422.307V418.675C295.631 418.675 285.705 418.933 275.653 419.448L275.839 423.076L276.025 426.704C285.957 426.194 295.758 425.94 305.43 425.94V422.307ZM275.839 423.076L275.561 419.454C265.553 420.224 256.437 420.994 248.215 421.765L248.554 425.382L248.893 428.998C257.067 428.232 266.142 427.465 276.118 426.698L275.839 423.076ZM248.554 425.382L248.204 421.766C240.263 422.535 233.604 423.175 228.226 423.687L228.57 427.303L228.915 430.919C234.297 430.407 240.96 429.766 248.904 428.997L248.554 425.382ZM228.57 427.303L228.056 423.707C225.371 424.091 223.307 424.377 221.855 424.566C220.24 424.777 219.686 424.824 219.731 424.824V428.456V432.089C220.288 432.089 221.464 431.943 222.795 431.77C224.29 431.575 226.389 431.284 229.084 430.899L228.57 427.303ZM219.731 428.456V424.824C219.347 424.824 218.758 424.757 217.922 424.548L217.041 428.072L216.16 431.596C217.374 431.899 218.578 432.089 219.731 432.089V428.456ZM217.041 428.072V424.439C217.04 424.439 217.038 424.439 217.037 424.439C217.035 424.439 217.034 424.439 217.032 424.439C217.031 424.439 217.029 424.439 217.028 424.439C217.026 424.439 217.024 424.439 217.023 424.439C217.021 424.439 217.02 424.439 217.018 424.439C217.017 424.439 217.015 424.439 217.014 424.439C217.012 424.439 217.011 424.439 217.009 424.439C217.008 424.439 217.006 424.439 217.004 424.439C217.003 424.439 217.001 424.439 217 424.439C216.998 424.439 216.997 424.439 216.995 424.439C216.994 424.439 216.992 424.439 216.99 424.439C216.989 424.439 216.987 424.439 216.986 424.439C216.984 424.439 216.982 424.439 216.981 424.439C216.979 424.439 216.978 424.439 216.976 424.439C216.974 424.439 216.973 424.439 216.971 424.439C216.97 424.439 216.968 424.439 216.966 424.439C216.965 424.439 216.963 424.439 216.962 424.439C216.96 424.439 216.958 424.439 216.957 424.439C216.955 424.439 216.953 424.439 216.952 424.439C216.95 424.439 216.949 424.439 216.947 424.439C216.945 424.439 216.944 424.439 216.942 424.439C216.94 424.439 216.939 424.439 216.937 424.439C216.935 424.439 216.934 424.439 216.932 424.439C216.93 424.439 216.929 424.439 216.927 424.439C216.925 424.439 216.924 424.439 216.922 424.439C216.92 424.439 216.919 424.439 216.917 424.439C216.915 424.439 216.914 424.439 216.912 424.439C216.91 424.439 216.909 424.439 216.907 424.439C216.905 424.439 216.904 424.439 216.902 424.439C216.9 424.439 216.899 424.439 216.897 424.439C216.895 424.439 216.893 424.439 216.892 424.439C216.89 424.439 216.888 424.439 216.887 424.439C216.885 424.439 216.883 424.439 216.881 424.439C216.88 424.439 216.878 424.439 216.876 424.439C216.874 424.439 216.873 424.439 216.871 424.439C216.869 424.439 216.867 424.439 216.866 424.439C216.864 424.439 216.862 424.439 216.86 424.439C216.859 424.439 216.857 424.439 216.855 424.439C216.853 424.439 216.852 424.439 216.85 424.439C216.848 424.439 216.846 424.439 216.845 424.439C216.843 424.439 216.841 424.439 216.839 424.439C216.837 424.439 216.836 424.439 216.834 424.439C216.832 424.439 216.83 424.439 216.829 424.439C216.827 424.439 216.825 424.439 216.823 424.439C216.821 424.439 216.82 424.439 216.818 424.439C216.816 424.439 216.814 424.439 216.812 424.439C216.81 424.439 216.809 424.439 216.807 424.439C216.805 424.439 216.803 424.439 216.801 424.439C216.799 424.439 216.798 424.439 216.796 424.439C216.794 424.439 216.792 424.439 216.79 424.439C216.788 424.439 216.787 424.439 216.785 424.439C216.783 424.439 216.781 424.439 216.779 424.439C216.777 424.439 216.775 424.439 216.774 424.439C216.772 424.439 216.77 424.439 216.768 424.439C216.766 424.439 216.764 424.439 216.762 424.439C216.761 424.439 216.759 424.439 216.757 424.439C216.755 424.439 216.753 424.439 216.751 424.439C216.749 424.439 216.747 424.439 216.745 424.439C216.744 424.439 216.742 424.439 216.74 424.439C216.738 424.439 216.736 424.439 216.734 424.439C216.732 424.439 216.73 424.439 216.728 424.439C216.726 424.439 216.724 424.439 216.722 424.439C216.721 424.439 216.719 424.439 216.717 424.439C216.715 424.439 216.713 424.439 216.711 424.439C216.709 424.439 216.707 424.439 216.705 424.439C216.703 424.439 216.701 424.439 216.699 424.439C216.697 424.439 216.695 424.439 216.693 424.439C216.691 424.439 216.689 424.439 216.687 424.439C216.685 424.439 216.684 424.439 216.682 424.439C216.68 424.439 216.678 424.439 216.676 424.439C216.674 424.439 216.672 424.439 216.67 424.439C216.668 424.439 216.666 424.439 216.664 424.439C216.662 424.439 216.66 424.439 216.658 424.439C216.656 424.439 216.654 424.439 216.652 424.439C216.65 424.439 216.648 424.439 216.646 424.439C216.644 424.439 216.642 424.439 216.64 424.439C216.638 424.439 216.636 424.439 216.634 424.439C216.631 424.439 216.629 424.439 216.627 424.439C216.625 424.439 216.623 424.439 216.621 424.439C216.619 424.439 216.617 424.439 216.615 424.439C216.613 424.439 216.611 424.439 216.609 424.439C216.607 424.439 216.605 424.439 216.603 424.439C216.601 424.439 216.599 424.439 216.597 424.439C216.595 424.439 216.593 424.439 216.59 424.439C216.588 424.439 216.586 424.439 216.584 424.439C216.582 424.439 216.58 424.439 216.578 424.439C216.576 424.439 216.574 424.439 216.572 424.439C216.57 424.439 216.567 424.439 216.565 424.439C216.563 424.439 216.561 424.439 216.559 424.439C216.557 424.439 216.555 424.439 216.553 424.439C216.551 424.439 216.548 424.439 216.546 424.439C216.544 424.439 216.542 424.439 216.54 424.439C216.538 424.439 216.536 424.439 216.534 424.439C216.531 424.439 216.529 424.439 216.527 424.439C216.525 424.439 216.523 424.439 216.521 424.439C216.519 424.439 216.516 424.439 216.514 424.439C216.512 424.439 216.51 424.439 216.508 424.439C216.506 424.439 216.503 424.439 216.501 424.439C216.499 424.439 216.497 424.439 216.495 424.439C216.493 424.439 216.49 424.439 216.488 424.439C216.486 424.439 216.484 424.439 216.482 424.439C216.479 424.439 216.477 424.439 216.475 424.439C216.473 424.439 216.471 424.439 216.468 424.439C216.466 424.439 216.464 424.439 216.462 424.439C216.46 424.439 216.457 424.439 216.455 424.439C216.453 424.439 216.451 424.439 216.448 424.439C216.446 424.439 216.444 424.439 216.442 424.439C216.44 424.439 216.437 424.439 216.435 424.439C216.433 424.439 216.431 424.439 216.428 424.439C216.426 424.439 216.424 424.439 216.422 424.439C216.419 424.439 216.417 424.439 216.415 424.439C216.413 424.439 216.41 424.439 216.408 424.439C216.406 424.439 216.403 424.439 216.401 424.439C216.399 424.439 216.397 424.439 216.394 424.439C216.392 424.439 216.39 424.439 216.388 424.439C216.385 424.439 216.383 424.439 216.381 424.439C216.378 424.439 216.376 424.439 216.374 424.439C216.371 424.439 216.369 424.439 216.367 424.439C216.365 424.439 216.362 424.439 216.36 424.439C216.358 424.439 216.355 424.439 216.353 424.439C216.351 424.439 216.348 424.439 216.346 424.439C216.344 424.439 216.341 424.439 216.339 424.439C216.337 424.439 216.334 424.439 216.332 424.439C216.33 424.439 216.327 424.439 216.325 424.439C216.323 424.439 216.32 424.439 216.318 424.439C216.315 424.439 216.313 424.439 216.311 424.439C216.308 424.439 216.306 424.439 216.304 424.439C216.301 424.439 216.299 424.439 216.297 424.439C216.294 424.439 216.292 424.439 216.289 424.439C216.287 424.439 216.285 424.439 216.282 424.439C216.28 424.439 216.277 424.439 216.275 424.439C216.273 424.439 216.27 424.439 216.268 424.439C216.265 424.439 216.263 424.439 216.261 424.439C216.258 424.439 216.256 424.439 216.253 424.439C216.251 424.439 216.249 424.439 216.246 424.439C216.244 424.439 216.241 424.439 216.239 424.439C216.236 424.439 216.234 424.439 216.232 424.439C216.229 424.439 216.227 424.439 216.224 424.439C216.222 424.439 216.219 424.439 216.217 424.439C216.214 424.439 216.212 424.439 216.21 424.439C216.207 424.439 216.205 424.439 216.202 424.439C216.2 424.439 216.197 424.439 216.195 424.439C216.192 424.439 216.19 424.439 216.187 424.439C216.185 424.439 216.182 424.439 216.18 424.439C216.177 424.439 216.175 424.439 216.172 424.439C216.17 424.439 216.167 424.439 216.165 424.439C216.162 424.439 216.16 424.439 216.157 424.439C216.155 424.439 216.152 424.439 216.15 424.439C216.147 424.439 216.145 424.439 216.142 424.439C216.14 424.439 216.137 424.439 216.135 424.439C216.132 424.439 216.13 424.439 216.127 424.439C216.125 424.439 216.122 424.439 216.12 424.439C216.117 424.439 216.114 424.439 216.112 424.439C216.109 424.439 216.107 424.439 216.104 424.439C216.102 424.439 216.099 424.439 216.097 424.439C216.094 424.439 216.091 424.439 216.089 424.439C216.086 424.439 216.084 424.439 216.081 424.439C216.079 424.439 216.076 424.439 216.073 424.439C216.071 424.439 216.068 424.439 216.066 424.439C216.063 424.439 216.06 424.439 216.058 424.439C216.055 424.439 216.053 424.439 216.05 424.439C216.047 424.439 216.045 424.439 216.042 424.439C216.04 424.439 216.037 424.439 216.034 424.439C216.032 424.439 216.029 424.439 216.027 424.439C216.024 424.439 216.021 424.439 216.019 424.439C216.016 424.439 216.013 424.439 216.011 424.439C216.008 424.439 216.005 424.439 216.003 424.439C216 424.439 215.998 424.439 215.995 424.439C215.992 424.439 215.99 424.439 215.987 424.439C215.984 424.439 215.982 424.439 215.979 424.439C215.976 424.439 215.974 424.439 215.971 424.439C215.968 424.439 215.966 424.439 215.963 424.439C215.96 424.439 215.958 424.439 215.955 424.439C215.952 424.439 215.95 424.439 215.947 424.439C215.944 424.439 215.941 424.439 215.939 424.439C215.936 424.439 215.933 424.439 215.931 424.439C215.928 424.439 215.925 424.439 215.923 424.439C215.92 424.439 215.917 424.439 215.914 424.439C215.912 424.439 215.909 424.439 215.906 424.439C215.903 424.439 215.901 424.439 215.898 424.439C215.895 424.439 215.893 424.439 215.89 424.439C215.887 424.439 215.884 424.439 215.882 424.439C215.879 424.439 215.876 424.439 215.873 424.439C215.871 424.439 215.868 424.439 215.865 424.439C215.862 424.439 215.86 424.439 215.857 424.439C215.854 424.439 215.851 424.439 215.848 424.439C215.846 424.439 215.843 424.439 215.84 424.439C215.837 424.439 215.835 424.439 215.832 424.439C215.829 424.439 215.826 424.439 215.823 424.439C215.821 424.439 215.818 424.439 215.815 424.439C215.812 424.439 215.809 424.439 215.807 424.439C215.804 424.439 215.801 424.439 215.798 424.439C215.795 424.439 215.793 424.439 215.79 424.439C215.787 424.439 215.784 424.439 215.781 424.439C215.778 424.439 215.776 424.439 215.773 424.439C215.77 424.439 215.767 424.439 215.764 424.439C215.761 424.439 215.759 424.439 215.756 424.439C215.753 424.439 215.75 424.439 215.747 424.439C215.744 424.439 215.741 424.439 215.739 424.439C215.736 424.439 215.733 424.439 215.73 424.439C215.727 424.439 215.724 424.439 215.721 424.439C215.718 424.439 215.716 424.439 215.713 424.439C215.71 424.439 215.707 424.439 215.704 424.439C215.701 424.439 215.698 424.439 215.695 424.439C215.692 424.439 215.69 424.439 215.687 424.439C215.684 424.439 215.681 424.439 215.678 424.439C215.675 424.439 215.672 424.439 215.669 424.439C215.666 424.439 215.663 424.439 215.66 424.439C215.658 424.439 215.655 424.439 215.652 424.439C215.649 424.439 215.646 424.439 215.643 424.439C215.64 424.439 215.637 424.439 215.634 424.439C215.631 424.439 215.628 424.439 215.625 424.439C215.622 424.439 215.619 424.439 215.616 424.439C215.613 424.439 215.61 424.439 215.607 424.439C215.604 424.439 215.601 424.439 215.599 424.439C215.596 424.439 215.593 424.439 215.59 424.439C215.587 424.439 215.584 424.439 215.581 424.439C215.578 424.439 215.575 424.439 215.572 424.439C215.569 424.439 215.566 424.439 215.563 424.439C215.56 424.439 215.557 424.439 215.554 424.439C215.551 424.439 215.548 424.439 215.545 424.439C215.542 424.439 215.539 424.439 215.536 424.439C215.533 424.439 215.53 424.439 215.527 424.439C215.524 424.439 215.52 424.439 215.517 424.439C215.514 424.439 215.511 424.439 215.508 424.439C215.505 424.439 215.502 424.439 215.499 424.439C215.496 424.439 215.493 424.439 215.49 424.439C215.487 424.439 215.484 424.439 215.481 424.439C215.478 424.439 215.475 424.439 215.472 424.439C215.469 424.439 215.466 424.439 215.462 424.439C215.459 424.439 215.456 424.439 215.453 424.439C215.45 424.439 215.447 424.439 215.444 424.439C215.441 424.439 215.438 424.439 215.435 424.439C215.432 424.439 215.429 424.439 215.425 424.439C215.422 424.439 215.419 424.439 215.416 424.439C215.413 424.439 215.41 424.439 215.407 424.439C215.404 424.439 215.401 424.439 215.397 424.439C215.394 424.439 215.391 424.439 215.388 424.439C215.385 424.439 215.382 424.439 215.379 424.439C215.375 424.439 215.372 424.439 215.369 424.439C215.366 424.439 215.363 424.439 215.36 424.439C215.357 424.439 215.353 424.439 215.35 424.439C215.347 424.439 215.344 424.439 215.341 424.439C215.338 424.439 215.334 424.439 215.331 424.439C215.328 424.439 215.325 424.439 215.322 424.439C215.319 424.439 215.315 424.439 215.312 424.439C215.309 424.439 215.306 424.439 215.303 424.439C215.3 424.439 215.296 424.439 215.293 424.439C215.29 424.439 215.287 424.439 215.284 424.439C215.28 424.439 215.277 424.439 215.274 424.439C215.271 424.439 215.267 424.439 215.264 424.439C215.261 424.439 215.258 424.439 215.255 424.439C215.251 424.439 215.248 424.439 215.245 424.439C215.242 424.439 215.238 424.439 215.235 424.439C215.232 424.439 215.229 424.439 215.225 424.439C215.222 424.439 215.219 424.439 215.216 424.439C215.212 424.439 215.209 424.439 215.206 424.439C215.203 424.439 215.199 424.439 215.196 424.439C215.193 424.439 215.19 424.439 215.186 424.439C215.183 424.439 215.18 424.439 215.177 424.439C215.173 424.439 215.17 424.439 215.167 424.439C215.163 424.439 215.16 424.439 215.157 424.439C215.153 424.439 215.15 424.439 215.147 424.439C215.144 424.439 215.14 424.439 215.137 424.439C215.134 424.439 215.13 424.439 215.127 424.439C215.124 424.439 215.12 424.439 215.117 424.439C215.114 424.439 215.11 424.439 215.107 424.439C215.104 424.439 215.1 424.439 215.097 424.439C215.094 424.439 215.09 424.439 215.087 424.439C215.084 424.439 215.08 424.439 215.077 424.439C215.074 424.439 215.07 424.439 215.067 424.439C215.064 424.439 215.06 424.439 215.057 424.439C215.054 424.439 215.05 424.439 215.047 424.439C215.043 424.439 215.04 424.439 215.037 424.439C215.033 424.439 215.03 424.439 215.027 424.439C215.023 424.439 215.02 424.439 215.016 424.439C215.013 424.439 215.01 424.439 215.006 424.439C215.003 424.439 214.999 424.439 214.996 424.439C214.993 424.439 214.989 424.439 214.986 424.439C214.982 424.439 214.979 424.439 214.976 424.439C214.972 424.439 214.969 424.439 214.965 424.439C214.962 424.439 214.959 424.439 214.955 424.439C214.952 424.439 214.948 424.439 214.945 424.439C214.941 424.439 214.938 424.439 214.934 424.439C214.931 424.439 214.928 424.439 214.924 424.439C214.921 424.439 214.917 424.439 214.914 424.439C214.91 424.439 214.907 424.439 214.903 424.439C214.9 424.439 214.896 424.439 214.893 424.439C214.889 424.439 214.886 424.439 214.883 424.439C214.879 424.439 214.876 424.439 214.872 424.439C214.869 424.439 214.865 424.439 214.862 424.439C214.858 424.439 214.855 424.439 214.851 424.439C214.848 424.439 214.844 424.439 214.841 424.439C214.837 424.439 214.834 424.439 214.83 424.439C214.827 424.439 214.823 424.439 214.82 424.439C214.816 424.439 214.813 424.439 214.809 424.439C214.805 424.439 214.802 424.439 214.798 424.439C214.795 424.439 214.791 424.439 214.788 424.439C214.784 424.439 214.781 424.439 214.777 424.439C214.774 424.439 214.77 424.439 214.767 424.439C214.763 424.439 214.759 424.439 214.756 424.439C214.752 424.439 214.749 424.439 214.745 424.439C214.742 424.439 214.738 424.439 214.734 424.439C214.731 424.439 214.727 424.439 214.724 424.439C214.72 424.439 214.717 424.439 214.713 424.439C214.709 424.439 214.706 424.439 214.702 424.439C214.699 424.439 214.695 424.439 214.691 424.439C214.688 424.439 214.684 424.439 214.681 424.439C214.677 424.439 214.673 424.439 214.67 424.439C214.666 424.439 214.662 424.439 214.659 424.439C214.655 424.439 214.652 424.439 214.648 424.439C214.644 424.439 214.641 424.439 214.637 424.439C214.633 424.439 214.63 424.439 214.626 424.439C214.623 424.439 214.619 424.439 214.615 424.439C214.612 424.439 214.608 424.439 214.604 424.439C214.601 424.439 214.597 424.439 214.593 424.439C214.59 424.439 214.586 424.439 214.582 424.439C214.579 424.439 214.575 424.439 214.571 424.439C214.568 424.439 214.564 424.439 214.56 424.439C214.557 424.439 214.553 424.439 214.549 424.439C214.545 424.439 214.542 424.439 214.538 424.439C214.534 424.439 214.531 424.439 214.527 424.439C214.523 424.439 214.52 424.439 214.516 424.439C214.512 424.439 214.508 424.439 214.505 424.439C214.501 424.439 214.497 424.439 214.494 424.439C214.49 424.439 214.486 424.439 214.482 424.439C214.479 424.439 214.475 424.439 214.471 424.439C214.467 424.439 214.464 424.439 214.46 424.439C214.456 424.439 214.452 424.439 214.449 424.439C214.445 424.439 214.441 424.439 214.437 424.439C214.434 424.439 214.43 424.439 214.426 424.439C214.422 424.439 214.419 424.439 214.415 424.439C214.411 424.439 214.407 424.439 214.404 424.439C214.4 424.439 214.396 424.439 214.392 424.439C214.388 424.439 214.385 424.439 214.381 424.439C214.377 424.439 214.373 424.439 214.369 424.439C214.366 424.439 214.362 424.439 214.358 424.439C214.354 424.439 214.35 424.439 214.347 424.439C214.343 424.439 214.339 424.439 214.335 424.439C214.331 424.439 214.327 424.439 214.324 424.439C214.32 424.439 214.316 424.439 214.312 424.439C214.308 424.439 214.304 424.439 214.301 424.439C214.297 424.439 214.293 424.439 214.289 424.439C214.285 424.439 214.281 424.439 214.278 424.439C214.274 424.439 214.27 424.439 214.266 424.439C214.262 424.439 214.258 424.439 214.254 424.439C214.251 424.439 214.247 424.439 214.243 424.439C214.239 424.439 214.235 424.439 214.231 424.439C214.227 424.439 214.223 424.439 214.219 424.439C214.216 424.439 214.212 424.439 214.208 424.439C214.204 424.439 214.2 424.439 214.196 424.439C214.192 424.439 214.188 424.439 214.184 424.439C214.18 424.439 214.177 424.439 214.173 424.439C214.169 424.439 214.165 424.439 214.161 424.439C214.157 424.439 214.153 424.439 214.149 424.439C214.145 424.439 214.141 424.439 214.137 424.439C214.133 424.439 214.129 424.439 214.126 424.439C214.122 424.439 214.118 424.439 214.114 424.439C214.11 424.439 214.106 424.439 214.102 424.439C214.098 424.439 214.094 424.439 214.09 424.439C214.086 424.439 214.082 424.439 214.078 424.439C214.074 424.439 214.07 424.439 214.066 424.439C214.062 424.439 214.058 424.439 214.054 424.439C214.05 424.439 214.046 424.439 214.042 424.439C214.038 424.439 214.034 424.439 214.03 424.439C214.026 424.439 214.022 424.439 214.018 424.439C214.014 424.439 214.01 424.439 214.006 424.439C214.002 424.439 213.998 424.439 213.994 424.439C213.99 424.439 213.986 424.439 213.982 424.439C213.978 424.439 213.974 424.439 213.97 424.439C213.966 424.439 213.962 424.439 213.958 424.439C213.954 424.439 213.95 424.439 213.946 424.439C213.942 424.439 213.938 424.439 213.934 424.439C213.93 424.439 213.925 424.439 213.921 424.439C213.917 424.439 213.913 424.439 213.909 424.439C213.905 424.439 213.901 424.439 213.897 424.439C213.893 424.439 213.889 424.439 213.885 424.439C213.881 424.439 213.877 424.439 213.873 424.439C213.868 424.439 213.864 424.439 213.86 424.439C213.856 424.439 213.852 424.439 213.848 424.439C213.844 424.439 213.84 424.439 213.836 424.439C213.832 424.439 213.827 424.439 213.823 424.439C213.819 424.439 213.815 424.439 213.811 424.439C213.807 424.439 213.803 424.439 213.799 424.439C213.794 424.439 213.79 424.439 213.786 424.439C213.782 424.439 213.778 424.439 213.774 424.439C213.77 424.439 213.765 424.439 213.761 424.439C213.757 424.439 213.753 424.439 213.749 424.439C213.745 424.439 213.741 424.439 213.736 424.439C213.732 424.439 213.728 424.439 213.724 424.439C213.72 424.439 213.716 424.439 213.711 424.439C213.707 424.439 213.703 424.439 213.699 424.439C213.695 424.439 213.69 424.439 213.686 424.439C213.682 424.439 213.678 424.439 213.674 424.439C213.67 424.439 213.665 424.439 213.661 424.439C213.657 424.439 213.653 424.439 213.649 424.439C213.644 424.439 213.64 424.439 213.636 424.439C213.632 424.439 213.627 424.439 213.623 424.439C213.619 424.439 213.615 424.439 213.611 424.439C213.606 424.439 213.602 424.439 213.598 424.439C213.594 424.439 213.589 424.439 213.585 424.439C213.581 424.439 213.577 424.439 213.572 424.439C213.568 424.439 213.564 424.439 213.56 424.439C213.555 424.439 213.551 424.439 213.547 424.439C213.543 424.439 213.538 424.439 213.534 424.439C213.53 424.439 213.525 424.439 213.521 424.439C213.517 424.439 213.513 424.439 213.508 424.439C213.504 424.439 213.5 424.439 213.495 424.439C213.491 424.439 213.487 424.439 213.483 424.439C213.478 424.439 213.474 424.439 213.47 424.439C213.465 424.439 213.461 424.439 213.457 424.439C213.452 424.439 213.448 424.439 213.444 424.439C213.439 424.439 213.435 424.439 213.431 424.439C213.426 424.439 213.422 424.439 213.418 424.439C213.413 424.439 213.409 424.439 213.405 424.439C213.4 424.439 213.396 424.439 213.392 424.439C213.387 424.439 213.383 424.439 213.379 424.439C213.374 424.439 213.37 424.439 213.366 424.439C213.361 424.439 213.357 424.439 213.353 424.439C213.348 424.439 213.344 424.439 213.339 424.439C213.335 424.439 213.331 424.439 213.326 424.439C213.322 424.439 213.318 424.439 213.313 424.439C213.309 424.439 213.304 424.439 213.3 424.439C213.296 424.439 213.291 424.439 213.287 424.439C213.282 424.439 213.278 424.439 213.274 424.439C213.269 424.439 213.265 424.439 213.26 424.439C213.256 424.439 213.252 424.439 213.247 424.439C213.243 424.439 213.238 424.439 213.234 424.439C213.229 424.439 213.225 424.439 213.221 424.439C213.216 424.439 213.212 424.439 213.207 424.439C213.203 424.439 213.198 424.439 213.194 424.439C213.189 424.439 213.185 424.439 213.18 424.439C213.176 424.439 213.172 424.439 213.167 424.439C213.163 424.439 213.158 424.439 213.154 424.439C213.149 424.439 213.145 424.439 213.14 424.439C213.136 424.439 213.131 424.439 213.127 424.439C213.122 424.439 213.118 424.439 213.113 424.439C213.109 424.439 213.104 424.439 213.1 424.439C213.095 424.439 213.091 424.439 213.086 424.439C213.082 424.439 213.077 424.439 213.073 424.439C213.068 424.439 213.064 424.439 213.059 424.439C213.055 424.439 213.05 424.439 213.046 424.439C213.041 424.439 213.037 424.439 213.032 424.439C213.028 424.439 213.023 424.439 213.019 424.439C213.014 424.439 213.009 424.439 213.005 424.439C213 424.439 212.996 424.439 212.991 424.439C212.987 424.439 212.982 424.439 212.978 424.439C212.973 424.439 212.969 424.439 212.964 424.439C212.959 424.439 212.955 424.439 212.95 424.439C212.946 424.439 212.941 424.439 212.937 424.439C212.932 424.439 212.927 424.439 212.923 424.439C212.918 424.439 212.914 424.439 212.909 424.439C212.904 424.439 212.9 424.439 212.895 424.439C212.891 424.439 212.886 424.439 212.881 424.439C212.877 424.439 212.872 424.439 212.868 424.439C212.863 424.439 212.858 424.439 212.854 424.439C212.849 424.439 212.844 424.439 212.84 424.439C212.835 424.439 212.831 424.439 212.826 424.439C212.821 424.439 212.817 424.439 212.812 424.439C212.807 424.439 212.803 424.439 212.798 424.439C212.793 424.439 212.789 424.439 212.784 424.439C212.779 424.439 212.775 424.439 212.77 424.439C212.765 424.439 212.761 424.439 212.756 424.439C212.751 424.439 212.747 424.439 212.742 424.439C212.737 424.439 212.733 424.439 212.728 424.439C212.723 424.439 212.719 424.439 212.714 424.439C212.709 424.439 212.705 424.439 212.7 424.439C212.695 424.439 212.691 424.439 212.686 424.439C212.681 424.439 212.676 424.439 212.672 424.439C212.667 424.439 212.662 424.439 212.658 424.439C212.653 424.439 212.648 424.439 212.643 424.439C212.639 424.439 212.634 424.439 212.629 424.439C212.625 424.439 212.62 424.439 212.615 424.439C212.61 424.439 212.606 424.439 212.601 424.439C212.596 424.439 212.591 424.439 212.587 424.439C212.582 424.439 212.577 424.439 212.572 424.439C212.568 424.439 212.563 424.439 212.558 424.439C212.553 424.439 212.549 424.439 212.544 424.439C212.539 424.439 212.534 424.439 212.529 424.439C212.525 424.439 212.52 424.439 212.515 424.439C212.51 424.439 212.506 424.439 212.501 424.439C212.496 424.439 212.491 424.439 212.486 424.439C212.482 424.439 212.477 424.439 212.472 424.439C212.467 424.439 212.462 424.439 212.458 424.439C212.453 424.439 212.448 424.439 212.443 424.439C212.438 424.439 212.433 424.439 212.429 424.439C212.424 424.439 212.419 424.439 212.414 424.439C212.409 424.439 212.404 424.439 212.4 424.439C212.395 424.439 212.39 424.439 212.385 424.439C212.38 424.439 212.375 424.439 212.371 424.439C212.366 424.439 212.361 424.439 212.356 424.439C212.351 424.439 212.346 424.439 212.341 424.439C212.336 424.439 212.332 424.439 212.327 424.439C212.322 424.439 212.317 424.439 212.312 424.439C212.307 424.439 212.302 424.439 212.297 424.439C212.293 424.439 212.288 424.439 212.283 424.439C212.278 424.439 212.273 424.439 212.268 424.439C212.263 424.439 212.258 424.439 212.253 424.439C212.248 424.439 212.244 424.439 212.239 424.439C212.234 424.439 212.229 424.439 212.224 424.439C212.219 424.439 212.214 424.439 212.209 424.439C212.204 424.439 212.199 424.439 212.194 424.439C212.189 424.439 212.184 424.439 212.179 424.439C212.175 424.439 212.17 424.439 212.165 424.439C212.16 424.439 212.155 424.439 212.15 424.439C212.145 424.439 212.14 424.439 212.135 424.439C212.13 424.439 212.125 424.439 212.12 424.439C212.115 424.439 212.11 424.439 212.105 424.439C212.1 424.439 212.095 424.439 212.09 424.439C212.085 424.439 212.08 424.439 212.075 424.439C212.07 424.439 212.065 424.439 212.06 424.439C212.055 424.439 212.05 424.439 212.045 424.439V428.072V431.704C212.05 431.704 212.055 431.704 212.06 431.704C212.065 431.704 212.07 431.704 212.075 431.704C212.08 431.704 212.085 431.704 212.09 431.704C212.095 431.704 212.1 431.704 212.105 431.704C212.11 431.704 212.115 431.704 212.12 431.704C212.125 431.704 212.13 431.704 212.135 431.704C212.14 431.704 212.145 431.704 212.15 431.704C212.155 431.704 212.16 431.704 212.165 431.704C212.17 431.704 212.175 431.704 212.179 431.704C212.184 431.704 212.189 431.704 212.194 431.704C212.199 431.704 212.204 431.704 212.209 431.704C212.214 431.704 212.219 431.704 212.224 431.704C212.229 431.704 212.234 431.704 212.239 431.704C212.244 431.704 212.248 431.704 212.253 431.704C212.258 431.704 212.263 431.704 212.268 431.704C212.273 431.704 212.278 431.704 212.283 431.704C212.288 431.704 212.293 431.704 212.297 431.704C212.302 431.704 212.307 431.704 212.312 431.704C212.317 431.704 212.322 431.704 212.327 431.704C212.332 431.704 212.336 431.704 212.341 431.704C212.346 431.704 212.351 431.704 212.356 431.704C212.361 431.704 212.366 431.704 212.371 431.704C212.375 431.704 212.38 431.704 212.385 431.704C212.39 431.704 212.395 431.704 212.4 431.704C212.404 431.704 212.409 431.704 212.414 431.704C212.419 431.704 212.424 431.704 212.429 431.704C212.433 431.704 212.438 431.704 212.443 431.704C212.448 431.704 212.453 431.704 212.458 431.704C212.462 431.704 212.467 431.704 212.472 431.704C212.477 431.704 212.482 431.704 212.486 431.704C212.491 431.704 212.496 431.704 212.501 431.704C212.506 431.704 212.51 431.704 212.515 431.704C212.52 431.704 212.525 431.704 212.529 431.704C212.534 431.704 212.539 431.704 212.544 431.704C212.549 431.704 212.553 431.704 212.558 431.704C212.563 431.704 212.568 431.704 212.572 431.704C212.577 431.704 212.582 431.704 212.587 431.704C212.591 431.704 212.596 431.704 212.601 431.704C212.606 431.704 212.61 431.704 212.615 431.704C212.62 431.704 212.625 431.704 212.629 431.704C212.634 431.704 212.639 431.704 212.643 431.704C212.648 431.704 212.653 431.704 212.658 431.704C212.662 431.704 212.667 431.704 212.672 431.704C212.676 431.704 212.681 431.704 212.686 431.704C212.691 431.704 212.695 431.704 212.7 431.704C212.705 431.704 212.709 431.704 212.714 431.704C212.719 431.704 212.723 431.704 212.728 431.704C212.733 431.704 212.737 431.704 212.742 431.704C212.747 431.704 212.751 431.704 212.756 431.704C212.761 431.704 212.765 431.704 212.77 431.704C212.775 431.704 212.779 431.704 212.784 431.704C212.789 431.704 212.793 431.704 212.798 431.704C212.803 431.704 212.807 431.704 212.812 431.704C212.817 431.704 212.821 431.704 212.826 431.704C212.831 431.704 212.835 431.704 212.84 431.704C212.844 431.704 212.849 431.704 212.854 431.704C212.858 431.704 212.863 431.704 212.868 431.704C212.872 431.704 212.877 431.704 212.881 431.704C212.886 431.704 212.891 431.704 212.895 431.704C212.9 431.704 212.904 431.704 212.909 431.704C212.914 431.704 212.918 431.704 212.923 431.704C212.927 431.704 212.932 431.704 212.937 431.704C212.941 431.704 212.946 431.704 212.95 431.704C212.955 431.704 212.959 431.704 212.964 431.704C212.969 431.704 212.973 431.704 212.978 431.704C212.982 431.704 212.987 431.704 212.991 431.704C212.996 431.704 213 431.704 213.005 431.704C213.009 431.704 213.014 431.704 213.019 431.704C213.023 431.704 213.028 431.704 213.032 431.704C213.037 431.704 213.041 431.704 213.046 431.704C213.05 431.704 213.055 431.704 213.059 431.704C213.064 431.704 213.068 431.704 213.073 431.704C213.077 431.704 213.082 431.704 213.086 431.704C213.091 431.704 213.095 431.704 213.1 431.704C213.104 431.704 213.109 431.704 213.113 431.704C213.118 431.704 213.122 431.704 213.127 431.704C213.131 431.704 213.136 431.704 213.14 431.704C213.145 431.704 213.149 431.704 213.154 431.704C213.158 431.704 213.163 431.704 213.167 431.704C213.172 431.704 213.176 431.704 213.18 431.704C213.185 431.704 213.189 431.704 213.194 431.704C213.198 431.704 213.203 431.704 213.207 431.704C213.212 431.704 213.216 431.704 213.221 431.704C213.225 431.704 213.229 431.704 213.234 431.704C213.238 431.704 213.243 431.704 213.247 431.704C213.252 431.704 213.256 431.704 213.26 431.704C213.265 431.704 213.269 431.704 213.274 431.704C213.278 431.704 213.282 431.704 213.287 431.704C213.291 431.704 213.296 431.704 213.3 431.704C213.304 431.704 213.309 431.704 213.313 431.704C213.318 431.704 213.322 431.704 213.326 431.704C213.331 431.704 213.335 431.704 213.339 431.704C213.344 431.704 213.348 431.704 213.353 431.704C213.357 431.704 213.361 431.704 213.366 431.704C213.37 431.704 213.374 431.704 213.379 431.704C213.383 431.704 213.387 431.704 213.392 431.704C213.396 431.704 213.4 431.704 213.405 431.704C213.409 431.704 213.413 431.704 213.418 431.704C213.422 431.704 213.426 431.704 213.431 431.704C213.435 431.704 213.439 431.704 213.444 431.704C213.448 431.704 213.452 431.704 213.457 431.704C213.461 431.704 213.465 431.704 213.47 431.704C213.474 431.704 213.478 431.704 213.483 431.704C213.487 431.704 213.491 431.704 213.495 431.704C213.5 431.704 213.504 431.704 213.508 431.704C213.513 431.704 213.517 431.704 213.521 431.704C213.525 431.704 213.53 431.704 213.534 431.704C213.538 431.704 213.543 431.704 213.547 431.704C213.551 431.704 213.555 431.704 213.56 431.704C213.564 431.704 213.568 431.704 213.572 431.704C213.577 431.704 213.581 431.704 213.585 431.704C213.589 431.704 213.594 431.704 213.598 431.704C213.602 431.704 213.606 431.704 213.611 431.704C213.615 431.704 213.619 431.704 213.623 431.704C213.627 431.704 213.632 431.704 213.636 431.704C213.64 431.704 213.644 431.704 213.649 431.704C213.653 431.704 213.657 431.704 213.661 431.704C213.665 431.704 213.67 431.704 213.674 431.704C213.678 431.704 213.682 431.704 213.686 431.704C213.69 431.704 213.695 431.704 213.699 431.704C213.703 431.704 213.707 431.704 213.711 431.704C213.716 431.704 213.72 431.704 213.724 431.704C213.728 431.704 213.732 431.704 213.736 431.704C213.741 431.704 213.745 431.704 213.749 431.704C213.753 431.704 213.757 431.704 213.761 431.704C213.765 431.704 213.77 431.704 213.774 431.704C213.778 431.704 213.782 431.704 213.786 431.704C213.79 431.704 213.794 431.704 213.799 431.704C213.803 431.704 213.807 431.704 213.811 431.704C213.815 431.704 213.819 431.704 213.823 431.704C213.827 431.704 213.832 431.704 213.836 431.704C213.84 431.704 213.844 431.704 213.848 431.704C213.852 431.704 213.856 431.704 213.86 431.704C213.864 431.704 213.868 431.704 213.873 431.704C213.877 431.704 213.881 431.704 213.885 431.704C213.889 431.704 213.893 431.704 213.897 431.704C213.901 431.704 213.905 431.704 213.909 431.704C213.913 431.704 213.917 431.704 213.921 431.704C213.925 431.704 213.93 431.704 213.934 431.704C213.938 431.704 213.942 431.704 213.946 431.704C213.95 431.704 213.954 431.704 213.958 431.704C213.962 431.704 213.966 431.704 213.97 431.704C213.974 431.704 213.978 431.704 213.982 431.704C213.986 431.704 213.99 431.704 213.994 431.704C213.998 431.704 214.002 431.704 214.006 431.704C214.01 431.704 214.014 431.704 214.018 431.704C214.022 431.704 214.026 431.704 214.03 431.704C214.034 431.704 214.038 431.704 214.042 431.704C214.046 431.704 214.05 431.704 214.054 431.704C214.058 431.704 214.062 431.704 214.066 431.704C214.07 431.704 214.074 431.704 214.078 431.704C214.082 431.704 214.086 431.704 214.09 431.704C214.094 431.704 214.098 431.704 214.102 431.704C214.106 431.704 214.11 431.704 214.114 431.704C214.118 431.704 214.122 431.704 214.126 431.704C214.129 431.704 214.133 431.704 214.137 431.704C214.141 431.704 214.145 431.704 214.149 431.704C214.153 431.704 214.157 431.704 214.161 431.704C214.165 431.704 214.169 431.704 214.173 431.704C214.177 431.704 214.18 431.704 214.184 431.704C214.188 431.704 214.192 431.704 214.196 431.704C214.2 431.704 214.204 431.704 214.208 431.704C214.212 431.704 214.216 431.704 214.219 431.704C214.223 431.704 214.227 431.704 214.231 431.704C214.235 431.704 214.239 431.704 214.243 431.704C214.247 431.704 214.251 431.704 214.254 431.704C214.258 431.704 214.262 431.704 214.266 431.704C214.27 431.704 214.274 431.704 214.278 431.704C214.281 431.704 214.285 431.704 214.289 431.704C214.293 431.704 214.297 431.704 214.301 431.704C214.304 431.704 214.308 431.704 214.312 431.704C214.316 431.704 214.32 431.704 214.324 431.704C214.327 431.704 214.331 431.704 214.335 431.704C214.339 431.704 214.343 431.704 214.347 431.704C214.35 431.704 214.354 431.704 214.358 431.704C214.362 431.704 214.366 431.704 214.369 431.704C214.373 431.704 214.377 431.704 214.381 431.704C214.385 431.704 214.388 431.704 214.392 431.704C214.396 431.704 214.4 431.704 214.404 431.704C214.407 431.704 214.411 431.704 214.415 431.704C214.419 431.704 214.422 431.704 214.426 431.704C214.43 431.704 214.434 431.704 214.437 431.704C214.441 431.704 214.445 431.704 214.449 431.704C214.452 431.704 214.456 431.704 214.46 431.704C214.464 431.704 214.467 431.704 214.471 431.704C214.475 431.704 214.479 431.704 214.482 431.704C214.486 431.704 214.49 431.704 214.494 431.704C214.497 431.704 214.501 431.704 214.505 431.704C214.508 431.704 214.512 431.704 214.516 431.704C214.52 431.704 214.523 431.704 214.527 431.704C214.531 431.704 214.534 431.704 214.538 431.704C214.542 431.704 214.545 431.704 214.549 431.704C214.553 431.704 214.557 431.704 214.56 431.704C214.564 431.704 214.568 431.704 214.571 431.704C214.575 431.704 214.579 431.704 214.582 431.704C214.586 431.704 214.59 431.704 214.593 431.704C214.597 431.704 214.601 431.704 214.604 431.704C214.608 431.704 214.612 431.704 214.615 431.704C214.619 431.704 214.623 431.704 214.626 431.704C214.63 431.704 214.633 431.704 214.637 431.704C214.641 431.704 214.644 431.704 214.648 431.704C214.652 431.704 214.655 431.704 214.659 431.704C214.662 431.704 214.666 431.704 214.67 431.704C214.673 431.704 214.677 431.704 214.681 431.704C214.684 431.704 214.688 431.704 214.691 431.704C214.695 431.704 214.699 431.704 214.702 431.704C214.706 431.704 214.709 431.704 214.713 431.704C214.717 431.704 214.72 431.704 214.724 431.704C214.727 431.704 214.731 431.704 214.734 431.704C214.738 431.704 214.742 431.704 214.745 431.704C214.749 431.704 214.752 431.704 214.756 431.704C214.759 431.704 214.763 431.704 214.767 431.704C214.77 431.704 214.774 431.704 214.777 431.704C214.781 431.704 214.784 431.704 214.788 431.704C214.791 431.704 214.795 431.704 214.798 431.704C214.802 431.704 214.805 431.704 214.809 431.704C214.813 431.704 214.816 431.704 214.82 431.704C214.823 431.704 214.827 431.704 214.83 431.704C214.834 431.704 214.837 431.704 214.841 431.704C214.844 431.704 214.848 431.704 214.851 431.704C214.855 431.704 214.858 431.704 214.862 431.704C214.865 431.704 214.869 431.704 214.872 431.704C214.876 431.704 214.879 431.704 214.883 431.704C214.886 431.704 214.889 431.704 214.893 431.704C214.896 431.704 214.9 431.704 214.903 431.704C214.907 431.704 214.91 431.704 214.914 431.704C214.917 431.704 214.921 431.704 214.924 431.704C214.928 431.704 214.931 431.704 214.934 431.704C214.938 431.704 214.941 431.704 214.945 431.704C214.948 431.704 214.952 431.704 214.955 431.704C214.959 431.704 214.962 431.704 214.965 431.704C214.969 431.704 214.972 431.704 214.976 431.704C214.979 431.704 214.982 431.704 214.986 431.704C214.989 431.704 214.993 431.704 214.996 431.704C214.999 431.704 215.003 431.704 215.006 431.704C215.01 431.704 215.013 431.704 215.016 431.704C215.02 431.704 215.023 431.704 215.027 431.704C215.03 431.704 215.033 431.704 215.037 431.704C215.04 431.704 215.043 431.704 215.047 431.704C215.05 431.704 215.054 431.704 215.057 431.704C215.06 431.704 215.064 431.704 215.067 431.704C215.07 431.704 215.074 431.704 215.077 431.704C215.08 431.704 215.084 431.704 215.087 431.704C215.09 431.704 215.094 431.704 215.097 431.704C215.1 431.704 215.104 431.704 215.107 431.704C215.11 431.704 215.114 431.704 215.117 431.704C215.12 431.704 215.124 431.704 215.127 431.704C215.13 431.704 215.134 431.704 215.137 431.704C215.14 431.704 215.144 431.704 215.147 431.704C215.15 431.704 215.153 431.704 215.157 431.704C215.16 431.704 215.163 431.704 215.167 431.704C215.17 431.704 215.173 431.704 215.177 431.704C215.18 431.704 215.183 431.704 215.186 431.704C215.19 431.704 215.193 431.704 215.196 431.704C215.199 431.704 215.203 431.704 215.206 431.704C215.209 431.704 215.212 431.704 215.216 431.704C215.219 431.704 215.222 431.704 215.225 431.704C215.229 431.704 215.232 431.704 215.235 431.704C215.238 431.704 215.242 431.704 215.245 431.704C215.248 431.704 215.251 431.704 215.255 431.704C215.258 431.704 215.261 431.704 215.264 431.704C215.267 431.704 215.271 431.704 215.274 431.704C215.277 431.704 215.28 431.704 215.284 431.704C215.287 431.704 215.29 431.704 215.293 431.704C215.296 431.704 215.3 431.704 215.303 431.704C215.306 431.704 215.309 431.704 215.312 431.704C215.315 431.704 215.319 431.704 215.322 431.704C215.325 431.704 215.328 431.704 215.331 431.704C215.334 431.704 215.338 431.704 215.341 431.704C215.344 431.704 215.347 431.704 215.35 431.704C215.353 431.704 215.357 431.704 215.36 431.704C215.363 431.704 215.366 431.704 215.369 431.704C215.372 431.704 215.375 431.704 215.379 431.704C215.382 431.704 215.385 431.704 215.388 431.704C215.391 431.704 215.394 431.704 215.397 431.704C215.401 431.704 215.404 431.704 215.407 431.704C215.41 431.704 215.413 431.704 215.416 431.704C215.419 431.704 215.422 431.704 215.425 431.704C215.429 431.704 215.432 431.704 215.435 431.704C215.438 431.704 215.441 431.704 215.444 431.704C215.447 431.704 215.45 431.704 215.453 431.704C215.456 431.704 215.459 431.704 215.462 431.704C215.466 431.704 215.469 431.704 215.472 431.704C215.475 431.704 215.478 431.704 215.481 431.704C215.484 431.704 215.487 431.704 215.49 431.704C215.493 431.704 215.496 431.704 215.499 431.704C215.502 431.704 215.505 431.704 215.508 431.704C215.511 431.704 215.514 431.704 215.517 431.704C215.52 431.704 215.524 431.704 215.527 431.704C215.53 431.704 215.533 431.704 215.536 431.704C215.539 431.704 215.542 431.704 215.545 431.704C215.548 431.704 215.551 431.704 215.554 431.704C215.557 431.704 215.56 431.704 215.563 431.704C215.566 431.704 215.569 431.704 215.572 431.704C215.575 431.704 215.578 431.704 215.581 431.704C215.584 431.704 215.587 431.704 215.59 431.704C215.593 431.704 215.596 431.704 215.599 431.704C215.601 431.704 215.604 431.704 215.607 431.704C215.61 431.704 215.613 431.704 215.616 431.704C215.619 431.704 215.622 431.704 215.625 431.704C215.628 431.704 215.631 431.704 215.634 431.704C215.637 431.704 215.64 431.704 215.643 431.704C215.646 431.704 215.649 431.704 215.652 431.704C215.655 431.704 215.658 431.704 215.66 431.704C215.663 431.704 215.666 431.704 215.669 431.704C215.672 431.704 215.675 431.704 215.678 431.704C215.681 431.704 215.684 431.704 215.687 431.704C215.69 431.704 215.692 431.704 215.695 431.704C215.698 431.704 215.701 431.704 215.704 431.704C215.707 431.704 215.71 431.704 215.713 431.704C215.716 431.704 215.718 431.704 215.721 431.704C215.724 431.704 215.727 431.704 215.73 431.704C215.733 431.704 215.736 431.704 215.739 431.704C215.741 431.704 215.744 431.704 215.747 431.704C215.75 431.704 215.753 431.704 215.756 431.704C215.759 431.704 215.761 431.704 215.764 431.704C215.767 431.704 215.77 431.704 215.773 431.704C215.776 431.704 215.778 431.704 215.781 431.704C215.784 431.704 215.787 431.704 215.79 431.704C215.793 431.704 215.795 431.704 215.798 431.704C215.801 431.704 215.804 431.704 215.807 431.704C215.809 431.704 215.812 431.704 215.815 431.704C215.818 431.704 215.821 431.704 215.823 431.704C215.826 431.704 215.829 431.704 215.832 431.704C215.835 431.704 215.837 431.704 215.84 431.704C215.843 431.704 215.846 431.704 215.848 431.704C215.851 431.704 215.854 431.704 215.857 431.704C215.86 431.704 215.862 431.704 215.865 431.704C215.868 431.704 215.871 431.704 215.873 431.704C215.876 431.704 215.879 431.704 215.882 431.704C215.884 431.704 215.887 431.704 215.89 431.704C215.893 431.704 215.895 431.704 215.898 431.704C215.901 431.704 215.903 431.704 215.906 431.704C215.909 431.704 215.912 431.704 215.914 431.704C215.917 431.704 215.92 431.704 215.923 431.704C215.925 431.704 215.928 431.704 215.931 431.704C215.933 431.704 215.936 431.704 215.939 431.704C215.941 431.704 215.944 431.704 215.947 431.704C215.95 431.704 215.952 431.704 215.955 431.704C215.958 431.704 215.96 431.704 215.963 431.704C215.966 431.704 215.968 431.704 215.971 431.704C215.974 431.704 215.976 431.704 215.979 431.704C215.982 431.704 215.984 431.704 215.987 431.704C215.99 431.704 215.992 431.704 215.995 431.704C215.998 431.704 216 431.704 216.003 431.704C216.005 431.704 216.008 431.704 216.011 431.704C216.013 431.704 216.016 431.704 216.019 431.704C216.021 431.704 216.024 431.704 216.027 431.704C216.029 431.704 216.032 431.704 216.034 431.704C216.037 431.704 216.04 431.704 216.042 431.704C216.045 431.704 216.047 431.704 216.05 431.704C216.053 431.704 216.055 431.704 216.058 431.704C216.06 431.704 216.063 431.704 216.066 431.704C216.068 431.704 216.071 431.704 216.073 431.704C216.076 431.704 216.079 431.704 216.081 431.704C216.084 431.704 216.086 431.704 216.089 431.704C216.091 431.704 216.094 431.704 216.097 431.704C216.099 431.704 216.102 431.704 216.104 431.704C216.107 431.704 216.109 431.704 216.112 431.704C216.114 431.704 216.117 431.704 216.12 431.704C216.122 431.704 216.125 431.704 216.127 431.704C216.13 431.704 216.132 431.704 216.135 431.704C216.137 431.704 216.14 431.704 216.142 431.704C216.145 431.704 216.147 431.704 216.15 431.704C216.152 431.704 216.155 431.704 216.157 431.704C216.16 431.704 216.162 431.704 216.165 431.704C216.167 431.704 216.17 431.704 216.172 431.704C216.175 431.704 216.177 431.704 216.18 431.704C216.182 431.704 216.185 431.704 216.187 431.704C216.19 431.704 216.192 431.704 216.195 431.704C216.197 431.704 216.2 431.704 216.202 431.704C216.205 431.704 216.207 431.704 216.21 431.704C216.212 431.704 216.214 431.704 216.217 431.704C216.219 431.704 216.222 431.704 216.224 431.704C216.227 431.704 216.229 431.704 216.232 431.704C216.234 431.704 216.236 431.704 216.239 431.704C216.241 431.704 216.244 431.704 216.246 431.704C216.249 431.704 216.251 431.704 216.253 431.704C216.256 431.704 216.258 431.704 216.261 431.704C216.263 431.704 216.265 431.704 216.268 431.704C216.27 431.704 216.273 431.704 216.275 431.704C216.277 431.704 216.28 431.704 216.282 431.704C216.285 431.704 216.287 431.704 216.289 431.704C216.292 431.704 216.294 431.704 216.297 431.704C216.299 431.704 216.301 431.704 216.304 431.704C216.306 431.704 216.308 431.704 216.311 431.704C216.313 431.704 216.315 431.704 216.318 431.704C216.32 431.704 216.323 431.704 216.325 431.704C216.327 431.704 216.33 431.704 216.332 431.704C216.334 431.704 216.337 431.704 216.339 431.704C216.341 431.704 216.344 431.704 216.346 431.704C216.348 431.704 216.351 431.704 216.353 431.704C216.355 431.704 216.358 431.704 216.36 431.704C216.362 431.704 216.365 431.704 216.367 431.704C216.369 431.704 216.371 431.704 216.374 431.704C216.376 431.704 216.378 431.704 216.381 431.704C216.383 431.704 216.385 431.704 216.388 431.704C216.39 431.704 216.392 431.704 216.394 431.704C216.397 431.704 216.399 431.704 216.401 431.704C216.403 431.704 216.406 431.704 216.408 431.704C216.41 431.704 216.413 431.704 216.415 431.704C216.417 431.704 216.419 431.704 216.422 431.704C216.424 431.704 216.426 431.704 216.428 431.704C216.431 431.704 216.433 431.704 216.435 431.704C216.437 431.704 216.44 431.704 216.442 431.704C216.444 431.704 216.446 431.704 216.448 431.704C216.451 431.704 216.453 431.704 216.455 431.704C216.457 431.704 216.46 431.704 216.462 431.704C216.464 431.704 216.466 431.704 216.468 431.704C216.471 431.704 216.473 431.704 216.475 431.704C216.477 431.704 216.479 431.704 216.482 431.704C216.484 431.704 216.486 431.704 216.488 431.704C216.49 431.704 216.493 431.704 216.495 431.704C216.497 431.704 216.499 431.704 216.501 431.704C216.503 431.704 216.506 431.704 216.508 431.704C216.51 431.704 216.512 431.704 216.514 431.704C216.516 431.704 216.519 431.704 216.521 431.704C216.523 431.704 216.525 431.704 216.527 431.704C216.529 431.704 216.531 431.704 216.534 431.704C216.536 431.704 216.538 431.704 216.54 431.704C216.542 431.704 216.544 431.704 216.546 431.704C216.548 431.704 216.551 431.704 216.553 431.704C216.555 431.704 216.557 431.704 216.559 431.704C216.561 431.704 216.563 431.704 216.565 431.704C216.567 431.704 216.57 431.704 216.572 431.704C216.574 431.704 216.576 431.704 216.578 431.704C216.58 431.704 216.582 431.704 216.584 431.704C216.586 431.704 216.588 431.704 216.59 431.704C216.593 431.704 216.595 431.704 216.597 431.704C216.599 431.704 216.601 431.704 216.603 431.704C216.605 431.704 216.607 431.704 216.609 431.704C216.611 431.704 216.613 431.704 216.615 431.704C216.617 431.704 216.619 431.704 216.621 431.704C216.623 431.704 216.625 431.704 216.627 431.704C216.629 431.704 216.631 431.704 216.634 431.704C216.636 431.704 216.638 431.704 216.64 431.704C216.642 431.704 216.644 431.704 216.646 431.704C216.648 431.704 216.65 431.704 216.652 431.704C216.654 431.704 216.656 431.704 216.658 431.704C216.66 431.704 216.662 431.704 216.664 431.704C216.666 431.704 216.668 431.704 216.67 431.704C216.672 431.704 216.674 431.704 216.676 431.704C216.678 431.704 216.68 431.704 216.682 431.704C216.684 431.704 216.685 431.704 216.687 431.704C216.689 431.704 216.691 431.704 216.693 431.704C216.695 431.704 216.697 431.704 216.699 431.704C216.701 431.704 216.703 431.704 216.705 431.704C216.707 431.704 216.709 431.704 216.711 431.704C216.713 431.704 216.715 431.704 216.717 431.704C216.719 431.704 216.721 431.704 216.722 431.704C216.724 431.704 216.726 431.704 216.728 431.704C216.73 431.704 216.732 431.704 216.734 431.704C216.736 431.704 216.738 431.704 216.74 431.704C216.742 431.704 216.744 431.704 216.745 431.704C216.747 431.704 216.749 431.704 216.751 431.704C216.753 431.704 216.755 431.704 216.757 431.704C216.759 431.704 216.761 431.704 216.762 431.704C216.764 431.704 216.766 431.704 216.768 431.704C216.77 431.704 216.772 431.704 216.774 431.704C216.775 431.704 216.777 431.704 216.779 431.704C216.781 431.704 216.783 431.704 216.785 431.704C216.787 431.704 216.788 431.704 216.79 431.704C216.792 431.704 216.794 431.704 216.796 431.704C216.798 431.704 216.799 431.704 216.801 431.704C216.803 431.704 216.805 431.704 216.807 431.704C216.809 431.704 216.81 431.704 216.812 431.704C216.814 431.704 216.816 431.704 216.818 431.704C216.82 431.704 216.821 431.704 216.823 431.704C216.825 431.704 216.827 431.704 216.829 431.704C216.83 431.704 216.832 431.704 216.834 431.704C216.836 431.704 216.837 431.704 216.839 431.704C216.841 431.704 216.843 431.704 216.845 431.704C216.846 431.704 216.848 431.704 216.85 431.704C216.852 431.704 216.853 431.704 216.855 431.704C216.857 431.704 216.859 431.704 216.86 431.704C216.862 431.704 216.864 431.704 216.866 431.704C216.867 431.704 216.869 431.704 216.871 431.704C216.873 431.704 216.874 431.704 216.876 431.704C216.878 431.704 216.88 431.704 216.881 431.704C216.883 431.704 216.885 431.704 216.887 431.704C216.888 431.704 216.89 431.704 216.892 431.704C216.893 431.704 216.895 431.704 216.897 431.704C216.899 431.704 216.9 431.704 216.902 431.704C216.904 431.704 216.905 431.704 216.907 431.704C216.909 431.704 216.91 431.704 216.912 431.704C216.914 431.704 216.915 431.704 216.917 431.704C216.919 431.704 216.92 431.704 216.922 431.704C216.924 431.704 216.925 431.704 216.927 431.704C216.929 431.704 216.93 431.704 216.932 431.704C216.934 431.704 216.935 431.704 216.937 431.704C216.939 431.704 216.94 431.704 216.942 431.704C216.944 431.704 216.945 431.704 216.947 431.704C216.949 431.704 216.95 431.704 216.952 431.704C216.953 431.704 216.955 431.704 216.957 431.704C216.958 431.704 216.96 431.704 216.962 431.704C216.963 431.704 216.965 431.704 216.966 431.704C216.968 431.704 216.97 431.704 216.971 431.704C216.973 431.704 216.974 431.704 216.976 431.704C216.978 431.704 216.979 431.704 216.981 431.704C216.982 431.704 216.984 431.704 216.986 431.704C216.987 431.704 216.989 431.704 216.99 431.704C216.992 431.704 216.994 431.704 216.995 431.704C216.997 431.704 216.998 431.704 217 431.704C217.001 431.704 217.003 431.704 217.004 431.704C217.006 431.704 217.008 431.704 217.009 431.704C217.011 431.704 217.012 431.704 217.014 431.704C217.015 431.704 217.017 431.704 217.018 431.704C217.02 431.704 217.021 431.704 217.023 431.704C217.024 431.704 217.026 431.704 217.028 431.704C217.029 431.704 217.031 431.704 217.032 431.704C217.034 431.704 217.035 431.704 217.037 431.704C217.038 431.704 217.04 431.704 217.041 431.704V428.072ZM212.045 428.072V424.439C210.013 424.439 208.437 423.733 207.074 422.2L204.359 424.613L201.644 427.026C204.38 430.105 207.929 431.704 212.045 431.704V428.072ZM204.359 424.613L206.928 422.044C205.538 420.654 204.917 419.136 204.917 417.311H201.285H197.652C197.652 421.123 199.082 424.473 201.791 427.182L204.359 424.613ZM201.285 417.311L204.917 417.355C205.17 396.118 208.078 378.377 213.52 364.029L210.124 362.741L206.727 361.452C200.897 376.823 197.912 395.463 197.653 417.268L201.285 417.311ZM210.124 362.741L213.5 364.08C219.195 349.72 227.999 336.552 239.978 324.573L237.409 322.005L234.841 319.436C222.224 332.053 212.838 346.042 206.747 361.402L210.124 362.741ZM237.409 322.005L239.978 324.573C247.229 317.322 255.234 310.816 263.999 305.057L262.004 302.021L260.009 298.985C250.84 305.011 242.449 311.828 234.841 319.436L237.409 322.005ZM262.004 302.021L264.059 305.017C273.006 298.881 281.954 292.874 290.9 286.995L288.905 283.959L286.911 280.923C277.923 286.829 268.936 292.863 259.95 299.025L262.004 302.021ZM288.905 283.959L290.804 287.056C298.776 282.17 306.492 277.283 313.954 272.394L311.963 269.355L309.973 266.317C302.575 271.164 294.92 276.012 287.007 280.862L288.905 283.959ZM311.963 269.355L314.026 272.346C321.589 267.129 328.276 261.758 334.071 256.227L331.563 253.599L329.055 250.971C323.577 256.2 317.197 261.333 309.901 266.365L311.963 269.355ZM331.563 253.599L334.071 256.227C339.927 250.637 344.645 244.723 348.176 238.477L345.013 236.69L341.851 234.902C338.72 240.442 334.471 245.801 329.055 250.971L331.563 253.599ZM345.013 236.69L348.151 238.52C352.052 231.833 354.026 224.67 354.026 217.09H350.394H346.761C346.761 223.345 345.148 229.249 341.876 234.86L345.013 236.69ZM350.394 217.09H354.026C354.026 209.285 353.636 201.971 352.849 195.153L349.241 195.57L345.632 195.986C346.383 202.491 346.761 209.524 346.761 217.09H350.394ZM349.241 195.57L352.851 195.168C352.04 187.873 350.143 181.071 347.138 174.787L343.86 176.355L340.583 177.922C343.215 183.424 344.904 189.431 345.63 195.971L349.241 195.57ZM343.86 176.355L347.138 174.787C344.064 168.36 339.48 162.697 333.479 157.787L331.179 160.598L328.878 163.41C334.149 167.722 338.021 172.563 340.583 177.922L343.86 176.355ZM331.179 160.598L333.479 157.787C327.411 152.823 319.183 148.55 308.963 144.882L307.736 148.301L306.509 151.72C316.273 155.225 323.673 159.151 328.878 163.41L331.179 160.598ZM307.736 148.301L308.978 144.887C303.208 142.789 298.001 141.312 293.38 140.496L292.748 144.073L292.117 147.651C296.206 148.372 300.992 149.713 306.495 151.714L307.736 148.301ZM292.748 144.073L293.629 140.549C289.27 139.459 285.003 138.904 280.835 138.904V142.536V146.169C284.353 146.169 288.028 146.638 291.867 147.597L292.748 144.073ZM280.835 142.536V138.904C275.108 138.904 269.162 139.722 263.009 141.327L263.926 144.842L264.843 148.357C270.475 146.888 275.802 146.169 280.835 146.169V142.536ZM263.926 144.842L263.009 141.327C257.036 142.885 249.544 145.082 240.547 147.91L241.636 151.375L242.726 154.84C251.663 152.032 259.03 149.873 264.843 148.357L263.926 144.842ZM241.636 151.375L240.529 147.915C233.625 150.125 227.728 153.613 222.927 158.414L225.496 160.983L228.064 163.551C231.974 159.642 236.838 156.724 242.744 154.835L241.636 151.375ZM225.496 160.983L223.006 158.337C218.469 162.607 214.685 167.056 211.686 171.691L214.735 173.664L217.785 175.638C220.422 171.562 223.811 167.556 227.985 163.628L225.496 160.983ZM214.735 173.664L211.69 171.685C208.22 177.023 205.29 182.752 202.898 188.866L206.281 190.189L209.663 191.513C211.883 185.842 214.589 180.554 217.781 175.644L214.735 173.664ZM206.281 190.189L202.852 188.989C202.233 190.759 201.235 191.908 199.84 192.665C198.355 193.471 196.149 193.975 192.96 193.861L192.83 197.491L192.701 201.121C196.685 201.264 200.307 200.678 203.306 199.05C206.395 197.374 208.535 194.743 209.709 191.389L206.281 190.189ZM192.83 197.491L193.979 194.045C192.413 193.523 191.091 192.577 189.972 191.084L187.066 193.264L184.16 195.443C186.115 198.05 188.636 199.922 191.681 200.937L192.83 197.491ZM187.066 193.264L190.241 191.5C189.48 190.131 189.058 187.938 189.513 184.521L185.913 184.041L182.312 183.561C181.743 187.83 182.089 191.785 183.89 195.028L187.066 193.264ZM185.913 184.041H189.545C189.545 184.387 189.486 184.609 189.503 184.529C189.507 184.512 189.525 184.438 189.568 184.289C189.654 183.994 189.799 183.55 190.014 182.935C190.442 181.712 191.097 179.964 191.988 177.671L188.603 176.355L185.217 175.038C184.316 177.357 183.626 179.195 183.157 180.535C182.924 181.201 182.732 181.781 182.594 182.255C182.525 182.49 182.459 182.737 182.406 182.976C182.368 183.152 182.28 183.566 182.28 184.041H185.913ZM188.603 176.355L191.988 177.671C193.652 173.393 196.317 168.517 200.059 163.029L197.057 160.983L194.056 158.936C190.112 164.721 187.14 170.093 185.217 175.038L188.603 176.355ZM197.057 160.983L200.039 163.057C203.944 157.445 208.988 151.894 215.214 146.416L212.814 143.689L210.414 140.962C203.829 146.757 198.37 152.735 194.076 158.908L197.057 160.983ZM212.814 143.689L215.273 146.362C221.237 140.876 228.558 136.773 237.318 134.097L236.256 130.623L235.195 127.149C225.508 130.109 217.201 134.717 210.354 141.016L212.814 143.689ZM236.256 130.623L237.345 134.088C246.243 131.292 254.081 129.144 260.871 127.636L260.083 124.09L259.295 120.544C252.249 122.109 244.203 124.317 235.167 127.157L236.256 130.623ZM260.083 124.09L260.994 127.606C267.624 125.887 274.235 125.032 280.835 125.032V121.4V117.767C273.6 117.767 266.376 118.705 259.171 120.573L260.083 124.09ZM280.835 121.4V125.032C285.449 125.032 290.344 125.518 295.527 126.505L296.207 122.937L296.887 119.368C291.31 118.306 285.957 117.767 280.835 117.767V121.4ZM296.207 122.937L295.557 126.511C300.986 127.498 307.093 129.113 313.889 131.379L315.038 127.933L316.187 124.487C309.148 122.14 302.701 120.425 296.857 119.363L296.207 122.937ZM315.038 127.933L313.852 131.366C327.605 136.117 337.955 142.152 345.135 149.332L347.703 146.763L350.272 144.195C342.08 136.003 330.653 129.484 316.224 124.499L315.038 127.933ZM347.703 146.763L345.222 149.416C352.866 156.567 358.155 163.96 361.247 171.573L364.613 170.206L367.978 168.839C364.41 160.054 358.426 151.819 350.185 144.111L347.703 146.763ZM364.613 170.206L361.285 171.662C364.71 179.491 366.651 187.401 367.136 195.405L370.762 195.185L374.387 194.966C373.848 186.061 371.689 177.317 367.941 168.75L364.613 170.206ZM370.762 195.185L367.145 195.524C367.906 203.64 368.282 210.825 368.282 217.09H371.914H375.547C375.547 210.546 375.155 203.127 374.378 194.846L370.762 195.185ZM371.914 217.09H368.282C368.282 226.572 366.341 234.957 362.538 242.326L365.766 243.992L368.994 245.658C373.389 237.142 375.547 227.593 375.547 217.09H371.914ZM365.766 243.992L362.538 242.326C358.626 249.905 353.349 257.035 346.672 263.712L349.241 266.281L351.809 268.85C358.967 261.692 364.707 253.963 368.994 245.658L365.766 243.992ZM349.241 266.281L346.672 263.712C340.192 270.193 332.689 276.325 324.147 282.103L326.183 285.112L328.218 288.121C337.098 282.113 344.967 275.692 351.809 268.85L349.241 266.281ZM326.183 285.112L324.168 282.089C315.727 287.716 307.158 293.344 298.461 298.971L300.434 302.021L302.408 305.071C311.132 299.426 319.729 293.78 328.198 288.134L326.183 285.112ZM300.434 302.021L298.419 298.999C298.302 299.077 297.744 299.449 297.627 299.527C297.509 299.605 296.952 299.977 296.834 300.055C296.717 300.134 296.159 300.505 296.042 300.584C295.924 300.662 295.367 301.034 295.249 301.112C295.131 301.191 294.574 301.562 294.456 301.641C294.339 301.719 293.781 302.091 293.664 302.169C293.546 302.247 292.989 302.619 292.871 302.697C292.754 302.776 292.196 303.148 292.079 303.226C291.961 303.304 291.403 303.676 291.286 303.754C291.168 303.833 290.611 304.204 290.493 304.283C290.376 304.361 289.818 304.733 289.701 304.811C289.583 304.89 289.026 305.261 288.908 305.34C288.79 305.418 288.233 305.79 288.115 305.868C287.998 305.946 287.44 306.318 287.323 306.396C287.205 306.475 286.648 306.846 286.53 306.925C286.413 307.003 285.855 307.375 285.738 307.453C285.267 307.767 284.623 308.197 284.152 308.51C283.682 308.824 283.037 309.253 282.567 309.567C282.097 309.88 281.452 310.31 280.982 310.624C280.512 310.937 279.867 311.367 279.397 311.681C278.926 311.994 278.282 312.424 277.811 312.737C277.341 313.051 276.696 313.481 276.226 313.794C275.756 314.108 275.111 314.537 274.641 314.851C274.171 315.165 273.526 315.594 273.056 315.908L275.071 318.93L277.086 321.953C277.203 321.874 277.761 321.503 277.878 321.424C277.996 321.346 278.553 320.974 278.671 320.896C278.788 320.818 279.346 320.446 279.463 320.367C279.581 320.289 280.138 319.917 280.256 319.839C280.374 319.761 280.931 319.389 281.049 319.311C281.166 319.232 281.724 318.861 281.841 318.782C281.959 318.704 282.516 318.332 282.634 318.254C282.751 318.175 283.309 317.804 283.427 317.725C283.544 317.647 284.102 317.275 284.219 317.197C284.337 317.119 284.894 316.747 285.012 316.669C285.129 316.59 285.687 316.219 285.804 316.14C285.922 316.062 286.479 315.69 286.597 315.612C286.715 315.533 287.272 315.162 287.39 315.083C287.507 315.005 288.065 314.633 288.182 314.555C288.3 314.477 288.857 314.105 288.975 314.027C289.092 313.948 289.65 313.576 289.767 313.498C290.238 313.185 290.882 312.755 291.353 312.441C291.823 312.128 292.468 311.698 292.938 311.384C293.408 311.071 294.053 310.641 294.523 310.328C294.993 310.014 295.638 309.584 296.108 309.271C296.579 308.957 297.223 308.527 297.694 308.214C298.164 307.9 298.809 307.471 299.279 307.157C299.749 306.844 300.394 306.414 300.864 306.1C301.334 305.787 301.979 305.357 302.449 305.043L300.434 302.021ZM275.071 318.93L273.056 315.908C264.417 321.667 256.671 327.965 249.828 334.808L252.397 337.377L254.965 339.945C261.445 333.466 268.815 327.467 277.086 321.953L275.071 318.93ZM252.397 337.377L249.865 334.772C240.332 344.04 233.124 354.294 228.306 365.537L231.645 366.968L234.983 368.399C239.388 358.121 246.015 348.647 254.929 339.981L252.397 337.377ZM231.645 366.968L228.306 365.537C223.49 376.773 220.609 390.265 219.565 405.925L223.19 406.167L226.814 406.408C227.82 391.324 230.576 378.684 234.983 368.399L231.645 366.968ZM223.19 406.167L223.469 409.788C226.817 409.531 231.442 409.145 237.339 408.633L237.025 405.014L236.71 401.395C230.822 401.907 226.224 402.29 222.911 402.545L223.19 406.167ZM237.025 405.014L237.495 408.616C243.299 407.859 249.885 407.225 257.258 406.716L257.008 403.092L256.759 399.468C249.273 399.985 242.536 400.632 236.555 401.412L237.025 405.014ZM257.008 403.092L257.382 406.705C264.718 405.947 272.444 405.439 280.564 405.186L280.451 401.555L280.337 397.924C272.06 398.183 264.159 398.701 256.635 399.479L257.008 403.092ZM280.451 401.555L280.671 405.181C289.052 404.673 297.433 404.419 305.815 404.419V400.786V397.154C297.287 397.154 288.759 397.412 280.231 397.929L280.451 401.555ZM305.815 400.786V404.419H311.195V400.786V397.154H305.815V400.786ZM311.195 400.786L311.106 404.418C332.043 404.928 348.503 406.203 360.557 408.213L361.154 404.629L361.751 401.046C349.21 398.956 332.364 397.669 311.283 397.155L311.195 400.786ZM361.154 404.629L360.63 408.224C366.78 409.121 371.464 409.795 374.677 410.244C376.282 410.469 377.53 410.639 378.413 410.754C378.853 410.811 379.216 410.856 379.493 410.887C379.669 410.907 380.055 410.952 380.369 410.952V407.32V403.687C380.555 403.687 380.629 403.704 380.308 403.668C380.089 403.643 379.772 403.604 379.347 403.549C378.501 403.439 377.282 403.273 375.685 403.05C372.493 402.603 367.825 401.931 361.678 401.035L361.154 404.629Z" fill="white" mask="url(#path-2-outside-1_127_6)"/>
<defs>
<filter id="filter0_d_127_6" x="0.937342" y="0.695941" width="572.535" height="572.535" filterUnits="userSpaceOnUse" color-interpolation-filters="sRGB">
<feFlood flood-opacity="0" result="BackgroundImageFix"/>
<feColorMatrix in="SourceAlpha" type="matrix" values="0 0 0 0 0 0 0 0 0 0 0 0 0 0 0 0 0 0 127 0" result="hardAlpha"/>
<feMorphology radius="11.3041" operator="dilate" in="SourceAlpha" result="effect1_dropShadow_127_6"/>
<feOffset dy="15.0721"/>
<feGaussianBlur stdDeviation="7.53604"/>
<feComposite in2="hardAlpha" operator="out"/>
<feColorMatrix type="matrix" values="0 0 0 0 0.12549 0 0 0 0 0.278431 0 0 0 0 0.27451 0 0 0 0.28 0"/>
<feBlend mode="normal" in2="BackgroundImageFix" result="effect1_dropShadow_127_6"/>
<feBlend mode="normal" in="SourceGraphic" in2="effect1_dropShadow_127_6" result="shape"/>
</filter>
</defs>
</svg>
