<svg width="573" height="574" viewBox="0 0 573 574" fill="none" xmlns="http://www.w3.org/2000/svg">
<g filter="url(#filter0_d_127_40)">
<rect x="26.6061" y="12.2773" width="519.783" height="519.783" rx="73.6907" fill="#2FD82F"/>
</g>
<mask id="path-2-outside-1_127_40" maskUnits="userSpaceOnUse" x="175.539" y="125.663" width="218" height="307" fill="black">
<rect fill="white" x="175.539" y="125.663" width="218" height="307"/>
<path d="M292.367 230.434C300.565 231.715 307.995 233.765 314.656 236.583C321.574 239.145 327.85 242.219 333.487 245.806C339.123 249.137 344.119 252.724 348.475 256.567C353.086 260.41 357.057 264.253 360.388 268.096C370.636 279.368 377.938 291.026 382.293 303.067C386.905 315.108 389.211 325.228 389.211 333.427V338.038L388.442 343.803C387.673 350.464 386.649 357.638 385.368 365.324C384.087 372.754 381.268 380.055 376.913 387.229C372.557 394.403 366.152 401.192 357.698 407.597C349.499 413.746 338.098 418.87 323.495 422.969C316.065 425.018 309.276 426.428 303.127 427.196C297.234 428.221 291.726 428.733 286.602 428.733C278.66 428.733 270.718 427.837 262.775 426.043C255.089 424.25 245.866 421.944 235.106 419.126C225.114 416.564 216.531 412.465 209.358 406.828C202.44 401.192 196.804 395.427 192.448 389.535C188.093 383.642 184.89 378.262 182.841 373.394C180.791 368.27 179.638 365.068 179.382 363.787C179.382 361.481 180.151 359.431 181.688 357.638C183.225 355.844 186.043 354.307 190.143 353.026C192.448 353.026 194.498 353.667 196.291 354.948C198.341 356.229 199.75 358.022 200.519 360.328C202.825 366.22 205.899 371.601 209.742 376.468C213.073 380.824 217.3 385.179 222.424 389.535C227.804 393.634 234.209 396.708 241.639 398.758C251.631 401.576 259.957 403.754 266.618 405.291C273.28 406.572 279.941 407.213 286.602 407.213C295.057 407.213 305.433 405.547 317.731 402.217C328.747 399.142 337.33 395.427 343.479 391.072C349.884 386.716 354.623 381.977 357.698 376.853C361.028 371.473 363.206 365.836 364.231 359.944C365.256 353.795 366.152 347.646 366.921 341.497L367.69 333.427C367.69 327.79 365.896 320.232 362.309 310.753C358.723 301.274 352.702 291.922 344.247 282.699C340.917 278.856 336.946 275.013 332.334 271.17C327.979 267.327 322.726 263.868 316.578 260.794C310.685 257.719 304.024 255.286 296.594 253.492C289.164 251.443 280.838 250.418 271.614 250.418C271.102 250.418 270.462 250.29 269.693 250.033C268.924 249.777 267.515 249.137 265.466 248.112L262.391 245.422C262.391 245.166 262.263 244.909 262.007 244.653C262.007 244.141 261.751 243.116 261.238 241.579C260.982 241.323 260.854 241.066 260.854 240.81C260.854 240.298 260.982 239.145 261.238 237.351C261.238 237.095 261.238 236.839 261.238 236.583C261.494 236.07 262.135 234.918 263.16 233.124C266.747 228.256 270.846 222.748 275.457 216.599C280.325 210.45 285.449 204.045 290.829 197.384C296.978 189.954 303.127 182.396 309.276 174.71C315.425 166.768 320.805 159.595 325.417 153.19C320.036 152.677 313.759 152.293 306.586 152.037C299.668 151.524 291.982 151.268 283.528 151.268C273.536 151.268 263.288 151.652 252.784 152.421C242.279 153.19 232.544 153.958 223.577 154.727C214.866 155.495 207.564 156.264 201.672 157.033C196.035 157.801 192.961 158.185 192.448 158.185C189.63 158.185 187.196 157.289 185.147 155.495C183.353 153.702 182.2 151.012 181.688 147.425C181.688 144.607 182.457 142.301 183.994 140.508C185.787 138.714 188.093 137.561 190.911 137.049C191.424 137.049 194.498 136.665 200.134 135.896C206.027 135.127 213.329 134.359 222.04 133.59C231.007 132.565 240.87 131.669 251.631 130.9C262.391 130.132 273.024 129.747 283.528 129.747C296.082 129.747 307.098 130.132 316.578 130.9C326.313 131.669 334.127 132.437 340.02 133.206C341.557 131.925 343.607 131.284 346.169 131.284C347.706 131.284 349.499 131.669 351.549 132.437C352.061 132.95 352.574 133.462 353.086 133.975C353.855 134.487 354.495 135.127 355.008 135.896C359.363 137.689 361.541 141.661 361.541 147.809C360.26 153.446 356.289 156.264 349.628 156.264C345.016 163.181 338.867 171.508 331.181 181.244C323.751 190.979 315.937 200.843 307.739 210.835C304.921 214.422 302.23 217.88 299.668 221.211C297.106 224.285 294.672 227.36 292.367 230.434Z"/>
</mask>
<path d="M292.367 230.434C300.565 231.715 307.995 233.765 314.656 236.583C321.574 239.145 327.85 242.219 333.487 245.806C339.123 249.137 344.119 252.724 348.475 256.567C353.086 260.41 357.057 264.253 360.388 268.096C370.636 279.368 377.938 291.026 382.293 303.067C386.905 315.108 389.211 325.228 389.211 333.427V338.038L388.442 343.803C387.673 350.464 386.649 357.638 385.368 365.324C384.087 372.754 381.268 380.055 376.913 387.229C372.557 394.403 366.152 401.192 357.698 407.597C349.499 413.746 338.098 418.87 323.495 422.969C316.065 425.018 309.276 426.428 303.127 427.196C297.234 428.221 291.726 428.733 286.602 428.733C278.66 428.733 270.718 427.837 262.775 426.043C255.089 424.25 245.866 421.944 235.106 419.126C225.114 416.564 216.531 412.465 209.358 406.828C202.44 401.192 196.804 395.427 192.448 389.535C188.093 383.642 184.89 378.262 182.841 373.394C180.791 368.27 179.638 365.068 179.382 363.787C179.382 361.481 180.151 359.431 181.688 357.638C183.225 355.844 186.043 354.307 190.143 353.026C192.448 353.026 194.498 353.667 196.291 354.948C198.341 356.229 199.75 358.022 200.519 360.328C202.825 366.22 205.899 371.601 209.742 376.468C213.073 380.824 217.3 385.179 222.424 389.535C227.804 393.634 234.209 396.708 241.639 398.758C251.631 401.576 259.957 403.754 266.618 405.291C273.28 406.572 279.941 407.213 286.602 407.213C295.057 407.213 305.433 405.547 317.731 402.217C328.747 399.142 337.33 395.427 343.479 391.072C349.884 386.716 354.623 381.977 357.698 376.853C361.028 371.473 363.206 365.836 364.231 359.944C365.256 353.795 366.152 347.646 366.921 341.497L367.69 333.427C367.69 327.79 365.896 320.232 362.309 310.753C358.723 301.274 352.702 291.922 344.247 282.699C340.917 278.856 336.946 275.013 332.334 271.17C327.979 267.327 322.726 263.868 316.578 260.794C310.685 257.719 304.024 255.286 296.594 253.492C289.164 251.443 280.838 250.418 271.614 250.418C271.102 250.418 270.462 250.29 269.693 250.033C268.924 249.777 267.515 249.137 265.466 248.112L262.391 245.422C262.391 245.166 262.263 244.909 262.007 244.653C262.007 244.141 261.751 243.116 261.238 241.579C260.982 241.323 260.854 241.066 260.854 240.81C260.854 240.298 260.982 239.145 261.238 237.351C261.238 237.095 261.238 236.839 261.238 236.583C261.494 236.07 262.135 234.918 263.16 233.124C266.747 228.256 270.846 222.748 275.457 216.599C280.325 210.45 285.449 204.045 290.829 197.384C296.978 189.954 303.127 182.396 309.276 174.71C315.425 166.768 320.805 159.595 325.417 153.19C320.036 152.677 313.759 152.293 306.586 152.037C299.668 151.524 291.982 151.268 283.528 151.268C273.536 151.268 263.288 151.652 252.784 152.421C242.279 153.19 232.544 153.958 223.577 154.727C214.866 155.495 207.564 156.264 201.672 157.033C196.035 157.801 192.961 158.185 192.448 158.185C189.63 158.185 187.196 157.289 185.147 155.495C183.353 153.702 182.2 151.012 181.688 147.425C181.688 144.607 182.457 142.301 183.994 140.508C185.787 138.714 188.093 137.561 190.911 137.049C191.424 137.049 194.498 136.665 200.134 135.896C206.027 135.127 213.329 134.359 222.04 133.59C231.007 132.565 240.87 131.669 251.631 130.9C262.391 130.132 273.024 129.747 283.528 129.747C296.082 129.747 307.098 130.132 316.578 130.9C326.313 131.669 334.127 132.437 340.02 133.206C341.557 131.925 343.607 131.284 346.169 131.284C347.706 131.284 349.499 131.669 351.549 132.437C352.061 132.95 352.574 133.462 353.086 133.975C353.855 134.487 354.495 135.127 355.008 135.896C359.363 137.689 361.541 141.661 361.541 147.809C360.26 153.446 356.289 156.264 349.628 156.264C345.016 163.181 338.867 171.508 331.181 181.244C323.751 190.979 315.937 200.843 307.739 210.835C304.921 214.422 302.23 217.88 299.668 221.211C297.106 224.285 294.672 227.36 292.367 230.434Z" fill="white"/>
<path d="M292.367 230.434L289.461 228.255L285.834 233.09L291.806 234.023L292.367 230.434ZM314.656 236.583L313.241 239.928L313.317 239.961L313.394 239.989L314.656 236.583ZM333.487 245.806L331.537 248.871L331.587 248.903L331.639 248.933L333.487 245.806ZM348.475 256.567L346.071 259.29L346.11 259.324L346.149 259.357L348.475 256.567ZM360.388 268.096L357.643 270.475L357.671 270.507L357.7 270.539L360.388 268.096ZM382.293 303.067L378.877 304.303L378.889 304.334L378.901 304.366L382.293 303.067ZM389.211 338.038L392.811 338.518L392.843 338.279V338.038H389.211ZM388.442 343.803L384.841 343.323L384.837 343.355L384.833 343.387L388.442 343.803ZM385.368 365.324L388.947 365.941L388.949 365.931L388.951 365.921L385.368 365.324ZM357.698 407.597L359.877 410.503L359.884 410.498L359.891 410.492L357.698 407.597ZM323.495 422.969L324.461 426.471L324.469 426.468L324.477 426.466L323.495 422.969ZM303.127 427.196L302.677 423.592L302.59 423.603L302.505 423.617L303.127 427.196ZM262.775 426.043L261.95 429.581L261.963 429.584L261.975 429.587L262.775 426.043ZM235.106 419.126L236.026 415.612L236.017 415.61L236.008 415.607L235.106 419.126ZM209.358 406.828L207.063 409.644L207.088 409.665L207.113 409.685L209.358 406.828ZM182.841 373.394L179.468 374.743L179.48 374.774L179.493 374.804L182.841 373.394ZM179.382 363.787H175.75V364.146L175.82 364.499L179.382 363.787ZM190.143 353.026V349.394H189.588L189.059 349.559L190.143 353.026ZM196.291 354.948L194.18 357.904L194.271 357.969L194.366 358.028L196.291 354.948ZM200.519 360.328L197.073 361.477L197.102 361.565L197.136 361.652L200.519 360.328ZM209.742 376.468L212.627 374.262L212.61 374.24L212.593 374.218L209.742 376.468ZM222.424 389.535L220.071 392.302L220.145 392.365L220.222 392.424L222.424 389.535ZM241.639 398.758L242.625 395.262L242.615 395.259L242.605 395.256L241.639 398.758ZM266.618 405.291L265.802 408.831L265.867 408.846L265.933 408.858L266.618 405.291ZM317.731 402.217L318.68 405.723L318.694 405.719L318.707 405.715L317.731 402.217ZM343.479 391.072L341.436 388.068L341.407 388.088L341.379 388.108L343.479 391.072ZM357.698 376.853L354.609 374.941L354.596 374.962L354.583 374.984L357.698 376.853ZM364.231 359.944L367.81 360.566L367.812 360.553L367.814 360.541L364.231 359.944ZM366.921 341.497L370.526 341.948L370.532 341.895L370.537 341.841L366.921 341.497ZM367.69 333.427L371.306 333.771L371.322 333.599V333.427H367.69ZM344.247 282.699L341.502 285.078L341.535 285.116L341.57 285.154L344.247 282.699ZM332.334 271.17L329.931 273.894L329.969 273.928L330.008 273.961L332.334 271.17ZM316.578 260.794L314.897 264.014L314.925 264.029L314.953 264.043L316.578 260.794ZM296.594 253.492L295.628 256.994L295.685 257.009L295.742 257.023L296.594 253.492ZM265.466 248.112L263.074 250.846L263.424 251.153L263.841 251.361L265.466 248.112ZM262.391 245.422H258.759V247.07L259.999 248.156L262.391 245.422ZM262.007 244.653H258.374V246.158L259.438 247.222L262.007 244.653ZM261.238 241.579L264.684 240.43L264.413 239.617L263.807 239.01L261.238 241.579ZM261.238 237.351L264.834 237.865L264.871 237.61V237.351H261.238ZM261.238 236.583L257.989 234.958L257.606 235.725V236.583H261.238ZM263.16 233.124L260.235 230.969L260.11 231.139L260.006 231.322L263.16 233.124ZM275.457 216.599L272.609 214.345L272.58 214.382L272.551 214.42L275.457 216.599ZM290.829 197.384L288.031 195.068L288.017 195.085L288.004 195.102L290.829 197.384ZM309.276 174.71L312.112 176.98L312.131 176.957L312.148 176.934L309.276 174.71ZM325.417 153.19L328.364 155.312L332.064 150.174L325.761 149.573L325.417 153.19ZM306.586 152.037L306.317 155.659L306.387 155.664L306.456 155.667L306.586 152.037ZM223.577 154.727L223.267 151.107L223.258 151.108L223.577 154.727ZM201.672 157.033L201.202 153.431L201.191 153.432L201.181 153.433L201.672 157.033ZM185.147 155.495L182.578 158.064L182.664 158.149L182.755 158.229L185.147 155.495ZM181.688 147.425H178.055V147.683L178.092 147.939L181.688 147.425ZM183.994 140.508L181.425 137.939L181.327 138.038L181.236 138.144L183.994 140.508ZM190.911 137.049V133.416H190.584L190.261 133.475L190.911 137.049ZM200.134 135.896L199.665 132.294L199.654 132.295L199.644 132.297L200.134 135.896ZM222.04 133.59L222.359 137.209L222.406 137.205L222.452 137.199L222.04 133.59ZM316.578 130.9L316.284 134.521L316.292 134.521L316.578 130.9ZM340.02 133.206L339.55 136.808L341.125 137.013L342.345 135.996L340.02 133.206ZM351.549 132.437L354.118 129.869L353.561 129.312L352.824 129.036L351.549 132.437ZM353.086 133.975L350.518 136.543L350.772 136.797L351.071 136.997L353.086 133.975ZM355.008 135.896L351.985 137.911L352.6 138.833L353.625 139.255L355.008 135.896ZM361.541 147.809L365.083 148.614L365.173 148.217V147.809H361.541ZM349.628 156.264V152.631H347.683L346.605 154.249L349.628 156.264ZM331.181 181.244L328.33 178.993L328.311 179.016L328.293 179.04L331.181 181.244ZM307.739 210.835L304.93 208.531L304.906 208.56L304.882 208.59L307.739 210.835ZM299.668 221.211L302.459 223.536L302.504 223.482L302.548 223.426L299.668 221.211ZM292.367 230.434L291.806 234.023C299.753 235.265 306.89 237.241 313.241 239.928L314.656 236.583L316.072 233.237C309.1 230.288 301.377 228.165 292.927 226.845L292.367 230.434ZM314.656 236.583L313.394 239.989C320.096 242.471 326.138 245.435 331.537 248.871L333.487 245.806L335.437 242.741C329.563 239.003 323.052 235.819 315.918 233.176L314.656 236.583ZM333.487 245.806L331.639 248.933C337.102 252.162 341.908 255.617 346.071 259.29L348.475 256.567L350.878 253.843C346.331 249.83 341.144 246.112 335.335 242.679L333.487 245.806ZM348.475 256.567L346.149 259.357C350.636 263.096 354.461 266.804 357.643 270.475L360.388 268.096L363.133 265.717C359.653 261.702 355.536 257.723 350.8 253.776L348.475 256.567ZM360.388 268.096L357.7 270.539C367.688 281.526 374.711 292.784 378.877 304.303L382.293 303.067L385.709 301.831C381.165 289.267 373.584 277.211 363.076 265.652L360.388 268.096ZM382.293 303.067L378.901 304.366C383.434 316.203 385.578 325.853 385.578 333.427H389.211H392.843C392.843 324.604 390.375 314.014 385.685 301.768L382.293 303.067ZM389.211 333.427H385.578V338.038H389.211H392.843V333.427H389.211ZM389.211 338.038L385.61 337.558L384.841 343.323L388.442 343.803L392.043 344.283L392.811 338.518L389.211 338.038ZM388.442 343.803L384.833 343.387C384.073 349.979 383.057 357.091 381.784 364.727L385.368 365.324L388.951 365.921C390.24 358.184 391.274 350.95 392.051 344.219L388.442 343.803ZM385.368 365.324L381.788 364.707C380.592 371.64 377.954 378.515 373.808 385.344L376.913 387.229L380.018 389.114C384.583 381.595 387.581 373.867 388.947 365.941L385.368 365.324ZM376.913 387.229L373.808 385.344C369.743 392.038 363.687 398.503 355.504 404.701L357.698 407.597L359.891 410.492C368.618 403.881 375.371 396.767 380.018 389.114L376.913 387.229ZM357.698 407.597L355.518 404.691C347.808 410.474 336.873 415.441 322.513 419.472L323.495 422.969L324.477 426.466C339.324 422.299 351.191 417.018 359.877 410.503L357.698 407.597ZM323.495 422.969L322.529 419.467C315.229 421.481 308.615 422.849 302.677 423.592L303.127 427.196L303.578 430.801C309.936 430.006 316.901 428.556 324.461 426.471L323.495 422.969ZM303.127 427.196L302.505 423.617C296.784 424.612 291.486 425.101 286.602 425.101V428.733V432.366C291.966 432.366 297.684 431.83 303.75 430.775L303.127 427.196ZM286.602 428.733V425.101C278.936 425.101 271.262 424.236 263.576 422.5L262.775 426.043L261.975 429.587C270.174 431.438 278.384 432.366 286.602 432.366V428.733ZM262.775 426.043L263.601 422.506C255.957 420.722 246.767 418.425 236.026 415.612L235.106 419.126L234.185 422.64C244.966 425.463 254.222 427.778 261.95 429.581L262.775 426.043ZM235.106 419.126L236.008 415.607C226.441 413.154 218.33 409.259 211.602 403.972L209.358 406.828L207.113 409.685C214.732 415.671 223.787 419.974 234.204 422.645L235.106 419.126ZM209.358 406.828L211.652 404.012C204.921 398.528 199.51 392.978 195.37 387.376L192.448 389.535L189.527 391.694C194.097 397.877 199.959 403.856 207.063 409.644L209.358 406.828ZM192.448 389.535L195.37 387.376C191.125 381.633 188.093 376.506 186.189 371.984L182.841 373.394L179.493 374.804C181.688 380.018 185.061 385.651 189.527 391.694L192.448 389.535ZM182.841 373.394L186.214 372.045C184.113 366.793 183.12 363.951 182.944 363.074L179.382 363.787L175.82 364.499C176.157 366.184 177.47 369.747 179.468 374.743L182.841 373.394ZM179.382 363.787H183.015C183.015 362.371 183.458 361.154 184.446 360.002L181.688 357.638L178.93 355.274C176.843 357.708 175.75 360.591 175.75 363.787H179.382ZM181.688 357.638L184.446 360.002C185.307 358.998 187.32 357.714 191.226 356.493L190.143 353.026L189.059 349.559C184.767 350.9 181.144 352.691 178.93 355.274L181.688 357.638ZM190.143 353.026V356.659C191.729 356.659 193.032 357.084 194.18 357.904L196.291 354.948L198.403 351.992C195.964 350.249 193.168 349.394 190.143 349.394V353.026ZM196.291 354.948L194.366 358.028C195.695 358.859 196.569 359.967 197.073 361.477L200.519 360.328L203.965 359.179C202.931 356.077 200.987 353.599 198.217 351.867L196.291 354.948ZM200.519 360.328L197.136 361.652C199.57 367.871 202.821 373.565 206.891 378.719L209.742 376.468L212.593 374.218C208.977 369.637 206.079 364.57 203.901 359.004L200.519 360.328ZM209.742 376.468L206.856 378.675C210.375 383.276 214.793 387.816 220.071 392.302L222.424 389.535L224.776 386.767C219.807 382.543 215.77 378.372 212.627 374.262L209.742 376.468ZM222.424 389.535L220.222 392.424C226.019 396.841 232.858 400.104 240.673 402.26L241.639 398.758L242.605 395.256C235.56 393.313 229.589 390.427 224.625 386.645L222.424 389.535ZM241.639 398.758L240.653 402.254C250.675 405.081 259.063 407.275 265.802 408.831L266.618 405.291L267.435 401.752C260.852 400.232 252.586 398.071 242.625 395.262L241.639 398.758ZM266.618 405.291L265.933 408.858C272.816 410.182 279.707 410.845 286.602 410.845V407.213V403.58C280.175 403.58 273.744 402.962 267.304 401.724L266.618 405.291ZM286.602 407.213V410.845C295.496 410.845 306.213 409.099 318.68 405.723L317.731 402.217L316.781 398.71C304.653 401.995 294.618 403.58 286.602 403.58V407.213ZM317.731 402.217L318.707 405.715C329.939 402.581 338.96 398.724 345.578 394.036L343.479 391.072L341.379 388.108C335.7 392.131 327.555 395.704 316.754 398.718L317.731 402.217ZM343.479 391.072L345.521 394.076C352.238 389.508 357.4 384.41 360.813 378.722L357.698 376.853L354.583 374.984C351.847 379.543 347.53 383.925 341.436 388.068L343.479 391.072ZM357.698 376.853L360.786 378.765C364.347 373.013 366.701 366.942 367.81 360.566L364.231 359.944L360.652 359.321C359.711 364.73 357.71 369.932 354.609 374.941L357.698 376.853ZM364.231 359.944L367.814 360.541C368.847 354.343 369.751 348.146 370.526 341.948L366.921 341.497L363.317 341.047C362.554 347.146 361.665 353.246 360.648 359.346L364.231 359.944ZM366.921 341.497L370.537 341.841L371.306 333.771L367.69 333.427L364.074 333.082L363.305 341.153L366.921 341.497ZM367.69 333.427H371.322C371.322 327.131 369.345 319.084 365.707 309.467L362.309 310.753L358.912 312.039C362.447 321.381 364.057 328.449 364.057 333.427H367.69ZM362.309 310.753L365.707 309.467C361.923 299.468 355.621 289.731 346.925 280.244L344.247 282.699L341.57 285.154C349.783 294.114 355.522 303.079 358.912 312.039L362.309 310.753ZM344.247 282.699L346.992 280.32C343.513 276.305 339.396 272.326 334.659 268.379L332.334 271.17L330.008 273.961C334.495 277.7 338.321 281.407 341.502 285.078L344.247 282.699ZM332.334 271.17L334.737 268.446C330.108 264.361 324.582 260.735 318.202 257.545L316.578 260.794L314.953 264.043C320.871 267.002 325.849 270.293 329.931 273.894L332.334 271.17ZM316.578 260.794L318.258 257.573C312.067 254.343 305.122 251.814 297.446 249.961L296.594 253.492L295.742 257.023C302.926 258.757 309.303 261.095 314.897 264.014L316.578 260.794ZM296.594 253.492L297.56 249.99C289.761 247.839 281.102 246.785 271.614 246.785V250.418V254.05C280.573 254.05 288.567 255.046 295.628 256.994L296.594 253.492ZM271.614 250.418V246.785C271.652 246.785 271.608 246.789 271.462 246.76C271.32 246.731 271.115 246.679 270.842 246.587L269.693 250.033L268.544 253.48C269.494 253.796 270.553 254.05 271.614 254.05V250.418ZM269.693 250.033L270.842 246.587C270.355 246.425 269.168 245.902 267.09 244.863L265.466 248.112L263.841 251.361C265.862 252.371 267.494 253.129 268.544 253.48L269.693 250.033ZM265.466 248.112L267.858 245.378L264.783 242.688L262.391 245.422L259.999 248.156L263.074 250.846L265.466 248.112ZM262.391 245.422H266.024C266.024 243.862 265.228 242.737 264.575 242.085L262.007 244.653L259.438 247.222C259.299 247.082 258.759 246.469 258.759 245.422H262.391ZM262.007 244.653H265.639C265.639 243.928 265.48 243.183 265.339 242.619C265.18 241.983 264.956 241.246 264.684 240.43L261.238 241.579L257.792 242.728C258.033 243.449 258.194 243.993 258.291 244.381C258.339 244.574 258.364 244.7 258.376 244.77C258.39 244.855 258.374 244.8 258.374 244.653H262.007ZM261.238 241.579L263.807 239.01C263.947 239.15 264.487 239.763 264.487 240.81H260.854H257.221C257.221 242.37 258.018 243.495 258.67 244.147L261.238 241.579ZM260.854 240.81H264.487C264.487 240.814 264.487 240.75 264.5 240.584C264.512 240.429 264.531 240.224 264.56 239.962C264.619 239.438 264.709 238.743 264.834 237.865L261.238 237.351L257.642 236.838C257.397 238.557 257.221 239.987 257.221 240.81H260.854ZM261.238 237.351H264.871C264.871 237.351 264.871 237.35 264.871 237.35C264.871 237.349 264.871 237.349 264.871 237.348C264.871 237.348 264.871 237.347 264.871 237.347C264.871 237.346 264.871 237.346 264.871 237.345C264.871 237.345 264.871 237.344 264.871 237.344C264.871 237.343 264.871 237.343 264.871 237.342C264.871 237.342 264.871 237.341 264.871 237.341C264.871 237.34 264.871 237.34 264.871 237.339C264.871 237.339 264.871 237.338 264.871 237.338C264.871 237.337 264.871 237.337 264.871 237.336C264.871 237.336 264.871 237.335 264.871 237.335C264.871 237.334 264.871 237.334 264.871 237.333C264.871 237.333 264.871 237.332 264.871 237.332C264.871 237.331 264.871 237.331 264.871 237.33C264.871 237.33 264.871 237.329 264.871 237.329C264.871 237.328 264.871 237.328 264.871 237.327C264.871 237.327 264.871 237.326 264.871 237.326C264.871 237.325 264.871 237.325 264.871 237.324C264.871 237.324 264.871 237.323 264.871 237.323C264.871 237.322 264.871 237.322 264.871 237.321C264.871 237.321 264.871 237.32 264.871 237.32C264.871 237.319 264.871 237.319 264.871 237.318C264.871 237.318 264.871 237.317 264.871 237.317C264.871 237.316 264.871 237.316 264.871 237.315C264.871 237.315 264.871 237.314 264.871 237.314C264.871 237.313 264.871 237.313 264.871 237.312C264.871 237.312 264.871 237.311 264.871 237.311C264.871 237.31 264.871 237.31 264.871 237.309C264.871 237.309 264.871 237.308 264.871 237.308C264.871 237.307 264.871 237.307 264.871 237.306C264.871 237.306 264.871 237.305 264.871 237.305C264.871 237.304 264.871 237.304 264.871 237.303C264.871 237.303 264.871 237.302 264.871 237.302C264.871 237.301 264.871 237.301 264.871 237.3C264.871 237.3 264.871 237.299 264.871 237.299C264.871 237.298 264.871 237.298 264.871 237.297C264.871 237.297 264.871 237.296 264.871 237.296C264.871 237.295 264.871 237.295 264.871 237.294C264.871 237.294 264.871 237.293 264.871 237.293C264.871 237.292 264.871 237.292 264.871 237.291C264.871 237.291 264.871 237.29 264.871 237.29C264.871 237.289 264.871 237.289 264.871 237.288C264.871 237.288 264.871 237.287 264.871 237.287C264.871 237.286 264.871 237.286 264.871 237.285C264.871 237.285 264.871 237.284 264.871 237.284C264.871 237.283 264.871 237.283 264.871 237.282C264.871 237.282 264.871 237.281 264.871 237.281C264.871 237.28 264.871 237.28 264.871 237.279C264.871 237.279 264.871 237.278 264.871 237.278C264.871 237.277 264.871 237.277 264.871 237.276C264.871 237.276 264.871 237.275 264.871 237.275C264.871 237.274 264.871 237.274 264.871 237.273C264.871 237.273 264.871 237.272 264.871 237.272C264.871 237.271 264.871 237.271 264.871 237.27C264.871 237.27 264.871 237.269 264.871 237.269C264.871 237.268 264.871 237.268 264.871 237.267C264.871 237.267 264.871 237.266 264.871 237.266C264.871 237.265 264.871 237.265 264.871 237.264C264.871 237.264 264.871 237.263 264.871 237.263C264.871 237.262 264.871 237.262 264.871 237.261C264.871 237.261 264.871 237.26 264.871 237.26C264.871 237.259 264.871 237.259 264.871 237.258C264.871 237.258 264.871 237.257 264.871 237.257C264.871 237.256 264.871 237.256 264.871 237.255C264.871 237.255 264.871 237.254 264.871 237.254C264.871 237.253 264.871 237.253 264.871 237.252C264.871 237.252 264.871 237.251 264.871 237.251C264.871 237.25 264.871 237.25 264.871 237.249C264.871 237.249 264.871 237.248 264.871 237.248C264.871 237.247 264.871 237.247 264.871 237.246C264.871 237.246 264.871 237.245 264.871 237.245C264.871 237.244 264.871 237.244 264.871 237.243C264.871 237.243 264.871 237.242 264.871 237.242C264.871 237.241 264.871 237.241 264.871 237.24C264.871 237.24 264.871 237.239 264.871 237.239C264.871 237.238 264.871 237.238 264.871 237.237C264.871 237.237 264.871 237.236 264.871 237.236C264.871 237.235 264.871 237.235 264.871 237.234C264.871 237.234 264.871 237.233 264.871 237.233C264.871 237.232 264.871 237.232 264.871 237.231C264.871 237.231 264.871 237.23 264.871 237.23C264.871 237.229 264.871 237.229 264.871 237.228C264.871 237.228 264.871 237.227 264.871 237.227C264.871 237.226 264.871 237.226 264.871 237.225C264.871 237.225 264.871 237.224 264.871 237.224C264.871 237.223 264.871 237.223 264.871 237.222C264.871 237.222 264.871 237.221 264.871 237.221C264.871 237.22 264.871 237.22 264.871 237.219C264.871 237.219 264.871 237.218 264.871 237.218C264.871 237.217 264.871 237.217 264.871 237.216C264.871 237.216 264.871 237.215 264.871 237.215C264.871 237.214 264.871 237.214 264.871 237.213C264.871 237.213 264.871 237.212 264.871 237.212C264.871 237.211 264.871 237.211 264.871 237.21C264.871 237.21 264.871 237.209 264.871 237.209C264.871 237.208 264.871 237.208 264.871 237.207C264.871 237.207 264.871 237.206 264.871 237.206C264.871 237.205 264.871 237.205 264.871 237.204C264.871 237.204 264.871 237.203 264.871 237.203C264.871 237.202 264.871 237.202 264.871 237.201C264.871 237.201 264.871 237.2 264.871 237.2C264.871 237.199 264.871 237.199 264.871 237.198C264.871 237.198 264.871 237.197 264.871 237.197C264.871 237.196 264.871 237.196 264.871 237.195C264.871 237.195 264.871 237.194 264.871 237.194C264.871 237.193 264.871 237.193 264.871 237.192C264.871 237.192 264.871 237.191 264.871 237.191C264.871 237.19 264.871 237.19 264.871 237.189C264.871 237.189 264.871 237.188 264.871 237.188C264.871 237.187 264.871 237.187 264.871 237.186C264.871 237.186 264.871 237.185 264.871 237.185C264.871 237.184 264.871 237.184 264.871 237.183C264.871 237.183 264.871 237.182 264.871 237.182C264.871 237.181 264.871 237.181 264.871 237.18C264.871 237.18 264.871 237.179 264.871 237.179C264.871 237.178 264.871 237.178 264.871 237.177C264.871 237.177 264.871 237.176 264.871 237.176C264.871 237.175 264.871 237.175 264.871 237.174C264.871 237.174 264.871 237.173 264.871 237.173C264.871 237.172 264.871 237.172 264.871 237.171C264.871 237.171 264.871 237.17 264.871 237.17C264.871 237.169 264.871 237.169 264.871 237.168C264.871 237.168 264.871 237.167 264.871 237.167C264.871 237.166 264.871 237.166 264.871 237.165C264.871 237.165 264.871 237.164 264.871 237.164C264.871 237.163 264.871 237.163 264.871 237.162C264.871 237.162 264.871 237.161 264.871 237.161C264.871 237.16 264.871 237.16 264.871 237.159C264.871 237.159 264.871 237.158 264.871 237.158C264.871 237.157 264.871 237.157 264.871 237.156C264.871 237.156 264.871 237.155 264.871 237.155C264.871 237.154 264.871 237.154 264.871 237.153C264.871 237.153 264.871 237.152 264.871 237.152C264.871 237.151 264.871 237.151 264.871 237.15C264.871 237.15 264.871 237.149 264.871 237.149C264.871 237.148 264.871 237.148 264.871 237.147C264.871 237.147 264.871 237.146 264.871 237.146C264.871 237.145 264.871 237.145 264.871 237.144C264.871 237.144 264.871 237.143 264.871 237.143C264.871 237.142 264.871 237.142 264.871 237.141C264.871 237.141 264.871 237.14 264.871 237.14C264.871 237.139 264.871 237.139 264.871 237.138C264.871 237.138 264.871 237.137 264.871 237.137C264.871 237.136 264.871 237.136 264.871 237.135C264.871 237.135 264.871 237.134 264.871 237.134C264.871 237.133 264.871 237.133 264.871 237.132C264.871 237.132 264.871 237.131 264.871 237.131C264.871 237.13 264.871 237.13 264.871 237.129C264.871 237.129 264.871 237.128 264.871 237.128C264.871 237.127 264.871 237.127 264.871 237.126C264.871 237.126 264.871 237.125 264.871 237.125C264.871 237.124 264.871 237.124 264.871 237.123C264.871 237.123 264.871 237.122 264.871 237.122C264.871 237.121 264.871 237.121 264.871 237.12C264.871 237.12 264.871 237.119 264.871 237.119C264.871 237.118 264.871 237.118 264.871 237.117C264.871 237.117 264.871 237.116 264.871 237.116C264.871 237.115 264.871 237.115 264.871 237.114C264.871 237.114 264.871 237.113 264.871 237.113C264.871 237.112 264.871 237.112 264.871 237.111C264.871 237.111 264.871 237.11 264.871 237.11C264.871 237.109 264.871 237.109 264.871 237.108C264.871 237.108 264.871 237.107 264.871 237.107C264.871 237.106 264.871 237.106 264.871 237.105C264.871 237.105 264.871 237.104 264.871 237.104C264.871 237.103 264.871 237.103 264.871 237.102C264.871 237.102 264.871 237.101 264.871 237.101C264.871 237.1 264.871 237.1 264.871 237.099C264.871 237.099 264.871 237.098 264.871 237.098C264.871 237.097 264.871 237.097 264.871 237.096C264.871 237.096 264.871 237.095 264.871 237.095C264.871 237.094 264.871 237.094 264.871 237.093C264.871 237.093 264.871 237.092 264.871 237.092C264.871 237.091 264.871 237.091 264.871 237.09C264.871 237.09 264.871 237.089 264.871 237.089C264.871 237.088 264.871 237.088 264.871 237.087C264.871 237.087 264.871 237.086 264.871 237.086C264.871 237.085 264.871 237.085 264.871 237.084C264.871 237.084 264.871 237.083 264.871 237.083C264.871 237.082 264.871 237.082 264.871 237.081C264.871 237.081 264.871 237.08 264.871 237.08C264.871 237.079 264.871 237.079 264.871 237.078C264.871 237.078 264.871 237.077 264.871 237.077C264.871 237.076 264.871 237.076 264.871 237.075C264.871 237.075 264.871 237.074 264.871 237.074C264.871 237.073 264.871 237.073 264.871 237.072C264.871 237.072 264.871 237.071 264.871 237.071C264.871 237.07 264.871 237.07 264.871 237.069C264.871 237.069 264.871 237.068 264.871 237.068C264.871 237.067 264.871 237.067 264.871 237.066C264.871 237.066 264.871 237.065 264.871 237.065C264.871 237.064 264.871 237.064 264.871 237.063C264.871 237.063 264.871 237.062 264.871 237.062C264.871 237.061 264.871 237.061 264.871 237.06C264.871 237.06 264.871 237.059 264.871 237.059C264.871 237.058 264.871 237.058 264.871 237.057C264.871 237.057 264.871 237.056 264.871 237.056C264.871 237.055 264.871 237.055 264.871 237.054C264.871 237.054 264.871 237.053 264.871 237.053C264.871 237.052 264.871 237.052 264.871 237.051C264.871 237.051 264.871 237.05 264.871 237.05C264.871 237.049 264.871 237.049 264.871 237.048C264.871 237.048 264.871 237.047 264.871 237.047C264.871 237.046 264.871 237.046 264.871 237.045C264.871 237.045 264.871 237.044 264.871 237.044C264.871 237.043 264.871 237.043 264.871 237.042C264.871 237.042 264.871 237.041 264.871 237.041C264.871 237.04 264.871 237.04 264.871 237.039C264.871 237.039 264.871 237.038 264.871 237.038C264.871 237.037 264.871 237.037 264.871 237.036C264.871 237.036 264.871 237.035 264.871 237.035C264.871 237.034 264.871 237.034 264.871 237.033C264.871 237.033 264.871 237.032 264.871 237.032C264.871 237.031 264.871 237.031 264.871 237.03C264.871 237.03 264.871 237.029 264.871 237.029C264.871 237.028 264.871 237.028 264.871 237.027C264.871 237.027 264.871 237.026 264.871 237.026C264.871 237.025 264.871 237.025 264.871 237.024C264.871 237.024 264.871 237.023 264.871 237.023C264.871 237.022 264.871 237.022 264.871 237.021C264.871 237.021 264.871 237.02 264.871 237.02C264.871 237.019 264.871 237.019 264.871 237.018C264.871 237.018 264.871 237.017 264.871 237.017C264.871 237.016 264.871 237.016 264.871 237.015C264.871 237.015 264.871 237.014 264.871 237.014C264.871 237.013 264.871 237.013 264.871 237.012C264.871 237.012 264.871 237.011 264.871 237.011C264.871 237.01 264.871 237.01 264.871 237.009C264.871 237.009 264.871 237.008 264.871 237.008C264.871 237.007 264.871 237.007 264.871 237.006C264.871 237.006 264.871 237.005 264.871 237.005C264.871 237.004 264.871 237.004 264.871 237.003C264.871 237.003 264.871 237.002 264.871 237.002C264.871 237.001 264.871 237.001 264.871 237C264.871 237 264.871 236.999 264.871 236.999C264.871 236.998 264.871 236.998 264.871 236.997C264.871 236.997 264.871 236.996 264.871 236.996C264.871 236.995 264.871 236.995 264.871 236.994C264.871 236.994 264.871 236.993 264.871 236.993C264.871 236.992 264.871 236.992 264.871 236.991C264.871 236.991 264.871 236.99 264.871 236.99C264.871 236.989 264.871 236.989 264.871 236.988C264.871 236.988 264.871 236.987 264.871 236.987C264.871 236.986 264.871 236.986 264.871 236.985C264.871 236.985 264.871 236.984 264.871 236.984C264.871 236.983 264.871 236.983 264.871 236.982C264.871 236.982 264.871 236.981 264.871 236.981C264.871 236.98 264.871 236.98 264.871 236.979C264.871 236.979 264.871 236.978 264.871 236.978C264.871 236.977 264.871 236.977 264.871 236.976C264.871 236.976 264.871 236.975 264.871 236.975C264.871 236.974 264.871 236.974 264.871 236.973C264.871 236.973 264.871 236.972 264.871 236.972C264.871 236.971 264.871 236.971 264.871 236.97C264.871 236.97 264.871 236.969 264.871 236.969C264.871 236.968 264.871 236.968 264.871 236.967C264.871 236.967 264.871 236.966 264.871 236.966C264.871 236.965 264.871 236.965 264.871 236.964C264.871 236.964 264.871 236.963 264.871 236.963C264.871 236.962 264.871 236.962 264.871 236.961C264.871 236.961 264.871 236.96 264.871 236.96C264.871 236.959 264.871 236.959 264.871 236.958C264.871 236.958 264.871 236.957 264.871 236.957C264.871 236.956 264.871 236.956 264.871 236.955C264.871 236.955 264.871 236.954 264.871 236.954C264.871 236.953 264.871 236.953 264.871 236.952C264.871 236.952 264.871 236.951 264.871 236.951C264.871 236.95 264.871 236.95 264.871 236.949C264.871 236.949 264.871 236.948 264.871 236.948C264.871 236.947 264.871 236.947 264.871 236.946C264.871 236.946 264.871 236.945 264.871 236.945C264.871 236.944 264.871 236.944 264.871 236.943C264.871 236.943 264.871 236.942 264.871 236.942C264.871 236.941 264.871 236.941 264.871 236.94C264.871 236.94 264.871 236.939 264.871 236.939C264.871 236.938 264.871 236.938 264.871 236.937C264.871 236.937 264.871 236.936 264.871 236.936C264.871 236.935 264.871 236.935 264.871 236.934C264.871 236.934 264.871 236.933 264.871 236.933C264.871 236.932 264.871 236.932 264.871 236.931C264.871 236.931 264.871 236.93 264.871 236.93C264.871 236.929 264.871 236.929 264.871 236.928C264.871 236.928 264.871 236.927 264.871 236.927C264.871 236.926 264.871 236.926 264.871 236.925C264.871 236.925 264.871 236.924 264.871 236.924C264.871 236.923 264.871 236.923 264.871 236.922C264.871 236.922 264.871 236.921 264.871 236.921C264.871 236.92 264.871 236.92 264.871 236.919C264.871 236.919 264.871 236.918 264.871 236.918C264.871 236.917 264.871 236.917 264.871 236.916C264.871 236.916 264.871 236.915 264.871 236.915C264.871 236.914 264.871 236.914 264.871 236.913C264.871 236.913 264.871 236.912 264.871 236.912C264.871 236.911 264.871 236.911 264.871 236.91C264.871 236.91 264.871 236.909 264.871 236.909C264.871 236.908 264.871 236.908 264.871 236.907C264.871 236.907 264.871 236.906 264.871 236.906C264.871 236.905 264.871 236.905 264.871 236.904C264.871 236.904 264.871 236.903 264.871 236.903C264.871 236.902 264.871 236.902 264.871 236.901C264.871 236.901 264.871 236.9 264.871 236.9C264.871 236.899 264.871 236.899 264.871 236.898C264.871 236.898 264.871 236.897 264.871 236.897C264.871 236.896 264.871 236.896 264.871 236.895C264.871 236.895 264.871 236.894 264.871 236.894C264.871 236.893 264.871 236.893 264.871 236.892C264.871 236.892 264.871 236.891 264.871 236.891C264.871 236.89 264.871 236.89 264.871 236.889C264.871 236.889 264.871 236.888 264.871 236.888C264.871 236.887 264.871 236.887 264.871 236.886C264.871 236.886 264.871 236.885 264.871 236.885C264.871 236.884 264.871 236.884 264.871 236.883C264.871 236.883 264.871 236.882 264.871 236.882C264.871 236.881 264.871 236.881 264.871 236.88C264.871 236.88 264.871 236.879 264.871 236.879C264.871 236.878 264.871 236.878 264.871 236.877C264.871 236.877 264.871 236.876 264.871 236.876C264.871 236.875 264.871 236.875 264.871 236.874C264.871 236.874 264.871 236.873 264.871 236.873C264.871 236.872 264.871 236.872 264.871 236.871C264.871 236.871 264.871 236.87 264.871 236.87C264.871 236.869 264.871 236.869 264.871 236.868C264.871 236.868 264.871 236.867 264.871 236.867C264.871 236.866 264.871 236.866 264.871 236.865C264.871 236.865 264.871 236.864 264.871 236.864C264.871 236.863 264.871 236.863 264.871 236.862C264.871 236.862 264.871 236.861 264.871 236.861C264.871 236.86 264.871 236.86 264.871 236.859C264.871 236.859 264.871 236.858 264.871 236.858C264.871 236.857 264.871 236.857 264.871 236.856C264.871 236.856 264.871 236.855 264.871 236.855C264.871 236.854 264.871 236.854 264.871 236.853C264.871 236.853 264.871 236.852 264.871 236.852C264.871 236.851 264.871 236.851 264.871 236.85C264.871 236.85 264.871 236.849 264.871 236.849C264.871 236.848 264.871 236.848 264.871 236.847C264.871 236.847 264.871 236.846 264.871 236.846C264.871 236.845 264.871 236.845 264.871 236.844C264.871 236.844 264.871 236.843 264.871 236.843C264.871 236.842 264.871 236.842 264.871 236.841C264.871 236.841 264.871 236.84 264.871 236.84C264.871 236.839 264.871 236.839 264.871 236.838C264.871 236.838 264.871 236.837 264.871 236.837C264.871 236.836 264.871 236.836 264.871 236.835C264.871 236.835 264.871 236.834 264.871 236.834C264.871 236.833 264.871 236.833 264.871 236.832C264.871 236.832 264.871 236.831 264.871 236.831C264.871 236.83 264.871 236.83 264.871 236.829C264.871 236.829 264.871 236.828 264.871 236.828C264.871 236.827 264.871 236.827 264.871 236.826C264.871 236.826 264.871 236.825 264.871 236.825C264.871 236.824 264.871 236.824 264.871 236.823C264.871 236.823 264.871 236.822 264.871 236.822C264.871 236.821 264.871 236.821 264.871 236.82C264.871 236.82 264.871 236.819 264.871 236.819C264.871 236.818 264.871 236.818 264.871 236.817C264.871 236.817 264.871 236.816 264.871 236.816C264.871 236.815 264.871 236.815 264.871 236.814C264.871 236.814 264.871 236.813 264.871 236.813C264.871 236.812 264.871 236.812 264.871 236.811C264.871 236.811 264.871 236.81 264.871 236.81C264.871 236.809 264.871 236.809 264.871 236.808C264.871 236.808 264.871 236.807 264.871 236.807C264.871 236.806 264.871 236.806 264.871 236.805C264.871 236.805 264.871 236.804 264.871 236.804C264.871 236.803 264.871 236.803 264.871 236.802C264.871 236.802 264.871 236.801 264.871 236.801C264.871 236.8 264.871 236.8 264.871 236.799C264.871 236.799 264.871 236.798 264.871 236.798C264.871 236.797 264.871 236.797 264.871 236.796C264.871 236.796 264.871 236.795 264.871 236.795C264.871 236.794 264.871 236.794 264.871 236.793C264.871 236.793 264.871 236.792 264.871 236.792C264.871 236.791 264.871 236.791 264.871 236.79C264.871 236.79 264.871 236.789 264.871 236.789C264.871 236.788 264.871 236.788 264.871 236.787C264.871 236.787 264.871 236.786 264.871 236.786C264.871 236.785 264.871 236.785 264.871 236.784C264.871 236.784 264.871 236.783 264.871 236.783C264.871 236.782 264.871 236.782 264.871 236.781C264.871 236.781 264.871 236.78 264.871 236.78C264.871 236.779 264.871 236.779 264.871 236.778C264.871 236.778 264.871 236.777 264.871 236.777C264.871 236.776 264.871 236.776 264.871 236.775C264.871 236.775 264.871 236.774 264.871 236.774C264.871 236.773 264.871 236.773 264.871 236.772C264.871 236.772 264.871 236.771 264.871 236.771C264.871 236.77 264.871 236.77 264.871 236.769C264.871 236.769 264.871 236.768 264.871 236.768C264.871 236.767 264.871 236.767 264.871 236.766C264.871 236.766 264.871 236.765 264.871 236.765C264.871 236.764 264.871 236.764 264.871 236.763C264.871 236.763 264.871 236.762 264.871 236.762C264.871 236.761 264.871 236.761 264.871 236.76C264.871 236.76 264.871 236.759 264.871 236.759C264.871 236.758 264.871 236.758 264.871 236.757C264.871 236.757 264.871 236.756 264.871 236.756C264.871 236.755 264.871 236.755 264.871 236.754C264.871 236.754 264.871 236.753 264.871 236.753C264.871 236.752 264.871 236.752 264.871 236.751C264.871 236.751 264.871 236.75 264.871 236.75C264.871 236.749 264.871 236.749 264.871 236.748C264.871 236.748 264.871 236.747 264.871 236.747C264.871 236.746 264.871 236.746 264.871 236.745C264.871 236.745 264.871 236.744 264.871 236.744C264.871 236.743 264.871 236.743 264.871 236.742C264.871 236.742 264.871 236.741 264.871 236.741C264.871 236.74 264.871 236.74 264.871 236.739C264.871 236.739 264.871 236.738 264.871 236.738C264.871 236.737 264.871 236.737 264.871 236.736C264.871 236.736 264.871 236.735 264.871 236.735C264.871 236.734 264.871 236.734 264.871 236.733C264.871 236.733 264.871 236.732 264.871 236.732C264.871 236.731 264.871 236.731 264.871 236.73C264.871 236.73 264.871 236.729 264.871 236.729C264.871 236.728 264.871 236.728 264.871 236.727C264.871 236.727 264.871 236.726 264.871 236.726C264.871 236.725 264.871 236.725 264.871 236.724C264.871 236.723 264.871 236.723 264.871 236.722C264.871 236.722 264.871 236.721 264.871 236.721C264.871 236.72 264.871 236.72 264.871 236.719C264.871 236.719 264.871 236.718 264.871 236.718C264.871 236.717 264.871 236.717 264.871 236.716C264.871 236.716 264.871 236.715 264.871 236.715C264.871 236.714 264.871 236.714 264.871 236.713C264.871 236.713 264.871 236.712 264.871 236.712C264.871 236.711 264.871 236.711 264.871 236.71C264.871 236.71 264.871 236.709 264.871 236.709C264.871 236.708 264.871 236.708 264.871 236.707C264.871 236.707 264.871 236.706 264.871 236.706C264.871 236.705 264.871 236.705 264.871 236.704C264.871 236.704 264.871 236.703 264.871 236.703C264.871 236.702 264.871 236.702 264.871 236.701C264.871 236.701 264.871 236.7 264.871 236.7C264.871 236.699 264.871 236.699 264.871 236.698C264.871 236.698 264.871 236.697 264.871 236.697C264.871 236.696 264.871 236.696 264.871 236.695C264.871 236.695 264.871 236.694 264.871 236.694C264.871 236.693 264.871 236.693 264.871 236.692C264.871 236.692 264.871 236.691 264.871 236.691C264.871 236.69 264.871 236.69 264.871 236.689C264.871 236.689 264.871 236.688 264.871 236.688C264.871 236.687 264.871 236.687 264.871 236.686C264.871 236.686 264.871 236.685 264.871 236.685C264.871 236.684 264.871 236.684 264.871 236.683C264.871 236.683 264.871 236.682 264.871 236.682C264.871 236.681 264.871 236.681 264.871 236.68C264.871 236.68 264.871 236.679 264.871 236.679C264.871 236.678 264.871 236.678 264.871 236.677C264.871 236.677 264.871 236.676 264.871 236.676C264.871 236.675 264.871 236.675 264.871 236.674C264.871 236.674 264.871 236.673 264.871 236.673C264.871 236.672 264.871 236.672 264.871 236.671C264.871 236.671 264.871 236.67 264.871 236.67C264.871 236.669 264.871 236.669 264.871 236.668C264.871 236.668 264.871 236.667 264.871 236.667C264.871 236.666 264.871 236.666 264.871 236.665C264.871 236.665 264.871 236.664 264.871 236.664C264.871 236.663 264.871 236.663 264.871 236.662C264.871 236.662 264.871 236.661 264.871 236.661C264.871 236.66 264.871 236.66 264.871 236.659C264.871 236.659 264.871 236.658 264.871 236.658C264.871 236.657 264.871 236.657 264.871 236.656C264.871 236.656 264.871 236.655 264.871 236.655C264.871 236.654 264.871 236.654 264.871 236.653C264.871 236.653 264.871 236.652 264.871 236.652C264.871 236.651 264.871 236.651 264.871 236.65C264.871 236.65 264.871 236.649 264.871 236.649C264.871 236.648 264.871 236.648 264.871 236.647C264.871 236.647 264.871 236.646 264.871 236.646C264.871 236.645 264.871 236.645 264.871 236.644C264.871 236.644 264.871 236.643 264.871 236.643C264.871 236.642 264.871 236.642 264.871 236.641C264.871 236.641 264.871 236.64 264.871 236.64C264.871 236.639 264.871 236.639 264.871 236.638C264.871 236.638 264.871 236.637 264.871 236.637C264.871 236.636 264.871 236.636 264.871 236.635C264.871 236.635 264.871 236.634 264.871 236.634C264.871 236.633 264.871 236.633 264.871 236.632C264.871 236.632 264.871 236.631 264.871 236.631C264.871 236.63 264.871 236.63 264.871 236.629C264.871 236.629 264.871 236.628 264.871 236.628C264.871 236.627 264.871 236.627 264.871 236.626C264.871 236.626 264.871 236.625 264.871 236.625C264.871 236.624 264.871 236.624 264.871 236.623C264.871 236.623 264.871 236.622 264.871 236.622C264.871 236.621 264.871 236.621 264.871 236.62C264.871 236.62 264.871 236.619 264.871 236.619C264.871 236.618 264.871 236.618 264.871 236.617C264.871 236.617 264.871 236.616 264.871 236.616C264.871 236.615 264.871 236.615 264.871 236.614C264.871 236.614 264.871 236.613 264.871 236.613C264.871 236.612 264.871 236.612 264.871 236.611C264.871 236.611 264.871 236.61 264.871 236.61C264.871 236.609 264.871 236.609 264.871 236.608C264.871 236.608 264.871 236.607 264.871 236.607C264.871 236.606 264.871 236.606 264.871 236.605C264.871 236.605 264.871 236.604 264.871 236.604C264.871 236.603 264.871 236.603 264.871 236.602C264.871 236.602 264.871 236.601 264.871 236.601C264.871 236.6 264.871 236.6 264.871 236.599C264.871 236.599 264.871 236.598 264.871 236.598C264.871 236.597 264.871 236.597 264.871 236.596C264.871 236.596 264.871 236.595 264.871 236.595C264.871 236.594 264.871 236.594 264.871 236.593C264.871 236.593 264.871 236.592 264.871 236.592C264.871 236.591 264.871 236.591 264.871 236.59C264.871 236.59 264.871 236.589 264.871 236.589C264.871 236.588 264.871 236.588 264.871 236.587C264.871 236.587 264.871 236.586 264.871 236.586C264.871 236.585 264.871 236.585 264.871 236.584C264.871 236.584 264.871 236.583 264.871 236.583H261.238H257.606C257.606 236.583 257.606 236.584 257.606 236.584C257.606 236.585 257.606 236.585 257.606 236.586C257.606 236.586 257.606 236.587 257.606 236.587C257.606 236.588 257.606 236.588 257.606 236.589C257.606 236.589 257.606 236.59 257.606 236.59C257.606 236.591 257.606 236.591 257.606 236.592C257.606 236.592 257.606 236.593 257.606 236.593C257.606 236.594 257.606 236.594 257.606 236.595C257.606 236.595 257.606 236.596 257.606 236.596C257.606 236.597 257.606 236.597 257.606 236.598C257.606 236.598 257.606 236.599 257.606 236.599C257.606 236.6 257.606 236.6 257.606 236.601C257.606 236.601 257.606 236.602 257.606 236.602C257.606 236.603 257.606 236.603 257.606 236.604C257.606 236.604 257.606 236.605 257.606 236.605C257.606 236.606 257.606 236.606 257.606 236.607C257.606 236.607 257.606 236.608 257.606 236.608C257.606 236.609 257.606 236.609 257.606 236.61C257.606 236.61 257.606 236.611 257.606 236.611C257.606 236.612 257.606 236.612 257.606 236.613C257.606 236.613 257.606 236.614 257.606 236.614C257.606 236.615 257.606 236.615 257.606 236.616C257.606 236.616 257.606 236.617 257.606 236.617C257.606 236.618 257.606 236.618 257.606 236.619C257.606 236.619 257.606 236.62 257.606 236.62C257.606 236.621 257.606 236.621 257.606 236.622C257.606 236.622 257.606 236.623 257.606 236.623C257.606 236.624 257.606 236.624 257.606 236.625C257.606 236.625 257.606 236.626 257.606 236.626C257.606 236.627 257.606 236.627 257.606 236.628C257.606 236.628 257.606 236.629 257.606 236.629C257.606 236.63 257.606 236.63 257.606 236.631C257.606 236.631 257.606 236.632 257.606 236.632C257.606 236.633 257.606 236.633 257.606 236.634C257.606 236.634 257.606 236.635 257.606 236.635C257.606 236.636 257.606 236.636 257.606 236.637C257.606 236.637 257.606 236.638 257.606 236.638C257.606 236.639 257.606 236.639 257.606 236.64C257.606 236.64 257.606 236.641 257.606 236.641C257.606 236.642 257.606 236.642 257.606 236.643C257.606 236.643 257.606 236.644 257.606 236.644C257.606 236.645 257.606 236.645 257.606 236.646C257.606 236.646 257.606 236.647 257.606 236.647C257.606 236.648 257.606 236.648 257.606 236.649C257.606 236.649 257.606 236.65 257.606 236.65C257.606 236.651 257.606 236.651 257.606 236.652C257.606 236.652 257.606 236.653 257.606 236.653C257.606 236.654 257.606 236.654 257.606 236.655C257.606 236.655 257.606 236.656 257.606 236.656C257.606 236.657 257.606 236.657 257.606 236.658C257.606 236.658 257.606 236.659 257.606 236.659C257.606 236.66 257.606 236.66 257.606 236.661C257.606 236.661 257.606 236.662 257.606 236.662C257.606 236.663 257.606 236.663 257.606 236.664C257.606 236.664 257.606 236.665 257.606 236.665C257.606 236.666 257.606 236.666 257.606 236.667C257.606 236.667 257.606 236.668 257.606 236.668C257.606 236.669 257.606 236.669 257.606 236.67C257.606 236.67 257.606 236.671 257.606 236.671C257.606 236.672 257.606 236.672 257.606 236.673C257.606 236.673 257.606 236.674 257.606 236.674C257.606 236.675 257.606 236.675 257.606 236.676C257.606 236.676 257.606 236.677 257.606 236.677C257.606 236.678 257.606 236.678 257.606 236.679C257.606 236.679 257.606 236.68 257.606 236.68C257.606 236.681 257.606 236.681 257.606 236.682C257.606 236.682 257.606 236.683 257.606 236.683C257.606 236.684 257.606 236.684 257.606 236.685C257.606 236.685 257.606 236.686 257.606 236.686C257.606 236.687 257.606 236.687 257.606 236.688C257.606 236.688 257.606 236.689 257.606 236.689C257.606 236.69 257.606 236.69 257.606 236.691C257.606 236.691 257.606 236.692 257.606 236.692C257.606 236.693 257.606 236.693 257.606 236.694C257.606 236.694 257.606 236.695 257.606 236.695C257.606 236.696 257.606 236.696 257.606 236.697C257.606 236.697 257.606 236.698 257.606 236.698C257.606 236.699 257.606 236.699 257.606 236.7C257.606 236.7 257.606 236.701 257.606 236.701C257.606 236.702 257.606 236.702 257.606 236.703C257.606 236.703 257.606 236.704 257.606 236.704C257.606 236.705 257.606 236.705 257.606 236.706C257.606 236.706 257.606 236.707 257.606 236.707C257.606 236.708 257.606 236.708 257.606 236.709C257.606 236.709 257.606 236.71 257.606 236.71C257.606 236.711 257.606 236.711 257.606 236.712C257.606 236.712 257.606 236.713 257.606 236.713C257.606 236.714 257.606 236.714 257.606 236.715C257.606 236.715 257.606 236.716 257.606 236.716C257.606 236.717 257.606 236.717 257.606 236.718C257.606 236.718 257.606 236.719 257.606 236.719C257.606 236.72 257.606 236.72 257.606 236.721C257.606 236.721 257.606 236.722 257.606 236.722C257.606 236.723 257.606 236.723 257.606 236.724C257.606 236.725 257.606 236.725 257.606 236.726C257.606 236.726 257.606 236.727 257.606 236.727C257.606 236.728 257.606 236.728 257.606 236.729C257.606 236.729 257.606 236.73 257.606 236.73C257.606 236.731 257.606 236.731 257.606 236.732C257.606 236.732 257.606 236.733 257.606 236.733C257.606 236.734 257.606 236.734 257.606 236.735C257.606 236.735 257.606 236.736 257.606 236.736C257.606 236.737 257.606 236.737 257.606 236.738C257.606 236.738 257.606 236.739 257.606 236.739C257.606 236.74 257.606 236.74 257.606 236.741C257.606 236.741 257.606 236.742 257.606 236.742C257.606 236.743 257.606 236.743 257.606 236.744C257.606 236.744 257.606 236.745 257.606 236.745C257.606 236.746 257.606 236.746 257.606 236.747C257.606 236.747 257.606 236.748 257.606 236.748C257.606 236.749 257.606 236.749 257.606 236.75C257.606 236.75 257.606 236.751 257.606 236.751C257.606 236.752 257.606 236.752 257.606 236.753C257.606 236.753 257.606 236.754 257.606 236.754C257.606 236.755 257.606 236.755 257.606 236.756C257.606 236.756 257.606 236.757 257.606 236.757C257.606 236.758 257.606 236.758 257.606 236.759C257.606 236.759 257.606 236.76 257.606 236.76C257.606 236.761 257.606 236.761 257.606 236.762C257.606 236.762 257.606 236.763 257.606 236.763C257.606 236.764 257.606 236.764 257.606 236.765C257.606 236.765 257.606 236.766 257.606 236.766C257.606 236.767 257.606 236.767 257.606 236.768C257.606 236.768 257.606 236.769 257.606 236.769C257.606 236.77 257.606 236.77 257.606 236.771C257.606 236.771 257.606 236.772 257.606 236.772C257.606 236.773 257.606 236.773 257.606 236.774C257.606 236.774 257.606 236.775 257.606 236.775C257.606 236.776 257.606 236.776 257.606 236.777C257.606 236.777 257.606 236.778 257.606 236.778C257.606 236.779 257.606 236.779 257.606 236.78C257.606 236.78 257.606 236.781 257.606 236.781C257.606 236.782 257.606 236.782 257.606 236.783C257.606 236.783 257.606 236.784 257.606 236.784C257.606 236.785 257.606 236.785 257.606 236.786C257.606 236.786 257.606 236.787 257.606 236.787C257.606 236.788 257.606 236.788 257.606 236.789C257.606 236.789 257.606 236.79 257.606 236.79C257.606 236.791 257.606 236.791 257.606 236.792C257.606 236.792 257.606 236.793 257.606 236.793C257.606 236.794 257.606 236.794 257.606 236.795C257.606 236.795 257.606 236.796 257.606 236.796C257.606 236.797 257.606 236.797 257.606 236.798C257.606 236.798 257.606 236.799 257.606 236.799C257.606 236.8 257.606 236.8 257.606 236.801C257.606 236.801 257.606 236.802 257.606 236.802C257.606 236.803 257.606 236.803 257.606 236.804C257.606 236.804 257.606 236.805 257.606 236.805C257.606 236.806 257.606 236.806 257.606 236.807C257.606 236.807 257.606 236.808 257.606 236.808C257.606 236.809 257.606 236.809 257.606 236.81C257.606 236.81 257.606 236.811 257.606 236.811C257.606 236.812 257.606 236.812 257.606 236.813C257.606 236.813 257.606 236.814 257.606 236.814C257.606 236.815 257.606 236.815 257.606 236.816C257.606 236.816 257.606 236.817 257.606 236.817C257.606 236.818 257.606 236.818 257.606 236.819C257.606 236.819 257.606 236.82 257.606 236.82C257.606 236.821 257.606 236.821 257.606 236.822C257.606 236.822 257.606 236.823 257.606 236.823C257.606 236.824 257.606 236.824 257.606 236.825C257.606 236.825 257.606 236.826 257.606 236.826C257.606 236.827 257.606 236.827 257.606 236.828C257.606 236.828 257.606 236.829 257.606 236.829C257.606 236.83 257.606 236.83 257.606 236.831C257.606 236.831 257.606 236.832 257.606 236.832C257.606 236.833 257.606 236.833 257.606 236.834C257.606 236.834 257.606 236.835 257.606 236.835C257.606 236.836 257.606 236.836 257.606 236.837C257.606 236.837 257.606 236.838 257.606 236.838C257.606 236.839 257.606 236.839 257.606 236.84C257.606 236.84 257.606 236.841 257.606 236.841C257.606 236.842 257.606 236.842 257.606 236.843C257.606 236.843 257.606 236.844 257.606 236.844C257.606 236.845 257.606 236.845 257.606 236.846C257.606 236.846 257.606 236.847 257.606 236.847C257.606 236.848 257.606 236.848 257.606 236.849C257.606 236.849 257.606 236.85 257.606 236.85C257.606 236.851 257.606 236.851 257.606 236.852C257.606 236.852 257.606 236.853 257.606 236.853C257.606 236.854 257.606 236.854 257.606 236.855C257.606 236.855 257.606 236.856 257.606 236.856C257.606 236.857 257.606 236.857 257.606 236.858C257.606 236.858 257.606 236.859 257.606 236.859C257.606 236.86 257.606 236.86 257.606 236.861C257.606 236.861 257.606 236.862 257.606 236.862C257.606 236.863 257.606 236.863 257.606 236.864C257.606 236.864 257.606 236.865 257.606 236.865C257.606 236.866 257.606 236.866 257.606 236.867C257.606 236.867 257.606 236.868 257.606 236.868C257.606 236.869 257.606 236.869 257.606 236.87C257.606 236.87 257.606 236.871 257.606 236.871C257.606 236.872 257.606 236.872 257.606 236.873C257.606 236.873 257.606 236.874 257.606 236.874C257.606 236.875 257.606 236.875 257.606 236.876C257.606 236.876 257.606 236.877 257.606 236.877C257.606 236.878 257.606 236.878 257.606 236.879C257.606 236.879 257.606 236.88 257.606 236.88C257.606 236.881 257.606 236.881 257.606 236.882C257.606 236.882 257.606 236.883 257.606 236.883C257.606 236.884 257.606 236.884 257.606 236.885C257.606 236.885 257.606 236.886 257.606 236.886C257.606 236.887 257.606 236.887 257.606 236.888C257.606 236.888 257.606 236.889 257.606 236.889C257.606 236.89 257.606 236.89 257.606 236.891C257.606 236.891 257.606 236.892 257.606 236.892C257.606 236.893 257.606 236.893 257.606 236.894C257.606 236.894 257.606 236.895 257.606 236.895C257.606 236.896 257.606 236.896 257.606 236.897C257.606 236.897 257.606 236.898 257.606 236.898C257.606 236.899 257.606 236.899 257.606 236.9C257.606 236.9 257.606 236.901 257.606 236.901C257.606 236.902 257.606 236.902 257.606 236.903C257.606 236.903 257.606 236.904 257.606 236.904C257.606 236.905 257.606 236.905 257.606 236.906C257.606 236.906 257.606 236.907 257.606 236.907C257.606 236.908 257.606 236.908 257.606 236.909C257.606 236.909 257.606 236.91 257.606 236.91C257.606 236.911 257.606 236.911 257.606 236.912C257.606 236.912 257.606 236.913 257.606 236.913C257.606 236.914 257.606 236.914 257.606 236.915C257.606 236.915 257.606 236.916 257.606 236.916C257.606 236.917 257.606 236.917 257.606 236.918C257.606 236.918 257.606 236.919 257.606 236.919C257.606 236.92 257.606 236.92 257.606 236.921C257.606 236.921 257.606 236.922 257.606 236.922C257.606 236.923 257.606 236.923 257.606 236.924C257.606 236.924 257.606 236.925 257.606 236.925C257.606 236.926 257.606 236.926 257.606 236.927C257.606 236.927 257.606 236.928 257.606 236.928C257.606 236.929 257.606 236.929 257.606 236.93C257.606 236.93 257.606 236.931 257.606 236.931C257.606 236.932 257.606 236.932 257.606 236.933C257.606 236.933 257.606 236.934 257.606 236.934C257.606 236.935 257.606 236.935 257.606 236.936C257.606 236.936 257.606 236.937 257.606 236.937C257.606 236.938 257.606 236.938 257.606 236.939C257.606 236.939 257.606 236.94 257.606 236.94C257.606 236.941 257.606 236.941 257.606 236.942C257.606 236.942 257.606 236.943 257.606 236.943C257.606 236.944 257.606 236.944 257.606 236.945C257.606 236.945 257.606 236.946 257.606 236.946C257.606 236.947 257.606 236.947 257.606 236.948C257.606 236.948 257.606 236.949 257.606 236.949C257.606 236.95 257.606 236.95 257.606 236.951C257.606 236.951 257.606 236.952 257.606 236.952C257.606 236.953 257.606 236.953 257.606 236.954C257.606 236.954 257.606 236.955 257.606 236.955C257.606 236.956 257.606 236.956 257.606 236.957C257.606 236.957 257.606 236.958 257.606 236.958C257.606 236.959 257.606 236.959 257.606 236.96C257.606 236.96 257.606 236.961 257.606 236.961C257.606 236.962 257.606 236.962 257.606 236.963C257.606 236.963 257.606 236.964 257.606 236.964C257.606 236.965 257.606 236.965 257.606 236.966C257.606 236.966 257.606 236.967 257.606 236.967C257.606 236.968 257.606 236.968 257.606 236.969C257.606 236.969 257.606 236.97 257.606 236.97C257.606 236.971 257.606 236.971 257.606 236.972C257.606 236.972 257.606 236.973 257.606 236.973C257.606 236.974 257.606 236.974 257.606 236.975C257.606 236.975 257.606 236.976 257.606 236.976C257.606 236.977 257.606 236.977 257.606 236.978C257.606 236.978 257.606 236.979 257.606 236.979C257.606 236.98 257.606 236.98 257.606 236.981C257.606 236.981 257.606 236.982 257.606 236.982C257.606 236.983 257.606 236.983 257.606 236.984C257.606 236.984 257.606 236.985 257.606 236.985C257.606 236.986 257.606 236.986 257.606 236.987C257.606 236.987 257.606 236.988 257.606 236.988C257.606 236.989 257.606 236.989 257.606 236.99C257.606 236.99 257.606 236.991 257.606 236.991C257.606 236.992 257.606 236.992 257.606 236.993C257.606 236.993 257.606 236.994 257.606 236.994C257.606 236.995 257.606 236.995 257.606 236.996C257.606 236.996 257.606 236.997 257.606 236.997C257.606 236.998 257.606 236.998 257.606 236.999C257.606 236.999 257.606 237 257.606 237C257.606 237.001 257.606 237.001 257.606 237.002C257.606 237.002 257.606 237.003 257.606 237.003C257.606 237.004 257.606 237.004 257.606 237.005C257.606 237.005 257.606 237.006 257.606 237.006C257.606 237.007 257.606 237.007 257.606 237.008C257.606 237.008 257.606 237.009 257.606 237.009C257.606 237.01 257.606 237.01 257.606 237.011C257.606 237.011 257.606 237.012 257.606 237.012C257.606 237.013 257.606 237.013 257.606 237.014C257.606 237.014 257.606 237.015 257.606 237.015C257.606 237.016 257.606 237.016 257.606 237.017C257.606 237.017 257.606 237.018 257.606 237.018C257.606 237.019 257.606 237.019 257.606 237.02C257.606 237.02 257.606 237.021 257.606 237.021C257.606 237.022 257.606 237.022 257.606 237.023C257.606 237.023 257.606 237.024 257.606 237.024C257.606 237.025 257.606 237.025 257.606 237.026C257.606 237.026 257.606 237.027 257.606 237.027C257.606 237.028 257.606 237.028 257.606 237.029C257.606 237.029 257.606 237.03 257.606 237.03C257.606 237.031 257.606 237.031 257.606 237.032C257.606 237.032 257.606 237.033 257.606 237.033C257.606 237.034 257.606 237.034 257.606 237.035C257.606 237.035 257.606 237.036 257.606 237.036C257.606 237.037 257.606 237.037 257.606 237.038C257.606 237.038 257.606 237.039 257.606 237.039C257.606 237.04 257.606 237.04 257.606 237.041C257.606 237.041 257.606 237.042 257.606 237.042C257.606 237.043 257.606 237.043 257.606 237.044C257.606 237.044 257.606 237.045 257.606 237.045C257.606 237.046 257.606 237.046 257.606 237.047C257.606 237.047 257.606 237.048 257.606 237.048C257.606 237.049 257.606 237.049 257.606 237.05C257.606 237.05 257.606 237.051 257.606 237.051C257.606 237.052 257.606 237.052 257.606 237.053C257.606 237.053 257.606 237.054 257.606 237.054C257.606 237.055 257.606 237.055 257.606 237.056C257.606 237.056 257.606 237.057 257.606 237.057C257.606 237.058 257.606 237.058 257.606 237.059C257.606 237.059 257.606 237.06 257.606 237.06C257.606 237.061 257.606 237.061 257.606 237.062C257.606 237.062 257.606 237.063 257.606 237.063C257.606 237.064 257.606 237.064 257.606 237.065C257.606 237.065 257.606 237.066 257.606 237.066C257.606 237.067 257.606 237.067 257.606 237.068C257.606 237.068 257.606 237.069 257.606 237.069C257.606 237.07 257.606 237.07 257.606 237.071C257.606 237.071 257.606 237.072 257.606 237.072C257.606 237.073 257.606 237.073 257.606 237.074C257.606 237.074 257.606 237.075 257.606 237.075C257.606 237.076 257.606 237.076 257.606 237.077C257.606 237.077 257.606 237.078 257.606 237.078C257.606 237.079 257.606 237.079 257.606 237.08C257.606 237.08 257.606 237.081 257.606 237.081C257.606 237.082 257.606 237.082 257.606 237.083C257.606 237.083 257.606 237.084 257.606 237.084C257.606 237.085 257.606 237.085 257.606 237.086C257.606 237.086 257.606 237.087 257.606 237.087C257.606 237.088 257.606 237.088 257.606 237.089C257.606 237.089 257.606 237.09 257.606 237.09C257.606 237.091 257.606 237.091 257.606 237.092C257.606 237.092 257.606 237.093 257.606 237.093C257.606 237.094 257.606 237.094 257.606 237.095C257.606 237.095 257.606 237.096 257.606 237.096C257.606 237.097 257.606 237.097 257.606 237.098C257.606 237.098 257.606 237.099 257.606 237.099C257.606 237.1 257.606 237.1 257.606 237.101C257.606 237.101 257.606 237.102 257.606 237.102C257.606 237.103 257.606 237.103 257.606 237.104C257.606 237.104 257.606 237.105 257.606 237.105C257.606 237.106 257.606 237.106 257.606 237.107C257.606 237.107 257.606 237.108 257.606 237.108C257.606 237.109 257.606 237.109 257.606 237.11C257.606 237.11 257.606 237.111 257.606 237.111C257.606 237.112 257.606 237.112 257.606 237.113C257.606 237.113 257.606 237.114 257.606 237.114C257.606 237.115 257.606 237.115 257.606 237.116C257.606 237.116 257.606 237.117 257.606 237.117C257.606 237.118 257.606 237.118 257.606 237.119C257.606 237.119 257.606 237.12 257.606 237.12C257.606 237.121 257.606 237.121 257.606 237.122C257.606 237.122 257.606 237.123 257.606 237.123C257.606 237.124 257.606 237.124 257.606 237.125C257.606 237.125 257.606 237.126 257.606 237.126C257.606 237.127 257.606 237.127 257.606 237.128C257.606 237.128 257.606 237.129 257.606 237.129C257.606 237.13 257.606 237.13 257.606 237.131C257.606 237.131 257.606 237.132 257.606 237.132C257.606 237.133 257.606 237.133 257.606 237.134C257.606 237.134 257.606 237.135 257.606 237.135C257.606 237.136 257.606 237.136 257.606 237.137C257.606 237.137 257.606 237.138 257.606 237.138C257.606 237.139 257.606 237.139 257.606 237.14C257.606 237.14 257.606 237.141 257.606 237.141C257.606 237.142 257.606 237.142 257.606 237.143C257.606 237.143 257.606 237.144 257.606 237.144C257.606 237.145 257.606 237.145 257.606 237.146C257.606 237.146 257.606 237.147 257.606 237.147C257.606 237.148 257.606 237.148 257.606 237.149C257.606 237.149 257.606 237.15 257.606 237.15C257.606 237.151 257.606 237.151 257.606 237.152C257.606 237.152 257.606 237.153 257.606 237.153C257.606 237.154 257.606 237.154 257.606 237.155C257.606 237.155 257.606 237.156 257.606 237.156C257.606 237.157 257.606 237.157 257.606 237.158C257.606 237.158 257.606 237.159 257.606 237.159C257.606 237.16 257.606 237.16 257.606 237.161C257.606 237.161 257.606 237.162 257.606 237.162C257.606 237.163 257.606 237.163 257.606 237.164C257.606 237.164 257.606 237.165 257.606 237.165C257.606 237.166 257.606 237.166 257.606 237.167C257.606 237.167 257.606 237.168 257.606 237.168C257.606 237.169 257.606 237.169 257.606 237.17C257.606 237.17 257.606 237.171 257.606 237.171C257.606 237.172 257.606 237.172 257.606 237.173C257.606 237.173 257.606 237.174 257.606 237.174C257.606 237.175 257.606 237.175 257.606 237.176C257.606 237.176 257.606 237.177 257.606 237.177C257.606 237.178 257.606 237.178 257.606 237.179C257.606 237.179 257.606 237.18 257.606 237.18C257.606 237.181 257.606 237.181 257.606 237.182C257.606 237.182 257.606 237.183 257.606 237.183C257.606 237.184 257.606 237.184 257.606 237.185C257.606 237.185 257.606 237.186 257.606 237.186C257.606 237.187 257.606 237.187 257.606 237.188C257.606 237.188 257.606 237.189 257.606 237.189C257.606 237.19 257.606 237.19 257.606 237.191C257.606 237.191 257.606 237.192 257.606 237.192C257.606 237.193 257.606 237.193 257.606 237.194C257.606 237.194 257.606 237.195 257.606 237.195C257.606 237.196 257.606 237.196 257.606 237.197C257.606 237.197 257.606 237.198 257.606 237.198C257.606 237.199 257.606 237.199 257.606 237.2C257.606 237.2 257.606 237.201 257.606 237.201C257.606 237.202 257.606 237.202 257.606 237.203C257.606 237.203 257.606 237.204 257.606 237.204C257.606 237.205 257.606 237.205 257.606 237.206C257.606 237.206 257.606 237.207 257.606 237.207C257.606 237.208 257.606 237.208 257.606 237.209C257.606 237.209 257.606 237.21 257.606 237.21C257.606 237.211 257.606 237.211 257.606 237.212C257.606 237.212 257.606 237.213 257.606 237.213C257.606 237.214 257.606 237.214 257.606 237.215C257.606 237.215 257.606 237.216 257.606 237.216C257.606 237.217 257.606 237.217 257.606 237.218C257.606 237.218 257.606 237.219 257.606 237.219C257.606 237.22 257.606 237.22 257.606 237.221C257.606 237.221 257.606 237.222 257.606 237.222C257.606 237.223 257.606 237.223 257.606 237.224C257.606 237.224 257.606 237.225 257.606 237.225C257.606 237.226 257.606 237.226 257.606 237.227C257.606 237.227 257.606 237.228 257.606 237.228C257.606 237.229 257.606 237.229 257.606 237.23C257.606 237.23 257.606 237.231 257.606 237.231C257.606 237.232 257.606 237.232 257.606 237.233C257.606 237.233 257.606 237.234 257.606 237.234C257.606 237.235 257.606 237.235 257.606 237.236C257.606 237.236 257.606 237.237 257.606 237.237C257.606 237.238 257.606 237.238 257.606 237.239C257.606 237.239 257.606 237.24 257.606 237.24C257.606 237.241 257.606 237.241 257.606 237.242C257.606 237.242 257.606 237.243 257.606 237.243C257.606 237.244 257.606 237.244 257.606 237.245C257.606 237.245 257.606 237.246 257.606 237.246C257.606 237.247 257.606 237.247 257.606 237.248C257.606 237.248 257.606 237.249 257.606 237.249C257.606 237.25 257.606 237.25 257.606 237.251C257.606 237.251 257.606 237.252 257.606 237.252C257.606 237.253 257.606 237.253 257.606 237.254C257.606 237.254 257.606 237.255 257.606 237.255C257.606 237.256 257.606 237.256 257.606 237.257C257.606 237.257 257.606 237.258 257.606 237.258C257.606 237.259 257.606 237.259 257.606 237.26C257.606 237.26 257.606 237.261 257.606 237.261C257.606 237.262 257.606 237.262 257.606 237.263C257.606 237.263 257.606 237.264 257.606 237.264C257.606 237.265 257.606 237.265 257.606 237.266C257.606 237.266 257.606 237.267 257.606 237.267C257.606 237.268 257.606 237.268 257.606 237.269C257.606 237.269 257.606 237.27 257.606 237.27C257.606 237.271 257.606 237.271 257.606 237.272C257.606 237.272 257.606 237.273 257.606 237.273C257.606 237.274 257.606 237.274 257.606 237.275C257.606 237.275 257.606 237.276 257.606 237.276C257.606 237.277 257.606 237.277 257.606 237.278C257.606 237.278 257.606 237.279 257.606 237.279C257.606 237.28 257.606 237.28 257.606 237.281C257.606 237.281 257.606 237.282 257.606 237.282C257.606 237.283 257.606 237.283 257.606 237.284C257.606 237.284 257.606 237.285 257.606 237.285C257.606 237.286 257.606 237.286 257.606 237.287C257.606 237.287 257.606 237.288 257.606 237.288C257.606 237.289 257.606 237.289 257.606 237.29C257.606 237.29 257.606 237.291 257.606 237.291C257.606 237.292 257.606 237.292 257.606 237.293C257.606 237.293 257.606 237.294 257.606 237.294C257.606 237.295 257.606 237.295 257.606 237.296C257.606 237.296 257.606 237.297 257.606 237.297C257.606 237.298 257.606 237.298 257.606 237.299C257.606 237.299 257.606 237.3 257.606 237.3C257.606 237.301 257.606 237.301 257.606 237.302C257.606 237.302 257.606 237.303 257.606 237.303C257.606 237.304 257.606 237.304 257.606 237.305C257.606 237.305 257.606 237.306 257.606 237.306C257.606 237.307 257.606 237.307 257.606 237.308C257.606 237.308 257.606 237.309 257.606 237.309C257.606 237.31 257.606 237.31 257.606 237.311C257.606 237.311 257.606 237.312 257.606 237.312C257.606 237.313 257.606 237.313 257.606 237.314C257.606 237.314 257.606 237.315 257.606 237.315C257.606 237.316 257.606 237.316 257.606 237.317C257.606 237.317 257.606 237.318 257.606 237.318C257.606 237.319 257.606 237.319 257.606 237.32C257.606 237.32 257.606 237.321 257.606 237.321C257.606 237.322 257.606 237.322 257.606 237.323C257.606 237.323 257.606 237.324 257.606 237.324C257.606 237.325 257.606 237.325 257.606 237.326C257.606 237.326 257.606 237.327 257.606 237.327C257.606 237.328 257.606 237.328 257.606 237.329C257.606 237.329 257.606 237.33 257.606 237.33C257.606 237.331 257.606 237.331 257.606 237.332C257.606 237.332 257.606 237.333 257.606 237.333C257.606 237.334 257.606 237.334 257.606 237.335C257.606 237.335 257.606 237.336 257.606 237.336C257.606 237.337 257.606 237.337 257.606 237.338C257.606 237.338 257.606 237.339 257.606 237.339C257.606 237.34 257.606 237.34 257.606 237.341C257.606 237.341 257.606 237.342 257.606 237.342C257.606 237.343 257.606 237.343 257.606 237.344C257.606 237.344 257.606 237.345 257.606 237.345C257.606 237.346 257.606 237.346 257.606 237.347C257.606 237.347 257.606 237.348 257.606 237.348C257.606 237.349 257.606 237.349 257.606 237.35C257.606 237.35 257.606 237.351 257.606 237.351H261.238ZM261.238 236.583L264.487 238.207C264.689 237.804 265.274 236.746 266.314 234.926L263.16 233.124L260.006 231.322C258.996 233.089 258.3 234.337 257.989 234.958L261.238 236.583ZM263.16 233.124L266.084 235.279C269.664 230.421 273.756 224.921 278.363 218.779L275.457 216.599L272.551 214.42C267.935 220.575 263.83 226.091 260.235 230.969L263.16 233.124ZM275.457 216.599L278.305 218.854C283.165 212.715 288.282 206.319 293.655 199.667L290.829 197.384L288.004 195.102C282.617 201.771 277.485 208.186 272.609 214.345L275.457 216.599ZM290.829 197.384L293.628 199.7C299.79 192.255 305.951 184.681 312.112 176.98L309.276 174.71L306.439 172.441C300.303 180.112 294.167 187.654 288.031 195.068L290.829 197.384ZM309.276 174.71L312.148 176.934C318.316 168.967 323.723 161.759 328.364 155.312L325.417 153.19L322.469 151.067C317.887 157.43 312.533 164.569 306.404 172.487L309.276 174.71ZM325.417 153.19L325.761 149.573C320.291 149.052 313.939 148.664 306.715 148.406L306.586 152.037L306.456 155.667C313.58 155.921 319.782 156.302 325.072 156.806L325.417 153.19ZM306.586 152.037L306.854 148.414C299.831 147.894 292.053 147.636 283.528 147.636V151.268V154.901C291.911 154.901 299.506 155.155 306.317 155.659L306.586 152.037ZM283.528 151.268V147.636C273.443 147.636 263.106 148.023 252.519 148.798L252.784 152.421L253.049 156.044C263.469 155.281 273.629 154.901 283.528 154.901V151.268ZM252.784 152.421L252.519 148.798C242.002 149.568 232.251 150.337 223.267 151.108L223.577 154.727L223.887 158.346C232.837 157.579 242.557 156.811 253.049 156.044L252.784 152.421ZM223.577 154.727L223.258 151.108C214.517 151.879 207.162 152.653 201.202 153.431L201.672 157.033L202.141 160.635C207.967 159.875 215.215 159.111 223.896 158.345L223.577 154.727ZM201.672 157.033L201.181 153.433C198.367 153.817 196.205 154.103 194.688 154.293C193.009 154.503 192.415 154.553 192.448 154.553V158.185V161.818C192.994 161.818 194.194 161.676 195.589 161.502C197.146 161.307 199.34 161.017 202.162 160.632L201.672 157.033ZM192.448 158.185V154.553C190.477 154.553 188.901 153.954 187.539 152.762L185.147 155.495L182.755 158.229C185.491 160.624 188.784 161.818 192.448 161.818V158.185ZM185.147 155.495L187.715 152.927C186.671 151.882 185.731 150.043 185.284 146.911L181.688 147.425L178.092 147.939C178.669 151.981 180.036 155.521 182.578 158.064L185.147 155.495ZM181.688 147.425H185.321C185.321 145.298 185.884 143.885 186.752 142.872L183.994 140.508L181.236 138.144C179.03 140.717 178.055 143.915 178.055 147.425H181.688ZM183.994 140.508L186.562 143.076C187.767 141.871 189.372 141.021 191.561 140.623L190.911 137.049L190.261 133.475C186.814 134.102 183.807 135.557 181.425 137.939L183.994 140.508ZM190.911 137.049V140.681C191.457 140.681 192.656 140.54 194.052 140.365C195.609 140.171 197.803 139.88 200.625 139.495L200.134 135.896L199.644 132.297C196.83 132.681 194.668 132.967 193.151 133.156C191.472 133.366 190.878 133.416 190.911 133.416V137.049ZM200.134 135.896L200.604 139.498C206.43 138.738 213.677 137.975 222.359 137.209L222.04 133.59L221.72 129.972C212.98 130.743 205.625 131.517 199.665 132.294L200.134 135.896ZM222.04 133.59L222.452 137.199C231.359 136.181 241.171 135.289 251.89 134.523L251.631 130.9L251.372 127.277C240.57 128.048 230.654 128.95 221.627 129.981L222.04 133.59ZM251.631 130.9L251.89 134.523C262.566 133.761 273.112 133.38 283.528 133.38V129.747V126.115C272.935 126.115 262.216 126.502 251.372 127.277L251.631 130.9ZM283.528 129.747V133.38C296.013 133.38 306.927 133.762 316.284 134.521L316.578 130.9L316.871 127.279C307.269 126.501 296.151 126.115 283.528 126.115V129.747ZM316.578 130.9L316.292 134.521C325.999 135.288 333.745 136.051 339.55 136.808L340.02 133.206L340.49 129.604C334.51 128.824 326.627 128.05 316.864 127.279L316.578 130.9ZM340.02 133.206L342.345 135.996C343.065 135.397 344.213 134.917 346.169 134.917V131.284V127.652C343 127.652 340.05 128.453 337.695 130.415L340.02 133.206ZM346.169 131.284V134.917C347.128 134.917 348.473 135.163 350.274 135.839L351.549 132.437L352.824 129.036C350.526 128.174 348.284 127.652 346.169 127.652V131.284ZM351.549 132.437L348.98 135.006C349.094 135.12 349.635 135.661 349.749 135.774C349.756 135.782 349.79 135.815 349.797 135.823C349.804 135.83 349.838 135.863 349.845 135.871C349.852 135.878 349.886 135.911 349.893 135.919C349.9 135.926 349.934 135.96 349.941 135.967C349.948 135.974 349.982 136.008 349.989 136.015C349.996 136.022 350.03 136.056 350.037 136.063C350.044 136.07 350.078 136.104 350.085 136.111C350.092 136.118 350.126 136.152 350.133 136.159C350.14 136.166 350.174 136.2 350.181 136.207C350.188 136.214 350.222 136.248 350.229 136.255C350.237 136.262 350.27 136.296 350.277 136.303C350.285 136.31 350.318 136.344 350.325 136.351C350.333 136.358 350.366 136.392 350.374 136.399C350.381 136.406 350.414 136.44 350.422 136.447C350.429 136.454 350.462 136.488 350.47 136.495C350.477 136.502 350.511 136.536 350.518 136.543L353.086 133.975L355.655 131.406C355.541 131.292 355 130.751 354.886 130.637C354.879 130.63 354.845 130.596 354.838 130.589C354.831 130.582 354.797 130.548 354.79 130.541C354.783 130.534 354.749 130.5 354.742 130.493C354.735 130.486 354.701 130.452 354.694 130.445C354.687 130.438 354.653 130.404 354.646 130.397C354.639 130.39 354.605 130.356 354.598 130.349C354.591 130.342 354.557 130.308 354.55 130.301C354.543 130.294 354.509 130.26 354.502 130.253C354.495 130.246 354.461 130.212 354.454 130.205C354.447 130.198 354.413 130.164 354.406 130.157C354.399 130.15 354.365 130.116 354.358 130.109C354.351 130.102 354.317 130.068 354.31 130.061C354.303 130.054 354.269 130.02 354.262 130.013C354.255 130.006 354.221 129.972 354.214 129.965C354.207 129.958 354.173 129.924 354.166 129.917C354.159 129.91 354.125 129.876 354.118 129.869L351.549 132.437ZM353.086 133.975L351.071 136.997C351.441 137.243 351.739 137.541 351.985 137.911L355.008 135.896L358.03 133.881C357.252 132.713 356.269 131.73 355.101 130.952L353.086 133.975ZM355.008 135.896L353.625 139.255C355.068 139.849 356.05 140.739 356.723 141.966C357.432 143.259 357.908 145.137 357.908 147.809H361.541H365.173C365.173 144.333 364.561 141.151 363.093 138.473C361.588 135.729 359.302 133.736 356.391 132.537L355.008 135.896ZM361.541 147.809L357.999 147.004C357.517 149.123 356.624 150.39 355.499 151.188C354.317 152.027 352.476 152.631 349.628 152.631V156.264V159.897C353.44 159.897 356.915 159.092 359.704 157.113C362.551 155.092 364.284 152.132 365.083 148.614L361.541 147.809ZM349.628 156.264L346.605 154.249C342.067 161.057 335.982 169.3 328.33 178.993L331.181 181.244L334.032 183.494C341.752 173.716 347.965 165.306 352.65 158.279L349.628 156.264ZM331.181 181.244L328.293 179.04C320.891 188.74 313.103 198.57 304.93 208.531L307.739 210.835L310.547 213.139C318.771 203.116 326.612 193.219 334.069 183.447L331.181 181.244ZM307.739 210.835L304.882 208.59C302.057 212.186 299.359 215.655 296.789 218.996L299.668 221.211L302.548 223.426C305.101 220.106 307.784 216.657 310.595 213.079L307.739 210.835ZM299.668 221.211L296.878 218.885C294.278 222.005 291.805 225.129 289.461 228.255L292.367 230.434L295.273 232.614C297.54 229.591 299.935 226.565 302.459 223.536L299.668 221.211Z" fill="white" mask="url(#path-2-outside-1_127_40)"/>
<defs>
<filter id="filter0_d_127_40" x="0.229929" y="0.973285" width="572.535" height="572.535" filterUnits="userSpaceOnUse" color-interpolation-filters="sRGB">
<feFlood flood-opacity="0" result="BackgroundImageFix"/>
<feColorMatrix in="SourceAlpha" type="matrix" values="0 0 0 0 0 0 0 0 0 0 0 0 0 0 0 0 0 0 127 0" result="hardAlpha"/>
<feMorphology radius="11.3041" operator="dilate" in="SourceAlpha" result="effect1_dropShadow_127_40"/>
<feOffset dy="15.0721"/>
<feGaussianBlur stdDeviation="7.53604"/>
<feComposite in2="hardAlpha" operator="out"/>
<feColorMatrix type="matrix" values="0 0 0 0 0.12549 0 0 0 0 0.278431 0 0 0 0 0.27451 0 0 0 0.28 0"/>
<feBlend mode="normal" in2="BackgroundImageFix" result="effect1_dropShadow_127_40"/>
<feBlend mode="normal" in="SourceGraphic" in2="effect1_dropShadow_127_40" result="shape"/>
</filter>
</defs>
</svg>
