<svg width="573" height="574" viewBox="0 0 573 574" fill="none" xmlns="http://www.w3.org/2000/svg">
<g filter="url(#filter0_d_127_9)">
<rect x="26.6061" y="12" width="519.783" height="519.783" rx="73.6907" fill="#DF1313"/>
</g>
<mask id="path-2-outside-1_127_9" maskUnits="userSpaceOnUse" x="175.539" y="125.386" width="218" height="307" fill="black">
<rect fill="white" x="175.539" y="125.386" width="218" height="307"/>
<path d="M292.367 230.157C300.565 231.438 307.995 233.487 314.656 236.306C321.574 238.868 327.85 241.942 333.487 245.529C339.123 248.859 344.119 252.446 348.475 256.289C353.086 260.132 357.057 263.975 360.388 267.818C370.636 279.091 377.938 290.748 382.293 302.79C386.905 314.831 389.211 324.951 389.211 333.149V337.761L388.442 343.526C387.673 350.187 386.649 357.36 385.368 365.046C384.087 372.476 381.268 379.778 376.913 386.952C372.557 394.125 366.152 400.914 357.698 407.32C349.499 413.468 338.098 418.592 323.495 422.692C316.065 424.741 309.276 426.15 303.127 426.919C297.234 427.944 291.726 428.456 286.602 428.456C278.66 428.456 270.718 427.559 262.775 425.766C255.089 423.973 245.866 421.667 235.106 418.849C225.114 416.287 216.531 412.187 209.358 406.551C202.44 400.914 196.804 395.15 192.448 389.257C188.093 383.365 184.89 377.985 182.841 373.117C180.791 367.993 179.638 364.79 179.382 363.509C179.382 361.203 180.151 359.154 181.688 357.36C183.225 355.567 186.043 354.03 190.143 352.749C192.448 352.749 194.498 353.389 196.291 354.67C198.341 355.951 199.75 357.745 200.519 360.05C202.825 365.943 205.899 371.323 209.742 376.191C213.073 380.547 217.3 384.902 222.424 389.257C227.804 393.357 234.209 396.431 241.639 398.481C251.631 401.299 259.957 403.476 266.618 405.014C273.28 406.295 279.941 406.935 286.602 406.935C295.057 406.935 305.433 405.27 317.731 401.939C328.747 398.865 337.33 395.15 343.479 390.795C349.884 386.439 354.623 381.699 357.698 376.575C361.028 371.195 363.206 365.559 364.231 359.666C365.256 353.517 366.152 347.369 366.921 341.22L367.69 333.149C367.69 327.513 365.896 319.955 362.309 310.476C358.723 300.996 352.702 291.645 344.247 282.422C340.917 278.579 336.946 274.736 332.334 270.893C327.979 267.05 322.726 263.591 316.578 260.517C310.685 257.442 304.024 255.008 296.594 253.215C289.164 251.165 280.838 250.14 271.614 250.14C271.102 250.14 270.462 250.012 269.693 249.756C268.924 249.5 267.515 248.859 265.466 247.835L262.391 245.144C262.391 244.888 262.263 244.632 262.007 244.376C262.007 243.863 261.751 242.839 261.238 241.301C260.982 241.045 260.854 240.789 260.854 240.533C260.854 240.02 260.982 238.868 261.238 237.074C261.238 236.818 261.238 236.562 261.238 236.306C261.494 235.793 262.135 234.64 263.16 232.847C266.747 227.979 270.846 222.471 275.457 216.322C280.325 210.173 285.449 203.768 290.829 197.107C296.978 189.677 303.127 182.119 309.276 174.433C315.425 166.491 320.805 159.317 325.417 152.912C320.036 152.4 313.759 152.016 306.586 151.759C299.668 151.247 291.982 150.991 283.528 150.991C273.536 150.991 263.288 151.375 252.784 152.144C242.279 152.912 232.544 153.681 223.577 154.449C214.866 155.218 207.564 155.987 201.672 156.755C196.035 157.524 192.961 157.908 192.448 157.908C189.63 157.908 187.196 157.011 185.147 155.218C183.353 153.425 182.2 150.735 181.688 147.148C181.688 144.329 182.457 142.024 183.994 140.23C185.787 138.437 188.093 137.284 190.911 136.772C191.424 136.772 194.498 136.387 200.134 135.619C206.027 134.85 213.329 134.081 222.04 133.313C231.007 132.288 240.87 131.391 251.631 130.623C262.391 129.854 273.024 129.47 283.528 129.47C296.082 129.47 307.098 129.854 316.578 130.623C326.313 131.391 334.127 132.16 340.02 132.929C341.557 131.648 343.607 131.007 346.169 131.007C347.706 131.007 349.499 131.391 351.549 132.16C352.061 132.672 352.574 133.185 353.086 133.697C353.855 134.21 354.495 134.85 355.008 135.619C359.363 137.412 361.541 141.383 361.541 147.532C360.26 153.168 356.289 155.987 349.628 155.987C345.016 162.904 338.867 171.231 331.181 180.966C323.751 190.702 315.937 200.566 307.739 210.557C304.921 214.144 302.23 217.603 299.668 220.934C297.106 224.008 294.672 227.082 292.367 230.157Z"/>
</mask>
<path d="M292.367 230.157C300.565 231.438 307.995 233.487 314.656 236.306C321.574 238.868 327.85 241.942 333.487 245.529C339.123 248.859 344.119 252.446 348.475 256.289C353.086 260.132 357.057 263.975 360.388 267.818C370.636 279.091 377.938 290.748 382.293 302.79C386.905 314.831 389.211 324.951 389.211 333.149V337.761L388.442 343.526C387.673 350.187 386.649 357.36 385.368 365.046C384.087 372.476 381.268 379.778 376.913 386.952C372.557 394.125 366.152 400.914 357.698 407.32C349.499 413.468 338.098 418.592 323.495 422.692C316.065 424.741 309.276 426.15 303.127 426.919C297.234 427.944 291.726 428.456 286.602 428.456C278.66 428.456 270.718 427.559 262.775 425.766C255.089 423.973 245.866 421.667 235.106 418.849C225.114 416.287 216.531 412.187 209.358 406.551C202.44 400.914 196.804 395.15 192.448 389.257C188.093 383.365 184.89 377.985 182.841 373.117C180.791 367.993 179.638 364.79 179.382 363.509C179.382 361.203 180.151 359.154 181.688 357.36C183.225 355.567 186.043 354.03 190.143 352.749C192.448 352.749 194.498 353.389 196.291 354.67C198.341 355.951 199.75 357.745 200.519 360.05C202.825 365.943 205.899 371.323 209.742 376.191C213.073 380.547 217.3 384.902 222.424 389.257C227.804 393.357 234.209 396.431 241.639 398.481C251.631 401.299 259.957 403.476 266.618 405.014C273.28 406.295 279.941 406.935 286.602 406.935C295.057 406.935 305.433 405.27 317.731 401.939C328.747 398.865 337.33 395.15 343.479 390.795C349.884 386.439 354.623 381.699 357.698 376.575C361.028 371.195 363.206 365.559 364.231 359.666C365.256 353.517 366.152 347.369 366.921 341.22L367.69 333.149C367.69 327.513 365.896 319.955 362.309 310.476C358.723 300.996 352.702 291.645 344.247 282.422C340.917 278.579 336.946 274.736 332.334 270.893C327.979 267.05 322.726 263.591 316.578 260.517C310.685 257.442 304.024 255.008 296.594 253.215C289.164 251.165 280.838 250.14 271.614 250.14C271.102 250.14 270.462 250.012 269.693 249.756C268.924 249.5 267.515 248.859 265.466 247.835L262.391 245.144C262.391 244.888 262.263 244.632 262.007 244.376C262.007 243.863 261.751 242.839 261.238 241.301C260.982 241.045 260.854 240.789 260.854 240.533C260.854 240.02 260.982 238.868 261.238 237.074C261.238 236.818 261.238 236.562 261.238 236.306C261.494 235.793 262.135 234.64 263.16 232.847C266.747 227.979 270.846 222.471 275.457 216.322C280.325 210.173 285.449 203.768 290.829 197.107C296.978 189.677 303.127 182.119 309.276 174.433C315.425 166.491 320.805 159.317 325.417 152.912C320.036 152.4 313.759 152.016 306.586 151.759C299.668 151.247 291.982 150.991 283.528 150.991C273.536 150.991 263.288 151.375 252.784 152.144C242.279 152.912 232.544 153.681 223.577 154.449C214.866 155.218 207.564 155.987 201.672 156.755C196.035 157.524 192.961 157.908 192.448 157.908C189.63 157.908 187.196 157.011 185.147 155.218C183.353 153.425 182.2 150.735 181.688 147.148C181.688 144.329 182.457 142.024 183.994 140.23C185.787 138.437 188.093 137.284 190.911 136.772C191.424 136.772 194.498 136.387 200.134 135.619C206.027 134.85 213.329 134.081 222.04 133.313C231.007 132.288 240.87 131.391 251.631 130.623C262.391 129.854 273.024 129.47 283.528 129.47C296.082 129.47 307.098 129.854 316.578 130.623C326.313 131.391 334.127 132.16 340.02 132.929C341.557 131.648 343.607 131.007 346.169 131.007C347.706 131.007 349.499 131.391 351.549 132.16C352.061 132.672 352.574 133.185 353.086 133.697C353.855 134.21 354.495 134.85 355.008 135.619C359.363 137.412 361.541 141.383 361.541 147.532C360.26 153.168 356.289 155.987 349.628 155.987C345.016 162.904 338.867 171.231 331.181 180.966C323.751 190.702 315.937 200.566 307.739 210.557C304.921 214.144 302.23 217.603 299.668 220.934C297.106 224.008 294.672 227.082 292.367 230.157Z" fill="white"/>
<path d="M292.367 230.157L289.461 227.977L285.834 232.813L291.806 233.746L292.367 230.157ZM314.656 236.306L313.241 239.651L313.317 239.683L313.394 239.712L314.656 236.306ZM333.487 245.529L331.537 248.593L331.587 248.626L331.639 248.656L333.487 245.529ZM348.475 256.289L346.071 259.013L346.11 259.047L346.149 259.08L348.475 256.289ZM360.388 267.818L357.643 270.197L357.671 270.23L357.7 270.262L360.388 267.818ZM382.293 302.79L378.877 304.025L378.889 304.057L378.901 304.089L382.293 302.79ZM389.211 337.761L392.811 338.241L392.843 338.002V337.761H389.211ZM388.442 343.526L384.841 343.045L384.837 343.077L384.833 343.109L388.442 343.526ZM385.368 365.046L388.947 365.664L388.949 365.654L388.951 365.644L385.368 365.046ZM357.698 407.32L359.877 410.226L359.884 410.22L359.891 410.215L357.698 407.32ZM323.495 422.692L324.461 426.193L324.469 426.191L324.477 426.189L323.495 422.692ZM303.127 426.919L302.677 423.314L302.59 423.325L302.505 423.34L303.127 426.919ZM262.775 425.766L261.95 429.303L261.963 429.306L261.975 429.309L262.775 425.766ZM235.106 418.849L236.026 415.335L236.017 415.332L236.008 415.33L235.106 418.849ZM209.358 406.551L207.063 409.367L207.088 409.387L207.113 409.407L209.358 406.551ZM182.841 373.117L179.468 374.466L179.48 374.496L179.493 374.526L182.841 373.117ZM179.382 363.509H175.75V363.869L175.82 364.222L179.382 363.509ZM190.143 352.749V349.116H189.588L189.059 349.282L190.143 352.749ZM196.291 354.67L194.18 357.626L194.271 357.691L194.366 357.751L196.291 354.67ZM200.519 360.05L197.073 361.199L197.102 361.287L197.136 361.374L200.519 360.05ZM209.742 376.191L212.627 373.985L212.61 373.962L212.593 373.94L209.742 376.191ZM222.424 389.257L220.071 392.025L220.145 392.088L220.222 392.147L222.424 389.257ZM241.639 398.481L242.625 394.984L242.615 394.982L242.605 394.979L241.639 398.481ZM266.618 405.014L265.802 408.553L265.867 408.568L265.933 408.581L266.618 405.014ZM317.731 401.939L318.68 405.446L318.694 405.442L318.707 405.438L317.731 401.939ZM343.479 390.795L341.436 387.791L341.407 387.81L341.379 387.83L343.479 390.795ZM357.698 376.575L354.609 374.663L354.596 374.685L354.583 374.707L357.698 376.575ZM364.231 359.666L367.81 360.289L367.812 360.276L367.814 360.263L364.231 359.666ZM366.921 341.22L370.526 341.67L370.532 341.617L370.537 341.564L366.921 341.22ZM367.69 333.149L371.306 333.494L371.322 333.322V333.149H367.69ZM344.247 282.422L341.502 284.801L341.535 284.839L341.57 284.876L344.247 282.422ZM332.334 270.893L329.931 273.616L329.969 273.65L330.008 273.683L332.334 270.893ZM316.578 260.517L314.897 263.737L314.925 263.752L314.953 263.766L316.578 260.517ZM296.594 253.215L295.628 256.717L295.685 256.732L295.742 256.746L296.594 253.215ZM265.466 247.835L263.074 250.568L263.424 250.875L263.841 251.084L265.466 247.835ZM262.391 245.144H258.759V246.793L259.999 247.878L262.391 245.144ZM262.007 244.376H258.374V245.881L259.438 246.944L262.007 244.376ZM261.238 241.301L264.684 240.153L264.413 239.339L263.807 238.733L261.238 241.301ZM261.238 237.074L264.834 237.588L264.871 237.332V237.074H261.238ZM261.238 236.306L257.989 234.681L257.606 235.448V236.306H261.238ZM263.16 232.847L260.235 230.692L260.11 230.862L260.006 231.045L263.16 232.847ZM275.457 216.322L272.609 214.067L272.58 214.104L272.551 214.142L275.457 216.322ZM290.829 197.107L288.031 194.791L288.017 194.808L288.004 194.824L290.829 197.107ZM309.276 174.433L312.112 176.702L312.131 176.68L312.148 176.657L309.276 174.433ZM325.417 152.912L328.364 155.035L332.064 149.896L325.761 149.296L325.417 152.912ZM306.586 151.759L306.317 155.382L306.387 155.387L306.456 155.39L306.586 151.759ZM223.577 154.449L223.267 150.83L223.258 150.831L223.577 154.449ZM201.672 156.755L201.202 153.153L201.191 153.155L201.181 153.156L201.672 156.755ZM185.147 155.218L182.578 157.787L182.664 157.872L182.755 157.952L185.147 155.218ZM181.688 147.148H178.055V147.406L178.092 147.661L181.688 147.148ZM183.994 140.23L181.425 137.662L181.327 137.76L181.236 137.866L183.994 140.23ZM190.911 136.772V133.139H190.584L190.261 133.198L190.911 136.772ZM200.134 135.619L199.665 132.017L199.654 132.018L199.644 132.019L200.134 135.619ZM222.04 133.313L222.359 136.931L222.406 136.927L222.452 136.922L222.04 133.313ZM316.578 130.623L316.284 134.243L316.292 134.244L316.578 130.623ZM340.02 132.929L339.55 136.531L341.125 136.736L342.345 135.719L340.02 132.929ZM351.549 132.16L354.118 129.591L353.561 129.035L352.824 128.759L351.549 132.16ZM353.086 133.697L350.518 136.266L350.772 136.52L351.071 136.72L353.086 133.697ZM355.008 135.619L351.985 137.634L352.6 138.556L353.625 138.978L355.008 135.619ZM361.541 147.532L365.083 148.337L365.173 147.94V147.532H361.541ZM349.628 155.987V152.354H347.683L346.605 153.972L349.628 155.987ZM331.181 180.966L328.33 178.715L328.311 178.739L328.293 178.762L331.181 180.966ZM307.739 210.557L304.93 208.253L304.906 208.283L304.882 208.313L307.739 210.557ZM299.668 220.934L302.459 223.259L302.504 223.205L302.548 223.148L299.668 220.934ZM292.367 230.157L291.806 233.746C299.753 234.987 306.89 236.964 313.241 239.651L314.656 236.306L316.072 232.96C309.1 230.011 301.377 227.888 292.927 226.568L292.367 230.157ZM314.656 236.306L313.394 239.712C320.096 242.194 326.138 245.158 331.537 248.593L333.487 245.529L335.437 242.464C329.563 238.726 323.052 235.541 315.918 232.899L314.656 236.306ZM333.487 245.529L331.639 248.656C337.102 251.885 341.908 255.339 346.071 259.013L348.475 256.289L350.878 253.565C346.331 249.553 341.144 245.834 335.335 242.401L333.487 245.529ZM348.475 256.289L346.149 259.08C350.636 262.819 354.461 266.526 357.643 270.197L360.388 267.818L363.133 265.439C359.653 261.424 355.536 257.445 350.8 253.499L348.475 256.289ZM360.388 267.818L357.7 270.262C367.688 281.249 374.711 292.506 378.877 304.025L382.293 302.79L385.709 301.554C381.165 288.99 373.584 276.933 363.076 265.375L360.388 267.818ZM382.293 302.79L378.901 304.089C383.434 315.926 385.578 325.575 385.578 333.149H389.211H392.843C392.843 324.327 390.375 313.736 385.685 301.49L382.293 302.79ZM389.211 333.149H385.578V337.761H389.211H392.843V333.149H389.211ZM389.211 337.761L385.61 337.281L384.841 343.045L388.442 343.526L392.043 344.006L392.811 338.241L389.211 337.761ZM388.442 343.526L384.833 343.109C384.073 349.701 383.057 356.814 381.784 364.449L385.368 365.046L388.951 365.644C390.24 357.907 391.274 350.672 392.051 343.942L388.442 343.526ZM385.368 365.046L381.788 364.429C380.592 371.362 377.954 378.238 373.808 385.066L376.913 386.952L380.018 388.837C384.583 381.318 387.581 373.59 388.947 365.664L385.368 365.046ZM376.913 386.952L373.808 385.066C369.743 391.761 363.687 398.225 355.504 404.424L357.698 407.32L359.891 410.215C368.618 403.604 375.371 396.49 380.018 388.837L376.913 386.952ZM357.698 407.32L355.518 404.413C347.808 410.196 336.873 415.164 322.513 419.194L323.495 422.692L324.477 426.189C339.324 422.021 351.191 416.74 359.877 410.226L357.698 407.32ZM323.495 422.692L322.529 419.19C315.229 421.203 308.615 422.572 302.677 423.314L303.127 426.919L303.578 430.523C309.936 429.728 316.901 428.279 324.461 426.193L323.495 422.692ZM303.127 426.919L302.505 423.34C296.784 424.335 291.486 424.824 286.602 424.824V428.456V432.089C291.966 432.089 297.684 431.552 303.75 430.498L303.127 426.919ZM286.602 428.456V424.824C278.936 424.824 271.262 423.958 263.576 422.223L262.775 425.766L261.975 429.309C270.174 431.16 278.384 432.089 286.602 432.089V428.456ZM262.775 425.766L263.601 422.228C255.957 420.445 246.767 418.148 236.026 415.335L235.106 418.849L234.185 422.363C244.966 425.186 254.222 427.5 261.95 429.303L262.775 425.766ZM235.106 418.849L236.008 415.33C226.441 412.877 218.33 408.981 211.602 403.695L209.358 406.551L207.113 409.407C214.732 415.393 223.787 419.696 234.204 422.367L235.106 418.849ZM209.358 406.551L211.652 403.735C204.921 398.25 199.51 392.7 195.37 387.098L192.448 389.257L189.527 391.417C194.097 397.6 199.959 403.579 207.063 409.367L209.358 406.551ZM192.448 389.257L195.37 387.098C191.125 381.355 188.093 376.229 186.189 371.707L182.841 373.117L179.493 374.526C181.688 379.74 185.061 385.374 189.527 391.417L192.448 389.257ZM182.841 373.117L186.214 371.768C184.113 366.515 183.12 363.674 182.944 362.797L179.382 363.509L175.82 364.222C176.157 365.907 177.47 369.47 179.468 374.466L182.841 373.117ZM179.382 363.509H183.015C183.015 362.093 183.458 360.877 184.446 359.724L181.688 357.36L178.93 354.996C176.843 357.431 175.75 360.313 175.75 363.509H179.382ZM181.688 357.36L184.446 359.724C185.307 358.72 187.32 357.437 191.226 356.216L190.143 352.749L189.059 349.282C184.767 350.623 181.144 352.414 178.93 354.996L181.688 357.36ZM190.143 352.749V356.381C191.729 356.381 193.032 356.806 194.18 357.626L196.291 354.67L198.403 351.714C195.964 349.972 193.168 349.116 190.143 349.116V352.749ZM196.291 354.67L194.366 357.751C195.695 358.581 196.569 359.69 197.073 361.199L200.519 360.05L203.965 358.902C202.931 355.8 200.987 353.321 198.217 351.59L196.291 354.67ZM200.519 360.05L197.136 361.374C199.57 367.594 202.821 373.287 206.891 378.442L209.742 376.191L212.593 373.94C208.977 369.359 206.079 364.293 203.901 358.727L200.519 360.05ZM209.742 376.191L206.856 378.398C210.375 382.999 214.793 387.538 220.071 392.025L222.424 389.257L224.776 386.49C219.807 382.266 215.77 378.094 212.627 373.985L209.742 376.191ZM222.424 389.257L220.222 392.147C226.019 396.564 232.858 399.826 240.673 401.982L241.639 398.481L242.605 394.979C235.56 393.036 229.589 390.15 224.625 386.368L222.424 389.257ZM241.639 398.481L240.653 401.977C250.675 404.804 259.063 406.998 265.802 408.553L266.618 405.014L267.435 401.474C260.852 399.955 252.586 397.794 242.625 394.984L241.639 398.481ZM266.618 405.014L265.933 408.581C272.816 409.905 279.707 410.568 286.602 410.568V406.935V403.303C280.175 403.303 273.744 402.685 267.304 401.447L266.618 405.014ZM286.602 406.935V410.568C295.496 410.568 306.213 408.822 318.68 405.446L317.731 401.939L316.781 398.433C304.653 401.718 294.618 403.303 286.602 403.303V406.935ZM317.731 401.939L318.707 405.438C329.939 402.303 338.96 398.447 345.578 393.759L343.479 390.795L341.379 387.83C335.7 391.853 327.555 395.426 316.754 398.44L317.731 401.939ZM343.479 390.795L345.521 393.798C352.238 389.231 357.4 384.133 360.813 378.444L357.698 376.575L354.583 374.707C351.847 379.266 347.53 383.647 341.436 387.791L343.479 390.795ZM357.698 376.575L360.786 378.487C364.347 372.736 366.701 366.665 367.81 360.289L364.231 359.666L360.652 359.044C359.711 364.453 357.71 369.655 354.609 374.663L357.698 376.575ZM364.231 359.666L367.814 360.263C368.847 354.066 369.751 347.868 370.526 341.67L366.921 341.22L363.317 340.769C362.554 346.869 361.665 352.969 360.648 359.069L364.231 359.666ZM366.921 341.22L370.537 341.564L371.306 333.494L367.69 333.149L364.074 332.805L363.305 340.875L366.921 341.22ZM367.69 333.149H371.322C371.322 326.854 369.345 318.806 365.707 309.19L362.309 310.476L358.912 311.761C362.447 321.104 364.057 328.172 364.057 333.149H367.69ZM362.309 310.476L365.707 309.19C361.923 299.191 355.621 289.453 346.925 279.967L344.247 282.422L341.57 284.876C349.783 293.836 355.522 302.802 358.912 311.761L362.309 310.476ZM344.247 282.422L346.992 280.043C343.513 276.028 339.396 272.049 334.659 268.102L332.334 270.893L330.008 273.683C334.495 277.422 338.321 281.13 341.502 284.801L344.247 282.422ZM332.334 270.893L334.737 268.169C330.108 264.084 324.582 260.458 318.202 257.267L316.578 260.517L314.953 263.766C320.871 266.724 325.849 270.015 329.931 273.616L332.334 270.893ZM316.578 260.517L318.258 257.296C312.067 254.066 305.122 251.536 297.446 249.684L296.594 253.215L295.742 256.746C302.926 258.48 309.303 260.818 314.897 263.737L316.578 260.517ZM296.594 253.215L297.56 249.713C289.761 247.562 281.102 246.508 271.614 246.508V250.14V253.773C280.573 253.773 288.567 254.769 295.628 256.717L296.594 253.215ZM271.614 250.14V246.508C271.652 246.508 271.608 246.512 271.462 246.482C271.32 246.454 271.115 246.401 270.842 246.31L269.693 249.756L268.544 253.202C269.494 253.519 270.553 253.773 271.614 253.773V250.14ZM269.693 249.756L270.842 246.31C270.355 246.148 269.168 245.625 267.09 244.586L265.466 247.835L263.841 251.084C265.862 252.094 267.494 252.852 268.544 253.202L269.693 249.756ZM265.466 247.835L267.858 245.101L264.783 242.411L262.391 245.144L259.999 247.878L263.074 250.568L265.466 247.835ZM262.391 245.144H266.024C266.024 243.585 265.228 242.459 264.575 241.807L262.007 244.376L259.438 246.944C259.299 246.805 258.759 246.191 258.759 245.144H262.391ZM262.007 244.376H265.639C265.639 243.651 265.48 242.906 265.339 242.342C265.18 241.705 264.956 240.968 264.684 240.153L261.238 241.301L257.792 242.45C258.033 243.172 258.194 243.716 258.291 244.104C258.339 244.297 258.364 244.423 258.376 244.493C258.39 244.578 258.374 244.522 258.374 244.376H262.007ZM261.238 241.301L263.807 238.733C263.947 238.873 264.487 239.486 264.487 240.533H260.854H257.221C257.221 242.092 258.018 243.218 258.67 243.87L261.238 241.301ZM260.854 240.533H264.487C264.487 240.537 264.487 240.472 264.5 240.307C264.512 240.152 264.531 239.947 264.56 239.685C264.619 239.161 264.709 238.465 264.834 237.588L261.238 237.074L257.642 236.56C257.397 238.28 257.221 239.71 257.221 240.533H260.854ZM261.238 237.074H264.871C264.871 237.074 264.871 237.073 264.871 237.073C264.871 237.072 264.871 237.072 264.871 237.071C264.871 237.071 264.871 237.07 264.871 237.07C264.871 237.069 264.871 237.069 264.871 237.068C264.871 237.068 264.871 237.067 264.871 237.067C264.871 237.066 264.871 237.066 264.871 237.065C264.871 237.065 264.871 237.064 264.871 237.064C264.871 237.063 264.871 237.063 264.871 237.062C264.871 237.062 264.871 237.061 264.871 237.061C264.871 237.06 264.871 237.06 264.871 237.059C264.871 237.059 264.871 237.058 264.871 237.058C264.871 237.057 264.871 237.057 264.871 237.056C264.871 237.056 264.871 237.055 264.871 237.055C264.871 237.054 264.871 237.054 264.871 237.053C264.871 237.053 264.871 237.052 264.871 237.052C264.871 237.051 264.871 237.051 264.871 237.05C264.871 237.05 264.871 237.049 264.871 237.049C264.871 237.048 264.871 237.048 264.871 237.047C264.871 237.047 264.871 237.046 264.871 237.046C264.871 237.045 264.871 237.045 264.871 237.044C264.871 237.044 264.871 237.043 264.871 237.043C264.871 237.042 264.871 237.042 264.871 237.041C264.871 237.041 264.871 237.04 264.871 237.04C264.871 237.039 264.871 237.039 264.871 237.038C264.871 237.038 264.871 237.037 264.871 237.037C264.871 237.036 264.871 237.036 264.871 237.035C264.871 237.035 264.871 237.034 264.871 237.034C264.871 237.033 264.871 237.033 264.871 237.032C264.871 237.032 264.871 237.031 264.871 237.031C264.871 237.03 264.871 237.03 264.871 237.029C264.871 237.029 264.871 237.028 264.871 237.028C264.871 237.027 264.871 237.027 264.871 237.026C264.871 237.026 264.871 237.025 264.871 237.025C264.871 237.024 264.871 237.024 264.871 237.023C264.871 237.023 264.871 237.022 264.871 237.022C264.871 237.021 264.871 237.021 264.871 237.02C264.871 237.02 264.871 237.019 264.871 237.019C264.871 237.018 264.871 237.018 264.871 237.017C264.871 237.017 264.871 237.016 264.871 237.016C264.871 237.015 264.871 237.015 264.871 237.014C264.871 237.014 264.871 237.013 264.871 237.013C264.871 237.012 264.871 237.012 264.871 237.011C264.871 237.011 264.871 237.01 264.871 237.01C264.871 237.009 264.871 237.009 264.871 237.008C264.871 237.008 264.871 237.007 264.871 237.007C264.871 237.006 264.871 237.006 264.871 237.005C264.871 237.005 264.871 237.004 264.871 237.004C264.871 237.003 264.871 237.003 264.871 237.002C264.871 237.002 264.871 237.001 264.871 237.001C264.871 237 264.871 237 264.871 236.999C264.871 236.999 264.871 236.998 264.871 236.998C264.871 236.997 264.871 236.997 264.871 236.996C264.871 236.996 264.871 236.995 264.871 236.995C264.871 236.994 264.871 236.994 264.871 236.993C264.871 236.993 264.871 236.992 264.871 236.992C264.871 236.991 264.871 236.991 264.871 236.99C264.871 236.99 264.871 236.989 264.871 236.989C264.871 236.988 264.871 236.988 264.871 236.987C264.871 236.987 264.871 236.986 264.871 236.986C264.871 236.985 264.871 236.985 264.871 236.984C264.871 236.984 264.871 236.983 264.871 236.983C264.871 236.982 264.871 236.982 264.871 236.981C264.871 236.981 264.871 236.98 264.871 236.98C264.871 236.979 264.871 236.979 264.871 236.978C264.871 236.978 264.871 236.977 264.871 236.977C264.871 236.976 264.871 236.976 264.871 236.975C264.871 236.975 264.871 236.974 264.871 236.974C264.871 236.973 264.871 236.973 264.871 236.972C264.871 236.972 264.871 236.971 264.871 236.971C264.871 236.97 264.871 236.97 264.871 236.969C264.871 236.969 264.871 236.968 264.871 236.968C264.871 236.967 264.871 236.967 264.871 236.966C264.871 236.966 264.871 236.965 264.871 236.965C264.871 236.964 264.871 236.964 264.871 236.963C264.871 236.963 264.871 236.962 264.871 236.962C264.871 236.961 264.871 236.961 264.871 236.96C264.871 236.96 264.871 236.959 264.871 236.959C264.871 236.958 264.871 236.958 264.871 236.957C264.871 236.957 264.871 236.956 264.871 236.956C264.871 236.955 264.871 236.955 264.871 236.954C264.871 236.954 264.871 236.953 264.871 236.953C264.871 236.952 264.871 236.952 264.871 236.951C264.871 236.951 264.871 236.95 264.871 236.95C264.871 236.949 264.871 236.949 264.871 236.948C264.871 236.948 264.871 236.947 264.871 236.947C264.871 236.946 264.871 236.946 264.871 236.945C264.871 236.945 264.871 236.944 264.871 236.944C264.871 236.943 264.871 236.943 264.871 236.942C264.871 236.942 264.871 236.941 264.871 236.941C264.871 236.94 264.871 236.94 264.871 236.939C264.871 236.939 264.871 236.938 264.871 236.938C264.871 236.937 264.871 236.937 264.871 236.936C264.871 236.936 264.871 236.935 264.871 236.935C264.871 236.934 264.871 236.934 264.871 236.933C264.871 236.933 264.871 236.932 264.871 236.932C264.871 236.931 264.871 236.931 264.871 236.93C264.871 236.93 264.871 236.929 264.871 236.929C264.871 236.928 264.871 236.928 264.871 236.927C264.871 236.927 264.871 236.926 264.871 236.926C264.871 236.925 264.871 236.925 264.871 236.924C264.871 236.924 264.871 236.923 264.871 236.923C264.871 236.922 264.871 236.922 264.871 236.921C264.871 236.921 264.871 236.92 264.871 236.92C264.871 236.919 264.871 236.919 264.871 236.918C264.871 236.918 264.871 236.917 264.871 236.917C264.871 236.916 264.871 236.916 264.871 236.915C264.871 236.915 264.871 236.914 264.871 236.914C264.871 236.913 264.871 236.913 264.871 236.912C264.871 236.912 264.871 236.911 264.871 236.911C264.871 236.91 264.871 236.91 264.871 236.909C264.871 236.909 264.871 236.908 264.871 236.908C264.871 236.907 264.871 236.907 264.871 236.906C264.871 236.906 264.871 236.905 264.871 236.905C264.871 236.904 264.871 236.904 264.871 236.903C264.871 236.903 264.871 236.902 264.871 236.902C264.871 236.901 264.871 236.901 264.871 236.9C264.871 236.9 264.871 236.899 264.871 236.899C264.871 236.898 264.871 236.898 264.871 236.897C264.871 236.897 264.871 236.896 264.871 236.896C264.871 236.895 264.871 236.895 264.871 236.894C264.871 236.894 264.871 236.893 264.871 236.893C264.871 236.892 264.871 236.892 264.871 236.891C264.871 236.891 264.871 236.89 264.871 236.89C264.871 236.889 264.871 236.889 264.871 236.888C264.871 236.888 264.871 236.887 264.871 236.887C264.871 236.886 264.871 236.885 264.871 236.885C264.871 236.884 264.871 236.884 264.871 236.883C264.871 236.883 264.871 236.882 264.871 236.882C264.871 236.881 264.871 236.881 264.871 236.88C264.871 236.88 264.871 236.879 264.871 236.879C264.871 236.878 264.871 236.878 264.871 236.877C264.871 236.877 264.871 236.876 264.871 236.876C264.871 236.875 264.871 236.875 264.871 236.874C264.871 236.874 264.871 236.873 264.871 236.873C264.871 236.872 264.871 236.872 264.871 236.871C264.871 236.871 264.871 236.87 264.871 236.87C264.871 236.869 264.871 236.869 264.871 236.868C264.871 236.868 264.871 236.867 264.871 236.867C264.871 236.866 264.871 236.866 264.871 236.865C264.871 236.865 264.871 236.864 264.871 236.864C264.871 236.863 264.871 236.863 264.871 236.862C264.871 236.862 264.871 236.861 264.871 236.861C264.871 236.86 264.871 236.86 264.871 236.859C264.871 236.859 264.871 236.858 264.871 236.858C264.871 236.857 264.871 236.857 264.871 236.856C264.871 236.856 264.871 236.855 264.871 236.855C264.871 236.854 264.871 236.854 264.871 236.853C264.871 236.853 264.871 236.852 264.871 236.852C264.871 236.851 264.871 236.851 264.871 236.85C264.871 236.85 264.871 236.849 264.871 236.849C264.871 236.848 264.871 236.848 264.871 236.847C264.871 236.847 264.871 236.846 264.871 236.846C264.871 236.845 264.871 236.845 264.871 236.844C264.871 236.844 264.871 236.843 264.871 236.843C264.871 236.842 264.871 236.842 264.871 236.841C264.871 236.841 264.871 236.84 264.871 236.84C264.871 236.839 264.871 236.839 264.871 236.838C264.871 236.838 264.871 236.837 264.871 236.837C264.871 236.836 264.871 236.836 264.871 236.835C264.871 236.835 264.871 236.834 264.871 236.834C264.871 236.833 264.871 236.833 264.871 236.832C264.871 236.832 264.871 236.831 264.871 236.831C264.871 236.83 264.871 236.83 264.871 236.829C264.871 236.829 264.871 236.828 264.871 236.828C264.871 236.827 264.871 236.827 264.871 236.826C264.871 236.826 264.871 236.825 264.871 236.825C264.871 236.824 264.871 236.824 264.871 236.823C264.871 236.823 264.871 236.822 264.871 236.822C264.871 236.821 264.871 236.821 264.871 236.82C264.871 236.82 264.871 236.819 264.871 236.819C264.871 236.818 264.871 236.818 264.871 236.817C264.871 236.817 264.871 236.816 264.871 236.816C264.871 236.815 264.871 236.815 264.871 236.814C264.871 236.814 264.871 236.813 264.871 236.813C264.871 236.812 264.871 236.812 264.871 236.811C264.871 236.811 264.871 236.81 264.871 236.81C264.871 236.809 264.871 236.809 264.871 236.808C264.871 236.808 264.871 236.807 264.871 236.807C264.871 236.806 264.871 236.806 264.871 236.805C264.871 236.805 264.871 236.804 264.871 236.804C264.871 236.803 264.871 236.803 264.871 236.802C264.871 236.802 264.871 236.801 264.871 236.801C264.871 236.8 264.871 236.8 264.871 236.799C264.871 236.799 264.871 236.798 264.871 236.798C264.871 236.797 264.871 236.797 264.871 236.796C264.871 236.796 264.871 236.795 264.871 236.795C264.871 236.794 264.871 236.794 264.871 236.793C264.871 236.793 264.871 236.792 264.871 236.792C264.871 236.791 264.871 236.791 264.871 236.79C264.871 236.79 264.871 236.789 264.871 236.789C264.871 236.788 264.871 236.788 264.871 236.787C264.871 236.787 264.871 236.786 264.871 236.786C264.871 236.785 264.871 236.785 264.871 236.784C264.871 236.784 264.871 236.783 264.871 236.783C264.871 236.782 264.871 236.782 264.871 236.781C264.871 236.781 264.871 236.78 264.871 236.78C264.871 236.779 264.871 236.779 264.871 236.778C264.871 236.778 264.871 236.777 264.871 236.777C264.871 236.776 264.871 236.776 264.871 236.775C264.871 236.775 264.871 236.774 264.871 236.774C264.871 236.773 264.871 236.773 264.871 236.772C264.871 236.772 264.871 236.771 264.871 236.771C264.871 236.77 264.871 236.77 264.871 236.769C264.871 236.769 264.871 236.768 264.871 236.768C264.871 236.767 264.871 236.767 264.871 236.766C264.871 236.766 264.871 236.765 264.871 236.765C264.871 236.764 264.871 236.764 264.871 236.763C264.871 236.763 264.871 236.762 264.871 236.762C264.871 236.761 264.871 236.761 264.871 236.76C264.871 236.76 264.871 236.759 264.871 236.759C264.871 236.758 264.871 236.758 264.871 236.757C264.871 236.757 264.871 236.756 264.871 236.756C264.871 236.755 264.871 236.755 264.871 236.754C264.871 236.754 264.871 236.753 264.871 236.753C264.871 236.752 264.871 236.752 264.871 236.751C264.871 236.751 264.871 236.75 264.871 236.75C264.871 236.749 264.871 236.749 264.871 236.748C264.871 236.748 264.871 236.747 264.871 236.747C264.871 236.746 264.871 236.746 264.871 236.745C264.871 236.745 264.871 236.744 264.871 236.744C264.871 236.743 264.871 236.743 264.871 236.742C264.871 236.742 264.871 236.741 264.871 236.741C264.871 236.74 264.871 236.74 264.871 236.739C264.871 236.739 264.871 236.738 264.871 236.738C264.871 236.737 264.871 236.737 264.871 236.736C264.871 236.736 264.871 236.735 264.871 236.735C264.871 236.734 264.871 236.734 264.871 236.733C264.871 236.733 264.871 236.732 264.871 236.732C264.871 236.731 264.871 236.731 264.871 236.73C264.871 236.73 264.871 236.729 264.871 236.729C264.871 236.728 264.871 236.728 264.871 236.727C264.871 236.727 264.871 236.726 264.871 236.726C264.871 236.725 264.871 236.725 264.871 236.724C264.871 236.724 264.871 236.723 264.871 236.723C264.871 236.722 264.871 236.722 264.871 236.721C264.871 236.721 264.871 236.72 264.871 236.72C264.871 236.719 264.871 236.719 264.871 236.718C264.871 236.718 264.871 236.717 264.871 236.717C264.871 236.716 264.871 236.716 264.871 236.715C264.871 236.715 264.871 236.714 264.871 236.714C264.871 236.713 264.871 236.713 264.871 236.712C264.871 236.712 264.871 236.711 264.871 236.711C264.871 236.71 264.871 236.71 264.871 236.709C264.871 236.709 264.871 236.708 264.871 236.708C264.871 236.707 264.871 236.707 264.871 236.706C264.871 236.706 264.871 236.705 264.871 236.705C264.871 236.704 264.871 236.704 264.871 236.703C264.871 236.703 264.871 236.702 264.871 236.702C264.871 236.701 264.871 236.701 264.871 236.7C264.871 236.7 264.871 236.699 264.871 236.699C264.871 236.698 264.871 236.698 264.871 236.697C264.871 236.697 264.871 236.696 264.871 236.696C264.871 236.695 264.871 236.695 264.871 236.694C264.871 236.694 264.871 236.693 264.871 236.693C264.871 236.692 264.871 236.692 264.871 236.691C264.871 236.691 264.871 236.69 264.871 236.69C264.871 236.689 264.871 236.689 264.871 236.688C264.871 236.688 264.871 236.687 264.871 236.687C264.871 236.686 264.871 236.686 264.871 236.685C264.871 236.685 264.871 236.684 264.871 236.684C264.871 236.683 264.871 236.683 264.871 236.682C264.871 236.682 264.871 236.681 264.871 236.681C264.871 236.68 264.871 236.68 264.871 236.679C264.871 236.679 264.871 236.678 264.871 236.678C264.871 236.677 264.871 236.677 264.871 236.676C264.871 236.676 264.871 236.675 264.871 236.675C264.871 236.674 264.871 236.674 264.871 236.673C264.871 236.673 264.871 236.672 264.871 236.672C264.871 236.671 264.871 236.671 264.871 236.67C264.871 236.67 264.871 236.669 264.871 236.669C264.871 236.668 264.871 236.668 264.871 236.667C264.871 236.667 264.871 236.666 264.871 236.666C264.871 236.665 264.871 236.665 264.871 236.664C264.871 236.664 264.871 236.663 264.871 236.663C264.871 236.662 264.871 236.662 264.871 236.661C264.871 236.661 264.871 236.66 264.871 236.66C264.871 236.659 264.871 236.659 264.871 236.658C264.871 236.658 264.871 236.657 264.871 236.657C264.871 236.656 264.871 236.656 264.871 236.655C264.871 236.655 264.871 236.654 264.871 236.654C264.871 236.653 264.871 236.653 264.871 236.652C264.871 236.652 264.871 236.651 264.871 236.651C264.871 236.65 264.871 236.65 264.871 236.649C264.871 236.649 264.871 236.648 264.871 236.648C264.871 236.647 264.871 236.647 264.871 236.646C264.871 236.646 264.871 236.645 264.871 236.645C264.871 236.644 264.871 236.644 264.871 236.643C264.871 236.643 264.871 236.642 264.871 236.642C264.871 236.641 264.871 236.641 264.871 236.64C264.871 236.64 264.871 236.639 264.871 236.639C264.871 236.638 264.871 236.638 264.871 236.637C264.871 236.637 264.871 236.636 264.871 236.636C264.871 236.635 264.871 236.635 264.871 236.634C264.871 236.634 264.871 236.633 264.871 236.633C264.871 236.632 264.871 236.632 264.871 236.631C264.871 236.631 264.871 236.63 264.871 236.63C264.871 236.629 264.871 236.629 264.871 236.628C264.871 236.628 264.871 236.627 264.871 236.627C264.871 236.626 264.871 236.626 264.871 236.625C264.871 236.625 264.871 236.624 264.871 236.624C264.871 236.623 264.871 236.623 264.871 236.622C264.871 236.622 264.871 236.621 264.871 236.621C264.871 236.62 264.871 236.62 264.871 236.619C264.871 236.619 264.871 236.618 264.871 236.618C264.871 236.617 264.871 236.617 264.871 236.616C264.871 236.616 264.871 236.615 264.871 236.615C264.871 236.614 264.871 236.614 264.871 236.613C264.871 236.613 264.871 236.612 264.871 236.612C264.871 236.611 264.871 236.611 264.871 236.61C264.871 236.61 264.871 236.609 264.871 236.609C264.871 236.608 264.871 236.608 264.871 236.607C264.871 236.607 264.871 236.606 264.871 236.606C264.871 236.605 264.871 236.605 264.871 236.604C264.871 236.604 264.871 236.603 264.871 236.603C264.871 236.602 264.871 236.602 264.871 236.601C264.871 236.601 264.871 236.6 264.871 236.6C264.871 236.599 264.871 236.599 264.871 236.598C264.871 236.598 264.871 236.597 264.871 236.597C264.871 236.596 264.871 236.596 264.871 236.595C264.871 236.595 264.871 236.594 264.871 236.594C264.871 236.593 264.871 236.593 264.871 236.592C264.871 236.592 264.871 236.591 264.871 236.591C264.871 236.59 264.871 236.59 264.871 236.589C264.871 236.589 264.871 236.588 264.871 236.588C264.871 236.587 264.871 236.587 264.871 236.586C264.871 236.586 264.871 236.585 264.871 236.585C264.871 236.584 264.871 236.584 264.871 236.583C264.871 236.583 264.871 236.582 264.871 236.582C264.871 236.581 264.871 236.581 264.871 236.58C264.871 236.58 264.871 236.579 264.871 236.579C264.871 236.578 264.871 236.578 264.871 236.577C264.871 236.577 264.871 236.576 264.871 236.576C264.871 236.575 264.871 236.575 264.871 236.574C264.871 236.574 264.871 236.573 264.871 236.573C264.871 236.572 264.871 236.572 264.871 236.571C264.871 236.571 264.871 236.57 264.871 236.57C264.871 236.569 264.871 236.569 264.871 236.568C264.871 236.568 264.871 236.567 264.871 236.567C264.871 236.566 264.871 236.566 264.871 236.565C264.871 236.565 264.871 236.564 264.871 236.564C264.871 236.563 264.871 236.563 264.871 236.562C264.871 236.562 264.871 236.561 264.871 236.561C264.871 236.56 264.871 236.56 264.871 236.559C264.871 236.559 264.871 236.558 264.871 236.558C264.871 236.557 264.871 236.557 264.871 236.556C264.871 236.556 264.871 236.555 264.871 236.555C264.871 236.554 264.871 236.554 264.871 236.553C264.871 236.553 264.871 236.552 264.871 236.552C264.871 236.551 264.871 236.551 264.871 236.55C264.871 236.55 264.871 236.549 264.871 236.549C264.871 236.548 264.871 236.548 264.871 236.547C264.871 236.547 264.871 236.546 264.871 236.546C264.871 236.545 264.871 236.545 264.871 236.544C264.871 236.544 264.871 236.543 264.871 236.543C264.871 236.542 264.871 236.542 264.871 236.541C264.871 236.541 264.871 236.54 264.871 236.54C264.871 236.539 264.871 236.539 264.871 236.538C264.871 236.538 264.871 236.537 264.871 236.537C264.871 236.536 264.871 236.536 264.871 236.535C264.871 236.535 264.871 236.534 264.871 236.534C264.871 236.533 264.871 236.533 264.871 236.532C264.871 236.532 264.871 236.531 264.871 236.531C264.871 236.53 264.871 236.53 264.871 236.529C264.871 236.529 264.871 236.528 264.871 236.528C264.871 236.527 264.871 236.527 264.871 236.526C264.871 236.526 264.871 236.525 264.871 236.525C264.871 236.524 264.871 236.524 264.871 236.523C264.871 236.523 264.871 236.522 264.871 236.522C264.871 236.521 264.871 236.521 264.871 236.52C264.871 236.52 264.871 236.519 264.871 236.519C264.871 236.518 264.871 236.518 264.871 236.517C264.871 236.517 264.871 236.516 264.871 236.516C264.871 236.515 264.871 236.515 264.871 236.514C264.871 236.514 264.871 236.513 264.871 236.513C264.871 236.512 264.871 236.512 264.871 236.511C264.871 236.511 264.871 236.51 264.871 236.51C264.871 236.509 264.871 236.509 264.871 236.508C264.871 236.508 264.871 236.507 264.871 236.507C264.871 236.506 264.871 236.506 264.871 236.505C264.871 236.505 264.871 236.504 264.871 236.504C264.871 236.503 264.871 236.503 264.871 236.502C264.871 236.502 264.871 236.501 264.871 236.501C264.871 236.5 264.871 236.5 264.871 236.499C264.871 236.499 264.871 236.498 264.871 236.498C264.871 236.497 264.871 236.497 264.871 236.496C264.871 236.496 264.871 236.495 264.871 236.495C264.871 236.494 264.871 236.494 264.871 236.493C264.871 236.493 264.871 236.492 264.871 236.492C264.871 236.491 264.871 236.491 264.871 236.49C264.871 236.49 264.871 236.489 264.871 236.489C264.871 236.488 264.871 236.488 264.871 236.487C264.871 236.487 264.871 236.486 264.871 236.486C264.871 236.485 264.871 236.485 264.871 236.484C264.871 236.484 264.871 236.483 264.871 236.483C264.871 236.482 264.871 236.482 264.871 236.481C264.871 236.481 264.871 236.48 264.871 236.48C264.871 236.479 264.871 236.479 264.871 236.478C264.871 236.478 264.871 236.477 264.871 236.477C264.871 236.476 264.871 236.476 264.871 236.475C264.871 236.475 264.871 236.474 264.871 236.474C264.871 236.473 264.871 236.473 264.871 236.472C264.871 236.472 264.871 236.471 264.871 236.471C264.871 236.47 264.871 236.47 264.871 236.469C264.871 236.469 264.871 236.468 264.871 236.468C264.871 236.467 264.871 236.467 264.871 236.466C264.871 236.466 264.871 236.465 264.871 236.465C264.871 236.464 264.871 236.464 264.871 236.463C264.871 236.463 264.871 236.462 264.871 236.462C264.871 236.461 264.871 236.461 264.871 236.46C264.871 236.46 264.871 236.459 264.871 236.459C264.871 236.458 264.871 236.458 264.871 236.457C264.871 236.457 264.871 236.456 264.871 236.456C264.871 236.455 264.871 236.455 264.871 236.454C264.871 236.454 264.871 236.453 264.871 236.453C264.871 236.452 264.871 236.452 264.871 236.451C264.871 236.451 264.871 236.45 264.871 236.45C264.871 236.449 264.871 236.449 264.871 236.448C264.871 236.448 264.871 236.447 264.871 236.447C264.871 236.446 264.871 236.446 264.871 236.445C264.871 236.445 264.871 236.444 264.871 236.444C264.871 236.443 264.871 236.443 264.871 236.442C264.871 236.442 264.871 236.441 264.871 236.441C264.871 236.44 264.871 236.44 264.871 236.439C264.871 236.439 264.871 236.438 264.871 236.438C264.871 236.437 264.871 236.437 264.871 236.436C264.871 236.436 264.871 236.435 264.871 236.435C264.871 236.434 264.871 236.434 264.871 236.433C264.871 236.433 264.871 236.432 264.871 236.432C264.871 236.431 264.871 236.431 264.871 236.43C264.871 236.43 264.871 236.429 264.871 236.429C264.871 236.428 264.871 236.428 264.871 236.427C264.871 236.427 264.871 236.426 264.871 236.426C264.871 236.425 264.871 236.425 264.871 236.424C264.871 236.424 264.871 236.423 264.871 236.423C264.871 236.422 264.871 236.422 264.871 236.421C264.871 236.421 264.871 236.42 264.871 236.42C264.871 236.419 264.871 236.419 264.871 236.418C264.871 236.418 264.871 236.417 264.871 236.417C264.871 236.416 264.871 236.416 264.871 236.415C264.871 236.415 264.871 236.414 264.871 236.414C264.871 236.413 264.871 236.413 264.871 236.412C264.871 236.412 264.871 236.411 264.871 236.411C264.871 236.41 264.871 236.41 264.871 236.409C264.871 236.409 264.871 236.408 264.871 236.408C264.871 236.407 264.871 236.407 264.871 236.406C264.871 236.406 264.871 236.405 264.871 236.405C264.871 236.404 264.871 236.404 264.871 236.403C264.871 236.403 264.871 236.402 264.871 236.402C264.871 236.401 264.871 236.401 264.871 236.4C264.871 236.4 264.871 236.399 264.871 236.399C264.871 236.398 264.871 236.398 264.871 236.397C264.871 236.397 264.871 236.396 264.871 236.396C264.871 236.395 264.871 236.395 264.871 236.394C264.871 236.394 264.871 236.393 264.871 236.393C264.871 236.392 264.871 236.392 264.871 236.391C264.871 236.391 264.871 236.39 264.871 236.39C264.871 236.389 264.871 236.389 264.871 236.388C264.871 236.388 264.871 236.387 264.871 236.387C264.871 236.386 264.871 236.386 264.871 236.385C264.871 236.385 264.871 236.384 264.871 236.384C264.871 236.383 264.871 236.383 264.871 236.382C264.871 236.382 264.871 236.381 264.871 236.381C264.871 236.38 264.871 236.38 264.871 236.379C264.871 236.379 264.871 236.378 264.871 236.378C264.871 236.377 264.871 236.377 264.871 236.376C264.871 236.376 264.871 236.375 264.871 236.375C264.871 236.374 264.871 236.374 264.871 236.373C264.871 236.373 264.871 236.372 264.871 236.372C264.871 236.371 264.871 236.371 264.871 236.37C264.871 236.37 264.871 236.369 264.871 236.369C264.871 236.368 264.871 236.368 264.871 236.367C264.871 236.367 264.871 236.366 264.871 236.366C264.871 236.365 264.871 236.365 264.871 236.364C264.871 236.364 264.871 236.363 264.871 236.363C264.871 236.362 264.871 236.362 264.871 236.361C264.871 236.361 264.871 236.36 264.871 236.36C264.871 236.359 264.871 236.359 264.871 236.358C264.871 236.358 264.871 236.357 264.871 236.357C264.871 236.356 264.871 236.356 264.871 236.355C264.871 236.355 264.871 236.354 264.871 236.354C264.871 236.353 264.871 236.353 264.871 236.352C264.871 236.352 264.871 236.351 264.871 236.351C264.871 236.35 264.871 236.35 264.871 236.349C264.871 236.349 264.871 236.348 264.871 236.348C264.871 236.347 264.871 236.347 264.871 236.346C264.871 236.346 264.871 236.345 264.871 236.345C264.871 236.344 264.871 236.344 264.871 236.343C264.871 236.343 264.871 236.342 264.871 236.342C264.871 236.341 264.871 236.341 264.871 236.34C264.871 236.34 264.871 236.339 264.871 236.339C264.871 236.338 264.871 236.338 264.871 236.337C264.871 236.337 264.871 236.336 264.871 236.336C264.871 236.335 264.871 236.335 264.871 236.334C264.871 236.334 264.871 236.333 264.871 236.333C264.871 236.332 264.871 236.332 264.871 236.331C264.871 236.331 264.871 236.33 264.871 236.33C264.871 236.329 264.871 236.329 264.871 236.328C264.871 236.328 264.871 236.327 264.871 236.327C264.871 236.326 264.871 236.326 264.871 236.325C264.871 236.325 264.871 236.324 264.871 236.324C264.871 236.323 264.871 236.323 264.871 236.322C264.871 236.322 264.871 236.321 264.871 236.321C264.871 236.32 264.871 236.32 264.871 236.319C264.871 236.319 264.871 236.318 264.871 236.318C264.871 236.317 264.871 236.317 264.871 236.316C264.871 236.316 264.871 236.315 264.871 236.315C264.871 236.314 264.871 236.314 264.871 236.313C264.871 236.313 264.871 236.312 264.871 236.312C264.871 236.311 264.871 236.311 264.871 236.31C264.871 236.31 264.871 236.309 264.871 236.309C264.871 236.308 264.871 236.308 264.871 236.307C264.871 236.307 264.871 236.306 264.871 236.306H261.238H257.606C257.606 236.306 257.606 236.307 257.606 236.307C257.606 236.308 257.606 236.308 257.606 236.309C257.606 236.309 257.606 236.31 257.606 236.31C257.606 236.311 257.606 236.311 257.606 236.312C257.606 236.312 257.606 236.313 257.606 236.313C257.606 236.314 257.606 236.314 257.606 236.315C257.606 236.315 257.606 236.316 257.606 236.316C257.606 236.317 257.606 236.317 257.606 236.318C257.606 236.318 257.606 236.319 257.606 236.319C257.606 236.32 257.606 236.32 257.606 236.321C257.606 236.321 257.606 236.322 257.606 236.322C257.606 236.323 257.606 236.323 257.606 236.324C257.606 236.324 257.606 236.325 257.606 236.325C257.606 236.326 257.606 236.326 257.606 236.327C257.606 236.327 257.606 236.328 257.606 236.328C257.606 236.329 257.606 236.329 257.606 236.33C257.606 236.33 257.606 236.331 257.606 236.331C257.606 236.332 257.606 236.332 257.606 236.333C257.606 236.333 257.606 236.334 257.606 236.334C257.606 236.335 257.606 236.335 257.606 236.336C257.606 236.336 257.606 236.337 257.606 236.337C257.606 236.338 257.606 236.338 257.606 236.339C257.606 236.339 257.606 236.34 257.606 236.34C257.606 236.341 257.606 236.341 257.606 236.342C257.606 236.342 257.606 236.343 257.606 236.343C257.606 236.344 257.606 236.344 257.606 236.345C257.606 236.345 257.606 236.346 257.606 236.346C257.606 236.347 257.606 236.347 257.606 236.348C257.606 236.348 257.606 236.349 257.606 236.349C257.606 236.35 257.606 236.35 257.606 236.351C257.606 236.351 257.606 236.352 257.606 236.352C257.606 236.353 257.606 236.353 257.606 236.354C257.606 236.354 257.606 236.355 257.606 236.355C257.606 236.356 257.606 236.356 257.606 236.357C257.606 236.357 257.606 236.358 257.606 236.358C257.606 236.359 257.606 236.359 257.606 236.36C257.606 236.36 257.606 236.361 257.606 236.361C257.606 236.362 257.606 236.362 257.606 236.363C257.606 236.363 257.606 236.364 257.606 236.364C257.606 236.365 257.606 236.365 257.606 236.366C257.606 236.366 257.606 236.367 257.606 236.367C257.606 236.368 257.606 236.368 257.606 236.369C257.606 236.369 257.606 236.37 257.606 236.37C257.606 236.371 257.606 236.371 257.606 236.372C257.606 236.372 257.606 236.373 257.606 236.373C257.606 236.374 257.606 236.374 257.606 236.375C257.606 236.375 257.606 236.376 257.606 236.376C257.606 236.377 257.606 236.377 257.606 236.378C257.606 236.378 257.606 236.379 257.606 236.379C257.606 236.38 257.606 236.38 257.606 236.381C257.606 236.381 257.606 236.382 257.606 236.382C257.606 236.383 257.606 236.383 257.606 236.384C257.606 236.384 257.606 236.385 257.606 236.385C257.606 236.386 257.606 236.386 257.606 236.387C257.606 236.387 257.606 236.388 257.606 236.388C257.606 236.389 257.606 236.389 257.606 236.39C257.606 236.39 257.606 236.391 257.606 236.391C257.606 236.392 257.606 236.392 257.606 236.393C257.606 236.393 257.606 236.394 257.606 236.394C257.606 236.395 257.606 236.395 257.606 236.396C257.606 236.396 257.606 236.397 257.606 236.397C257.606 236.398 257.606 236.398 257.606 236.399C257.606 236.399 257.606 236.4 257.606 236.4C257.606 236.401 257.606 236.401 257.606 236.402C257.606 236.402 257.606 236.403 257.606 236.403C257.606 236.404 257.606 236.404 257.606 236.405C257.606 236.405 257.606 236.406 257.606 236.406C257.606 236.407 257.606 236.407 257.606 236.408C257.606 236.408 257.606 236.409 257.606 236.409C257.606 236.41 257.606 236.41 257.606 236.411C257.606 236.411 257.606 236.412 257.606 236.412C257.606 236.413 257.606 236.413 257.606 236.414C257.606 236.414 257.606 236.415 257.606 236.415C257.606 236.416 257.606 236.416 257.606 236.417C257.606 236.417 257.606 236.418 257.606 236.418C257.606 236.419 257.606 236.419 257.606 236.42C257.606 236.42 257.606 236.421 257.606 236.421C257.606 236.422 257.606 236.422 257.606 236.423C257.606 236.423 257.606 236.424 257.606 236.424C257.606 236.425 257.606 236.425 257.606 236.426C257.606 236.426 257.606 236.427 257.606 236.427C257.606 236.428 257.606 236.428 257.606 236.429C257.606 236.429 257.606 236.43 257.606 236.43C257.606 236.431 257.606 236.431 257.606 236.432C257.606 236.432 257.606 236.433 257.606 236.433C257.606 236.434 257.606 236.434 257.606 236.435C257.606 236.435 257.606 236.436 257.606 236.436C257.606 236.437 257.606 236.437 257.606 236.438C257.606 236.438 257.606 236.439 257.606 236.439C257.606 236.44 257.606 236.44 257.606 236.441C257.606 236.441 257.606 236.442 257.606 236.442C257.606 236.443 257.606 236.443 257.606 236.444C257.606 236.444 257.606 236.445 257.606 236.445C257.606 236.446 257.606 236.446 257.606 236.447C257.606 236.447 257.606 236.448 257.606 236.448C257.606 236.449 257.606 236.449 257.606 236.45C257.606 236.45 257.606 236.451 257.606 236.451C257.606 236.452 257.606 236.452 257.606 236.453C257.606 236.453 257.606 236.454 257.606 236.454C257.606 236.455 257.606 236.455 257.606 236.456C257.606 236.456 257.606 236.457 257.606 236.457C257.606 236.458 257.606 236.458 257.606 236.459C257.606 236.459 257.606 236.46 257.606 236.46C257.606 236.461 257.606 236.461 257.606 236.462C257.606 236.462 257.606 236.463 257.606 236.463C257.606 236.464 257.606 236.464 257.606 236.465C257.606 236.465 257.606 236.466 257.606 236.466C257.606 236.467 257.606 236.467 257.606 236.468C257.606 236.468 257.606 236.469 257.606 236.469C257.606 236.47 257.606 236.47 257.606 236.471C257.606 236.471 257.606 236.472 257.606 236.472C257.606 236.473 257.606 236.473 257.606 236.474C257.606 236.474 257.606 236.475 257.606 236.475C257.606 236.476 257.606 236.476 257.606 236.477C257.606 236.477 257.606 236.478 257.606 236.478C257.606 236.479 257.606 236.479 257.606 236.48C257.606 236.48 257.606 236.481 257.606 236.481C257.606 236.482 257.606 236.482 257.606 236.483C257.606 236.483 257.606 236.484 257.606 236.484C257.606 236.485 257.606 236.485 257.606 236.486C257.606 236.486 257.606 236.487 257.606 236.487C257.606 236.488 257.606 236.488 257.606 236.489C257.606 236.489 257.606 236.49 257.606 236.49C257.606 236.491 257.606 236.491 257.606 236.492C257.606 236.492 257.606 236.493 257.606 236.493C257.606 236.494 257.606 236.494 257.606 236.495C257.606 236.495 257.606 236.496 257.606 236.496C257.606 236.497 257.606 236.497 257.606 236.498C257.606 236.498 257.606 236.499 257.606 236.499C257.606 236.5 257.606 236.5 257.606 236.501C257.606 236.501 257.606 236.502 257.606 236.502C257.606 236.503 257.606 236.503 257.606 236.504C257.606 236.504 257.606 236.505 257.606 236.505C257.606 236.506 257.606 236.506 257.606 236.507C257.606 236.507 257.606 236.508 257.606 236.508C257.606 236.509 257.606 236.509 257.606 236.51C257.606 236.51 257.606 236.511 257.606 236.511C257.606 236.512 257.606 236.512 257.606 236.513C257.606 236.513 257.606 236.514 257.606 236.514C257.606 236.515 257.606 236.515 257.606 236.516C257.606 236.516 257.606 236.517 257.606 236.517C257.606 236.518 257.606 236.518 257.606 236.519C257.606 236.519 257.606 236.52 257.606 236.52C257.606 236.521 257.606 236.521 257.606 236.522C257.606 236.522 257.606 236.523 257.606 236.523C257.606 236.524 257.606 236.524 257.606 236.525C257.606 236.525 257.606 236.526 257.606 236.526C257.606 236.527 257.606 236.527 257.606 236.528C257.606 236.528 257.606 236.529 257.606 236.529C257.606 236.53 257.606 236.53 257.606 236.531C257.606 236.531 257.606 236.532 257.606 236.532C257.606 236.533 257.606 236.533 257.606 236.534C257.606 236.534 257.606 236.535 257.606 236.535C257.606 236.536 257.606 236.536 257.606 236.537C257.606 236.537 257.606 236.538 257.606 236.538C257.606 236.539 257.606 236.539 257.606 236.54C257.606 236.54 257.606 236.541 257.606 236.541C257.606 236.542 257.606 236.542 257.606 236.543C257.606 236.543 257.606 236.544 257.606 236.544C257.606 236.545 257.606 236.545 257.606 236.546C257.606 236.546 257.606 236.547 257.606 236.547C257.606 236.548 257.606 236.548 257.606 236.549C257.606 236.549 257.606 236.55 257.606 236.55C257.606 236.551 257.606 236.551 257.606 236.552C257.606 236.552 257.606 236.553 257.606 236.553C257.606 236.554 257.606 236.554 257.606 236.555C257.606 236.555 257.606 236.556 257.606 236.556C257.606 236.557 257.606 236.557 257.606 236.558C257.606 236.558 257.606 236.559 257.606 236.559C257.606 236.56 257.606 236.56 257.606 236.561C257.606 236.561 257.606 236.562 257.606 236.562C257.606 236.563 257.606 236.563 257.606 236.564C257.606 236.564 257.606 236.565 257.606 236.565C257.606 236.566 257.606 236.566 257.606 236.567C257.606 236.567 257.606 236.568 257.606 236.568C257.606 236.569 257.606 236.569 257.606 236.57C257.606 236.57 257.606 236.571 257.606 236.571C257.606 236.572 257.606 236.572 257.606 236.573C257.606 236.573 257.606 236.574 257.606 236.574C257.606 236.575 257.606 236.575 257.606 236.576C257.606 236.576 257.606 236.577 257.606 236.577C257.606 236.578 257.606 236.578 257.606 236.579C257.606 236.579 257.606 236.58 257.606 236.58C257.606 236.581 257.606 236.581 257.606 236.582C257.606 236.582 257.606 236.583 257.606 236.583C257.606 236.584 257.606 236.584 257.606 236.585C257.606 236.585 257.606 236.586 257.606 236.586C257.606 236.587 257.606 236.587 257.606 236.588C257.606 236.588 257.606 236.589 257.606 236.589C257.606 236.59 257.606 236.59 257.606 236.591C257.606 236.591 257.606 236.592 257.606 236.592C257.606 236.593 257.606 236.593 257.606 236.594C257.606 236.594 257.606 236.595 257.606 236.595C257.606 236.596 257.606 236.596 257.606 236.597C257.606 236.597 257.606 236.598 257.606 236.598C257.606 236.599 257.606 236.599 257.606 236.6C257.606 236.6 257.606 236.601 257.606 236.601C257.606 236.602 257.606 236.602 257.606 236.603C257.606 236.603 257.606 236.604 257.606 236.604C257.606 236.605 257.606 236.605 257.606 236.606C257.606 236.606 257.606 236.607 257.606 236.607C257.606 236.608 257.606 236.608 257.606 236.609C257.606 236.609 257.606 236.61 257.606 236.61C257.606 236.611 257.606 236.611 257.606 236.612C257.606 236.612 257.606 236.613 257.606 236.613C257.606 236.614 257.606 236.614 257.606 236.615C257.606 236.615 257.606 236.616 257.606 236.616C257.606 236.617 257.606 236.617 257.606 236.618C257.606 236.618 257.606 236.619 257.606 236.619C257.606 236.62 257.606 236.62 257.606 236.621C257.606 236.621 257.606 236.622 257.606 236.622C257.606 236.623 257.606 236.623 257.606 236.624C257.606 236.624 257.606 236.625 257.606 236.625C257.606 236.626 257.606 236.626 257.606 236.627C257.606 236.627 257.606 236.628 257.606 236.628C257.606 236.629 257.606 236.629 257.606 236.63C257.606 236.63 257.606 236.631 257.606 236.631C257.606 236.632 257.606 236.632 257.606 236.633C257.606 236.633 257.606 236.634 257.606 236.634C257.606 236.635 257.606 236.635 257.606 236.636C257.606 236.636 257.606 236.637 257.606 236.637C257.606 236.638 257.606 236.638 257.606 236.639C257.606 236.639 257.606 236.64 257.606 236.64C257.606 236.641 257.606 236.641 257.606 236.642C257.606 236.642 257.606 236.643 257.606 236.643C257.606 236.644 257.606 236.644 257.606 236.645C257.606 236.645 257.606 236.646 257.606 236.646C257.606 236.647 257.606 236.647 257.606 236.648C257.606 236.648 257.606 236.649 257.606 236.649C257.606 236.65 257.606 236.65 257.606 236.651C257.606 236.651 257.606 236.652 257.606 236.652C257.606 236.653 257.606 236.653 257.606 236.654C257.606 236.654 257.606 236.655 257.606 236.655C257.606 236.656 257.606 236.656 257.606 236.657C257.606 236.657 257.606 236.658 257.606 236.658C257.606 236.659 257.606 236.659 257.606 236.66C257.606 236.66 257.606 236.661 257.606 236.661C257.606 236.662 257.606 236.662 257.606 236.663C257.606 236.663 257.606 236.664 257.606 236.664C257.606 236.665 257.606 236.665 257.606 236.666C257.606 236.666 257.606 236.667 257.606 236.667C257.606 236.668 257.606 236.668 257.606 236.669C257.606 236.669 257.606 236.67 257.606 236.67C257.606 236.671 257.606 236.671 257.606 236.672C257.606 236.672 257.606 236.673 257.606 236.673C257.606 236.674 257.606 236.674 257.606 236.675C257.606 236.675 257.606 236.676 257.606 236.676C257.606 236.677 257.606 236.677 257.606 236.678C257.606 236.678 257.606 236.679 257.606 236.679C257.606 236.68 257.606 236.68 257.606 236.681C257.606 236.681 257.606 236.682 257.606 236.682C257.606 236.683 257.606 236.683 257.606 236.684C257.606 236.684 257.606 236.685 257.606 236.685C257.606 236.686 257.606 236.686 257.606 236.687C257.606 236.687 257.606 236.688 257.606 236.688C257.606 236.689 257.606 236.689 257.606 236.69C257.606 236.69 257.606 236.691 257.606 236.691C257.606 236.692 257.606 236.692 257.606 236.693C257.606 236.693 257.606 236.694 257.606 236.694C257.606 236.695 257.606 236.695 257.606 236.696C257.606 236.696 257.606 236.697 257.606 236.697C257.606 236.698 257.606 236.698 257.606 236.699C257.606 236.699 257.606 236.7 257.606 236.7C257.606 236.701 257.606 236.701 257.606 236.702C257.606 236.702 257.606 236.703 257.606 236.703C257.606 236.704 257.606 236.704 257.606 236.705C257.606 236.705 257.606 236.706 257.606 236.706C257.606 236.707 257.606 236.707 257.606 236.708C257.606 236.708 257.606 236.709 257.606 236.709C257.606 236.71 257.606 236.71 257.606 236.711C257.606 236.711 257.606 236.712 257.606 236.712C257.606 236.713 257.606 236.713 257.606 236.714C257.606 236.714 257.606 236.715 257.606 236.715C257.606 236.716 257.606 236.716 257.606 236.717C257.606 236.717 257.606 236.718 257.606 236.718C257.606 236.719 257.606 236.719 257.606 236.72C257.606 236.72 257.606 236.721 257.606 236.721C257.606 236.722 257.606 236.722 257.606 236.723C257.606 236.723 257.606 236.724 257.606 236.724C257.606 236.725 257.606 236.725 257.606 236.726C257.606 236.726 257.606 236.727 257.606 236.727C257.606 236.728 257.606 236.728 257.606 236.729C257.606 236.729 257.606 236.73 257.606 236.73C257.606 236.731 257.606 236.731 257.606 236.732C257.606 236.732 257.606 236.733 257.606 236.733C257.606 236.734 257.606 236.734 257.606 236.735C257.606 236.735 257.606 236.736 257.606 236.736C257.606 236.737 257.606 236.737 257.606 236.738C257.606 236.738 257.606 236.739 257.606 236.739C257.606 236.74 257.606 236.74 257.606 236.741C257.606 236.741 257.606 236.742 257.606 236.742C257.606 236.743 257.606 236.743 257.606 236.744C257.606 236.744 257.606 236.745 257.606 236.745C257.606 236.746 257.606 236.746 257.606 236.747C257.606 236.747 257.606 236.748 257.606 236.748C257.606 236.749 257.606 236.749 257.606 236.75C257.606 236.75 257.606 236.751 257.606 236.751C257.606 236.752 257.606 236.752 257.606 236.753C257.606 236.753 257.606 236.754 257.606 236.754C257.606 236.755 257.606 236.755 257.606 236.756C257.606 236.756 257.606 236.757 257.606 236.757C257.606 236.758 257.606 236.758 257.606 236.759C257.606 236.759 257.606 236.76 257.606 236.76C257.606 236.761 257.606 236.761 257.606 236.762C257.606 236.762 257.606 236.763 257.606 236.763C257.606 236.764 257.606 236.764 257.606 236.765C257.606 236.765 257.606 236.766 257.606 236.766C257.606 236.767 257.606 236.767 257.606 236.768C257.606 236.768 257.606 236.769 257.606 236.769C257.606 236.77 257.606 236.77 257.606 236.771C257.606 236.771 257.606 236.772 257.606 236.772C257.606 236.773 257.606 236.773 257.606 236.774C257.606 236.774 257.606 236.775 257.606 236.775C257.606 236.776 257.606 236.776 257.606 236.777C257.606 236.777 257.606 236.778 257.606 236.778C257.606 236.779 257.606 236.779 257.606 236.78C257.606 236.78 257.606 236.781 257.606 236.781C257.606 236.782 257.606 236.782 257.606 236.783C257.606 236.783 257.606 236.784 257.606 236.784C257.606 236.785 257.606 236.785 257.606 236.786C257.606 236.786 257.606 236.787 257.606 236.787C257.606 236.788 257.606 236.788 257.606 236.789C257.606 236.789 257.606 236.79 257.606 236.79C257.606 236.791 257.606 236.791 257.606 236.792C257.606 236.792 257.606 236.793 257.606 236.793C257.606 236.794 257.606 236.794 257.606 236.795C257.606 236.795 257.606 236.796 257.606 236.796C257.606 236.797 257.606 236.797 257.606 236.798C257.606 236.798 257.606 236.799 257.606 236.799C257.606 236.8 257.606 236.8 257.606 236.801C257.606 236.801 257.606 236.802 257.606 236.802C257.606 236.803 257.606 236.803 257.606 236.804C257.606 236.804 257.606 236.805 257.606 236.805C257.606 236.806 257.606 236.806 257.606 236.807C257.606 236.807 257.606 236.808 257.606 236.808C257.606 236.809 257.606 236.809 257.606 236.81C257.606 236.81 257.606 236.811 257.606 236.811C257.606 236.812 257.606 236.812 257.606 236.813C257.606 236.813 257.606 236.814 257.606 236.814C257.606 236.815 257.606 236.815 257.606 236.816C257.606 236.816 257.606 236.817 257.606 236.817C257.606 236.818 257.606 236.818 257.606 236.819C257.606 236.819 257.606 236.82 257.606 236.82C257.606 236.821 257.606 236.821 257.606 236.822C257.606 236.822 257.606 236.823 257.606 236.823C257.606 236.824 257.606 236.824 257.606 236.825C257.606 236.825 257.606 236.826 257.606 236.826C257.606 236.827 257.606 236.827 257.606 236.828C257.606 236.828 257.606 236.829 257.606 236.829C257.606 236.83 257.606 236.83 257.606 236.831C257.606 236.831 257.606 236.832 257.606 236.832C257.606 236.833 257.606 236.833 257.606 236.834C257.606 236.834 257.606 236.835 257.606 236.835C257.606 236.836 257.606 236.836 257.606 236.837C257.606 236.837 257.606 236.838 257.606 236.838C257.606 236.839 257.606 236.839 257.606 236.84C257.606 236.84 257.606 236.841 257.606 236.841C257.606 236.842 257.606 236.842 257.606 236.843C257.606 236.843 257.606 236.844 257.606 236.844C257.606 236.845 257.606 236.845 257.606 236.846C257.606 236.846 257.606 236.847 257.606 236.847C257.606 236.848 257.606 236.848 257.606 236.849C257.606 236.849 257.606 236.85 257.606 236.85C257.606 236.851 257.606 236.851 257.606 236.852C257.606 236.852 257.606 236.853 257.606 236.853C257.606 236.854 257.606 236.854 257.606 236.855C257.606 236.855 257.606 236.856 257.606 236.856C257.606 236.857 257.606 236.857 257.606 236.858C257.606 236.858 257.606 236.859 257.606 236.859C257.606 236.86 257.606 236.86 257.606 236.861C257.606 236.861 257.606 236.862 257.606 236.862C257.606 236.863 257.606 236.863 257.606 236.864C257.606 236.864 257.606 236.865 257.606 236.865C257.606 236.866 257.606 236.866 257.606 236.867C257.606 236.867 257.606 236.868 257.606 236.868C257.606 236.869 257.606 236.869 257.606 236.87C257.606 236.87 257.606 236.871 257.606 236.871C257.606 236.872 257.606 236.872 257.606 236.873C257.606 236.873 257.606 236.874 257.606 236.874C257.606 236.875 257.606 236.875 257.606 236.876C257.606 236.876 257.606 236.877 257.606 236.877C257.606 236.878 257.606 236.878 257.606 236.879C257.606 236.879 257.606 236.88 257.606 236.88C257.606 236.881 257.606 236.881 257.606 236.882C257.606 236.882 257.606 236.883 257.606 236.883C257.606 236.884 257.606 236.884 257.606 236.885C257.606 236.885 257.606 236.886 257.606 236.887C257.606 236.887 257.606 236.888 257.606 236.888C257.606 236.889 257.606 236.889 257.606 236.89C257.606 236.89 257.606 236.891 257.606 236.891C257.606 236.892 257.606 236.892 257.606 236.893C257.606 236.893 257.606 236.894 257.606 236.894C257.606 236.895 257.606 236.895 257.606 236.896C257.606 236.896 257.606 236.897 257.606 236.897C257.606 236.898 257.606 236.898 257.606 236.899C257.606 236.899 257.606 236.9 257.606 236.9C257.606 236.901 257.606 236.901 257.606 236.902C257.606 236.902 257.606 236.903 257.606 236.903C257.606 236.904 257.606 236.904 257.606 236.905C257.606 236.905 257.606 236.906 257.606 236.906C257.606 236.907 257.606 236.907 257.606 236.908C257.606 236.908 257.606 236.909 257.606 236.909C257.606 236.91 257.606 236.91 257.606 236.911C257.606 236.911 257.606 236.912 257.606 236.912C257.606 236.913 257.606 236.913 257.606 236.914C257.606 236.914 257.606 236.915 257.606 236.915C257.606 236.916 257.606 236.916 257.606 236.917C257.606 236.917 257.606 236.918 257.606 236.918C257.606 236.919 257.606 236.919 257.606 236.92C257.606 236.92 257.606 236.921 257.606 236.921C257.606 236.922 257.606 236.922 257.606 236.923C257.606 236.923 257.606 236.924 257.606 236.924C257.606 236.925 257.606 236.925 257.606 236.926C257.606 236.926 257.606 236.927 257.606 236.927C257.606 236.928 257.606 236.928 257.606 236.929C257.606 236.929 257.606 236.93 257.606 236.93C257.606 236.931 257.606 236.931 257.606 236.932C257.606 236.932 257.606 236.933 257.606 236.933C257.606 236.934 257.606 236.934 257.606 236.935C257.606 236.935 257.606 236.936 257.606 236.936C257.606 236.937 257.606 236.937 257.606 236.938C257.606 236.938 257.606 236.939 257.606 236.939C257.606 236.94 257.606 236.94 257.606 236.941C257.606 236.941 257.606 236.942 257.606 236.942C257.606 236.943 257.606 236.943 257.606 236.944C257.606 236.944 257.606 236.945 257.606 236.945C257.606 236.946 257.606 236.946 257.606 236.947C257.606 236.947 257.606 236.948 257.606 236.948C257.606 236.949 257.606 236.949 257.606 236.95C257.606 236.95 257.606 236.951 257.606 236.951C257.606 236.952 257.606 236.952 257.606 236.953C257.606 236.953 257.606 236.954 257.606 236.954C257.606 236.955 257.606 236.955 257.606 236.956C257.606 236.956 257.606 236.957 257.606 236.957C257.606 236.958 257.606 236.958 257.606 236.959C257.606 236.959 257.606 236.96 257.606 236.96C257.606 236.961 257.606 236.961 257.606 236.962C257.606 236.962 257.606 236.963 257.606 236.963C257.606 236.964 257.606 236.964 257.606 236.965C257.606 236.965 257.606 236.966 257.606 236.966C257.606 236.967 257.606 236.967 257.606 236.968C257.606 236.968 257.606 236.969 257.606 236.969C257.606 236.97 257.606 236.97 257.606 236.971C257.606 236.971 257.606 236.972 257.606 236.972C257.606 236.973 257.606 236.973 257.606 236.974C257.606 236.974 257.606 236.975 257.606 236.975C257.606 236.976 257.606 236.976 257.606 236.977C257.606 236.977 257.606 236.978 257.606 236.978C257.606 236.979 257.606 236.979 257.606 236.98C257.606 236.98 257.606 236.981 257.606 236.981C257.606 236.982 257.606 236.982 257.606 236.983C257.606 236.983 257.606 236.984 257.606 236.984C257.606 236.985 257.606 236.985 257.606 236.986C257.606 236.986 257.606 236.987 257.606 236.987C257.606 236.988 257.606 236.988 257.606 236.989C257.606 236.989 257.606 236.99 257.606 236.99C257.606 236.991 257.606 236.991 257.606 236.992C257.606 236.992 257.606 236.993 257.606 236.993C257.606 236.994 257.606 236.994 257.606 236.995C257.606 236.995 257.606 236.996 257.606 236.996C257.606 236.997 257.606 236.997 257.606 236.998C257.606 236.998 257.606 236.999 257.606 236.999C257.606 237 257.606 237 257.606 237.001C257.606 237.001 257.606 237.002 257.606 237.002C257.606 237.003 257.606 237.003 257.606 237.004C257.606 237.004 257.606 237.005 257.606 237.005C257.606 237.006 257.606 237.006 257.606 237.007C257.606 237.007 257.606 237.008 257.606 237.008C257.606 237.009 257.606 237.009 257.606 237.01C257.606 237.01 257.606 237.011 257.606 237.011C257.606 237.012 257.606 237.012 257.606 237.013C257.606 237.013 257.606 237.014 257.606 237.014C257.606 237.015 257.606 237.015 257.606 237.016C257.606 237.016 257.606 237.017 257.606 237.017C257.606 237.018 257.606 237.018 257.606 237.019C257.606 237.019 257.606 237.02 257.606 237.02C257.606 237.021 257.606 237.021 257.606 237.022C257.606 237.022 257.606 237.023 257.606 237.023C257.606 237.024 257.606 237.024 257.606 237.025C257.606 237.025 257.606 237.026 257.606 237.026C257.606 237.027 257.606 237.027 257.606 237.028C257.606 237.028 257.606 237.029 257.606 237.029C257.606 237.03 257.606 237.03 257.606 237.031C257.606 237.031 257.606 237.032 257.606 237.032C257.606 237.033 257.606 237.033 257.606 237.034C257.606 237.034 257.606 237.035 257.606 237.035C257.606 237.036 257.606 237.036 257.606 237.037C257.606 237.037 257.606 237.038 257.606 237.038C257.606 237.039 257.606 237.039 257.606 237.04C257.606 237.04 257.606 237.041 257.606 237.041C257.606 237.042 257.606 237.042 257.606 237.043C257.606 237.043 257.606 237.044 257.606 237.044C257.606 237.045 257.606 237.045 257.606 237.046C257.606 237.046 257.606 237.047 257.606 237.047C257.606 237.048 257.606 237.048 257.606 237.049C257.606 237.049 257.606 237.05 257.606 237.05C257.606 237.051 257.606 237.051 257.606 237.052C257.606 237.052 257.606 237.053 257.606 237.053C257.606 237.054 257.606 237.054 257.606 237.055C257.606 237.055 257.606 237.056 257.606 237.056C257.606 237.057 257.606 237.057 257.606 237.058C257.606 237.058 257.606 237.059 257.606 237.059C257.606 237.06 257.606 237.06 257.606 237.061C257.606 237.061 257.606 237.062 257.606 237.062C257.606 237.063 257.606 237.063 257.606 237.064C257.606 237.064 257.606 237.065 257.606 237.065C257.606 237.066 257.606 237.066 257.606 237.067C257.606 237.067 257.606 237.068 257.606 237.068C257.606 237.069 257.606 237.069 257.606 237.07C257.606 237.07 257.606 237.071 257.606 237.071C257.606 237.072 257.606 237.072 257.606 237.073C257.606 237.073 257.606 237.074 257.606 237.074H261.238ZM261.238 236.306L264.487 237.93C264.689 237.527 265.274 236.469 266.314 234.649L263.16 232.847L260.006 231.045C258.996 232.812 258.3 234.06 257.989 234.681L261.238 236.306ZM263.16 232.847L266.084 235.002C269.664 230.144 273.756 224.644 278.363 218.501L275.457 216.322L272.551 214.142C267.935 220.297 263.83 225.814 260.235 230.692L263.16 232.847ZM275.457 216.322L278.305 218.577C283.165 212.438 288.282 206.042 293.655 199.389L290.829 197.107L288.004 194.824C282.617 201.494 277.485 207.908 272.609 214.067L275.457 216.322ZM290.829 197.107L293.628 199.423C299.79 191.977 305.951 184.404 312.112 176.702L309.276 174.433L306.439 172.164C300.303 179.835 294.167 187.377 288.031 194.791L290.829 197.107ZM309.276 174.433L312.148 176.657C318.316 168.69 323.723 161.482 328.364 155.035L325.417 152.912L322.469 150.79C317.887 157.153 312.533 164.292 306.404 172.209L309.276 174.433ZM325.417 152.912L325.761 149.296C320.291 148.775 313.939 148.387 306.715 148.129L306.586 151.759L306.456 155.39C313.58 155.644 319.782 156.025 325.072 156.528L325.417 152.912ZM306.586 151.759L306.854 148.137C299.831 147.616 292.053 147.358 283.528 147.358V150.991V154.623C291.911 154.623 299.506 154.877 306.317 155.382L306.586 151.759ZM283.528 150.991V147.358C273.443 147.358 263.106 147.746 252.519 148.521L252.784 152.144L253.049 155.766C263.469 155.004 273.629 154.623 283.528 154.623V150.991ZM252.784 152.144L252.519 148.521C242.002 149.29 232.251 150.06 223.267 150.83L223.577 154.449L223.887 158.069C232.837 157.302 242.557 156.534 253.049 155.766L252.784 152.144ZM223.577 154.449L223.258 150.831C214.517 151.602 207.162 152.376 201.202 153.153L201.672 156.755L202.141 160.357C207.967 159.597 215.215 158.834 223.896 158.068L223.577 154.449ZM201.672 156.755L201.181 153.156C198.367 153.54 196.205 153.826 194.688 154.015C193.009 154.225 192.415 154.276 192.448 154.276V157.908V161.541C192.994 161.541 194.194 161.399 195.589 161.224C197.146 161.03 199.34 160.739 202.162 160.354L201.672 156.755ZM192.448 157.908V154.276C190.477 154.276 188.901 153.677 187.539 152.484L185.147 155.218L182.755 157.952C185.491 160.346 188.784 161.541 192.448 161.541V157.908ZM185.147 155.218L187.715 152.649C186.671 151.605 185.731 149.766 185.284 146.634L181.688 147.148L178.092 147.661C178.669 151.703 180.036 155.244 182.578 157.787L185.147 155.218ZM181.688 147.148H185.321C185.321 145.021 185.884 143.607 186.752 142.594L183.994 140.23L181.236 137.866C179.03 140.44 178.055 143.638 178.055 147.148H181.688ZM183.994 140.23L186.562 142.799C187.767 141.594 189.372 140.743 191.561 140.346L190.911 136.772L190.261 133.198C186.814 133.824 183.807 135.28 181.425 137.662L183.994 140.23ZM190.911 136.772V140.404C191.457 140.404 192.656 140.262 194.052 140.088C195.609 139.893 197.803 139.603 200.625 139.218L200.134 135.619L199.644 132.019C196.83 132.403 194.668 132.689 193.151 132.879C191.472 133.089 190.878 133.139 190.911 133.139V136.772ZM200.134 135.619L200.604 139.221C206.43 138.461 213.677 137.697 222.359 136.931L222.04 133.313L221.72 129.694C212.98 130.466 205.625 131.239 199.665 132.017L200.134 135.619ZM222.04 133.313L222.452 136.922C231.359 135.904 241.171 135.012 251.89 134.246L251.631 130.623L251.372 126.999C240.57 127.771 230.654 128.672 221.627 129.704L222.04 133.313ZM251.631 130.623L251.89 134.246C262.566 133.483 273.112 133.102 283.528 133.102V129.47V125.837C272.935 125.837 262.216 126.225 251.372 126.999L251.631 130.623ZM283.528 129.47V133.102C296.013 133.102 306.927 133.485 316.284 134.243L316.578 130.623L316.871 127.002C307.269 126.224 296.151 125.837 283.528 125.837V129.47ZM316.578 130.623L316.292 134.244C325.999 135.01 333.745 135.773 339.55 136.531L340.02 132.929L340.49 129.327C334.51 128.547 326.627 127.772 316.864 127.001L316.578 130.623ZM340.02 132.929L342.345 135.719C343.065 135.12 344.213 134.64 346.169 134.64V131.007V127.375C343 127.375 340.05 128.175 337.695 130.138L340.02 132.929ZM346.169 131.007V134.64C347.128 134.64 348.473 134.886 350.274 135.561L351.549 132.16L352.824 128.759C350.526 127.897 348.284 127.375 346.169 127.375V131.007ZM351.549 132.16L348.98 134.729C349.094 134.842 349.635 135.383 349.749 135.497C349.756 135.504 349.79 135.538 349.797 135.545C349.804 135.552 349.838 135.586 349.845 135.593C349.852 135.6 349.886 135.634 349.893 135.641C349.9 135.648 349.934 135.682 349.941 135.689C349.948 135.696 349.982 135.73 349.989 135.737C349.996 135.744 350.03 135.778 350.037 135.785C350.044 135.792 350.078 135.826 350.085 135.833C350.092 135.841 350.126 135.874 350.133 135.881C350.14 135.889 350.174 135.922 350.181 135.929C350.188 135.937 350.222 135.97 350.229 135.978C350.237 135.985 350.27 136.018 350.277 136.026C350.285 136.033 350.318 136.066 350.325 136.074C350.333 136.081 350.366 136.115 350.374 136.122C350.381 136.129 350.414 136.163 350.422 136.17C350.429 136.177 350.462 136.211 350.47 136.218C350.477 136.225 350.511 136.259 350.518 136.266L353.086 133.697L355.655 131.129C355.541 131.015 355 130.474 354.886 130.36C354.879 130.353 354.845 130.319 354.838 130.312C354.831 130.305 354.797 130.271 354.79 130.264C354.783 130.257 354.749 130.223 354.742 130.216C354.735 130.209 354.701 130.175 354.694 130.168C354.687 130.161 354.653 130.127 354.646 130.12C354.639 130.113 354.605 130.079 354.598 130.072C354.591 130.065 354.557 130.031 354.55 130.024C354.543 130.017 354.509 129.983 354.502 129.976C354.495 129.969 354.461 129.935 354.454 129.928C354.447 129.921 354.413 129.887 354.406 129.88C354.399 129.872 354.365 129.839 354.358 129.832C354.351 129.824 354.317 129.791 354.31 129.784C354.303 129.776 354.269 129.743 354.262 129.735C354.255 129.728 354.221 129.695 354.214 129.687C354.207 129.68 354.173 129.647 354.166 129.639C354.159 129.632 354.125 129.598 354.118 129.591L351.549 132.16ZM353.086 133.697L351.071 136.72C351.441 136.966 351.739 137.264 351.985 137.634L355.008 135.619L358.03 133.604C357.252 132.436 356.269 131.453 355.101 130.675L353.086 133.697ZM355.008 135.619L353.625 138.978C355.068 139.572 356.05 140.461 356.723 141.689C357.432 142.982 357.908 144.859 357.908 147.532H361.541H365.173C365.173 144.056 364.561 140.874 363.093 138.195C361.588 135.452 359.302 133.459 356.391 132.26L355.008 135.619ZM361.541 147.532L357.999 146.727C357.517 148.846 356.624 150.113 355.499 150.911C354.317 151.749 352.476 152.354 349.628 152.354V155.987V159.619C353.44 159.619 356.915 158.815 359.704 156.835C362.551 154.815 364.284 151.855 365.083 148.337L361.541 147.532ZM349.628 155.987L346.605 153.972C342.067 160.779 335.982 169.023 328.33 178.715L331.181 180.966L334.032 183.217C341.752 173.438 347.965 165.029 352.65 158.002L349.628 155.987ZM331.181 180.966L328.293 178.762C320.891 188.462 313.103 198.293 304.93 208.253L307.739 210.557L310.547 212.862C318.771 202.839 326.612 192.941 334.069 183.17L331.181 180.966ZM307.739 210.557L304.882 208.313C302.057 211.909 299.359 215.377 296.789 218.719L299.668 220.934L302.548 223.148C305.101 219.828 307.784 216.379 310.595 212.802L307.739 210.557ZM299.668 220.934L296.878 218.608C294.278 221.728 291.805 224.851 289.461 227.977L292.367 230.157L295.273 232.336C297.54 229.313 299.935 226.288 302.459 223.259L299.668 220.934Z" fill="white" mask="url(#path-2-outside-1_127_9)"/>
<defs>
<filter id="filter0_d_127_9" x="0.229929" y="0.695941" width="572.535" height="572.535" filterUnits="userSpaceOnUse" color-interpolation-filters="sRGB">
<feFlood flood-opacity="0" result="BackgroundImageFix"/>
<feColorMatrix in="SourceAlpha" type="matrix" values="0 0 0 0 0 0 0 0 0 0 0 0 0 0 0 0 0 0 127 0" result="hardAlpha"/>
<feMorphology radius="11.3041" operator="dilate" in="SourceAlpha" result="effect1_dropShadow_127_9"/>
<feOffset dy="15.0721"/>
<feGaussianBlur stdDeviation="7.53604"/>
<feComposite in2="hardAlpha" operator="out"/>
<feColorMatrix type="matrix" values="0 0 0 0 0.12549 0 0 0 0 0.278431 0 0 0 0 0.27451 0 0 0 0.28 0"/>
<feBlend mode="normal" in2="BackgroundImageFix" result="effect1_dropShadow_127_9"/>
<feBlend mode="normal" in="SourceGraphic" in2="effect1_dropShadow_127_9" result="shape"/>
</filter>
</defs>
</svg>
