<svg width="573" height="574" viewBox="0 0 573 574" fill="none" xmlns="http://www.w3.org/2000/svg">
<g filter="url(#filter0_d_127_49)">
<rect x="26.5248" y="12.2773" width="519.783" height="519.783" rx="73.6907" fill="#2FD82F"/>
</g>
<mask id="path-2-outside-1_127_49" maskUnits="userSpaceOnUse" x="168.928" y="132.663" width="235" height="296" fill="black">
<rect fill="white" x="168.928" y="132.663" width="235" height="296"/>
<path d="M335.401 393.762C348.98 386.588 359.612 377.365 367.298 366.092C374.984 354.563 378.827 341.497 378.827 326.894C378.827 323.819 378.571 320.745 378.058 317.67C377.802 314.596 377.418 311.522 376.906 308.447C373.575 294.612 367.554 282.699 358.843 272.707C350.133 262.715 338.732 255.926 324.641 252.339C315.93 250.29 306.963 249.265 297.74 249.265C287.748 249.265 277.5 250.546 266.995 253.108C256.747 255.414 247.396 259.257 238.941 264.637C230.487 269.761 223.441 276.294 217.805 284.236C212.168 291.922 208.966 301.145 208.197 311.906C207.941 314.724 206.916 317.03 205.123 318.823C203.33 320.361 201.408 321.385 199.358 321.898C201.664 332.914 205.123 343.29 209.735 353.026C214.346 362.762 220.495 371.088 228.181 378.006C237.148 386.204 247.396 392.609 258.925 397.221C270.454 401.832 282.367 404.138 294.665 404.138C301.583 404.138 308.372 403.37 315.033 401.832C321.95 400.039 328.74 397.349 335.401 393.762ZM343.087 236.199C352.566 240.042 360.893 245.038 368.067 251.186C375.24 257.335 381.133 264.253 385.744 271.939C390.356 279.368 393.815 287.439 396.121 296.15C398.426 304.86 399.579 313.571 399.579 322.282C399.579 332.018 398.298 341.625 395.736 351.105C393.174 360.328 389.203 369.167 383.823 377.621C378.699 385.82 372.294 393.25 364.608 399.911C357.178 406.572 348.467 411.952 338.475 416.051C331.046 419.126 323.36 421.304 315.417 422.585C307.731 424.122 300.045 424.89 292.359 424.89C276.219 424.89 260.719 421.944 245.859 416.051C231.255 409.903 218.574 400.551 207.813 387.997C201.664 380.824 196.284 372.882 191.672 364.171C187.317 355.46 183.73 346.365 180.912 336.885C178.094 327.15 176.044 317.286 174.763 307.294C173.482 297.046 172.842 286.926 172.842 276.934C172.842 263.1 173.995 250.033 176.3 237.736C178.35 225.694 181.424 214.422 185.524 203.917C189.623 193.413 194.875 184.062 201.28 175.863C207.941 167.409 215.883 160.235 225.107 154.342C234.33 148.45 245.09 143.966 257.388 140.892C263.024 139.611 268.661 138.714 274.297 138.202C279.934 137.433 285.57 137.049 291.206 137.049C306.578 137.049 321.054 140.123 334.632 146.272C348.467 152.165 359.868 162.157 368.835 176.248C370.116 177.785 370.757 179.706 370.757 182.012C370.757 184.83 369.476 187.264 366.914 189.314C364.608 191.107 362.046 192.004 359.228 192.004C355.641 192.004 352.695 190.339 350.389 187.008C343.728 176.504 335.017 169.074 324.256 164.719C313.752 160.107 302.607 157.801 290.822 157.801C277.243 157.801 264.305 160.363 252.008 165.487C242.272 169.33 233.946 174.326 227.028 180.475C220.367 186.368 214.73 193.285 210.119 201.227C205.763 208.913 202.433 217.368 200.127 226.591C197.821 235.814 196.284 245.422 195.515 255.414C195.259 258.488 195.003 261.691 194.747 265.021C194.747 268.352 194.747 271.81 194.747 275.397V281.546C199.358 272.835 205.251 265.149 212.425 258.488C219.855 251.571 228.053 245.934 237.02 241.579C246.243 236.967 255.979 233.508 266.227 231.203C276.475 228.897 286.723 227.744 296.971 227.744C305.169 227.744 313.112 228.513 320.798 230.05C328.484 231.331 335.913 233.38 343.087 236.199Z"/>
</mask>
<path d="M335.401 393.762C348.98 386.588 359.612 377.365 367.298 366.092C374.984 354.563 378.827 341.497 378.827 326.894C378.827 323.819 378.571 320.745 378.058 317.67C377.802 314.596 377.418 311.522 376.906 308.447C373.575 294.612 367.554 282.699 358.843 272.707C350.133 262.715 338.732 255.926 324.641 252.339C315.93 250.29 306.963 249.265 297.74 249.265C287.748 249.265 277.5 250.546 266.995 253.108C256.747 255.414 247.396 259.257 238.941 264.637C230.487 269.761 223.441 276.294 217.805 284.236C212.168 291.922 208.966 301.145 208.197 311.906C207.941 314.724 206.916 317.03 205.123 318.823C203.33 320.361 201.408 321.385 199.358 321.898C201.664 332.914 205.123 343.29 209.735 353.026C214.346 362.762 220.495 371.088 228.181 378.006C237.148 386.204 247.396 392.609 258.925 397.221C270.454 401.832 282.367 404.138 294.665 404.138C301.583 404.138 308.372 403.37 315.033 401.832C321.95 400.039 328.74 397.349 335.401 393.762ZM343.087 236.199C352.566 240.042 360.893 245.038 368.067 251.186C375.24 257.335 381.133 264.253 385.744 271.939C390.356 279.368 393.815 287.439 396.121 296.15C398.426 304.86 399.579 313.571 399.579 322.282C399.579 332.018 398.298 341.625 395.736 351.105C393.174 360.328 389.203 369.167 383.823 377.621C378.699 385.82 372.294 393.25 364.608 399.911C357.178 406.572 348.467 411.952 338.475 416.051C331.046 419.126 323.36 421.304 315.417 422.585C307.731 424.122 300.045 424.89 292.359 424.89C276.219 424.89 260.719 421.944 245.859 416.051C231.255 409.903 218.574 400.551 207.813 387.997C201.664 380.824 196.284 372.882 191.672 364.171C187.317 355.46 183.73 346.365 180.912 336.885C178.094 327.15 176.044 317.286 174.763 307.294C173.482 297.046 172.842 286.926 172.842 276.934C172.842 263.1 173.995 250.033 176.3 237.736C178.35 225.694 181.424 214.422 185.524 203.917C189.623 193.413 194.875 184.062 201.28 175.863C207.941 167.409 215.883 160.235 225.107 154.342C234.33 148.45 245.09 143.966 257.388 140.892C263.024 139.611 268.661 138.714 274.297 138.202C279.934 137.433 285.57 137.049 291.206 137.049C306.578 137.049 321.054 140.123 334.632 146.272C348.467 152.165 359.868 162.157 368.835 176.248C370.116 177.785 370.757 179.706 370.757 182.012C370.757 184.83 369.476 187.264 366.914 189.314C364.608 191.107 362.046 192.004 359.228 192.004C355.641 192.004 352.695 190.339 350.389 187.008C343.728 176.504 335.017 169.074 324.256 164.719C313.752 160.107 302.607 157.801 290.822 157.801C277.243 157.801 264.305 160.363 252.008 165.487C242.272 169.33 233.946 174.326 227.028 180.475C220.367 186.368 214.73 193.285 210.119 201.227C205.763 208.913 202.433 217.368 200.127 226.591C197.821 235.814 196.284 245.422 195.515 255.414C195.259 258.488 195.003 261.691 194.747 265.021C194.747 268.352 194.747 271.81 194.747 275.397V281.546C199.358 272.835 205.251 265.149 212.425 258.488C219.855 251.571 228.053 245.934 237.02 241.579C246.243 236.967 255.979 233.508 266.227 231.203C276.475 228.897 286.723 227.744 296.971 227.744C305.169 227.744 313.112 228.513 320.798 230.05C328.484 231.331 335.913 233.38 343.087 236.199Z" fill="white"/>
<path d="M335.401 393.762L333.704 390.55L333.691 390.557L333.679 390.564L335.401 393.762ZM367.298 366.092L370.299 368.139L370.31 368.123L370.32 368.107L367.298 366.092ZM378.058 317.67L374.438 317.972L374.451 318.121L374.475 318.268L378.058 317.67ZM376.906 308.447L380.489 307.85L380.467 307.723L380.437 307.597L376.906 308.447ZM358.843 272.707L361.581 270.32L358.843 272.707ZM324.641 252.339L325.537 248.819L325.505 248.811L325.473 248.803L324.641 252.339ZM266.995 253.108L267.793 256.652L267.825 256.645L267.856 256.637L266.995 253.108ZM238.941 264.637L240.824 267.743L240.858 267.723L240.892 267.701L238.941 264.637ZM217.805 284.236L220.734 286.384L220.751 286.362L220.767 286.339L217.805 284.236ZM208.197 311.906L211.815 312.235L211.818 312.2L211.821 312.165L208.197 311.906ZM205.123 318.823L207.487 321.581L207.593 321.491L207.692 321.392L205.123 318.823ZM199.358 321.898L198.477 318.374L195.087 319.221L195.803 322.642L199.358 321.898ZM228.181 378.006L230.632 375.325L230.622 375.315L230.611 375.306L228.181 378.006ZM315.033 401.832L315.85 405.372L315.897 405.361L315.945 405.349L315.033 401.832ZM343.087 236.199L344.452 232.832L344.434 232.825L344.415 232.818L343.087 236.199ZM385.744 271.939L382.63 273.808L382.644 273.831L382.658 273.854L385.744 271.939ZM395.736 351.105L399.236 352.077L399.24 352.065L399.243 352.052L395.736 351.105ZM383.823 377.621L380.758 375.671L380.75 375.684L380.743 375.696L383.823 377.621ZM364.608 399.911L362.229 397.166L362.206 397.186L362.183 397.206L364.608 399.911ZM338.475 416.051L337.097 412.691L337.087 412.695L338.475 416.051ZM315.417 422.585L314.839 418.998L314.772 419.009L314.705 419.023L315.417 422.585ZM245.859 416.051L244.449 419.399L244.484 419.414L244.52 419.428L245.859 416.051ZM207.813 387.997L205.055 390.362L207.813 387.997ZM191.672 364.171L188.423 365.795L188.442 365.833L188.462 365.87L191.672 364.171ZM180.912 336.885L177.423 337.896L177.426 337.908L177.43 337.921L180.912 336.885ZM174.763 307.294L171.159 307.745L171.16 307.756L174.763 307.294ZM176.3 237.736L179.871 238.405L179.876 238.375L179.881 238.345L176.3 237.736ZM185.524 203.917L182.14 202.597L185.524 203.917ZM201.28 175.863L198.427 173.615L198.422 173.621L198.417 173.627L201.28 175.863ZM257.388 140.892L256.583 137.35L256.545 137.358L256.507 137.368L257.388 140.892ZM274.297 138.202L274.626 141.819L274.707 141.812L274.788 141.801L274.297 138.202ZM334.632 146.272L333.134 149.581L333.171 149.598L333.209 149.614L334.632 146.272ZM368.835 176.248L365.771 178.198L365.896 178.394L366.045 178.573L368.835 176.248ZM366.914 189.314L369.144 192.181L369.163 192.166L369.183 192.15L366.914 189.314ZM350.389 187.008L347.321 188.953L347.36 189.015L347.402 189.076L350.389 187.008ZM324.256 164.719L322.796 168.045L322.844 168.066L322.893 168.086L324.256 164.719ZM252.008 165.487L253.341 168.866L253.373 168.853L253.405 168.84L252.008 165.487ZM227.028 180.475L229.435 183.196L229.441 183.19L227.028 180.475ZM210.119 201.227L206.978 199.403L206.968 199.42L206.958 199.436L210.119 201.227ZM195.515 255.414L199.135 255.715L199.136 255.704L199.137 255.692L195.515 255.414ZM194.747 265.021L191.125 264.743L191.114 264.882V265.021H194.747ZM194.747 281.546H191.114L197.957 283.246L194.747 281.546ZM212.425 258.488L214.896 261.15L214.9 261.147L212.425 258.488ZM237.02 241.579L238.607 244.846L238.626 244.837L238.644 244.828L237.02 241.579ZM266.227 231.203L265.429 227.659L266.227 231.203ZM320.798 230.05L320.085 233.612L320.143 233.623L320.2 233.633L320.798 230.05ZM335.401 393.762L337.098 396.974C351.133 389.559 362.24 379.959 370.299 368.139L367.298 366.092L364.297 364.046C356.984 374.771 346.826 383.618 333.704 390.55L335.401 393.762ZM367.298 366.092L370.32 368.107C378.426 355.949 382.46 342.173 382.46 326.894H378.827H375.195C375.195 340.821 371.542 353.178 364.276 364.077L367.298 366.092ZM378.827 326.894H382.46C382.46 323.616 382.186 320.342 381.642 317.073L378.058 317.67L374.475 318.268C374.955 321.147 375.195 324.022 375.195 326.894H378.827ZM378.058 317.67L381.678 317.369C381.414 314.194 381.017 311.021 380.489 307.85L376.906 308.447L373.322 309.044C373.819 312.022 374.191 314.998 374.438 317.972L378.058 317.67ZM376.906 308.447L380.437 307.597C376.98 293.236 370.705 280.785 361.581 270.32L358.843 272.707L356.105 275.094C364.404 284.613 370.17 295.988 373.374 309.297L376.906 308.447ZM358.843 272.707L361.581 270.32C352.339 259.718 340.27 252.569 325.537 248.819L324.641 252.339L323.745 255.86C337.193 259.283 347.926 265.712 356.105 275.094L358.843 272.707ZM324.641 252.339L325.473 248.803C316.481 246.688 307.234 245.632 297.74 245.632V249.265V252.897C306.691 252.897 315.379 253.892 323.809 255.875L324.641 252.339ZM297.74 249.265V245.632C287.435 245.632 276.898 246.954 266.135 249.579L266.995 253.108L267.856 256.637C278.102 254.138 288.06 252.897 297.74 252.897V249.265ZM266.995 253.108L266.198 249.564C255.561 251.957 245.816 255.956 236.991 261.572L238.941 264.637L240.892 267.701C248.976 262.557 257.934 258.87 267.793 256.652L266.995 253.108ZM238.941 264.637L237.059 261.53C228.186 266.908 220.771 273.78 214.843 282.134L217.805 284.236L220.767 286.339C226.112 278.808 232.788 272.614 240.824 267.743L238.941 264.637ZM217.805 284.236L214.876 282.088C208.783 290.396 205.385 300.296 204.574 311.647L208.197 311.906L211.821 312.165C212.547 301.994 215.554 293.448 220.734 286.384L217.805 284.236ZM208.197 311.906L204.58 311.577C204.391 313.653 203.677 315.132 202.554 316.255L205.123 318.823L207.692 321.392C210.156 318.927 211.491 315.795 211.815 312.235L208.197 311.906ZM205.123 318.823L202.759 316.065C201.343 317.279 199.918 318.013 198.477 318.374L199.358 321.898L200.239 325.422C202.898 324.757 205.316 323.442 207.487 321.581L205.123 318.823ZM199.358 321.898L195.803 322.642C198.165 333.926 201.712 344.576 206.452 354.581L209.735 353.026L213.017 351.471C208.534 342.005 205.164 331.903 202.914 321.154L199.358 321.898ZM209.735 353.026L206.452 354.581C211.26 364.733 217.693 373.453 225.751 380.706L228.181 378.006L230.611 375.306C223.297 368.723 217.432 360.791 213.017 351.471L209.735 353.026ZM228.181 378.006L225.73 380.687C235.027 389.187 245.65 395.823 257.576 400.593L258.925 397.221L260.274 393.848C249.142 389.395 239.269 383.222 230.632 375.325L228.181 378.006ZM258.925 397.221L257.576 400.593C269.53 405.375 281.901 407.771 294.665 407.771V404.138V400.506C282.834 400.506 271.378 398.29 260.274 393.848L258.925 397.221ZM294.665 404.138V407.771C301.854 407.771 308.918 406.972 315.85 405.372L315.033 401.832L314.216 398.293C307.826 399.767 301.311 400.506 294.665 400.506V404.138ZM315.033 401.832L315.945 405.349C323.16 403.478 330.221 400.677 337.123 396.96L335.401 393.762L333.679 390.564C327.259 394.02 320.741 396.6 314.121 398.316L315.033 401.832ZM343.087 236.199L341.722 239.565C350.868 243.273 358.851 248.071 365.703 253.944L368.067 251.186L370.431 248.428C362.935 242.004 354.265 236.81 344.452 232.832L343.087 236.199ZM368.067 251.186L365.703 253.944C372.596 259.853 378.229 266.474 382.63 273.808L385.744 271.939L388.859 270.07C384.036 262.031 377.885 254.817 370.431 248.428L368.067 251.186ZM385.744 271.939L382.658 273.854C387.074 280.969 390.392 288.706 392.609 297.079L396.121 296.15L399.632 295.22C397.237 286.172 393.638 277.768 388.831 270.023L385.744 271.939ZM396.121 296.15L392.609 297.079C394.837 305.497 395.947 313.896 395.947 322.282H399.579H403.212C403.212 313.247 402.015 304.224 399.632 295.22L396.121 296.15ZM399.579 322.282H395.947C395.947 331.695 394.709 340.984 392.23 350.157L395.736 351.105L399.243 352.052C401.888 342.267 403.212 332.341 403.212 322.282H399.579ZM395.736 351.105L392.236 350.132C389.775 358.994 385.955 367.505 380.758 375.671L383.823 377.621L386.888 379.572C392.451 370.829 396.574 361.662 399.236 352.077L395.736 351.105ZM383.823 377.621L380.743 375.696C375.82 383.572 369.656 390.729 362.229 397.166L364.608 399.911L366.987 402.656C374.932 395.77 381.578 388.067 386.903 379.547L383.823 377.621ZM364.608 399.911L362.183 397.206C355.086 403.569 346.737 408.736 337.097 412.691L338.475 416.051L339.854 419.412C350.198 415.169 359.27 409.575 367.033 402.616L364.608 399.911ZM338.475 416.051L337.087 412.695C329.917 415.662 322.503 417.762 314.839 418.998L315.417 422.585L315.996 426.171C324.216 424.845 332.174 422.59 339.864 419.408L338.475 416.051ZM315.417 422.585L314.705 419.023C307.249 420.514 299.801 421.258 292.359 421.258V424.89V428.523C300.289 428.523 308.214 427.73 316.13 426.147L315.417 422.585ZM292.359 424.89V421.258C276.673 421.258 261.627 418.397 247.198 412.675L245.859 416.051L244.52 419.428C259.81 425.491 275.765 428.523 292.359 428.523V424.89ZM245.859 416.051L247.269 412.704C233.208 406.783 220.981 397.778 210.571 385.633L207.813 387.997L205.055 390.362C216.166 403.324 229.303 413.022 244.449 419.399L245.859 416.051ZM207.813 387.997L210.571 385.633C204.605 378.673 199.374 370.955 194.883 362.471L191.672 364.171L188.462 365.87C193.194 374.809 198.724 382.975 205.055 390.362L207.813 387.997ZM191.672 364.171L194.921 362.546C190.662 354.028 187.153 345.13 184.394 335.85L180.912 336.885L177.43 337.921C180.308 347.6 183.972 356.892 188.423 365.795L191.672 364.171ZM180.912 336.885L184.401 335.875C181.635 326.318 179.623 316.638 178.366 306.832L174.763 307.294L171.16 307.756C172.465 317.935 174.553 327.981 177.423 337.896L180.912 336.885ZM174.763 307.294L178.368 306.844C177.105 296.74 176.474 286.771 176.474 276.934H172.842H169.209C169.209 287.082 169.86 297.352 171.159 307.745L174.763 307.294ZM172.842 276.934H176.474C176.474 263.301 177.61 250.46 179.871 238.405L176.3 237.736L172.73 237.066C170.379 249.606 169.209 262.898 169.209 276.934H172.842ZM176.3 237.736L179.881 238.345C181.893 226.527 184.905 215.494 188.908 205.238L185.524 203.917L182.14 202.597C177.944 213.349 174.807 224.862 172.719 237.126L176.3 237.736ZM185.524 203.917L188.908 205.238C192.889 195.035 197.972 185.998 204.142 178.1L201.28 175.863L198.417 173.627C191.778 182.126 186.357 191.791 182.14 202.597L185.524 203.917ZM201.28 175.863L204.133 178.111C210.539 169.982 218.176 163.081 227.062 157.404L225.107 154.342L223.151 151.281C213.591 157.389 205.344 164.836 198.427 173.615L201.28 175.863ZM225.107 154.342L227.062 157.404C235.907 151.753 246.293 147.41 258.269 144.416L257.388 140.892L256.507 137.368C243.887 140.523 232.753 145.147 223.151 151.281L225.107 154.342ZM257.388 140.892L258.193 144.434C263.676 143.188 269.153 142.317 274.626 141.819L274.297 138.202L273.968 134.584C268.168 135.111 262.373 136.034 256.583 137.35L257.388 140.892ZM274.297 138.202L274.788 141.801C280.263 141.054 285.736 140.681 291.206 140.681V137.049V133.416C285.404 133.416 279.604 133.812 273.806 134.603L274.297 138.202ZM291.206 137.049V140.681C306.078 140.681 320.041 143.652 333.134 149.581L334.632 146.272L336.131 142.963C322.067 136.594 307.079 133.416 291.206 133.416V137.049ZM334.632 146.272L333.209 149.614C346.295 155.188 357.152 164.654 365.771 178.198L368.835 176.248L371.9 174.297C362.584 159.659 350.64 149.142 336.056 142.93L334.632 146.272ZM368.835 176.248L366.045 178.573C366.7 179.36 367.124 180.42 367.124 182.012H370.757H374.389C374.389 178.993 373.532 176.21 371.626 173.922L368.835 176.248ZM370.757 182.012H367.124C367.124 183.538 366.504 184.99 364.644 186.477L366.914 189.314L369.183 192.15C372.448 189.538 374.389 186.122 374.389 182.012H370.757ZM366.914 189.314L364.684 186.447C362.99 187.764 361.207 188.371 359.228 188.371V192.004V195.637C362.885 195.637 366.226 194.451 369.144 192.181L366.914 189.314ZM359.228 192.004V188.371C357.002 188.371 355.105 187.438 353.375 184.94L350.389 187.008L347.402 189.076C350.284 193.239 354.28 195.637 359.228 195.637V192.004ZM350.389 187.008L353.456 185.063C346.42 173.967 337.134 166.012 325.619 161.351L324.256 164.719L322.893 168.086C332.9 172.136 341.035 179.041 347.321 188.953L350.389 187.008ZM324.256 164.719L325.717 161.392C314.739 156.573 303.096 154.169 290.822 154.169V157.801V161.434C302.119 161.434 312.765 163.641 322.796 168.045L324.256 164.719ZM290.822 157.801V154.169C276.773 154.169 263.36 156.822 250.611 162.134L252.008 165.487L253.405 168.84C265.251 163.904 277.714 161.434 290.822 161.434V157.801ZM252.008 165.487L250.674 162.108C240.594 166.087 231.889 171.294 224.615 177.76L227.028 180.475L229.441 183.19C236.002 177.358 243.95 172.573 253.341 168.866L252.008 165.487ZM227.028 180.475L224.621 177.754C217.659 183.913 211.778 191.136 206.978 199.403L210.119 201.227L213.26 203.051C217.683 195.434 223.074 188.822 229.435 183.196L227.028 180.475ZM210.119 201.227L206.958 199.436C202.43 207.429 198.982 216.193 196.603 225.71L200.127 226.591L203.651 227.472C205.883 218.543 209.097 210.398 213.279 203.018L210.119 201.227ZM200.127 226.591L196.603 225.71C194.245 235.141 192.677 244.951 191.894 255.135L195.515 255.414L199.137 255.692C199.891 245.893 201.397 236.487 203.651 227.472L200.127 226.591ZM195.515 255.414L191.895 255.112C191.639 258.195 191.382 261.405 191.125 264.743L194.747 265.021L198.369 265.3C198.624 261.976 198.88 258.781 199.135 255.715L195.515 255.414ZM194.747 265.021H191.114C191.114 265.028 191.114 265.034 191.114 265.041C191.114 265.047 191.114 265.054 191.114 265.06C191.114 265.067 191.114 265.073 191.114 265.08C191.114 265.086 191.114 265.093 191.114 265.099C191.114 265.106 191.114 265.112 191.114 265.119C191.114 265.125 191.114 265.132 191.114 265.138C191.114 265.145 191.114 265.151 191.114 265.158C191.114 265.164 191.114 265.171 191.114 265.177C191.114 265.184 191.114 265.19 191.114 265.197C191.114 265.203 191.114 265.21 191.114 265.216C191.114 265.223 191.114 265.229 191.114 265.236C191.114 265.243 191.114 265.249 191.114 265.256C191.114 265.262 191.114 265.269 191.114 265.275C191.114 265.282 191.114 265.288 191.114 265.295C191.114 265.301 191.114 265.308 191.114 265.314C191.114 265.321 191.114 265.327 191.114 265.334C191.114 265.34 191.114 265.347 191.114 265.353C191.114 265.36 191.114 265.366 191.114 265.373C191.114 265.379 191.114 265.386 191.114 265.392C191.114 265.399 191.114 265.406 191.114 265.412C191.114 265.419 191.114 265.425 191.114 265.432C191.114 265.438 191.114 265.445 191.114 265.451C191.114 265.458 191.114 265.464 191.114 265.471C191.114 265.477 191.114 265.484 191.114 265.49C191.114 265.497 191.114 265.503 191.114 265.51C191.114 265.516 191.114 265.523 191.114 265.53C191.114 265.536 191.114 265.543 191.114 265.549C191.114 265.556 191.114 265.562 191.114 265.569C191.114 265.575 191.114 265.582 191.114 265.588C191.114 265.595 191.114 265.601 191.114 265.608C191.114 265.614 191.114 265.621 191.114 265.628C191.114 265.634 191.114 265.641 191.114 265.647C191.114 265.654 191.114 265.66 191.114 265.667C191.114 265.673 191.114 265.68 191.114 265.686C191.114 265.693 191.114 265.699 191.114 265.706C191.114 265.713 191.114 265.719 191.114 265.726C191.114 265.732 191.114 265.739 191.114 265.745C191.114 265.752 191.114 265.758 191.114 265.765C191.114 265.771 191.114 265.778 191.114 265.784C191.114 265.791 191.114 265.798 191.114 265.804C191.114 265.811 191.114 265.817 191.114 265.824C191.114 265.83 191.114 265.837 191.114 265.843C191.114 265.85 191.114 265.856 191.114 265.863C191.114 265.87 191.114 265.876 191.114 265.883C191.114 265.889 191.114 265.896 191.114 265.902C191.114 265.909 191.114 265.915 191.114 265.922C191.114 265.929 191.114 265.935 191.114 265.942C191.114 265.948 191.114 265.955 191.114 265.961C191.114 265.968 191.114 265.974 191.114 265.981C191.114 265.987 191.114 265.994 191.114 266.001C191.114 266.007 191.114 266.014 191.114 266.02C191.114 266.027 191.114 266.033 191.114 266.04C191.114 266.046 191.114 266.053 191.114 266.06C191.114 266.066 191.114 266.073 191.114 266.079C191.114 266.086 191.114 266.092 191.114 266.099C191.114 266.106 191.114 266.112 191.114 266.119C191.114 266.125 191.114 266.132 191.114 266.138C191.114 266.145 191.114 266.151 191.114 266.158C191.114 266.165 191.114 266.171 191.114 266.178C191.114 266.184 191.114 266.191 191.114 266.197C191.114 266.204 191.114 266.21 191.114 266.217C191.114 266.224 191.114 266.23 191.114 266.237C191.114 266.243 191.114 266.25 191.114 266.256C191.114 266.263 191.114 266.27 191.114 266.276C191.114 266.283 191.114 266.289 191.114 266.296C191.114 266.302 191.114 266.309 191.114 266.316C191.114 266.322 191.114 266.329 191.114 266.335C191.114 266.342 191.114 266.348 191.114 266.355C191.114 266.362 191.114 266.368 191.114 266.375C191.114 266.381 191.114 266.388 191.114 266.394C191.114 266.401 191.114 266.408 191.114 266.414C191.114 266.421 191.114 266.427 191.114 266.434C191.114 266.44 191.114 266.447 191.114 266.454C191.114 266.46 191.114 266.467 191.114 266.473C191.114 266.48 191.114 266.486 191.114 266.493C191.114 266.5 191.114 266.506 191.114 266.513C191.114 266.519 191.114 266.526 191.114 266.533C191.114 266.539 191.114 266.546 191.114 266.552C191.114 266.559 191.114 266.565 191.114 266.572C191.114 266.579 191.114 266.585 191.114 266.592C191.114 266.598 191.114 266.605 191.114 266.612C191.114 266.618 191.114 266.625 191.114 266.631C191.114 266.638 191.114 266.644 191.114 266.651C191.114 266.658 191.114 266.664 191.114 266.671C191.114 266.677 191.114 266.684 191.114 266.691C191.114 266.697 191.114 266.704 191.114 266.71C191.114 266.717 191.114 266.724 191.114 266.73C191.114 266.737 191.114 266.743 191.114 266.75C191.114 266.756 191.114 266.763 191.114 266.77C191.114 266.776 191.114 266.783 191.114 266.789C191.114 266.796 191.114 266.803 191.114 266.809C191.114 266.816 191.114 266.822 191.114 266.829C191.114 266.836 191.114 266.842 191.114 266.849C191.114 266.855 191.114 266.862 191.114 266.869C191.114 266.875 191.114 266.882 191.114 266.888C191.114 266.895 191.114 266.902 191.114 266.908C191.114 266.915 191.114 266.921 191.114 266.928C191.114 266.935 191.114 266.941 191.114 266.948C191.114 266.954 191.114 266.961 191.114 266.968C191.114 266.974 191.114 266.981 191.114 266.987C191.114 266.994 191.114 267.001 191.114 267.007C191.114 267.014 191.114 267.02 191.114 267.027C191.114 267.034 191.114 267.04 191.114 267.047C191.114 267.053 191.114 267.06 191.114 267.067C191.114 267.073 191.114 267.08 191.114 267.086C191.114 267.093 191.114 267.1 191.114 267.106C191.114 267.113 191.114 267.119 191.114 267.126C191.114 267.133 191.114 267.139 191.114 267.146C191.114 267.153 191.114 267.159 191.114 267.166C191.114 267.172 191.114 267.179 191.114 267.186C191.114 267.192 191.114 267.199 191.114 267.205C191.114 267.212 191.114 267.219 191.114 267.225C191.114 267.232 191.114 267.238 191.114 267.245C191.114 267.252 191.114 267.258 191.114 267.265C191.114 267.272 191.114 267.278 191.114 267.285C191.114 267.291 191.114 267.298 191.114 267.305C191.114 267.311 191.114 267.318 191.114 267.325C191.114 267.331 191.114 267.338 191.114 267.344C191.114 267.351 191.114 267.358 191.114 267.364C191.114 267.371 191.114 267.377 191.114 267.384C191.114 267.391 191.114 267.397 191.114 267.404C191.114 267.411 191.114 267.417 191.114 267.424C191.114 267.43 191.114 267.437 191.114 267.444C191.114 267.45 191.114 267.457 191.114 267.464C191.114 267.47 191.114 267.477 191.114 267.483C191.114 267.49 191.114 267.497 191.114 267.503C191.114 267.51 191.114 267.517 191.114 267.523C191.114 267.53 191.114 267.537 191.114 267.543C191.114 267.55 191.114 267.556 191.114 267.563C191.114 267.57 191.114 267.576 191.114 267.583C191.114 267.59 191.114 267.596 191.114 267.603C191.114 267.609 191.114 267.616 191.114 267.623C191.114 267.629 191.114 267.636 191.114 267.643C191.114 267.649 191.114 267.656 191.114 267.663C191.114 267.669 191.114 267.676 191.114 267.682C191.114 267.689 191.114 267.696 191.114 267.702C191.114 267.709 191.114 267.716 191.114 267.722C191.114 267.729 191.114 267.736 191.114 267.742C191.114 267.749 191.114 267.755 191.114 267.762C191.114 267.769 191.114 267.775 191.114 267.782C191.114 267.789 191.114 267.795 191.114 267.802C191.114 267.809 191.114 267.815 191.114 267.822C191.114 267.829 191.114 267.835 191.114 267.842C191.114 267.848 191.114 267.855 191.114 267.862C191.114 267.868 191.114 267.875 191.114 267.882C191.114 267.888 191.114 267.895 191.114 267.902C191.114 267.908 191.114 267.915 191.114 267.922C191.114 267.928 191.114 267.935 191.114 267.942C191.114 267.948 191.114 267.955 191.114 267.961C191.114 267.968 191.114 267.975 191.114 267.981C191.114 267.988 191.114 267.995 191.114 268.001C191.114 268.008 191.114 268.015 191.114 268.021C191.114 268.028 191.114 268.035 191.114 268.041C191.114 268.048 191.114 268.055 191.114 268.061C191.114 268.068 191.114 268.075 191.114 268.081C191.114 268.088 191.114 268.095 191.114 268.101C191.114 268.108 191.114 268.115 191.114 268.121C191.114 268.128 191.114 268.135 191.114 268.141C191.114 268.148 191.114 268.154 191.114 268.161C191.114 268.168 191.114 268.174 191.114 268.181C191.114 268.188 191.114 268.194 191.114 268.201C191.114 268.208 191.114 268.214 191.114 268.221C191.114 268.228 191.114 268.234 191.114 268.241C191.114 268.248 191.114 268.254 191.114 268.261C191.114 268.268 191.114 268.274 191.114 268.281C191.114 268.288 191.114 268.294 191.114 268.301C191.114 268.308 191.114 268.314 191.114 268.321C191.114 268.328 191.114 268.334 191.114 268.341C191.114 268.348 191.114 268.354 191.114 268.361C191.114 268.368 191.114 268.374 191.114 268.381C191.114 268.388 191.114 268.394 191.114 268.401C191.114 268.408 191.114 268.414 191.114 268.421C191.114 268.428 191.114 268.435 191.114 268.441C191.114 268.448 191.114 268.455 191.114 268.461C191.114 268.468 191.114 268.475 191.114 268.481C191.114 268.488 191.114 268.495 191.114 268.501C191.114 268.508 191.114 268.515 191.114 268.521C191.114 268.528 191.114 268.535 191.114 268.541C191.114 268.548 191.114 268.555 191.114 268.561C191.114 268.568 191.114 268.575 191.114 268.581C191.114 268.588 191.114 268.595 191.114 268.601C191.114 268.608 191.114 268.615 191.114 268.622C191.114 268.628 191.114 268.635 191.114 268.642C191.114 268.648 191.114 268.655 191.114 268.662C191.114 268.668 191.114 268.675 191.114 268.682C191.114 268.688 191.114 268.695 191.114 268.702C191.114 268.708 191.114 268.715 191.114 268.722C191.114 268.728 191.114 268.735 191.114 268.742C191.114 268.749 191.114 268.755 191.114 268.762C191.114 268.769 191.114 268.775 191.114 268.782C191.114 268.789 191.114 268.795 191.114 268.802C191.114 268.809 191.114 268.815 191.114 268.822C191.114 268.829 191.114 268.836 191.114 268.842C191.114 268.849 191.114 268.856 191.114 268.862C191.114 268.869 191.114 268.876 191.114 268.882C191.114 268.889 191.114 268.896 191.114 268.902C191.114 268.909 191.114 268.916 191.114 268.923C191.114 268.929 191.114 268.936 191.114 268.943C191.114 268.949 191.114 268.956 191.114 268.963C191.114 268.969 191.114 268.976 191.114 268.983C191.114 268.99 191.114 268.996 191.114 269.003C191.114 269.01 191.114 269.016 191.114 269.023C191.114 269.03 191.114 269.036 191.114 269.043C191.114 269.05 191.114 269.057 191.114 269.063C191.114 269.07 191.114 269.077 191.114 269.083C191.114 269.09 191.114 269.097 191.114 269.104C191.114 269.11 191.114 269.117 191.114 269.124C191.114 269.13 191.114 269.137 191.114 269.144C191.114 269.15 191.114 269.157 191.114 269.164C191.114 269.171 191.114 269.177 191.114 269.184C191.114 269.191 191.114 269.197 191.114 269.204C191.114 269.211 191.114 269.218 191.114 269.224C191.114 269.231 191.114 269.238 191.114 269.244C191.114 269.251 191.114 269.258 191.114 269.265C191.114 269.271 191.114 269.278 191.114 269.285C191.114 269.291 191.114 269.298 191.114 269.305C191.114 269.312 191.114 269.318 191.114 269.325C191.114 269.332 191.114 269.338 191.114 269.345C191.114 269.352 191.114 269.359 191.114 269.365C191.114 269.372 191.114 269.379 191.114 269.385C191.114 269.392 191.114 269.399 191.114 269.406C191.114 269.412 191.114 269.419 191.114 269.426C191.114 269.433 191.114 269.439 191.114 269.446C191.114 269.453 191.114 269.459 191.114 269.466C191.114 269.473 191.114 269.48 191.114 269.486C191.114 269.493 191.114 269.5 191.114 269.506C191.114 269.513 191.114 269.52 191.114 269.527C191.114 269.533 191.114 269.54 191.114 269.547C191.114 269.554 191.114 269.56 191.114 269.567C191.114 269.574 191.114 269.581 191.114 269.587C191.114 269.594 191.114 269.601 191.114 269.607C191.114 269.614 191.114 269.621 191.114 269.628C191.114 269.634 191.114 269.641 191.114 269.648C191.114 269.655 191.114 269.661 191.114 269.668C191.114 269.675 191.114 269.681 191.114 269.688C191.114 269.695 191.114 269.702 191.114 269.708C191.114 269.715 191.114 269.722 191.114 269.729C191.114 269.735 191.114 269.742 191.114 269.749C191.114 269.756 191.114 269.762 191.114 269.769C191.114 269.776 191.114 269.783 191.114 269.789C191.114 269.796 191.114 269.803 191.114 269.809C191.114 269.816 191.114 269.823 191.114 269.83C191.114 269.836 191.114 269.843 191.114 269.85C191.114 269.857 191.114 269.863 191.114 269.87C191.114 269.877 191.114 269.884 191.114 269.89C191.114 269.897 191.114 269.904 191.114 269.911C191.114 269.917 191.114 269.924 191.114 269.931C191.114 269.938 191.114 269.944 191.114 269.951C191.114 269.958 191.114 269.965 191.114 269.971C191.114 269.978 191.114 269.985 191.114 269.992C191.114 269.998 191.114 270.005 191.114 270.012C191.114 270.019 191.114 270.025 191.114 270.032C191.114 270.039 191.114 270.046 191.114 270.052C191.114 270.059 191.114 270.066 191.114 270.073C191.114 270.079 191.114 270.086 191.114 270.093C191.114 270.1 191.114 270.106 191.114 270.113C191.114 270.12 191.114 270.127 191.114 270.133C191.114 270.14 191.114 270.147 191.114 270.154C191.114 270.16 191.114 270.167 191.114 270.174C191.114 270.181 191.114 270.187 191.114 270.194C191.114 270.201 191.114 270.208 191.114 270.215C191.114 270.221 191.114 270.228 191.114 270.235C191.114 270.242 191.114 270.248 191.114 270.255C191.114 270.262 191.114 270.269 191.114 270.275C191.114 270.282 191.114 270.289 191.114 270.296C191.114 270.302 191.114 270.309 191.114 270.316C191.114 270.323 191.114 270.329 191.114 270.336C191.114 270.343 191.114 270.35 191.114 270.357C191.114 270.363 191.114 270.37 191.114 270.377C191.114 270.384 191.114 270.39 191.114 270.397C191.114 270.404 191.114 270.411 191.114 270.417C191.114 270.424 191.114 270.431 191.114 270.438C191.114 270.445 191.114 270.451 191.114 270.458C191.114 270.465 191.114 270.472 191.114 270.478C191.114 270.485 191.114 270.492 191.114 270.499C191.114 270.506 191.114 270.512 191.114 270.519C191.114 270.526 191.114 270.533 191.114 270.539C191.114 270.546 191.114 270.553 191.114 270.56C191.114 270.566 191.114 270.573 191.114 270.58C191.114 270.587 191.114 270.594 191.114 270.6C191.114 270.607 191.114 270.614 191.114 270.621C191.114 270.627 191.114 270.634 191.114 270.641C191.114 270.648 191.114 270.655 191.114 270.661C191.114 270.668 191.114 270.675 191.114 270.682C191.114 270.689 191.114 270.695 191.114 270.702C191.114 270.709 191.114 270.716 191.114 270.722C191.114 270.729 191.114 270.736 191.114 270.743C191.114 270.75 191.114 270.756 191.114 270.763C191.114 270.77 191.114 270.777 191.114 270.784C191.114 270.79 191.114 270.797 191.114 270.804C191.114 270.811 191.114 270.817 191.114 270.824C191.114 270.831 191.114 270.838 191.114 270.845C191.114 270.851 191.114 270.858 191.114 270.865C191.114 270.872 191.114 270.879 191.114 270.885C191.114 270.892 191.114 270.899 191.114 270.906C191.114 270.913 191.114 270.919 191.114 270.926C191.114 270.933 191.114 270.94 191.114 270.947C191.114 270.953 191.114 270.96 191.114 270.967C191.114 270.974 191.114 270.981 191.114 270.987C191.114 270.994 191.114 271.001 191.114 271.008C191.114 271.014 191.114 271.021 191.114 271.028C191.114 271.035 191.114 271.042 191.114 271.048C191.114 271.055 191.114 271.062 191.114 271.069C191.114 271.076 191.114 271.082 191.114 271.089C191.114 271.096 191.114 271.103 191.114 271.11C191.114 271.117 191.114 271.123 191.114 271.13C191.114 271.137 191.114 271.144 191.114 271.151C191.114 271.157 191.114 271.164 191.114 271.171C191.114 271.178 191.114 271.185 191.114 271.191C191.114 271.198 191.114 271.205 191.114 271.212C191.114 271.219 191.114 271.225 191.114 271.232C191.114 271.239 191.114 271.246 191.114 271.253C191.114 271.259 191.114 271.266 191.114 271.273C191.114 271.28 191.114 271.287 191.114 271.294C191.114 271.3 191.114 271.307 191.114 271.314C191.114 271.321 191.114 271.328 191.114 271.334C191.114 271.341 191.114 271.348 191.114 271.355C191.114 271.362 191.114 271.368 191.114 271.375C191.114 271.382 191.114 271.389 191.114 271.396C191.114 271.403 191.114 271.409 191.114 271.416C191.114 271.423 191.114 271.43 191.114 271.437C191.114 271.443 191.114 271.45 191.114 271.457C191.114 271.464 191.114 271.471 191.114 271.478C191.114 271.484 191.114 271.491 191.114 271.498C191.114 271.505 191.114 271.512 191.114 271.518C191.114 271.525 191.114 271.532 191.114 271.539C191.114 271.546 191.114 271.553 191.114 271.559C191.114 271.566 191.114 271.573 191.114 271.58C191.114 271.587 191.114 271.594 191.114 271.6C191.114 271.607 191.114 271.614 191.114 271.621C191.114 271.628 191.114 271.635 191.114 271.641C191.114 271.648 191.114 271.655 191.114 271.662C191.114 271.669 191.114 271.675 191.114 271.682C191.114 271.689 191.114 271.696 191.114 271.703C191.114 271.71 191.114 271.716 191.114 271.723C191.114 271.73 191.114 271.737 191.114 271.744C191.114 271.751 191.114 271.757 191.114 271.764C191.114 271.771 191.114 271.778 191.114 271.785C191.114 271.792 191.114 271.798 191.114 271.805C191.114 271.812 191.114 271.819 191.114 271.826C191.114 271.833 191.114 271.84 191.114 271.846C191.114 271.853 191.114 271.86 191.114 271.867C191.114 271.874 191.114 271.881 191.114 271.887C191.114 271.894 191.114 271.901 191.114 271.908C191.114 271.915 191.114 271.922 191.114 271.928C191.114 271.935 191.114 271.942 191.114 271.949C191.114 271.956 191.114 271.963 191.114 271.969C191.114 271.976 191.114 271.983 191.114 271.99C191.114 271.997 191.114 272.004 191.114 272.011C191.114 272.017 191.114 272.024 191.114 272.031C191.114 272.038 191.114 272.045 191.114 272.052C191.114 272.058 191.114 272.065 191.114 272.072C191.114 272.079 191.114 272.086 191.114 272.093C191.114 272.1 191.114 272.106 191.114 272.113C191.114 272.12 191.114 272.127 191.114 272.134C191.114 272.141 191.114 272.148 191.114 272.154C191.114 272.161 191.114 272.168 191.114 272.175C191.114 272.182 191.114 272.189 191.114 272.196C191.114 272.202 191.114 272.209 191.114 272.216C191.114 272.223 191.114 272.23 191.114 272.237C191.114 272.244 191.114 272.25 191.114 272.257C191.114 272.264 191.114 272.271 191.114 272.278C191.114 272.285 191.114 272.292 191.114 272.298C191.114 272.305 191.114 272.312 191.114 272.319C191.114 272.326 191.114 272.333 191.114 272.34C191.114 272.346 191.114 272.353 191.114 272.36C191.114 272.367 191.114 272.374 191.114 272.381C191.114 272.388 191.114 272.394 191.114 272.401C191.114 272.408 191.114 272.415 191.114 272.422C191.114 272.429 191.114 272.436 191.114 272.443C191.114 272.449 191.114 272.456 191.114 272.463C191.114 272.47 191.114 272.477 191.114 272.484C191.114 272.491 191.114 272.497 191.114 272.504C191.114 272.511 191.114 272.518 191.114 272.525C191.114 272.532 191.114 272.539 191.114 272.546C191.114 272.552 191.114 272.559 191.114 272.566C191.114 272.573 191.114 272.58 191.114 272.587C191.114 272.594 191.114 272.601 191.114 272.607C191.114 272.614 191.114 272.621 191.114 272.628C191.114 272.635 191.114 272.642 191.114 272.649C191.114 272.656 191.114 272.662 191.114 272.669C191.114 272.676 191.114 272.683 191.114 272.69C191.114 272.697 191.114 272.704 191.114 272.711C191.114 272.717 191.114 272.724 191.114 272.731C191.114 272.738 191.114 272.745 191.114 272.752C191.114 272.759 191.114 272.766 191.114 272.772C191.114 272.779 191.114 272.786 191.114 272.793C191.114 272.8 191.114 272.807 191.114 272.814C191.114 272.821 191.114 272.828 191.114 272.834C191.114 272.841 191.114 272.848 191.114 272.855C191.114 272.862 191.114 272.869 191.114 272.876C191.114 272.883 191.114 272.89 191.114 272.896C191.114 272.903 191.114 272.91 191.114 272.917C191.114 272.924 191.114 272.931 191.114 272.938C191.114 272.945 191.114 272.952 191.114 272.958C191.114 272.965 191.114 272.972 191.114 272.979C191.114 272.986 191.114 272.993 191.114 273C191.114 273.007 191.114 273.014 191.114 273.02C191.114 273.027 191.114 273.034 191.114 273.041C191.114 273.048 191.114 273.055 191.114 273.062C191.114 273.069 191.114 273.076 191.114 273.083C191.114 273.089 191.114 273.096 191.114 273.103C191.114 273.11 191.114 273.117 191.114 273.124C191.114 273.131 191.114 273.138 191.114 273.145C191.114 273.152 191.114 273.158 191.114 273.165C191.114 273.172 191.114 273.179 191.114 273.186C191.114 273.193 191.114 273.2 191.114 273.207C191.114 273.214 191.114 273.221 191.114 273.227C191.114 273.234 191.114 273.241 191.114 273.248C191.114 273.255 191.114 273.262 191.114 273.269C191.114 273.276 191.114 273.283 191.114 273.29C191.114 273.296 191.114 273.303 191.114 273.31C191.114 273.317 191.114 273.324 191.114 273.331C191.114 273.338 191.114 273.345 191.114 273.352C191.114 273.359 191.114 273.366 191.114 273.372C191.114 273.379 191.114 273.386 191.114 273.393C191.114 273.4 191.114 273.407 191.114 273.414C191.114 273.421 191.114 273.428 191.114 273.435C191.114 273.442 191.114 273.449 191.114 273.455C191.114 273.462 191.114 273.469 191.114 273.476C191.114 273.483 191.114 273.49 191.114 273.497C191.114 273.504 191.114 273.511 191.114 273.518C191.114 273.525 191.114 273.532 191.114 273.538C191.114 273.545 191.114 273.552 191.114 273.559C191.114 273.566 191.114 273.573 191.114 273.58C191.114 273.587 191.114 273.594 191.114 273.601C191.114 273.608 191.114 273.615 191.114 273.621C191.114 273.628 191.114 273.635 191.114 273.642C191.114 273.649 191.114 273.656 191.114 273.663C191.114 273.67 191.114 273.677 191.114 273.684C191.114 273.691 191.114 273.698 191.114 273.705C191.114 273.712 191.114 273.718 191.114 273.725C191.114 273.732 191.114 273.739 191.114 273.746C191.114 273.753 191.114 273.76 191.114 273.767C191.114 273.774 191.114 273.781 191.114 273.788C191.114 273.795 191.114 273.802 191.114 273.809C191.114 273.815 191.114 273.822 191.114 273.829C191.114 273.836 191.114 273.843 191.114 273.85C191.114 273.857 191.114 273.864 191.114 273.871C191.114 273.878 191.114 273.885 191.114 273.892C191.114 273.899 191.114 273.906 191.114 273.913C191.114 273.919 191.114 273.926 191.114 273.933C191.114 273.94 191.114 273.947 191.114 273.954C191.114 273.961 191.114 273.968 191.114 273.975C191.114 273.982 191.114 273.989 191.114 273.996C191.114 274.003 191.114 274.01 191.114 274.017C191.114 274.024 191.114 274.03 191.114 274.037C191.114 274.044 191.114 274.051 191.114 274.058C191.114 274.065 191.114 274.072 191.114 274.079C191.114 274.086 191.114 274.093 191.114 274.1C191.114 274.107 191.114 274.114 191.114 274.121C191.114 274.128 191.114 274.135 191.114 274.142C191.114 274.149 191.114 274.155 191.114 274.162C191.114 274.169 191.114 274.176 191.114 274.183C191.114 274.19 191.114 274.197 191.114 274.204C191.114 274.211 191.114 274.218 191.114 274.225C191.114 274.232 191.114 274.239 191.114 274.246C191.114 274.253 191.114 274.26 191.114 274.267C191.114 274.274 191.114 274.281 191.114 274.288C191.114 274.294 191.114 274.301 191.114 274.308C191.114 274.315 191.114 274.322 191.114 274.329C191.114 274.336 191.114 274.343 191.114 274.35C191.114 274.357 191.114 274.364 191.114 274.371C191.114 274.378 191.114 274.385 191.114 274.392C191.114 274.399 191.114 274.406 191.114 274.413C191.114 274.42 191.114 274.427 191.114 274.434C191.114 274.441 191.114 274.448 191.114 274.455C191.114 274.461 191.114 274.468 191.114 274.475C191.114 274.482 191.114 274.489 191.114 274.496C191.114 274.503 191.114 274.51 191.114 274.517C191.114 274.524 191.114 274.531 191.114 274.538C191.114 274.545 191.114 274.552 191.114 274.559C191.114 274.566 191.114 274.573 191.114 274.58C191.114 274.587 191.114 274.594 191.114 274.601C191.114 274.608 191.114 274.615 191.114 274.622C191.114 274.629 191.114 274.636 191.114 274.643C191.114 274.65 191.114 274.657 191.114 274.664C191.114 274.67 191.114 274.677 191.114 274.684C191.114 274.691 191.114 274.698 191.114 274.705C191.114 274.712 191.114 274.719 191.114 274.726C191.114 274.733 191.114 274.74 191.114 274.747C191.114 274.754 191.114 274.761 191.114 274.768C191.114 274.775 191.114 274.782 191.114 274.789C191.114 274.796 191.114 274.803 191.114 274.81C191.114 274.817 191.114 274.824 191.114 274.831C191.114 274.838 191.114 274.845 191.114 274.852C191.114 274.859 191.114 274.866 191.114 274.873C191.114 274.88 191.114 274.887 191.114 274.894C191.114 274.901 191.114 274.908 191.114 274.915C191.114 274.922 191.114 274.929 191.114 274.936C191.114 274.943 191.114 274.95 191.114 274.957C191.114 274.964 191.114 274.971 191.114 274.978C191.114 274.985 191.114 274.992 191.114 274.999C191.114 275.005 191.114 275.012 191.114 275.019C191.114 275.026 191.114 275.033 191.114 275.04C191.114 275.047 191.114 275.054 191.114 275.061C191.114 275.068 191.114 275.075 191.114 275.082C191.114 275.089 191.114 275.096 191.114 275.103C191.114 275.11 191.114 275.117 191.114 275.124C191.114 275.131 191.114 275.138 191.114 275.145C191.114 275.152 191.114 275.159 191.114 275.166C191.114 275.173 191.114 275.18 191.114 275.187C191.114 275.194 191.114 275.201 191.114 275.208C191.114 275.215 191.114 275.222 191.114 275.229C191.114 275.236 191.114 275.243 191.114 275.25C191.114 275.257 191.114 275.264 191.114 275.271C191.114 275.278 191.114 275.285 191.114 275.292C191.114 275.299 191.114 275.306 191.114 275.313C191.114 275.32 191.114 275.327 191.114 275.334C191.114 275.341 191.114 275.348 191.114 275.355C191.114 275.362 191.114 275.369 191.114 275.376C191.114 275.383 191.114 275.39 191.114 275.397H194.747H198.379C198.379 275.39 198.379 275.383 198.379 275.376C198.379 275.369 198.379 275.362 198.379 275.355C198.379 275.348 198.379 275.341 198.379 275.334C198.379 275.327 198.379 275.32 198.379 275.313C198.379 275.306 198.379 275.299 198.379 275.292C198.379 275.285 198.379 275.278 198.379 275.271C198.379 275.264 198.379 275.257 198.379 275.25C198.379 275.243 198.379 275.236 198.379 275.229C198.379 275.222 198.379 275.215 198.379 275.208C198.379 275.201 198.379 275.194 198.379 275.187C198.379 275.18 198.379 275.173 198.379 275.166C198.379 275.159 198.379 275.152 198.379 275.145C198.379 275.138 198.379 275.131 198.379 275.124C198.379 275.117 198.379 275.11 198.379 275.103C198.379 275.096 198.379 275.089 198.379 275.082C198.379 275.075 198.379 275.068 198.379 275.061C198.379 275.054 198.379 275.047 198.379 275.04C198.379 275.033 198.379 275.026 198.379 275.019C198.379 275.012 198.379 275.005 198.379 274.999C198.379 274.992 198.379 274.985 198.379 274.978C198.379 274.971 198.379 274.964 198.379 274.957C198.379 274.95 198.379 274.943 198.379 274.936C198.379 274.929 198.379 274.922 198.379 274.915C198.379 274.908 198.379 274.901 198.379 274.894C198.379 274.887 198.379 274.88 198.379 274.873C198.379 274.866 198.379 274.859 198.379 274.852C198.379 274.845 198.379 274.838 198.379 274.831C198.379 274.824 198.379 274.817 198.379 274.81C198.379 274.803 198.379 274.796 198.379 274.789C198.379 274.782 198.379 274.775 198.379 274.768C198.379 274.761 198.379 274.754 198.379 274.747C198.379 274.74 198.379 274.733 198.379 274.726C198.379 274.719 198.379 274.712 198.379 274.705C198.379 274.698 198.379 274.691 198.379 274.684C198.379 274.677 198.379 274.67 198.379 274.664C198.379 274.657 198.379 274.65 198.379 274.643C198.379 274.636 198.379 274.629 198.379 274.622C198.379 274.615 198.379 274.608 198.379 274.601C198.379 274.594 198.379 274.587 198.379 274.58C198.379 274.573 198.379 274.566 198.379 274.559C198.379 274.552 198.379 274.545 198.379 274.538C198.379 274.531 198.379 274.524 198.379 274.517C198.379 274.51 198.379 274.503 198.379 274.496C198.379 274.489 198.379 274.482 198.379 274.475C198.379 274.468 198.379 274.461 198.379 274.455C198.379 274.448 198.379 274.441 198.379 274.434C198.379 274.427 198.379 274.42 198.379 274.413C198.379 274.406 198.379 274.399 198.379 274.392C198.379 274.385 198.379 274.378 198.379 274.371C198.379 274.364 198.379 274.357 198.379 274.35C198.379 274.343 198.379 274.336 198.379 274.329C198.379 274.322 198.379 274.315 198.379 274.308C198.379 274.301 198.379 274.294 198.379 274.288C198.379 274.281 198.379 274.274 198.379 274.267C198.379 274.26 198.379 274.253 198.379 274.246C198.379 274.239 198.379 274.232 198.379 274.225C198.379 274.218 198.379 274.211 198.379 274.204C198.379 274.197 198.379 274.19 198.379 274.183C198.379 274.176 198.379 274.169 198.379 274.162C198.379 274.155 198.379 274.149 198.379 274.142C198.379 274.135 198.379 274.128 198.379 274.121C198.379 274.114 198.379 274.107 198.379 274.1C198.379 274.093 198.379 274.086 198.379 274.079C198.379 274.072 198.379 274.065 198.379 274.058C198.379 274.051 198.379 274.044 198.379 274.037C198.379 274.03 198.379 274.024 198.379 274.017C198.379 274.01 198.379 274.003 198.379 273.996C198.379 273.989 198.379 273.982 198.379 273.975C198.379 273.968 198.379 273.961 198.379 273.954C198.379 273.947 198.379 273.94 198.379 273.933C198.379 273.926 198.379 273.919 198.379 273.913C198.379 273.906 198.379 273.899 198.379 273.892C198.379 273.885 198.379 273.878 198.379 273.871C198.379 273.864 198.379 273.857 198.379 273.85C198.379 273.843 198.379 273.836 198.379 273.829C198.379 273.822 198.379 273.815 198.379 273.809C198.379 273.802 198.379 273.795 198.379 273.788C198.379 273.781 198.379 273.774 198.379 273.767C198.379 273.76 198.379 273.753 198.379 273.746C198.379 273.739 198.379 273.732 198.379 273.725C198.379 273.718 198.379 273.712 198.379 273.705C198.379 273.698 198.379 273.691 198.379 273.684C198.379 273.677 198.379 273.67 198.379 273.663C198.379 273.656 198.379 273.649 198.379 273.642C198.379 273.635 198.379 273.628 198.379 273.621C198.379 273.615 198.379 273.608 198.379 273.601C198.379 273.594 198.379 273.587 198.379 273.58C198.379 273.573 198.379 273.566 198.379 273.559C198.379 273.552 198.379 273.545 198.379 273.538C198.379 273.532 198.379 273.525 198.379 273.518C198.379 273.511 198.379 273.504 198.379 273.497C198.379 273.49 198.379 273.483 198.379 273.476C198.379 273.469 198.379 273.462 198.379 273.455C198.379 273.449 198.379 273.442 198.379 273.435C198.379 273.428 198.379 273.421 198.379 273.414C198.379 273.407 198.379 273.4 198.379 273.393C198.379 273.386 198.379 273.379 198.379 273.372C198.379 273.366 198.379 273.359 198.379 273.352C198.379 273.345 198.379 273.338 198.379 273.331C198.379 273.324 198.379 273.317 198.379 273.31C198.379 273.303 198.379 273.296 198.379 273.29C198.379 273.283 198.379 273.276 198.379 273.269C198.379 273.262 198.379 273.255 198.379 273.248C198.379 273.241 198.379 273.234 198.379 273.227C198.379 273.221 198.379 273.214 198.379 273.207C198.379 273.2 198.379 273.193 198.379 273.186C198.379 273.179 198.379 273.172 198.379 273.165C198.379 273.158 198.379 273.152 198.379 273.145C198.379 273.138 198.379 273.131 198.379 273.124C198.379 273.117 198.379 273.11 198.379 273.103C198.379 273.096 198.379 273.089 198.379 273.083C198.379 273.076 198.379 273.069 198.379 273.062C198.379 273.055 198.379 273.048 198.379 273.041C198.379 273.034 198.379 273.027 198.379 273.02C198.379 273.014 198.379 273.007 198.379 273C198.379 272.993 198.379 272.986 198.379 272.979C198.379 272.972 198.379 272.965 198.379 272.958C198.379 272.952 198.379 272.945 198.379 272.938C198.379 272.931 198.379 272.924 198.379 272.917C198.379 272.91 198.379 272.903 198.379 272.896C198.379 272.89 198.379 272.883 198.379 272.876C198.379 272.869 198.379 272.862 198.379 272.855C198.379 272.848 198.379 272.841 198.379 272.834C198.379 272.828 198.379 272.821 198.379 272.814C198.379 272.807 198.379 272.8 198.379 272.793C198.379 272.786 198.379 272.779 198.379 272.772C198.379 272.766 198.379 272.759 198.379 272.752C198.379 272.745 198.379 272.738 198.379 272.731C198.379 272.724 198.379 272.717 198.379 272.711C198.379 272.704 198.379 272.697 198.379 272.69C198.379 272.683 198.379 272.676 198.379 272.669C198.379 272.662 198.379 272.656 198.379 272.649C198.379 272.642 198.379 272.635 198.379 272.628C198.379 272.621 198.379 272.614 198.379 272.607C198.379 272.601 198.379 272.594 198.379 272.587C198.379 272.58 198.379 272.573 198.379 272.566C198.379 272.559 198.379 272.552 198.379 272.546C198.379 272.539 198.379 272.532 198.379 272.525C198.379 272.518 198.379 272.511 198.379 272.504C198.379 272.497 198.379 272.491 198.379 272.484C198.379 272.477 198.379 272.47 198.379 272.463C198.379 272.456 198.379 272.449 198.379 272.443C198.379 272.436 198.379 272.429 198.379 272.422C198.379 272.415 198.379 272.408 198.379 272.401C198.379 272.394 198.379 272.388 198.379 272.381C198.379 272.374 198.379 272.367 198.379 272.36C198.379 272.353 198.379 272.346 198.379 272.34C198.379 272.333 198.379 272.326 198.379 272.319C198.379 272.312 198.379 272.305 198.379 272.298C198.379 272.292 198.379 272.285 198.379 272.278C198.379 272.271 198.379 272.264 198.379 272.257C198.379 272.25 198.379 272.244 198.379 272.237C198.379 272.23 198.379 272.223 198.379 272.216C198.379 272.209 198.379 272.202 198.379 272.196C198.379 272.189 198.379 272.182 198.379 272.175C198.379 272.168 198.379 272.161 198.379 272.154C198.379 272.148 198.379 272.141 198.379 272.134C198.379 272.127 198.379 272.12 198.379 272.113C198.379 272.106 198.379 272.1 198.379 272.093C198.379 272.086 198.379 272.079 198.379 272.072C198.379 272.065 198.379 272.058 198.379 272.052C198.379 272.045 198.379 272.038 198.379 272.031C198.379 272.024 198.379 272.017 198.379 272.011C198.379 272.004 198.379 271.997 198.379 271.99C198.379 271.983 198.379 271.976 198.379 271.969C198.379 271.963 198.379 271.956 198.379 271.949C198.379 271.942 198.379 271.935 198.379 271.928C198.379 271.922 198.379 271.915 198.379 271.908C198.379 271.901 198.379 271.894 198.379 271.887C198.379 271.881 198.379 271.874 198.379 271.867C198.379 271.86 198.379 271.853 198.379 271.846C198.379 271.84 198.379 271.833 198.379 271.826C198.379 271.819 198.379 271.812 198.379 271.805C198.379 271.798 198.379 271.792 198.379 271.785C198.379 271.778 198.379 271.771 198.379 271.764C198.379 271.757 198.379 271.751 198.379 271.744C198.379 271.737 198.379 271.73 198.379 271.723C198.379 271.716 198.379 271.71 198.379 271.703C198.379 271.696 198.379 271.689 198.379 271.682C198.379 271.675 198.379 271.669 198.379 271.662C198.379 271.655 198.379 271.648 198.379 271.641C198.379 271.635 198.379 271.628 198.379 271.621C198.379 271.614 198.379 271.607 198.379 271.6C198.379 271.594 198.379 271.587 198.379 271.58C198.379 271.573 198.379 271.566 198.379 271.559C198.379 271.553 198.379 271.546 198.379 271.539C198.379 271.532 198.379 271.525 198.379 271.518C198.379 271.512 198.379 271.505 198.379 271.498C198.379 271.491 198.379 271.484 198.379 271.478C198.379 271.471 198.379 271.464 198.379 271.457C198.379 271.45 198.379 271.443 198.379 271.437C198.379 271.43 198.379 271.423 198.379 271.416C198.379 271.409 198.379 271.403 198.379 271.396C198.379 271.389 198.379 271.382 198.379 271.375C198.379 271.368 198.379 271.362 198.379 271.355C198.379 271.348 198.379 271.341 198.379 271.334C198.379 271.328 198.379 271.321 198.379 271.314C198.379 271.307 198.379 271.3 198.379 271.294C198.379 271.287 198.379 271.28 198.379 271.273C198.379 271.266 198.379 271.259 198.379 271.253C198.379 271.246 198.379 271.239 198.379 271.232C198.379 271.225 198.379 271.219 198.379 271.212C198.379 271.205 198.379 271.198 198.379 271.191C198.379 271.185 198.379 271.178 198.379 271.171C198.379 271.164 198.379 271.157 198.379 271.151C198.379 271.144 198.379 271.137 198.379 271.13C198.379 271.123 198.379 271.117 198.379 271.11C198.379 271.103 198.379 271.096 198.379 271.089C198.379 271.082 198.379 271.076 198.379 271.069C198.379 271.062 198.379 271.055 198.379 271.048C198.379 271.042 198.379 271.035 198.379 271.028C198.379 271.021 198.379 271.014 198.379 271.008C198.379 271.001 198.379 270.994 198.379 270.987C198.379 270.981 198.379 270.974 198.379 270.967C198.379 270.96 198.379 270.953 198.379 270.947C198.379 270.94 198.379 270.933 198.379 270.926C198.379 270.919 198.379 270.913 198.379 270.906C198.379 270.899 198.379 270.892 198.379 270.885C198.379 270.879 198.379 270.872 198.379 270.865C198.379 270.858 198.379 270.851 198.379 270.845C198.379 270.838 198.379 270.831 198.379 270.824C198.379 270.817 198.379 270.811 198.379 270.804C198.379 270.797 198.379 270.79 198.379 270.784C198.379 270.777 198.379 270.77 198.379 270.763C198.379 270.756 198.379 270.75 198.379 270.743C198.379 270.736 198.379 270.729 198.379 270.722C198.379 270.716 198.379 270.709 198.379 270.702C198.379 270.695 198.379 270.689 198.379 270.682C198.379 270.675 198.379 270.668 198.379 270.661C198.379 270.655 198.379 270.648 198.379 270.641C198.379 270.634 198.379 270.627 198.379 270.621C198.379 270.614 198.379 270.607 198.379 270.6C198.379 270.594 198.379 270.587 198.379 270.58C198.379 270.573 198.379 270.566 198.379 270.56C198.379 270.553 198.379 270.546 198.379 270.539C198.379 270.533 198.379 270.526 198.379 270.519C198.379 270.512 198.379 270.506 198.379 270.499C198.379 270.492 198.379 270.485 198.379 270.478C198.379 270.472 198.379 270.465 198.379 270.458C198.379 270.451 198.379 270.445 198.379 270.438C198.379 270.431 198.379 270.424 198.379 270.417C198.379 270.411 198.379 270.404 198.379 270.397C198.379 270.39 198.379 270.384 198.379 270.377C198.379 270.37 198.379 270.363 198.379 270.357C198.379 270.35 198.379 270.343 198.379 270.336C198.379 270.329 198.379 270.323 198.379 270.316C198.379 270.309 198.379 270.302 198.379 270.296C198.379 270.289 198.379 270.282 198.379 270.275C198.379 270.269 198.379 270.262 198.379 270.255C198.379 270.248 198.379 270.242 198.379 270.235C198.379 270.228 198.379 270.221 198.379 270.215C198.379 270.208 198.379 270.201 198.379 270.194C198.379 270.187 198.379 270.181 198.379 270.174C198.379 270.167 198.379 270.16 198.379 270.154C198.379 270.147 198.379 270.14 198.379 270.133C198.379 270.127 198.379 270.12 198.379 270.113C198.379 270.106 198.379 270.1 198.379 270.093C198.379 270.086 198.379 270.079 198.379 270.073C198.379 270.066 198.379 270.059 198.379 270.052C198.379 270.046 198.379 270.039 198.379 270.032C198.379 270.025 198.379 270.019 198.379 270.012C198.379 270.005 198.379 269.998 198.379 269.992C198.379 269.985 198.379 269.978 198.379 269.971C198.379 269.965 198.379 269.958 198.379 269.951C198.379 269.944 198.379 269.938 198.379 269.931C198.379 269.924 198.379 269.917 198.379 269.911C198.379 269.904 198.379 269.897 198.379 269.89C198.379 269.884 198.379 269.877 198.379 269.87C198.379 269.863 198.379 269.857 198.379 269.85C198.379 269.843 198.379 269.836 198.379 269.83C198.379 269.823 198.379 269.816 198.379 269.809C198.379 269.803 198.379 269.796 198.379 269.789C198.379 269.783 198.379 269.776 198.379 269.769C198.379 269.762 198.379 269.756 198.379 269.749C198.379 269.742 198.379 269.735 198.379 269.729C198.379 269.722 198.379 269.715 198.379 269.708C198.379 269.702 198.379 269.695 198.379 269.688C198.379 269.681 198.379 269.675 198.379 269.668C198.379 269.661 198.379 269.655 198.379 269.648C198.379 269.641 198.379 269.634 198.379 269.628C198.379 269.621 198.379 269.614 198.379 269.607C198.379 269.601 198.379 269.594 198.379 269.587C198.379 269.581 198.379 269.574 198.379 269.567C198.379 269.56 198.379 269.554 198.379 269.547C198.379 269.54 198.379 269.533 198.379 269.527C198.379 269.52 198.379 269.513 198.379 269.506C198.379 269.5 198.379 269.493 198.379 269.486C198.379 269.48 198.379 269.473 198.379 269.466C198.379 269.459 198.379 269.453 198.379 269.446C198.379 269.439 198.379 269.433 198.379 269.426C198.379 269.419 198.379 269.412 198.379 269.406C198.379 269.399 198.379 269.392 198.379 269.385C198.379 269.379 198.379 269.372 198.379 269.365C198.379 269.359 198.379 269.352 198.379 269.345C198.379 269.338 198.379 269.332 198.379 269.325C198.379 269.318 198.379 269.312 198.379 269.305C198.379 269.298 198.379 269.291 198.379 269.285C198.379 269.278 198.379 269.271 198.379 269.265C198.379 269.258 198.379 269.251 198.379 269.244C198.379 269.238 198.379 269.231 198.379 269.224C198.379 269.218 198.379 269.211 198.379 269.204C198.379 269.197 198.379 269.191 198.379 269.184C198.379 269.177 198.379 269.171 198.379 269.164C198.379 269.157 198.379 269.15 198.379 269.144C198.379 269.137 198.379 269.13 198.379 269.124C198.379 269.117 198.379 269.11 198.379 269.104C198.379 269.097 198.379 269.09 198.379 269.083C198.379 269.077 198.379 269.07 198.379 269.063C198.379 269.057 198.379 269.05 198.379 269.043C198.379 269.036 198.379 269.03 198.379 269.023C198.379 269.016 198.379 269.01 198.379 269.003C198.379 268.996 198.379 268.99 198.379 268.983C198.379 268.976 198.379 268.969 198.379 268.963C198.379 268.956 198.379 268.949 198.379 268.943C198.379 268.936 198.379 268.929 198.379 268.923C198.379 268.916 198.379 268.909 198.379 268.902C198.379 268.896 198.379 268.889 198.379 268.882C198.379 268.876 198.379 268.869 198.379 268.862C198.379 268.856 198.379 268.849 198.379 268.842C198.379 268.836 198.379 268.829 198.379 268.822C198.379 268.815 198.379 268.809 198.379 268.802C198.379 268.795 198.379 268.789 198.379 268.782C198.379 268.775 198.379 268.769 198.379 268.762C198.379 268.755 198.379 268.749 198.379 268.742C198.379 268.735 198.379 268.728 198.379 268.722C198.379 268.715 198.379 268.708 198.379 268.702C198.379 268.695 198.379 268.688 198.379 268.682C198.379 268.675 198.379 268.668 198.379 268.662C198.379 268.655 198.379 268.648 198.379 268.642C198.379 268.635 198.379 268.628 198.379 268.622C198.379 268.615 198.379 268.608 198.379 268.601C198.379 268.595 198.379 268.588 198.379 268.581C198.379 268.575 198.379 268.568 198.379 268.561C198.379 268.555 198.379 268.548 198.379 268.541C198.379 268.535 198.379 268.528 198.379 268.521C198.379 268.515 198.379 268.508 198.379 268.501C198.379 268.495 198.379 268.488 198.379 268.481C198.379 268.475 198.379 268.468 198.379 268.461C198.379 268.455 198.379 268.448 198.379 268.441C198.379 268.435 198.379 268.428 198.379 268.421C198.379 268.414 198.379 268.408 198.379 268.401C198.379 268.394 198.379 268.388 198.379 268.381C198.379 268.374 198.379 268.368 198.379 268.361C198.379 268.354 198.379 268.348 198.379 268.341C198.379 268.334 198.379 268.328 198.379 268.321C198.379 268.314 198.379 268.308 198.379 268.301C198.379 268.294 198.379 268.288 198.379 268.281C198.379 268.274 198.379 268.268 198.379 268.261C198.379 268.254 198.379 268.248 198.379 268.241C198.379 268.234 198.379 268.228 198.379 268.221C198.379 268.214 198.379 268.208 198.379 268.201C198.379 268.194 198.379 268.188 198.379 268.181C198.379 268.174 198.379 268.168 198.379 268.161C198.379 268.154 198.379 268.148 198.379 268.141C198.379 268.135 198.379 268.128 198.379 268.121C198.379 268.115 198.379 268.108 198.379 268.101C198.379 268.095 198.379 268.088 198.379 268.081C198.379 268.075 198.379 268.068 198.379 268.061C198.379 268.055 198.379 268.048 198.379 268.041C198.379 268.035 198.379 268.028 198.379 268.021C198.379 268.015 198.379 268.008 198.379 268.001C198.379 267.995 198.379 267.988 198.379 267.981C198.379 267.975 198.379 267.968 198.379 267.961C198.379 267.955 198.379 267.948 198.379 267.942C198.379 267.935 198.379 267.928 198.379 267.922C198.379 267.915 198.379 267.908 198.379 267.902C198.379 267.895 198.379 267.888 198.379 267.882C198.379 267.875 198.379 267.868 198.379 267.862C198.379 267.855 198.379 267.848 198.379 267.842C198.379 267.835 198.379 267.829 198.379 267.822C198.379 267.815 198.379 267.809 198.379 267.802C198.379 267.795 198.379 267.789 198.379 267.782C198.379 267.775 198.379 267.769 198.379 267.762C198.379 267.755 198.379 267.749 198.379 267.742C198.379 267.736 198.379 267.729 198.379 267.722C198.379 267.716 198.379 267.709 198.379 267.702C198.379 267.696 198.379 267.689 198.379 267.682C198.379 267.676 198.379 267.669 198.379 267.663C198.379 267.656 198.379 267.649 198.379 267.643C198.379 267.636 198.379 267.629 198.379 267.623C198.379 267.616 198.379 267.609 198.379 267.603C198.379 267.596 198.379 267.59 198.379 267.583C198.379 267.576 198.379 267.57 198.379 267.563C198.379 267.556 198.379 267.55 198.379 267.543C198.379 267.537 198.379 267.53 198.379 267.523C198.379 267.517 198.379 267.51 198.379 267.503C198.379 267.497 198.379 267.49 198.379 267.483C198.379 267.477 198.379 267.47 198.379 267.464C198.379 267.457 198.379 267.45 198.379 267.444C198.379 267.437 198.379 267.43 198.379 267.424C198.379 267.417 198.379 267.411 198.379 267.404C198.379 267.397 198.379 267.391 198.379 267.384C198.379 267.377 198.379 267.371 198.379 267.364C198.379 267.358 198.379 267.351 198.379 267.344C198.379 267.338 198.379 267.331 198.379 267.325C198.379 267.318 198.379 267.311 198.379 267.305C198.379 267.298 198.379 267.291 198.379 267.285C198.379 267.278 198.379 267.272 198.379 267.265C198.379 267.258 198.379 267.252 198.379 267.245C198.379 267.238 198.379 267.232 198.379 267.225C198.379 267.219 198.379 267.212 198.379 267.205C198.379 267.199 198.379 267.192 198.379 267.186C198.379 267.179 198.379 267.172 198.379 267.166C198.379 267.159 198.379 267.153 198.379 267.146C198.379 267.139 198.379 267.133 198.379 267.126C198.379 267.119 198.379 267.113 198.379 267.106C198.379 267.1 198.379 267.093 198.379 267.086C198.379 267.08 198.379 267.073 198.379 267.067C198.379 267.06 198.379 267.053 198.379 267.047C198.379 267.04 198.379 267.034 198.379 267.027C198.379 267.02 198.379 267.014 198.379 267.007C198.379 267.001 198.379 266.994 198.379 266.987C198.379 266.981 198.379 266.974 198.379 266.968C198.379 266.961 198.379 266.954 198.379 266.948C198.379 266.941 198.379 266.935 198.379 266.928C198.379 266.921 198.379 266.915 198.379 266.908C198.379 266.902 198.379 266.895 198.379 266.888C198.379 266.882 198.379 266.875 198.379 266.869C198.379 266.862 198.379 266.855 198.379 266.849C198.379 266.842 198.379 266.836 198.379 266.829C198.379 266.822 198.379 266.816 198.379 266.809C198.379 266.803 198.379 266.796 198.379 266.789C198.379 266.783 198.379 266.776 198.379 266.77C198.379 266.763 198.379 266.756 198.379 266.75C198.379 266.743 198.379 266.737 198.379 266.73C198.379 266.724 198.379 266.717 198.379 266.71C198.379 266.704 198.379 266.697 198.379 266.691C198.379 266.684 198.379 266.677 198.379 266.671C198.379 266.664 198.379 266.658 198.379 266.651C198.379 266.644 198.379 266.638 198.379 266.631C198.379 266.625 198.379 266.618 198.379 266.612C198.379 266.605 198.379 266.598 198.379 266.592C198.379 266.585 198.379 266.579 198.379 266.572C198.379 266.565 198.379 266.559 198.379 266.552C198.379 266.546 198.379 266.539 198.379 266.533C198.379 266.526 198.379 266.519 198.379 266.513C198.379 266.506 198.379 266.5 198.379 266.493C198.379 266.486 198.379 266.48 198.379 266.473C198.379 266.467 198.379 266.46 198.379 266.454C198.379 266.447 198.379 266.44 198.379 266.434C198.379 266.427 198.379 266.421 198.379 266.414C198.379 266.408 198.379 266.401 198.379 266.394C198.379 266.388 198.379 266.381 198.379 266.375C198.379 266.368 198.379 266.362 198.379 266.355C198.379 266.348 198.379 266.342 198.379 266.335C198.379 266.329 198.379 266.322 198.379 266.316C198.379 266.309 198.379 266.302 198.379 266.296C198.379 266.289 198.379 266.283 198.379 266.276C198.379 266.27 198.379 266.263 198.379 266.256C198.379 266.25 198.379 266.243 198.379 266.237C198.379 266.23 198.379 266.224 198.379 266.217C198.379 266.21 198.379 266.204 198.379 266.197C198.379 266.191 198.379 266.184 198.379 266.178C198.379 266.171 198.379 266.165 198.379 266.158C198.379 266.151 198.379 266.145 198.379 266.138C198.379 266.132 198.379 266.125 198.379 266.119C198.379 266.112 198.379 266.106 198.379 266.099C198.379 266.092 198.379 266.086 198.379 266.079C198.379 266.073 198.379 266.066 198.379 266.06C198.379 266.053 198.379 266.046 198.379 266.04C198.379 266.033 198.379 266.027 198.379 266.02C198.379 266.014 198.379 266.007 198.379 266.001C198.379 265.994 198.379 265.987 198.379 265.981C198.379 265.974 198.379 265.968 198.379 265.961C198.379 265.955 198.379 265.948 198.379 265.942C198.379 265.935 198.379 265.929 198.379 265.922C198.379 265.915 198.379 265.909 198.379 265.902C198.379 265.896 198.379 265.889 198.379 265.883C198.379 265.876 198.379 265.87 198.379 265.863C198.379 265.856 198.379 265.85 198.379 265.843C198.379 265.837 198.379 265.83 198.379 265.824C198.379 265.817 198.379 265.811 198.379 265.804C198.379 265.798 198.379 265.791 198.379 265.784C198.379 265.778 198.379 265.771 198.379 265.765C198.379 265.758 198.379 265.752 198.379 265.745C198.379 265.739 198.379 265.732 198.379 265.726C198.379 265.719 198.379 265.713 198.379 265.706C198.379 265.699 198.379 265.693 198.379 265.686C198.379 265.68 198.379 265.673 198.379 265.667C198.379 265.66 198.379 265.654 198.379 265.647C198.379 265.641 198.379 265.634 198.379 265.628C198.379 265.621 198.379 265.614 198.379 265.608C198.379 265.601 198.379 265.595 198.379 265.588C198.379 265.582 198.379 265.575 198.379 265.569C198.379 265.562 198.379 265.556 198.379 265.549C198.379 265.543 198.379 265.536 198.379 265.53C198.379 265.523 198.379 265.516 198.379 265.51C198.379 265.503 198.379 265.497 198.379 265.49C198.379 265.484 198.379 265.477 198.379 265.471C198.379 265.464 198.379 265.458 198.379 265.451C198.379 265.445 198.379 265.438 198.379 265.432C198.379 265.425 198.379 265.419 198.379 265.412C198.379 265.406 198.379 265.399 198.379 265.392C198.379 265.386 198.379 265.379 198.379 265.373C198.379 265.366 198.379 265.36 198.379 265.353C198.379 265.347 198.379 265.34 198.379 265.334C198.379 265.327 198.379 265.321 198.379 265.314C198.379 265.308 198.379 265.301 198.379 265.295C198.379 265.288 198.379 265.282 198.379 265.275C198.379 265.269 198.379 265.262 198.379 265.256C198.379 265.249 198.379 265.243 198.379 265.236C198.379 265.229 198.379 265.223 198.379 265.216C198.379 265.21 198.379 265.203 198.379 265.197C198.379 265.19 198.379 265.184 198.379 265.177C198.379 265.171 198.379 265.164 198.379 265.158C198.379 265.151 198.379 265.145 198.379 265.138C198.379 265.132 198.379 265.125 198.379 265.119C198.379 265.112 198.379 265.106 198.379 265.099C198.379 265.093 198.379 265.086 198.379 265.08C198.379 265.073 198.379 265.067 198.379 265.06C198.379 265.054 198.379 265.047 198.379 265.041C198.379 265.034 198.379 265.028 198.379 265.021H194.747ZM194.747 275.397H191.114V281.546H194.747H198.379V275.397H194.747ZM194.747 281.546L197.957 283.246C202.38 274.892 208.023 267.532 214.896 261.15L212.425 258.488L209.953 255.826C202.479 262.766 196.337 270.778 191.536 279.846L194.747 281.546ZM212.425 258.488L214.9 261.147C222.071 254.471 229.971 249.041 238.607 244.846L237.02 241.579L235.433 238.311C226.135 242.827 217.639 248.671 209.949 255.829L212.425 258.488ZM237.02 241.579L238.644 244.828C247.6 240.35 257.057 236.989 267.024 234.747L266.227 231.203L265.429 227.659C254.9 230.028 244.886 233.584 235.395 238.33L237.02 241.579ZM266.227 231.203L267.024 234.747C277.017 232.498 286.998 231.376 296.971 231.376V227.744V224.111C286.448 224.111 275.933 225.296 265.429 227.659L266.227 231.203ZM296.971 227.744V231.376C304.941 231.376 312.644 232.124 320.085 233.612L320.798 230.05L321.51 226.488C313.579 224.902 305.398 224.111 296.971 224.111V227.744ZM320.798 230.05L320.2 233.633C327.639 234.873 334.824 236.855 341.759 239.58L343.087 236.199L344.415 232.818C337.003 229.906 329.328 227.789 321.395 226.467L320.798 230.05Z" fill="white" mask="url(#path-2-outside-1_127_49)"/>
<defs>
<filter id="filter0_d_127_49" x="0.148645" y="0.973285" width="572.535" height="572.535" filterUnits="userSpaceOnUse" color-interpolation-filters="sRGB">
<feFlood flood-opacity="0" result="BackgroundImageFix"/>
<feColorMatrix in="SourceAlpha" type="matrix" values="0 0 0 0 0 0 0 0 0 0 0 0 0 0 0 0 0 0 127 0" result="hardAlpha"/>
<feMorphology radius="11.3041" operator="dilate" in="SourceAlpha" result="effect1_dropShadow_127_49"/>
<feOffset dy="15.0721"/>
<feGaussianBlur stdDeviation="7.53604"/>
<feComposite in2="hardAlpha" operator="out"/>
<feColorMatrix type="matrix" values="0 0 0 0 0.12549 0 0 0 0 0.278431 0 0 0 0 0.27451 0 0 0 0.28 0"/>
<feBlend mode="normal" in2="BackgroundImageFix" result="effect1_dropShadow_127_49"/>
<feBlend mode="normal" in="SourceGraphic" in2="effect1_dropShadow_127_49" result="shape"/>
</filter>
</defs>
</svg>
