<svg width="573" height="574" viewBox="0 0 573 574" fill="none" xmlns="http://www.w3.org/2000/svg">
<g filter="url(#filter0_d_127_18)">
<rect x="26.5248" y="12" width="519.783" height="519.783" rx="73.6907" fill="#DF1313"/>
</g>
<mask id="path-2-outside-1_127_18" maskUnits="userSpaceOnUse" x="168.928" y="132.386" width="235" height="296" fill="black">
<rect fill="white" x="168.928" y="132.386" width="235" height="296"/>
<path d="M335.401 393.485C348.98 386.311 359.612 377.088 367.298 365.815C374.984 354.286 378.827 341.22 378.827 326.616C378.827 323.542 378.571 320.467 378.058 317.393C377.802 314.319 377.418 311.244 376.906 308.17C373.575 294.335 367.554 282.422 358.843 272.43C350.133 262.438 338.732 255.649 324.641 252.062C315.93 250.012 306.963 248.987 297.74 248.987C287.748 248.987 277.5 250.268 266.995 252.83C256.747 255.136 247.396 258.979 238.941 264.36C230.487 269.484 223.441 276.017 217.805 283.959C212.168 291.645 208.966 300.868 208.197 311.629C207.941 314.447 206.916 316.753 205.123 318.546C203.33 320.083 201.408 321.108 199.358 321.62C201.664 332.637 205.123 343.013 209.735 352.749C214.346 362.484 220.495 370.811 228.181 377.728C237.148 385.927 247.396 392.332 258.925 396.943C270.454 401.555 282.367 403.861 294.665 403.861C301.583 403.861 308.372 403.092 315.033 401.555C321.95 399.762 328.74 397.071 335.401 393.485ZM343.087 235.921C352.566 239.764 360.893 244.76 368.067 250.909C375.24 257.058 381.133 263.975 385.744 271.661C390.356 279.091 393.815 287.161 396.121 295.872C398.426 304.583 399.579 313.294 399.579 322.005C399.579 331.74 398.298 341.348 395.736 350.827C393.174 360.05 389.203 368.889 383.823 377.344C378.699 385.542 372.294 392.972 364.608 399.633C357.178 406.295 348.467 411.675 338.475 415.774C331.046 418.849 323.36 421.026 315.417 422.307C307.731 423.844 300.045 424.613 292.359 424.613C276.219 424.613 260.719 421.667 245.859 415.774C231.255 409.625 218.574 400.274 207.813 387.72C201.664 380.547 196.284 372.604 191.672 363.893C187.317 355.183 183.73 346.088 180.912 336.608C178.094 326.872 176.044 317.009 174.763 307.017C173.482 296.769 172.842 286.649 172.842 276.657C172.842 262.822 173.995 249.756 176.3 237.458C178.35 225.417 181.424 214.144 185.524 203.64C189.623 193.136 194.875 183.784 201.28 175.586C207.941 167.131 215.883 159.958 225.107 154.065C234.33 148.173 245.09 143.689 257.388 140.615C263.024 139.334 268.661 138.437 274.297 137.924C279.934 137.156 285.57 136.772 291.206 136.772C306.578 136.772 321.054 139.846 334.632 145.995C348.467 151.887 359.868 161.879 368.835 175.97C370.116 177.507 370.757 179.429 370.757 181.735C370.757 184.553 369.476 186.987 366.914 189.037C364.608 190.83 362.046 191.727 359.228 191.727C355.641 191.727 352.695 190.061 350.389 186.731C343.728 176.226 335.017 168.797 324.256 164.441C313.752 159.83 302.607 157.524 290.822 157.524C277.243 157.524 264.305 160.086 252.008 165.21C242.272 169.053 233.946 174.049 227.028 180.198C220.367 186.09 214.73 193.008 210.119 200.95C205.763 208.636 202.433 217.09 200.127 226.314C197.821 235.537 196.284 245.144 195.515 255.136C195.259 258.211 195.003 261.413 194.747 264.744C194.747 268.074 194.747 271.533 194.747 275.12V281.269C199.358 272.558 205.251 264.872 212.425 258.211C219.855 251.293 228.053 245.657 237.02 241.301C246.243 236.69 255.979 233.231 266.227 230.925C276.475 228.62 286.723 227.467 296.971 227.467C305.169 227.467 313.112 228.235 320.798 229.772C328.484 231.053 335.913 233.103 343.087 235.921Z"/>
</mask>
<path d="M335.401 393.485C348.98 386.311 359.612 377.088 367.298 365.815C374.984 354.286 378.827 341.22 378.827 326.616C378.827 323.542 378.571 320.467 378.058 317.393C377.802 314.319 377.418 311.244 376.906 308.17C373.575 294.335 367.554 282.422 358.843 272.43C350.133 262.438 338.732 255.649 324.641 252.062C315.93 250.012 306.963 248.987 297.74 248.987C287.748 248.987 277.5 250.268 266.995 252.83C256.747 255.136 247.396 258.979 238.941 264.36C230.487 269.484 223.441 276.017 217.805 283.959C212.168 291.645 208.966 300.868 208.197 311.629C207.941 314.447 206.916 316.753 205.123 318.546C203.33 320.083 201.408 321.108 199.358 321.62C201.664 332.637 205.123 343.013 209.735 352.749C214.346 362.484 220.495 370.811 228.181 377.728C237.148 385.927 247.396 392.332 258.925 396.943C270.454 401.555 282.367 403.861 294.665 403.861C301.583 403.861 308.372 403.092 315.033 401.555C321.95 399.762 328.74 397.071 335.401 393.485ZM343.087 235.921C352.566 239.764 360.893 244.76 368.067 250.909C375.24 257.058 381.133 263.975 385.744 271.661C390.356 279.091 393.815 287.161 396.121 295.872C398.426 304.583 399.579 313.294 399.579 322.005C399.579 331.74 398.298 341.348 395.736 350.827C393.174 360.05 389.203 368.889 383.823 377.344C378.699 385.542 372.294 392.972 364.608 399.633C357.178 406.295 348.467 411.675 338.475 415.774C331.046 418.849 323.36 421.026 315.417 422.307C307.731 423.844 300.045 424.613 292.359 424.613C276.219 424.613 260.719 421.667 245.859 415.774C231.255 409.625 218.574 400.274 207.813 387.72C201.664 380.547 196.284 372.604 191.672 363.893C187.317 355.183 183.73 346.088 180.912 336.608C178.094 326.872 176.044 317.009 174.763 307.017C173.482 296.769 172.842 286.649 172.842 276.657C172.842 262.822 173.995 249.756 176.3 237.458C178.35 225.417 181.424 214.144 185.524 203.64C189.623 193.136 194.875 183.784 201.28 175.586C207.941 167.131 215.883 159.958 225.107 154.065C234.33 148.173 245.09 143.689 257.388 140.615C263.024 139.334 268.661 138.437 274.297 137.924C279.934 137.156 285.57 136.772 291.206 136.772C306.578 136.772 321.054 139.846 334.632 145.995C348.467 151.887 359.868 161.879 368.835 175.97C370.116 177.507 370.757 179.429 370.757 181.735C370.757 184.553 369.476 186.987 366.914 189.037C364.608 190.83 362.046 191.727 359.228 191.727C355.641 191.727 352.695 190.061 350.389 186.731C343.728 176.226 335.017 168.797 324.256 164.441C313.752 159.83 302.607 157.524 290.822 157.524C277.243 157.524 264.305 160.086 252.008 165.21C242.272 169.053 233.946 174.049 227.028 180.198C220.367 186.09 214.73 193.008 210.119 200.95C205.763 208.636 202.433 217.09 200.127 226.314C197.821 235.537 196.284 245.144 195.515 255.136C195.259 258.211 195.003 261.413 194.747 264.744C194.747 268.074 194.747 271.533 194.747 275.12V281.269C199.358 272.558 205.251 264.872 212.425 258.211C219.855 251.293 228.053 245.657 237.02 241.301C246.243 236.69 255.979 233.231 266.227 230.925C276.475 228.62 286.723 227.467 296.971 227.467C305.169 227.467 313.112 228.235 320.798 229.772C328.484 231.053 335.913 233.103 343.087 235.921Z" fill="white"/>
<path d="M335.401 393.485L333.704 390.273L333.691 390.28L333.679 390.286L335.401 393.485ZM367.298 365.815L370.299 367.861L370.31 367.846L370.32 367.83L367.298 365.815ZM378.058 317.393L374.438 317.695L374.451 317.843L374.475 317.99L378.058 317.393ZM376.906 308.17L380.489 307.573L380.467 307.445L380.437 307.32L376.906 308.17ZM358.843 272.43L361.581 270.043L358.843 272.43ZM324.641 252.062L325.537 248.542L325.505 248.533L325.473 248.526L324.641 252.062ZM266.995 252.83L267.793 256.374L267.825 256.367L267.856 256.36L266.995 252.83ZM238.941 264.36L240.824 267.466L240.858 267.445L240.892 267.424L238.941 264.36ZM217.805 283.959L220.734 286.107L220.751 286.084L220.767 286.061L217.805 283.959ZM208.197 311.629L211.815 311.957L211.818 311.922L211.821 311.887L208.197 311.629ZM205.123 318.546L207.487 321.304L207.593 321.213L207.692 321.115L205.123 318.546ZM199.358 321.62L198.477 318.096L195.087 318.944L195.803 322.365L199.358 321.62ZM228.181 377.728L230.632 375.047L230.622 375.038L230.611 375.028L228.181 377.728ZM315.033 401.555L315.85 405.094L315.897 405.084L315.945 405.071L315.033 401.555ZM343.087 235.921L344.452 232.555L344.434 232.547L344.415 232.54L343.087 235.921ZM385.744 271.661L382.63 273.53L382.644 273.554L382.658 273.577L385.744 271.661ZM395.736 350.827L399.236 351.799L399.24 351.787L399.243 351.775L395.736 350.827ZM383.823 377.344L380.758 375.394L380.75 375.406L380.743 375.419L383.823 377.344ZM364.608 399.633L362.229 396.888L362.206 396.908L362.183 396.929L364.608 399.633ZM338.475 415.774L337.097 412.413L337.087 412.418L338.475 415.774ZM315.417 422.307L314.839 418.721L314.772 418.732L314.705 418.745L315.417 422.307ZM245.859 415.774L244.449 419.122L244.484 419.137L244.52 419.151L245.859 415.774ZM207.813 387.72L205.055 390.084L207.813 387.72ZM191.672 363.893L188.423 365.518L188.442 365.556L188.462 365.593L191.672 363.893ZM180.912 336.608L177.423 337.618L177.426 337.631L177.43 337.643L180.912 336.608ZM174.763 307.017L171.159 307.467L171.16 307.479L174.763 307.017ZM176.3 237.458L179.871 238.128L179.876 238.098L179.881 238.068L176.3 237.458ZM185.524 203.64L182.14 202.319L185.524 203.64ZM201.28 175.586L198.427 173.338L198.422 173.344L198.417 173.35L201.28 175.586ZM257.388 140.615L256.583 137.072L256.545 137.081L256.507 137.091L257.388 140.615ZM274.297 137.924L274.626 141.542L274.707 141.535L274.788 141.524L274.297 137.924ZM334.632 145.995L333.134 149.304L333.171 149.321L333.209 149.337L334.632 145.995ZM368.835 175.97L365.771 177.921L365.896 178.117L366.045 178.296L368.835 175.97ZM366.914 189.037L369.144 191.904L369.163 191.889L369.183 191.873L366.914 189.037ZM350.389 186.731L347.321 188.676L347.36 188.738L347.402 188.798L350.389 186.731ZM324.256 164.441L322.796 167.767L322.844 167.789L322.893 167.808L324.256 164.441ZM252.008 165.21L253.341 168.589L253.373 168.576L253.405 168.563L252.008 165.21ZM227.028 180.198L229.435 182.918L229.441 182.913L227.028 180.198ZM210.119 200.95L206.978 199.126L206.968 199.142L206.958 199.159L210.119 200.95ZM195.515 255.136L199.135 255.438L199.136 255.426L199.137 255.415L195.515 255.136ZM194.747 264.744L191.125 264.465L191.114 264.604V264.744H194.747ZM194.747 281.269H191.114L197.957 282.968L194.747 281.269ZM212.425 258.211L214.896 260.873L214.9 260.869L212.425 258.211ZM237.02 241.301L238.607 244.569L238.626 244.56L238.644 244.55L237.02 241.301ZM266.227 230.925L265.429 227.381L266.227 230.925ZM320.798 229.772L320.085 233.334L320.143 233.346L320.2 233.356L320.798 229.772ZM335.401 393.485L337.098 396.697C351.133 389.282 362.24 379.682 370.299 367.861L367.298 365.815L364.297 363.769C356.984 374.494 346.826 383.34 333.704 390.273L335.401 393.485ZM367.298 365.815L370.32 367.83C378.426 355.671 382.46 341.896 382.46 326.616H378.827H375.195C375.195 340.543 371.542 352.901 364.276 363.8L367.298 365.815ZM378.827 326.616H382.46C382.46 323.339 382.186 320.065 381.642 316.796L378.058 317.393L374.475 317.99C374.955 320.87 375.195 323.745 375.195 326.616H378.827ZM378.058 317.393L381.678 317.091C381.414 313.917 381.017 310.744 380.489 307.573L376.906 308.17L373.322 308.767C373.819 311.744 374.191 314.72 374.438 317.695L378.058 317.393ZM376.906 308.17L380.437 307.32C376.98 292.959 370.705 280.508 361.581 270.043L358.843 272.43L356.105 274.817C364.404 284.336 370.17 295.711 373.374 309.02L376.906 308.17ZM358.843 272.43L361.581 270.043C352.339 259.441 340.27 252.292 325.537 248.542L324.641 252.062L323.745 255.582C337.193 259.005 347.926 265.435 356.105 274.817L358.843 272.43ZM324.641 252.062L325.473 248.526C316.481 246.41 307.234 245.355 297.74 245.355V248.987V252.62C306.691 252.62 315.379 253.614 323.809 255.598L324.641 252.062ZM297.74 248.987V245.355C287.435 245.355 276.898 246.676 266.135 249.301L266.995 252.83L267.856 256.36C278.102 253.861 288.06 252.62 297.74 252.62V248.987ZM266.995 252.83L266.198 249.287C255.561 251.68 245.816 255.679 236.991 261.295L238.941 264.36L240.892 267.424C248.976 262.28 257.934 258.593 267.793 256.374L266.995 252.83ZM238.941 264.36L237.059 261.253C228.186 266.63 220.771 273.503 214.843 281.857L217.805 283.959L220.767 286.061C226.112 278.53 232.788 272.337 240.824 267.466L238.941 264.36ZM217.805 283.959L214.876 281.811C208.783 290.119 205.385 300.019 204.574 311.37L208.197 311.629L211.821 311.887C212.547 301.717 215.554 293.171 220.734 286.107L217.805 283.959ZM208.197 311.629L204.58 311.3C204.391 313.376 203.677 314.855 202.554 315.977L205.123 318.546L207.692 321.115C210.156 318.65 211.491 315.518 211.815 311.957L208.197 311.629ZM205.123 318.546L202.759 315.788C201.343 317.002 199.918 317.736 198.477 318.096L199.358 321.62L200.239 325.144C202.898 324.48 205.316 323.164 207.487 321.304L205.123 318.546ZM199.358 321.62L195.803 322.365C198.165 333.649 201.712 344.298 206.452 354.304L209.735 352.749L213.017 351.194C208.534 341.728 205.164 331.625 202.914 320.876L199.358 321.62ZM209.735 352.749L206.452 354.304C211.26 364.455 217.693 373.176 225.751 380.428L228.181 377.728L230.611 375.028C223.297 368.446 217.432 360.514 213.017 351.194L209.735 352.749ZM228.181 377.728L225.73 380.409C235.027 388.909 245.65 395.546 257.576 400.316L258.925 396.943L260.274 393.571C249.142 389.118 239.269 382.944 230.632 375.047L228.181 377.728ZM258.925 396.943L257.576 400.316C269.53 405.098 281.901 407.493 294.665 407.493V403.861V400.228C282.834 400.228 271.378 398.012 260.274 393.571L258.925 396.943ZM294.665 403.861V407.493C301.854 407.493 308.918 406.694 315.85 405.094L315.033 401.555L314.216 398.015C307.826 399.49 301.311 400.228 294.665 400.228V403.861ZM315.033 401.555L315.945 405.071C323.16 403.201 330.221 400.4 337.123 396.683L335.401 393.485L333.679 390.286C327.259 393.743 320.741 396.323 314.121 398.039L315.033 401.555ZM343.087 235.921L341.722 239.288C350.868 242.995 358.851 247.794 365.703 253.667L368.067 250.909L370.431 248.151C362.935 241.726 354.265 236.533 344.452 232.555L343.087 235.921ZM368.067 250.909L365.703 253.667C372.596 259.576 378.229 266.197 382.63 273.53L385.744 271.661L388.859 269.792C384.036 261.754 377.885 254.54 370.431 248.151L368.067 250.909ZM385.744 271.661L382.658 273.577C387.074 280.692 390.392 288.428 392.609 296.802L396.121 295.872L399.632 294.943C397.237 285.895 393.638 277.49 388.831 269.746L385.744 271.661ZM396.121 295.872L392.609 296.802C394.837 305.22 395.947 313.618 395.947 322.005H399.579H403.212C403.212 312.969 402.015 303.946 399.632 294.943L396.121 295.872ZM399.579 322.005H395.947C395.947 331.417 394.709 340.706 392.23 349.879L395.736 350.827L399.243 351.775C401.888 341.989 403.212 332.063 403.212 322.005H399.579ZM395.736 350.827L392.236 349.855C389.775 358.717 385.955 367.228 380.758 375.394L383.823 377.344L386.888 379.294C392.451 370.551 396.574 361.384 399.236 351.799L395.736 350.827ZM383.823 377.344L380.743 375.419C375.82 383.295 369.656 390.452 362.229 396.888L364.608 399.633L366.987 402.379C374.932 395.493 381.578 387.79 386.903 379.269L383.823 377.344ZM364.608 399.633L362.183 396.929C355.086 403.291 346.737 408.459 337.097 412.413L338.475 415.774L339.854 419.135C350.198 414.891 359.27 409.298 367.033 402.338L364.608 399.633ZM338.475 415.774L337.087 412.418C329.917 415.384 322.503 417.485 314.839 418.721L315.417 422.307L315.996 425.893C324.216 424.568 332.174 422.313 339.864 419.131L338.475 415.774ZM315.417 422.307L314.705 418.745C307.249 420.236 299.801 420.981 292.359 420.981V424.613V428.246C300.289 428.246 308.214 427.452 316.13 425.869L315.417 422.307ZM292.359 424.613V420.981C276.673 420.981 261.627 418.119 247.198 412.397L245.859 415.774L244.52 419.151C259.81 425.214 275.765 428.246 292.359 428.246V424.613ZM245.859 415.774L247.269 412.426C233.208 406.506 220.981 397.501 210.571 385.356L207.813 387.72L205.055 390.084C216.166 403.047 229.303 412.745 244.449 419.122L245.859 415.774ZM207.813 387.72L210.571 385.356C204.605 378.395 199.374 370.677 194.883 362.194L191.672 363.893L188.462 365.593C193.194 374.531 198.724 382.698 205.055 390.084L207.813 387.72ZM191.672 363.893L194.921 362.269C190.662 353.75 187.153 344.853 184.394 335.573L180.912 336.608L177.43 337.643C180.308 347.322 183.972 356.615 188.423 365.518L191.672 363.893ZM180.912 336.608L184.401 335.598C181.635 326.041 179.623 316.36 178.366 306.555L174.763 307.017L171.16 307.479C172.465 317.657 174.553 327.704 177.423 337.618L180.912 336.608ZM174.763 307.017L178.368 306.566C177.105 296.463 176.474 286.493 176.474 276.657H172.842H169.209C169.209 286.805 169.86 297.075 171.159 307.467L174.763 307.017ZM172.842 276.657H176.474C176.474 263.024 177.61 250.183 179.871 238.128L176.3 237.458L172.73 236.789C170.379 249.329 169.209 262.621 169.209 276.657H172.842ZM176.3 237.458L179.881 238.068C181.893 226.25 184.905 215.217 188.908 204.961L185.524 203.64L182.14 202.319C177.944 213.071 174.807 224.584 172.719 236.849L176.3 237.458ZM185.524 203.64L188.908 204.961C192.889 194.758 197.972 185.72 204.142 177.822L201.28 175.586L198.417 173.35C191.778 181.849 186.357 191.514 182.14 202.319L185.524 203.64ZM201.28 175.586L204.133 177.834C210.539 169.704 218.176 162.804 227.062 157.126L225.107 154.065L223.151 151.004C213.591 157.112 205.344 164.559 198.427 173.338L201.28 175.586ZM225.107 154.065L227.062 157.126C235.907 151.475 246.293 147.133 258.269 144.139L257.388 140.615L256.507 137.091C243.887 140.245 232.753 144.87 223.151 151.004L225.107 154.065ZM257.388 140.615L258.193 144.157C263.676 142.911 269.153 142.04 274.626 141.542L274.297 137.924L273.968 134.307C268.168 134.834 262.373 135.756 256.583 137.072L257.388 140.615ZM274.297 137.924L274.788 141.524C280.263 140.777 285.736 140.404 291.206 140.404V136.772V133.139C285.404 133.139 279.604 133.535 273.806 134.325L274.297 137.924ZM291.206 136.772V140.404C306.078 140.404 320.041 143.375 333.134 149.304L334.632 145.995L336.131 142.686C322.067 136.317 307.079 133.139 291.206 133.139V136.772ZM334.632 145.995L333.209 149.337C346.295 154.91 357.152 164.377 365.771 177.921L368.835 175.97L371.9 174.02C362.584 159.381 350.64 148.864 336.056 142.653L334.632 145.995ZM368.835 175.97L366.045 178.296C366.7 179.082 367.124 180.142 367.124 181.735H370.757H374.389C374.389 178.716 373.532 175.933 371.626 173.645L368.835 175.97ZM370.757 181.735H367.124C367.124 183.261 366.504 184.713 364.644 186.2L366.914 189.037L369.183 191.873C372.448 189.261 374.389 185.845 374.389 181.735H370.757ZM366.914 189.037L364.684 186.169C362.99 187.486 361.207 188.094 359.228 188.094V191.727V195.359C362.885 195.359 366.226 194.174 369.144 191.904L366.914 189.037ZM359.228 191.727V188.094C357.002 188.094 355.105 187.161 353.375 184.663L350.389 186.731L347.402 188.798C350.284 192.962 354.28 195.359 359.228 195.359V191.727ZM350.389 186.731L353.456 184.785C346.42 173.689 337.134 165.735 325.619 161.074L324.256 164.441L322.893 167.808C332.9 171.859 341.035 178.764 347.321 188.676L350.389 186.731ZM324.256 164.441L325.717 161.115C314.739 156.296 303.096 153.891 290.822 153.891V157.524V161.156C302.119 161.156 312.765 163.363 322.796 167.767L324.256 164.441ZM290.822 157.524V153.891C276.773 153.891 263.36 156.545 250.611 161.857L252.008 165.21L253.405 168.563C265.251 163.627 277.714 161.156 290.822 161.156V157.524ZM252.008 165.21L250.674 161.831C240.594 165.81 231.889 171.016 224.615 177.483L227.028 180.198L229.441 182.913C236.002 177.081 243.95 172.296 253.341 168.589L252.008 165.21ZM227.028 180.198L224.621 177.477C217.659 183.635 211.778 190.858 206.978 199.126L210.119 200.95L213.26 202.774C217.683 195.157 223.074 188.545 229.435 182.918L227.028 180.198ZM210.119 200.95L206.958 199.159C202.43 207.151 198.982 215.915 196.603 225.433L200.127 226.314L203.651 227.195C205.883 218.266 209.097 210.12 213.279 202.741L210.119 200.95ZM200.127 226.314L196.603 225.433C194.245 234.864 192.677 244.674 191.894 254.858L195.515 255.136L199.137 255.415C199.891 245.615 201.397 236.21 203.651 227.195L200.127 226.314ZM195.515 255.136L191.895 254.835C191.639 257.917 191.382 261.128 191.125 264.465L194.747 264.744L198.369 265.022C198.624 261.699 198.88 258.504 199.135 255.438L195.515 255.136ZM194.747 264.744H191.114C191.114 264.75 191.114 264.757 191.114 264.763C191.114 264.77 191.114 264.776 191.114 264.783C191.114 264.789 191.114 264.796 191.114 264.802C191.114 264.809 191.114 264.815 191.114 264.822C191.114 264.828 191.114 264.835 191.114 264.841C191.114 264.848 191.114 264.854 191.114 264.861C191.114 264.867 191.114 264.874 191.114 264.881C191.114 264.887 191.114 264.894 191.114 264.9C191.114 264.907 191.114 264.913 191.114 264.92C191.114 264.926 191.114 264.933 191.114 264.939C191.114 264.946 191.114 264.952 191.114 264.959C191.114 264.965 191.114 264.972 191.114 264.978C191.114 264.985 191.114 264.991 191.114 264.998C191.114 265.004 191.114 265.011 191.114 265.017C191.114 265.024 191.114 265.03 191.114 265.037C191.114 265.043 191.114 265.05 191.114 265.056C191.114 265.063 191.114 265.069 191.114 265.076C191.114 265.083 191.114 265.089 191.114 265.096C191.114 265.102 191.114 265.109 191.114 265.115C191.114 265.122 191.114 265.128 191.114 265.135C191.114 265.141 191.114 265.148 191.114 265.154C191.114 265.161 191.114 265.167 191.114 265.174C191.114 265.18 191.114 265.187 191.114 265.193C191.114 265.2 191.114 265.207 191.114 265.213C191.114 265.22 191.114 265.226 191.114 265.233C191.114 265.239 191.114 265.246 191.114 265.252C191.114 265.259 191.114 265.265 191.114 265.272C191.114 265.278 191.114 265.285 191.114 265.291C191.114 265.298 191.114 265.304 191.114 265.311C191.114 265.318 191.114 265.324 191.114 265.331C191.114 265.337 191.114 265.344 191.114 265.35C191.114 265.357 191.114 265.363 191.114 265.37C191.114 265.376 191.114 265.383 191.114 265.389C191.114 265.396 191.114 265.402 191.114 265.409C191.114 265.416 191.114 265.422 191.114 265.429C191.114 265.435 191.114 265.442 191.114 265.448C191.114 265.455 191.114 265.461 191.114 265.468C191.114 265.474 191.114 265.481 191.114 265.488C191.114 265.494 191.114 265.501 191.114 265.507C191.114 265.514 191.114 265.52 191.114 265.527C191.114 265.533 191.114 265.54 191.114 265.546C191.114 265.553 191.114 265.56 191.114 265.566C191.114 265.573 191.114 265.579 191.114 265.586C191.114 265.592 191.114 265.599 191.114 265.605C191.114 265.612 191.114 265.618 191.114 265.625C191.114 265.632 191.114 265.638 191.114 265.645C191.114 265.651 191.114 265.658 191.114 265.664C191.114 265.671 191.114 265.677 191.114 265.684C191.114 265.69 191.114 265.697 191.114 265.704C191.114 265.71 191.114 265.717 191.114 265.723C191.114 265.73 191.114 265.736 191.114 265.743C191.114 265.749 191.114 265.756 191.114 265.763C191.114 265.769 191.114 265.776 191.114 265.782C191.114 265.789 191.114 265.795 191.114 265.802C191.114 265.808 191.114 265.815 191.114 265.822C191.114 265.828 191.114 265.835 191.114 265.841C191.114 265.848 191.114 265.854 191.114 265.861C191.114 265.868 191.114 265.874 191.114 265.881C191.114 265.887 191.114 265.894 191.114 265.9C191.114 265.907 191.114 265.913 191.114 265.92C191.114 265.927 191.114 265.933 191.114 265.94C191.114 265.946 191.114 265.953 191.114 265.959C191.114 265.966 191.114 265.973 191.114 265.979C191.114 265.986 191.114 265.992 191.114 265.999C191.114 266.005 191.114 266.012 191.114 266.019C191.114 266.025 191.114 266.032 191.114 266.038C191.114 266.045 191.114 266.051 191.114 266.058C191.114 266.064 191.114 266.071 191.114 266.078C191.114 266.084 191.114 266.091 191.114 266.097C191.114 266.104 191.114 266.111 191.114 266.117C191.114 266.124 191.114 266.13 191.114 266.137C191.114 266.143 191.114 266.15 191.114 266.157C191.114 266.163 191.114 266.17 191.114 266.176C191.114 266.183 191.114 266.189 191.114 266.196C191.114 266.203 191.114 266.209 191.114 266.216C191.114 266.222 191.114 266.229 191.114 266.235C191.114 266.242 191.114 266.249 191.114 266.255C191.114 266.262 191.114 266.268 191.114 266.275C191.114 266.282 191.114 266.288 191.114 266.295C191.114 266.301 191.114 266.308 191.114 266.314C191.114 266.321 191.114 266.328 191.114 266.334C191.114 266.341 191.114 266.347 191.114 266.354C191.114 266.361 191.114 266.367 191.114 266.374C191.114 266.38 191.114 266.387 191.114 266.393C191.114 266.4 191.114 266.407 191.114 266.413C191.114 266.42 191.114 266.426 191.114 266.433C191.114 266.44 191.114 266.446 191.114 266.453C191.114 266.459 191.114 266.466 191.114 266.473C191.114 266.479 191.114 266.486 191.114 266.492C191.114 266.499 191.114 266.505 191.114 266.512C191.114 266.519 191.114 266.525 191.114 266.532C191.114 266.538 191.114 266.545 191.114 266.552C191.114 266.558 191.114 266.565 191.114 266.571C191.114 266.578 191.114 266.585 191.114 266.591C191.114 266.598 191.114 266.604 191.114 266.611C191.114 266.618 191.114 266.624 191.114 266.631C191.114 266.637 191.114 266.644 191.114 266.651C191.114 266.657 191.114 266.664 191.114 266.67C191.114 266.677 191.114 266.684 191.114 266.69C191.114 266.697 191.114 266.703 191.114 266.71C191.114 266.717 191.114 266.723 191.114 266.73C191.114 266.736 191.114 266.743 191.114 266.75C191.114 266.756 191.114 266.763 191.114 266.769C191.114 266.776 191.114 266.783 191.114 266.789C191.114 266.796 191.114 266.802 191.114 266.809C191.114 266.816 191.114 266.822 191.114 266.829C191.114 266.836 191.114 266.842 191.114 266.849C191.114 266.855 191.114 266.862 191.114 266.869C191.114 266.875 191.114 266.882 191.114 266.888C191.114 266.895 191.114 266.902 191.114 266.908C191.114 266.915 191.114 266.921 191.114 266.928C191.114 266.935 191.114 266.941 191.114 266.948C191.114 266.955 191.114 266.961 191.114 266.968C191.114 266.974 191.114 266.981 191.114 266.988C191.114 266.994 191.114 267.001 191.114 267.007C191.114 267.014 191.114 267.021 191.114 267.027C191.114 267.034 191.114 267.041 191.114 267.047C191.114 267.054 191.114 267.06 191.114 267.067C191.114 267.074 191.114 267.08 191.114 267.087C191.114 267.094 191.114 267.1 191.114 267.107C191.114 267.113 191.114 267.12 191.114 267.127C191.114 267.133 191.114 267.14 191.114 267.147C191.114 267.153 191.114 267.16 191.114 267.166C191.114 267.173 191.114 267.18 191.114 267.186C191.114 267.193 191.114 267.2 191.114 267.206C191.114 267.213 191.114 267.219 191.114 267.226C191.114 267.233 191.114 267.239 191.114 267.246C191.114 267.253 191.114 267.259 191.114 267.266C191.114 267.272 191.114 267.279 191.114 267.286C191.114 267.292 191.114 267.299 191.114 267.306C191.114 267.312 191.114 267.319 191.114 267.325C191.114 267.332 191.114 267.339 191.114 267.345C191.114 267.352 191.114 267.359 191.114 267.365C191.114 267.372 191.114 267.379 191.114 267.385C191.114 267.392 191.114 267.398 191.114 267.405C191.114 267.412 191.114 267.418 191.114 267.425C191.114 267.432 191.114 267.438 191.114 267.445C191.114 267.452 191.114 267.458 191.114 267.465C191.114 267.471 191.114 267.478 191.114 267.485C191.114 267.491 191.114 267.498 191.114 267.505C191.114 267.511 191.114 267.518 191.114 267.525C191.114 267.531 191.114 267.538 191.114 267.545C191.114 267.551 191.114 267.558 191.114 267.564C191.114 267.571 191.114 267.578 191.114 267.584C191.114 267.591 191.114 267.598 191.114 267.604C191.114 267.611 191.114 267.618 191.114 267.624C191.114 267.631 191.114 267.638 191.114 267.644C191.114 267.651 191.114 267.658 191.114 267.664C191.114 267.671 191.114 267.677 191.114 267.684C191.114 267.691 191.114 267.697 191.114 267.704C191.114 267.711 191.114 267.717 191.114 267.724C191.114 267.731 191.114 267.737 191.114 267.744C191.114 267.751 191.114 267.757 191.114 267.764C191.114 267.771 191.114 267.777 191.114 267.784C191.114 267.791 191.114 267.797 191.114 267.804C191.114 267.811 191.114 267.817 191.114 267.824C191.114 267.831 191.114 267.837 191.114 267.844C191.114 267.851 191.114 267.857 191.114 267.864C191.114 267.87 191.114 267.877 191.114 267.884C191.114 267.89 191.114 267.897 191.114 267.904C191.114 267.91 191.114 267.917 191.114 267.924C191.114 267.93 191.114 267.937 191.114 267.944C191.114 267.95 191.114 267.957 191.114 267.964C191.114 267.97 191.114 267.977 191.114 267.984C191.114 267.99 191.114 267.997 191.114 268.004C191.114 268.01 191.114 268.017 191.114 268.024C191.114 268.03 191.114 268.037 191.114 268.044C191.114 268.05 191.114 268.057 191.114 268.064C191.114 268.07 191.114 268.077 191.114 268.084C191.114 268.09 191.114 268.097 191.114 268.104C191.114 268.11 191.114 268.117 191.114 268.124C191.114 268.13 191.114 268.137 191.114 268.144C191.114 268.15 191.114 268.157 191.114 268.164C191.114 268.171 191.114 268.177 191.114 268.184C191.114 268.191 191.114 268.197 191.114 268.204C191.114 268.211 191.114 268.217 191.114 268.224C191.114 268.231 191.114 268.237 191.114 268.244C191.114 268.251 191.114 268.257 191.114 268.264C191.114 268.271 191.114 268.277 191.114 268.284C191.114 268.291 191.114 268.297 191.114 268.304C191.114 268.311 191.114 268.317 191.114 268.324C191.114 268.331 191.114 268.337 191.114 268.344C191.114 268.351 191.114 268.358 191.114 268.364C191.114 268.371 191.114 268.378 191.114 268.384C191.114 268.391 191.114 268.398 191.114 268.404C191.114 268.411 191.114 268.418 191.114 268.424C191.114 268.431 191.114 268.438 191.114 268.444C191.114 268.451 191.114 268.458 191.114 268.465C191.114 268.471 191.114 268.478 191.114 268.485C191.114 268.491 191.114 268.498 191.114 268.505C191.114 268.511 191.114 268.518 191.114 268.525C191.114 268.531 191.114 268.538 191.114 268.545C191.114 268.551 191.114 268.558 191.114 268.565C191.114 268.572 191.114 268.578 191.114 268.585C191.114 268.592 191.114 268.598 191.114 268.605C191.114 268.612 191.114 268.618 191.114 268.625C191.114 268.632 191.114 268.639 191.114 268.645C191.114 268.652 191.114 268.659 191.114 268.665C191.114 268.672 191.114 268.679 191.114 268.685C191.114 268.692 191.114 268.699 191.114 268.706C191.114 268.712 191.114 268.719 191.114 268.726C191.114 268.732 191.114 268.739 191.114 268.746C191.114 268.752 191.114 268.759 191.114 268.766C191.114 268.773 191.114 268.779 191.114 268.786C191.114 268.793 191.114 268.799 191.114 268.806C191.114 268.813 191.114 268.819 191.114 268.826C191.114 268.833 191.114 268.84 191.114 268.846C191.114 268.853 191.114 268.86 191.114 268.866C191.114 268.873 191.114 268.88 191.114 268.887C191.114 268.893 191.114 268.9 191.114 268.907C191.114 268.913 191.114 268.92 191.114 268.927C191.114 268.934 191.114 268.94 191.114 268.947C191.114 268.954 191.114 268.96 191.114 268.967C191.114 268.974 191.114 268.981 191.114 268.987C191.114 268.994 191.114 269.001 191.114 269.007C191.114 269.014 191.114 269.021 191.114 269.028C191.114 269.034 191.114 269.041 191.114 269.048C191.114 269.054 191.114 269.061 191.114 269.068C191.114 269.075 191.114 269.081 191.114 269.088C191.114 269.095 191.114 269.101 191.114 269.108C191.114 269.115 191.114 269.122 191.114 269.128C191.114 269.135 191.114 269.142 191.114 269.148C191.114 269.155 191.114 269.162 191.114 269.169C191.114 269.175 191.114 269.182 191.114 269.189C191.114 269.196 191.114 269.202 191.114 269.209C191.114 269.216 191.114 269.222 191.114 269.229C191.114 269.236 191.114 269.243 191.114 269.249C191.114 269.256 191.114 269.263 191.114 269.27C191.114 269.276 191.114 269.283 191.114 269.29C191.114 269.296 191.114 269.303 191.114 269.31C191.114 269.317 191.114 269.323 191.114 269.33C191.114 269.337 191.114 269.344 191.114 269.35C191.114 269.357 191.114 269.364 191.114 269.37C191.114 269.377 191.114 269.384 191.114 269.391C191.114 269.397 191.114 269.404 191.114 269.411C191.114 269.418 191.114 269.424 191.114 269.431C191.114 269.438 191.114 269.445 191.114 269.451C191.114 269.458 191.114 269.465 191.114 269.472C191.114 269.478 191.114 269.485 191.114 269.492C191.114 269.498 191.114 269.505 191.114 269.512C191.114 269.519 191.114 269.525 191.114 269.532C191.114 269.539 191.114 269.546 191.114 269.552C191.114 269.559 191.114 269.566 191.114 269.573C191.114 269.579 191.114 269.586 191.114 269.593C191.114 269.6 191.114 269.606 191.114 269.613C191.114 269.62 191.114 269.627 191.114 269.633C191.114 269.64 191.114 269.647 191.114 269.654C191.114 269.66 191.114 269.667 191.114 269.674C191.114 269.681 191.114 269.687 191.114 269.694C191.114 269.701 191.114 269.708 191.114 269.714C191.114 269.721 191.114 269.728 191.114 269.735C191.114 269.741 191.114 269.748 191.114 269.755C191.114 269.762 191.114 269.768 191.114 269.775C191.114 269.782 191.114 269.789 191.114 269.795C191.114 269.802 191.114 269.809 191.114 269.816C191.114 269.822 191.114 269.829 191.114 269.836C191.114 269.843 191.114 269.849 191.114 269.856C191.114 269.863 191.114 269.87 191.114 269.876C191.114 269.883 191.114 269.89 191.114 269.897C191.114 269.903 191.114 269.91 191.114 269.917C191.114 269.924 191.114 269.93 191.114 269.937C191.114 269.944 191.114 269.951 191.114 269.957C191.114 269.964 191.114 269.971 191.114 269.978C191.114 269.985 191.114 269.991 191.114 269.998C191.114 270.005 191.114 270.012 191.114 270.018C191.114 270.025 191.114 270.032 191.114 270.039C191.114 270.045 191.114 270.052 191.114 270.059C191.114 270.066 191.114 270.072 191.114 270.079C191.114 270.086 191.114 270.093 191.114 270.1C191.114 270.106 191.114 270.113 191.114 270.12C191.114 270.127 191.114 270.133 191.114 270.14C191.114 270.147 191.114 270.154 191.114 270.16C191.114 270.167 191.114 270.174 191.114 270.181C191.114 270.188 191.114 270.194 191.114 270.201C191.114 270.208 191.114 270.215 191.114 270.221C191.114 270.228 191.114 270.235 191.114 270.242C191.114 270.248 191.114 270.255 191.114 270.262C191.114 270.269 191.114 270.276 191.114 270.282C191.114 270.289 191.114 270.296 191.114 270.303C191.114 270.309 191.114 270.316 191.114 270.323C191.114 270.33 191.114 270.337 191.114 270.343C191.114 270.35 191.114 270.357 191.114 270.364C191.114 270.37 191.114 270.377 191.114 270.384C191.114 270.391 191.114 270.398 191.114 270.404C191.114 270.411 191.114 270.418 191.114 270.425C191.114 270.432 191.114 270.438 191.114 270.445C191.114 270.452 191.114 270.459 191.114 270.465C191.114 270.472 191.114 270.479 191.114 270.486C191.114 270.493 191.114 270.499 191.114 270.506C191.114 270.513 191.114 270.52 191.114 270.527C191.114 270.533 191.114 270.54 191.114 270.547C191.114 270.554 191.114 270.56 191.114 270.567C191.114 270.574 191.114 270.581 191.114 270.588C191.114 270.594 191.114 270.601 191.114 270.608C191.114 270.615 191.114 270.622 191.114 270.628C191.114 270.635 191.114 270.642 191.114 270.649C191.114 270.656 191.114 270.662 191.114 270.669C191.114 270.676 191.114 270.683 191.114 270.69C191.114 270.696 191.114 270.703 191.114 270.71C191.114 270.717 191.114 270.724 191.114 270.73C191.114 270.737 191.114 270.744 191.114 270.751C191.114 270.758 191.114 270.764 191.114 270.771C191.114 270.778 191.114 270.785 191.114 270.792C191.114 270.798 191.114 270.805 191.114 270.812C191.114 270.819 191.114 270.826 191.114 270.832C191.114 270.839 191.114 270.846 191.114 270.853C191.114 270.86 191.114 270.866 191.114 270.873C191.114 270.88 191.114 270.887 191.114 270.894C191.114 270.9 191.114 270.907 191.114 270.914C191.114 270.921 191.114 270.928 191.114 270.934C191.114 270.941 191.114 270.948 191.114 270.955C191.114 270.962 191.114 270.968 191.114 270.975C191.114 270.982 191.114 270.989 191.114 270.996C191.114 271.003 191.114 271.009 191.114 271.016C191.114 271.023 191.114 271.03 191.114 271.037C191.114 271.043 191.114 271.05 191.114 271.057C191.114 271.064 191.114 271.071 191.114 271.077C191.114 271.084 191.114 271.091 191.114 271.098C191.114 271.105 191.114 271.112 191.114 271.118C191.114 271.125 191.114 271.132 191.114 271.139C191.114 271.146 191.114 271.152 191.114 271.159C191.114 271.166 191.114 271.173 191.114 271.18C191.114 271.187 191.114 271.193 191.114 271.2C191.114 271.207 191.114 271.214 191.114 271.221C191.114 271.227 191.114 271.234 191.114 271.241C191.114 271.248 191.114 271.255 191.114 271.262C191.114 271.268 191.114 271.275 191.114 271.282C191.114 271.289 191.114 271.296 191.114 271.303C191.114 271.309 191.114 271.316 191.114 271.323C191.114 271.33 191.114 271.337 191.114 271.344C191.114 271.35 191.114 271.357 191.114 271.364C191.114 271.371 191.114 271.378 191.114 271.384C191.114 271.391 191.114 271.398 191.114 271.405C191.114 271.412 191.114 271.419 191.114 271.425C191.114 271.432 191.114 271.439 191.114 271.446C191.114 271.453 191.114 271.46 191.114 271.466C191.114 271.473 191.114 271.48 191.114 271.487C191.114 271.494 191.114 271.501 191.114 271.507C191.114 271.514 191.114 271.521 191.114 271.528C191.114 271.535 191.114 271.542 191.114 271.548C191.114 271.555 191.114 271.562 191.114 271.569C191.114 271.576 191.114 271.583 191.114 271.59C191.114 271.596 191.114 271.603 191.114 271.61C191.114 271.617 191.114 271.624 191.114 271.631C191.114 271.637 191.114 271.644 191.114 271.651C191.114 271.658 191.114 271.665 191.114 271.672C191.114 271.678 191.114 271.685 191.114 271.692C191.114 271.699 191.114 271.706 191.114 271.713C191.114 271.72 191.114 271.726 191.114 271.733C191.114 271.74 191.114 271.747 191.114 271.754C191.114 271.761 191.114 271.767 191.114 271.774C191.114 271.781 191.114 271.788 191.114 271.795C191.114 271.802 191.114 271.809 191.114 271.815C191.114 271.822 191.114 271.829 191.114 271.836C191.114 271.843 191.114 271.85 191.114 271.857C191.114 271.863 191.114 271.87 191.114 271.877C191.114 271.884 191.114 271.891 191.114 271.898C191.114 271.904 191.114 271.911 191.114 271.918C191.114 271.925 191.114 271.932 191.114 271.939C191.114 271.946 191.114 271.952 191.114 271.959C191.114 271.966 191.114 271.973 191.114 271.98C191.114 271.987 191.114 271.994 191.114 272C191.114 272.007 191.114 272.014 191.114 272.021C191.114 272.028 191.114 272.035 191.114 272.042C191.114 272.048 191.114 272.055 191.114 272.062C191.114 272.069 191.114 272.076 191.114 272.083C191.114 272.09 191.114 272.097 191.114 272.103C191.114 272.11 191.114 272.117 191.114 272.124C191.114 272.131 191.114 272.138 191.114 272.145C191.114 272.151 191.114 272.158 191.114 272.165C191.114 272.172 191.114 272.179 191.114 272.186C191.114 272.193 191.114 272.2 191.114 272.206C191.114 272.213 191.114 272.22 191.114 272.227C191.114 272.234 191.114 272.241 191.114 272.248C191.114 272.254 191.114 272.261 191.114 272.268C191.114 272.275 191.114 272.282 191.114 272.289C191.114 272.296 191.114 272.303 191.114 272.309C191.114 272.316 191.114 272.323 191.114 272.33C191.114 272.337 191.114 272.344 191.114 272.351C191.114 272.358 191.114 272.364 191.114 272.371C191.114 272.378 191.114 272.385 191.114 272.392C191.114 272.399 191.114 272.406 191.114 272.413C191.114 272.419 191.114 272.426 191.114 272.433C191.114 272.44 191.114 272.447 191.114 272.454C191.114 272.461 191.114 272.468 191.114 272.475C191.114 272.481 191.114 272.488 191.114 272.495C191.114 272.502 191.114 272.509 191.114 272.516C191.114 272.523 191.114 272.53 191.114 272.536C191.114 272.543 191.114 272.55 191.114 272.557C191.114 272.564 191.114 272.571 191.114 272.578C191.114 272.585 191.114 272.592 191.114 272.598C191.114 272.605 191.114 272.612 191.114 272.619C191.114 272.626 191.114 272.633 191.114 272.64C191.114 272.647 191.114 272.654 191.114 272.66C191.114 272.667 191.114 272.674 191.114 272.681C191.114 272.688 191.114 272.695 191.114 272.702C191.114 272.709 191.114 272.716 191.114 272.722C191.114 272.729 191.114 272.736 191.114 272.743C191.114 272.75 191.114 272.757 191.114 272.764C191.114 272.771 191.114 272.778 191.114 272.784C191.114 272.791 191.114 272.798 191.114 272.805C191.114 272.812 191.114 272.819 191.114 272.826C191.114 272.833 191.114 272.84 191.114 272.847C191.114 272.853 191.114 272.86 191.114 272.867C191.114 272.874 191.114 272.881 191.114 272.888C191.114 272.895 191.114 272.902 191.114 272.909C191.114 272.916 191.114 272.922 191.114 272.929C191.114 272.936 191.114 272.943 191.114 272.95C191.114 272.957 191.114 272.964 191.114 272.971C191.114 272.978 191.114 272.985 191.114 272.992C191.114 272.998 191.114 273.005 191.114 273.012C191.114 273.019 191.114 273.026 191.114 273.033C191.114 273.04 191.114 273.047 191.114 273.054C191.114 273.061 191.114 273.068 191.114 273.074C191.114 273.081 191.114 273.088 191.114 273.095C191.114 273.102 191.114 273.109 191.114 273.116C191.114 273.123 191.114 273.13 191.114 273.137C191.114 273.144 191.114 273.15 191.114 273.157C191.114 273.164 191.114 273.171 191.114 273.178C191.114 273.185 191.114 273.192 191.114 273.199C191.114 273.206 191.114 273.213 191.114 273.22C191.114 273.227 191.114 273.233 191.114 273.24C191.114 273.247 191.114 273.254 191.114 273.261C191.114 273.268 191.114 273.275 191.114 273.282C191.114 273.289 191.114 273.296 191.114 273.303C191.114 273.31 191.114 273.316 191.114 273.323C191.114 273.33 191.114 273.337 191.114 273.344C191.114 273.351 191.114 273.358 191.114 273.365C191.114 273.372 191.114 273.379 191.114 273.386C191.114 273.393 191.114 273.4 191.114 273.406C191.114 273.413 191.114 273.42 191.114 273.427C191.114 273.434 191.114 273.441 191.114 273.448C191.114 273.455 191.114 273.462 191.114 273.469C191.114 273.476 191.114 273.483 191.114 273.49C191.114 273.497 191.114 273.503 191.114 273.51C191.114 273.517 191.114 273.524 191.114 273.531C191.114 273.538 191.114 273.545 191.114 273.552C191.114 273.559 191.114 273.566 191.114 273.573C191.114 273.58 191.114 273.587 191.114 273.594C191.114 273.6 191.114 273.607 191.114 273.614C191.114 273.621 191.114 273.628 191.114 273.635C191.114 273.642 191.114 273.649 191.114 273.656C191.114 273.663 191.114 273.67 191.114 273.677C191.114 273.684 191.114 273.691 191.114 273.698C191.114 273.705 191.114 273.711 191.114 273.718C191.114 273.725 191.114 273.732 191.114 273.739C191.114 273.746 191.114 273.753 191.114 273.76C191.114 273.767 191.114 273.774 191.114 273.781C191.114 273.788 191.114 273.795 191.114 273.802C191.114 273.809 191.114 273.816 191.114 273.823C191.114 273.83 191.114 273.836 191.114 273.843C191.114 273.85 191.114 273.857 191.114 273.864C191.114 273.871 191.114 273.878 191.114 273.885C191.114 273.892 191.114 273.899 191.114 273.906C191.114 273.913 191.114 273.92 191.114 273.927C191.114 273.934 191.114 273.941 191.114 273.948C191.114 273.955 191.114 273.962 191.114 273.968C191.114 273.975 191.114 273.982 191.114 273.989C191.114 273.996 191.114 274.003 191.114 274.01C191.114 274.017 191.114 274.024 191.114 274.031C191.114 274.038 191.114 274.045 191.114 274.052C191.114 274.059 191.114 274.066 191.114 274.073C191.114 274.08 191.114 274.087 191.114 274.094C191.114 274.101 191.114 274.108 191.114 274.115C191.114 274.121 191.114 274.128 191.114 274.135C191.114 274.142 191.114 274.149 191.114 274.156C191.114 274.163 191.114 274.17 191.114 274.177C191.114 274.184 191.114 274.191 191.114 274.198C191.114 274.205 191.114 274.212 191.114 274.219C191.114 274.226 191.114 274.233 191.114 274.24C191.114 274.247 191.114 274.254 191.114 274.261C191.114 274.268 191.114 274.275 191.114 274.282C191.114 274.289 191.114 274.296 191.114 274.303C191.114 274.31 191.114 274.316 191.114 274.323C191.114 274.33 191.114 274.337 191.114 274.344C191.114 274.351 191.114 274.358 191.114 274.365C191.114 274.372 191.114 274.379 191.114 274.386C191.114 274.393 191.114 274.4 191.114 274.407C191.114 274.414 191.114 274.421 191.114 274.428C191.114 274.435 191.114 274.442 191.114 274.449C191.114 274.456 191.114 274.463 191.114 274.47C191.114 274.477 191.114 274.484 191.114 274.491C191.114 274.498 191.114 274.505 191.114 274.512C191.114 274.519 191.114 274.526 191.114 274.533C191.114 274.54 191.114 274.547 191.114 274.554C191.114 274.561 191.114 274.568 191.114 274.575C191.114 274.581 191.114 274.588 191.114 274.595C191.114 274.602 191.114 274.609 191.114 274.616C191.114 274.623 191.114 274.63 191.114 274.637C191.114 274.644 191.114 274.651 191.114 274.658C191.114 274.665 191.114 274.672 191.114 274.679C191.114 274.686 191.114 274.693 191.114 274.7C191.114 274.707 191.114 274.714 191.114 274.721C191.114 274.728 191.114 274.735 191.114 274.742C191.114 274.749 191.114 274.756 191.114 274.763C191.114 274.77 191.114 274.777 191.114 274.784C191.114 274.791 191.114 274.798 191.114 274.805C191.114 274.812 191.114 274.819 191.114 274.826C191.114 274.833 191.114 274.84 191.114 274.847C191.114 274.854 191.114 274.861 191.114 274.868C191.114 274.875 191.114 274.882 191.114 274.889C191.114 274.896 191.114 274.903 191.114 274.91C191.114 274.917 191.114 274.924 191.114 274.931C191.114 274.938 191.114 274.945 191.114 274.952C191.114 274.959 191.114 274.966 191.114 274.973C191.114 274.98 191.114 274.987 191.114 274.994C191.114 275.001 191.114 275.008 191.114 275.015C191.114 275.022 191.114 275.029 191.114 275.036C191.114 275.043 191.114 275.05 191.114 275.057C191.114 275.064 191.114 275.071 191.114 275.078C191.114 275.085 191.114 275.092 191.114 275.099C191.114 275.106 191.114 275.113 191.114 275.12H194.747H198.379C198.379 275.113 198.379 275.106 198.379 275.099C198.379 275.092 198.379 275.085 198.379 275.078C198.379 275.071 198.379 275.064 198.379 275.057C198.379 275.05 198.379 275.043 198.379 275.036C198.379 275.029 198.379 275.022 198.379 275.015C198.379 275.008 198.379 275.001 198.379 274.994C198.379 274.987 198.379 274.98 198.379 274.973C198.379 274.966 198.379 274.959 198.379 274.952C198.379 274.945 198.379 274.938 198.379 274.931C198.379 274.924 198.379 274.917 198.379 274.91C198.379 274.903 198.379 274.896 198.379 274.889C198.379 274.882 198.379 274.875 198.379 274.868C198.379 274.861 198.379 274.854 198.379 274.847C198.379 274.84 198.379 274.833 198.379 274.826C198.379 274.819 198.379 274.812 198.379 274.805C198.379 274.798 198.379 274.791 198.379 274.784C198.379 274.777 198.379 274.77 198.379 274.763C198.379 274.756 198.379 274.749 198.379 274.742C198.379 274.735 198.379 274.728 198.379 274.721C198.379 274.714 198.379 274.707 198.379 274.7C198.379 274.693 198.379 274.686 198.379 274.679C198.379 274.672 198.379 274.665 198.379 274.658C198.379 274.651 198.379 274.644 198.379 274.637C198.379 274.63 198.379 274.623 198.379 274.616C198.379 274.609 198.379 274.602 198.379 274.595C198.379 274.588 198.379 274.581 198.379 274.575C198.379 274.568 198.379 274.561 198.379 274.554C198.379 274.547 198.379 274.54 198.379 274.533C198.379 274.526 198.379 274.519 198.379 274.512C198.379 274.505 198.379 274.498 198.379 274.491C198.379 274.484 198.379 274.477 198.379 274.47C198.379 274.463 198.379 274.456 198.379 274.449C198.379 274.442 198.379 274.435 198.379 274.428C198.379 274.421 198.379 274.414 198.379 274.407C198.379 274.4 198.379 274.393 198.379 274.386C198.379 274.379 198.379 274.372 198.379 274.365C198.379 274.358 198.379 274.351 198.379 274.344C198.379 274.337 198.379 274.33 198.379 274.323C198.379 274.316 198.379 274.31 198.379 274.303C198.379 274.296 198.379 274.289 198.379 274.282C198.379 274.275 198.379 274.268 198.379 274.261C198.379 274.254 198.379 274.247 198.379 274.24C198.379 274.233 198.379 274.226 198.379 274.219C198.379 274.212 198.379 274.205 198.379 274.198C198.379 274.191 198.379 274.184 198.379 274.177C198.379 274.17 198.379 274.163 198.379 274.156C198.379 274.149 198.379 274.142 198.379 274.135C198.379 274.128 198.379 274.121 198.379 274.115C198.379 274.108 198.379 274.101 198.379 274.094C198.379 274.087 198.379 274.08 198.379 274.073C198.379 274.066 198.379 274.059 198.379 274.052C198.379 274.045 198.379 274.038 198.379 274.031C198.379 274.024 198.379 274.017 198.379 274.01C198.379 274.003 198.379 273.996 198.379 273.989C198.379 273.982 198.379 273.975 198.379 273.968C198.379 273.962 198.379 273.955 198.379 273.948C198.379 273.941 198.379 273.934 198.379 273.927C198.379 273.92 198.379 273.913 198.379 273.906C198.379 273.899 198.379 273.892 198.379 273.885C198.379 273.878 198.379 273.871 198.379 273.864C198.379 273.857 198.379 273.85 198.379 273.843C198.379 273.836 198.379 273.83 198.379 273.823C198.379 273.816 198.379 273.809 198.379 273.802C198.379 273.795 198.379 273.788 198.379 273.781C198.379 273.774 198.379 273.767 198.379 273.76C198.379 273.753 198.379 273.746 198.379 273.739C198.379 273.732 198.379 273.725 198.379 273.718C198.379 273.711 198.379 273.705 198.379 273.698C198.379 273.691 198.379 273.684 198.379 273.677C198.379 273.67 198.379 273.663 198.379 273.656C198.379 273.649 198.379 273.642 198.379 273.635C198.379 273.628 198.379 273.621 198.379 273.614C198.379 273.607 198.379 273.6 198.379 273.594C198.379 273.587 198.379 273.58 198.379 273.573C198.379 273.566 198.379 273.559 198.379 273.552C198.379 273.545 198.379 273.538 198.379 273.531C198.379 273.524 198.379 273.517 198.379 273.51C198.379 273.503 198.379 273.497 198.379 273.49C198.379 273.483 198.379 273.476 198.379 273.469C198.379 273.462 198.379 273.455 198.379 273.448C198.379 273.441 198.379 273.434 198.379 273.427C198.379 273.42 198.379 273.413 198.379 273.406C198.379 273.4 198.379 273.393 198.379 273.386C198.379 273.379 198.379 273.372 198.379 273.365C198.379 273.358 198.379 273.351 198.379 273.344C198.379 273.337 198.379 273.33 198.379 273.323C198.379 273.316 198.379 273.31 198.379 273.303C198.379 273.296 198.379 273.289 198.379 273.282C198.379 273.275 198.379 273.268 198.379 273.261C198.379 273.254 198.379 273.247 198.379 273.24C198.379 273.233 198.379 273.227 198.379 273.22C198.379 273.213 198.379 273.206 198.379 273.199C198.379 273.192 198.379 273.185 198.379 273.178C198.379 273.171 198.379 273.164 198.379 273.157C198.379 273.15 198.379 273.144 198.379 273.137C198.379 273.13 198.379 273.123 198.379 273.116C198.379 273.109 198.379 273.102 198.379 273.095C198.379 273.088 198.379 273.081 198.379 273.074C198.379 273.068 198.379 273.061 198.379 273.054C198.379 273.047 198.379 273.04 198.379 273.033C198.379 273.026 198.379 273.019 198.379 273.012C198.379 273.005 198.379 272.998 198.379 272.992C198.379 272.985 198.379 272.978 198.379 272.971C198.379 272.964 198.379 272.957 198.379 272.95C198.379 272.943 198.379 272.936 198.379 272.929C198.379 272.922 198.379 272.916 198.379 272.909C198.379 272.902 198.379 272.895 198.379 272.888C198.379 272.881 198.379 272.874 198.379 272.867C198.379 272.86 198.379 272.853 198.379 272.847C198.379 272.84 198.379 272.833 198.379 272.826C198.379 272.819 198.379 272.812 198.379 272.805C198.379 272.798 198.379 272.791 198.379 272.784C198.379 272.778 198.379 272.771 198.379 272.764C198.379 272.757 198.379 272.75 198.379 272.743C198.379 272.736 198.379 272.729 198.379 272.722C198.379 272.716 198.379 272.709 198.379 272.702C198.379 272.695 198.379 272.688 198.379 272.681C198.379 272.674 198.379 272.667 198.379 272.66C198.379 272.654 198.379 272.647 198.379 272.64C198.379 272.633 198.379 272.626 198.379 272.619C198.379 272.612 198.379 272.605 198.379 272.598C198.379 272.592 198.379 272.585 198.379 272.578C198.379 272.571 198.379 272.564 198.379 272.557C198.379 272.55 198.379 272.543 198.379 272.536C198.379 272.53 198.379 272.523 198.379 272.516C198.379 272.509 198.379 272.502 198.379 272.495C198.379 272.488 198.379 272.481 198.379 272.475C198.379 272.468 198.379 272.461 198.379 272.454C198.379 272.447 198.379 272.44 198.379 272.433C198.379 272.426 198.379 272.419 198.379 272.413C198.379 272.406 198.379 272.399 198.379 272.392C198.379 272.385 198.379 272.378 198.379 272.371C198.379 272.364 198.379 272.358 198.379 272.351C198.379 272.344 198.379 272.337 198.379 272.33C198.379 272.323 198.379 272.316 198.379 272.309C198.379 272.303 198.379 272.296 198.379 272.289C198.379 272.282 198.379 272.275 198.379 272.268C198.379 272.261 198.379 272.254 198.379 272.248C198.379 272.241 198.379 272.234 198.379 272.227C198.379 272.22 198.379 272.213 198.379 272.206C198.379 272.2 198.379 272.193 198.379 272.186C198.379 272.179 198.379 272.172 198.379 272.165C198.379 272.158 198.379 272.151 198.379 272.145C198.379 272.138 198.379 272.131 198.379 272.124C198.379 272.117 198.379 272.11 198.379 272.103C198.379 272.097 198.379 272.09 198.379 272.083C198.379 272.076 198.379 272.069 198.379 272.062C198.379 272.055 198.379 272.048 198.379 272.042C198.379 272.035 198.379 272.028 198.379 272.021C198.379 272.014 198.379 272.007 198.379 272C198.379 271.994 198.379 271.987 198.379 271.98C198.379 271.973 198.379 271.966 198.379 271.959C198.379 271.952 198.379 271.946 198.379 271.939C198.379 271.932 198.379 271.925 198.379 271.918C198.379 271.911 198.379 271.904 198.379 271.898C198.379 271.891 198.379 271.884 198.379 271.877C198.379 271.87 198.379 271.863 198.379 271.857C198.379 271.85 198.379 271.843 198.379 271.836C198.379 271.829 198.379 271.822 198.379 271.815C198.379 271.809 198.379 271.802 198.379 271.795C198.379 271.788 198.379 271.781 198.379 271.774C198.379 271.767 198.379 271.761 198.379 271.754C198.379 271.747 198.379 271.74 198.379 271.733C198.379 271.726 198.379 271.72 198.379 271.713C198.379 271.706 198.379 271.699 198.379 271.692C198.379 271.685 198.379 271.678 198.379 271.672C198.379 271.665 198.379 271.658 198.379 271.651C198.379 271.644 198.379 271.637 198.379 271.631C198.379 271.624 198.379 271.617 198.379 271.61C198.379 271.603 198.379 271.596 198.379 271.59C198.379 271.583 198.379 271.576 198.379 271.569C198.379 271.562 198.379 271.555 198.379 271.548C198.379 271.542 198.379 271.535 198.379 271.528C198.379 271.521 198.379 271.514 198.379 271.507C198.379 271.501 198.379 271.494 198.379 271.487C198.379 271.48 198.379 271.473 198.379 271.466C198.379 271.46 198.379 271.453 198.379 271.446C198.379 271.439 198.379 271.432 198.379 271.425C198.379 271.419 198.379 271.412 198.379 271.405C198.379 271.398 198.379 271.391 198.379 271.384C198.379 271.378 198.379 271.371 198.379 271.364C198.379 271.357 198.379 271.35 198.379 271.344C198.379 271.337 198.379 271.33 198.379 271.323C198.379 271.316 198.379 271.309 198.379 271.303C198.379 271.296 198.379 271.289 198.379 271.282C198.379 271.275 198.379 271.268 198.379 271.262C198.379 271.255 198.379 271.248 198.379 271.241C198.379 271.234 198.379 271.227 198.379 271.221C198.379 271.214 198.379 271.207 198.379 271.2C198.379 271.193 198.379 271.187 198.379 271.18C198.379 271.173 198.379 271.166 198.379 271.159C198.379 271.152 198.379 271.146 198.379 271.139C198.379 271.132 198.379 271.125 198.379 271.118C198.379 271.112 198.379 271.105 198.379 271.098C198.379 271.091 198.379 271.084 198.379 271.077C198.379 271.071 198.379 271.064 198.379 271.057C198.379 271.05 198.379 271.043 198.379 271.037C198.379 271.03 198.379 271.023 198.379 271.016C198.379 271.009 198.379 271.003 198.379 270.996C198.379 270.989 198.379 270.982 198.379 270.975C198.379 270.968 198.379 270.962 198.379 270.955C198.379 270.948 198.379 270.941 198.379 270.934C198.379 270.928 198.379 270.921 198.379 270.914C198.379 270.907 198.379 270.9 198.379 270.894C198.379 270.887 198.379 270.88 198.379 270.873C198.379 270.866 198.379 270.86 198.379 270.853C198.379 270.846 198.379 270.839 198.379 270.832C198.379 270.826 198.379 270.819 198.379 270.812C198.379 270.805 198.379 270.798 198.379 270.792C198.379 270.785 198.379 270.778 198.379 270.771C198.379 270.764 198.379 270.758 198.379 270.751C198.379 270.744 198.379 270.737 198.379 270.73C198.379 270.724 198.379 270.717 198.379 270.71C198.379 270.703 198.379 270.696 198.379 270.69C198.379 270.683 198.379 270.676 198.379 270.669C198.379 270.662 198.379 270.656 198.379 270.649C198.379 270.642 198.379 270.635 198.379 270.628C198.379 270.622 198.379 270.615 198.379 270.608C198.379 270.601 198.379 270.594 198.379 270.588C198.379 270.581 198.379 270.574 198.379 270.567C198.379 270.56 198.379 270.554 198.379 270.547C198.379 270.54 198.379 270.533 198.379 270.527C198.379 270.52 198.379 270.513 198.379 270.506C198.379 270.499 198.379 270.493 198.379 270.486C198.379 270.479 198.379 270.472 198.379 270.465C198.379 270.459 198.379 270.452 198.379 270.445C198.379 270.438 198.379 270.432 198.379 270.425C198.379 270.418 198.379 270.411 198.379 270.404C198.379 270.398 198.379 270.391 198.379 270.384C198.379 270.377 198.379 270.37 198.379 270.364C198.379 270.357 198.379 270.35 198.379 270.343C198.379 270.337 198.379 270.33 198.379 270.323C198.379 270.316 198.379 270.309 198.379 270.303C198.379 270.296 198.379 270.289 198.379 270.282C198.379 270.276 198.379 270.269 198.379 270.262C198.379 270.255 198.379 270.248 198.379 270.242C198.379 270.235 198.379 270.228 198.379 270.221C198.379 270.215 198.379 270.208 198.379 270.201C198.379 270.194 198.379 270.188 198.379 270.181C198.379 270.174 198.379 270.167 198.379 270.16C198.379 270.154 198.379 270.147 198.379 270.14C198.379 270.133 198.379 270.127 198.379 270.12C198.379 270.113 198.379 270.106 198.379 270.1C198.379 270.093 198.379 270.086 198.379 270.079C198.379 270.072 198.379 270.066 198.379 270.059C198.379 270.052 198.379 270.045 198.379 270.039C198.379 270.032 198.379 270.025 198.379 270.018C198.379 270.012 198.379 270.005 198.379 269.998C198.379 269.991 198.379 269.985 198.379 269.978C198.379 269.971 198.379 269.964 198.379 269.957C198.379 269.951 198.379 269.944 198.379 269.937C198.379 269.93 198.379 269.924 198.379 269.917C198.379 269.91 198.379 269.903 198.379 269.897C198.379 269.89 198.379 269.883 198.379 269.876C198.379 269.87 198.379 269.863 198.379 269.856C198.379 269.849 198.379 269.843 198.379 269.836C198.379 269.829 198.379 269.822 198.379 269.816C198.379 269.809 198.379 269.802 198.379 269.795C198.379 269.789 198.379 269.782 198.379 269.775C198.379 269.768 198.379 269.762 198.379 269.755C198.379 269.748 198.379 269.741 198.379 269.735C198.379 269.728 198.379 269.721 198.379 269.714C198.379 269.708 198.379 269.701 198.379 269.694C198.379 269.687 198.379 269.681 198.379 269.674C198.379 269.667 198.379 269.66 198.379 269.654C198.379 269.647 198.379 269.64 198.379 269.633C198.379 269.627 198.379 269.62 198.379 269.613C198.379 269.606 198.379 269.6 198.379 269.593C198.379 269.586 198.379 269.579 198.379 269.573C198.379 269.566 198.379 269.559 198.379 269.552C198.379 269.546 198.379 269.539 198.379 269.532C198.379 269.525 198.379 269.519 198.379 269.512C198.379 269.505 198.379 269.498 198.379 269.492C198.379 269.485 198.379 269.478 198.379 269.472C198.379 269.465 198.379 269.458 198.379 269.451C198.379 269.445 198.379 269.438 198.379 269.431C198.379 269.424 198.379 269.418 198.379 269.411C198.379 269.404 198.379 269.397 198.379 269.391C198.379 269.384 198.379 269.377 198.379 269.37C198.379 269.364 198.379 269.357 198.379 269.35C198.379 269.344 198.379 269.337 198.379 269.33C198.379 269.323 198.379 269.317 198.379 269.31C198.379 269.303 198.379 269.296 198.379 269.29C198.379 269.283 198.379 269.276 198.379 269.27C198.379 269.263 198.379 269.256 198.379 269.249C198.379 269.243 198.379 269.236 198.379 269.229C198.379 269.222 198.379 269.216 198.379 269.209C198.379 269.202 198.379 269.196 198.379 269.189C198.379 269.182 198.379 269.175 198.379 269.169C198.379 269.162 198.379 269.155 198.379 269.148C198.379 269.142 198.379 269.135 198.379 269.128C198.379 269.122 198.379 269.115 198.379 269.108C198.379 269.101 198.379 269.095 198.379 269.088C198.379 269.081 198.379 269.075 198.379 269.068C198.379 269.061 198.379 269.054 198.379 269.048C198.379 269.041 198.379 269.034 198.379 269.028C198.379 269.021 198.379 269.014 198.379 269.007C198.379 269.001 198.379 268.994 198.379 268.987C198.379 268.981 198.379 268.974 198.379 268.967C198.379 268.96 198.379 268.954 198.379 268.947C198.379 268.94 198.379 268.934 198.379 268.927C198.379 268.92 198.379 268.913 198.379 268.907C198.379 268.9 198.379 268.893 198.379 268.887C198.379 268.88 198.379 268.873 198.379 268.866C198.379 268.86 198.379 268.853 198.379 268.846C198.379 268.84 198.379 268.833 198.379 268.826C198.379 268.819 198.379 268.813 198.379 268.806C198.379 268.799 198.379 268.793 198.379 268.786C198.379 268.779 198.379 268.773 198.379 268.766C198.379 268.759 198.379 268.752 198.379 268.746C198.379 268.739 198.379 268.732 198.379 268.726C198.379 268.719 198.379 268.712 198.379 268.706C198.379 268.699 198.379 268.692 198.379 268.685C198.379 268.679 198.379 268.672 198.379 268.665C198.379 268.659 198.379 268.652 198.379 268.645C198.379 268.639 198.379 268.632 198.379 268.625C198.379 268.618 198.379 268.612 198.379 268.605C198.379 268.598 198.379 268.592 198.379 268.585C198.379 268.578 198.379 268.572 198.379 268.565C198.379 268.558 198.379 268.551 198.379 268.545C198.379 268.538 198.379 268.531 198.379 268.525C198.379 268.518 198.379 268.511 198.379 268.505C198.379 268.498 198.379 268.491 198.379 268.485C198.379 268.478 198.379 268.471 198.379 268.465C198.379 268.458 198.379 268.451 198.379 268.444C198.379 268.438 198.379 268.431 198.379 268.424C198.379 268.418 198.379 268.411 198.379 268.404C198.379 268.398 198.379 268.391 198.379 268.384C198.379 268.378 198.379 268.371 198.379 268.364C198.379 268.358 198.379 268.351 198.379 268.344C198.379 268.337 198.379 268.331 198.379 268.324C198.379 268.317 198.379 268.311 198.379 268.304C198.379 268.297 198.379 268.291 198.379 268.284C198.379 268.277 198.379 268.271 198.379 268.264C198.379 268.257 198.379 268.251 198.379 268.244C198.379 268.237 198.379 268.231 198.379 268.224C198.379 268.217 198.379 268.211 198.379 268.204C198.379 268.197 198.379 268.191 198.379 268.184C198.379 268.177 198.379 268.171 198.379 268.164C198.379 268.157 198.379 268.15 198.379 268.144C198.379 268.137 198.379 268.13 198.379 268.124C198.379 268.117 198.379 268.11 198.379 268.104C198.379 268.097 198.379 268.09 198.379 268.084C198.379 268.077 198.379 268.07 198.379 268.064C198.379 268.057 198.379 268.05 198.379 268.044C198.379 268.037 198.379 268.03 198.379 268.024C198.379 268.017 198.379 268.01 198.379 268.004C198.379 267.997 198.379 267.99 198.379 267.984C198.379 267.977 198.379 267.97 198.379 267.964C198.379 267.957 198.379 267.95 198.379 267.944C198.379 267.937 198.379 267.93 198.379 267.924C198.379 267.917 198.379 267.91 198.379 267.904C198.379 267.897 198.379 267.89 198.379 267.884C198.379 267.877 198.379 267.87 198.379 267.864C198.379 267.857 198.379 267.851 198.379 267.844C198.379 267.837 198.379 267.831 198.379 267.824C198.379 267.817 198.379 267.811 198.379 267.804C198.379 267.797 198.379 267.791 198.379 267.784C198.379 267.777 198.379 267.771 198.379 267.764C198.379 267.757 198.379 267.751 198.379 267.744C198.379 267.737 198.379 267.731 198.379 267.724C198.379 267.717 198.379 267.711 198.379 267.704C198.379 267.697 198.379 267.691 198.379 267.684C198.379 267.677 198.379 267.671 198.379 267.664C198.379 267.658 198.379 267.651 198.379 267.644C198.379 267.638 198.379 267.631 198.379 267.624C198.379 267.618 198.379 267.611 198.379 267.604C198.379 267.598 198.379 267.591 198.379 267.584C198.379 267.578 198.379 267.571 198.379 267.564C198.379 267.558 198.379 267.551 198.379 267.545C198.379 267.538 198.379 267.531 198.379 267.525C198.379 267.518 198.379 267.511 198.379 267.505C198.379 267.498 198.379 267.491 198.379 267.485C198.379 267.478 198.379 267.471 198.379 267.465C198.379 267.458 198.379 267.452 198.379 267.445C198.379 267.438 198.379 267.432 198.379 267.425C198.379 267.418 198.379 267.412 198.379 267.405C198.379 267.398 198.379 267.392 198.379 267.385C198.379 267.379 198.379 267.372 198.379 267.365C198.379 267.359 198.379 267.352 198.379 267.345C198.379 267.339 198.379 267.332 198.379 267.325C198.379 267.319 198.379 267.312 198.379 267.306C198.379 267.299 198.379 267.292 198.379 267.286C198.379 267.279 198.379 267.272 198.379 267.266C198.379 267.259 198.379 267.253 198.379 267.246C198.379 267.239 198.379 267.233 198.379 267.226C198.379 267.219 198.379 267.213 198.379 267.206C198.379 267.2 198.379 267.193 198.379 267.186C198.379 267.18 198.379 267.173 198.379 267.166C198.379 267.16 198.379 267.153 198.379 267.147C198.379 267.14 198.379 267.133 198.379 267.127C198.379 267.12 198.379 267.113 198.379 267.107C198.379 267.1 198.379 267.094 198.379 267.087C198.379 267.08 198.379 267.074 198.379 267.067C198.379 267.06 198.379 267.054 198.379 267.047C198.379 267.041 198.379 267.034 198.379 267.027C198.379 267.021 198.379 267.014 198.379 267.007C198.379 267.001 198.379 266.994 198.379 266.988C198.379 266.981 198.379 266.974 198.379 266.968C198.379 266.961 198.379 266.955 198.379 266.948C198.379 266.941 198.379 266.935 198.379 266.928C198.379 266.921 198.379 266.915 198.379 266.908C198.379 266.902 198.379 266.895 198.379 266.888C198.379 266.882 198.379 266.875 198.379 266.869C198.379 266.862 198.379 266.855 198.379 266.849C198.379 266.842 198.379 266.836 198.379 266.829C198.379 266.822 198.379 266.816 198.379 266.809C198.379 266.802 198.379 266.796 198.379 266.789C198.379 266.783 198.379 266.776 198.379 266.769C198.379 266.763 198.379 266.756 198.379 266.75C198.379 266.743 198.379 266.736 198.379 266.73C198.379 266.723 198.379 266.717 198.379 266.71C198.379 266.703 198.379 266.697 198.379 266.69C198.379 266.684 198.379 266.677 198.379 266.67C198.379 266.664 198.379 266.657 198.379 266.651C198.379 266.644 198.379 266.637 198.379 266.631C198.379 266.624 198.379 266.618 198.379 266.611C198.379 266.604 198.379 266.598 198.379 266.591C198.379 266.585 198.379 266.578 198.379 266.571C198.379 266.565 198.379 266.558 198.379 266.552C198.379 266.545 198.379 266.538 198.379 266.532C198.379 266.525 198.379 266.519 198.379 266.512C198.379 266.505 198.379 266.499 198.379 266.492C198.379 266.486 198.379 266.479 198.379 266.473C198.379 266.466 198.379 266.459 198.379 266.453C198.379 266.446 198.379 266.44 198.379 266.433C198.379 266.426 198.379 266.42 198.379 266.413C198.379 266.407 198.379 266.4 198.379 266.393C198.379 266.387 198.379 266.38 198.379 266.374C198.379 266.367 198.379 266.361 198.379 266.354C198.379 266.347 198.379 266.341 198.379 266.334C198.379 266.328 198.379 266.321 198.379 266.314C198.379 266.308 198.379 266.301 198.379 266.295C198.379 266.288 198.379 266.282 198.379 266.275C198.379 266.268 198.379 266.262 198.379 266.255C198.379 266.249 198.379 266.242 198.379 266.235C198.379 266.229 198.379 266.222 198.379 266.216C198.379 266.209 198.379 266.203 198.379 266.196C198.379 266.189 198.379 266.183 198.379 266.176C198.379 266.17 198.379 266.163 198.379 266.157C198.379 266.15 198.379 266.143 198.379 266.137C198.379 266.13 198.379 266.124 198.379 266.117C198.379 266.111 198.379 266.104 198.379 266.097C198.379 266.091 198.379 266.084 198.379 266.078C198.379 266.071 198.379 266.064 198.379 266.058C198.379 266.051 198.379 266.045 198.379 266.038C198.379 266.032 198.379 266.025 198.379 266.019C198.379 266.012 198.379 266.005 198.379 265.999C198.379 265.992 198.379 265.986 198.379 265.979C198.379 265.973 198.379 265.966 198.379 265.959C198.379 265.953 198.379 265.946 198.379 265.94C198.379 265.933 198.379 265.927 198.379 265.92C198.379 265.913 198.379 265.907 198.379 265.9C198.379 265.894 198.379 265.887 198.379 265.881C198.379 265.874 198.379 265.868 198.379 265.861C198.379 265.854 198.379 265.848 198.379 265.841C198.379 265.835 198.379 265.828 198.379 265.822C198.379 265.815 198.379 265.808 198.379 265.802C198.379 265.795 198.379 265.789 198.379 265.782C198.379 265.776 198.379 265.769 198.379 265.763C198.379 265.756 198.379 265.749 198.379 265.743C198.379 265.736 198.379 265.73 198.379 265.723C198.379 265.717 198.379 265.71 198.379 265.704C198.379 265.697 198.379 265.69 198.379 265.684C198.379 265.677 198.379 265.671 198.379 265.664C198.379 265.658 198.379 265.651 198.379 265.645C198.379 265.638 198.379 265.632 198.379 265.625C198.379 265.618 198.379 265.612 198.379 265.605C198.379 265.599 198.379 265.592 198.379 265.586C198.379 265.579 198.379 265.573 198.379 265.566C198.379 265.56 198.379 265.553 198.379 265.546C198.379 265.54 198.379 265.533 198.379 265.527C198.379 265.52 198.379 265.514 198.379 265.507C198.379 265.501 198.379 265.494 198.379 265.488C198.379 265.481 198.379 265.474 198.379 265.468C198.379 265.461 198.379 265.455 198.379 265.448C198.379 265.442 198.379 265.435 198.379 265.429C198.379 265.422 198.379 265.416 198.379 265.409C198.379 265.402 198.379 265.396 198.379 265.389C198.379 265.383 198.379 265.376 198.379 265.37C198.379 265.363 198.379 265.357 198.379 265.35C198.379 265.344 198.379 265.337 198.379 265.331C198.379 265.324 198.379 265.318 198.379 265.311C198.379 265.304 198.379 265.298 198.379 265.291C198.379 265.285 198.379 265.278 198.379 265.272C198.379 265.265 198.379 265.259 198.379 265.252C198.379 265.246 198.379 265.239 198.379 265.233C198.379 265.226 198.379 265.22 198.379 265.213C198.379 265.207 198.379 265.2 198.379 265.193C198.379 265.187 198.379 265.18 198.379 265.174C198.379 265.167 198.379 265.161 198.379 265.154C198.379 265.148 198.379 265.141 198.379 265.135C198.379 265.128 198.379 265.122 198.379 265.115C198.379 265.109 198.379 265.102 198.379 265.096C198.379 265.089 198.379 265.083 198.379 265.076C198.379 265.069 198.379 265.063 198.379 265.056C198.379 265.05 198.379 265.043 198.379 265.037C198.379 265.03 198.379 265.024 198.379 265.017C198.379 265.011 198.379 265.004 198.379 264.998C198.379 264.991 198.379 264.985 198.379 264.978C198.379 264.972 198.379 264.965 198.379 264.959C198.379 264.952 198.379 264.946 198.379 264.939C198.379 264.933 198.379 264.926 198.379 264.92C198.379 264.913 198.379 264.907 198.379 264.9C198.379 264.894 198.379 264.887 198.379 264.881C198.379 264.874 198.379 264.867 198.379 264.861C198.379 264.854 198.379 264.848 198.379 264.841C198.379 264.835 198.379 264.828 198.379 264.822C198.379 264.815 198.379 264.809 198.379 264.802C198.379 264.796 198.379 264.789 198.379 264.783C198.379 264.776 198.379 264.77 198.379 264.763C198.379 264.757 198.379 264.75 198.379 264.744H194.747ZM194.747 275.12H191.114V281.269H194.747H198.379V275.12H194.747ZM194.747 281.269L197.957 282.968C202.38 274.615 208.023 267.255 214.896 260.873L212.425 258.211L209.953 255.549C202.479 262.489 196.337 270.501 191.536 279.569L194.747 281.269ZM212.425 258.211L214.9 260.869C222.071 254.193 229.971 248.764 238.607 244.569L237.02 241.301L235.433 238.034C226.135 242.55 217.639 248.393 209.949 255.552L212.425 258.211ZM237.02 241.301L238.644 244.55C247.6 240.073 257.057 236.712 267.024 234.469L266.227 230.925L265.429 227.381C254.9 229.75 244.886 233.307 235.395 238.052L237.02 241.301ZM266.227 230.925L267.024 234.469C277.017 232.221 286.998 231.099 296.971 231.099V227.467V223.834C286.448 223.834 275.933 225.018 265.429 227.381L266.227 230.925ZM296.971 227.467V231.099C304.941 231.099 312.644 231.846 320.085 233.334L320.798 229.772L321.51 226.21C313.579 224.624 305.398 223.834 296.971 223.834V227.467ZM320.798 229.772L320.2 233.356C327.639 234.595 334.824 236.578 341.759 239.302L343.087 235.921L344.415 232.54C337.003 229.628 329.328 227.512 321.395 226.189L320.798 229.772Z" fill="white" mask="url(#path-2-outside-1_127_18)"/>
<defs>
<filter id="filter0_d_127_18" x="0.148645" y="0.695941" width="572.535" height="572.535" filterUnits="userSpaceOnUse" color-interpolation-filters="sRGB">
<feFlood flood-opacity="0" result="BackgroundImageFix"/>
<feColorMatrix in="SourceAlpha" type="matrix" values="0 0 0 0 0 0 0 0 0 0 0 0 0 0 0 0 0 0 127 0" result="hardAlpha"/>
<feMorphology radius="11.3041" operator="dilate" in="SourceAlpha" result="effect1_dropShadow_127_18"/>
<feOffset dy="15.0721"/>
<feGaussianBlur stdDeviation="7.53604"/>
<feComposite in2="hardAlpha" operator="out"/>
<feColorMatrix type="matrix" values="0 0 0 0 0.12549 0 0 0 0 0.278431 0 0 0 0 0.27451 0 0 0 0.28 0"/>
<feBlend mode="normal" in2="BackgroundImageFix" result="effect1_dropShadow_127_18"/>
<feBlend mode="normal" in="SourceGraphic" in2="effect1_dropShadow_127_18" result="shape"/>
</filter>
</defs>
</svg>
