<svg width="574" height="574" viewBox="0 0 574 574" fill="none" xmlns="http://www.w3.org/2000/svg">
<g filter="url(#filter0_d_127_52)">
<rect x="27.3135" y="12.2173" width="519.783" height="519.783" rx="73.6907" fill="#2FD82F"/>
</g>
<mask id="path-2-outside-1_127_52" maskUnits="userSpaceOnUse" x="177.383" y="126.603" width="188" height="303" fill="black">
<rect fill="white" x="177.383" y="126.603" width="188" height="303"/>
<path d="M352.789 136.605C358.425 137.886 361.244 142.625 361.244 150.824C359.963 158.254 357.785 167.861 354.711 179.646C351.636 191.175 348.177 203.217 344.334 215.771C340.491 228.068 336.648 239.982 332.805 251.511C328.962 262.783 325.76 271.879 323.198 278.796C321.404 283.408 319.099 290.069 316.28 298.78C313.718 307.234 310.9 316.586 307.826 326.834C304.751 337.082 301.677 347.586 298.603 358.346C295.784 368.85 293.094 378.458 290.532 387.169C287.97 395.88 285.921 403.053 284.383 408.69C282.846 414.326 282.078 417.272 282.078 417.529C281.565 419.834 280.156 421.756 277.85 423.293C275.801 424.83 272.854 425.471 269.011 425.215C266.706 424.446 264.784 422.909 263.247 420.603C261.71 418.553 261.069 415.607 261.325 411.764C261.582 410.996 262.478 407.665 264.016 401.772C265.809 395.88 267.859 388.578 270.164 379.867C272.726 370.9 275.545 361.164 278.619 350.66C281.693 339.9 284.64 329.524 287.458 319.532C290.532 309.284 293.351 299.933 295.913 291.478C298.731 282.767 301.165 275.978 303.214 271.11C305.776 264.449 308.723 256.122 312.053 246.13C315.384 236.139 318.586 225.762 321.661 215.002C324.991 204.242 328.066 193.609 330.884 183.105C333.958 172.601 336.392 163.634 338.186 156.204C332.805 155.435 325.376 154.667 315.896 153.898C306.673 153.13 295.913 152.745 283.615 152.745C273.623 152.745 263.375 153.13 252.871 153.898C242.367 154.667 232.631 155.435 223.664 156.204C214.953 156.973 207.651 157.741 201.759 158.51C195.866 159.278 192.664 159.663 192.151 159.663C189.589 159.663 187.283 158.766 185.234 156.973C183.184 155.179 181.903 152.489 181.391 148.902C181.391 146.34 182.288 144.162 184.081 142.369C185.618 140.319 187.796 139.038 190.614 138.526C191.126 138.526 194.329 138.142 200.222 137.373C206.114 136.605 213.416 135.836 222.127 135.067C231.094 134.043 240.957 133.146 251.718 132.377C262.478 131.609 273.111 131.224 283.615 131.224C304.367 131.224 320.892 132.121 333.19 133.914C345.744 135.708 352.277 136.605 352.789 136.605Z"/>
</mask>
<path d="M352.789 136.605C358.425 137.886 361.244 142.625 361.244 150.824C359.963 158.254 357.785 167.861 354.711 179.646C351.636 191.175 348.177 203.217 344.334 215.771C340.491 228.068 336.648 239.982 332.805 251.511C328.962 262.783 325.76 271.879 323.198 278.796C321.404 283.408 319.099 290.069 316.28 298.78C313.718 307.234 310.9 316.586 307.826 326.834C304.751 337.082 301.677 347.586 298.603 358.346C295.784 368.85 293.094 378.458 290.532 387.169C287.97 395.88 285.921 403.053 284.383 408.69C282.846 414.326 282.078 417.272 282.078 417.529C281.565 419.834 280.156 421.756 277.85 423.293C275.801 424.83 272.854 425.471 269.011 425.215C266.706 424.446 264.784 422.909 263.247 420.603C261.71 418.553 261.069 415.607 261.325 411.764C261.582 410.996 262.478 407.665 264.016 401.772C265.809 395.88 267.859 388.578 270.164 379.867C272.726 370.9 275.545 361.164 278.619 350.66C281.693 339.9 284.64 329.524 287.458 319.532C290.532 309.284 293.351 299.933 295.913 291.478C298.731 282.767 301.165 275.978 303.214 271.11C305.776 264.449 308.723 256.122 312.053 246.13C315.384 236.139 318.586 225.762 321.661 215.002C324.991 204.242 328.066 193.609 330.884 183.105C333.958 172.601 336.392 163.634 338.186 156.204C332.805 155.435 325.376 154.667 315.896 153.898C306.673 153.13 295.913 152.745 283.615 152.745C273.623 152.745 263.375 153.13 252.871 153.898C242.367 154.667 232.631 155.435 223.664 156.204C214.953 156.973 207.651 157.741 201.759 158.51C195.866 159.278 192.664 159.663 192.151 159.663C189.589 159.663 187.283 158.766 185.234 156.973C183.184 155.179 181.903 152.489 181.391 148.902C181.391 146.34 182.288 144.162 184.081 142.369C185.618 140.319 187.796 139.038 190.614 138.526C191.126 138.526 194.329 138.142 200.222 137.373C206.114 136.605 213.416 135.836 222.127 135.067C231.094 134.043 240.957 133.146 251.718 132.377C262.478 131.609 273.111 131.224 283.615 131.224C304.367 131.224 320.892 132.121 333.19 133.914C345.744 135.708 352.277 136.605 352.789 136.605Z" fill="white"/>
<path d="M352.789 136.605L353.594 133.062L353.197 132.972H352.789V136.605ZM361.244 150.824L364.823 151.441L364.876 151.135V150.824H361.244ZM354.711 179.646L358.22 180.582L358.223 180.573L358.225 180.563L354.711 179.646ZM344.334 215.771L347.802 216.854L347.805 216.844L347.808 216.834L344.334 215.771ZM332.805 251.511L336.244 252.683L336.248 252.671L336.252 252.659L332.805 251.511ZM323.198 278.796L326.583 280.113L326.594 280.085L326.604 280.058L323.198 278.796ZM316.28 298.78L312.824 297.661L312.814 297.694L312.804 297.726L316.28 298.78ZM298.603 358.346L295.11 357.348L295.102 357.377L295.094 357.405L298.603 358.346ZM290.532 387.169L287.047 386.144L290.532 387.169ZM282.078 417.529L285.624 418.317L285.71 417.927V417.529H282.078ZM277.85 423.293L275.835 420.271L275.752 420.327L275.671 420.387L277.85 423.293ZM269.011 425.215L267.863 428.661L268.305 428.808L268.77 428.839L269.011 425.215ZM263.247 420.603L266.269 418.588L266.213 418.504L266.153 418.424L263.247 420.603ZM261.325 411.764L257.879 410.615L257.732 411.057L257.701 411.522L261.325 411.764ZM264.016 401.772L260.54 400.715L260.519 400.785L260.501 400.855L264.016 401.772ZM270.164 379.867L266.672 378.869L266.662 378.903L266.653 378.938L270.164 379.867ZM278.619 350.66L282.105 351.681L282.109 351.669L282.112 351.658L278.619 350.66ZM287.458 319.532L283.979 318.488L283.97 318.517L283.962 318.546L287.458 319.532ZM295.913 291.478L292.456 290.36L292.446 290.392L292.436 290.424L295.913 291.478ZM303.214 271.11L306.562 272.52L306.584 272.467L306.605 272.414L303.214 271.11ZM321.661 215.002L318.191 213.928L318.179 213.966L318.168 214.004L321.661 215.002ZM330.884 183.105L327.398 182.085L327.386 182.124L327.375 182.164L330.884 183.105ZM338.186 156.204L341.717 157.056L342.654 153.173L338.699 152.608L338.186 156.204ZM315.896 153.898L315.594 157.518L315.603 157.519L315.896 153.898ZM223.664 156.204L223.354 152.585L223.345 152.585L223.664 156.204ZM201.759 158.51L201.289 154.908L201.759 158.51ZM181.391 148.902H177.758V149.16L177.795 149.416L181.391 148.902ZM184.081 142.369L186.649 144.938L186.832 144.755L186.987 144.549L184.081 142.369ZM190.614 138.526V134.894H190.286L189.964 134.952L190.614 138.526ZM200.222 137.373L199.752 133.771L200.222 137.373ZM222.127 135.067L222.446 138.686L222.493 138.682L222.539 138.676L222.127 135.067ZM333.19 133.914L332.666 137.509L332.676 137.51L333.19 133.914ZM352.789 136.605L351.984 140.147C353.884 140.579 355.134 141.508 356.008 142.977C356.958 144.576 357.611 147.082 357.611 150.824H361.244H364.876C364.876 146.367 364.12 142.404 362.252 139.264C360.308 135.993 357.331 133.912 353.594 133.062L352.789 136.605ZM361.244 150.824L357.664 150.207C356.408 157.494 354.258 166.991 351.196 178.729L354.711 179.646L358.225 180.563C361.312 168.731 363.518 159.013 364.823 151.441L361.244 150.824ZM354.711 179.646L351.201 178.71C348.139 190.193 344.692 202.192 340.861 214.707L344.334 215.771L347.808 216.834C351.663 204.242 355.134 192.158 358.22 180.582L354.711 179.646ZM344.334 215.771L340.867 214.687C337.031 226.964 333.195 238.856 329.359 250.362L332.805 251.511L336.252 252.659C340.102 241.107 343.952 229.172 347.802 216.854L344.334 215.771ZM332.805 251.511L329.367 250.338C325.529 261.597 322.338 270.659 319.791 277.534L323.198 278.796L326.604 280.058C329.182 273.098 332.396 263.97 336.244 252.683L332.805 251.511ZM323.198 278.796L319.812 277.479C317.981 282.19 315.649 288.93 312.824 297.661L316.28 298.78L319.737 299.898C322.548 291.208 324.828 284.625 326.583 280.113L323.198 278.796ZM316.28 298.78L312.804 297.726C310.241 306.185 307.422 315.539 304.347 325.79L307.826 326.834L311.305 327.877C314.379 317.632 317.196 308.284 319.757 299.833L316.28 298.78ZM307.826 326.834L304.347 325.79C301.267 336.054 298.188 346.573 295.11 357.348L298.603 358.346L302.095 359.344C305.166 348.598 308.236 338.109 311.305 327.877L307.826 326.834ZM298.603 358.346L295.094 357.405C292.282 367.886 289.6 377.466 287.047 386.144L290.532 387.169L294.017 388.194C296.589 379.45 299.287 369.815 302.111 359.288L298.603 358.346ZM290.532 387.169L287.047 386.144C284.482 394.867 282.425 402.065 280.879 407.734L284.383 408.69L287.888 409.645C289.416 404.041 291.459 396.893 294.017 388.194L290.532 387.169ZM284.383 408.69L280.879 407.734C280.109 410.556 279.529 412.717 279.139 414.21C278.945 414.954 278.794 415.549 278.69 415.984C278.638 416.199 278.592 416.4 278.557 416.57C278.539 416.654 278.519 416.758 278.501 416.868C278.494 416.911 278.445 417.192 278.445 417.529H282.078H285.71C285.71 417.948 285.622 418.277 285.671 418.042C285.684 417.981 285.709 417.866 285.754 417.68C285.842 417.314 285.979 416.773 286.169 416.044C286.548 414.59 287.12 412.46 287.888 409.645L284.383 408.69ZM282.078 417.529L278.532 416.741C278.257 417.975 277.506 419.157 275.835 420.271L277.85 423.293L279.865 426.316C282.806 424.355 284.873 421.693 285.624 418.317L282.078 417.529ZM277.85 423.293L275.671 420.387C274.593 421.196 272.651 421.817 269.253 421.59L269.011 425.215L268.77 428.839C273.058 429.125 277.009 428.465 280.03 426.199L277.85 423.293ZM269.011 425.215L270.16 421.769C268.726 421.291 267.424 420.321 266.269 418.588L263.247 420.603L260.224 422.618C262.144 425.497 264.685 427.602 267.863 428.661L269.011 425.215ZM263.247 420.603L266.153 418.424C265.344 417.345 264.723 415.403 264.95 412.006L261.325 411.764L257.701 411.522C257.415 415.811 258.075 419.761 260.341 422.783L263.247 420.603ZM261.325 411.764L264.772 412.913C265.077 411.995 266.016 408.495 267.53 402.689L264.016 401.772L260.501 400.855C258.941 406.835 258.086 409.996 257.879 410.615L261.325 411.764ZM264.016 401.772L267.491 402.83C269.301 396.88 271.363 389.533 273.676 380.797L270.164 379.867L266.653 378.938C264.354 387.623 262.316 394.879 260.54 400.715L264.016 401.772ZM270.164 379.867L273.657 380.865C276.217 371.907 279.033 362.179 282.105 351.681L278.619 350.66L275.133 349.64C272.056 360.15 269.236 369.894 266.672 378.869L270.164 379.867ZM278.619 350.66L282.112 351.658C285.187 340.894 288.135 330.514 290.954 320.518L287.458 319.532L283.962 318.546C281.145 328.533 278.2 338.906 275.126 349.662L278.619 350.66ZM287.458 319.532L290.937 320.576C294.011 310.33 296.828 300.982 299.389 292.531L295.913 291.478L292.436 290.424C289.873 298.883 287.054 308.237 283.979 318.488L287.458 319.532ZM295.913 291.478L299.369 292.596C302.174 283.924 304.571 277.247 306.562 272.52L303.214 271.11L299.866 269.7C297.758 274.708 295.287 281.61 292.456 290.36L295.913 291.478ZM303.214 271.11L306.605 272.414C309.193 265.684 312.159 257.301 315.499 247.279L312.053 246.13L308.607 244.982C305.286 254.943 302.359 263.214 299.824 269.806L303.214 271.11ZM312.053 246.13L315.499 247.279C318.848 237.234 322.065 226.808 325.153 216L321.661 215.002L318.168 214.004C315.107 224.717 311.92 235.043 308.607 244.982L312.053 246.13ZM321.661 215.002L325.131 216.076C328.475 205.273 331.562 194.597 334.392 184.046L330.884 183.105L327.375 182.164C324.57 192.622 321.508 203.21 318.191 213.928L321.661 215.002ZM330.884 183.105L334.37 184.125C337.455 173.587 339.905 164.561 341.717 157.056L338.186 156.204L334.655 155.352C332.879 162.707 330.462 171.614 327.398 182.085L330.884 183.105ZM338.186 156.204L338.699 152.608C333.212 151.824 325.697 151.048 316.19 150.277L315.896 153.898L315.603 157.519C325.054 158.285 332.399 159.047 337.672 159.8L338.186 156.204ZM315.896 153.898L316.198 150.278C306.848 149.499 295.983 149.113 283.615 149.113V152.745V156.378C295.842 156.378 306.498 156.76 315.594 157.518L315.896 153.898ZM283.615 152.745V149.113C273.53 149.113 263.193 149.501 252.606 150.275L252.871 153.898L253.136 157.521C263.557 156.758 273.716 156.378 283.615 156.378V152.745ZM252.871 153.898L252.606 150.275C242.089 151.045 232.338 151.815 223.354 152.585L223.664 156.204L223.974 159.823C232.924 159.056 242.644 158.289 253.136 157.521L252.871 153.898ZM223.664 156.204L223.345 152.585C214.605 153.357 207.249 154.13 201.289 154.908L201.759 158.51L202.229 162.112C208.054 161.352 215.302 160.588 223.983 159.822L223.664 156.204ZM201.759 158.51L201.289 154.908C198.347 155.291 196.087 155.578 194.505 155.768C192.762 155.977 192.129 156.03 192.151 156.03V159.663V163.295C192.686 163.295 193.91 163.156 195.37 162.981C196.99 162.787 199.278 162.497 202.229 162.112L201.759 158.51ZM192.151 159.663V156.03C190.528 156.03 189.059 155.492 187.626 154.239L185.234 156.973L182.842 159.706C185.508 162.039 188.651 163.295 192.151 163.295V159.663ZM185.234 156.973L187.626 154.239C186.42 153.183 185.417 151.403 184.987 148.388L181.391 148.902L177.795 149.416C178.389 153.576 179.949 157.175 182.842 159.706L185.234 156.973ZM181.391 148.902H185.023C185.023 147.293 185.545 146.042 186.649 144.938L184.081 142.369L181.512 139.8C179.03 142.283 177.758 145.388 177.758 148.902H181.391ZM184.081 142.369L186.987 144.549C187.908 143.32 189.232 142.469 191.264 142.1L190.614 138.526L189.964 134.952C186.36 135.607 183.328 137.319 181.175 140.19L184.081 142.369ZM190.614 138.526V142.159C191.149 142.159 192.373 142.02 193.833 141.844C195.453 141.65 197.741 141.36 200.691 140.975L200.222 137.373L199.752 133.771C196.809 134.155 194.55 134.441 192.967 134.631C191.225 134.84 190.592 134.894 190.614 134.894V138.526ZM200.222 137.373L200.691 140.975C206.517 140.215 213.764 139.452 222.446 138.686L222.127 135.067L221.807 131.449C213.067 132.22 205.712 132.994 199.752 133.771L200.222 137.373ZM222.127 135.067L222.539 138.676C231.446 137.658 241.258 136.766 251.977 136.001L251.718 132.377L251.459 128.754C240.657 129.526 230.741 130.427 221.714 131.458L222.127 135.067ZM251.718 132.377L251.977 136.001C262.653 135.238 273.199 134.857 283.615 134.857V131.224V127.592C273.022 127.592 262.303 127.979 251.459 128.754L251.718 132.377ZM283.615 131.224V134.857C304.291 134.857 320.618 135.752 332.666 137.509L333.19 133.914L333.714 130.32C321.166 128.49 304.443 127.592 283.615 127.592V131.224ZM333.19 133.914L332.676 137.51C338.955 138.407 343.734 139.081 347.011 139.531C348.648 139.756 349.919 139.926 350.817 140.04C351.265 140.097 351.633 140.142 351.914 140.173C352.092 140.193 352.479 140.237 352.789 140.237V136.605V132.972C352.971 132.972 353.042 132.988 352.716 132.952C352.492 132.927 352.168 132.888 351.735 132.833C350.872 132.723 349.629 132.557 347.999 132.333C344.742 131.886 339.979 131.215 333.703 130.318L333.19 133.914Z" fill="white" mask="url(#path-2-outside-1_127_52)"/>
<defs>
<filter id="filter0_d_127_52" x="0.937342" y="0.913226" width="572.535" height="572.535" filterUnits="userSpaceOnUse" color-interpolation-filters="sRGB">
<feFlood flood-opacity="0" result="BackgroundImageFix"/>
<feColorMatrix in="SourceAlpha" type="matrix" values="0 0 0 0 0 0 0 0 0 0 0 0 0 0 0 0 0 0 127 0" result="hardAlpha"/>
<feMorphology radius="11.3041" operator="dilate" in="SourceAlpha" result="effect1_dropShadow_127_52"/>
<feOffset dy="15.0721"/>
<feGaussianBlur stdDeviation="7.53604"/>
<feComposite in2="hardAlpha" operator="out"/>
<feColorMatrix type="matrix" values="0 0 0 0 0.12549 0 0 0 0 0.278431 0 0 0 0 0.27451 0 0 0 0.28 0"/>
<feBlend mode="normal" in2="BackgroundImageFix" result="effect1_dropShadow_127_52"/>
<feBlend mode="normal" in="SourceGraphic" in2="effect1_dropShadow_127_52" result="shape"/>
</filter>
</defs>
</svg>
