<svg width="574" height="574" viewBox="0 0 574 574" fill="none" xmlns="http://www.w3.org/2000/svg">
<g filter="url(#filter0_d_127_21)">
<rect x="27.3135" y="11.9399" width="519.783" height="519.783" rx="73.6907" fill="#DF1313"/>
</g>
<mask id="path-2-outside-1_127_21" maskUnits="userSpaceOnUse" x="177.383" y="126.326" width="188" height="303" fill="black">
<rect fill="white" x="177.383" y="126.326" width="188" height="303"/>
<path d="M352.789 136.327C358.425 137.608 361.244 142.348 361.244 150.546C359.963 157.976 357.785 167.584 354.711 179.369C351.636 190.898 348.177 202.939 344.334 215.493C340.491 227.791 336.648 239.704 332.805 251.233C328.962 262.506 325.76 271.601 323.198 278.519C321.404 283.13 319.099 289.791 316.28 298.502C313.718 306.957 310.9 316.308 307.826 326.556C304.751 336.804 301.677 347.308 298.603 358.069C295.784 368.573 293.094 378.181 290.532 386.891C287.97 395.602 285.921 402.776 284.383 408.412C282.846 414.049 282.078 416.995 282.078 417.251C281.565 419.557 280.156 421.479 277.85 423.016C275.801 424.553 272.854 425.193 269.011 424.937C266.706 424.169 264.784 422.631 263.247 420.326C261.71 418.276 261.069 415.33 261.325 411.487C261.582 410.718 262.478 407.388 264.016 401.495C265.809 395.602 267.859 388.301 270.164 379.59C272.726 370.623 275.545 360.887 278.619 350.383C281.693 339.622 284.64 329.246 287.458 319.255C290.532 309.006 293.351 299.655 295.913 291.201C298.731 282.49 301.165 275.7 303.214 270.833C305.776 264.171 308.723 255.845 312.053 245.853C315.384 235.861 318.586 225.485 321.661 214.725C324.991 203.964 328.066 193.332 330.884 182.828C333.958 172.323 336.392 163.356 338.186 155.927C332.805 155.158 325.376 154.389 315.896 153.621C306.673 152.852 295.913 152.468 283.615 152.468C273.623 152.468 263.375 152.852 252.871 153.621C242.367 154.389 232.631 155.158 223.664 155.927C214.953 156.695 207.651 157.464 201.759 158.232C195.866 159.001 192.664 159.385 192.151 159.385C189.589 159.385 187.283 158.489 185.234 156.695C183.184 154.902 181.903 152.212 181.391 148.625C181.391 146.063 182.288 143.885 184.081 142.092C185.618 140.042 187.796 138.761 190.614 138.249C191.126 138.249 194.329 137.864 200.222 137.096C206.114 136.327 213.416 135.559 222.127 134.79C231.094 133.765 240.957 132.869 251.718 132.1C262.478 131.331 273.111 130.947 283.615 130.947C304.367 130.947 320.892 131.844 333.19 133.637C345.744 135.431 352.277 136.327 352.789 136.327Z"/>
</mask>
<path d="M352.789 136.327C358.425 137.608 361.244 142.348 361.244 150.546C359.963 157.976 357.785 167.584 354.711 179.369C351.636 190.898 348.177 202.939 344.334 215.493C340.491 227.791 336.648 239.704 332.805 251.233C328.962 262.506 325.76 271.601 323.198 278.519C321.404 283.13 319.099 289.791 316.28 298.502C313.718 306.957 310.9 316.308 307.826 326.556C304.751 336.804 301.677 347.308 298.603 358.069C295.784 368.573 293.094 378.181 290.532 386.891C287.97 395.602 285.921 402.776 284.383 408.412C282.846 414.049 282.078 416.995 282.078 417.251C281.565 419.557 280.156 421.479 277.85 423.016C275.801 424.553 272.854 425.193 269.011 424.937C266.706 424.169 264.784 422.631 263.247 420.326C261.71 418.276 261.069 415.33 261.325 411.487C261.582 410.718 262.478 407.388 264.016 401.495C265.809 395.602 267.859 388.301 270.164 379.59C272.726 370.623 275.545 360.887 278.619 350.383C281.693 339.622 284.64 329.246 287.458 319.255C290.532 309.006 293.351 299.655 295.913 291.201C298.731 282.49 301.165 275.7 303.214 270.833C305.776 264.171 308.723 255.845 312.053 245.853C315.384 235.861 318.586 225.485 321.661 214.725C324.991 203.964 328.066 193.332 330.884 182.828C333.958 172.323 336.392 163.356 338.186 155.927C332.805 155.158 325.376 154.389 315.896 153.621C306.673 152.852 295.913 152.468 283.615 152.468C273.623 152.468 263.375 152.852 252.871 153.621C242.367 154.389 232.631 155.158 223.664 155.927C214.953 156.695 207.651 157.464 201.759 158.232C195.866 159.001 192.664 159.385 192.151 159.385C189.589 159.385 187.283 158.489 185.234 156.695C183.184 154.902 181.903 152.212 181.391 148.625C181.391 146.063 182.288 143.885 184.081 142.092C185.618 140.042 187.796 138.761 190.614 138.249C191.126 138.249 194.329 137.864 200.222 137.096C206.114 136.327 213.416 135.559 222.127 134.79C231.094 133.765 240.957 132.869 251.718 132.1C262.478 131.331 273.111 130.947 283.615 130.947C304.367 130.947 320.892 131.844 333.19 133.637C345.744 135.431 352.277 136.327 352.789 136.327Z" fill="white"/>
<path d="M352.789 136.327L353.594 132.785L353.197 132.695H352.789V136.327ZM361.244 150.546L364.823 151.164L364.876 150.857V150.546H361.244ZM354.711 179.369L358.22 180.305L358.223 180.295L358.225 180.286L354.711 179.369ZM344.334 215.493L347.802 216.577L347.805 216.567L347.808 216.557L344.334 215.493ZM332.805 251.233L336.244 252.405L336.248 252.394L336.252 252.382L332.805 251.233ZM323.198 278.519L326.583 279.835L326.594 279.808L326.604 279.78L323.198 278.519ZM316.28 298.502L312.824 297.384L312.814 297.416L312.804 297.449L316.28 298.502ZM298.603 358.069L295.11 357.071L295.102 357.099L295.094 357.128L298.603 358.069ZM290.532 386.891L287.047 385.867L290.532 386.891ZM282.078 417.251L285.624 418.039L285.71 417.65V417.251H282.078ZM277.85 423.016L275.835 419.993L275.752 420.049L275.671 420.11L277.85 423.016ZM269.011 424.937L267.863 428.383L268.305 428.531L268.77 428.562L269.011 424.937ZM263.247 420.326L266.269 418.311L266.213 418.227L266.153 418.146L263.247 420.326ZM261.325 411.487L257.879 410.338L257.732 410.78L257.701 411.245L261.325 411.487ZM264.016 401.495L260.54 400.437L260.519 400.507L260.501 400.578L264.016 401.495ZM270.164 379.59L266.672 378.592L266.662 378.626L266.653 378.66L270.164 379.59ZM278.619 350.383L282.105 351.403L282.109 351.392L282.112 351.381L278.619 350.383ZM287.458 319.255L283.979 318.211L283.97 318.239L283.962 318.268L287.458 319.255ZM295.913 291.201L292.456 290.082L292.446 290.115L292.436 290.147L295.913 291.201ZM303.214 270.833L306.562 272.242L306.584 272.19L306.605 272.137L303.214 270.833ZM321.661 214.725L318.191 213.651L318.179 213.688L318.168 213.727L321.661 214.725ZM330.884 182.828L327.398 181.807L327.386 181.847L327.375 181.886L330.884 182.828ZM338.186 155.927L341.717 156.779L342.654 152.896L338.699 152.331L338.186 155.927ZM315.896 153.621L315.594 157.241L315.603 157.241L315.896 153.621ZM223.664 155.927L223.354 152.307L223.345 152.308L223.664 155.927ZM201.759 158.232L201.289 154.63L201.759 158.232ZM181.391 148.625H177.758V148.883L177.795 149.139L181.391 148.625ZM184.081 142.092L186.649 144.66L186.832 144.478L186.987 144.271L184.081 142.092ZM190.614 138.249V134.616H190.286L189.964 134.675L190.614 138.249ZM200.222 137.096L199.752 133.494L200.222 137.096ZM222.127 134.79L222.446 138.408L222.493 138.404L222.539 138.399L222.127 134.79ZM333.19 133.637L332.666 137.232L332.676 137.233L333.19 133.637ZM352.789 136.327L351.984 139.869C353.884 140.301 355.134 141.23 356.008 142.699C356.958 144.298 357.611 146.804 357.611 150.546H361.244H364.876C364.876 146.09 364.12 142.127 362.252 138.986C360.308 135.715 357.331 133.634 353.594 132.785L352.789 136.327ZM361.244 150.546L357.664 149.929C356.408 157.216 354.258 166.714 351.196 178.452L354.711 179.369L358.225 180.286C361.312 168.454 363.518 158.736 364.823 151.164L361.244 150.546ZM354.711 179.369L351.201 178.433C348.139 189.915 344.692 201.914 340.861 214.43L344.334 215.493L347.808 216.557C351.663 203.965 355.134 191.881 358.22 180.305L354.711 179.369ZM344.334 215.493L340.867 214.41C337.031 226.687 333.195 238.578 329.359 250.085L332.805 251.233L336.252 252.382C340.102 240.83 343.952 228.895 347.802 216.577L344.334 215.493ZM332.805 251.233L329.367 250.061C325.529 261.32 322.338 270.382 319.791 277.257L323.198 278.519L326.604 279.78C329.182 272.821 332.396 263.692 336.244 252.405L332.805 251.233ZM323.198 278.519L319.812 277.202C317.981 281.912 315.649 288.652 312.824 297.384L316.28 298.502L319.737 299.62C322.548 290.931 324.828 284.348 326.583 279.835L323.198 278.519ZM316.28 298.502L312.804 297.449C310.241 305.907 307.422 315.262 304.347 325.512L307.826 326.556L311.305 327.6C314.379 317.355 317.196 308.007 319.757 299.556L316.28 298.502ZM307.826 326.556L304.347 325.512C301.267 335.776 298.188 346.296 295.11 357.071L298.603 358.069L302.095 359.067C305.166 348.321 308.236 337.832 311.305 327.6L307.826 326.556ZM298.603 358.069L295.094 357.128C292.282 367.609 289.6 377.188 287.047 385.867L290.532 386.891L294.017 387.916C296.589 379.173 299.287 369.537 302.111 359.01L298.603 358.069ZM290.532 386.891L287.047 385.867C284.482 394.589 282.425 401.788 280.879 407.457L284.383 408.412L287.888 409.368C289.416 403.764 291.459 396.615 294.017 387.916L290.532 386.891ZM284.383 408.412L280.879 407.457C280.109 410.278 279.529 412.439 279.139 413.932C278.945 414.676 278.794 415.272 278.69 415.707C278.638 415.922 278.592 416.122 278.557 416.293C278.539 416.377 278.519 416.481 278.501 416.59C278.494 416.633 278.445 416.915 278.445 417.251H282.078H285.71C285.71 417.67 285.622 417.999 285.671 417.765C285.684 417.704 285.709 417.588 285.754 417.402C285.842 417.037 285.979 416.496 286.169 415.766C286.548 414.313 287.12 412.183 287.888 409.368L284.383 408.412ZM282.078 417.251L278.532 416.463C278.257 417.698 277.506 418.879 275.835 419.993L277.85 423.016L279.865 426.038C282.806 424.078 284.873 421.416 285.624 418.039L282.078 417.251ZM277.85 423.016L275.671 420.11C274.593 420.918 272.651 421.539 269.253 421.313L269.011 424.937L268.77 428.562C273.058 428.848 277.009 428.188 280.03 425.922L277.85 423.016ZM269.011 424.937L270.16 421.491C268.726 421.013 267.424 420.043 266.269 418.311L263.247 420.326L260.224 422.341C262.144 425.22 264.685 427.324 267.863 428.383L269.011 424.937ZM263.247 420.326L266.153 418.146C265.344 417.068 264.723 415.126 264.95 411.728L261.325 411.487L257.701 411.245C257.415 415.534 258.075 419.484 260.341 422.505L263.247 420.326ZM261.325 411.487L264.772 412.635C265.077 411.718 266.016 408.217 267.53 402.412L264.016 401.495L260.501 400.578C258.941 406.558 258.086 409.718 257.879 410.338L261.325 411.487ZM264.016 401.495L267.491 402.553C269.301 396.603 271.363 389.255 273.676 380.519L270.164 379.59L266.653 378.66C264.354 387.346 262.316 394.602 260.54 400.437L264.016 401.495ZM270.164 379.59L273.657 380.588C276.217 371.629 279.033 361.901 282.105 351.403L278.619 350.383L275.133 349.363C272.056 359.873 269.236 369.616 266.672 378.592L270.164 379.59ZM278.619 350.383L282.112 351.381C285.187 340.617 288.135 330.237 290.954 320.241L287.458 319.255L283.962 318.268C281.145 328.256 278.2 338.628 275.126 349.385L278.619 350.383ZM287.458 319.255L290.937 320.298C294.011 310.053 296.828 300.705 299.389 292.254L295.913 291.201L292.436 290.147C289.873 298.606 287.054 307.96 283.979 318.211L287.458 319.255ZM295.913 291.201L299.369 292.319C302.174 283.646 304.571 276.97 306.562 272.242L303.214 270.833L299.866 269.423C297.758 274.431 295.287 281.333 292.456 290.082L295.913 291.201ZM303.214 270.833L306.605 272.137C309.193 265.406 312.159 257.024 315.499 247.002L312.053 245.853L308.607 244.704C305.286 254.666 302.359 262.937 299.824 269.529L303.214 270.833ZM312.053 245.853L315.499 247.002C318.848 236.957 322.065 226.53 325.153 215.723L321.661 214.725L318.168 213.727C315.107 224.44 311.92 234.765 308.607 244.704L312.053 245.853ZM321.661 214.725L325.131 215.799C328.475 204.996 331.562 194.319 334.392 183.769L330.884 182.828L327.375 181.886C324.57 192.345 321.508 202.933 318.191 213.651L321.661 214.725ZM330.884 182.828L334.37 183.848C337.455 173.31 339.905 164.283 341.717 156.779L338.186 155.927L334.655 155.074C332.879 162.429 330.462 171.337 327.398 181.807L330.884 182.828ZM338.186 155.927L338.699 152.331C333.212 151.547 325.697 150.771 316.19 150L315.896 153.621L315.603 157.241C325.054 158.008 332.399 158.769 337.672 159.523L338.186 155.927ZM315.896 153.621L316.198 150.001C306.848 149.222 295.983 148.835 283.615 148.835V152.468V156.1C295.842 156.1 306.498 156.483 315.594 157.241L315.896 153.621ZM283.615 152.468V148.835C273.53 148.835 263.193 149.223 252.606 149.998L252.871 153.621L253.136 157.244C263.557 156.481 273.716 156.1 283.615 156.1V152.468ZM252.871 153.621L252.606 149.998C242.089 150.767 232.338 151.537 223.354 152.307L223.664 155.927L223.974 159.546C232.924 158.779 242.644 158.011 253.136 157.244L252.871 153.621ZM223.664 155.927L223.345 152.308C214.605 153.079 207.249 153.853 201.289 154.63L201.759 158.232L202.229 161.834C208.054 161.075 215.302 160.311 223.983 159.545L223.664 155.927ZM201.759 158.232L201.289 154.63C198.347 155.014 196.087 155.3 194.505 155.49C192.762 155.699 192.129 155.753 192.151 155.753V159.385V163.018C192.686 163.018 193.91 162.879 195.37 162.704C196.99 162.509 199.278 162.219 202.229 161.834L201.759 158.232ZM192.151 159.385V155.753C190.528 155.753 189.059 155.215 187.626 153.961L185.234 156.695L182.842 159.429C185.508 161.762 188.651 163.018 192.151 163.018V159.385ZM185.234 156.695L187.626 153.961C186.42 152.906 185.417 151.125 184.987 148.111L181.391 148.625L177.795 149.139C178.389 153.298 179.949 156.897 182.842 159.429L185.234 156.695ZM181.391 148.625H185.023C185.023 147.015 185.545 145.765 186.649 144.66L184.081 142.092L181.512 139.523C179.03 142.006 177.758 145.11 177.758 148.625H181.391ZM184.081 142.092L186.987 144.271C187.908 143.043 189.232 142.192 191.264 141.823L190.614 138.249L189.964 134.675C186.36 135.33 183.328 137.042 181.175 139.912L184.081 142.092ZM190.614 138.249V141.881C191.149 141.881 192.373 141.742 193.833 141.567C195.453 141.373 197.741 141.083 200.691 140.698L200.222 137.096L199.752 133.494C196.809 133.878 194.55 134.164 192.967 134.354C191.225 134.563 190.592 134.616 190.614 134.616V138.249ZM200.222 137.096L200.691 140.698C206.517 139.938 213.764 139.175 222.446 138.408L222.127 134.79L221.807 131.172C213.067 131.943 205.712 132.716 199.752 133.494L200.222 137.096ZM222.127 134.79L222.539 138.399C231.446 137.381 241.258 136.489 251.977 135.723L251.718 132.1L251.459 128.477C240.657 129.248 230.741 130.149 221.714 131.181L222.127 134.79ZM251.718 132.1L251.977 135.723C262.653 134.961 273.199 134.58 283.615 134.58V130.947V127.314C273.022 127.314 262.303 127.702 251.459 128.477L251.718 132.1ZM283.615 130.947V134.58C304.291 134.58 320.618 135.475 332.666 137.232L333.19 133.637L333.714 130.043C321.166 128.213 304.443 127.314 283.615 127.314V130.947ZM333.19 133.637L332.676 137.233C338.955 138.13 343.734 138.804 347.011 139.253C348.648 139.478 349.919 139.648 350.817 139.763C351.265 139.82 351.633 139.864 351.914 139.895C352.092 139.915 352.479 139.96 352.789 139.96V136.327V132.695C352.971 132.695 353.042 132.711 352.716 132.675C352.492 132.65 352.168 132.611 351.735 132.556C350.872 132.446 349.629 132.28 347.999 132.056C344.742 131.609 339.979 130.938 333.703 130.041L333.19 133.637Z" fill="white" mask="url(#path-2-outside-1_127_21)"/>
<defs>
<filter id="filter0_d_127_21" x="0.937342" y="0.635882" width="572.535" height="572.535" filterUnits="userSpaceOnUse" color-interpolation-filters="sRGB">
<feFlood flood-opacity="0" result="BackgroundImageFix"/>
<feColorMatrix in="SourceAlpha" type="matrix" values="0 0 0 0 0 0 0 0 0 0 0 0 0 0 0 0 0 0 127 0" result="hardAlpha"/>
<feMorphology radius="11.3041" operator="dilate" in="SourceAlpha" result="effect1_dropShadow_127_21"/>
<feOffset dy="15.0721"/>
<feGaussianBlur stdDeviation="7.53604"/>
<feComposite in2="hardAlpha" operator="out"/>
<feColorMatrix type="matrix" values="0 0 0 0 0.12549 0 0 0 0 0.278431 0 0 0 0 0.27451 0 0 0 0.28 0"/>
<feBlend mode="normal" in2="BackgroundImageFix" result="effect1_dropShadow_127_21"/>
<feBlend mode="normal" in="SourceGraphic" in2="effect1_dropShadow_127_21" result="shape"/>
</filter>
</defs>
</svg>
