<svg width="574" height="574" viewBox="0 0 574 574" fill="none" xmlns="http://www.w3.org/2000/svg">
<g filter="url(#filter0_d_127_58)">
<rect x="26.9196" y="12.2173" width="519.783" height="519.783" rx="73.6907" fill="#2FD82F"/>
</g>
<mask id="path-2-outside-1_127_58" maskUnits="userSpaceOnUse" x="164.112" y="134.603" width="238" height="292" fill="black">
<rect fill="white" x="164.112" y="134.603" width="238" height="292"/>
<path d="M361.87 250.742C362.126 247.924 363.151 245.746 364.945 244.209C366.738 242.415 368.659 241.263 370.709 240.75C368.403 229.99 364.945 219.87 360.333 210.39C355.721 200.911 349.573 192.713 341.887 185.795C332.407 177.597 321.903 171.192 310.374 166.58C298.845 161.968 286.931 159.663 274.634 159.663C262.592 159.663 250.551 162.097 238.51 166.964C223.394 173.369 211.224 182.593 202.001 194.634C193.034 206.675 188.55 220.382 188.55 235.754C188.55 238.572 188.678 241.519 188.935 244.593C189.447 247.411 189.96 250.358 190.472 253.432C193.803 267.267 199.951 279.052 208.918 288.788C217.885 298.523 229.414 305.185 243.505 308.771C247.861 310.052 252.344 310.949 256.956 311.462C261.568 311.718 266.435 311.846 271.559 311.846C281.551 311.846 291.671 310.693 301.919 308.387C312.423 306.081 321.903 302.495 330.357 297.627C339.068 292.503 346.242 286.098 351.878 278.412C357.771 270.726 361.102 261.502 361.87 250.742ZM232.745 146.212C239.662 143.65 246.708 141.857 253.882 140.832C261.311 139.551 268.741 138.91 276.171 138.91C292.312 138.91 307.812 141.985 322.671 148.134C337.787 154.026 350.982 163.249 362.254 175.803C368.403 182.721 373.655 190.535 378.011 199.246C382.622 207.7 386.337 216.667 389.156 226.147C392.23 235.626 394.408 245.362 395.689 255.354C396.97 265.345 397.61 275.337 397.61 285.329C397.61 293.527 397.226 301.47 396.457 309.156C395.689 316.842 394.408 324.272 392.614 331.445C387.49 354.759 378.139 374.103 364.56 389.475C350.982 404.847 332.151 414.967 308.068 419.834C302.944 420.859 297.948 421.628 293.08 422.14C288.212 422.653 283.217 422.909 278.093 422.909C262.208 422.909 247.348 419.963 233.514 414.07C219.679 408.177 208.022 398.185 198.542 384.094C197.261 382.045 196.621 380.123 196.621 378.33C196.621 375.512 197.774 373.206 200.079 371.412C202.641 369.363 205.332 368.338 208.15 368.338C211.993 368.338 214.939 369.875 216.989 372.95C223.906 383.454 232.745 391.012 243.505 395.623C254.522 399.979 266.051 402.157 278.093 402.157C285.01 402.157 291.927 401.516 298.845 400.235C306.018 398.698 312.808 396.648 319.213 394.086C328.692 390.499 336.762 385.76 343.424 379.867C350.085 373.975 355.593 367.185 359.949 359.499C364.56 351.813 368.019 343.487 370.325 334.52C372.631 325.553 374.168 316.201 374.936 306.466C375.193 303.391 375.321 300.317 375.321 297.242C375.321 293.912 375.321 290.453 375.321 286.866V280.333C370.965 289.3 365.073 297.114 357.643 303.776C350.213 310.437 341.887 316.073 332.663 320.685C323.44 325.04 313.576 328.371 303.072 330.677C292.824 332.982 282.448 334.135 271.944 334.135C254.266 334.135 237.741 330.805 222.369 324.143C203.922 315.689 190.216 303.776 181.249 288.403C172.282 272.775 167.798 256.378 167.798 239.213C167.798 229.477 169.207 219.87 172.025 210.39C174.844 200.911 178.943 192.072 184.323 183.874C189.96 175.675 196.749 168.373 204.691 161.968C212.889 155.307 222.241 150.055 232.745 146.212Z"/>
</mask>
<path d="M361.87 250.742C362.126 247.924 363.151 245.746 364.945 244.209C366.738 242.415 368.659 241.263 370.709 240.75C368.403 229.99 364.945 219.87 360.333 210.39C355.721 200.911 349.573 192.713 341.887 185.795C332.407 177.597 321.903 171.192 310.374 166.58C298.845 161.968 286.931 159.663 274.634 159.663C262.592 159.663 250.551 162.097 238.51 166.964C223.394 173.369 211.224 182.593 202.001 194.634C193.034 206.675 188.55 220.382 188.55 235.754C188.55 238.572 188.678 241.519 188.935 244.593C189.447 247.411 189.96 250.358 190.472 253.432C193.803 267.267 199.951 279.052 208.918 288.788C217.885 298.523 229.414 305.185 243.505 308.771C247.861 310.052 252.344 310.949 256.956 311.462C261.568 311.718 266.435 311.846 271.559 311.846C281.551 311.846 291.671 310.693 301.919 308.387C312.423 306.081 321.903 302.495 330.357 297.627C339.068 292.503 346.242 286.098 351.878 278.412C357.771 270.726 361.102 261.502 361.87 250.742ZM232.745 146.212C239.662 143.65 246.708 141.857 253.882 140.832C261.311 139.551 268.741 138.91 276.171 138.91C292.312 138.91 307.812 141.985 322.671 148.134C337.787 154.026 350.982 163.249 362.254 175.803C368.403 182.721 373.655 190.535 378.011 199.246C382.622 207.7 386.337 216.667 389.156 226.147C392.23 235.626 394.408 245.362 395.689 255.354C396.97 265.345 397.61 275.337 397.61 285.329C397.61 293.527 397.226 301.47 396.457 309.156C395.689 316.842 394.408 324.272 392.614 331.445C387.49 354.759 378.139 374.103 364.56 389.475C350.982 404.847 332.151 414.967 308.068 419.834C302.944 420.859 297.948 421.628 293.08 422.14C288.212 422.653 283.217 422.909 278.093 422.909C262.208 422.909 247.348 419.963 233.514 414.07C219.679 408.177 208.022 398.185 198.542 384.094C197.261 382.045 196.621 380.123 196.621 378.33C196.621 375.512 197.774 373.206 200.079 371.412C202.641 369.363 205.332 368.338 208.15 368.338C211.993 368.338 214.939 369.875 216.989 372.95C223.906 383.454 232.745 391.012 243.505 395.623C254.522 399.979 266.051 402.157 278.093 402.157C285.01 402.157 291.927 401.516 298.845 400.235C306.018 398.698 312.808 396.648 319.213 394.086C328.692 390.499 336.762 385.76 343.424 379.867C350.085 373.975 355.593 367.185 359.949 359.499C364.56 351.813 368.019 343.487 370.325 334.52C372.631 325.553 374.168 316.201 374.936 306.466C375.193 303.391 375.321 300.317 375.321 297.242C375.321 293.912 375.321 290.453 375.321 286.866V280.333C370.965 289.3 365.073 297.114 357.643 303.776C350.213 310.437 341.887 316.073 332.663 320.685C323.44 325.04 313.576 328.371 303.072 330.677C292.824 332.982 282.448 334.135 271.944 334.135C254.266 334.135 237.741 330.805 222.369 324.143C203.922 315.689 190.216 303.776 181.249 288.403C172.282 272.775 167.798 256.378 167.798 239.213C167.798 229.477 169.207 219.87 172.025 210.39C174.844 200.911 178.943 192.072 184.323 183.874C189.96 175.675 196.749 168.373 204.691 161.968C212.889 155.307 222.241 150.055 232.745 146.212Z" fill="white"/>
<path d="M361.87 250.742L358.253 250.413L358.249 250.448L358.247 250.483L361.87 250.742ZM364.945 244.209L367.309 246.967L367.415 246.876L367.513 246.777L364.945 244.209ZM370.709 240.75L371.59 244.274L374.997 243.423L374.261 239.989L370.709 240.75ZM341.887 185.795L344.317 183.095L344.29 183.071L344.263 183.048L341.887 185.795ZM238.51 166.964L237.148 163.597L237.12 163.608L237.092 163.62L238.51 166.964ZM202.001 194.634L199.117 192.425L199.102 192.445L199.087 192.464L202.001 194.634ZM188.935 244.593L185.315 244.895L185.329 245.07L185.361 245.243L188.935 244.593ZM190.472 253.432L186.889 254.029L186.91 254.157L186.94 254.282L190.472 253.432ZM208.918 288.788L206.246 291.249L208.918 288.788ZM243.505 308.771L244.53 305.286L244.466 305.268L244.402 305.251L243.505 308.771ZM256.956 311.462L256.555 315.072L256.654 315.083L256.754 315.088L256.956 311.462ZM301.919 308.387L301.14 304.839L301.131 304.841L301.122 304.843L301.919 308.387ZM330.357 297.627L332.17 300.775L332.185 300.766L332.199 300.758L330.357 297.627ZM351.878 278.412L348.996 276.201L348.972 276.232L348.949 276.263L351.878 278.412ZM232.745 146.212L233.993 149.623L234 149.621L234.007 149.618L232.745 146.212ZM253.882 140.832L254.395 144.428L254.447 144.42L254.499 144.412L253.882 140.832ZM322.671 148.134L321.283 151.49L321.317 151.504L321.352 151.518L322.671 148.134ZM362.254 175.803L364.969 173.39L364.963 173.383L364.957 173.376L362.254 175.803ZM378.011 199.246L374.762 200.87L374.791 200.928L374.822 200.985L378.011 199.246ZM389.156 226.147L385.674 227.182L385.686 227.225L385.7 227.267L389.156 226.147ZM392.614 331.445L389.09 330.564L389.078 330.615L389.066 330.665L392.614 331.445ZM364.56 389.475L361.838 387.07L364.56 389.475ZM308.068 419.834L308.78 423.396L308.788 423.395L308.068 419.834ZM198.542 384.094L195.462 386.02L195.494 386.071L195.528 386.122L198.542 384.094ZM200.079 371.412L202.31 374.28L202.329 374.265L202.349 374.249L200.079 371.412ZM216.989 372.95L220.022 370.952L220.017 370.943L220.011 370.935L216.989 372.95ZM243.505 395.623L242.075 398.962L242.122 398.983L242.17 399.002L243.505 395.623ZM298.845 400.235L299.506 403.807L299.556 403.798L299.606 403.787L298.845 400.235ZM319.213 394.086L317.927 390.689L317.895 390.701L317.864 390.714L319.213 394.086ZM359.949 359.499L356.834 357.63L356.811 357.669L356.788 357.708L359.949 359.499ZM374.936 306.466L371.316 306.164L371.316 306.172L371.315 306.18L374.936 306.466ZM375.321 280.333H378.953L372.053 278.746L375.321 280.333ZM357.643 303.776L355.218 301.071L357.643 303.776ZM332.663 320.685L334.214 323.969L334.251 323.952L334.288 323.934L332.663 320.685ZM303.072 330.677L302.293 327.129L302.284 327.131L302.275 327.133L303.072 330.677ZM222.369 324.143L220.855 327.446L220.89 327.461L220.925 327.477L222.369 324.143ZM181.249 288.403L178.098 290.211L178.104 290.223L178.111 290.234L181.249 288.403ZM172.025 210.39L168.544 209.355L172.025 210.39ZM184.323 183.874L181.33 181.816L181.308 181.848L181.286 181.881L184.323 183.874ZM204.691 161.968L206.971 164.796L206.982 164.788L204.691 161.968ZM361.87 250.742L365.488 251.071C365.676 248.996 366.372 247.77 367.309 246.967L364.945 244.209L362.581 241.451C359.93 243.722 358.576 246.852 358.253 250.413L361.87 250.742ZM364.945 244.209L367.513 246.777C368.935 245.356 370.297 244.598 371.59 244.274L370.709 240.75L369.828 237.226C367.022 237.928 364.541 239.475 362.376 241.64L364.945 244.209ZM370.709 240.75L374.261 239.989C371.896 228.955 368.345 218.555 363.599 208.801L360.333 210.39L357.066 211.979C361.544 221.184 364.91 231.025 367.157 241.511L370.709 240.75ZM360.333 210.39L363.599 208.801C358.787 198.909 352.357 190.332 344.317 183.095L341.887 185.795L339.456 188.495C346.788 195.093 352.655 202.912 357.066 211.979L360.333 210.39ZM341.887 185.795L344.263 183.048C334.481 174.588 323.63 167.97 311.723 163.207L310.374 166.58L309.025 169.953C320.175 174.413 330.333 180.606 339.51 188.543L341.887 185.795ZM310.374 166.58L311.723 163.207C299.769 158.426 287.398 156.03 274.634 156.03V159.663V163.295C286.465 163.295 297.921 165.511 309.025 169.953L310.374 166.58ZM274.634 159.663V156.03C262.09 156.03 249.588 158.568 237.148 163.597L238.51 166.964L239.871 170.332C251.514 165.625 263.095 163.295 274.634 163.295V159.663ZM238.51 166.964L237.092 163.62C221.447 170.249 208.754 179.844 199.117 192.425L202.001 194.634L204.885 196.843C213.694 185.341 225.341 176.49 239.927 170.309L238.51 166.964ZM202.001 194.634L199.087 192.464C189.642 205.149 184.918 219.621 184.918 235.754H188.55H192.183C192.183 221.144 196.426 208.202 204.914 196.804L202.001 194.634ZM188.55 235.754H184.918C184.918 238.682 185.051 241.729 185.315 244.895L188.935 244.593L192.555 244.291C192.306 241.308 192.183 238.463 192.183 235.754H188.55ZM188.935 244.593L185.361 245.243C185.87 248.042 186.379 250.971 186.889 254.029L190.472 253.432L194.055 252.835C193.54 249.744 193.024 246.781 192.509 243.943L188.935 244.593ZM190.472 253.432L186.94 254.282C190.404 268.672 196.829 281.024 206.246 291.249L208.918 288.788L211.59 286.327C203.074 277.08 197.201 265.862 194.004 252.582L190.472 253.432ZM208.918 288.788L206.246 291.249C215.737 301.553 227.906 308.549 242.609 312.292L243.505 308.771L244.402 305.251C230.923 301.82 220.034 295.494 211.59 286.327L208.918 288.788ZM243.505 308.771L242.48 312.256C247.044 313.599 251.737 314.536 256.555 315.072L256.956 311.462L257.357 307.851C252.952 307.362 248.678 306.506 244.53 305.286L243.505 308.771ZM256.956 311.462L256.754 315.088C261.44 315.349 266.375 315.478 271.559 315.478V311.846V308.213C266.495 308.213 261.695 308.087 257.157 307.835L256.956 311.462ZM271.559 311.846V315.478C281.833 315.478 292.22 314.293 302.717 311.931L301.919 308.387L301.122 304.843C291.122 307.093 281.27 308.213 271.559 308.213V311.846ZM301.919 308.387L302.698 311.935C313.528 309.558 323.362 305.846 332.17 300.775L330.357 297.627L328.545 294.479C320.444 299.143 311.318 302.605 301.14 304.839L301.919 308.387ZM330.357 297.627L332.199 300.758C341.31 295.399 348.862 288.668 354.808 280.56L351.878 278.412L348.949 276.263C343.622 283.528 336.827 289.607 328.516 294.496L330.357 297.627ZM351.878 278.412L354.761 280.622C361.135 272.309 364.68 262.386 365.493 251.001L361.87 250.742L358.247 250.483C357.523 260.618 354.407 269.143 348.996 276.201L351.878 278.412ZM232.745 146.212L234.007 149.618C240.687 147.144 247.482 145.416 254.395 144.428L253.882 140.832L253.368 137.236C245.934 138.298 238.638 140.156 231.483 142.806L232.745 146.212ZM253.882 140.832L254.499 144.412C261.728 143.165 268.951 142.543 276.171 142.543V138.91V135.278C268.531 135.278 260.895 135.937 253.264 137.252L253.882 140.832ZM276.171 138.91V142.543C291.837 142.543 306.865 145.524 321.283 151.49L322.671 148.134L324.06 144.777C308.759 138.445 292.786 135.278 276.171 135.278V138.91ZM322.671 148.134L321.352 151.518C335.917 157.196 348.643 166.082 359.552 178.23L362.254 175.803L364.957 173.376C353.32 160.417 339.658 150.857 323.991 144.749L322.671 148.134ZM362.254 175.803L359.539 178.217C365.466 184.884 370.542 192.43 374.762 200.87L378.011 199.246L381.26 197.621C376.769 188.64 371.341 180.558 364.969 173.39L362.254 175.803ZM378.011 199.246L374.822 200.985C379.308 209.21 382.926 217.94 385.674 227.182L389.156 226.147L392.637 225.112C389.749 215.394 385.937 206.191 381.2 197.506L378.011 199.246ZM389.156 226.147L385.7 227.267C388.704 236.53 390.833 246.045 392.086 255.816L395.689 255.354L399.292 254.892C397.982 244.679 395.756 234.722 392.611 225.026L389.156 226.147ZM395.689 255.354L392.086 255.816C393.347 265.655 393.978 275.493 393.978 285.329H397.61H401.243C401.243 275.182 400.592 265.035 399.292 254.892L395.689 255.354ZM397.61 285.329H393.978C393.978 293.414 393.599 301.235 392.843 308.794L396.457 309.156L400.072 309.517C400.853 301.704 401.243 293.641 401.243 285.329H397.61ZM396.457 309.156L392.843 308.794C392.091 316.313 390.839 323.569 389.09 330.564L392.614 331.445L396.138 332.326C397.976 324.974 399.286 317.371 400.072 309.517L396.457 309.156ZM392.614 331.445L389.066 330.665C384.053 353.476 374.945 372.231 361.838 387.07L364.56 389.475L367.283 391.88C381.333 375.974 390.927 356.043 396.162 332.225L392.614 331.445ZM364.56 389.475L361.838 387.07C348.881 401.738 330.814 411.531 307.348 416.274L308.068 419.834L308.788 423.395C333.488 418.402 353.083 407.955 367.283 391.88L364.56 389.475ZM308.068 419.834L307.356 416.272C302.334 417.277 297.449 418.028 292.7 418.528L293.08 422.14L293.461 425.753C298.447 425.228 303.554 424.442 308.78 423.396L308.068 419.834ZM293.08 422.14L292.7 418.528C287.964 419.026 283.095 419.276 278.093 419.276V422.909V426.541C283.338 426.541 288.461 426.279 293.461 425.753L293.08 422.14ZM278.093 422.909V419.276C262.669 419.276 248.297 416.418 234.937 410.728L233.514 414.07L232.09 417.412C246.4 423.507 261.747 426.541 278.093 426.541V422.909ZM233.514 414.07L234.937 410.728C221.829 405.145 210.696 395.653 201.556 382.067L198.542 384.094L195.528 386.122C205.347 400.718 217.528 411.21 232.09 417.412L233.514 414.07ZM198.542 384.094L201.623 382.169C200.581 380.502 200.253 379.245 200.253 378.33H196.621H192.988C192.988 381.002 193.942 383.587 195.462 386.02L198.542 384.094ZM196.621 378.33H200.253C200.253 376.68 200.851 375.414 202.31 374.28L200.079 371.412L197.849 368.545C194.696 370.997 192.988 374.344 192.988 378.33H196.621ZM200.079 371.412L202.349 374.249C204.377 372.626 206.288 371.971 208.15 371.971V368.338V364.706C204.375 364.706 200.906 366.1 197.81 368.576L200.079 371.412ZM208.15 368.338V371.971C210.837 371.971 212.622 372.948 213.966 374.965L216.989 372.95L220.011 370.935C217.256 366.802 213.149 364.706 208.15 364.706V368.338ZM216.989 372.95L213.955 374.948C221.233 386 230.611 394.049 242.075 398.962L243.505 395.623L244.936 392.285C234.879 387.974 226.579 380.908 220.022 370.952L216.989 372.95ZM243.505 395.623L242.17 399.002C253.619 403.528 265.602 405.789 278.093 405.789V402.157V398.524C266.501 398.524 255.425 396.43 244.841 392.245L243.505 395.623ZM278.093 402.157V405.789C285.236 405.789 292.374 405.128 299.506 403.807L298.845 400.235L298.183 396.663C291.48 397.905 284.784 398.524 278.093 398.524V402.157ZM298.845 400.235L299.606 403.787C306.968 402.209 313.955 400.102 320.562 397.459L319.213 394.086L317.864 390.714C311.661 393.195 305.069 395.186 298.084 396.683L298.845 400.235ZM319.213 394.086L320.498 397.484C330.333 393.763 338.797 388.81 345.831 382.588L343.424 379.867L341.017 377.146C334.728 382.71 327.052 387.236 317.927 390.689L319.213 394.086ZM343.424 379.867L345.831 382.588C352.791 376.431 358.554 369.328 363.109 361.29L359.949 359.499L356.788 357.708C352.632 365.042 347.379 371.518 341.017 377.146L343.424 379.867ZM359.949 359.499L363.064 361.368C367.861 353.372 371.453 344.719 373.843 335.424L370.325 334.52L366.807 333.615C364.585 342.254 361.259 350.254 356.834 357.63L359.949 359.499ZM370.325 334.52L373.843 335.424C376.204 326.244 377.773 316.685 378.558 306.752L374.936 306.466L371.315 306.18C370.562 315.718 369.058 324.862 366.807 333.615L370.325 334.52ZM374.936 306.466L378.556 306.767C378.821 303.593 378.953 300.418 378.953 297.242H375.321H371.688C371.688 300.216 371.564 303.19 371.316 306.164L374.936 306.466ZM375.321 297.242H378.953C378.953 297.236 378.953 297.229 378.953 297.223C378.953 297.216 378.953 297.21 378.953 297.203C378.953 297.197 378.953 297.19 378.953 297.184C378.953 297.177 378.953 297.171 378.953 297.164C378.953 297.158 378.953 297.151 378.953 297.145C378.953 297.138 378.953 297.132 378.953 297.125C378.953 297.119 378.953 297.112 378.953 297.106C378.953 297.099 378.953 297.093 378.953 297.086C378.953 297.08 378.953 297.073 378.953 297.067C378.953 297.06 378.953 297.054 378.953 297.047C378.953 297.041 378.953 297.034 378.953 297.028C378.953 297.021 378.953 297.015 378.953 297.008C378.953 297.001 378.953 296.995 378.953 296.988C378.953 296.982 378.953 296.975 378.953 296.969C378.953 296.962 378.953 296.956 378.953 296.949C378.953 296.943 378.953 296.936 378.953 296.93C378.953 296.923 378.953 296.917 378.953 296.91C378.953 296.904 378.953 296.897 378.953 296.891C378.953 296.884 378.953 296.878 378.953 296.871C378.953 296.865 378.953 296.858 378.953 296.852C378.953 296.845 378.953 296.838 378.953 296.832C378.953 296.825 378.953 296.819 378.953 296.812C378.953 296.806 378.953 296.799 378.953 296.793C378.953 296.786 378.953 296.78 378.953 296.773C378.953 296.767 378.953 296.76 378.953 296.754C378.953 296.747 378.953 296.741 378.953 296.734C378.953 296.727 378.953 296.721 378.953 296.714C378.953 296.708 378.953 296.701 378.953 296.695C378.953 296.688 378.953 296.682 378.953 296.675C378.953 296.669 378.953 296.662 378.953 296.656C378.953 296.649 378.953 296.643 378.953 296.636C378.953 296.629 378.953 296.623 378.953 296.616C378.953 296.61 378.953 296.603 378.953 296.597C378.953 296.59 378.953 296.584 378.953 296.577C378.953 296.571 378.953 296.564 378.953 296.558C378.953 296.551 378.953 296.544 378.953 296.538C378.953 296.531 378.953 296.525 378.953 296.518C378.953 296.512 378.953 296.505 378.953 296.499C378.953 296.492 378.953 296.486 378.953 296.479C378.953 296.473 378.953 296.466 378.953 296.459C378.953 296.453 378.953 296.446 378.953 296.44C378.953 296.433 378.953 296.427 378.953 296.42C378.953 296.414 378.953 296.407 378.953 296.401C378.953 296.394 378.953 296.387 378.953 296.381C378.953 296.374 378.953 296.368 378.953 296.361C378.953 296.355 378.953 296.348 378.953 296.342C378.953 296.335 378.953 296.328 378.953 296.322C378.953 296.315 378.953 296.309 378.953 296.302C378.953 296.296 378.953 296.289 378.953 296.283C378.953 296.276 378.953 296.27 378.953 296.263C378.953 296.256 378.953 296.25 378.953 296.243C378.953 296.237 378.953 296.23 378.953 296.224C378.953 296.217 378.953 296.211 378.953 296.204C378.953 296.197 378.953 296.191 378.953 296.184C378.953 296.178 378.953 296.171 378.953 296.165C378.953 296.158 378.953 296.152 378.953 296.145C378.953 296.138 378.953 296.132 378.953 296.125C378.953 296.119 378.953 296.112 378.953 296.106C378.953 296.099 378.953 296.092 378.953 296.086C378.953 296.079 378.953 296.073 378.953 296.066C378.953 296.06 378.953 296.053 378.953 296.047C378.953 296.04 378.953 296.033 378.953 296.027C378.953 296.02 378.953 296.014 378.953 296.007C378.953 296.001 378.953 295.994 378.953 295.987C378.953 295.981 378.953 295.974 378.953 295.968C378.953 295.961 378.953 295.955 378.953 295.948C378.953 295.941 378.953 295.935 378.953 295.928C378.953 295.922 378.953 295.915 378.953 295.909C378.953 295.902 378.953 295.895 378.953 295.889C378.953 295.882 378.953 295.876 378.953 295.869C378.953 295.863 378.953 295.856 378.953 295.849C378.953 295.843 378.953 295.836 378.953 295.83C378.953 295.823 378.953 295.817 378.953 295.81C378.953 295.803 378.953 295.797 378.953 295.79C378.953 295.784 378.953 295.777 378.953 295.771C378.953 295.764 378.953 295.757 378.953 295.751C378.953 295.744 378.953 295.738 378.953 295.731C378.953 295.724 378.953 295.718 378.953 295.711C378.953 295.705 378.953 295.698 378.953 295.692C378.953 295.685 378.953 295.678 378.953 295.672C378.953 295.665 378.953 295.659 378.953 295.652C378.953 295.645 378.953 295.639 378.953 295.632C378.953 295.626 378.953 295.619 378.953 295.613C378.953 295.606 378.953 295.599 378.953 295.593C378.953 295.586 378.953 295.58 378.953 295.573C378.953 295.566 378.953 295.56 378.953 295.553C378.953 295.547 378.953 295.54 378.953 295.533C378.953 295.527 378.953 295.52 378.953 295.514C378.953 295.507 378.953 295.501 378.953 295.494C378.953 295.487 378.953 295.481 378.953 295.474C378.953 295.468 378.953 295.461 378.953 295.454C378.953 295.448 378.953 295.441 378.953 295.435C378.953 295.428 378.953 295.421 378.953 295.415C378.953 295.408 378.953 295.402 378.953 295.395C378.953 295.388 378.953 295.382 378.953 295.375C378.953 295.369 378.953 295.362 378.953 295.355C378.953 295.349 378.953 295.342 378.953 295.336C378.953 295.329 378.953 295.322 378.953 295.316C378.953 295.309 378.953 295.303 378.953 295.296C378.953 295.289 378.953 295.283 378.953 295.276C378.953 295.27 378.953 295.263 378.953 295.256C378.953 295.25 378.953 295.243 378.953 295.237C378.953 295.23 378.953 295.223 378.953 295.217C378.953 295.21 378.953 295.204 378.953 295.197C378.953 295.19 378.953 295.184 378.953 295.177C378.953 295.171 378.953 295.164 378.953 295.157C378.953 295.151 378.953 295.144 378.953 295.137C378.953 295.131 378.953 295.124 378.953 295.118C378.953 295.111 378.953 295.104 378.953 295.098C378.953 295.091 378.953 295.085 378.953 295.078C378.953 295.071 378.953 295.065 378.953 295.058C378.953 295.052 378.953 295.045 378.953 295.038C378.953 295.032 378.953 295.025 378.953 295.018C378.953 295.012 378.953 295.005 378.953 294.999C378.953 294.992 378.953 294.985 378.953 294.979C378.953 294.972 378.953 294.966 378.953 294.959C378.953 294.952 378.953 294.946 378.953 294.939C378.953 294.932 378.953 294.926 378.953 294.919C378.953 294.913 378.953 294.906 378.953 294.899C378.953 294.893 378.953 294.886 378.953 294.879C378.953 294.873 378.953 294.866 378.953 294.86C378.953 294.853 378.953 294.846 378.953 294.84C378.953 294.833 378.953 294.826 378.953 294.82C378.953 294.813 378.953 294.807 378.953 294.8C378.953 294.793 378.953 294.787 378.953 294.78C378.953 294.773 378.953 294.767 378.953 294.76C378.953 294.754 378.953 294.747 378.953 294.74C378.953 294.734 378.953 294.727 378.953 294.72C378.953 294.714 378.953 294.707 378.953 294.701C378.953 294.694 378.953 294.687 378.953 294.681C378.953 294.674 378.953 294.667 378.953 294.661C378.953 294.654 378.953 294.647 378.953 294.641C378.953 294.634 378.953 294.628 378.953 294.621C378.953 294.614 378.953 294.608 378.953 294.601C378.953 294.594 378.953 294.588 378.953 294.581C378.953 294.574 378.953 294.568 378.953 294.561C378.953 294.555 378.953 294.548 378.953 294.541C378.953 294.535 378.953 294.528 378.953 294.521C378.953 294.515 378.953 294.508 378.953 294.501C378.953 294.495 378.953 294.488 378.953 294.482C378.953 294.475 378.953 294.468 378.953 294.462C378.953 294.455 378.953 294.448 378.953 294.442C378.953 294.435 378.953 294.428 378.953 294.422C378.953 294.415 378.953 294.408 378.953 294.402C378.953 294.395 378.953 294.389 378.953 294.382C378.953 294.375 378.953 294.369 378.953 294.362C378.953 294.355 378.953 294.349 378.953 294.342C378.953 294.335 378.953 294.329 378.953 294.322C378.953 294.315 378.953 294.309 378.953 294.302C378.953 294.295 378.953 294.289 378.953 294.282C378.953 294.275 378.953 294.269 378.953 294.262C378.953 294.256 378.953 294.249 378.953 294.242C378.953 294.236 378.953 294.229 378.953 294.222C378.953 294.216 378.953 294.209 378.953 294.202C378.953 294.196 378.953 294.189 378.953 294.182C378.953 294.176 378.953 294.169 378.953 294.162C378.953 294.156 378.953 294.149 378.953 294.142C378.953 294.136 378.953 294.129 378.953 294.122C378.953 294.116 378.953 294.109 378.953 294.102C378.953 294.096 378.953 294.089 378.953 294.082C378.953 294.076 378.953 294.069 378.953 294.062C378.953 294.056 378.953 294.049 378.953 294.042C378.953 294.036 378.953 294.029 378.953 294.022C378.953 294.016 378.953 294.009 378.953 294.002C378.953 293.996 378.953 293.989 378.953 293.982C378.953 293.976 378.953 293.969 378.953 293.962C378.953 293.956 378.953 293.949 378.953 293.942C378.953 293.936 378.953 293.929 378.953 293.922C378.953 293.916 378.953 293.909 378.953 293.902C378.953 293.896 378.953 293.889 378.953 293.882C378.953 293.876 378.953 293.869 378.953 293.862C378.953 293.856 378.953 293.849 378.953 293.842C378.953 293.836 378.953 293.829 378.953 293.822C378.953 293.816 378.953 293.809 378.953 293.802C378.953 293.796 378.953 293.789 378.953 293.782C378.953 293.776 378.953 293.769 378.953 293.762C378.953 293.756 378.953 293.749 378.953 293.742C378.953 293.736 378.953 293.729 378.953 293.722C378.953 293.716 378.953 293.709 378.953 293.702C378.953 293.696 378.953 293.689 378.953 293.682C378.953 293.675 378.953 293.669 378.953 293.662C378.953 293.655 378.953 293.649 378.953 293.642C378.953 293.635 378.953 293.629 378.953 293.622C378.953 293.615 378.953 293.609 378.953 293.602C378.953 293.595 378.953 293.589 378.953 293.582C378.953 293.575 378.953 293.569 378.953 293.562C378.953 293.555 378.953 293.548 378.953 293.542C378.953 293.535 378.953 293.528 378.953 293.522C378.953 293.515 378.953 293.508 378.953 293.502C378.953 293.495 378.953 293.488 378.953 293.482C378.953 293.475 378.953 293.468 378.953 293.461C378.953 293.455 378.953 293.448 378.953 293.441C378.953 293.435 378.953 293.428 378.953 293.421C378.953 293.415 378.953 293.408 378.953 293.401C378.953 293.395 378.953 293.388 378.953 293.381C378.953 293.374 378.953 293.368 378.953 293.361C378.953 293.354 378.953 293.348 378.953 293.341C378.953 293.334 378.953 293.328 378.953 293.321C378.953 293.314 378.953 293.307 378.953 293.301C378.953 293.294 378.953 293.287 378.953 293.281C378.953 293.274 378.953 293.267 378.953 293.261C378.953 293.254 378.953 293.247 378.953 293.24C378.953 293.234 378.953 293.227 378.953 293.22C378.953 293.214 378.953 293.207 378.953 293.2C378.953 293.194 378.953 293.187 378.953 293.18C378.953 293.173 378.953 293.167 378.953 293.16C378.953 293.153 378.953 293.147 378.953 293.14C378.953 293.133 378.953 293.126 378.953 293.12C378.953 293.113 378.953 293.106 378.953 293.1C378.953 293.093 378.953 293.086 378.953 293.08C378.953 293.073 378.953 293.066 378.953 293.059C378.953 293.053 378.953 293.046 378.953 293.039C378.953 293.033 378.953 293.026 378.953 293.019C378.953 293.012 378.953 293.006 378.953 292.999C378.953 292.992 378.953 292.986 378.953 292.979C378.953 292.972 378.953 292.965 378.953 292.959C378.953 292.952 378.953 292.945 378.953 292.939C378.953 292.932 378.953 292.925 378.953 292.918C378.953 292.912 378.953 292.905 378.953 292.898C378.953 292.892 378.953 292.885 378.953 292.878C378.953 292.871 378.953 292.865 378.953 292.858C378.953 292.851 378.953 292.844 378.953 292.838C378.953 292.831 378.953 292.824 378.953 292.818C378.953 292.811 378.953 292.804 378.953 292.797C378.953 292.791 378.953 292.784 378.953 292.777C378.953 292.771 378.953 292.764 378.953 292.757C378.953 292.75 378.953 292.744 378.953 292.737C378.953 292.73 378.953 292.723 378.953 292.717C378.953 292.71 378.953 292.703 378.953 292.697C378.953 292.69 378.953 292.683 378.953 292.676C378.953 292.67 378.953 292.663 378.953 292.656C378.953 292.649 378.953 292.643 378.953 292.636C378.953 292.629 378.953 292.622 378.953 292.616C378.953 292.609 378.953 292.602 378.953 292.596C378.953 292.589 378.953 292.582 378.953 292.575C378.953 292.569 378.953 292.562 378.953 292.555C378.953 292.548 378.953 292.542 378.953 292.535C378.953 292.528 378.953 292.521 378.953 292.515C378.953 292.508 378.953 292.501 378.953 292.495C378.953 292.488 378.953 292.481 378.953 292.474C378.953 292.468 378.953 292.461 378.953 292.454C378.953 292.447 378.953 292.441 378.953 292.434C378.953 292.427 378.953 292.42 378.953 292.414C378.953 292.407 378.953 292.4 378.953 292.393C378.953 292.387 378.953 292.38 378.953 292.373C378.953 292.366 378.953 292.36 378.953 292.353C378.953 292.346 378.953 292.339 378.953 292.333C378.953 292.326 378.953 292.319 378.953 292.312C378.953 292.306 378.953 292.299 378.953 292.292C378.953 292.285 378.953 292.279 378.953 292.272C378.953 292.265 378.953 292.258 378.953 292.252C378.953 292.245 378.953 292.238 378.953 292.231C378.953 292.225 378.953 292.218 378.953 292.211C378.953 292.204 378.953 292.198 378.953 292.191C378.953 292.184 378.953 292.177 378.953 292.171C378.953 292.164 378.953 292.157 378.953 292.15C378.953 292.144 378.953 292.137 378.953 292.13C378.953 292.123 378.953 292.117 378.953 292.11C378.953 292.103 378.953 292.096 378.953 292.09C378.953 292.083 378.953 292.076 378.953 292.069C378.953 292.063 378.953 292.056 378.953 292.049C378.953 292.042 378.953 292.036 378.953 292.029C378.953 292.022 378.953 292.015 378.953 292.008C378.953 292.002 378.953 291.995 378.953 291.988C378.953 291.981 378.953 291.975 378.953 291.968C378.953 291.961 378.953 291.954 378.953 291.948C378.953 291.941 378.953 291.934 378.953 291.927C378.953 291.921 378.953 291.914 378.953 291.907C378.953 291.9 378.953 291.893 378.953 291.887C378.953 291.88 378.953 291.873 378.953 291.866C378.953 291.86 378.953 291.853 378.953 291.846C378.953 291.839 378.953 291.833 378.953 291.826C378.953 291.819 378.953 291.812 378.953 291.805C378.953 291.799 378.953 291.792 378.953 291.785C378.953 291.778 378.953 291.772 378.953 291.765C378.953 291.758 378.953 291.751 378.953 291.745C378.953 291.738 378.953 291.731 378.953 291.724C378.953 291.717 378.953 291.711 378.953 291.704C378.953 291.697 378.953 291.69 378.953 291.684C378.953 291.677 378.953 291.67 378.953 291.663C378.953 291.656 378.953 291.65 378.953 291.643C378.953 291.636 378.953 291.629 378.953 291.623C378.953 291.616 378.953 291.609 378.953 291.602C378.953 291.595 378.953 291.589 378.953 291.582C378.953 291.575 378.953 291.568 378.953 291.561C378.953 291.555 378.953 291.548 378.953 291.541C378.953 291.534 378.953 291.528 378.953 291.521C378.953 291.514 378.953 291.507 378.953 291.5C378.953 291.494 378.953 291.487 378.953 291.48C378.953 291.473 378.953 291.466 378.953 291.46C378.953 291.453 378.953 291.446 378.953 291.439C378.953 291.433 378.953 291.426 378.953 291.419C378.953 291.412 378.953 291.405 378.953 291.399C378.953 291.392 378.953 291.385 378.953 291.378C378.953 291.371 378.953 291.365 378.953 291.358C378.953 291.351 378.953 291.344 378.953 291.337C378.953 291.331 378.953 291.324 378.953 291.317C378.953 291.31 378.953 291.303 378.953 291.297C378.953 291.29 378.953 291.283 378.953 291.276C378.953 291.269 378.953 291.263 378.953 291.256C378.953 291.249 378.953 291.242 378.953 291.235C378.953 291.229 378.953 291.222 378.953 291.215C378.953 291.208 378.953 291.201 378.953 291.195C378.953 291.188 378.953 291.181 378.953 291.174C378.953 291.167 378.953 291.161 378.953 291.154C378.953 291.147 378.953 291.14 378.953 291.133C378.953 291.127 378.953 291.12 378.953 291.113C378.953 291.106 378.953 291.099 378.953 291.093C378.953 291.086 378.953 291.079 378.953 291.072C378.953 291.065 378.953 291.059 378.953 291.052C378.953 291.045 378.953 291.038 378.953 291.031C378.953 291.025 378.953 291.018 378.953 291.011C378.953 291.004 378.953 290.997 378.953 290.99C378.953 290.984 378.953 290.977 378.953 290.97C378.953 290.963 378.953 290.956 378.953 290.95C378.953 290.943 378.953 290.936 378.953 290.929C378.953 290.922 378.953 290.916 378.953 290.909C378.953 290.902 378.953 290.895 378.953 290.888C378.953 290.881 378.953 290.875 378.953 290.868C378.953 290.861 378.953 290.854 378.953 290.847C378.953 290.841 378.953 290.834 378.953 290.827C378.953 290.82 378.953 290.813 378.953 290.806C378.953 290.8 378.953 290.793 378.953 290.786C378.953 290.779 378.953 290.772 378.953 290.766C378.953 290.759 378.953 290.752 378.953 290.745C378.953 290.738 378.953 290.731 378.953 290.725C378.953 290.718 378.953 290.711 378.953 290.704C378.953 290.697 378.953 290.69 378.953 290.684C378.953 290.677 378.953 290.67 378.953 290.663C378.953 290.656 378.953 290.65 378.953 290.643C378.953 290.636 378.953 290.629 378.953 290.622C378.953 290.615 378.953 290.609 378.953 290.602C378.953 290.595 378.953 290.588 378.953 290.581C378.953 290.574 378.953 290.568 378.953 290.561C378.953 290.554 378.953 290.547 378.953 290.54C378.953 290.533 378.953 290.527 378.953 290.52C378.953 290.513 378.953 290.506 378.953 290.499C378.953 290.492 378.953 290.486 378.953 290.479C378.953 290.472 378.953 290.465 378.953 290.458C378.953 290.451 378.953 290.445 378.953 290.438C378.953 290.431 378.953 290.424 378.953 290.417C378.953 290.41 378.953 290.404 378.953 290.397C378.953 290.39 378.953 290.383 378.953 290.376C378.953 290.369 378.953 290.362 378.953 290.356C378.953 290.349 378.953 290.342 378.953 290.335C378.953 290.328 378.953 290.321 378.953 290.315C378.953 290.308 378.953 290.301 378.953 290.294C378.953 290.287 378.953 290.28 378.953 290.274C378.953 290.267 378.953 290.26 378.953 290.253C378.953 290.246 378.953 290.239 378.953 290.232C378.953 290.226 378.953 290.219 378.953 290.212C378.953 290.205 378.953 290.198 378.953 290.191C378.953 290.185 378.953 290.178 378.953 290.171C378.953 290.164 378.953 290.157 378.953 290.15C378.953 290.143 378.953 290.137 378.953 290.13C378.953 290.123 378.953 290.116 378.953 290.109C378.953 290.102 378.953 290.095 378.953 290.089C378.953 290.082 378.953 290.075 378.953 290.068C378.953 290.061 378.953 290.054 378.953 290.047C378.953 290.041 378.953 290.034 378.953 290.027C378.953 290.02 378.953 290.013 378.953 290.006C378.953 289.999 378.953 289.993 378.953 289.986C378.953 289.979 378.953 289.972 378.953 289.965C378.953 289.958 378.953 289.951 378.953 289.945C378.953 289.938 378.953 289.931 378.953 289.924C378.953 289.917 378.953 289.91 378.953 289.903C378.953 289.897 378.953 289.89 378.953 289.883C378.953 289.876 378.953 289.869 378.953 289.862C378.953 289.855 378.953 289.849 378.953 289.842C378.953 289.835 378.953 289.828 378.953 289.821C378.953 289.814 378.953 289.807 378.953 289.8C378.953 289.794 378.953 289.787 378.953 289.78C378.953 289.773 378.953 289.766 378.953 289.759C378.953 289.752 378.953 289.745 378.953 289.739C378.953 289.732 378.953 289.725 378.953 289.718C378.953 289.711 378.953 289.704 378.953 289.697C378.953 289.691 378.953 289.684 378.953 289.677C378.953 289.67 378.953 289.663 378.953 289.656C378.953 289.649 378.953 289.642 378.953 289.636C378.953 289.629 378.953 289.622 378.953 289.615C378.953 289.608 378.953 289.601 378.953 289.594C378.953 289.587 378.953 289.581 378.953 289.574C378.953 289.567 378.953 289.56 378.953 289.553C378.953 289.546 378.953 289.539 378.953 289.532C378.953 289.525 378.953 289.519 378.953 289.512C378.953 289.505 378.953 289.498 378.953 289.491C378.953 289.484 378.953 289.477 378.953 289.47C378.953 289.464 378.953 289.457 378.953 289.45C378.953 289.443 378.953 289.436 378.953 289.429C378.953 289.422 378.953 289.415 378.953 289.408C378.953 289.402 378.953 289.395 378.953 289.388C378.953 289.381 378.953 289.374 378.953 289.367C378.953 289.36 378.953 289.353 378.953 289.346C378.953 289.34 378.953 289.333 378.953 289.326C378.953 289.319 378.953 289.312 378.953 289.305C378.953 289.298 378.953 289.291 378.953 289.284C378.953 289.278 378.953 289.271 378.953 289.264C378.953 289.257 378.953 289.25 378.953 289.243C378.953 289.236 378.953 289.229 378.953 289.222C378.953 289.216 378.953 289.209 378.953 289.202C378.953 289.195 378.953 289.188 378.953 289.181C378.953 289.174 378.953 289.167 378.953 289.16C378.953 289.153 378.953 289.147 378.953 289.14C378.953 289.133 378.953 289.126 378.953 289.119C378.953 289.112 378.953 289.105 378.953 289.098C378.953 289.091 378.953 289.084 378.953 289.078C378.953 289.071 378.953 289.064 378.953 289.057C378.953 289.05 378.953 289.043 378.953 289.036C378.953 289.029 378.953 289.022 378.953 289.015C378.953 289.009 378.953 289.002 378.953 288.995C378.953 288.988 378.953 288.981 378.953 288.974C378.953 288.967 378.953 288.96 378.953 288.953C378.953 288.946 378.953 288.939 378.953 288.933C378.953 288.926 378.953 288.919 378.953 288.912C378.953 288.905 378.953 288.898 378.953 288.891C378.953 288.884 378.953 288.877 378.953 288.87C378.953 288.863 378.953 288.857 378.953 288.85C378.953 288.843 378.953 288.836 378.953 288.829C378.953 288.822 378.953 288.815 378.953 288.808C378.953 288.801 378.953 288.794 378.953 288.787C378.953 288.78 378.953 288.774 378.953 288.767C378.953 288.76 378.953 288.753 378.953 288.746C378.953 288.739 378.953 288.732 378.953 288.725C378.953 288.718 378.953 288.711 378.953 288.704C378.953 288.697 378.953 288.691 378.953 288.684C378.953 288.677 378.953 288.67 378.953 288.663C378.953 288.656 378.953 288.649 378.953 288.642C378.953 288.635 378.953 288.628 378.953 288.621C378.953 288.614 378.953 288.607 378.953 288.601C378.953 288.594 378.953 288.587 378.953 288.58C378.953 288.573 378.953 288.566 378.953 288.559C378.953 288.552 378.953 288.545 378.953 288.538C378.953 288.531 378.953 288.524 378.953 288.517C378.953 288.51 378.953 288.504 378.953 288.497C378.953 288.49 378.953 288.483 378.953 288.476C378.953 288.469 378.953 288.462 378.953 288.455C378.953 288.448 378.953 288.441 378.953 288.434C378.953 288.427 378.953 288.42 378.953 288.413C378.953 288.407 378.953 288.4 378.953 288.393C378.953 288.386 378.953 288.379 378.953 288.372C378.953 288.365 378.953 288.358 378.953 288.351C378.953 288.344 378.953 288.337 378.953 288.33C378.953 288.323 378.953 288.316 378.953 288.309C378.953 288.302 378.953 288.296 378.953 288.289C378.953 288.282 378.953 288.275 378.953 288.268C378.953 288.261 378.953 288.254 378.953 288.247C378.953 288.24 378.953 288.233 378.953 288.226C378.953 288.219 378.953 288.212 378.953 288.205C378.953 288.198 378.953 288.191 378.953 288.184C378.953 288.178 378.953 288.171 378.953 288.164C378.953 288.157 378.953 288.15 378.953 288.143C378.953 288.136 378.953 288.129 378.953 288.122C378.953 288.115 378.953 288.108 378.953 288.101C378.953 288.094 378.953 288.087 378.953 288.08C378.953 288.073 378.953 288.066 378.953 288.059C378.953 288.052 378.953 288.046 378.953 288.039C378.953 288.032 378.953 288.025 378.953 288.018C378.953 288.011 378.953 288.004 378.953 287.997C378.953 287.99 378.953 287.983 378.953 287.976C378.953 287.969 378.953 287.962 378.953 287.955C378.953 287.948 378.953 287.941 378.953 287.934C378.953 287.927 378.953 287.92 378.953 287.913C378.953 287.906 378.953 287.9 378.953 287.893C378.953 287.886 378.953 287.879 378.953 287.872C378.953 287.865 378.953 287.858 378.953 287.851C378.953 287.844 378.953 287.837 378.953 287.83C378.953 287.823 378.953 287.816 378.953 287.809C378.953 287.802 378.953 287.795 378.953 287.788C378.953 287.781 378.953 287.774 378.953 287.767C378.953 287.76 378.953 287.753 378.953 287.746C378.953 287.739 378.953 287.732 378.953 287.725C378.953 287.719 378.953 287.712 378.953 287.705C378.953 287.698 378.953 287.691 378.953 287.684C378.953 287.677 378.953 287.67 378.953 287.663C378.953 287.656 378.953 287.649 378.953 287.642C378.953 287.635 378.953 287.628 378.953 287.621C378.953 287.614 378.953 287.607 378.953 287.6C378.953 287.593 378.953 287.586 378.953 287.579C378.953 287.572 378.953 287.565 378.953 287.558C378.953 287.551 378.953 287.544 378.953 287.537C378.953 287.53 378.953 287.523 378.953 287.516C378.953 287.509 378.953 287.502 378.953 287.495C378.953 287.488 378.953 287.481 378.953 287.475C378.953 287.468 378.953 287.461 378.953 287.454C378.953 287.447 378.953 287.44 378.953 287.433C378.953 287.426 378.953 287.419 378.953 287.412C378.953 287.405 378.953 287.398 378.953 287.391C378.953 287.384 378.953 287.377 378.953 287.37C378.953 287.363 378.953 287.356 378.953 287.349C378.953 287.342 378.953 287.335 378.953 287.328C378.953 287.321 378.953 287.314 378.953 287.307C378.953 287.3 378.953 287.293 378.953 287.286C378.953 287.279 378.953 287.272 378.953 287.265C378.953 287.258 378.953 287.251 378.953 287.244C378.953 287.237 378.953 287.23 378.953 287.223C378.953 287.216 378.953 287.209 378.953 287.202C378.953 287.195 378.953 287.188 378.953 287.181C378.953 287.174 378.953 287.167 378.953 287.16C378.953 287.153 378.953 287.146 378.953 287.139C378.953 287.132 378.953 287.125 378.953 287.118C378.953 287.111 378.953 287.104 378.953 287.097C378.953 287.09 378.953 287.083 378.953 287.076C378.953 287.069 378.953 287.062 378.953 287.055C378.953 287.048 378.953 287.041 378.953 287.034C378.953 287.027 378.953 287.02 378.953 287.013C378.953 287.006 378.953 286.999 378.953 286.992C378.953 286.985 378.953 286.978 378.953 286.971C378.953 286.964 378.953 286.957 378.953 286.95C378.953 286.943 378.953 286.936 378.953 286.929C378.953 286.922 378.953 286.915 378.953 286.908C378.953 286.901 378.953 286.894 378.953 286.887C378.953 286.88 378.953 286.873 378.953 286.866H375.321H371.688C371.688 286.873 371.688 286.88 371.688 286.887C371.688 286.894 371.688 286.901 371.688 286.908C371.688 286.915 371.688 286.922 371.688 286.929C371.688 286.936 371.688 286.943 371.688 286.95C371.688 286.957 371.688 286.964 371.688 286.971C371.688 286.978 371.688 286.985 371.688 286.992C371.688 286.999 371.688 287.006 371.688 287.013C371.688 287.02 371.688 287.027 371.688 287.034C371.688 287.041 371.688 287.048 371.688 287.055C371.688 287.062 371.688 287.069 371.688 287.076C371.688 287.083 371.688 287.09 371.688 287.097C371.688 287.104 371.688 287.111 371.688 287.118C371.688 287.125 371.688 287.132 371.688 287.139C371.688 287.146 371.688 287.153 371.688 287.16C371.688 287.167 371.688 287.174 371.688 287.181C371.688 287.188 371.688 287.195 371.688 287.202C371.688 287.209 371.688 287.216 371.688 287.223C371.688 287.23 371.688 287.237 371.688 287.244C371.688 287.251 371.688 287.258 371.688 287.265C371.688 287.272 371.688 287.279 371.688 287.286C371.688 287.293 371.688 287.3 371.688 287.307C371.688 287.314 371.688 287.321 371.688 287.328C371.688 287.335 371.688 287.342 371.688 287.349C371.688 287.356 371.688 287.363 371.688 287.37C371.688 287.377 371.688 287.384 371.688 287.391C371.688 287.398 371.688 287.405 371.688 287.412C371.688 287.419 371.688 287.426 371.688 287.433C371.688 287.44 371.688 287.447 371.688 287.454C371.688 287.461 371.688 287.468 371.688 287.475C371.688 287.481 371.688 287.488 371.688 287.495C371.688 287.502 371.688 287.509 371.688 287.516C371.688 287.523 371.688 287.53 371.688 287.537C371.688 287.544 371.688 287.551 371.688 287.558C371.688 287.565 371.688 287.572 371.688 287.579C371.688 287.586 371.688 287.593 371.688 287.6C371.688 287.607 371.688 287.614 371.688 287.621C371.688 287.628 371.688 287.635 371.688 287.642C371.688 287.649 371.688 287.656 371.688 287.663C371.688 287.67 371.688 287.677 371.688 287.684C371.688 287.691 371.688 287.698 371.688 287.705C371.688 287.712 371.688 287.719 371.688 287.725C371.688 287.732 371.688 287.739 371.688 287.746C371.688 287.753 371.688 287.76 371.688 287.767C371.688 287.774 371.688 287.781 371.688 287.788C371.688 287.795 371.688 287.802 371.688 287.809C371.688 287.816 371.688 287.823 371.688 287.83C371.688 287.837 371.688 287.844 371.688 287.851C371.688 287.858 371.688 287.865 371.688 287.872C371.688 287.879 371.688 287.886 371.688 287.893C371.688 287.9 371.688 287.906 371.688 287.913C371.688 287.92 371.688 287.927 371.688 287.934C371.688 287.941 371.688 287.948 371.688 287.955C371.688 287.962 371.688 287.969 371.688 287.976C371.688 287.983 371.688 287.99 371.688 287.997C371.688 288.004 371.688 288.011 371.688 288.018C371.688 288.025 371.688 288.032 371.688 288.039C371.688 288.046 371.688 288.052 371.688 288.059C371.688 288.066 371.688 288.073 371.688 288.08C371.688 288.087 371.688 288.094 371.688 288.101C371.688 288.108 371.688 288.115 371.688 288.122C371.688 288.129 371.688 288.136 371.688 288.143C371.688 288.15 371.688 288.157 371.688 288.164C371.688 288.171 371.688 288.178 371.688 288.184C371.688 288.191 371.688 288.198 371.688 288.205C371.688 288.212 371.688 288.219 371.688 288.226C371.688 288.233 371.688 288.24 371.688 288.247C371.688 288.254 371.688 288.261 371.688 288.268C371.688 288.275 371.688 288.282 371.688 288.289C371.688 288.296 371.688 288.302 371.688 288.309C371.688 288.316 371.688 288.323 371.688 288.33C371.688 288.337 371.688 288.344 371.688 288.351C371.688 288.358 371.688 288.365 371.688 288.372C371.688 288.379 371.688 288.386 371.688 288.393C371.688 288.4 371.688 288.407 371.688 288.413C371.688 288.42 371.688 288.427 371.688 288.434C371.688 288.441 371.688 288.448 371.688 288.455C371.688 288.462 371.688 288.469 371.688 288.476C371.688 288.483 371.688 288.49 371.688 288.497C371.688 288.504 371.688 288.51 371.688 288.517C371.688 288.524 371.688 288.531 371.688 288.538C371.688 288.545 371.688 288.552 371.688 288.559C371.688 288.566 371.688 288.573 371.688 288.58C371.688 288.587 371.688 288.594 371.688 288.601C371.688 288.607 371.688 288.614 371.688 288.621C371.688 288.628 371.688 288.635 371.688 288.642C371.688 288.649 371.688 288.656 371.688 288.663C371.688 288.67 371.688 288.677 371.688 288.684C371.688 288.691 371.688 288.697 371.688 288.704C371.688 288.711 371.688 288.718 371.688 288.725C371.688 288.732 371.688 288.739 371.688 288.746C371.688 288.753 371.688 288.76 371.688 288.767C371.688 288.774 371.688 288.78 371.688 288.787C371.688 288.794 371.688 288.801 371.688 288.808C371.688 288.815 371.688 288.822 371.688 288.829C371.688 288.836 371.688 288.843 371.688 288.85C371.688 288.857 371.688 288.863 371.688 288.87C371.688 288.877 371.688 288.884 371.688 288.891C371.688 288.898 371.688 288.905 371.688 288.912C371.688 288.919 371.688 288.926 371.688 288.933C371.688 288.939 371.688 288.946 371.688 288.953C371.688 288.96 371.688 288.967 371.688 288.974C371.688 288.981 371.688 288.988 371.688 288.995C371.688 289.002 371.688 289.009 371.688 289.015C371.688 289.022 371.688 289.029 371.688 289.036C371.688 289.043 371.688 289.05 371.688 289.057C371.688 289.064 371.688 289.071 371.688 289.078C371.688 289.084 371.688 289.091 371.688 289.098C371.688 289.105 371.688 289.112 371.688 289.119C371.688 289.126 371.688 289.133 371.688 289.14C371.688 289.147 371.688 289.153 371.688 289.16C371.688 289.167 371.688 289.174 371.688 289.181C371.688 289.188 371.688 289.195 371.688 289.202C371.688 289.209 371.688 289.216 371.688 289.222C371.688 289.229 371.688 289.236 371.688 289.243C371.688 289.25 371.688 289.257 371.688 289.264C371.688 289.271 371.688 289.278 371.688 289.284C371.688 289.291 371.688 289.298 371.688 289.305C371.688 289.312 371.688 289.319 371.688 289.326C371.688 289.333 371.688 289.34 371.688 289.346C371.688 289.353 371.688 289.36 371.688 289.367C371.688 289.374 371.688 289.381 371.688 289.388C371.688 289.395 371.688 289.402 371.688 289.408C371.688 289.415 371.688 289.422 371.688 289.429C371.688 289.436 371.688 289.443 371.688 289.45C371.688 289.457 371.688 289.464 371.688 289.47C371.688 289.477 371.688 289.484 371.688 289.491C371.688 289.498 371.688 289.505 371.688 289.512C371.688 289.519 371.688 289.525 371.688 289.532C371.688 289.539 371.688 289.546 371.688 289.553C371.688 289.56 371.688 289.567 371.688 289.574C371.688 289.581 371.688 289.587 371.688 289.594C371.688 289.601 371.688 289.608 371.688 289.615C371.688 289.622 371.688 289.629 371.688 289.636C371.688 289.642 371.688 289.649 371.688 289.656C371.688 289.663 371.688 289.67 371.688 289.677C371.688 289.684 371.688 289.691 371.688 289.697C371.688 289.704 371.688 289.711 371.688 289.718C371.688 289.725 371.688 289.732 371.688 289.739C371.688 289.745 371.688 289.752 371.688 289.759C371.688 289.766 371.688 289.773 371.688 289.78C371.688 289.787 371.688 289.794 371.688 289.8C371.688 289.807 371.688 289.814 371.688 289.821C371.688 289.828 371.688 289.835 371.688 289.842C371.688 289.849 371.688 289.855 371.688 289.862C371.688 289.869 371.688 289.876 371.688 289.883C371.688 289.89 371.688 289.897 371.688 289.903C371.688 289.91 371.688 289.917 371.688 289.924C371.688 289.931 371.688 289.938 371.688 289.945C371.688 289.951 371.688 289.958 371.688 289.965C371.688 289.972 371.688 289.979 371.688 289.986C371.688 289.993 371.688 289.999 371.688 290.006C371.688 290.013 371.688 290.02 371.688 290.027C371.688 290.034 371.688 290.041 371.688 290.047C371.688 290.054 371.688 290.061 371.688 290.068C371.688 290.075 371.688 290.082 371.688 290.089C371.688 290.095 371.688 290.102 371.688 290.109C371.688 290.116 371.688 290.123 371.688 290.13C371.688 290.137 371.688 290.143 371.688 290.15C371.688 290.157 371.688 290.164 371.688 290.171C371.688 290.178 371.688 290.185 371.688 290.191C371.688 290.198 371.688 290.205 371.688 290.212C371.688 290.219 371.688 290.226 371.688 290.232C371.688 290.239 371.688 290.246 371.688 290.253C371.688 290.26 371.688 290.267 371.688 290.274C371.688 290.28 371.688 290.287 371.688 290.294C371.688 290.301 371.688 290.308 371.688 290.315C371.688 290.321 371.688 290.328 371.688 290.335C371.688 290.342 371.688 290.349 371.688 290.356C371.688 290.362 371.688 290.369 371.688 290.376C371.688 290.383 371.688 290.39 371.688 290.397C371.688 290.404 371.688 290.41 371.688 290.417C371.688 290.424 371.688 290.431 371.688 290.438C371.688 290.445 371.688 290.451 371.688 290.458C371.688 290.465 371.688 290.472 371.688 290.479C371.688 290.486 371.688 290.492 371.688 290.499C371.688 290.506 371.688 290.513 371.688 290.52C371.688 290.527 371.688 290.533 371.688 290.54C371.688 290.547 371.688 290.554 371.688 290.561C371.688 290.568 371.688 290.574 371.688 290.581C371.688 290.588 371.688 290.595 371.688 290.602C371.688 290.609 371.688 290.615 371.688 290.622C371.688 290.629 371.688 290.636 371.688 290.643C371.688 290.65 371.688 290.656 371.688 290.663C371.688 290.67 371.688 290.677 371.688 290.684C371.688 290.69 371.688 290.697 371.688 290.704C371.688 290.711 371.688 290.718 371.688 290.725C371.688 290.731 371.688 290.738 371.688 290.745C371.688 290.752 371.688 290.759 371.688 290.766C371.688 290.772 371.688 290.779 371.688 290.786C371.688 290.793 371.688 290.8 371.688 290.806C371.688 290.813 371.688 290.82 371.688 290.827C371.688 290.834 371.688 290.841 371.688 290.847C371.688 290.854 371.688 290.861 371.688 290.868C371.688 290.875 371.688 290.881 371.688 290.888C371.688 290.895 371.688 290.902 371.688 290.909C371.688 290.916 371.688 290.922 371.688 290.929C371.688 290.936 371.688 290.943 371.688 290.95C371.688 290.956 371.688 290.963 371.688 290.97C371.688 290.977 371.688 290.984 371.688 290.99C371.688 290.997 371.688 291.004 371.688 291.011C371.688 291.018 371.688 291.025 371.688 291.031C371.688 291.038 371.688 291.045 371.688 291.052C371.688 291.059 371.688 291.065 371.688 291.072C371.688 291.079 371.688 291.086 371.688 291.093C371.688 291.099 371.688 291.106 371.688 291.113C371.688 291.12 371.688 291.127 371.688 291.133C371.688 291.14 371.688 291.147 371.688 291.154C371.688 291.161 371.688 291.167 371.688 291.174C371.688 291.181 371.688 291.188 371.688 291.195C371.688 291.201 371.688 291.208 371.688 291.215C371.688 291.222 371.688 291.229 371.688 291.235C371.688 291.242 371.688 291.249 371.688 291.256C371.688 291.263 371.688 291.269 371.688 291.276C371.688 291.283 371.688 291.29 371.688 291.297C371.688 291.303 371.688 291.31 371.688 291.317C371.688 291.324 371.688 291.331 371.688 291.337C371.688 291.344 371.688 291.351 371.688 291.358C371.688 291.365 371.688 291.371 371.688 291.378C371.688 291.385 371.688 291.392 371.688 291.399C371.688 291.405 371.688 291.412 371.688 291.419C371.688 291.426 371.688 291.433 371.688 291.439C371.688 291.446 371.688 291.453 371.688 291.46C371.688 291.466 371.688 291.473 371.688 291.48C371.688 291.487 371.688 291.494 371.688 291.5C371.688 291.507 371.688 291.514 371.688 291.521C371.688 291.528 371.688 291.534 371.688 291.541C371.688 291.548 371.688 291.555 371.688 291.561C371.688 291.568 371.688 291.575 371.688 291.582C371.688 291.589 371.688 291.595 371.688 291.602C371.688 291.609 371.688 291.616 371.688 291.623C371.688 291.629 371.688 291.636 371.688 291.643C371.688 291.65 371.688 291.656 371.688 291.663C371.688 291.67 371.688 291.677 371.688 291.684C371.688 291.69 371.688 291.697 371.688 291.704C371.688 291.711 371.688 291.717 371.688 291.724C371.688 291.731 371.688 291.738 371.688 291.745C371.688 291.751 371.688 291.758 371.688 291.765C371.688 291.772 371.688 291.778 371.688 291.785C371.688 291.792 371.688 291.799 371.688 291.805C371.688 291.812 371.688 291.819 371.688 291.826C371.688 291.833 371.688 291.839 371.688 291.846C371.688 291.853 371.688 291.86 371.688 291.866C371.688 291.873 371.688 291.88 371.688 291.887C371.688 291.893 371.688 291.9 371.688 291.907C371.688 291.914 371.688 291.921 371.688 291.927C371.688 291.934 371.688 291.941 371.688 291.948C371.688 291.954 371.688 291.961 371.688 291.968C371.688 291.975 371.688 291.981 371.688 291.988C371.688 291.995 371.688 292.002 371.688 292.008C371.688 292.015 371.688 292.022 371.688 292.029C371.688 292.036 371.688 292.042 371.688 292.049C371.688 292.056 371.688 292.063 371.688 292.069C371.688 292.076 371.688 292.083 371.688 292.09C371.688 292.096 371.688 292.103 371.688 292.11C371.688 292.117 371.688 292.123 371.688 292.13C371.688 292.137 371.688 292.144 371.688 292.15C371.688 292.157 371.688 292.164 371.688 292.171C371.688 292.177 371.688 292.184 371.688 292.191C371.688 292.198 371.688 292.204 371.688 292.211C371.688 292.218 371.688 292.225 371.688 292.231C371.688 292.238 371.688 292.245 371.688 292.252C371.688 292.258 371.688 292.265 371.688 292.272C371.688 292.279 371.688 292.285 371.688 292.292C371.688 292.299 371.688 292.306 371.688 292.312C371.688 292.319 371.688 292.326 371.688 292.333C371.688 292.339 371.688 292.346 371.688 292.353C371.688 292.36 371.688 292.366 371.688 292.373C371.688 292.38 371.688 292.387 371.688 292.393C371.688 292.4 371.688 292.407 371.688 292.414C371.688 292.42 371.688 292.427 371.688 292.434C371.688 292.441 371.688 292.447 371.688 292.454C371.688 292.461 371.688 292.468 371.688 292.474C371.688 292.481 371.688 292.488 371.688 292.495C371.688 292.501 371.688 292.508 371.688 292.515C371.688 292.521 371.688 292.528 371.688 292.535C371.688 292.542 371.688 292.548 371.688 292.555C371.688 292.562 371.688 292.569 371.688 292.575C371.688 292.582 371.688 292.589 371.688 292.596C371.688 292.602 371.688 292.609 371.688 292.616C371.688 292.622 371.688 292.629 371.688 292.636C371.688 292.643 371.688 292.649 371.688 292.656C371.688 292.663 371.688 292.67 371.688 292.676C371.688 292.683 371.688 292.69 371.688 292.697C371.688 292.703 371.688 292.71 371.688 292.717C371.688 292.723 371.688 292.73 371.688 292.737C371.688 292.744 371.688 292.75 371.688 292.757C371.688 292.764 371.688 292.771 371.688 292.777C371.688 292.784 371.688 292.791 371.688 292.797C371.688 292.804 371.688 292.811 371.688 292.818C371.688 292.824 371.688 292.831 371.688 292.838C371.688 292.844 371.688 292.851 371.688 292.858C371.688 292.865 371.688 292.871 371.688 292.878C371.688 292.885 371.688 292.892 371.688 292.898C371.688 292.905 371.688 292.912 371.688 292.918C371.688 292.925 371.688 292.932 371.688 292.939C371.688 292.945 371.688 292.952 371.688 292.959C371.688 292.965 371.688 292.972 371.688 292.979C371.688 292.986 371.688 292.992 371.688 292.999C371.688 293.006 371.688 293.012 371.688 293.019C371.688 293.026 371.688 293.033 371.688 293.039C371.688 293.046 371.688 293.053 371.688 293.059C371.688 293.066 371.688 293.073 371.688 293.08C371.688 293.086 371.688 293.093 371.688 293.1C371.688 293.106 371.688 293.113 371.688 293.12C371.688 293.126 371.688 293.133 371.688 293.14C371.688 293.147 371.688 293.153 371.688 293.16C371.688 293.167 371.688 293.173 371.688 293.18C371.688 293.187 371.688 293.194 371.688 293.2C371.688 293.207 371.688 293.214 371.688 293.22C371.688 293.227 371.688 293.234 371.688 293.24C371.688 293.247 371.688 293.254 371.688 293.261C371.688 293.267 371.688 293.274 371.688 293.281C371.688 293.287 371.688 293.294 371.688 293.301C371.688 293.307 371.688 293.314 371.688 293.321C371.688 293.328 371.688 293.334 371.688 293.341C371.688 293.348 371.688 293.354 371.688 293.361C371.688 293.368 371.688 293.374 371.688 293.381C371.688 293.388 371.688 293.395 371.688 293.401C371.688 293.408 371.688 293.415 371.688 293.421C371.688 293.428 371.688 293.435 371.688 293.441C371.688 293.448 371.688 293.455 371.688 293.461C371.688 293.468 371.688 293.475 371.688 293.482C371.688 293.488 371.688 293.495 371.688 293.502C371.688 293.508 371.688 293.515 371.688 293.522C371.688 293.528 371.688 293.535 371.688 293.542C371.688 293.548 371.688 293.555 371.688 293.562C371.688 293.569 371.688 293.575 371.688 293.582C371.688 293.589 371.688 293.595 371.688 293.602C371.688 293.609 371.688 293.615 371.688 293.622C371.688 293.629 371.688 293.635 371.688 293.642C371.688 293.649 371.688 293.655 371.688 293.662C371.688 293.669 371.688 293.675 371.688 293.682C371.688 293.689 371.688 293.696 371.688 293.702C371.688 293.709 371.688 293.716 371.688 293.722C371.688 293.729 371.688 293.736 371.688 293.742C371.688 293.749 371.688 293.756 371.688 293.762C371.688 293.769 371.688 293.776 371.688 293.782C371.688 293.789 371.688 293.796 371.688 293.802C371.688 293.809 371.688 293.816 371.688 293.822C371.688 293.829 371.688 293.836 371.688 293.842C371.688 293.849 371.688 293.856 371.688 293.862C371.688 293.869 371.688 293.876 371.688 293.882C371.688 293.889 371.688 293.896 371.688 293.902C371.688 293.909 371.688 293.916 371.688 293.922C371.688 293.929 371.688 293.936 371.688 293.942C371.688 293.949 371.688 293.956 371.688 293.962C371.688 293.969 371.688 293.976 371.688 293.982C371.688 293.989 371.688 293.996 371.688 294.002C371.688 294.009 371.688 294.016 371.688 294.022C371.688 294.029 371.688 294.036 371.688 294.042C371.688 294.049 371.688 294.056 371.688 294.062C371.688 294.069 371.688 294.076 371.688 294.082C371.688 294.089 371.688 294.096 371.688 294.102C371.688 294.109 371.688 294.116 371.688 294.122C371.688 294.129 371.688 294.136 371.688 294.142C371.688 294.149 371.688 294.156 371.688 294.162C371.688 294.169 371.688 294.176 371.688 294.182C371.688 294.189 371.688 294.196 371.688 294.202C371.688 294.209 371.688 294.216 371.688 294.222C371.688 294.229 371.688 294.236 371.688 294.242C371.688 294.249 371.688 294.256 371.688 294.262C371.688 294.269 371.688 294.275 371.688 294.282C371.688 294.289 371.688 294.295 371.688 294.302C371.688 294.309 371.688 294.315 371.688 294.322C371.688 294.329 371.688 294.335 371.688 294.342C371.688 294.349 371.688 294.355 371.688 294.362C371.688 294.369 371.688 294.375 371.688 294.382C371.688 294.389 371.688 294.395 371.688 294.402C371.688 294.408 371.688 294.415 371.688 294.422C371.688 294.428 371.688 294.435 371.688 294.442C371.688 294.448 371.688 294.455 371.688 294.462C371.688 294.468 371.688 294.475 371.688 294.482C371.688 294.488 371.688 294.495 371.688 294.501C371.688 294.508 371.688 294.515 371.688 294.521C371.688 294.528 371.688 294.535 371.688 294.541C371.688 294.548 371.688 294.555 371.688 294.561C371.688 294.568 371.688 294.574 371.688 294.581C371.688 294.588 371.688 294.594 371.688 294.601C371.688 294.608 371.688 294.614 371.688 294.621C371.688 294.628 371.688 294.634 371.688 294.641C371.688 294.647 371.688 294.654 371.688 294.661C371.688 294.667 371.688 294.674 371.688 294.681C371.688 294.687 371.688 294.694 371.688 294.701C371.688 294.707 371.688 294.714 371.688 294.72C371.688 294.727 371.688 294.734 371.688 294.74C371.688 294.747 371.688 294.754 371.688 294.76C371.688 294.767 371.688 294.773 371.688 294.78C371.688 294.787 371.688 294.793 371.688 294.8C371.688 294.807 371.688 294.813 371.688 294.82C371.688 294.826 371.688 294.833 371.688 294.84C371.688 294.846 371.688 294.853 371.688 294.86C371.688 294.866 371.688 294.873 371.688 294.879C371.688 294.886 371.688 294.893 371.688 294.899C371.688 294.906 371.688 294.913 371.688 294.919C371.688 294.926 371.688 294.932 371.688 294.939C371.688 294.946 371.688 294.952 371.688 294.959C371.688 294.966 371.688 294.972 371.688 294.979C371.688 294.985 371.688 294.992 371.688 294.999C371.688 295.005 371.688 295.012 371.688 295.018C371.688 295.025 371.688 295.032 371.688 295.038C371.688 295.045 371.688 295.052 371.688 295.058C371.688 295.065 371.688 295.071 371.688 295.078C371.688 295.085 371.688 295.091 371.688 295.098C371.688 295.104 371.688 295.111 371.688 295.118C371.688 295.124 371.688 295.131 371.688 295.137C371.688 295.144 371.688 295.151 371.688 295.157C371.688 295.164 371.688 295.171 371.688 295.177C371.688 295.184 371.688 295.19 371.688 295.197C371.688 295.204 371.688 295.21 371.688 295.217C371.688 295.223 371.688 295.23 371.688 295.237C371.688 295.243 371.688 295.25 371.688 295.256C371.688 295.263 371.688 295.27 371.688 295.276C371.688 295.283 371.688 295.289 371.688 295.296C371.688 295.303 371.688 295.309 371.688 295.316C371.688 295.322 371.688 295.329 371.688 295.336C371.688 295.342 371.688 295.349 371.688 295.355C371.688 295.362 371.688 295.369 371.688 295.375C371.688 295.382 371.688 295.388 371.688 295.395C371.688 295.402 371.688 295.408 371.688 295.415C371.688 295.421 371.688 295.428 371.688 295.435C371.688 295.441 371.688 295.448 371.688 295.454C371.688 295.461 371.688 295.468 371.688 295.474C371.688 295.481 371.688 295.487 371.688 295.494C371.688 295.501 371.688 295.507 371.688 295.514C371.688 295.52 371.688 295.527 371.688 295.533C371.688 295.54 371.688 295.547 371.688 295.553C371.688 295.56 371.688 295.566 371.688 295.573C371.688 295.58 371.688 295.586 371.688 295.593C371.688 295.599 371.688 295.606 371.688 295.613C371.688 295.619 371.688 295.626 371.688 295.632C371.688 295.639 371.688 295.645 371.688 295.652C371.688 295.659 371.688 295.665 371.688 295.672C371.688 295.678 371.688 295.685 371.688 295.692C371.688 295.698 371.688 295.705 371.688 295.711C371.688 295.718 371.688 295.724 371.688 295.731C371.688 295.738 371.688 295.744 371.688 295.751C371.688 295.757 371.688 295.764 371.688 295.771C371.688 295.777 371.688 295.784 371.688 295.79C371.688 295.797 371.688 295.803 371.688 295.81C371.688 295.817 371.688 295.823 371.688 295.83C371.688 295.836 371.688 295.843 371.688 295.849C371.688 295.856 371.688 295.863 371.688 295.869C371.688 295.876 371.688 295.882 371.688 295.889C371.688 295.895 371.688 295.902 371.688 295.909C371.688 295.915 371.688 295.922 371.688 295.928C371.688 295.935 371.688 295.941 371.688 295.948C371.688 295.955 371.688 295.961 371.688 295.968C371.688 295.974 371.688 295.981 371.688 295.987C371.688 295.994 371.688 296.001 371.688 296.007C371.688 296.014 371.688 296.02 371.688 296.027C371.688 296.033 371.688 296.04 371.688 296.047C371.688 296.053 371.688 296.06 371.688 296.066C371.688 296.073 371.688 296.079 371.688 296.086C371.688 296.092 371.688 296.099 371.688 296.106C371.688 296.112 371.688 296.119 371.688 296.125C371.688 296.132 371.688 296.138 371.688 296.145C371.688 296.152 371.688 296.158 371.688 296.165C371.688 296.171 371.688 296.178 371.688 296.184C371.688 296.191 371.688 296.197 371.688 296.204C371.688 296.211 371.688 296.217 371.688 296.224C371.688 296.23 371.688 296.237 371.688 296.243C371.688 296.25 371.688 296.256 371.688 296.263C371.688 296.27 371.688 296.276 371.688 296.283C371.688 296.289 371.688 296.296 371.688 296.302C371.688 296.309 371.688 296.315 371.688 296.322C371.688 296.328 371.688 296.335 371.688 296.342C371.688 296.348 371.688 296.355 371.688 296.361C371.688 296.368 371.688 296.374 371.688 296.381C371.688 296.387 371.688 296.394 371.688 296.401C371.688 296.407 371.688 296.414 371.688 296.42C371.688 296.427 371.688 296.433 371.688 296.44C371.688 296.446 371.688 296.453 371.688 296.459C371.688 296.466 371.688 296.473 371.688 296.479C371.688 296.486 371.688 296.492 371.688 296.499C371.688 296.505 371.688 296.512 371.688 296.518C371.688 296.525 371.688 296.531 371.688 296.538C371.688 296.544 371.688 296.551 371.688 296.558C371.688 296.564 371.688 296.571 371.688 296.577C371.688 296.584 371.688 296.59 371.688 296.597C371.688 296.603 371.688 296.61 371.688 296.616C371.688 296.623 371.688 296.629 371.688 296.636C371.688 296.643 371.688 296.649 371.688 296.656C371.688 296.662 371.688 296.669 371.688 296.675C371.688 296.682 371.688 296.688 371.688 296.695C371.688 296.701 371.688 296.708 371.688 296.714C371.688 296.721 371.688 296.727 371.688 296.734C371.688 296.741 371.688 296.747 371.688 296.754C371.688 296.76 371.688 296.767 371.688 296.773C371.688 296.78 371.688 296.786 371.688 296.793C371.688 296.799 371.688 296.806 371.688 296.812C371.688 296.819 371.688 296.825 371.688 296.832C371.688 296.838 371.688 296.845 371.688 296.852C371.688 296.858 371.688 296.865 371.688 296.871C371.688 296.878 371.688 296.884 371.688 296.891C371.688 296.897 371.688 296.904 371.688 296.91C371.688 296.917 371.688 296.923 371.688 296.93C371.688 296.936 371.688 296.943 371.688 296.949C371.688 296.956 371.688 296.962 371.688 296.969C371.688 296.975 371.688 296.982 371.688 296.988C371.688 296.995 371.688 297.001 371.688 297.008C371.688 297.015 371.688 297.021 371.688 297.028C371.688 297.034 371.688 297.041 371.688 297.047C371.688 297.054 371.688 297.06 371.688 297.067C371.688 297.073 371.688 297.08 371.688 297.086C371.688 297.093 371.688 297.099 371.688 297.106C371.688 297.112 371.688 297.119 371.688 297.125C371.688 297.132 371.688 297.138 371.688 297.145C371.688 297.151 371.688 297.158 371.688 297.164C371.688 297.171 371.688 297.177 371.688 297.184C371.688 297.19 371.688 297.197 371.688 297.203C371.688 297.21 371.688 297.216 371.688 297.223C371.688 297.229 371.688 297.236 371.688 297.242H375.321ZM375.321 286.866H378.953V280.333H375.321H371.688V286.866H375.321ZM375.321 280.333L372.053 278.746C367.904 287.289 362.297 294.724 355.218 301.071L357.643 303.776L360.068 306.48C367.848 299.505 374.027 291.311 378.588 281.92L375.321 280.333ZM357.643 303.776L355.218 301.071C348.037 307.509 339.982 312.964 331.039 317.436L332.663 320.685L334.288 323.934C343.791 319.182 352.389 313.365 360.068 306.48L357.643 303.776ZM332.663 320.685L331.112 317.4C322.149 321.633 312.545 324.878 302.293 327.129L303.072 330.677L303.851 334.225C314.607 331.864 324.731 328.448 334.214 323.969L332.663 320.685ZM303.072 330.677L302.275 327.133C292.288 329.38 282.18 330.503 271.944 330.503V334.135V337.768C282.716 337.768 293.36 336.585 303.869 334.221L303.072 330.677ZM271.944 334.135V330.503C254.735 330.503 238.704 327.263 223.813 320.81L222.369 324.143L220.925 327.477C236.777 334.346 253.797 337.768 271.944 337.768V334.135ZM222.369 324.143L223.882 320.841C206.017 312.653 192.925 301.211 184.386 286.573L181.249 288.403L178.111 290.234C187.506 306.34 201.828 318.725 220.855 327.446L222.369 324.143ZM181.249 288.403L184.399 286.596C175.732 271.489 171.431 255.712 171.431 239.213H167.798H164.166C164.166 257.045 168.832 274.061 178.098 290.211L181.249 288.403ZM167.798 239.213H171.431C171.431 229.833 172.787 220.574 175.507 211.426L172.025 210.39L168.544 209.355C165.627 219.165 164.166 229.121 164.166 239.213H167.798ZM172.025 210.39L175.507 211.426C178.226 202.282 182.176 193.767 187.36 185.867L184.323 183.874L181.286 181.881C175.71 190.377 171.462 199.539 168.544 209.355L172.025 210.39ZM184.323 183.874L187.316 185.932C192.749 178.03 199.296 170.986 206.971 164.796L204.691 161.968L202.411 159.141C194.202 165.761 187.17 173.32 181.33 181.816L184.323 183.874ZM204.691 161.968L206.982 164.788C214.85 158.395 223.844 153.336 233.993 149.623L232.745 146.212L231.497 142.801C220.637 146.774 210.929 152.22 202.4 159.149L204.691 161.968Z" fill="white" mask="url(#path-2-outside-1_127_58)"/>
<defs>
<filter id="filter0_d_127_58" x="0.543482" y="0.913226" width="572.535" height="572.535" filterUnits="userSpaceOnUse" color-interpolation-filters="sRGB">
<feFlood flood-opacity="0" result="BackgroundImageFix"/>
<feColorMatrix in="SourceAlpha" type="matrix" values="0 0 0 0 0 0 0 0 0 0 0 0 0 0 0 0 0 0 127 0" result="hardAlpha"/>
<feMorphology radius="11.3041" operator="dilate" in="SourceAlpha" result="effect1_dropShadow_127_58"/>
<feOffset dy="15.0721"/>
<feGaussianBlur stdDeviation="7.53604"/>
<feComposite in2="hardAlpha" operator="out"/>
<feColorMatrix type="matrix" values="0 0 0 0 0.12549 0 0 0 0 0.278431 0 0 0 0 0.27451 0 0 0 0.28 0"/>
<feBlend mode="normal" in2="BackgroundImageFix" result="effect1_dropShadow_127_58"/>
<feBlend mode="normal" in="SourceGraphic" in2="effect1_dropShadow_127_58" result="shape"/>
</filter>
</defs>
</svg>
