<svg width="574" height="574" viewBox="0 0 574 574" fill="none" xmlns="http://www.w3.org/2000/svg">
<g filter="url(#filter0_d_127_27)">
<rect x="26.9196" y="11.9399" width="519.783" height="519.783" rx="73.6907" fill="#DF1313"/>
</g>
<mask id="path-2-outside-1_127_27" maskUnits="userSpaceOnUse" x="164.112" y="134.326" width="238" height="292" fill="black">
<rect fill="white" x="164.112" y="134.326" width="238" height="292"/>
<path d="M361.87 250.465C362.126 247.646 363.151 245.469 364.945 243.932C366.738 242.138 368.659 240.985 370.709 240.473C368.403 229.712 364.945 219.592 360.333 210.113C355.721 200.634 349.573 192.435 341.887 185.518C332.407 177.319 321.903 170.914 310.374 166.303C298.845 161.691 286.931 159.385 274.634 159.385C262.592 159.385 250.551 161.819 238.51 166.687C223.394 173.092 211.224 182.315 202.001 194.357C193.034 206.398 188.55 220.105 188.55 235.477C188.55 238.295 188.678 241.241 188.935 244.316C189.447 247.134 189.96 250.08 190.472 253.155C193.803 266.99 199.951 278.775 208.918 288.51C217.885 298.246 229.414 304.907 243.505 308.494C247.861 309.775 252.344 310.672 256.956 311.184C261.568 311.44 266.435 311.568 271.559 311.568C281.551 311.568 291.671 310.416 301.919 308.11C312.423 305.804 321.903 302.217 330.357 297.349C339.068 292.225 346.242 285.82 351.878 278.134C357.771 270.448 361.102 261.225 361.87 250.465ZM232.745 145.935C239.662 143.373 246.708 141.579 253.882 140.555C261.311 139.274 268.741 138.633 276.171 138.633C292.312 138.633 307.812 141.707 322.671 147.856C337.787 153.749 350.982 162.972 362.254 175.526C368.403 182.443 373.655 190.257 378.011 198.968C382.622 207.423 386.337 216.39 389.156 225.869C392.23 235.349 394.408 245.084 395.689 255.076C396.97 265.068 397.61 275.06 397.61 285.052C397.61 293.25 397.226 301.192 396.457 308.878C395.689 316.564 394.408 323.994 392.614 331.168C387.49 354.482 378.139 373.825 364.56 389.197C350.982 404.569 332.151 414.689 308.068 419.557C302.944 420.582 297.948 421.35 293.08 421.863C288.212 422.375 283.217 422.631 278.093 422.631C262.208 422.631 247.348 419.685 233.514 413.793C219.679 407.9 208.022 397.908 198.542 383.817C197.261 381.767 196.621 379.846 196.621 378.053C196.621 375.234 197.774 372.929 200.079 371.135C202.641 369.086 205.332 368.061 208.15 368.061C211.993 368.061 214.939 369.598 216.989 372.672C223.906 383.177 232.745 390.735 243.505 395.346C254.522 399.702 266.051 401.879 278.093 401.879C285.01 401.879 291.927 401.239 298.845 399.958C306.018 398.421 312.808 396.371 319.213 393.809C328.692 390.222 336.762 385.482 343.424 379.59C350.085 373.697 355.593 366.908 359.949 359.222C364.56 351.536 368.019 343.209 370.325 334.242C372.631 325.275 374.168 315.924 374.936 306.188C375.193 303.114 375.321 300.039 375.321 296.965C375.321 293.634 375.321 290.176 375.321 286.589V280.056C370.965 289.023 365.073 296.837 357.643 303.498C350.213 310.159 341.887 315.796 332.663 320.407C323.44 324.763 313.576 328.093 303.072 330.399C292.824 332.705 282.448 333.858 271.944 333.858C254.266 333.858 237.741 330.527 222.369 323.866C203.922 315.412 190.216 303.498 181.249 288.126C172.282 272.498 167.798 256.101 167.798 238.936C167.798 229.2 169.207 219.592 172.025 210.113C174.844 200.634 178.943 191.795 184.323 183.596C189.96 175.398 196.749 168.096 204.691 161.691C212.889 155.03 222.241 149.778 232.745 145.935Z"/>
</mask>
<path d="M361.87 250.465C362.126 247.646 363.151 245.469 364.945 243.932C366.738 242.138 368.659 240.985 370.709 240.473C368.403 229.712 364.945 219.592 360.333 210.113C355.721 200.634 349.573 192.435 341.887 185.518C332.407 177.319 321.903 170.914 310.374 166.303C298.845 161.691 286.931 159.385 274.634 159.385C262.592 159.385 250.551 161.819 238.51 166.687C223.394 173.092 211.224 182.315 202.001 194.357C193.034 206.398 188.55 220.105 188.55 235.477C188.55 238.295 188.678 241.241 188.935 244.316C189.447 247.134 189.96 250.08 190.472 253.155C193.803 266.99 199.951 278.775 208.918 288.51C217.885 298.246 229.414 304.907 243.505 308.494C247.861 309.775 252.344 310.672 256.956 311.184C261.568 311.44 266.435 311.568 271.559 311.568C281.551 311.568 291.671 310.416 301.919 308.11C312.423 305.804 321.903 302.217 330.357 297.349C339.068 292.225 346.242 285.82 351.878 278.134C357.771 270.448 361.102 261.225 361.87 250.465ZM232.745 145.935C239.662 143.373 246.708 141.579 253.882 140.555C261.311 139.274 268.741 138.633 276.171 138.633C292.312 138.633 307.812 141.707 322.671 147.856C337.787 153.749 350.982 162.972 362.254 175.526C368.403 182.443 373.655 190.257 378.011 198.968C382.622 207.423 386.337 216.39 389.156 225.869C392.23 235.349 394.408 245.084 395.689 255.076C396.97 265.068 397.61 275.06 397.61 285.052C397.61 293.25 397.226 301.192 396.457 308.878C395.689 316.564 394.408 323.994 392.614 331.168C387.49 354.482 378.139 373.825 364.56 389.197C350.982 404.569 332.151 414.689 308.068 419.557C302.944 420.582 297.948 421.35 293.08 421.863C288.212 422.375 283.217 422.631 278.093 422.631C262.208 422.631 247.348 419.685 233.514 413.793C219.679 407.9 208.022 397.908 198.542 383.817C197.261 381.767 196.621 379.846 196.621 378.053C196.621 375.234 197.774 372.929 200.079 371.135C202.641 369.086 205.332 368.061 208.15 368.061C211.993 368.061 214.939 369.598 216.989 372.672C223.906 383.177 232.745 390.735 243.505 395.346C254.522 399.702 266.051 401.879 278.093 401.879C285.01 401.879 291.927 401.239 298.845 399.958C306.018 398.421 312.808 396.371 319.213 393.809C328.692 390.222 336.762 385.482 343.424 379.59C350.085 373.697 355.593 366.908 359.949 359.222C364.56 351.536 368.019 343.209 370.325 334.242C372.631 325.275 374.168 315.924 374.936 306.188C375.193 303.114 375.321 300.039 375.321 296.965C375.321 293.634 375.321 290.176 375.321 286.589V280.056C370.965 289.023 365.073 296.837 357.643 303.498C350.213 310.159 341.887 315.796 332.663 320.407C323.44 324.763 313.576 328.093 303.072 330.399C292.824 332.705 282.448 333.858 271.944 333.858C254.266 333.858 237.741 330.527 222.369 323.866C203.922 315.412 190.216 303.498 181.249 288.126C172.282 272.498 167.798 256.101 167.798 238.936C167.798 229.2 169.207 219.592 172.025 210.113C174.844 200.634 178.943 191.795 184.323 183.596C189.96 175.398 196.749 168.096 204.691 161.691C212.889 155.03 222.241 149.778 232.745 145.935Z" fill="white"/>
<path d="M361.87 250.465L358.253 250.136L358.249 250.171L358.247 250.206L361.87 250.465ZM364.945 243.932L367.309 246.69L367.415 246.599L367.513 246.5L364.945 243.932ZM370.709 240.473L371.59 243.997L374.997 243.145L374.261 239.712L370.709 240.473ZM341.887 185.518L344.317 182.818L344.29 182.794L344.263 182.77L341.887 185.518ZM238.51 166.687L237.148 163.319L237.12 163.331L237.092 163.342L238.51 166.687ZM202.001 194.357L199.117 192.148L199.102 192.167L199.087 192.187L202.001 194.357ZM188.935 244.316L185.315 244.617L185.329 244.793L185.361 244.966L188.935 244.316ZM190.472 253.155L186.889 253.752L186.91 253.879L186.94 254.005L190.472 253.155ZM208.918 288.51L206.246 290.971L208.918 288.51ZM243.505 308.494L244.53 305.009L244.466 304.99L244.402 304.974L243.505 308.494ZM256.956 311.184L256.555 314.795L256.654 314.806L256.754 314.811L256.956 311.184ZM301.919 308.11L301.14 304.562L301.131 304.564L301.122 304.566L301.919 308.11ZM330.357 297.349L332.17 300.497L332.185 300.489L332.199 300.48L330.357 297.349ZM351.878 278.134L348.996 275.924L348.972 275.955L348.949 275.986L351.878 278.134ZM232.745 145.935L233.993 149.346L234 149.344L234.007 149.341L232.745 145.935ZM253.882 140.555L254.395 144.151L254.447 144.143L254.499 144.134L253.882 140.555ZM322.671 147.856L321.283 151.213L321.317 151.227L321.352 151.241L322.671 147.856ZM362.254 175.526L364.969 173.113L364.963 173.106L364.957 173.099L362.254 175.526ZM378.011 198.968L374.762 200.593L374.791 200.651L374.822 200.708L378.011 198.968ZM389.156 225.869L385.674 226.905L385.686 226.947L385.7 226.99L389.156 225.869ZM392.614 331.168L389.09 330.287L389.078 330.337L389.066 330.388L392.614 331.168ZM364.56 389.197L361.838 386.792L364.56 389.197ZM308.068 419.557L308.78 423.119L308.788 423.118L308.068 419.557ZM198.542 383.817L195.462 385.742L195.494 385.794L195.528 385.845L198.542 383.817ZM200.079 371.135L202.31 374.002L202.329 373.987L202.349 373.972L200.079 371.135ZM216.989 372.672L220.022 370.674L220.017 370.666L220.011 370.657L216.989 372.672ZM243.505 395.346L242.075 398.685L242.122 398.705L242.17 398.724L243.505 395.346ZM298.845 399.958L299.506 403.53L299.556 403.52L299.606 403.51L298.845 399.958ZM319.213 393.809L317.927 390.411L317.895 390.424L317.864 390.436L319.213 393.809ZM359.949 359.222L356.834 357.353L356.811 357.392L356.788 357.431L359.949 359.222ZM374.936 306.188L371.316 305.887L371.316 305.894L371.315 305.902L374.936 306.188ZM375.321 280.056H378.953L372.053 278.469L375.321 280.056ZM357.643 303.498L355.218 300.793L357.643 303.498ZM332.663 320.407L334.214 323.692L334.251 323.675L334.288 323.656L332.663 320.407ZM303.072 330.399L302.293 326.851L302.284 326.853L302.275 326.855L303.072 330.399ZM222.369 323.866L220.855 327.168L220.89 327.184L220.925 327.199L222.369 323.866ZM181.249 288.126L178.098 289.934L178.104 289.945L178.111 289.956L181.249 288.126ZM172.025 210.113L168.544 209.078L172.025 210.113ZM184.323 183.596L181.33 181.538L181.308 181.571L181.286 181.603L184.323 183.596ZM204.691 161.691L206.971 164.519L206.982 164.51L204.691 161.691ZM361.87 250.465L365.488 250.793C365.676 248.718 366.372 247.492 367.309 246.69L364.945 243.932L362.581 241.173C359.93 243.445 358.576 246.574 358.253 250.136L361.87 250.465ZM364.945 243.932L367.513 246.5C368.935 245.078 370.297 244.32 371.59 243.997L370.709 240.473L369.828 236.949C367.022 237.65 364.541 239.198 362.376 241.363L364.945 243.932ZM370.709 240.473L374.261 239.712C371.896 228.677 368.345 218.278 363.599 208.524L360.333 210.113L357.066 211.702C361.544 220.907 364.91 230.747 367.157 241.234L370.709 240.473ZM360.333 210.113L363.599 208.524C358.787 198.632 352.357 190.054 344.317 182.818L341.887 185.518L339.456 188.218C346.788 194.816 352.655 202.635 357.066 211.702L360.333 210.113ZM341.887 185.518L344.263 182.77C334.481 174.31 323.63 167.693 311.723 162.93L310.374 166.303L309.025 169.675C320.175 174.136 330.333 180.328 339.51 188.265L341.887 185.518ZM310.374 166.303L311.723 162.93C299.769 158.148 287.398 155.753 274.634 155.753V159.385V163.018C286.465 163.018 297.921 165.234 309.025 169.675L310.374 166.303ZM274.634 159.385V155.753C262.09 155.753 249.588 158.29 237.148 163.319L238.51 166.687L239.871 170.055C251.514 165.348 263.095 163.018 274.634 163.018V159.385ZM238.51 166.687L237.092 163.342C221.447 169.972 208.754 179.567 199.117 192.148L202.001 194.357L204.885 196.566C213.694 185.064 225.341 176.212 239.927 170.032L238.51 166.687ZM202.001 194.357L199.087 192.187C189.642 204.871 184.918 219.343 184.918 235.477H188.55H192.183C192.183 220.866 196.426 207.925 204.914 196.526L202.001 194.357ZM188.55 235.477H184.918C184.918 238.405 185.051 241.452 185.315 244.617L188.935 244.316L192.555 244.014C192.306 241.031 192.183 238.185 192.183 235.477H188.55ZM188.935 244.316L185.361 244.966C185.87 247.765 186.379 250.694 186.889 253.752L190.472 253.155L194.055 252.558C193.54 249.467 193.024 246.503 192.509 243.666L188.935 244.316ZM190.472 253.155L186.94 254.005C190.404 268.395 196.829 280.747 206.246 290.971L208.918 288.51L211.59 286.049C203.074 276.803 197.201 265.585 194.004 252.305L190.472 253.155ZM208.918 288.51L206.246 290.971C215.737 301.275 227.906 308.272 242.609 312.014L243.505 308.494L244.402 304.974C230.923 301.543 220.034 295.217 211.59 286.049L208.918 288.51ZM243.505 308.494L242.48 311.979C247.044 313.321 251.737 314.259 256.555 314.795L256.956 311.184L257.357 307.574C252.952 307.084 248.678 306.229 244.53 305.009L243.505 308.494ZM256.956 311.184L256.754 314.811C261.44 315.071 266.375 315.201 271.559 315.201V311.568V307.936C266.495 307.936 261.695 307.809 257.157 307.557L256.956 311.184ZM271.559 311.568V315.201C281.833 315.201 292.22 314.015 302.717 311.654L301.919 308.11L301.122 304.566C291.122 306.816 281.27 307.936 271.559 307.936V311.568ZM301.919 308.11L302.698 311.658C313.528 309.28 323.362 305.569 332.17 300.497L330.357 297.349L328.545 294.201C320.444 298.866 311.318 302.328 301.14 304.562L301.919 308.11ZM330.357 297.349L332.199 300.48C341.31 295.121 348.862 288.39 354.808 280.282L351.878 278.134L348.949 275.986C343.622 283.25 336.827 289.329 328.516 294.218L330.357 297.349ZM351.878 278.134L354.761 280.344C361.135 272.031 364.68 262.109 365.493 250.723L361.87 250.465L358.247 250.206C357.523 260.341 354.407 268.865 348.996 275.924L351.878 278.134ZM232.745 145.935L234.007 149.341C240.687 146.867 247.482 145.138 254.395 144.151L253.882 140.555L253.368 136.959C245.934 138.02 238.638 139.878 231.483 142.528L232.745 145.935ZM253.882 140.555L254.499 144.134C261.728 142.888 268.951 142.266 276.171 142.266V138.633V135C268.531 135 260.895 135.659 253.264 136.975L253.882 140.555ZM276.171 138.633V142.266C291.837 142.266 306.865 145.247 321.283 151.213L322.671 147.856L324.06 144.5C308.759 138.168 292.786 135 276.171 135V138.633ZM322.671 147.856L321.352 151.241C335.917 156.918 348.643 165.805 359.552 177.953L362.254 175.526L364.957 173.099C353.32 160.14 339.658 150.579 323.991 144.472L322.671 147.856ZM362.254 175.526L359.539 177.939C365.466 184.606 370.542 192.152 374.762 200.593L378.011 198.968L381.26 197.344C376.769 188.363 371.341 180.281 364.969 173.113L362.254 175.526ZM378.011 198.968L374.822 200.708C379.308 208.933 382.926 217.663 385.674 226.905L389.156 225.869L392.637 224.834C389.749 215.117 385.937 205.913 381.2 197.229L378.011 198.968ZM389.156 225.869L385.7 226.99C388.704 236.253 390.833 245.768 392.086 255.538L395.689 255.076L399.292 254.614C397.982 244.401 395.756 234.445 392.611 224.749L389.156 225.869ZM395.689 255.076L392.086 255.538C393.347 265.378 393.978 275.216 393.978 285.052H397.61H401.243C401.243 274.904 400.592 264.758 399.292 254.614L395.689 255.076ZM397.61 285.052H393.978C393.978 293.137 393.599 300.958 392.843 308.517L396.457 308.878L400.072 309.24C400.853 301.427 401.243 293.364 401.243 285.052H397.61ZM396.457 308.878L392.843 308.517C392.091 316.036 390.839 323.291 389.09 330.287L392.614 331.168L396.138 332.049C397.976 324.697 399.286 317.093 400.072 309.24L396.457 308.878ZM392.614 331.168L389.066 330.388C384.053 353.199 374.945 371.954 361.838 386.792L364.56 389.197L367.283 391.602C381.333 375.697 390.927 355.765 396.162 331.948L392.614 331.168ZM364.56 389.197L361.838 386.792C348.881 401.461 330.814 411.254 307.348 415.997L308.068 419.557L308.788 423.118C333.488 418.125 353.083 407.678 367.283 391.602L364.56 389.197ZM308.068 419.557L307.356 415.995C302.334 416.999 297.449 417.75 292.7 418.25L293.08 421.863L293.461 425.475C298.447 424.951 303.554 424.164 308.78 423.119L308.068 419.557ZM293.08 421.863L292.7 418.25C287.964 418.749 283.095 418.999 278.093 418.999V422.631V426.264C283.338 426.264 288.461 426.002 293.461 425.475L293.08 421.863ZM278.093 422.631V418.999C262.669 418.999 248.297 416.141 234.937 410.451L233.514 413.793L232.09 417.135C246.4 423.23 261.747 426.264 278.093 426.264V422.631ZM233.514 413.793L234.937 410.451C221.829 404.868 210.696 395.376 201.556 381.789L198.542 383.817L195.528 385.845C205.347 400.441 217.528 410.932 232.09 417.135L233.514 413.793ZM198.542 383.817L201.623 381.892C200.581 380.225 200.253 378.967 200.253 378.053H196.621H192.988C192.988 380.725 193.942 383.31 195.462 385.742L198.542 383.817ZM196.621 378.053H200.253C200.253 376.402 200.851 375.137 202.31 374.002L200.079 371.135L197.849 368.268C194.696 370.72 192.988 374.067 192.988 378.053H196.621ZM200.079 371.135L202.349 373.972C204.377 372.349 206.288 371.693 208.15 371.693V368.061V364.428C204.375 364.428 200.906 365.822 197.81 368.299L200.079 371.135ZM208.15 368.061V371.693C210.837 371.693 212.622 372.671 213.966 374.687L216.989 372.672L220.011 370.657C217.256 366.525 213.149 364.428 208.15 364.428V368.061ZM216.989 372.672L213.955 374.67C221.233 385.723 230.611 393.772 242.075 398.685L243.505 395.346L244.936 392.007C234.879 387.697 226.579 380.631 220.022 370.674L216.989 372.672ZM243.505 395.346L242.17 398.724C253.619 403.251 265.602 405.512 278.093 405.512V401.879V398.247C266.501 398.247 255.425 396.153 244.841 391.968L243.505 395.346ZM278.093 401.879V405.512C285.236 405.512 292.374 404.85 299.506 403.53L298.845 399.958L298.183 396.386C291.48 397.627 284.784 398.247 278.093 398.247V401.879ZM298.845 399.958L299.606 403.51C306.968 401.932 313.955 399.825 320.562 397.182L319.213 393.809L317.864 390.436C311.661 392.917 305.069 394.909 298.084 396.406L298.845 399.958ZM319.213 393.809L320.498 397.206C330.333 393.485 338.797 388.533 345.831 382.311L343.424 379.59L341.017 376.869C334.728 382.432 327.052 386.959 317.927 390.411L319.213 393.809ZM343.424 379.59L345.831 382.311C352.791 376.154 358.554 369.051 363.109 361.013L359.949 359.222L356.788 357.431C352.632 364.765 347.379 371.241 341.017 376.869L343.424 379.59ZM359.949 359.222L363.064 361.091C367.861 353.095 371.453 344.442 373.843 335.147L370.325 334.242L366.807 333.338C364.585 341.977 361.259 349.977 356.834 357.353L359.949 359.222ZM370.325 334.242L373.843 335.147C376.204 325.966 377.773 316.407 378.558 306.474L374.936 306.188L371.315 305.902C370.562 315.441 369.058 324.584 366.807 333.338L370.325 334.242ZM374.936 306.188L378.556 306.49C378.821 303.316 378.953 300.14 378.953 296.965H375.321H371.688C371.688 299.938 371.564 302.912 371.316 305.887L374.936 306.188ZM375.321 296.965H378.953C378.953 296.959 378.953 296.952 378.953 296.946C378.953 296.939 378.953 296.933 378.953 296.926C378.953 296.92 378.953 296.913 378.953 296.906C378.953 296.9 378.953 296.893 378.953 296.887C378.953 296.88 378.953 296.874 378.953 296.867C378.953 296.861 378.953 296.854 378.953 296.848C378.953 296.841 378.953 296.835 378.953 296.828C378.953 296.822 378.953 296.815 378.953 296.809C378.953 296.802 378.953 296.796 378.953 296.789C378.953 296.783 378.953 296.776 378.953 296.77C378.953 296.763 378.953 296.757 378.953 296.75C378.953 296.744 378.953 296.737 378.953 296.731C378.953 296.724 378.953 296.718 378.953 296.711C378.953 296.705 378.953 296.698 378.953 296.692C378.953 296.685 378.953 296.679 378.953 296.672C378.953 296.665 378.953 296.659 378.953 296.652C378.953 296.646 378.953 296.639 378.953 296.633C378.953 296.626 378.953 296.62 378.953 296.613C378.953 296.607 378.953 296.6 378.953 296.594C378.953 296.587 378.953 296.581 378.953 296.574C378.953 296.568 378.953 296.561 378.953 296.555C378.953 296.548 378.953 296.542 378.953 296.535C378.953 296.528 378.953 296.522 378.953 296.515C378.953 296.509 378.953 296.502 378.953 296.496C378.953 296.489 378.953 296.483 378.953 296.476C378.953 296.47 378.953 296.463 378.953 296.457C378.953 296.45 378.953 296.444 378.953 296.437C378.953 296.431 378.953 296.424 378.953 296.417C378.953 296.411 378.953 296.404 378.953 296.398C378.953 296.391 378.953 296.385 378.953 296.378C378.953 296.372 378.953 296.365 378.953 296.359C378.953 296.352 378.953 296.346 378.953 296.339C378.953 296.333 378.953 296.326 378.953 296.319C378.953 296.313 378.953 296.306 378.953 296.3C378.953 296.293 378.953 296.287 378.953 296.28C378.953 296.274 378.953 296.267 378.953 296.261C378.953 296.254 378.953 296.248 378.953 296.241C378.953 296.234 378.953 296.228 378.953 296.221C378.953 296.215 378.953 296.208 378.953 296.202C378.953 296.195 378.953 296.189 378.953 296.182C378.953 296.176 378.953 296.169 378.953 296.162C378.953 296.156 378.953 296.149 378.953 296.143C378.953 296.136 378.953 296.13 378.953 296.123C378.953 296.117 378.953 296.11 378.953 296.104C378.953 296.097 378.953 296.09 378.953 296.084C378.953 296.077 378.953 296.071 378.953 296.064C378.953 296.058 378.953 296.051 378.953 296.045C378.953 296.038 378.953 296.031 378.953 296.025C378.953 296.018 378.953 296.012 378.953 296.005C378.953 295.999 378.953 295.992 378.953 295.986C378.953 295.979 378.953 295.973 378.953 295.966C378.953 295.959 378.953 295.953 378.953 295.946C378.953 295.94 378.953 295.933 378.953 295.927C378.953 295.92 378.953 295.914 378.953 295.907C378.953 295.9 378.953 295.894 378.953 295.887C378.953 295.881 378.953 295.874 378.953 295.868C378.953 295.861 378.953 295.854 378.953 295.848C378.953 295.841 378.953 295.835 378.953 295.828C378.953 295.822 378.953 295.815 378.953 295.809C378.953 295.802 378.953 295.795 378.953 295.789C378.953 295.782 378.953 295.776 378.953 295.769C378.953 295.763 378.953 295.756 378.953 295.749C378.953 295.743 378.953 295.736 378.953 295.73C378.953 295.723 378.953 295.717 378.953 295.71C378.953 295.704 378.953 295.697 378.953 295.69C378.953 295.684 378.953 295.677 378.953 295.671C378.953 295.664 378.953 295.658 378.953 295.651C378.953 295.644 378.953 295.638 378.953 295.631C378.953 295.625 378.953 295.618 378.953 295.612C378.953 295.605 378.953 295.598 378.953 295.592C378.953 295.585 378.953 295.579 378.953 295.572C378.953 295.566 378.953 295.559 378.953 295.552C378.953 295.546 378.953 295.539 378.953 295.533C378.953 295.526 378.953 295.519 378.953 295.513C378.953 295.506 378.953 295.5 378.953 295.493C378.953 295.487 378.953 295.48 378.953 295.473C378.953 295.467 378.953 295.46 378.953 295.454C378.953 295.447 378.953 295.441 378.953 295.434C378.953 295.427 378.953 295.421 378.953 295.414C378.953 295.408 378.953 295.401 378.953 295.394C378.953 295.388 378.953 295.381 378.953 295.375C378.953 295.368 378.953 295.362 378.953 295.355C378.953 295.348 378.953 295.342 378.953 295.335C378.953 295.329 378.953 295.322 378.953 295.315C378.953 295.309 378.953 295.302 378.953 295.296C378.953 295.289 378.953 295.282 378.953 295.276C378.953 295.269 378.953 295.263 378.953 295.256C378.953 295.25 378.953 295.243 378.953 295.236C378.953 295.23 378.953 295.223 378.953 295.217C378.953 295.21 378.953 295.203 378.953 295.197C378.953 295.19 378.953 295.184 378.953 295.177C378.953 295.17 378.953 295.164 378.953 295.157C378.953 295.151 378.953 295.144 378.953 295.137C378.953 295.131 378.953 295.124 378.953 295.118C378.953 295.111 378.953 295.104 378.953 295.098C378.953 295.091 378.953 295.085 378.953 295.078C378.953 295.071 378.953 295.065 378.953 295.058C378.953 295.052 378.953 295.045 378.953 295.038C378.953 295.032 378.953 295.025 378.953 295.019C378.953 295.012 378.953 295.005 378.953 294.999C378.953 294.992 378.953 294.986 378.953 294.979C378.953 294.972 378.953 294.966 378.953 294.959C378.953 294.953 378.953 294.946 378.953 294.939C378.953 294.933 378.953 294.926 378.953 294.92C378.953 294.913 378.953 294.906 378.953 294.9C378.953 294.893 378.953 294.887 378.953 294.88C378.953 294.873 378.953 294.867 378.953 294.86C378.953 294.854 378.953 294.847 378.953 294.84C378.953 294.834 378.953 294.827 378.953 294.82C378.953 294.814 378.953 294.807 378.953 294.801C378.953 294.794 378.953 294.787 378.953 294.781C378.953 294.774 378.953 294.768 378.953 294.761C378.953 294.754 378.953 294.748 378.953 294.741C378.953 294.734 378.953 294.728 378.953 294.721C378.953 294.715 378.953 294.708 378.953 294.701C378.953 294.695 378.953 294.688 378.953 294.682C378.953 294.675 378.953 294.668 378.953 294.662C378.953 294.655 378.953 294.648 378.953 294.642C378.953 294.635 378.953 294.629 378.953 294.622C378.953 294.615 378.953 294.609 378.953 294.602C378.953 294.595 378.953 294.589 378.953 294.582C378.953 294.576 378.953 294.569 378.953 294.562C378.953 294.556 378.953 294.549 378.953 294.542C378.953 294.536 378.953 294.529 378.953 294.523C378.953 294.516 378.953 294.509 378.953 294.503C378.953 294.496 378.953 294.489 378.953 294.483C378.953 294.476 378.953 294.47 378.953 294.463C378.953 294.456 378.953 294.45 378.953 294.443C378.953 294.436 378.953 294.43 378.953 294.423C378.953 294.417 378.953 294.41 378.953 294.403C378.953 294.397 378.953 294.39 378.953 294.383C378.953 294.377 378.953 294.37 378.953 294.363C378.953 294.357 378.953 294.35 378.953 294.344C378.953 294.337 378.953 294.33 378.953 294.324C378.953 294.317 378.953 294.31 378.953 294.304C378.953 294.297 378.953 294.29 378.953 294.284C378.953 294.277 378.953 294.271 378.953 294.264C378.953 294.257 378.953 294.251 378.953 294.244C378.953 294.237 378.953 294.231 378.953 294.224C378.953 294.217 378.953 294.211 378.953 294.204C378.953 294.198 378.953 294.191 378.953 294.184C378.953 294.178 378.953 294.171 378.953 294.164C378.953 294.158 378.953 294.151 378.953 294.144C378.953 294.138 378.953 294.131 378.953 294.124C378.953 294.118 378.953 294.111 378.953 294.105C378.953 294.098 378.953 294.091 378.953 294.085C378.953 294.078 378.953 294.071 378.953 294.065C378.953 294.058 378.953 294.051 378.953 294.045C378.953 294.038 378.953 294.031 378.953 294.025C378.953 294.018 378.953 294.011 378.953 294.005C378.953 293.998 378.953 293.991 378.953 293.985C378.953 293.978 378.953 293.972 378.953 293.965C378.953 293.958 378.953 293.952 378.953 293.945C378.953 293.938 378.953 293.932 378.953 293.925C378.953 293.918 378.953 293.912 378.953 293.905C378.953 293.898 378.953 293.892 378.953 293.885C378.953 293.878 378.953 293.872 378.953 293.865C378.953 293.858 378.953 293.852 378.953 293.845C378.953 293.838 378.953 293.832 378.953 293.825C378.953 293.818 378.953 293.812 378.953 293.805C378.953 293.798 378.953 293.792 378.953 293.785C378.953 293.778 378.953 293.772 378.953 293.765C378.953 293.758 378.953 293.752 378.953 293.745C378.953 293.738 378.953 293.732 378.953 293.725C378.953 293.718 378.953 293.712 378.953 293.705C378.953 293.698 378.953 293.692 378.953 293.685C378.953 293.678 378.953 293.672 378.953 293.665C378.953 293.658 378.953 293.652 378.953 293.645C378.953 293.638 378.953 293.632 378.953 293.625C378.953 293.618 378.953 293.612 378.953 293.605C378.953 293.598 378.953 293.592 378.953 293.585C378.953 293.578 378.953 293.572 378.953 293.565C378.953 293.558 378.953 293.552 378.953 293.545C378.953 293.538 378.953 293.532 378.953 293.525C378.953 293.518 378.953 293.512 378.953 293.505C378.953 293.498 378.953 293.492 378.953 293.485C378.953 293.478 378.953 293.472 378.953 293.465C378.953 293.458 378.953 293.452 378.953 293.445C378.953 293.438 378.953 293.432 378.953 293.425C378.953 293.418 378.953 293.411 378.953 293.405C378.953 293.398 378.953 293.391 378.953 293.385C378.953 293.378 378.953 293.371 378.953 293.365C378.953 293.358 378.953 293.351 378.953 293.345C378.953 293.338 378.953 293.331 378.953 293.325C378.953 293.318 378.953 293.311 378.953 293.305C378.953 293.298 378.953 293.291 378.953 293.284C378.953 293.278 378.953 293.271 378.953 293.264C378.953 293.258 378.953 293.251 378.953 293.244C378.953 293.238 378.953 293.231 378.953 293.224C378.953 293.218 378.953 293.211 378.953 293.204C378.953 293.198 378.953 293.191 378.953 293.184C378.953 293.177 378.953 293.171 378.953 293.164C378.953 293.157 378.953 293.151 378.953 293.144C378.953 293.137 378.953 293.131 378.953 293.124C378.953 293.117 378.953 293.111 378.953 293.104C378.953 293.097 378.953 293.09 378.953 293.084C378.953 293.077 378.953 293.07 378.953 293.064C378.953 293.057 378.953 293.05 378.953 293.044C378.953 293.037 378.953 293.03 378.953 293.023C378.953 293.017 378.953 293.01 378.953 293.003C378.953 292.997 378.953 292.99 378.953 292.983C378.953 292.977 378.953 292.97 378.953 292.963C378.953 292.956 378.953 292.95 378.953 292.943C378.953 292.936 378.953 292.93 378.953 292.923C378.953 292.916 378.953 292.91 378.953 292.903C378.953 292.896 378.953 292.889 378.953 292.883C378.953 292.876 378.953 292.869 378.953 292.863C378.953 292.856 378.953 292.849 378.953 292.842C378.953 292.836 378.953 292.829 378.953 292.822C378.953 292.816 378.953 292.809 378.953 292.802C378.953 292.795 378.953 292.789 378.953 292.782C378.953 292.775 378.953 292.769 378.953 292.762C378.953 292.755 378.953 292.748 378.953 292.742C378.953 292.735 378.953 292.728 378.953 292.722C378.953 292.715 378.953 292.708 378.953 292.701C378.953 292.695 378.953 292.688 378.953 292.681C378.953 292.675 378.953 292.668 378.953 292.661C378.953 292.654 378.953 292.648 378.953 292.641C378.953 292.634 378.953 292.628 378.953 292.621C378.953 292.614 378.953 292.607 378.953 292.601C378.953 292.594 378.953 292.587 378.953 292.581C378.953 292.574 378.953 292.567 378.953 292.56C378.953 292.554 378.953 292.547 378.953 292.54C378.953 292.534 378.953 292.527 378.953 292.52C378.953 292.513 378.953 292.507 378.953 292.5C378.953 292.493 378.953 292.486 378.953 292.48C378.953 292.473 378.953 292.466 378.953 292.46C378.953 292.453 378.953 292.446 378.953 292.439C378.953 292.433 378.953 292.426 378.953 292.419C378.953 292.412 378.953 292.406 378.953 292.399C378.953 292.392 378.953 292.386 378.953 292.379C378.953 292.372 378.953 292.365 378.953 292.359C378.953 292.352 378.953 292.345 378.953 292.338C378.953 292.332 378.953 292.325 378.953 292.318C378.953 292.311 378.953 292.305 378.953 292.298C378.953 292.291 378.953 292.285 378.953 292.278C378.953 292.271 378.953 292.264 378.953 292.258C378.953 292.251 378.953 292.244 378.953 292.237C378.953 292.231 378.953 292.224 378.953 292.217C378.953 292.21 378.953 292.204 378.953 292.197C378.953 292.19 378.953 292.183 378.953 292.177C378.953 292.17 378.953 292.163 378.953 292.156C378.953 292.15 378.953 292.143 378.953 292.136C378.953 292.13 378.953 292.123 378.953 292.116C378.953 292.109 378.953 292.103 378.953 292.096C378.953 292.089 378.953 292.082 378.953 292.076C378.953 292.069 378.953 292.062 378.953 292.055C378.953 292.049 378.953 292.042 378.953 292.035C378.953 292.028 378.953 292.022 378.953 292.015C378.953 292.008 378.953 292.001 378.953 291.995C378.953 291.988 378.953 291.981 378.953 291.974C378.953 291.968 378.953 291.961 378.953 291.954C378.953 291.947 378.953 291.941 378.953 291.934C378.953 291.927 378.953 291.92 378.953 291.914C378.953 291.907 378.953 291.9 378.953 291.893C378.953 291.887 378.953 291.88 378.953 291.873C378.953 291.866 378.953 291.86 378.953 291.853C378.953 291.846 378.953 291.839 378.953 291.833C378.953 291.826 378.953 291.819 378.953 291.812C378.953 291.805 378.953 291.799 378.953 291.792C378.953 291.785 378.953 291.778 378.953 291.772C378.953 291.765 378.953 291.758 378.953 291.751C378.953 291.745 378.953 291.738 378.953 291.731C378.953 291.724 378.953 291.718 378.953 291.711C378.953 291.704 378.953 291.697 378.953 291.691C378.953 291.684 378.953 291.677 378.953 291.67C378.953 291.663 378.953 291.657 378.953 291.65C378.953 291.643 378.953 291.636 378.953 291.63C378.953 291.623 378.953 291.616 378.953 291.609C378.953 291.603 378.953 291.596 378.953 291.589C378.953 291.582 378.953 291.576 378.953 291.569C378.953 291.562 378.953 291.555 378.953 291.548C378.953 291.542 378.953 291.535 378.953 291.528C378.953 291.521 378.953 291.515 378.953 291.508C378.953 291.501 378.953 291.494 378.953 291.487C378.953 291.481 378.953 291.474 378.953 291.467C378.953 291.46 378.953 291.454 378.953 291.447C378.953 291.44 378.953 291.433 378.953 291.427C378.953 291.42 378.953 291.413 378.953 291.406C378.953 291.399 378.953 291.393 378.953 291.386C378.953 291.379 378.953 291.372 378.953 291.365C378.953 291.359 378.953 291.352 378.953 291.345C378.953 291.338 378.953 291.332 378.953 291.325C378.953 291.318 378.953 291.311 378.953 291.304C378.953 291.298 378.953 291.291 378.953 291.284C378.953 291.277 378.953 291.271 378.953 291.264C378.953 291.257 378.953 291.25 378.953 291.243C378.953 291.237 378.953 291.23 378.953 291.223C378.953 291.216 378.953 291.209 378.953 291.203C378.953 291.196 378.953 291.189 378.953 291.182C378.953 291.176 378.953 291.169 378.953 291.162C378.953 291.155 378.953 291.148 378.953 291.142C378.953 291.135 378.953 291.128 378.953 291.121C378.953 291.114 378.953 291.108 378.953 291.101C378.953 291.094 378.953 291.087 378.953 291.08C378.953 291.074 378.953 291.067 378.953 291.06C378.953 291.053 378.953 291.046 378.953 291.04C378.953 291.033 378.953 291.026 378.953 291.019C378.953 291.013 378.953 291.006 378.953 290.999C378.953 290.992 378.953 290.985 378.953 290.979C378.953 290.972 378.953 290.965 378.953 290.958C378.953 290.951 378.953 290.945 378.953 290.938C378.953 290.931 378.953 290.924 378.953 290.917C378.953 290.911 378.953 290.904 378.953 290.897C378.953 290.89 378.953 290.883 378.953 290.877C378.953 290.87 378.953 290.863 378.953 290.856C378.953 290.849 378.953 290.842 378.953 290.836C378.953 290.829 378.953 290.822 378.953 290.815C378.953 290.808 378.953 290.802 378.953 290.795C378.953 290.788 378.953 290.781 378.953 290.774C378.953 290.768 378.953 290.761 378.953 290.754C378.953 290.747 378.953 290.74 378.953 290.734C378.953 290.727 378.953 290.72 378.953 290.713C378.953 290.706 378.953 290.7 378.953 290.693C378.953 290.686 378.953 290.679 378.953 290.672C378.953 290.665 378.953 290.659 378.953 290.652C378.953 290.645 378.953 290.638 378.953 290.631C378.953 290.625 378.953 290.618 378.953 290.611C378.953 290.604 378.953 290.597 378.953 290.59C378.953 290.584 378.953 290.577 378.953 290.57C378.953 290.563 378.953 290.556 378.953 290.55C378.953 290.543 378.953 290.536 378.953 290.529C378.953 290.522 378.953 290.515 378.953 290.509C378.953 290.502 378.953 290.495 378.953 290.488C378.953 290.481 378.953 290.475 378.953 290.468C378.953 290.461 378.953 290.454 378.953 290.447C378.953 290.44 378.953 290.434 378.953 290.427C378.953 290.42 378.953 290.413 378.953 290.406C378.953 290.399 378.953 290.393 378.953 290.386C378.953 290.379 378.953 290.372 378.953 290.365C378.953 290.359 378.953 290.352 378.953 290.345C378.953 290.338 378.953 290.331 378.953 290.324C378.953 290.318 378.953 290.311 378.953 290.304C378.953 290.297 378.953 290.29 378.953 290.283C378.953 290.277 378.953 290.27 378.953 290.263C378.953 290.256 378.953 290.249 378.953 290.242C378.953 290.236 378.953 290.229 378.953 290.222C378.953 290.215 378.953 290.208 378.953 290.201C378.953 290.195 378.953 290.188 378.953 290.181C378.953 290.174 378.953 290.167 378.953 290.16C378.953 290.154 378.953 290.147 378.953 290.14C378.953 290.133 378.953 290.126 378.953 290.119C378.953 290.113 378.953 290.106 378.953 290.099C378.953 290.092 378.953 290.085 378.953 290.078C378.953 290.071 378.953 290.065 378.953 290.058C378.953 290.051 378.953 290.044 378.953 290.037C378.953 290.03 378.953 290.024 378.953 290.017C378.953 290.01 378.953 290.003 378.953 289.996C378.953 289.989 378.953 289.983 378.953 289.976C378.953 289.969 378.953 289.962 378.953 289.955C378.953 289.948 378.953 289.941 378.953 289.935C378.953 289.928 378.953 289.921 378.953 289.914C378.953 289.907 378.953 289.9 378.953 289.893C378.953 289.887 378.953 289.88 378.953 289.873C378.953 289.866 378.953 289.859 378.953 289.852C378.953 289.846 378.953 289.839 378.953 289.832C378.953 289.825 378.953 289.818 378.953 289.811C378.953 289.804 378.953 289.798 378.953 289.791C378.953 289.784 378.953 289.777 378.953 289.77C378.953 289.763 378.953 289.756 378.953 289.75C378.953 289.743 378.953 289.736 378.953 289.729C378.953 289.722 378.953 289.715 378.953 289.708C378.953 289.702 378.953 289.695 378.953 289.688C378.953 289.681 378.953 289.674 378.953 289.667C378.953 289.66 378.953 289.654 378.953 289.647C378.953 289.64 378.953 289.633 378.953 289.626C378.953 289.619 378.953 289.612 378.953 289.605C378.953 289.599 378.953 289.592 378.953 289.585C378.953 289.578 378.953 289.571 378.953 289.564C378.953 289.557 378.953 289.551 378.953 289.544C378.953 289.537 378.953 289.53 378.953 289.523C378.953 289.516 378.953 289.509 378.953 289.502C378.953 289.496 378.953 289.489 378.953 289.482C378.953 289.475 378.953 289.468 378.953 289.461C378.953 289.454 378.953 289.448 378.953 289.441C378.953 289.434 378.953 289.427 378.953 289.42C378.953 289.413 378.953 289.406 378.953 289.399C378.953 289.393 378.953 289.386 378.953 289.379C378.953 289.372 378.953 289.365 378.953 289.358C378.953 289.351 378.953 289.344 378.953 289.338C378.953 289.331 378.953 289.324 378.953 289.317C378.953 289.31 378.953 289.303 378.953 289.296C378.953 289.289 378.953 289.283 378.953 289.276C378.953 289.269 378.953 289.262 378.953 289.255C378.953 289.248 378.953 289.241 378.953 289.234C378.953 289.227 378.953 289.221 378.953 289.214C378.953 289.207 378.953 289.2 378.953 289.193C378.953 289.186 378.953 289.179 378.953 289.172C378.953 289.166 378.953 289.159 378.953 289.152C378.953 289.145 378.953 289.138 378.953 289.131C378.953 289.124 378.953 289.117 378.953 289.11C378.953 289.104 378.953 289.097 378.953 289.09C378.953 289.083 378.953 289.076 378.953 289.069C378.953 289.062 378.953 289.055 378.953 289.048C378.953 289.042 378.953 289.035 378.953 289.028C378.953 289.021 378.953 289.014 378.953 289.007C378.953 289 378.953 288.993 378.953 288.986C378.953 288.98 378.953 288.973 378.953 288.966C378.953 288.959 378.953 288.952 378.953 288.945C378.953 288.938 378.953 288.931 378.953 288.924C378.953 288.917 378.953 288.911 378.953 288.904C378.953 288.897 378.953 288.89 378.953 288.883C378.953 288.876 378.953 288.869 378.953 288.862C378.953 288.855 378.953 288.849 378.953 288.842C378.953 288.835 378.953 288.828 378.953 288.821C378.953 288.814 378.953 288.807 378.953 288.8C378.953 288.793 378.953 288.786 378.953 288.779C378.953 288.773 378.953 288.766 378.953 288.759C378.953 288.752 378.953 288.745 378.953 288.738C378.953 288.731 378.953 288.724 378.953 288.717C378.953 288.71 378.953 288.704 378.953 288.697C378.953 288.69 378.953 288.683 378.953 288.676C378.953 288.669 378.953 288.662 378.953 288.655C378.953 288.648 378.953 288.641 378.953 288.634C378.953 288.628 378.953 288.621 378.953 288.614C378.953 288.607 378.953 288.6 378.953 288.593C378.953 288.586 378.953 288.579 378.953 288.572C378.953 288.565 378.953 288.558 378.953 288.552C378.953 288.545 378.953 288.538 378.953 288.531C378.953 288.524 378.953 288.517 378.953 288.51C378.953 288.503 378.953 288.496 378.953 288.489C378.953 288.482 378.953 288.475 378.953 288.469C378.953 288.462 378.953 288.455 378.953 288.448C378.953 288.441 378.953 288.434 378.953 288.427C378.953 288.42 378.953 288.413 378.953 288.406C378.953 288.399 378.953 288.392 378.953 288.385C378.953 288.379 378.953 288.372 378.953 288.365C378.953 288.358 378.953 288.351 378.953 288.344C378.953 288.337 378.953 288.33 378.953 288.323C378.953 288.316 378.953 288.309 378.953 288.302C378.953 288.295 378.953 288.289 378.953 288.282C378.953 288.275 378.953 288.268 378.953 288.261C378.953 288.254 378.953 288.247 378.953 288.24C378.953 288.233 378.953 288.226 378.953 288.219C378.953 288.212 378.953 288.205 378.953 288.198C378.953 288.192 378.953 288.185 378.953 288.178C378.953 288.171 378.953 288.164 378.953 288.157C378.953 288.15 378.953 288.143 378.953 288.136C378.953 288.129 378.953 288.122 378.953 288.115C378.953 288.108 378.953 288.101 378.953 288.095C378.953 288.088 378.953 288.081 378.953 288.074C378.953 288.067 378.953 288.06 378.953 288.053C378.953 288.046 378.953 288.039 378.953 288.032C378.953 288.025 378.953 288.018 378.953 288.011C378.953 288.004 378.953 287.997 378.953 287.99C378.953 287.984 378.953 287.977 378.953 287.97C378.953 287.963 378.953 287.956 378.953 287.949C378.953 287.942 378.953 287.935 378.953 287.928C378.953 287.921 378.953 287.914 378.953 287.907C378.953 287.9 378.953 287.893 378.953 287.886C378.953 287.879 378.953 287.872 378.953 287.865C378.953 287.859 378.953 287.852 378.953 287.845C378.953 287.838 378.953 287.831 378.953 287.824C378.953 287.817 378.953 287.81 378.953 287.803C378.953 287.796 378.953 287.789 378.953 287.782C378.953 287.775 378.953 287.768 378.953 287.761C378.953 287.754 378.953 287.747 378.953 287.74C378.953 287.733 378.953 287.726 378.953 287.72C378.953 287.713 378.953 287.706 378.953 287.699C378.953 287.692 378.953 287.685 378.953 287.678C378.953 287.671 378.953 287.664 378.953 287.657C378.953 287.65 378.953 287.643 378.953 287.636C378.953 287.629 378.953 287.622 378.953 287.615C378.953 287.608 378.953 287.601 378.953 287.594C378.953 287.587 378.953 287.58 378.953 287.573C378.953 287.566 378.953 287.56 378.953 287.553C378.953 287.546 378.953 287.539 378.953 287.532C378.953 287.525 378.953 287.518 378.953 287.511C378.953 287.504 378.953 287.497 378.953 287.49C378.953 287.483 378.953 287.476 378.953 287.469C378.953 287.462 378.953 287.455 378.953 287.448C378.953 287.441 378.953 287.434 378.953 287.427C378.953 287.42 378.953 287.413 378.953 287.406C378.953 287.399 378.953 287.392 378.953 287.385C378.953 287.378 378.953 287.371 378.953 287.365C378.953 287.358 378.953 287.351 378.953 287.344C378.953 287.337 378.953 287.33 378.953 287.323C378.953 287.316 378.953 287.309 378.953 287.302C378.953 287.295 378.953 287.288 378.953 287.281C378.953 287.274 378.953 287.267 378.953 287.26C378.953 287.253 378.953 287.246 378.953 287.239C378.953 287.232 378.953 287.225 378.953 287.218C378.953 287.211 378.953 287.204 378.953 287.197C378.953 287.19 378.953 287.183 378.953 287.176C378.953 287.169 378.953 287.162 378.953 287.155C378.953 287.148 378.953 287.141 378.953 287.134C378.953 287.127 378.953 287.12 378.953 287.113C378.953 287.106 378.953 287.099 378.953 287.092C378.953 287.085 378.953 287.079 378.953 287.072C378.953 287.065 378.953 287.058 378.953 287.051C378.953 287.044 378.953 287.037 378.953 287.03C378.953 287.023 378.953 287.016 378.953 287.009C378.953 287.002 378.953 286.995 378.953 286.988C378.953 286.981 378.953 286.974 378.953 286.967C378.953 286.96 378.953 286.953 378.953 286.946C378.953 286.939 378.953 286.932 378.953 286.925C378.953 286.918 378.953 286.911 378.953 286.904C378.953 286.897 378.953 286.89 378.953 286.883C378.953 286.876 378.953 286.869 378.953 286.862C378.953 286.855 378.953 286.848 378.953 286.841C378.953 286.834 378.953 286.827 378.953 286.82C378.953 286.813 378.953 286.806 378.953 286.799C378.953 286.792 378.953 286.785 378.953 286.778C378.953 286.771 378.953 286.764 378.953 286.757C378.953 286.75 378.953 286.743 378.953 286.736C378.953 286.729 378.953 286.722 378.953 286.715C378.953 286.708 378.953 286.701 378.953 286.694C378.953 286.687 378.953 286.68 378.953 286.673C378.953 286.666 378.953 286.659 378.953 286.652C378.953 286.645 378.953 286.638 378.953 286.631C378.953 286.624 378.953 286.617 378.953 286.61C378.953 286.603 378.953 286.596 378.953 286.589H375.321H371.688C371.688 286.596 371.688 286.603 371.688 286.61C371.688 286.617 371.688 286.624 371.688 286.631C371.688 286.638 371.688 286.645 371.688 286.652C371.688 286.659 371.688 286.666 371.688 286.673C371.688 286.68 371.688 286.687 371.688 286.694C371.688 286.701 371.688 286.708 371.688 286.715C371.688 286.722 371.688 286.729 371.688 286.736C371.688 286.743 371.688 286.75 371.688 286.757C371.688 286.764 371.688 286.771 371.688 286.778C371.688 286.785 371.688 286.792 371.688 286.799C371.688 286.806 371.688 286.813 371.688 286.82C371.688 286.827 371.688 286.834 371.688 286.841C371.688 286.848 371.688 286.855 371.688 286.862C371.688 286.869 371.688 286.876 371.688 286.883C371.688 286.89 371.688 286.897 371.688 286.904C371.688 286.911 371.688 286.918 371.688 286.925C371.688 286.932 371.688 286.939 371.688 286.946C371.688 286.953 371.688 286.96 371.688 286.967C371.688 286.974 371.688 286.981 371.688 286.988C371.688 286.995 371.688 287.002 371.688 287.009C371.688 287.016 371.688 287.023 371.688 287.03C371.688 287.037 371.688 287.044 371.688 287.051C371.688 287.058 371.688 287.065 371.688 287.072C371.688 287.079 371.688 287.085 371.688 287.092C371.688 287.099 371.688 287.106 371.688 287.113C371.688 287.12 371.688 287.127 371.688 287.134C371.688 287.141 371.688 287.148 371.688 287.155C371.688 287.162 371.688 287.169 371.688 287.176C371.688 287.183 371.688 287.19 371.688 287.197C371.688 287.204 371.688 287.211 371.688 287.218C371.688 287.225 371.688 287.232 371.688 287.239C371.688 287.246 371.688 287.253 371.688 287.26C371.688 287.267 371.688 287.274 371.688 287.281C371.688 287.288 371.688 287.295 371.688 287.302C371.688 287.309 371.688 287.316 371.688 287.323C371.688 287.33 371.688 287.337 371.688 287.344C371.688 287.351 371.688 287.358 371.688 287.365C371.688 287.371 371.688 287.378 371.688 287.385C371.688 287.392 371.688 287.399 371.688 287.406C371.688 287.413 371.688 287.42 371.688 287.427C371.688 287.434 371.688 287.441 371.688 287.448C371.688 287.455 371.688 287.462 371.688 287.469C371.688 287.476 371.688 287.483 371.688 287.49C371.688 287.497 371.688 287.504 371.688 287.511C371.688 287.518 371.688 287.525 371.688 287.532C371.688 287.539 371.688 287.546 371.688 287.553C371.688 287.56 371.688 287.566 371.688 287.573C371.688 287.58 371.688 287.587 371.688 287.594C371.688 287.601 371.688 287.608 371.688 287.615C371.688 287.622 371.688 287.629 371.688 287.636C371.688 287.643 371.688 287.65 371.688 287.657C371.688 287.664 371.688 287.671 371.688 287.678C371.688 287.685 371.688 287.692 371.688 287.699C371.688 287.706 371.688 287.713 371.688 287.72C371.688 287.726 371.688 287.733 371.688 287.74C371.688 287.747 371.688 287.754 371.688 287.761C371.688 287.768 371.688 287.775 371.688 287.782C371.688 287.789 371.688 287.796 371.688 287.803C371.688 287.81 371.688 287.817 371.688 287.824C371.688 287.831 371.688 287.838 371.688 287.845C371.688 287.852 371.688 287.859 371.688 287.865C371.688 287.872 371.688 287.879 371.688 287.886C371.688 287.893 371.688 287.9 371.688 287.907C371.688 287.914 371.688 287.921 371.688 287.928C371.688 287.935 371.688 287.942 371.688 287.949C371.688 287.956 371.688 287.963 371.688 287.97C371.688 287.977 371.688 287.984 371.688 287.99C371.688 287.997 371.688 288.004 371.688 288.011C371.688 288.018 371.688 288.025 371.688 288.032C371.688 288.039 371.688 288.046 371.688 288.053C371.688 288.06 371.688 288.067 371.688 288.074C371.688 288.081 371.688 288.088 371.688 288.095C371.688 288.101 371.688 288.108 371.688 288.115C371.688 288.122 371.688 288.129 371.688 288.136C371.688 288.143 371.688 288.15 371.688 288.157C371.688 288.164 371.688 288.171 371.688 288.178C371.688 288.185 371.688 288.192 371.688 288.198C371.688 288.205 371.688 288.212 371.688 288.219C371.688 288.226 371.688 288.233 371.688 288.24C371.688 288.247 371.688 288.254 371.688 288.261C371.688 288.268 371.688 288.275 371.688 288.282C371.688 288.289 371.688 288.295 371.688 288.302C371.688 288.309 371.688 288.316 371.688 288.323C371.688 288.33 371.688 288.337 371.688 288.344C371.688 288.351 371.688 288.358 371.688 288.365C371.688 288.372 371.688 288.379 371.688 288.385C371.688 288.392 371.688 288.399 371.688 288.406C371.688 288.413 371.688 288.42 371.688 288.427C371.688 288.434 371.688 288.441 371.688 288.448C371.688 288.455 371.688 288.462 371.688 288.469C371.688 288.475 371.688 288.482 371.688 288.489C371.688 288.496 371.688 288.503 371.688 288.51C371.688 288.517 371.688 288.524 371.688 288.531C371.688 288.538 371.688 288.545 371.688 288.552C371.688 288.558 371.688 288.565 371.688 288.572C371.688 288.579 371.688 288.586 371.688 288.593C371.688 288.6 371.688 288.607 371.688 288.614C371.688 288.621 371.688 288.628 371.688 288.634C371.688 288.641 371.688 288.648 371.688 288.655C371.688 288.662 371.688 288.669 371.688 288.676C371.688 288.683 371.688 288.69 371.688 288.697C371.688 288.704 371.688 288.71 371.688 288.717C371.688 288.724 371.688 288.731 371.688 288.738C371.688 288.745 371.688 288.752 371.688 288.759C371.688 288.766 371.688 288.773 371.688 288.779C371.688 288.786 371.688 288.793 371.688 288.8C371.688 288.807 371.688 288.814 371.688 288.821C371.688 288.828 371.688 288.835 371.688 288.842C371.688 288.849 371.688 288.855 371.688 288.862C371.688 288.869 371.688 288.876 371.688 288.883C371.688 288.89 371.688 288.897 371.688 288.904C371.688 288.911 371.688 288.917 371.688 288.924C371.688 288.931 371.688 288.938 371.688 288.945C371.688 288.952 371.688 288.959 371.688 288.966C371.688 288.973 371.688 288.98 371.688 288.986C371.688 288.993 371.688 289 371.688 289.007C371.688 289.014 371.688 289.021 371.688 289.028C371.688 289.035 371.688 289.042 371.688 289.048C371.688 289.055 371.688 289.062 371.688 289.069C371.688 289.076 371.688 289.083 371.688 289.09C371.688 289.097 371.688 289.104 371.688 289.11C371.688 289.117 371.688 289.124 371.688 289.131C371.688 289.138 371.688 289.145 371.688 289.152C371.688 289.159 371.688 289.166 371.688 289.172C371.688 289.179 371.688 289.186 371.688 289.193C371.688 289.2 371.688 289.207 371.688 289.214C371.688 289.221 371.688 289.227 371.688 289.234C371.688 289.241 371.688 289.248 371.688 289.255C371.688 289.262 371.688 289.269 371.688 289.276C371.688 289.283 371.688 289.289 371.688 289.296C371.688 289.303 371.688 289.31 371.688 289.317C371.688 289.324 371.688 289.331 371.688 289.338C371.688 289.344 371.688 289.351 371.688 289.358C371.688 289.365 371.688 289.372 371.688 289.379C371.688 289.386 371.688 289.393 371.688 289.399C371.688 289.406 371.688 289.413 371.688 289.42C371.688 289.427 371.688 289.434 371.688 289.441C371.688 289.448 371.688 289.454 371.688 289.461C371.688 289.468 371.688 289.475 371.688 289.482C371.688 289.489 371.688 289.496 371.688 289.502C371.688 289.509 371.688 289.516 371.688 289.523C371.688 289.53 371.688 289.537 371.688 289.544C371.688 289.551 371.688 289.557 371.688 289.564C371.688 289.571 371.688 289.578 371.688 289.585C371.688 289.592 371.688 289.599 371.688 289.605C371.688 289.612 371.688 289.619 371.688 289.626C371.688 289.633 371.688 289.64 371.688 289.647C371.688 289.654 371.688 289.66 371.688 289.667C371.688 289.674 371.688 289.681 371.688 289.688C371.688 289.695 371.688 289.702 371.688 289.708C371.688 289.715 371.688 289.722 371.688 289.729C371.688 289.736 371.688 289.743 371.688 289.75C371.688 289.756 371.688 289.763 371.688 289.77C371.688 289.777 371.688 289.784 371.688 289.791C371.688 289.798 371.688 289.804 371.688 289.811C371.688 289.818 371.688 289.825 371.688 289.832C371.688 289.839 371.688 289.846 371.688 289.852C371.688 289.859 371.688 289.866 371.688 289.873C371.688 289.88 371.688 289.887 371.688 289.893C371.688 289.9 371.688 289.907 371.688 289.914C371.688 289.921 371.688 289.928 371.688 289.935C371.688 289.941 371.688 289.948 371.688 289.955C371.688 289.962 371.688 289.969 371.688 289.976C371.688 289.983 371.688 289.989 371.688 289.996C371.688 290.003 371.688 290.01 371.688 290.017C371.688 290.024 371.688 290.03 371.688 290.037C371.688 290.044 371.688 290.051 371.688 290.058C371.688 290.065 371.688 290.071 371.688 290.078C371.688 290.085 371.688 290.092 371.688 290.099C371.688 290.106 371.688 290.113 371.688 290.119C371.688 290.126 371.688 290.133 371.688 290.14C371.688 290.147 371.688 290.154 371.688 290.16C371.688 290.167 371.688 290.174 371.688 290.181C371.688 290.188 371.688 290.195 371.688 290.201C371.688 290.208 371.688 290.215 371.688 290.222C371.688 290.229 371.688 290.236 371.688 290.242C371.688 290.249 371.688 290.256 371.688 290.263C371.688 290.27 371.688 290.277 371.688 290.283C371.688 290.29 371.688 290.297 371.688 290.304C371.688 290.311 371.688 290.318 371.688 290.324C371.688 290.331 371.688 290.338 371.688 290.345C371.688 290.352 371.688 290.359 371.688 290.365C371.688 290.372 371.688 290.379 371.688 290.386C371.688 290.393 371.688 290.399 371.688 290.406C371.688 290.413 371.688 290.42 371.688 290.427C371.688 290.434 371.688 290.44 371.688 290.447C371.688 290.454 371.688 290.461 371.688 290.468C371.688 290.475 371.688 290.481 371.688 290.488C371.688 290.495 371.688 290.502 371.688 290.509C371.688 290.515 371.688 290.522 371.688 290.529C371.688 290.536 371.688 290.543 371.688 290.55C371.688 290.556 371.688 290.563 371.688 290.57C371.688 290.577 371.688 290.584 371.688 290.59C371.688 290.597 371.688 290.604 371.688 290.611C371.688 290.618 371.688 290.625 371.688 290.631C371.688 290.638 371.688 290.645 371.688 290.652C371.688 290.659 371.688 290.665 371.688 290.672C371.688 290.679 371.688 290.686 371.688 290.693C371.688 290.7 371.688 290.706 371.688 290.713C371.688 290.72 371.688 290.727 371.688 290.734C371.688 290.74 371.688 290.747 371.688 290.754C371.688 290.761 371.688 290.768 371.688 290.774C371.688 290.781 371.688 290.788 371.688 290.795C371.688 290.802 371.688 290.808 371.688 290.815C371.688 290.822 371.688 290.829 371.688 290.836C371.688 290.842 371.688 290.849 371.688 290.856C371.688 290.863 371.688 290.87 371.688 290.877C371.688 290.883 371.688 290.89 371.688 290.897C371.688 290.904 371.688 290.911 371.688 290.917C371.688 290.924 371.688 290.931 371.688 290.938C371.688 290.945 371.688 290.951 371.688 290.958C371.688 290.965 371.688 290.972 371.688 290.979C371.688 290.985 371.688 290.992 371.688 290.999C371.688 291.006 371.688 291.013 371.688 291.019C371.688 291.026 371.688 291.033 371.688 291.04C371.688 291.046 371.688 291.053 371.688 291.06C371.688 291.067 371.688 291.074 371.688 291.08C371.688 291.087 371.688 291.094 371.688 291.101C371.688 291.108 371.688 291.114 371.688 291.121C371.688 291.128 371.688 291.135 371.688 291.142C371.688 291.148 371.688 291.155 371.688 291.162C371.688 291.169 371.688 291.176 371.688 291.182C371.688 291.189 371.688 291.196 371.688 291.203C371.688 291.209 371.688 291.216 371.688 291.223C371.688 291.23 371.688 291.237 371.688 291.243C371.688 291.25 371.688 291.257 371.688 291.264C371.688 291.271 371.688 291.277 371.688 291.284C371.688 291.291 371.688 291.298 371.688 291.304C371.688 291.311 371.688 291.318 371.688 291.325C371.688 291.332 371.688 291.338 371.688 291.345C371.688 291.352 371.688 291.359 371.688 291.365C371.688 291.372 371.688 291.379 371.688 291.386C371.688 291.393 371.688 291.399 371.688 291.406C371.688 291.413 371.688 291.42 371.688 291.427C371.688 291.433 371.688 291.44 371.688 291.447C371.688 291.454 371.688 291.46 371.688 291.467C371.688 291.474 371.688 291.481 371.688 291.487C371.688 291.494 371.688 291.501 371.688 291.508C371.688 291.515 371.688 291.521 371.688 291.528C371.688 291.535 371.688 291.542 371.688 291.548C371.688 291.555 371.688 291.562 371.688 291.569C371.688 291.576 371.688 291.582 371.688 291.589C371.688 291.596 371.688 291.603 371.688 291.609C371.688 291.616 371.688 291.623 371.688 291.63C371.688 291.636 371.688 291.643 371.688 291.65C371.688 291.657 371.688 291.663 371.688 291.67C371.688 291.677 371.688 291.684 371.688 291.691C371.688 291.697 371.688 291.704 371.688 291.711C371.688 291.718 371.688 291.724 371.688 291.731C371.688 291.738 371.688 291.745 371.688 291.751C371.688 291.758 371.688 291.765 371.688 291.772C371.688 291.778 371.688 291.785 371.688 291.792C371.688 291.799 371.688 291.805 371.688 291.812C371.688 291.819 371.688 291.826 371.688 291.833C371.688 291.839 371.688 291.846 371.688 291.853C371.688 291.86 371.688 291.866 371.688 291.873C371.688 291.88 371.688 291.887 371.688 291.893C371.688 291.9 371.688 291.907 371.688 291.914C371.688 291.92 371.688 291.927 371.688 291.934C371.688 291.941 371.688 291.947 371.688 291.954C371.688 291.961 371.688 291.968 371.688 291.974C371.688 291.981 371.688 291.988 371.688 291.995C371.688 292.001 371.688 292.008 371.688 292.015C371.688 292.022 371.688 292.028 371.688 292.035C371.688 292.042 371.688 292.049 371.688 292.055C371.688 292.062 371.688 292.069 371.688 292.076C371.688 292.082 371.688 292.089 371.688 292.096C371.688 292.103 371.688 292.109 371.688 292.116C371.688 292.123 371.688 292.13 371.688 292.136C371.688 292.143 371.688 292.15 371.688 292.156C371.688 292.163 371.688 292.17 371.688 292.177C371.688 292.183 371.688 292.19 371.688 292.197C371.688 292.204 371.688 292.21 371.688 292.217C371.688 292.224 371.688 292.231 371.688 292.237C371.688 292.244 371.688 292.251 371.688 292.258C371.688 292.264 371.688 292.271 371.688 292.278C371.688 292.285 371.688 292.291 371.688 292.298C371.688 292.305 371.688 292.311 371.688 292.318C371.688 292.325 371.688 292.332 371.688 292.338C371.688 292.345 371.688 292.352 371.688 292.359C371.688 292.365 371.688 292.372 371.688 292.379C371.688 292.386 371.688 292.392 371.688 292.399C371.688 292.406 371.688 292.412 371.688 292.419C371.688 292.426 371.688 292.433 371.688 292.439C371.688 292.446 371.688 292.453 371.688 292.46C371.688 292.466 371.688 292.473 371.688 292.48C371.688 292.486 371.688 292.493 371.688 292.5C371.688 292.507 371.688 292.513 371.688 292.52C371.688 292.527 371.688 292.534 371.688 292.54C371.688 292.547 371.688 292.554 371.688 292.56C371.688 292.567 371.688 292.574 371.688 292.581C371.688 292.587 371.688 292.594 371.688 292.601C371.688 292.607 371.688 292.614 371.688 292.621C371.688 292.628 371.688 292.634 371.688 292.641C371.688 292.648 371.688 292.654 371.688 292.661C371.688 292.668 371.688 292.675 371.688 292.681C371.688 292.688 371.688 292.695 371.688 292.701C371.688 292.708 371.688 292.715 371.688 292.722C371.688 292.728 371.688 292.735 371.688 292.742C371.688 292.748 371.688 292.755 371.688 292.762C371.688 292.769 371.688 292.775 371.688 292.782C371.688 292.789 371.688 292.795 371.688 292.802C371.688 292.809 371.688 292.816 371.688 292.822C371.688 292.829 371.688 292.836 371.688 292.842C371.688 292.849 371.688 292.856 371.688 292.863C371.688 292.869 371.688 292.876 371.688 292.883C371.688 292.889 371.688 292.896 371.688 292.903C371.688 292.91 371.688 292.916 371.688 292.923C371.688 292.93 371.688 292.936 371.688 292.943C371.688 292.95 371.688 292.956 371.688 292.963C371.688 292.97 371.688 292.977 371.688 292.983C371.688 292.99 371.688 292.997 371.688 293.003C371.688 293.01 371.688 293.017 371.688 293.023C371.688 293.03 371.688 293.037 371.688 293.044C371.688 293.05 371.688 293.057 371.688 293.064C371.688 293.07 371.688 293.077 371.688 293.084C371.688 293.09 371.688 293.097 371.688 293.104C371.688 293.111 371.688 293.117 371.688 293.124C371.688 293.131 371.688 293.137 371.688 293.144C371.688 293.151 371.688 293.157 371.688 293.164C371.688 293.171 371.688 293.177 371.688 293.184C371.688 293.191 371.688 293.198 371.688 293.204C371.688 293.211 371.688 293.218 371.688 293.224C371.688 293.231 371.688 293.238 371.688 293.244C371.688 293.251 371.688 293.258 371.688 293.264C371.688 293.271 371.688 293.278 371.688 293.284C371.688 293.291 371.688 293.298 371.688 293.305C371.688 293.311 371.688 293.318 371.688 293.325C371.688 293.331 371.688 293.338 371.688 293.345C371.688 293.351 371.688 293.358 371.688 293.365C371.688 293.371 371.688 293.378 371.688 293.385C371.688 293.391 371.688 293.398 371.688 293.405C371.688 293.411 371.688 293.418 371.688 293.425C371.688 293.432 371.688 293.438 371.688 293.445C371.688 293.452 371.688 293.458 371.688 293.465C371.688 293.472 371.688 293.478 371.688 293.485C371.688 293.492 371.688 293.498 371.688 293.505C371.688 293.512 371.688 293.518 371.688 293.525C371.688 293.532 371.688 293.538 371.688 293.545C371.688 293.552 371.688 293.558 371.688 293.565C371.688 293.572 371.688 293.578 371.688 293.585C371.688 293.592 371.688 293.598 371.688 293.605C371.688 293.612 371.688 293.618 371.688 293.625C371.688 293.632 371.688 293.638 371.688 293.645C371.688 293.652 371.688 293.658 371.688 293.665C371.688 293.672 371.688 293.678 371.688 293.685C371.688 293.692 371.688 293.698 371.688 293.705C371.688 293.712 371.688 293.718 371.688 293.725C371.688 293.732 371.688 293.738 371.688 293.745C371.688 293.752 371.688 293.758 371.688 293.765C371.688 293.772 371.688 293.778 371.688 293.785C371.688 293.792 371.688 293.798 371.688 293.805C371.688 293.812 371.688 293.818 371.688 293.825C371.688 293.832 371.688 293.838 371.688 293.845C371.688 293.852 371.688 293.858 371.688 293.865C371.688 293.872 371.688 293.878 371.688 293.885C371.688 293.892 371.688 293.898 371.688 293.905C371.688 293.912 371.688 293.918 371.688 293.925C371.688 293.932 371.688 293.938 371.688 293.945C371.688 293.952 371.688 293.958 371.688 293.965C371.688 293.972 371.688 293.978 371.688 293.985C371.688 293.991 371.688 293.998 371.688 294.005C371.688 294.011 371.688 294.018 371.688 294.025C371.688 294.031 371.688 294.038 371.688 294.045C371.688 294.051 371.688 294.058 371.688 294.065C371.688 294.071 371.688 294.078 371.688 294.085C371.688 294.091 371.688 294.098 371.688 294.105C371.688 294.111 371.688 294.118 371.688 294.124C371.688 294.131 371.688 294.138 371.688 294.144C371.688 294.151 371.688 294.158 371.688 294.164C371.688 294.171 371.688 294.178 371.688 294.184C371.688 294.191 371.688 294.198 371.688 294.204C371.688 294.211 371.688 294.217 371.688 294.224C371.688 294.231 371.688 294.237 371.688 294.244C371.688 294.251 371.688 294.257 371.688 294.264C371.688 294.271 371.688 294.277 371.688 294.284C371.688 294.29 371.688 294.297 371.688 294.304C371.688 294.31 371.688 294.317 371.688 294.324C371.688 294.33 371.688 294.337 371.688 294.344C371.688 294.35 371.688 294.357 371.688 294.363C371.688 294.37 371.688 294.377 371.688 294.383C371.688 294.39 371.688 294.397 371.688 294.403C371.688 294.41 371.688 294.417 371.688 294.423C371.688 294.43 371.688 294.436 371.688 294.443C371.688 294.45 371.688 294.456 371.688 294.463C371.688 294.47 371.688 294.476 371.688 294.483C371.688 294.489 371.688 294.496 371.688 294.503C371.688 294.509 371.688 294.516 371.688 294.523C371.688 294.529 371.688 294.536 371.688 294.542C371.688 294.549 371.688 294.556 371.688 294.562C371.688 294.569 371.688 294.576 371.688 294.582C371.688 294.589 371.688 294.595 371.688 294.602C371.688 294.609 371.688 294.615 371.688 294.622C371.688 294.629 371.688 294.635 371.688 294.642C371.688 294.648 371.688 294.655 371.688 294.662C371.688 294.668 371.688 294.675 371.688 294.682C371.688 294.688 371.688 294.695 371.688 294.701C371.688 294.708 371.688 294.715 371.688 294.721C371.688 294.728 371.688 294.734 371.688 294.741C371.688 294.748 371.688 294.754 371.688 294.761C371.688 294.768 371.688 294.774 371.688 294.781C371.688 294.787 371.688 294.794 371.688 294.801C371.688 294.807 371.688 294.814 371.688 294.82C371.688 294.827 371.688 294.834 371.688 294.84C371.688 294.847 371.688 294.854 371.688 294.86C371.688 294.867 371.688 294.873 371.688 294.88C371.688 294.887 371.688 294.893 371.688 294.9C371.688 294.906 371.688 294.913 371.688 294.92C371.688 294.926 371.688 294.933 371.688 294.939C371.688 294.946 371.688 294.953 371.688 294.959C371.688 294.966 371.688 294.972 371.688 294.979C371.688 294.986 371.688 294.992 371.688 294.999C371.688 295.005 371.688 295.012 371.688 295.019C371.688 295.025 371.688 295.032 371.688 295.038C371.688 295.045 371.688 295.052 371.688 295.058C371.688 295.065 371.688 295.071 371.688 295.078C371.688 295.085 371.688 295.091 371.688 295.098C371.688 295.104 371.688 295.111 371.688 295.118C371.688 295.124 371.688 295.131 371.688 295.137C371.688 295.144 371.688 295.151 371.688 295.157C371.688 295.164 371.688 295.17 371.688 295.177C371.688 295.184 371.688 295.19 371.688 295.197C371.688 295.203 371.688 295.21 371.688 295.217C371.688 295.223 371.688 295.23 371.688 295.236C371.688 295.243 371.688 295.25 371.688 295.256C371.688 295.263 371.688 295.269 371.688 295.276C371.688 295.282 371.688 295.289 371.688 295.296C371.688 295.302 371.688 295.309 371.688 295.315C371.688 295.322 371.688 295.329 371.688 295.335C371.688 295.342 371.688 295.348 371.688 295.355C371.688 295.362 371.688 295.368 371.688 295.375C371.688 295.381 371.688 295.388 371.688 295.394C371.688 295.401 371.688 295.408 371.688 295.414C371.688 295.421 371.688 295.427 371.688 295.434C371.688 295.441 371.688 295.447 371.688 295.454C371.688 295.46 371.688 295.467 371.688 295.473C371.688 295.48 371.688 295.487 371.688 295.493C371.688 295.5 371.688 295.506 371.688 295.513C371.688 295.519 371.688 295.526 371.688 295.533C371.688 295.539 371.688 295.546 371.688 295.552C371.688 295.559 371.688 295.566 371.688 295.572C371.688 295.579 371.688 295.585 371.688 295.592C371.688 295.598 371.688 295.605 371.688 295.612C371.688 295.618 371.688 295.625 371.688 295.631C371.688 295.638 371.688 295.644 371.688 295.651C371.688 295.658 371.688 295.664 371.688 295.671C371.688 295.677 371.688 295.684 371.688 295.69C371.688 295.697 371.688 295.704 371.688 295.71C371.688 295.717 371.688 295.723 371.688 295.73C371.688 295.736 371.688 295.743 371.688 295.749C371.688 295.756 371.688 295.763 371.688 295.769C371.688 295.776 371.688 295.782 371.688 295.789C371.688 295.795 371.688 295.802 371.688 295.809C371.688 295.815 371.688 295.822 371.688 295.828C371.688 295.835 371.688 295.841 371.688 295.848C371.688 295.854 371.688 295.861 371.688 295.868C371.688 295.874 371.688 295.881 371.688 295.887C371.688 295.894 371.688 295.9 371.688 295.907C371.688 295.914 371.688 295.92 371.688 295.927C371.688 295.933 371.688 295.94 371.688 295.946C371.688 295.953 371.688 295.959 371.688 295.966C371.688 295.973 371.688 295.979 371.688 295.986C371.688 295.992 371.688 295.999 371.688 296.005C371.688 296.012 371.688 296.018 371.688 296.025C371.688 296.031 371.688 296.038 371.688 296.045C371.688 296.051 371.688 296.058 371.688 296.064C371.688 296.071 371.688 296.077 371.688 296.084C371.688 296.09 371.688 296.097 371.688 296.104C371.688 296.11 371.688 296.117 371.688 296.123C371.688 296.13 371.688 296.136 371.688 296.143C371.688 296.149 371.688 296.156 371.688 296.162C371.688 296.169 371.688 296.176 371.688 296.182C371.688 296.189 371.688 296.195 371.688 296.202C371.688 296.208 371.688 296.215 371.688 296.221C371.688 296.228 371.688 296.234 371.688 296.241C371.688 296.248 371.688 296.254 371.688 296.261C371.688 296.267 371.688 296.274 371.688 296.28C371.688 296.287 371.688 296.293 371.688 296.3C371.688 296.306 371.688 296.313 371.688 296.319C371.688 296.326 371.688 296.333 371.688 296.339C371.688 296.346 371.688 296.352 371.688 296.359C371.688 296.365 371.688 296.372 371.688 296.378C371.688 296.385 371.688 296.391 371.688 296.398C371.688 296.404 371.688 296.411 371.688 296.417C371.688 296.424 371.688 296.431 371.688 296.437C371.688 296.444 371.688 296.45 371.688 296.457C371.688 296.463 371.688 296.47 371.688 296.476C371.688 296.483 371.688 296.489 371.688 296.496C371.688 296.502 371.688 296.509 371.688 296.515C371.688 296.522 371.688 296.528 371.688 296.535C371.688 296.542 371.688 296.548 371.688 296.555C371.688 296.561 371.688 296.568 371.688 296.574C371.688 296.581 371.688 296.587 371.688 296.594C371.688 296.6 371.688 296.607 371.688 296.613C371.688 296.62 371.688 296.626 371.688 296.633C371.688 296.639 371.688 296.646 371.688 296.652C371.688 296.659 371.688 296.665 371.688 296.672C371.688 296.679 371.688 296.685 371.688 296.692C371.688 296.698 371.688 296.705 371.688 296.711C371.688 296.718 371.688 296.724 371.688 296.731C371.688 296.737 371.688 296.744 371.688 296.75C371.688 296.757 371.688 296.763 371.688 296.77C371.688 296.776 371.688 296.783 371.688 296.789C371.688 296.796 371.688 296.802 371.688 296.809C371.688 296.815 371.688 296.822 371.688 296.828C371.688 296.835 371.688 296.841 371.688 296.848C371.688 296.854 371.688 296.861 371.688 296.867C371.688 296.874 371.688 296.88 371.688 296.887C371.688 296.893 371.688 296.9 371.688 296.906C371.688 296.913 371.688 296.92 371.688 296.926C371.688 296.933 371.688 296.939 371.688 296.946C371.688 296.952 371.688 296.959 371.688 296.965H375.321ZM375.321 286.589H378.953V280.056H375.321H371.688V286.589H375.321ZM375.321 280.056L372.053 278.469C367.904 287.012 362.297 294.446 355.218 300.793L357.643 303.498L360.068 306.203C367.848 299.228 374.027 291.034 378.588 281.643L375.321 280.056ZM357.643 303.498L355.218 300.793C348.037 307.231 339.982 312.687 331.039 317.158L332.663 320.407L334.288 323.656C343.791 318.905 352.389 313.088 360.068 306.203L357.643 303.498ZM332.663 320.407L331.112 317.123C322.149 321.355 312.545 324.601 302.293 326.851L303.072 330.399L303.851 333.947C314.607 331.586 324.731 328.17 334.214 323.692L332.663 320.407ZM303.072 330.399L302.275 326.855C292.288 329.102 282.18 330.225 271.944 330.225V333.858V337.49C282.716 337.49 293.36 336.308 303.869 333.943L303.072 330.399ZM271.944 333.858V330.225C254.735 330.225 238.704 326.986 223.813 320.533L222.369 323.866L220.925 327.199C236.777 334.069 253.797 337.49 271.944 337.49V333.858ZM222.369 323.866L223.882 320.564C206.017 312.376 192.925 300.934 184.386 286.296L181.249 288.126L178.111 289.956C187.506 306.063 201.828 318.447 220.855 327.168L222.369 323.866ZM181.249 288.126L184.399 286.318C175.732 271.212 171.431 255.435 171.431 238.936H167.798H164.166C164.166 256.767 168.832 273.784 178.098 289.934L181.249 288.126ZM167.798 238.936H171.431C171.431 229.556 172.787 220.297 175.507 211.148L172.025 210.113L168.544 209.078C165.627 218.888 164.166 228.844 164.166 238.936H167.798ZM172.025 210.113L175.507 211.148C178.226 202.005 182.176 193.489 187.36 185.589L184.323 183.596L181.286 181.603C175.71 190.1 171.462 199.262 168.544 209.078L172.025 210.113ZM184.323 183.596L187.316 185.654C192.749 177.753 199.296 170.709 206.971 164.519L204.691 161.691L202.411 158.863C194.202 165.484 187.17 173.043 181.33 181.538L184.323 183.596ZM204.691 161.691L206.982 164.51C214.85 158.117 223.844 153.059 233.993 149.346L232.745 145.935L231.497 142.523C220.637 146.496 210.929 151.942 202.4 158.872L204.691 161.691Z" fill="white" mask="url(#path-2-outside-1_127_27)"/>
<defs>
<filter id="filter0_d_127_27" x="0.543482" y="0.635882" width="572.535" height="572.535" filterUnits="userSpaceOnUse" color-interpolation-filters="sRGB">
<feFlood flood-opacity="0" result="BackgroundImageFix"/>
<feColorMatrix in="SourceAlpha" type="matrix" values="0 0 0 0 0 0 0 0 0 0 0 0 0 0 0 0 0 0 127 0" result="hardAlpha"/>
<feMorphology radius="11.3041" operator="dilate" in="SourceAlpha" result="effect1_dropShadow_127_27"/>
<feOffset dy="15.0721"/>
<feGaussianBlur stdDeviation="7.53604"/>
<feComposite in2="hardAlpha" operator="out"/>
<feColorMatrix type="matrix" values="0 0 0 0 0.12549 0 0 0 0 0.278431 0 0 0 0 0.27451 0 0 0 0.28 0"/>
<feBlend mode="normal" in2="BackgroundImageFix" result="effect1_dropShadow_127_27"/>
<feBlend mode="normal" in="SourceGraphic" in2="effect1_dropShadow_127_27" result="shape"/>
</filter>
</defs>
</svg>
