<svg width="574" height="574" viewBox="0 0 574 574" fill="none" xmlns="http://www.w3.org/2000/svg">
<g filter="url(#filter0_d_134_74)">
<rect x="27.1104" y="12" width="520" height="520" rx="73.7215" fill="white"/>
</g>
<mask id="path-2-outside-1_134_74" maskUnits="userSpaceOnUse" x="176.106" y="125.497" width="218" height="307" fill="black">
<rect fill="white" x="176.106" y="125.497" width="218" height="307"/>
<path d="M292.982 230.189C301.184 231.47 308.617 233.521 315.281 236.34C322.201 238.903 328.481 241.979 334.12 245.567C339.758 248.899 344.756 252.487 349.114 256.332C353.727 260.177 357.7 264.021 361.032 267.866C371.284 279.143 378.589 290.805 382.946 302.852C387.56 314.898 389.867 325.022 389.867 333.224V337.838L389.098 343.605C388.329 350.269 387.304 357.445 386.022 365.135C384.74 372.568 381.921 379.872 377.564 387.049C373.207 394.226 366.799 401.018 358.341 407.425C350.139 413.577 338.733 418.703 324.124 422.804C316.691 424.854 309.899 426.264 303.747 427.033C297.852 428.058 292.341 428.571 287.215 428.571C279.27 428.571 271.324 427.674 263.379 425.88C255.689 424.085 246.462 421.779 235.697 418.959C225.701 416.396 217.115 412.295 209.939 406.656C203.018 401.018 197.379 395.251 193.022 389.356C188.665 383.461 185.461 378.078 183.411 373.208C181.36 368.082 180.207 364.878 179.951 363.597C179.951 361.29 180.719 359.24 182.257 357.445C183.795 355.651 186.615 354.113 190.715 352.832C193.022 352.832 195.073 353.473 196.867 354.754C198.917 356.036 200.327 357.83 201.096 360.137C203.403 366.032 206.478 371.414 210.323 376.284C213.655 380.641 217.884 384.998 223.01 389.356C228.393 393.457 234.8 396.532 242.233 398.583C252.229 401.402 260.559 403.581 267.223 405.119C273.887 406.4 280.551 407.041 287.215 407.041C295.673 407.041 306.054 405.375 318.357 402.043C329.378 398.967 337.964 395.251 344.116 390.894C350.523 386.536 355.265 381.795 358.341 376.668C361.673 371.286 363.851 365.647 364.877 359.752C365.902 353.601 366.799 347.449 367.568 341.298L368.337 333.224C368.337 327.586 366.543 320.024 362.954 310.541C359.366 301.058 353.343 291.702 344.885 282.475C341.553 278.631 337.58 274.786 332.966 270.942C328.609 267.097 323.355 263.637 317.203 260.561C311.308 257.485 304.644 255.05 297.211 253.256C289.778 251.206 281.448 250.181 272.221 250.181C271.709 250.181 271.068 250.052 270.299 249.796C269.53 249.54 268.12 248.899 266.07 247.874L262.994 245.183C262.994 244.926 262.866 244.67 262.61 244.414C262.61 243.901 262.353 242.876 261.841 241.338C261.585 241.082 261.456 240.825 261.456 240.569C261.456 240.056 261.585 238.903 261.841 237.109C261.841 236.853 261.841 236.596 261.841 236.34C262.097 235.827 262.738 234.674 263.763 232.88C267.351 228.01 271.452 222.499 276.066 216.348C280.936 210.197 286.062 203.789 291.444 197.125C297.596 189.692 303.747 182.131 309.899 174.442C316.05 166.496 321.432 159.32 326.046 152.912C320.664 152.399 314.384 152.015 307.207 151.758C300.287 151.246 292.598 150.99 284.14 150.99C274.144 150.99 263.891 151.374 253.383 152.143C242.874 152.912 233.134 153.681 224.164 154.45C215.449 155.219 208.144 155.988 202.249 156.756C196.611 157.525 193.535 157.91 193.022 157.91C190.203 157.91 187.768 157.013 185.717 155.219C183.923 153.424 182.77 150.733 182.257 147.145C182.257 144.326 183.026 142.019 184.564 140.225C186.358 138.43 188.665 137.277 191.484 136.764C191.997 136.764 195.073 136.38 200.711 135.611C206.607 134.842 213.911 134.073 222.626 133.304C231.597 132.279 241.464 131.382 252.229 130.613C262.994 129.844 273.631 129.46 284.14 129.46C296.699 129.46 307.72 129.844 317.203 130.613C326.943 131.382 334.76 132.151 340.656 132.92C342.193 131.638 344.244 130.998 346.807 130.998C348.345 130.998 350.139 131.382 352.189 132.151C352.702 132.664 353.215 133.176 353.727 133.689C354.496 134.201 355.137 134.842 355.65 135.611C360.007 137.405 362.185 141.378 362.185 147.529C360.904 153.168 356.931 155.988 350.267 155.988C345.654 162.908 339.502 171.238 331.813 180.978C324.38 190.717 316.563 200.585 308.361 210.581C305.541 214.169 302.85 217.63 300.287 220.962C297.724 224.037 295.289 227.113 292.982 230.189Z"/>
</mask>
<path d="M292.982 230.189C301.184 231.47 308.617 233.521 315.281 236.34C322.201 238.903 328.481 241.979 334.12 245.567C339.758 248.899 344.756 252.487 349.114 256.332C353.727 260.177 357.7 264.021 361.032 267.866C371.284 279.143 378.589 290.805 382.946 302.852C387.56 314.898 389.867 325.022 389.867 333.224V337.838L389.098 343.605C388.329 350.269 387.304 357.445 386.022 365.135C384.74 372.568 381.921 379.872 377.564 387.049C373.207 394.226 366.799 401.018 358.341 407.425C350.139 413.577 338.733 418.703 324.124 422.804C316.691 424.854 309.899 426.264 303.747 427.033C297.852 428.058 292.341 428.571 287.215 428.571C279.27 428.571 271.324 427.674 263.379 425.88C255.689 424.085 246.462 421.779 235.697 418.959C225.701 416.396 217.115 412.295 209.939 406.656C203.018 401.018 197.379 395.251 193.022 389.356C188.665 383.461 185.461 378.078 183.411 373.208C181.36 368.082 180.207 364.878 179.951 363.597C179.951 361.29 180.719 359.24 182.257 357.445C183.795 355.651 186.615 354.113 190.715 352.832C193.022 352.832 195.073 353.473 196.867 354.754C198.917 356.036 200.327 357.83 201.096 360.137C203.403 366.032 206.478 371.414 210.323 376.284C213.655 380.641 217.884 384.998 223.01 389.356C228.393 393.457 234.8 396.532 242.233 398.583C252.229 401.402 260.559 403.581 267.223 405.119C273.887 406.4 280.551 407.041 287.215 407.041C295.673 407.041 306.054 405.375 318.357 402.043C329.378 398.967 337.964 395.251 344.116 390.894C350.523 386.536 355.265 381.795 358.341 376.668C361.673 371.286 363.851 365.647 364.877 359.752C365.902 353.601 366.799 347.449 367.568 341.298L368.337 333.224C368.337 327.586 366.543 320.024 362.954 310.541C359.366 301.058 353.343 291.702 344.885 282.475C341.553 278.631 337.58 274.786 332.966 270.942C328.609 267.097 323.355 263.637 317.203 260.561C311.308 257.485 304.644 255.05 297.211 253.256C289.778 251.206 281.448 250.181 272.221 250.181C271.709 250.181 271.068 250.052 270.299 249.796C269.53 249.54 268.12 248.899 266.07 247.874L262.994 245.183C262.994 244.926 262.866 244.67 262.61 244.414C262.61 243.901 262.353 242.876 261.841 241.338C261.585 241.082 261.456 240.825 261.456 240.569C261.456 240.056 261.585 238.903 261.841 237.109C261.841 236.853 261.841 236.596 261.841 236.34C262.097 235.827 262.738 234.674 263.763 232.88C267.351 228.01 271.452 222.499 276.066 216.348C280.936 210.197 286.062 203.789 291.444 197.125C297.596 189.692 303.747 182.131 309.899 174.442C316.05 166.496 321.432 159.32 326.046 152.912C320.664 152.399 314.384 152.015 307.207 151.758C300.287 151.246 292.598 150.99 284.14 150.99C274.144 150.99 263.891 151.374 253.383 152.143C242.874 152.912 233.134 153.681 224.164 154.45C215.449 155.219 208.144 155.988 202.249 156.756C196.611 157.525 193.535 157.91 193.022 157.91C190.203 157.91 187.768 157.013 185.717 155.219C183.923 153.424 182.77 150.733 182.257 147.145C182.257 144.326 183.026 142.019 184.564 140.225C186.358 138.43 188.665 137.277 191.484 136.764C191.997 136.764 195.073 136.38 200.711 135.611C206.607 134.842 213.911 134.073 222.626 133.304C231.597 132.279 241.464 131.382 252.229 130.613C262.994 129.844 273.631 129.46 284.14 129.46C296.699 129.46 307.72 129.844 317.203 130.613C326.943 131.382 334.76 132.151 340.656 132.92C342.193 131.638 344.244 130.998 346.807 130.998C348.345 130.998 350.139 131.382 352.189 132.151C352.702 132.664 353.215 133.176 353.727 133.689C354.496 134.201 355.137 134.842 355.65 135.611C360.007 137.405 362.185 141.378 362.185 147.529C360.904 153.168 356.931 155.988 350.267 155.988C345.654 162.908 339.502 171.238 331.813 180.978C324.38 190.717 316.563 200.585 308.361 210.581C305.541 214.169 302.85 217.63 300.287 220.962C297.724 224.037 295.289 227.113 292.982 230.189Z" fill="#1497BB"/>
<path d="M292.982 230.189L290.075 228.008L286.447 232.846L292.421 233.779L292.982 230.189ZM315.281 236.34L313.865 239.687L313.941 239.719L314.019 239.748L315.281 236.34ZM334.12 245.567L332.169 248.633L332.219 248.665L332.271 248.696L334.12 245.567ZM349.114 256.332L346.709 259.057L346.748 259.091L346.787 259.124L349.114 256.332ZM361.032 267.866L358.286 270.246L358.314 270.278L358.343 270.31L361.032 267.866ZM382.946 302.852L379.529 304.088L379.54 304.12L379.553 304.152L382.946 302.852ZM389.867 337.838L393.469 338.318L393.501 338.079V337.838H389.867ZM389.098 343.605L385.495 343.124L385.491 343.156L385.488 343.188L389.098 343.605ZM386.022 365.135L389.603 365.752L389.605 365.742L389.607 365.732L386.022 365.135ZM358.341 407.425L360.521 410.333L360.528 410.327L360.535 410.322L358.341 407.425ZM324.124 422.804L325.09 426.307L325.098 426.305L325.106 426.303L324.124 422.804ZM303.747 427.033L303.296 423.427L303.21 423.438L303.125 423.453L303.747 427.033ZM263.379 425.88L262.553 429.419L262.566 429.421L262.578 429.424L263.379 425.88ZM235.697 418.959L236.618 415.444L236.609 415.441L236.6 415.439L235.697 418.959ZM209.939 406.656L207.643 409.474L207.668 409.494L207.693 409.514L209.939 406.656ZM183.411 373.208L180.037 374.558L180.049 374.588L180.061 374.619L183.411 373.208ZM179.951 363.597H176.317V363.957L176.387 364.309L179.951 363.597ZM182.257 357.445L179.498 355.08L182.257 357.445ZM190.715 352.832V349.198H190.161L189.632 349.363L190.715 352.832ZM196.867 354.754L194.755 357.711L194.846 357.776L194.941 357.836L196.867 354.754ZM201.096 360.137L197.648 361.286L197.678 361.374L197.712 361.461L201.096 360.137ZM210.323 376.284L213.21 374.076L213.193 374.054L213.175 374.032L210.323 376.284ZM223.01 389.356L220.657 392.125L220.731 392.187L220.808 392.246L223.01 389.356ZM242.233 398.583L243.22 395.085L243.21 395.082L243.2 395.08L242.233 398.583ZM267.223 405.119L266.406 408.66L266.471 408.675L266.537 408.687L267.223 405.119ZM318.357 402.043L319.307 405.551L319.32 405.547L319.334 405.543L318.357 402.043ZM344.116 390.894L342.072 387.888L342.043 387.908L342.015 387.928L344.116 390.894ZM358.341 376.668L355.251 374.756L355.238 374.777L355.225 374.799L358.341 376.668ZM364.877 359.752L368.457 360.375L368.459 360.362L368.461 360.35L364.877 359.752ZM367.568 341.298L371.174 341.749L371.18 341.696L371.185 341.643L367.568 341.298ZM368.337 333.224L371.954 333.569L371.971 333.397V333.224H368.337ZM344.885 282.475L342.138 284.855L342.172 284.894L342.206 284.931L344.885 282.475ZM332.966 270.942L330.562 273.666L330.6 273.7L330.64 273.733L332.966 270.942ZM317.203 260.561L315.522 263.783L315.55 263.797L315.578 263.811L317.203 260.561ZM297.211 253.256L296.245 256.759L296.302 256.775L296.359 256.789L297.211 253.256ZM266.07 247.874L263.677 250.609L264.028 250.916L264.445 251.124L266.07 247.874ZM262.994 245.183H259.36V246.832L260.601 247.918L262.994 245.183ZM262.61 244.414H258.976V245.919L260.04 246.983L262.61 244.414ZM261.841 241.338L265.288 240.189L265.017 239.375L264.411 238.768L261.841 241.338ZM261.841 237.109L265.438 237.623L265.475 237.367V237.109H261.841ZM261.841 236.34L258.59 234.715L258.207 235.482V236.34H261.841ZM263.763 232.88L260.838 230.724L260.713 230.894L260.608 231.077L263.763 232.88ZM276.066 216.348L273.217 214.092L273.187 214.13L273.159 214.168L276.066 216.348ZM291.444 197.125L288.645 194.808L288.631 194.825L288.617 194.842L291.444 197.125ZM309.899 174.442L312.736 176.712L312.754 176.689L312.772 176.666L309.899 174.442ZM326.046 152.912L328.995 155.035L332.696 149.895L326.391 149.294L326.046 152.912ZM307.207 151.758L306.939 155.383L307.008 155.388L307.078 155.39L307.207 151.758ZM224.164 154.45L223.853 150.829L223.844 150.83L224.164 154.45ZM202.249 156.756L201.779 153.153L201.769 153.154L201.758 153.156L202.249 156.756ZM185.717 155.219L183.148 157.788L183.233 157.874L183.324 157.954L185.717 155.219ZM182.257 147.145H178.623V147.403L178.66 147.659L182.257 147.145ZM184.564 140.225L181.994 137.655L181.896 137.754L181.805 137.86L184.564 140.225ZM191.484 136.764V133.13H191.157L190.834 133.189L191.484 136.764ZM200.711 135.611L200.241 132.008L200.231 132.009L200.22 132.01L200.711 135.611ZM222.626 133.304L222.945 136.924L222.992 136.92L223.038 136.915L222.626 133.304ZM317.203 130.613L316.91 134.235L316.917 134.236L317.203 130.613ZM340.656 132.92L340.185 136.523L341.761 136.729L342.982 135.712L340.656 132.92ZM352.189 132.151L354.759 129.581L354.202 129.025L353.465 128.748L352.189 132.151ZM353.727 133.689L351.158 136.258L351.412 136.513L351.711 136.712L353.727 133.689ZM355.65 135.611L352.626 137.627L353.241 138.549L354.266 138.971L355.65 135.611ZM362.185 147.529L365.729 148.335L365.819 147.937V147.529H362.185ZM350.267 155.988V152.353H348.322L347.243 153.972L350.267 155.988ZM331.813 180.978L328.961 178.726L328.942 178.749L328.924 178.773L331.813 180.978ZM308.361 210.581L305.551 208.276L305.527 208.306L305.503 208.336L308.361 210.581ZM300.287 220.962L303.079 223.288L303.124 223.233L303.167 223.177L300.287 220.962ZM292.982 230.189L292.421 233.779C300.371 235.021 307.512 236.999 313.865 239.687L315.281 236.34L316.697 232.993C309.722 230.042 301.997 227.919 293.543 226.598L292.982 230.189ZM315.281 236.34L314.019 239.748C320.723 242.231 326.768 245.196 332.169 248.633L334.12 245.567L336.071 242.501C330.194 238.761 323.68 235.575 316.543 232.932L315.281 236.34ZM334.12 245.567L332.271 248.696C337.737 251.925 342.544 255.382 346.709 259.057L349.114 256.332L351.518 253.607C346.969 249.593 341.78 245.873 335.968 242.438L334.12 245.567ZM349.114 256.332L346.787 259.124C351.276 262.864 355.103 266.573 358.286 270.246L361.032 267.866L363.778 265.486C360.297 261.469 356.178 257.489 351.44 253.54L349.114 256.332ZM361.032 267.866L358.343 270.31C368.335 281.302 375.361 292.564 379.529 304.088L382.946 302.852L386.364 301.616C381.817 289.047 374.233 276.985 363.721 265.421L361.032 267.866ZM382.946 302.852L379.553 304.152C384.088 315.993 386.233 325.647 386.233 333.224H389.867H393.501C393.501 324.398 391.032 313.803 386.34 301.552L382.946 302.852ZM389.867 333.224H386.233V337.838H389.867H393.501V333.224H389.867ZM389.867 337.838L386.264 337.358L385.495 343.124L389.098 343.605L392.7 344.085L393.469 338.318L389.867 337.838ZM389.098 343.605L385.488 343.188C384.727 349.783 383.71 356.899 382.437 364.537L386.022 365.135L389.607 365.732C390.897 357.992 391.931 350.755 392.708 344.021L389.098 343.605ZM386.022 365.135L382.441 364.517C381.245 371.453 378.605 378.332 374.457 385.163L377.564 387.049L380.67 388.935C385.237 381.413 388.236 373.682 389.603 365.752L386.022 365.135ZM377.564 387.049L374.457 385.163C370.391 391.86 364.332 398.327 356.146 404.529L358.341 407.425L360.535 410.322C369.266 403.708 376.022 396.591 380.67 388.935L377.564 387.049ZM358.341 407.425L356.16 404.518C348.447 410.303 337.507 415.273 323.142 419.305L324.124 422.804L325.106 426.303C339.96 422.133 351.831 416.85 360.521 410.333L358.341 407.425ZM324.124 422.804L323.157 419.301C315.855 421.315 309.238 422.684 303.296 423.427L303.747 427.033L304.198 430.639C310.559 429.844 317.527 428.393 325.09 426.307L324.124 422.804ZM303.747 427.033L303.125 423.453C297.402 424.448 292.102 424.937 287.215 424.937V428.571V432.205C292.581 432.205 298.302 431.668 304.37 430.613L303.747 427.033ZM287.215 428.571V424.937C279.546 424.937 271.869 424.071 264.179 422.335L263.379 425.88L262.578 429.424C270.78 431.276 278.994 432.205 287.215 432.205V428.571ZM263.379 425.88L264.204 422.341C256.557 420.556 247.363 418.258 236.618 415.444L235.697 418.959L234.777 422.475C245.562 425.299 254.822 427.615 262.553 429.419L263.379 425.88ZM235.697 418.959L236.6 415.439C227.029 412.985 218.915 409.088 212.184 403.799L209.939 406.656L207.693 409.514C215.315 415.503 224.374 419.807 234.795 422.479L235.697 418.959ZM209.939 406.656L212.234 403.839C205.5 398.352 200.087 392.8 195.945 387.196L193.022 389.356L190.1 391.516C194.672 397.701 200.536 403.683 207.643 409.474L209.939 406.656ZM193.022 389.356L195.945 387.196C191.698 381.45 188.665 376.322 186.76 371.798L183.411 373.208L180.061 374.619C182.258 379.835 185.632 385.471 190.1 391.516L193.022 389.356ZM183.411 373.208L186.785 371.859C184.683 366.604 183.689 363.761 183.514 362.884L179.951 363.597L176.387 364.309C176.724 365.995 178.037 369.56 180.037 374.558L183.411 373.208ZM179.951 363.597H183.585C183.585 362.18 184.028 360.963 185.017 359.81L182.257 357.445L179.498 355.08C177.411 357.516 176.317 360.4 176.317 363.597H179.951ZM182.257 357.445L185.017 359.81C185.877 358.806 187.892 357.522 191.799 356.3L190.715 352.832L189.632 349.363C185.337 350.705 181.713 352.497 179.498 355.08L182.257 357.445ZM190.715 352.832V356.466C192.302 356.466 193.606 356.891 194.755 357.711L196.867 354.754L198.979 351.797C196.539 350.054 193.742 349.198 190.715 349.198V352.832ZM196.867 354.754L194.941 357.836C196.271 358.667 197.145 359.776 197.648 361.286L201.096 360.137L204.544 358.987C203.509 355.884 201.564 353.404 198.793 351.672L196.867 354.754ZM201.096 360.137L197.712 361.461C200.146 367.683 203.4 373.379 207.471 378.536L210.323 376.284L213.175 374.032C209.557 369.449 206.659 364.381 204.48 358.812L201.096 360.137ZM210.323 376.284L207.436 378.491C210.956 383.094 215.376 387.636 220.657 392.125L223.01 389.356L225.364 386.587C220.392 382.361 216.354 378.188 213.21 374.076L210.323 376.284ZM223.01 389.356L220.808 392.246C226.607 396.665 233.449 399.929 241.267 402.086L242.233 398.583L243.2 395.08C236.152 393.135 230.178 390.248 225.213 386.465L223.01 389.356ZM242.233 398.583L241.247 402.08C251.273 404.908 259.664 407.104 266.406 408.66L267.223 405.119L268.04 401.578C261.454 400.058 253.185 397.896 243.22 395.085L242.233 398.583ZM267.223 405.119L266.537 408.687C273.423 410.012 280.317 410.675 287.215 410.675V407.041V403.407C280.786 403.407 274.352 402.789 267.91 401.55L267.223 405.119ZM287.215 407.041V410.675C296.113 410.675 306.834 408.929 319.307 405.551L318.357 402.043L317.407 398.535C305.274 401.821 295.234 403.407 287.215 403.407V407.041ZM318.357 402.043L319.334 405.543C330.571 402.407 339.595 398.549 346.216 393.859L344.116 390.894L342.015 387.928C336.333 391.953 328.185 395.527 317.38 398.543L318.357 402.043ZM344.116 390.894L346.159 393.899C352.879 389.329 358.042 384.229 361.457 378.538L358.341 376.668L355.225 374.799C352.488 379.36 348.168 383.743 342.072 387.888L344.116 390.894ZM358.341 376.668L361.431 378.581C364.993 372.827 367.348 366.753 368.457 360.375L364.877 359.752L361.296 359.129C360.355 364.541 358.353 369.745 355.251 374.756L358.341 376.668ZM364.877 359.752L368.461 360.35C369.494 354.15 370.399 347.949 371.174 341.749L367.568 341.298L363.962 340.847C363.199 346.949 362.309 353.052 361.292 359.155L364.877 359.752ZM367.568 341.298L371.185 341.643L371.954 333.569L368.337 333.224L364.719 332.88L363.95 340.953L367.568 341.298ZM368.337 333.224H371.971C371.971 326.926 369.993 318.875 366.353 309.255L362.954 310.541L359.555 311.827C363.092 321.174 364.703 328.245 364.703 333.224H368.337ZM362.954 310.541L366.353 309.255C362.568 299.251 356.263 289.51 347.563 280.02L344.885 282.475L342.206 284.931C350.423 293.895 356.164 302.864 359.555 311.827L362.954 310.541ZM344.885 282.475L347.631 280.095C344.15 276.079 340.031 272.098 335.293 268.15L332.966 270.942L330.64 273.733C335.129 277.474 338.955 281.183 342.138 284.855L344.885 282.475ZM332.966 270.942L335.371 268.217C330.739 264.13 325.211 260.502 318.829 257.311L317.203 260.561L315.578 263.811C321.498 266.771 326.479 270.064 330.562 273.666L332.966 270.942ZM317.203 260.561L318.884 257.339C312.691 254.108 305.743 251.577 298.064 249.724L297.211 253.256L296.359 256.789C303.546 258.524 309.925 260.863 315.522 263.783L317.203 260.561ZM297.211 253.256L298.178 249.753C290.375 247.601 281.713 246.547 272.221 246.547V250.181V253.815C281.184 253.815 289.181 254.811 296.245 256.759L297.211 253.256ZM272.221 250.181V246.547C272.259 246.547 272.215 246.55 272.069 246.521C271.926 246.493 271.722 246.44 271.448 246.349L270.299 249.796L269.15 253.244C270.1 253.56 271.159 253.815 272.221 253.815V250.181ZM270.299 249.796L271.448 246.349C270.961 246.186 269.774 245.663 267.695 244.623L266.07 247.874L264.445 251.124C266.466 252.135 268.099 252.893 269.15 253.244L270.299 249.796ZM266.07 247.874L268.463 245.139L265.387 242.448L262.994 245.183L260.601 247.918L263.677 250.609L266.07 247.874ZM262.994 245.183H266.628C266.628 243.623 265.832 242.496 265.179 241.844L262.61 244.414L260.04 246.983C259.9 246.844 259.36 246.23 259.36 245.183H262.994ZM262.61 244.414H266.244C266.244 243.688 266.084 242.943 265.943 242.379C265.784 241.742 265.56 241.005 265.288 240.189L261.841 241.338L258.393 242.487C258.634 243.209 258.795 243.753 258.892 244.142C258.94 244.335 258.965 244.46 258.977 244.531C258.991 244.616 258.976 244.56 258.976 244.414H262.61ZM261.841 241.338L264.411 238.768C264.55 238.908 265.09 239.522 265.09 240.569H261.456H257.822C257.822 242.129 258.619 243.255 259.271 243.908L261.841 241.338ZM261.456 240.569H265.09C265.09 240.573 265.091 240.508 265.104 240.343C265.116 240.188 265.135 239.983 265.164 239.721C265.223 239.196 265.313 238.501 265.438 237.623L261.841 237.109L258.243 236.595C257.998 238.315 257.822 239.746 257.822 240.569H261.456ZM261.841 237.109H265.475C265.475 237.108 265.475 237.108 265.475 237.107C265.475 237.107 265.475 237.106 265.475 237.106C265.475 237.105 265.475 237.105 265.475 237.104C265.475 237.104 265.475 237.103 265.475 237.103C265.475 237.102 265.475 237.102 265.475 237.101C265.475 237.101 265.475 237.1 265.475 237.1C265.475 237.099 265.475 237.099 265.475 237.098C265.475 237.098 265.475 237.097 265.475 237.097C265.475 237.096 265.475 237.096 265.475 237.095C265.475 237.095 265.475 237.094 265.475 237.094C265.475 237.093 265.475 237.093 265.475 237.092C265.475 237.092 265.475 237.091 265.475 237.091C265.475 237.09 265.475 237.09 265.475 237.089C265.475 237.089 265.475 237.088 265.475 237.088C265.475 237.087 265.475 237.087 265.475 237.086C265.475 237.086 265.475 237.085 265.475 237.085C265.475 237.084 265.475 237.084 265.475 237.083C265.475 237.083 265.475 237.082 265.475 237.082C265.475 237.081 265.475 237.081 265.475 237.08C265.475 237.08 265.475 237.079 265.475 237.079C265.475 237.078 265.475 237.078 265.475 237.077C265.475 237.077 265.475 237.076 265.475 237.076C265.475 237.075 265.475 237.075 265.475 237.074C265.475 237.074 265.475 237.073 265.475 237.073C265.475 237.072 265.475 237.072 265.475 237.071C265.475 237.071 265.475 237.07 265.475 237.07C265.475 237.069 265.475 237.069 265.475 237.068C265.475 237.068 265.475 237.067 265.475 237.067C265.475 237.066 265.475 237.066 265.475 237.065C265.475 237.065 265.475 237.064 265.475 237.064C265.475 237.063 265.475 237.063 265.475 237.062C265.475 237.062 265.475 237.061 265.475 237.061C265.475 237.06 265.475 237.06 265.475 237.059C265.475 237.059 265.475 237.058 265.475 237.058C265.475 237.057 265.475 237.057 265.475 237.056C265.475 237.056 265.475 237.055 265.475 237.055C265.475 237.054 265.475 237.054 265.475 237.053C265.475 237.053 265.475 237.052 265.475 237.052C265.475 237.051 265.475 237.051 265.475 237.05C265.475 237.05 265.475 237.049 265.475 237.049C265.475 237.048 265.475 237.048 265.475 237.047C265.475 237.047 265.475 237.046 265.475 237.046C265.475 237.045 265.475 237.045 265.475 237.044C265.475 237.044 265.475 237.043 265.475 237.043C265.475 237.042 265.475 237.042 265.475 237.041C265.475 237.041 265.475 237.04 265.475 237.04C265.475 237.039 265.475 237.039 265.475 237.038C265.475 237.038 265.475 237.037 265.475 237.037C265.475 237.036 265.475 237.036 265.475 237.035C265.475 237.035 265.475 237.034 265.475 237.034C265.475 237.033 265.475 237.033 265.475 237.032C265.475 237.032 265.475 237.031 265.475 237.031C265.475 237.03 265.475 237.03 265.475 237.029C265.475 237.029 265.475 237.028 265.475 237.028C265.475 237.027 265.475 237.027 265.475 237.026C265.475 237.026 265.475 237.025 265.475 237.025C265.475 237.024 265.475 237.024 265.475 237.023C265.475 237.023 265.475 237.022 265.475 237.022C265.475 237.021 265.475 237.021 265.475 237.02C265.475 237.02 265.475 237.019 265.475 237.019C265.475 237.018 265.475 237.018 265.475 237.017C265.475 237.017 265.475 237.016 265.475 237.016C265.475 237.015 265.475 237.015 265.475 237.014C265.475 237.014 265.475 237.013 265.475 237.013C265.475 237.012 265.475 237.012 265.475 237.011C265.475 237.011 265.475 237.01 265.475 237.01C265.475 237.009 265.475 237.009 265.475 237.008C265.475 237.008 265.475 237.007 265.475 237.007C265.475 237.006 265.475 237.006 265.475 237.005C265.475 237.005 265.475 237.004 265.475 237.004C265.475 237.003 265.475 237.003 265.475 237.002C265.475 237.002 265.475 237.001 265.475 237.001C265.475 237 265.475 237 265.475 236.999C265.475 236.999 265.475 236.998 265.475 236.998C265.475 236.997 265.475 236.997 265.475 236.996C265.475 236.996 265.475 236.995 265.475 236.995C265.475 236.994 265.475 236.994 265.475 236.993C265.475 236.993 265.475 236.992 265.475 236.992C265.475 236.991 265.475 236.991 265.475 236.99C265.475 236.99 265.475 236.989 265.475 236.989C265.475 236.988 265.475 236.988 265.475 236.987C265.475 236.987 265.475 236.986 265.475 236.986C265.475 236.985 265.475 236.985 265.475 236.984C265.475 236.984 265.475 236.983 265.475 236.983C265.475 236.982 265.475 236.982 265.475 236.981C265.475 236.981 265.475 236.98 265.475 236.98C265.475 236.979 265.475 236.979 265.475 236.978C265.475 236.978 265.475 236.977 265.475 236.977C265.475 236.976 265.475 236.976 265.475 236.975C265.475 236.975 265.475 236.974 265.475 236.974C265.475 236.973 265.475 236.973 265.475 236.972C265.475 236.972 265.475 236.971 265.475 236.971C265.475 236.97 265.475 236.97 265.475 236.969C265.475 236.969 265.475 236.968 265.475 236.968C265.475 236.967 265.475 236.967 265.475 236.966C265.475 236.966 265.475 236.965 265.475 236.965C265.475 236.964 265.475 236.964 265.475 236.963C265.475 236.963 265.475 236.962 265.475 236.962C265.475 236.961 265.475 236.961 265.475 236.96C265.475 236.96 265.475 236.959 265.475 236.959C265.475 236.958 265.475 236.958 265.475 236.957C265.475 236.957 265.475 236.956 265.475 236.956C265.475 236.955 265.475 236.955 265.475 236.954C265.475 236.954 265.475 236.953 265.475 236.953C265.475 236.952 265.475 236.952 265.475 236.951C265.475 236.951 265.475 236.95 265.475 236.95C265.475 236.949 265.475 236.949 265.475 236.948C265.475 236.948 265.475 236.947 265.475 236.947C265.475 236.946 265.475 236.946 265.475 236.945C265.475 236.945 265.475 236.944 265.475 236.944C265.475 236.943 265.475 236.943 265.475 236.942C265.475 236.942 265.475 236.941 265.475 236.941C265.475 236.94 265.475 236.94 265.475 236.939C265.475 236.939 265.475 236.938 265.475 236.938C265.475 236.937 265.475 236.937 265.475 236.936C265.475 236.936 265.475 236.935 265.475 236.935C265.475 236.934 265.475 236.934 265.475 236.933C265.475 236.933 265.475 236.932 265.475 236.932C265.475 236.931 265.475 236.931 265.475 236.93C265.475 236.93 265.475 236.929 265.475 236.929C265.475 236.928 265.475 236.928 265.475 236.927C265.475 236.927 265.475 236.926 265.475 236.926C265.475 236.925 265.475 236.925 265.475 236.924C265.475 236.924 265.475 236.923 265.475 236.923C265.475 236.922 265.475 236.922 265.475 236.921C265.475 236.921 265.475 236.92 265.475 236.92C265.475 236.919 265.475 236.919 265.475 236.918C265.475 236.918 265.475 236.917 265.475 236.917C265.475 236.916 265.475 236.916 265.475 236.915C265.475 236.915 265.475 236.914 265.475 236.914C265.475 236.913 265.475 236.913 265.475 236.912C265.475 236.912 265.475 236.911 265.475 236.911C265.475 236.91 265.475 236.91 265.475 236.909C265.475 236.909 265.475 236.908 265.475 236.908C265.475 236.907 265.475 236.907 265.475 236.906C265.475 236.906 265.475 236.905 265.475 236.905C265.475 236.904 265.475 236.904 265.475 236.903C265.475 236.903 265.475 236.902 265.475 236.902C265.475 236.901 265.475 236.901 265.475 236.9C265.475 236.9 265.475 236.899 265.475 236.899C265.475 236.898 265.475 236.898 265.475 236.897C265.475 236.897 265.475 236.896 265.475 236.896C265.475 236.895 265.475 236.895 265.475 236.894C265.475 236.894 265.475 236.893 265.475 236.893C265.475 236.892 265.475 236.892 265.475 236.891C265.475 236.891 265.475 236.89 265.475 236.89C265.475 236.889 265.475 236.889 265.475 236.888C265.475 236.888 265.475 236.887 265.475 236.887C265.475 236.886 265.475 236.886 265.475 236.885C265.475 236.885 265.475 236.884 265.475 236.884C265.475 236.883 265.475 236.883 265.475 236.882C265.475 236.882 265.475 236.881 265.475 236.881C265.475 236.88 265.475 236.88 265.475 236.879C265.475 236.879 265.475 236.878 265.475 236.878C265.475 236.877 265.475 236.877 265.475 236.876C265.475 236.876 265.475 236.875 265.475 236.875C265.475 236.874 265.475 236.874 265.475 236.873C265.475 236.873 265.475 236.872 265.475 236.872C265.475 236.871 265.475 236.871 265.475 236.87C265.475 236.87 265.475 236.869 265.475 236.869C265.475 236.868 265.475 236.868 265.475 236.867C265.475 236.867 265.475 236.866 265.475 236.866C265.475 236.865 265.475 236.865 265.475 236.864C265.475 236.864 265.475 236.863 265.475 236.863C265.475 236.862 265.475 236.862 265.475 236.861C265.475 236.861 265.475 236.86 265.475 236.86C265.475 236.859 265.475 236.859 265.475 236.858C265.475 236.858 265.475 236.857 265.475 236.857C265.475 236.856 265.475 236.856 265.475 236.855C265.475 236.855 265.475 236.854 265.475 236.854C265.475 236.853 265.475 236.853 265.475 236.852C265.475 236.852 265.475 236.851 265.475 236.851C265.475 236.85 265.475 236.85 265.475 236.849C265.475 236.849 265.475 236.848 265.475 236.848C265.475 236.847 265.475 236.847 265.475 236.846C265.475 236.846 265.475 236.845 265.475 236.845C265.475 236.844 265.475 236.844 265.475 236.843C265.475 236.843 265.475 236.842 265.475 236.842C265.475 236.841 265.475 236.841 265.475 236.84C265.475 236.84 265.475 236.839 265.475 236.839C265.475 236.838 265.475 236.838 265.475 236.837C265.475 236.837 265.475 236.836 265.475 236.836C265.475 236.835 265.475 236.835 265.475 236.834C265.475 236.834 265.475 236.833 265.475 236.833C265.475 236.832 265.475 236.832 265.475 236.831C265.475 236.831 265.475 236.83 265.475 236.83C265.475 236.829 265.475 236.829 265.475 236.828C265.475 236.828 265.475 236.827 265.475 236.827C265.475 236.826 265.475 236.826 265.475 236.825C265.475 236.825 265.475 236.824 265.475 236.824C265.475 236.823 265.475 236.823 265.475 236.822C265.475 236.822 265.475 236.821 265.475 236.821C265.475 236.82 265.475 236.82 265.475 236.819C265.475 236.819 265.475 236.818 265.475 236.818C265.475 236.817 265.475 236.817 265.475 236.816C265.475 236.816 265.475 236.815 265.475 236.815C265.475 236.814 265.475 236.814 265.475 236.813C265.475 236.813 265.475 236.812 265.475 236.812C265.475 236.811 265.475 236.811 265.475 236.81C265.475 236.81 265.475 236.809 265.475 236.809C265.475 236.808 265.475 236.808 265.475 236.807C265.475 236.807 265.475 236.806 265.475 236.806C265.475 236.805 265.475 236.805 265.475 236.804C265.475 236.804 265.475 236.803 265.475 236.803C265.475 236.802 265.475 236.802 265.475 236.801C265.475 236.801 265.475 236.8 265.475 236.8C265.475 236.799 265.475 236.799 265.475 236.798C265.475 236.798 265.475 236.797 265.475 236.797C265.475 236.796 265.475 236.796 265.475 236.795C265.475 236.795 265.475 236.794 265.475 236.794C265.475 236.793 265.475 236.793 265.475 236.792C265.475 236.792 265.475 236.791 265.475 236.791C265.475 236.79 265.475 236.79 265.475 236.789C265.475 236.789 265.475 236.788 265.475 236.788C265.475 236.787 265.475 236.787 265.475 236.786C265.475 236.786 265.475 236.785 265.475 236.785C265.475 236.784 265.475 236.784 265.475 236.783C265.475 236.783 265.475 236.782 265.475 236.782C265.475 236.781 265.475 236.781 265.475 236.78C265.475 236.78 265.475 236.779 265.475 236.779C265.475 236.778 265.475 236.778 265.475 236.777C265.475 236.777 265.475 236.776 265.475 236.776C265.475 236.775 265.475 236.775 265.475 236.774C265.475 236.774 265.475 236.773 265.475 236.773C265.475 236.772 265.475 236.772 265.475 236.771C265.475 236.771 265.475 236.77 265.475 236.77C265.475 236.769 265.475 236.769 265.475 236.768C265.475 236.768 265.475 236.767 265.475 236.766C265.475 236.766 265.475 236.765 265.475 236.765C265.475 236.764 265.475 236.764 265.475 236.763C265.475 236.763 265.475 236.762 265.475 236.762C265.475 236.761 265.475 236.761 265.475 236.76C265.475 236.76 265.475 236.759 265.475 236.759C265.475 236.758 265.475 236.758 265.475 236.757C265.475 236.757 265.475 236.756 265.475 236.756C265.475 236.755 265.475 236.755 265.475 236.754C265.475 236.754 265.475 236.753 265.475 236.753C265.475 236.752 265.475 236.752 265.475 236.751C265.475 236.751 265.475 236.75 265.475 236.75C265.475 236.749 265.475 236.749 265.475 236.748C265.475 236.748 265.475 236.747 265.475 236.747C265.475 236.746 265.475 236.746 265.475 236.745C265.475 236.745 265.475 236.744 265.475 236.744C265.475 236.743 265.475 236.743 265.475 236.742C265.475 236.742 265.475 236.741 265.475 236.741C265.475 236.74 265.475 236.74 265.475 236.739C265.475 236.739 265.475 236.738 265.475 236.738C265.475 236.737 265.475 236.737 265.475 236.736C265.475 236.736 265.475 236.735 265.475 236.735C265.475 236.734 265.475 236.734 265.475 236.733C265.475 236.733 265.475 236.732 265.475 236.732C265.475 236.731 265.475 236.731 265.475 236.73C265.475 236.73 265.475 236.729 265.475 236.729C265.475 236.728 265.475 236.728 265.475 236.727C265.475 236.727 265.475 236.726 265.475 236.726C265.475 236.725 265.475 236.725 265.475 236.724C265.475 236.724 265.475 236.723 265.475 236.723C265.475 236.722 265.475 236.722 265.475 236.721C265.475 236.721 265.475 236.72 265.475 236.72C265.475 236.719 265.475 236.719 265.475 236.718C265.475 236.718 265.475 236.717 265.475 236.717C265.475 236.716 265.475 236.716 265.475 236.715C265.475 236.715 265.475 236.714 265.475 236.714C265.475 236.713 265.475 236.713 265.475 236.712C265.475 236.712 265.475 236.711 265.475 236.711C265.475 236.71 265.475 236.71 265.475 236.709C265.475 236.709 265.475 236.708 265.475 236.708C265.475 236.707 265.475 236.707 265.475 236.706C265.475 236.706 265.475 236.705 265.475 236.705C265.475 236.704 265.475 236.704 265.475 236.703C265.475 236.703 265.475 236.702 265.475 236.702C265.475 236.701 265.475 236.701 265.475 236.7C265.475 236.7 265.475 236.699 265.475 236.699C265.475 236.698 265.475 236.698 265.475 236.697C265.475 236.697 265.475 236.696 265.475 236.696C265.475 236.695 265.475 236.695 265.475 236.694C265.475 236.694 265.475 236.693 265.475 236.693C265.475 236.692 265.475 236.692 265.475 236.691C265.475 236.691 265.475 236.69 265.475 236.69C265.475 236.689 265.475 236.689 265.475 236.688C265.475 236.688 265.475 236.687 265.475 236.687C265.475 236.686 265.475 236.686 265.475 236.685C265.475 236.685 265.475 236.684 265.475 236.684C265.475 236.683 265.475 236.683 265.475 236.682C265.475 236.682 265.475 236.681 265.475 236.681C265.475 236.68 265.475 236.68 265.475 236.679C265.475 236.679 265.475 236.678 265.475 236.678C265.475 236.677 265.475 236.677 265.475 236.676C265.475 236.676 265.475 236.675 265.475 236.675C265.475 236.674 265.475 236.674 265.475 236.673C265.475 236.673 265.475 236.672 265.475 236.672C265.475 236.671 265.475 236.671 265.475 236.67C265.475 236.67 265.475 236.669 265.475 236.669C265.475 236.668 265.475 236.668 265.475 236.667C265.475 236.667 265.475 236.666 265.475 236.666C265.475 236.665 265.475 236.665 265.475 236.664C265.475 236.664 265.475 236.663 265.475 236.663C265.475 236.662 265.475 236.662 265.475 236.661C265.475 236.661 265.475 236.66 265.475 236.66C265.475 236.659 265.475 236.659 265.475 236.658C265.475 236.658 265.475 236.657 265.475 236.657C265.475 236.656 265.475 236.656 265.475 236.655C265.475 236.655 265.475 236.654 265.475 236.654C265.475 236.653 265.475 236.653 265.475 236.652C265.475 236.652 265.475 236.651 265.475 236.651C265.475 236.65 265.475 236.65 265.475 236.649C265.475 236.649 265.475 236.648 265.475 236.648C265.475 236.647 265.475 236.647 265.475 236.646C265.475 236.646 265.475 236.645 265.475 236.645C265.475 236.644 265.475 236.644 265.475 236.643C265.475 236.643 265.475 236.642 265.475 236.642C265.475 236.641 265.475 236.641 265.475 236.64C265.475 236.64 265.475 236.639 265.475 236.639C265.475 236.638 265.475 236.638 265.475 236.637C265.475 236.637 265.475 236.636 265.475 236.636C265.475 236.635 265.475 236.635 265.475 236.634C265.475 236.634 265.475 236.633 265.475 236.633C265.475 236.632 265.475 236.632 265.475 236.631C265.475 236.631 265.475 236.63 265.475 236.63C265.475 236.629 265.475 236.629 265.475 236.628C265.475 236.628 265.475 236.627 265.475 236.627C265.475 236.626 265.475 236.626 265.475 236.625C265.475 236.625 265.475 236.624 265.475 236.624C265.475 236.623 265.475 236.623 265.475 236.622C265.475 236.622 265.475 236.621 265.475 236.621C265.475 236.62 265.475 236.62 265.475 236.619C265.475 236.619 265.475 236.618 265.475 236.618C265.475 236.617 265.475 236.617 265.475 236.616C265.475 236.616 265.475 236.615 265.475 236.615C265.475 236.614 265.475 236.614 265.475 236.613C265.475 236.613 265.475 236.612 265.475 236.612C265.475 236.611 265.475 236.611 265.475 236.61C265.475 236.61 265.475 236.609 265.475 236.609C265.475 236.608 265.475 236.608 265.475 236.607C265.475 236.607 265.475 236.606 265.475 236.606C265.475 236.605 265.475 236.605 265.475 236.604C265.475 236.604 265.475 236.603 265.475 236.603C265.475 236.602 265.475 236.602 265.475 236.601C265.475 236.601 265.475 236.6 265.475 236.6C265.475 236.599 265.475 236.599 265.475 236.598C265.475 236.598 265.475 236.597 265.475 236.597C265.475 236.596 265.475 236.596 265.475 236.595C265.475 236.595 265.475 236.594 265.475 236.594C265.475 236.593 265.475 236.593 265.475 236.592C265.475 236.592 265.475 236.591 265.475 236.591C265.475 236.59 265.475 236.59 265.475 236.589C265.475 236.589 265.475 236.588 265.475 236.588C265.475 236.587 265.475 236.587 265.475 236.586C265.475 236.586 265.475 236.585 265.475 236.585C265.475 236.584 265.475 236.584 265.475 236.583C265.475 236.583 265.475 236.582 265.475 236.582C265.475 236.581 265.475 236.581 265.475 236.58C265.475 236.58 265.475 236.579 265.475 236.579C265.475 236.578 265.475 236.578 265.475 236.577C265.475 236.577 265.475 236.576 265.475 236.576C265.475 236.575 265.475 236.575 265.475 236.574C265.475 236.574 265.475 236.573 265.475 236.573C265.475 236.572 265.475 236.572 265.475 236.571C265.475 236.571 265.475 236.57 265.475 236.57C265.475 236.569 265.475 236.569 265.475 236.568C265.475 236.568 265.475 236.567 265.475 236.567C265.475 236.566 265.475 236.566 265.475 236.565C265.475 236.565 265.475 236.564 265.475 236.564C265.475 236.563 265.475 236.563 265.475 236.562C265.475 236.562 265.475 236.561 265.475 236.561C265.475 236.56 265.475 236.56 265.475 236.559C265.475 236.559 265.475 236.558 265.475 236.558C265.475 236.557 265.475 236.557 265.475 236.556C265.475 236.556 265.475 236.555 265.475 236.555C265.475 236.554 265.475 236.554 265.475 236.553C265.475 236.553 265.475 236.552 265.475 236.552C265.475 236.551 265.475 236.551 265.475 236.55C265.475 236.55 265.475 236.549 265.475 236.549C265.475 236.548 265.475 236.548 265.475 236.547C265.475 236.547 265.475 236.546 265.475 236.546C265.475 236.545 265.475 236.545 265.475 236.544C265.475 236.544 265.475 236.543 265.475 236.543C265.475 236.542 265.475 236.542 265.475 236.541C265.475 236.541 265.475 236.54 265.475 236.54C265.475 236.539 265.475 236.539 265.475 236.538C265.475 236.538 265.475 236.537 265.475 236.537C265.475 236.536 265.475 236.536 265.475 236.535C265.475 236.535 265.475 236.534 265.475 236.534C265.475 236.533 265.475 236.533 265.475 236.532C265.475 236.532 265.475 236.531 265.475 236.531C265.475 236.53 265.475 236.53 265.475 236.529C265.475 236.529 265.475 236.528 265.475 236.528C265.475 236.527 265.475 236.527 265.475 236.526C265.475 236.526 265.475 236.525 265.475 236.525C265.475 236.524 265.475 236.524 265.475 236.523C265.475 236.523 265.475 236.522 265.475 236.522C265.475 236.521 265.475 236.521 265.475 236.52C265.475 236.52 265.475 236.519 265.475 236.519C265.475 236.518 265.475 236.518 265.475 236.517C265.475 236.517 265.475 236.516 265.475 236.516C265.475 236.515 265.475 236.515 265.475 236.514C265.475 236.514 265.475 236.513 265.475 236.513C265.475 236.512 265.475 236.512 265.475 236.511C265.475 236.511 265.475 236.51 265.475 236.51C265.475 236.509 265.475 236.509 265.475 236.508C265.475 236.508 265.475 236.507 265.475 236.507C265.475 236.506 265.475 236.506 265.475 236.505C265.475 236.505 265.475 236.504 265.475 236.504C265.475 236.503 265.475 236.503 265.475 236.502C265.475 236.502 265.475 236.501 265.475 236.501C265.475 236.5 265.475 236.5 265.475 236.499C265.475 236.499 265.475 236.498 265.475 236.498C265.475 236.497 265.475 236.497 265.475 236.496C265.475 236.496 265.475 236.495 265.475 236.495C265.475 236.494 265.475 236.494 265.475 236.493C265.475 236.493 265.475 236.492 265.475 236.492C265.475 236.491 265.475 236.491 265.475 236.49C265.475 236.49 265.475 236.489 265.475 236.489C265.475 236.488 265.475 236.488 265.475 236.487C265.475 236.487 265.475 236.486 265.475 236.486C265.475 236.485 265.475 236.485 265.475 236.484C265.475 236.484 265.475 236.483 265.475 236.483C265.475 236.482 265.475 236.482 265.475 236.481C265.475 236.481 265.475 236.48 265.475 236.48C265.475 236.479 265.475 236.479 265.475 236.478C265.475 236.478 265.475 236.477 265.475 236.477C265.475 236.476 265.475 236.476 265.475 236.475C265.475 236.475 265.475 236.474 265.475 236.474C265.475 236.473 265.475 236.473 265.475 236.472C265.475 236.472 265.475 236.471 265.475 236.471C265.475 236.47 265.475 236.47 265.475 236.469C265.475 236.469 265.475 236.468 265.475 236.468C265.475 236.467 265.475 236.467 265.475 236.466C265.475 236.466 265.475 236.465 265.475 236.465C265.475 236.464 265.475 236.464 265.475 236.463C265.475 236.463 265.475 236.462 265.475 236.462C265.475 236.461 265.475 236.461 265.475 236.46C265.475 236.46 265.475 236.459 265.475 236.459C265.475 236.458 265.475 236.458 265.475 236.457C265.475 236.457 265.475 236.456 265.475 236.456C265.475 236.455 265.475 236.455 265.475 236.454C265.475 236.454 265.475 236.453 265.475 236.453C265.475 236.452 265.475 236.452 265.475 236.451C265.475 236.451 265.475 236.45 265.475 236.45C265.475 236.449 265.475 236.449 265.475 236.448C265.475 236.448 265.475 236.447 265.475 236.447C265.475 236.446 265.475 236.446 265.475 236.445C265.475 236.445 265.475 236.444 265.475 236.444C265.475 236.443 265.475 236.443 265.475 236.442C265.475 236.442 265.475 236.441 265.475 236.441C265.475 236.44 265.475 236.44 265.475 236.439C265.475 236.439 265.475 236.438 265.475 236.438C265.475 236.437 265.475 236.437 265.475 236.436C265.475 236.436 265.475 236.435 265.475 236.435C265.475 236.434 265.475 236.434 265.475 236.433C265.475 236.433 265.475 236.432 265.475 236.432C265.475 236.431 265.475 236.431 265.475 236.43C265.475 236.43 265.475 236.429 265.475 236.429C265.475 236.428 265.475 236.428 265.475 236.427C265.475 236.427 265.475 236.426 265.475 236.426C265.475 236.425 265.475 236.425 265.475 236.424C265.475 236.424 265.475 236.423 265.475 236.423C265.475 236.422 265.475 236.422 265.475 236.421C265.475 236.421 265.475 236.42 265.475 236.42C265.475 236.419 265.475 236.419 265.475 236.418C265.475 236.418 265.475 236.417 265.475 236.417C265.475 236.416 265.475 236.416 265.475 236.415C265.475 236.415 265.475 236.414 265.475 236.414C265.475 236.413 265.475 236.413 265.475 236.412C265.475 236.412 265.475 236.411 265.475 236.411C265.475 236.41 265.475 236.41 265.475 236.409C265.475 236.409 265.475 236.408 265.475 236.408C265.475 236.407 265.475 236.407 265.475 236.406C265.475 236.406 265.475 236.405 265.475 236.405C265.475 236.404 265.475 236.404 265.475 236.403C265.475 236.403 265.475 236.402 265.475 236.402C265.475 236.401 265.475 236.401 265.475 236.4C265.475 236.4 265.475 236.399 265.475 236.399C265.475 236.398 265.475 236.398 265.475 236.397C265.475 236.397 265.475 236.396 265.475 236.396C265.475 236.395 265.475 236.395 265.475 236.394C265.475 236.394 265.475 236.393 265.475 236.393C265.475 236.392 265.475 236.392 265.475 236.391C265.475 236.391 265.475 236.39 265.475 236.39C265.475 236.389 265.475 236.389 265.475 236.388C265.475 236.388 265.475 236.387 265.475 236.387C265.475 236.386 265.475 236.386 265.475 236.385C265.475 236.385 265.475 236.384 265.475 236.384C265.475 236.383 265.475 236.383 265.475 236.382C265.475 236.382 265.475 236.381 265.475 236.381C265.475 236.38 265.475 236.38 265.475 236.379C265.475 236.379 265.475 236.378 265.475 236.378C265.475 236.377 265.475 236.377 265.475 236.376C265.475 236.376 265.475 236.375 265.475 236.375C265.475 236.374 265.475 236.374 265.475 236.373C265.475 236.373 265.475 236.372 265.475 236.372C265.475 236.371 265.475 236.371 265.475 236.37C265.475 236.37 265.475 236.369 265.475 236.369C265.475 236.368 265.475 236.368 265.475 236.367C265.475 236.367 265.475 236.366 265.475 236.366C265.475 236.365 265.475 236.365 265.475 236.364C265.475 236.364 265.475 236.363 265.475 236.363C265.475 236.362 265.475 236.362 265.475 236.361C265.475 236.361 265.475 236.36 265.475 236.36C265.475 236.359 265.475 236.359 265.475 236.358C265.475 236.358 265.475 236.357 265.475 236.357C265.475 236.356 265.475 236.356 265.475 236.355C265.475 236.355 265.475 236.354 265.475 236.354C265.475 236.353 265.475 236.353 265.475 236.352C265.475 236.352 265.475 236.351 265.475 236.35C265.475 236.35 265.475 236.349 265.475 236.349C265.475 236.348 265.475 236.348 265.475 236.347C265.475 236.347 265.475 236.346 265.475 236.346C265.475 236.345 265.475 236.345 265.475 236.344C265.475 236.344 265.475 236.343 265.475 236.343C265.475 236.342 265.475 236.342 265.475 236.341C265.475 236.341 265.475 236.34 265.475 236.34H261.841H258.207C258.207 236.34 258.207 236.341 258.207 236.341C258.207 236.342 258.207 236.342 258.207 236.343C258.207 236.343 258.207 236.344 258.207 236.344C258.207 236.345 258.207 236.345 258.207 236.346C258.207 236.346 258.207 236.347 258.207 236.347C258.207 236.348 258.207 236.348 258.207 236.349C258.207 236.349 258.207 236.35 258.207 236.35C258.207 236.351 258.207 236.352 258.207 236.352C258.207 236.353 258.207 236.353 258.207 236.354C258.207 236.354 258.207 236.355 258.207 236.355C258.207 236.356 258.207 236.356 258.207 236.357C258.207 236.357 258.207 236.358 258.207 236.358C258.207 236.359 258.207 236.359 258.207 236.36C258.207 236.36 258.207 236.361 258.207 236.361C258.207 236.362 258.207 236.362 258.207 236.363C258.207 236.363 258.207 236.364 258.207 236.364C258.207 236.365 258.207 236.365 258.207 236.366C258.207 236.366 258.207 236.367 258.207 236.367C258.207 236.368 258.207 236.368 258.207 236.369C258.207 236.369 258.207 236.37 258.207 236.37C258.207 236.371 258.207 236.371 258.207 236.372C258.207 236.372 258.207 236.373 258.207 236.373C258.207 236.374 258.207 236.374 258.207 236.375C258.207 236.375 258.207 236.376 258.207 236.376C258.207 236.377 258.207 236.377 258.207 236.378C258.207 236.378 258.207 236.379 258.207 236.379C258.207 236.38 258.207 236.38 258.207 236.381C258.207 236.381 258.207 236.382 258.207 236.382C258.207 236.383 258.207 236.383 258.207 236.384C258.207 236.384 258.207 236.385 258.207 236.385C258.207 236.386 258.207 236.386 258.207 236.387C258.207 236.387 258.207 236.388 258.207 236.388C258.207 236.389 258.207 236.389 258.207 236.39C258.207 236.39 258.207 236.391 258.207 236.391C258.207 236.392 258.207 236.392 258.207 236.393C258.207 236.393 258.207 236.394 258.207 236.394C258.207 236.395 258.207 236.395 258.207 236.396C258.207 236.396 258.207 236.397 258.207 236.397C258.207 236.398 258.207 236.398 258.207 236.399C258.207 236.399 258.207 236.4 258.207 236.4C258.207 236.401 258.207 236.401 258.207 236.402C258.207 236.402 258.207 236.403 258.207 236.403C258.207 236.404 258.207 236.404 258.207 236.405C258.207 236.405 258.207 236.406 258.207 236.406C258.207 236.407 258.207 236.407 258.207 236.408C258.207 236.408 258.207 236.409 258.207 236.409C258.207 236.41 258.207 236.41 258.207 236.411C258.207 236.411 258.207 236.412 258.207 236.412C258.207 236.413 258.207 236.413 258.207 236.414C258.207 236.414 258.207 236.415 258.207 236.415C258.207 236.416 258.207 236.416 258.207 236.417C258.207 236.417 258.207 236.418 258.207 236.418C258.207 236.419 258.207 236.419 258.207 236.42C258.207 236.42 258.207 236.421 258.207 236.421C258.207 236.422 258.207 236.422 258.207 236.423C258.207 236.423 258.207 236.424 258.207 236.424C258.207 236.425 258.207 236.425 258.207 236.426C258.207 236.426 258.207 236.427 258.207 236.427C258.207 236.428 258.207 236.428 258.207 236.429C258.207 236.429 258.207 236.43 258.207 236.43C258.207 236.431 258.207 236.431 258.207 236.432C258.207 236.432 258.207 236.433 258.207 236.433C258.207 236.434 258.207 236.434 258.207 236.435C258.207 236.435 258.207 236.436 258.207 236.436C258.207 236.437 258.207 236.437 258.207 236.438C258.207 236.438 258.207 236.439 258.207 236.439C258.207 236.44 258.207 236.44 258.207 236.441C258.207 236.441 258.207 236.442 258.207 236.442C258.207 236.443 258.207 236.443 258.207 236.444C258.207 236.444 258.207 236.445 258.207 236.445C258.207 236.446 258.207 236.446 258.207 236.447C258.207 236.447 258.207 236.448 258.207 236.448C258.207 236.449 258.207 236.449 258.207 236.45C258.207 236.45 258.207 236.451 258.207 236.451C258.207 236.452 258.207 236.452 258.207 236.453C258.207 236.453 258.207 236.454 258.207 236.454C258.207 236.455 258.207 236.455 258.207 236.456C258.207 236.456 258.207 236.457 258.207 236.457C258.207 236.458 258.207 236.458 258.207 236.459C258.207 236.459 258.207 236.46 258.207 236.46C258.207 236.461 258.207 236.461 258.207 236.462C258.207 236.462 258.207 236.463 258.207 236.463C258.207 236.464 258.207 236.464 258.207 236.465C258.207 236.465 258.207 236.466 258.207 236.466C258.207 236.467 258.207 236.467 258.207 236.468C258.207 236.468 258.207 236.469 258.207 236.469C258.207 236.47 258.207 236.47 258.207 236.471C258.207 236.471 258.207 236.472 258.207 236.472C258.207 236.473 258.207 236.473 258.207 236.474C258.207 236.474 258.207 236.475 258.207 236.475C258.207 236.476 258.207 236.476 258.207 236.477C258.207 236.477 258.207 236.478 258.207 236.478C258.207 236.479 258.207 236.479 258.207 236.48C258.207 236.48 258.207 236.481 258.207 236.481C258.207 236.482 258.207 236.482 258.207 236.483C258.207 236.483 258.207 236.484 258.207 236.484C258.207 236.485 258.207 236.485 258.207 236.486C258.207 236.486 258.207 236.487 258.207 236.487C258.207 236.488 258.207 236.488 258.207 236.489C258.207 236.489 258.207 236.49 258.207 236.49C258.207 236.491 258.207 236.491 258.207 236.492C258.207 236.492 258.207 236.493 258.207 236.493C258.207 236.494 258.207 236.494 258.207 236.495C258.207 236.495 258.207 236.496 258.207 236.496C258.207 236.497 258.207 236.497 258.207 236.498C258.207 236.498 258.207 236.499 258.207 236.499C258.207 236.5 258.207 236.5 258.207 236.501C258.207 236.501 258.207 236.502 258.207 236.502C258.207 236.503 258.207 236.503 258.207 236.504C258.207 236.504 258.207 236.505 258.207 236.505C258.207 236.506 258.207 236.506 258.207 236.507C258.207 236.507 258.207 236.508 258.207 236.508C258.207 236.509 258.207 236.509 258.207 236.51C258.207 236.51 258.207 236.511 258.207 236.511C258.207 236.512 258.207 236.512 258.207 236.513C258.207 236.513 258.207 236.514 258.207 236.514C258.207 236.515 258.207 236.515 258.207 236.516C258.207 236.516 258.207 236.517 258.207 236.517C258.207 236.518 258.207 236.518 258.207 236.519C258.207 236.519 258.207 236.52 258.207 236.52C258.207 236.521 258.207 236.521 258.207 236.522C258.207 236.522 258.207 236.523 258.207 236.523C258.207 236.524 258.207 236.524 258.207 236.525C258.207 236.525 258.207 236.526 258.207 236.526C258.207 236.527 258.207 236.527 258.207 236.528C258.207 236.528 258.207 236.529 258.207 236.529C258.207 236.53 258.207 236.53 258.207 236.531C258.207 236.531 258.207 236.532 258.207 236.532C258.207 236.533 258.207 236.533 258.207 236.534C258.207 236.534 258.207 236.535 258.207 236.535C258.207 236.536 258.207 236.536 258.207 236.537C258.207 236.537 258.207 236.538 258.207 236.538C258.207 236.539 258.207 236.539 258.207 236.54C258.207 236.54 258.207 236.541 258.207 236.541C258.207 236.542 258.207 236.542 258.207 236.543C258.207 236.543 258.207 236.544 258.207 236.544C258.207 236.545 258.207 236.545 258.207 236.546C258.207 236.546 258.207 236.547 258.207 236.547C258.207 236.548 258.207 236.548 258.207 236.549C258.207 236.549 258.207 236.55 258.207 236.55C258.207 236.551 258.207 236.551 258.207 236.552C258.207 236.552 258.207 236.553 258.207 236.553C258.207 236.554 258.207 236.554 258.207 236.555C258.207 236.555 258.207 236.556 258.207 236.556C258.207 236.557 258.207 236.557 258.207 236.558C258.207 236.558 258.207 236.559 258.207 236.559C258.207 236.56 258.207 236.56 258.207 236.561C258.207 236.561 258.207 236.562 258.207 236.562C258.207 236.563 258.207 236.563 258.207 236.564C258.207 236.564 258.207 236.565 258.207 236.565C258.207 236.566 258.207 236.566 258.207 236.567C258.207 236.567 258.207 236.568 258.207 236.568C258.207 236.569 258.207 236.569 258.207 236.57C258.207 236.57 258.207 236.571 258.207 236.571C258.207 236.572 258.207 236.572 258.207 236.573C258.207 236.573 258.207 236.574 258.207 236.574C258.207 236.575 258.207 236.575 258.207 236.576C258.207 236.576 258.207 236.577 258.207 236.577C258.207 236.578 258.207 236.578 258.207 236.579C258.207 236.579 258.207 236.58 258.207 236.58C258.207 236.581 258.207 236.581 258.207 236.582C258.207 236.582 258.207 236.583 258.207 236.583C258.207 236.584 258.207 236.584 258.207 236.585C258.207 236.585 258.207 236.586 258.207 236.586C258.207 236.587 258.207 236.587 258.207 236.588C258.207 236.588 258.207 236.589 258.207 236.589C258.207 236.59 258.207 236.59 258.207 236.591C258.207 236.591 258.207 236.592 258.207 236.592C258.207 236.593 258.207 236.593 258.207 236.594C258.207 236.594 258.207 236.595 258.207 236.595C258.207 236.596 258.207 236.596 258.207 236.597C258.207 236.597 258.207 236.598 258.207 236.598C258.207 236.599 258.207 236.599 258.207 236.6C258.207 236.6 258.207 236.601 258.207 236.601C258.207 236.602 258.207 236.602 258.207 236.603C258.207 236.603 258.207 236.604 258.207 236.604C258.207 236.605 258.207 236.605 258.207 236.606C258.207 236.606 258.207 236.607 258.207 236.607C258.207 236.608 258.207 236.608 258.207 236.609C258.207 236.609 258.207 236.61 258.207 236.61C258.207 236.611 258.207 236.611 258.207 236.612C258.207 236.612 258.207 236.613 258.207 236.613C258.207 236.614 258.207 236.614 258.207 236.615C258.207 236.615 258.207 236.616 258.207 236.616C258.207 236.617 258.207 236.617 258.207 236.618C258.207 236.618 258.207 236.619 258.207 236.619C258.207 236.62 258.207 236.62 258.207 236.621C258.207 236.621 258.207 236.622 258.207 236.622C258.207 236.623 258.207 236.623 258.207 236.624C258.207 236.624 258.207 236.625 258.207 236.625C258.207 236.626 258.207 236.626 258.207 236.627C258.207 236.627 258.207 236.628 258.207 236.628C258.207 236.629 258.207 236.629 258.207 236.63C258.207 236.63 258.207 236.631 258.207 236.631C258.207 236.632 258.207 236.632 258.207 236.633C258.207 236.633 258.207 236.634 258.207 236.634C258.207 236.635 258.207 236.635 258.207 236.636C258.207 236.636 258.207 236.637 258.207 236.637C258.207 236.638 258.207 236.638 258.207 236.639C258.207 236.639 258.207 236.64 258.207 236.64C258.207 236.641 258.207 236.641 258.207 236.642C258.207 236.642 258.207 236.643 258.207 236.643C258.207 236.644 258.207 236.644 258.207 236.645C258.207 236.645 258.207 236.646 258.207 236.646C258.207 236.647 258.207 236.647 258.207 236.648C258.207 236.648 258.207 236.649 258.207 236.649C258.207 236.65 258.207 236.65 258.207 236.651C258.207 236.651 258.207 236.652 258.207 236.652C258.207 236.653 258.207 236.653 258.207 236.654C258.207 236.654 258.207 236.655 258.207 236.655C258.207 236.656 258.207 236.656 258.207 236.657C258.207 236.657 258.207 236.658 258.207 236.658C258.207 236.659 258.207 236.659 258.207 236.66C258.207 236.66 258.207 236.661 258.207 236.661C258.207 236.662 258.207 236.662 258.207 236.663C258.207 236.663 258.207 236.664 258.207 236.664C258.207 236.665 258.207 236.665 258.207 236.666C258.207 236.666 258.207 236.667 258.207 236.667C258.207 236.668 258.207 236.668 258.207 236.669C258.207 236.669 258.207 236.67 258.207 236.67C258.207 236.671 258.207 236.671 258.207 236.672C258.207 236.672 258.207 236.673 258.207 236.673C258.207 236.674 258.207 236.674 258.207 236.675C258.207 236.675 258.207 236.676 258.207 236.676C258.207 236.677 258.207 236.677 258.207 236.678C258.207 236.678 258.207 236.679 258.207 236.679C258.207 236.68 258.207 236.68 258.207 236.681C258.207 236.681 258.207 236.682 258.207 236.682C258.207 236.683 258.207 236.683 258.207 236.684C258.207 236.684 258.207 236.685 258.207 236.685C258.207 236.686 258.207 236.686 258.207 236.687C258.207 236.687 258.207 236.688 258.207 236.688C258.207 236.689 258.207 236.689 258.207 236.69C258.207 236.69 258.207 236.691 258.207 236.691C258.207 236.692 258.207 236.692 258.207 236.693C258.207 236.693 258.207 236.694 258.207 236.694C258.207 236.695 258.207 236.695 258.207 236.696C258.207 236.696 258.207 236.697 258.207 236.697C258.207 236.698 258.207 236.698 258.207 236.699C258.207 236.699 258.207 236.7 258.207 236.7C258.207 236.701 258.207 236.701 258.207 236.702C258.207 236.702 258.207 236.703 258.207 236.703C258.207 236.704 258.207 236.704 258.207 236.705C258.207 236.705 258.207 236.706 258.207 236.706C258.207 236.707 258.207 236.707 258.207 236.708C258.207 236.708 258.207 236.709 258.207 236.709C258.207 236.71 258.207 236.71 258.207 236.711C258.207 236.711 258.207 236.712 258.207 236.712C258.207 236.713 258.207 236.713 258.207 236.714C258.207 236.714 258.207 236.715 258.207 236.715C258.207 236.716 258.207 236.716 258.207 236.717C258.207 236.717 258.207 236.718 258.207 236.718C258.207 236.719 258.207 236.719 258.207 236.72C258.207 236.72 258.207 236.721 258.207 236.721C258.207 236.722 258.207 236.722 258.207 236.723C258.207 236.723 258.207 236.724 258.207 236.724C258.207 236.725 258.207 236.725 258.207 236.726C258.207 236.726 258.207 236.727 258.207 236.727C258.207 236.728 258.207 236.728 258.207 236.729C258.207 236.729 258.207 236.73 258.207 236.73C258.207 236.731 258.207 236.731 258.207 236.732C258.207 236.732 258.207 236.733 258.207 236.733C258.207 236.734 258.207 236.734 258.207 236.735C258.207 236.735 258.207 236.736 258.207 236.736C258.207 236.737 258.207 236.737 258.207 236.738C258.207 236.738 258.207 236.739 258.207 236.739C258.207 236.74 258.207 236.74 258.207 236.741C258.207 236.741 258.207 236.742 258.207 236.742C258.207 236.743 258.207 236.743 258.207 236.744C258.207 236.744 258.207 236.745 258.207 236.745C258.207 236.746 258.207 236.746 258.207 236.747C258.207 236.747 258.207 236.748 258.207 236.748C258.207 236.749 258.207 236.749 258.207 236.75C258.207 236.75 258.207 236.751 258.207 236.751C258.207 236.752 258.207 236.752 258.207 236.753C258.207 236.753 258.207 236.754 258.207 236.754C258.207 236.755 258.207 236.755 258.207 236.756C258.207 236.756 258.207 236.757 258.207 236.757C258.207 236.758 258.207 236.758 258.207 236.759C258.207 236.759 258.207 236.76 258.207 236.76C258.207 236.761 258.207 236.761 258.207 236.762C258.207 236.762 258.207 236.763 258.207 236.763C258.207 236.764 258.207 236.764 258.207 236.765C258.207 236.765 258.207 236.766 258.207 236.766C258.207 236.767 258.207 236.768 258.207 236.768C258.207 236.769 258.207 236.769 258.207 236.77C258.207 236.77 258.207 236.771 258.207 236.771C258.207 236.772 258.207 236.772 258.207 236.773C258.207 236.773 258.207 236.774 258.207 236.774C258.207 236.775 258.207 236.775 258.207 236.776C258.207 236.776 258.207 236.777 258.207 236.777C258.207 236.778 258.207 236.778 258.207 236.779C258.207 236.779 258.207 236.78 258.207 236.78C258.207 236.781 258.207 236.781 258.207 236.782C258.207 236.782 258.207 236.783 258.207 236.783C258.207 236.784 258.207 236.784 258.207 236.785C258.207 236.785 258.207 236.786 258.207 236.786C258.207 236.787 258.207 236.787 258.207 236.788C258.207 236.788 258.207 236.789 258.207 236.789C258.207 236.79 258.207 236.79 258.207 236.791C258.207 236.791 258.207 236.792 258.207 236.792C258.207 236.793 258.207 236.793 258.207 236.794C258.207 236.794 258.207 236.795 258.207 236.795C258.207 236.796 258.207 236.796 258.207 236.797C258.207 236.797 258.207 236.798 258.207 236.798C258.207 236.799 258.207 236.799 258.207 236.8C258.207 236.8 258.207 236.801 258.207 236.801C258.207 236.802 258.207 236.802 258.207 236.803C258.207 236.803 258.207 236.804 258.207 236.804C258.207 236.805 258.207 236.805 258.207 236.806C258.207 236.806 258.207 236.807 258.207 236.807C258.207 236.808 258.207 236.808 258.207 236.809C258.207 236.809 258.207 236.81 258.207 236.81C258.207 236.811 258.207 236.811 258.207 236.812C258.207 236.812 258.207 236.813 258.207 236.813C258.207 236.814 258.207 236.814 258.207 236.815C258.207 236.815 258.207 236.816 258.207 236.816C258.207 236.817 258.207 236.817 258.207 236.818C258.207 236.818 258.207 236.819 258.207 236.819C258.207 236.82 258.207 236.82 258.207 236.821C258.207 236.821 258.207 236.822 258.207 236.822C258.207 236.823 258.207 236.823 258.207 236.824C258.207 236.824 258.207 236.825 258.207 236.825C258.207 236.826 258.207 236.826 258.207 236.827C258.207 236.827 258.207 236.828 258.207 236.828C258.207 236.829 258.207 236.829 258.207 236.83C258.207 236.83 258.207 236.831 258.207 236.831C258.207 236.832 258.207 236.832 258.207 236.833C258.207 236.833 258.207 236.834 258.207 236.834C258.207 236.835 258.207 236.835 258.207 236.836C258.207 236.836 258.207 236.837 258.207 236.837C258.207 236.838 258.207 236.838 258.207 236.839C258.207 236.839 258.207 236.84 258.207 236.84C258.207 236.841 258.207 236.841 258.207 236.842C258.207 236.842 258.207 236.843 258.207 236.843C258.207 236.844 258.207 236.844 258.207 236.845C258.207 236.845 258.207 236.846 258.207 236.846C258.207 236.847 258.207 236.847 258.207 236.848C258.207 236.848 258.207 236.849 258.207 236.849C258.207 236.85 258.207 236.85 258.207 236.851C258.207 236.851 258.207 236.852 258.207 236.852C258.207 236.853 258.207 236.853 258.207 236.854C258.207 236.854 258.207 236.855 258.207 236.855C258.207 236.856 258.207 236.856 258.207 236.857C258.207 236.857 258.207 236.858 258.207 236.858C258.207 236.859 258.207 236.859 258.207 236.86C258.207 236.86 258.207 236.861 258.207 236.861C258.207 236.862 258.207 236.862 258.207 236.863C258.207 236.863 258.207 236.864 258.207 236.864C258.207 236.865 258.207 236.865 258.207 236.866C258.207 236.866 258.207 236.867 258.207 236.867C258.207 236.868 258.207 236.868 258.207 236.869C258.207 236.869 258.207 236.87 258.207 236.87C258.207 236.871 258.207 236.871 258.207 236.872C258.207 236.872 258.207 236.873 258.207 236.873C258.207 236.874 258.207 236.874 258.207 236.875C258.207 236.875 258.207 236.876 258.207 236.876C258.207 236.877 258.207 236.877 258.207 236.878C258.207 236.878 258.207 236.879 258.207 236.879C258.207 236.88 258.207 236.88 258.207 236.881C258.207 236.881 258.207 236.882 258.207 236.882C258.207 236.883 258.207 236.883 258.207 236.884C258.207 236.884 258.207 236.885 258.207 236.885C258.207 236.886 258.207 236.886 258.207 236.887C258.207 236.887 258.207 236.888 258.207 236.888C258.207 236.889 258.207 236.889 258.207 236.89C258.207 236.89 258.207 236.891 258.207 236.891C258.207 236.892 258.207 236.892 258.207 236.893C258.207 236.893 258.207 236.894 258.207 236.894C258.207 236.895 258.207 236.895 258.207 236.896C258.207 236.896 258.207 236.897 258.207 236.897C258.207 236.898 258.207 236.898 258.207 236.899C258.207 236.899 258.207 236.9 258.207 236.9C258.207 236.901 258.207 236.901 258.207 236.902C258.207 236.902 258.207 236.903 258.207 236.903C258.207 236.904 258.207 236.904 258.207 236.905C258.207 236.905 258.207 236.906 258.207 236.906C258.207 236.907 258.207 236.907 258.207 236.908C258.207 236.908 258.207 236.909 258.207 236.909C258.207 236.91 258.207 236.91 258.207 236.911C258.207 236.911 258.207 236.912 258.207 236.912C258.207 236.913 258.207 236.913 258.207 236.914C258.207 236.914 258.207 236.915 258.207 236.915C258.207 236.916 258.207 236.916 258.207 236.917C258.207 236.917 258.207 236.918 258.207 236.918C258.207 236.919 258.207 236.919 258.207 236.92C258.207 236.92 258.207 236.921 258.207 236.921C258.207 236.922 258.207 236.922 258.207 236.923C258.207 236.923 258.207 236.924 258.207 236.924C258.207 236.925 258.207 236.925 258.207 236.926C258.207 236.926 258.207 236.927 258.207 236.927C258.207 236.928 258.207 236.928 258.207 236.929C258.207 236.929 258.207 236.93 258.207 236.93C258.207 236.931 258.207 236.931 258.207 236.932C258.207 236.932 258.207 236.933 258.207 236.933C258.207 236.934 258.207 236.934 258.207 236.935C258.207 236.935 258.207 236.936 258.207 236.936C258.207 236.937 258.207 236.937 258.207 236.938C258.207 236.938 258.207 236.939 258.207 236.939C258.207 236.94 258.207 236.94 258.207 236.941C258.207 236.941 258.207 236.942 258.207 236.942C258.207 236.943 258.207 236.943 258.207 236.944C258.207 236.944 258.207 236.945 258.207 236.945C258.207 236.946 258.207 236.946 258.207 236.947C258.207 236.947 258.207 236.948 258.207 236.948C258.207 236.949 258.207 236.949 258.207 236.95C258.207 236.95 258.207 236.951 258.207 236.951C258.207 236.952 258.207 236.952 258.207 236.953C258.207 236.953 258.207 236.954 258.207 236.954C258.207 236.955 258.207 236.955 258.207 236.956C258.207 236.956 258.207 236.957 258.207 236.957C258.207 236.958 258.207 236.958 258.207 236.959C258.207 236.959 258.207 236.96 258.207 236.96C258.207 236.961 258.207 236.961 258.207 236.962C258.207 236.962 258.207 236.963 258.207 236.963C258.207 236.964 258.207 236.964 258.207 236.965C258.207 236.965 258.207 236.966 258.207 236.966C258.207 236.967 258.207 236.967 258.207 236.968C258.207 236.968 258.207 236.969 258.207 236.969C258.207 236.97 258.207 236.97 258.207 236.971C258.207 236.971 258.207 236.972 258.207 236.972C258.207 236.973 258.207 236.973 258.207 236.974C258.207 236.974 258.207 236.975 258.207 236.975C258.207 236.976 258.207 236.976 258.207 236.977C258.207 236.977 258.207 236.978 258.207 236.978C258.207 236.979 258.207 236.979 258.207 236.98C258.207 236.98 258.207 236.981 258.207 236.981C258.207 236.982 258.207 236.982 258.207 236.983C258.207 236.983 258.207 236.984 258.207 236.984C258.207 236.985 258.207 236.985 258.207 236.986C258.207 236.986 258.207 236.987 258.207 236.987C258.207 236.988 258.207 236.988 258.207 236.989C258.207 236.989 258.207 236.99 258.207 236.99C258.207 236.991 258.207 236.991 258.207 236.992C258.207 236.992 258.207 236.993 258.207 236.993C258.207 236.994 258.207 236.994 258.207 236.995C258.207 236.995 258.207 236.996 258.207 236.996C258.207 236.997 258.207 236.997 258.207 236.998C258.207 236.998 258.207 236.999 258.207 236.999C258.207 237 258.207 237 258.207 237.001C258.207 237.001 258.207 237.002 258.207 237.002C258.207 237.003 258.207 237.003 258.207 237.004C258.207 237.004 258.207 237.005 258.207 237.005C258.207 237.006 258.207 237.006 258.207 237.007C258.207 237.007 258.207 237.008 258.207 237.008C258.207 237.009 258.207 237.009 258.207 237.01C258.207 237.01 258.207 237.011 258.207 237.011C258.207 237.012 258.207 237.012 258.207 237.013C258.207 237.013 258.207 237.014 258.207 237.014C258.207 237.015 258.207 237.015 258.207 237.016C258.207 237.016 258.207 237.017 258.207 237.017C258.207 237.018 258.207 237.018 258.207 237.019C258.207 237.019 258.207 237.02 258.207 237.02C258.207 237.021 258.207 237.021 258.207 237.022C258.207 237.022 258.207 237.023 258.207 237.023C258.207 237.024 258.207 237.024 258.207 237.025C258.207 237.025 258.207 237.026 258.207 237.026C258.207 237.027 258.207 237.027 258.207 237.028C258.207 237.028 258.207 237.029 258.207 237.029C258.207 237.03 258.207 237.03 258.207 237.031C258.207 237.031 258.207 237.032 258.207 237.032C258.207 237.033 258.207 237.033 258.207 237.034C258.207 237.034 258.207 237.035 258.207 237.035C258.207 237.036 258.207 237.036 258.207 237.037C258.207 237.037 258.207 237.038 258.207 237.038C258.207 237.039 258.207 237.039 258.207 237.04C258.207 237.04 258.207 237.041 258.207 237.041C258.207 237.042 258.207 237.042 258.207 237.043C258.207 237.043 258.207 237.044 258.207 237.044C258.207 237.045 258.207 237.045 258.207 237.046C258.207 237.046 258.207 237.047 258.207 237.047C258.207 237.048 258.207 237.048 258.207 237.049C258.207 237.049 258.207 237.05 258.207 237.05C258.207 237.051 258.207 237.051 258.207 237.052C258.207 237.052 258.207 237.053 258.207 237.053C258.207 237.054 258.207 237.054 258.207 237.055C258.207 237.055 258.207 237.056 258.207 237.056C258.207 237.057 258.207 237.057 258.207 237.058C258.207 237.058 258.207 237.059 258.207 237.059C258.207 237.06 258.207 237.06 258.207 237.061C258.207 237.061 258.207 237.062 258.207 237.062C258.207 237.063 258.207 237.063 258.207 237.064C258.207 237.064 258.207 237.065 258.207 237.065C258.207 237.066 258.207 237.066 258.207 237.067C258.207 237.067 258.207 237.068 258.207 237.068C258.207 237.069 258.207 237.069 258.207 237.07C258.207 237.07 258.207 237.071 258.207 237.071C258.207 237.072 258.207 237.072 258.207 237.073C258.207 237.073 258.207 237.074 258.207 237.074C258.207 237.075 258.207 237.075 258.207 237.076C258.207 237.076 258.207 237.077 258.207 237.077C258.207 237.078 258.207 237.078 258.207 237.079C258.207 237.079 258.207 237.08 258.207 237.08C258.207 237.081 258.207 237.081 258.207 237.082C258.207 237.082 258.207 237.083 258.207 237.083C258.207 237.084 258.207 237.084 258.207 237.085C258.207 237.085 258.207 237.086 258.207 237.086C258.207 237.087 258.207 237.087 258.207 237.088C258.207 237.088 258.207 237.089 258.207 237.089C258.207 237.09 258.207 237.09 258.207 237.091C258.207 237.091 258.207 237.092 258.207 237.092C258.207 237.093 258.207 237.093 258.207 237.094C258.207 237.094 258.207 237.095 258.207 237.095C258.207 237.096 258.207 237.096 258.207 237.097C258.207 237.097 258.207 237.098 258.207 237.098C258.207 237.099 258.207 237.099 258.207 237.1C258.207 237.1 258.207 237.101 258.207 237.101C258.207 237.102 258.207 237.102 258.207 237.103C258.207 237.103 258.207 237.104 258.207 237.104C258.207 237.105 258.207 237.105 258.207 237.106C258.207 237.106 258.207 237.107 258.207 237.107C258.207 237.108 258.207 237.108 258.207 237.109H261.841ZM261.841 236.34L265.091 237.965C265.293 237.562 265.878 236.503 266.918 234.683L263.763 232.88L260.608 231.077C259.598 232.845 258.901 234.093 258.59 234.715L261.841 236.34ZM263.763 232.88L266.689 235.036C270.27 230.176 274.364 224.674 278.973 218.528L276.066 216.348L273.159 214.168C268.541 220.325 264.433 225.844 260.838 230.724L263.763 232.88ZM276.066 216.348L278.915 218.604C283.777 212.462 288.896 206.064 294.271 199.408L291.444 197.125L288.617 194.842C283.228 201.514 278.095 207.931 273.217 214.092L276.066 216.348ZM291.444 197.125L294.244 199.442C300.409 191.993 306.573 184.416 312.736 176.712L309.899 174.442L307.061 172.172C300.922 179.845 294.783 187.391 288.645 194.808L291.444 197.125ZM309.899 174.442L312.772 176.666C318.943 168.696 324.351 161.485 328.995 155.035L326.046 152.912L323.097 150.788C318.513 157.154 313.157 164.296 307.025 172.217L309.899 174.442ZM326.046 152.912L326.391 149.294C320.918 148.773 314.564 148.385 307.337 148.127L307.207 151.758L307.078 155.39C314.204 155.645 320.409 156.025 325.701 156.53L326.046 152.912ZM307.207 151.758L307.476 148.134C300.449 147.614 292.669 147.355 284.14 147.355V150.99V154.624C292.527 154.624 300.125 154.878 306.939 155.383L307.207 151.758ZM284.14 150.99V147.355C274.051 147.355 263.71 147.744 253.118 148.519L253.383 152.143L253.648 155.767C264.073 155.004 274.237 154.624 284.14 154.624V150.99ZM253.383 152.143L253.118 148.519C242.596 149.288 232.841 150.058 223.853 150.829L224.164 154.45L224.474 158.07C233.427 157.303 243.152 156.535 253.648 155.767L253.383 152.143ZM224.164 154.45L223.844 150.83C215.101 151.601 207.742 152.375 201.779 153.153L202.249 156.756L202.719 160.36C208.547 159.6 215.798 158.836 224.483 158.07L224.164 154.45ZM202.249 156.756L201.758 153.156C198.943 153.54 196.78 153.826 195.263 154.015C193.583 154.225 192.989 154.276 193.022 154.276V157.91V161.544C193.568 161.544 194.768 161.402 196.164 161.227C197.722 161.033 199.917 160.742 202.74 160.357L202.249 156.756ZM193.022 157.91V154.276C191.05 154.276 189.474 153.676 188.111 152.484L185.717 155.219L183.324 157.954C186.062 160.349 189.356 161.544 193.022 161.544V157.91ZM185.717 155.219L188.287 152.649C187.242 151.604 186.302 149.764 185.855 146.631L182.257 147.145L178.66 147.659C179.237 151.702 180.604 155.245 183.148 157.788L185.717 155.219ZM182.257 147.145H185.891C185.891 145.017 186.455 143.603 187.323 142.59L184.564 140.225L181.805 137.86C179.598 140.434 178.623 143.634 178.623 147.145H182.257ZM184.564 140.225L187.134 142.794C188.339 141.589 189.945 140.738 192.134 140.34L191.484 136.764L190.834 133.189C187.385 133.816 184.377 135.272 181.994 137.655L184.564 140.225ZM191.484 136.764V140.398C192.03 140.398 193.23 140.257 194.626 140.082C196.184 139.887 198.379 139.597 201.203 139.212L200.711 135.611L200.22 132.01C197.405 132.394 195.243 132.68 193.725 132.87C192.045 133.08 191.451 133.13 191.484 133.13V136.764ZM200.711 135.611L201.182 139.215C207.009 138.454 214.26 137.691 222.945 136.924L222.626 133.304L222.306 129.684C213.563 130.456 206.204 131.23 200.241 132.008L200.711 135.611ZM222.626 133.304L223.038 136.915C231.949 135.896 241.765 135.004 252.488 134.238L252.229 130.613L251.97 126.988C241.164 127.76 231.244 128.662 222.213 129.694L222.626 133.304ZM252.229 130.613L252.488 134.238C263.169 133.475 273.72 133.094 284.14 133.094V129.46V125.826C273.542 125.826 262.819 126.213 251.97 126.988L252.229 130.613ZM284.14 129.46V133.094C296.63 133.094 307.549 133.476 316.91 134.235L317.203 130.613L317.497 126.991C307.891 126.212 296.768 125.826 284.14 125.826V129.46ZM317.203 130.613L316.917 134.236C326.629 135.003 334.378 135.766 340.185 136.523L340.656 132.92L341.126 129.316C335.143 128.536 327.257 127.761 317.489 126.99L317.203 130.613ZM340.656 132.92L342.982 135.712C343.701 135.112 344.851 134.632 346.807 134.632V130.998V127.363C343.637 127.363 340.685 128.165 338.329 130.128L340.656 132.92ZM346.807 130.998V134.632C347.766 134.632 349.112 134.878 350.913 135.554L352.189 132.151L353.465 128.748C351.166 127.886 348.923 127.363 346.807 127.363V130.998ZM352.189 132.151L349.62 134.721C349.962 135.062 350.047 135.148 350.389 135.489C350.403 135.504 350.47 135.571 350.485 135.586C350.499 135.6 350.567 135.667 350.581 135.682C350.595 135.696 350.663 135.764 350.677 135.778C350.691 135.792 350.759 135.86 350.773 135.874C350.787 135.888 350.855 135.956 350.869 135.97C350.883 135.984 350.951 136.052 350.965 136.066C350.98 136.08 351.047 136.148 351.061 136.162C351.076 136.177 351.143 136.244 351.158 136.258L353.727 133.689L356.297 131.119C355.955 130.777 355.87 130.692 355.528 130.35C355.514 130.336 355.446 130.268 355.432 130.254C355.418 130.24 355.35 130.172 355.336 130.158C355.321 130.144 355.254 130.076 355.24 130.062C355.225 130.048 355.158 129.98 355.143 129.966C355.129 129.951 355.062 129.884 355.047 129.87C355.033 129.855 354.965 129.788 354.951 129.773C354.937 129.759 354.869 129.692 354.855 129.677C354.841 129.663 354.773 129.595 354.759 129.581L352.189 132.151ZM353.727 133.689L351.711 136.712C352.081 136.959 352.379 137.257 352.626 137.627L355.65 135.611L358.673 133.595C357.894 132.427 356.911 131.444 355.743 130.665L353.727 133.689ZM355.65 135.611L354.266 138.971C355.71 139.566 356.692 140.456 357.365 141.684C358.074 142.977 358.551 144.856 358.551 147.529H362.185H365.819C365.819 144.052 365.207 140.868 363.738 138.189C362.232 135.444 359.946 133.45 357.033 132.251L355.65 135.611ZM362.185 147.529L358.642 146.724C358.16 148.844 357.266 150.111 356.141 150.909C354.959 151.749 353.117 152.353 350.267 152.353V155.988V159.622C354.082 159.622 357.558 158.817 360.348 156.837C363.196 154.815 364.929 151.854 365.729 148.335L362.185 147.529ZM350.267 155.988L347.243 153.972C342.703 160.782 336.616 169.029 328.961 178.726L331.813 180.978L334.665 183.229C342.389 173.446 348.604 165.033 353.291 158.003L350.267 155.988ZM331.813 180.978L328.924 178.773C321.518 188.477 313.728 198.311 305.551 208.276L308.361 210.581L311.17 212.886C319.398 202.859 327.242 192.958 334.702 183.182L331.813 180.978ZM308.361 210.581L305.503 208.336C302.677 211.933 299.978 215.403 297.407 218.746L300.287 220.962L303.167 223.177C305.722 219.856 308.406 216.406 311.218 212.826L308.361 210.581ZM300.287 220.962L297.495 218.635C294.894 221.756 292.421 224.881 290.075 228.008L292.982 230.189L295.89 232.369C298.158 229.345 300.554 226.318 303.079 223.288L300.287 220.962Z" fill="#1497BB" mask="url(#path-2-outside-1_134_74)"/>
<defs>
<filter id="filter0_d_134_74" x="0.7232" y="0.691219" width="572.774" height="572.774" filterUnits="userSpaceOnUse" color-interpolation-filters="sRGB">
<feFlood flood-opacity="0" result="BackgroundImageFix"/>
<feColorMatrix in="SourceAlpha" type="matrix" values="0 0 0 0 0 0 0 0 0 0 0 0 0 0 0 0 0 0 127 0" result="hardAlpha"/>
<feMorphology radius="11.3088" operator="dilate" in="SourceAlpha" result="effect1_dropShadow_134_74"/>
<feOffset dy="15.0784"/>
<feGaussianBlur stdDeviation="7.53919"/>
<feComposite in2="hardAlpha" operator="out"/>
<feColorMatrix type="matrix" values="0 0 0 0 0.12549 0 0 0 0 0.278431 0 0 0 0 0.27451 0 0 0 0.28 0"/>
<feBlend mode="normal" in2="BackgroundImageFix" result="effect1_dropShadow_134_74"/>
<feBlend mode="normal" in="SourceGraphic" in2="effect1_dropShadow_134_74" result="shape"/>
</filter>
</defs>
</svg>
