<svg width="574" height="574" viewBox="0 0 574 574" fill="none" xmlns="http://www.w3.org/2000/svg">
<g filter="url(#filter0_d_134_71)">
<rect x="27" y="12" width="520" height="520" rx="73.7215" fill="white"/>
</g>
<mask id="path-2-outside-1_134_71" maskUnits="userSpaceOnUse" x="215.845" y="123.497" width="107" height="308" fill="black">
<rect fill="white" x="215.845" y="123.497" width="107" height="308"/>
<path d="M306.504 270.942C306.504 275.811 306.76 282.732 307.273 291.702C308.042 300.673 308.811 310.541 309.58 321.306C310.605 331.815 311.63 342.708 312.655 353.985C313.681 365.006 314.706 375.131 315.731 384.358C316.756 393.328 317.525 400.89 318.038 407.041C318.807 412.936 319.191 416.012 319.191 416.268C319.191 419.087 318.166 421.394 316.115 423.188C314.321 425.239 311.758 426.52 308.426 427.033C305.607 427.033 303.172 426.136 301.121 424.342C299.071 422.548 297.918 420.241 297.661 417.421C297.405 416.652 296.892 413.192 296.123 407.041C295.611 400.89 294.842 393.2 293.817 383.973C293.048 374.746 292.151 364.622 291.125 353.601C290.1 342.58 289.075 331.815 288.05 321.306C287.281 310.797 286.512 301.058 285.743 292.087C285.23 283.116 284.974 276.068 284.974 270.942C284.974 264.021 284.718 255.435 284.205 245.183C283.693 234.93 283.052 224.294 282.283 213.272C281.514 202.251 280.489 191.358 279.207 180.593C278.182 169.828 277.157 160.601 276.131 152.912C271.005 156.5 266.007 159.96 261.137 163.292C256.524 166.624 252.423 169.572 248.835 172.135C245.503 174.698 242.811 176.748 240.761 178.286L237.301 180.978C235.507 182.772 233.328 183.669 230.765 183.669C227.433 183.669 224.742 182.387 222.691 179.824C220.897 178.03 220 175.723 220 172.904C220 169.828 221.025 167.265 223.076 165.215C223.332 164.958 224.998 163.677 228.074 161.37C231.149 158.807 234.994 155.859 239.608 152.527C244.477 148.939 249.86 145.094 255.755 140.994C261.65 136.636 267.673 132.535 273.825 128.691C275.619 127.666 277.541 127.153 279.592 127.153C281.642 127.153 283.693 127.794 285.743 129.075C288.05 129.332 290.1 130.229 291.894 131.766C293.689 133.304 294.842 135.227 295.355 137.533C296.892 144.71 298.302 154.322 299.584 166.368C300.865 178.158 302.019 190.589 303.044 203.661C304.069 216.732 304.838 229.42 305.351 241.722C306.119 253.769 306.504 263.509 306.504 270.942Z"/>
</mask>
<path d="M306.504 270.942C306.504 275.811 306.76 282.732 307.273 291.702C308.042 300.673 308.811 310.541 309.58 321.306C310.605 331.815 311.63 342.708 312.655 353.985C313.681 365.006 314.706 375.131 315.731 384.358C316.756 393.328 317.525 400.89 318.038 407.041C318.807 412.936 319.191 416.012 319.191 416.268C319.191 419.087 318.166 421.394 316.115 423.188C314.321 425.239 311.758 426.52 308.426 427.033C305.607 427.033 303.172 426.136 301.121 424.342C299.071 422.548 297.918 420.241 297.661 417.421C297.405 416.652 296.892 413.192 296.123 407.041C295.611 400.89 294.842 393.2 293.817 383.973C293.048 374.746 292.151 364.622 291.125 353.601C290.1 342.58 289.075 331.815 288.05 321.306C287.281 310.797 286.512 301.058 285.743 292.087C285.23 283.116 284.974 276.068 284.974 270.942C284.974 264.021 284.718 255.435 284.205 245.183C283.693 234.93 283.052 224.294 282.283 213.272C281.514 202.251 280.489 191.358 279.207 180.593C278.182 169.828 277.157 160.601 276.131 152.912C271.005 156.5 266.007 159.96 261.137 163.292C256.524 166.624 252.423 169.572 248.835 172.135C245.503 174.698 242.811 176.748 240.761 178.286L237.301 180.978C235.507 182.772 233.328 183.669 230.765 183.669C227.433 183.669 224.742 182.387 222.691 179.824C220.897 178.03 220 175.723 220 172.904C220 169.828 221.025 167.265 223.076 165.215C223.332 164.958 224.998 163.677 228.074 161.37C231.149 158.807 234.994 155.859 239.608 152.527C244.477 148.939 249.86 145.094 255.755 140.994C261.65 136.636 267.673 132.535 273.825 128.691C275.619 127.666 277.541 127.153 279.592 127.153C281.642 127.153 283.693 127.794 285.743 129.075C288.05 129.332 290.1 130.229 291.894 131.766C293.689 133.304 294.842 135.227 295.355 137.533C296.892 144.71 298.302 154.322 299.584 166.368C300.865 178.158 302.019 190.589 303.044 203.661C304.069 216.732 304.838 229.42 305.351 241.722C306.119 253.769 306.504 263.509 306.504 270.942Z" fill="#FEB333"/>
<path d="M307.273 291.702L303.645 291.91L303.648 291.961L303.652 292.013L307.273 291.702ZM309.58 321.306L305.955 321.565L305.958 321.612L305.963 321.659L309.58 321.306ZM312.655 353.985L309.036 354.314L309.037 354.322L312.655 353.985ZM315.731 384.358L312.119 384.759L312.12 384.77L315.731 384.358ZM318.038 407.041L314.416 407.343L314.423 407.427L314.434 407.511L318.038 407.041ZM316.115 423.188L313.722 420.453L313.54 420.613L313.381 420.795L316.115 423.188ZM308.426 427.033V430.667H308.704L308.979 430.625L308.426 427.033ZM297.661 417.421L301.28 417.092L301.242 416.672L301.109 416.272L297.661 417.421ZM296.123 407.041L292.502 407.343L292.508 407.417L292.518 407.492L296.123 407.041ZM293.817 383.973L290.195 384.275L290.199 384.325L290.205 384.375L293.817 383.973ZM288.05 321.306L284.425 321.571L284.429 321.615L284.433 321.659L288.05 321.306ZM285.743 292.087L282.115 292.294L282.118 292.346L282.122 292.397L285.743 292.087ZM279.207 180.593L275.59 180.938L275.594 180.98L275.599 181.023L279.207 180.593ZM276.131 152.912L279.734 152.432L278.944 146.507L274.048 149.935L276.131 152.912ZM261.137 163.292L259.085 160.293L259.047 160.319L259.01 160.346L261.137 163.292ZM248.835 172.135L246.722 169.178L246.67 169.215L246.619 169.254L248.835 172.135ZM240.761 178.286L238.581 175.379L238.555 175.398L238.53 175.418L240.761 178.286ZM237.301 180.978L235.07 178.109L234.891 178.248L234.731 178.408L237.301 180.978ZM222.691 179.824L225.529 177.554L225.403 177.397L225.261 177.254L222.691 179.824ZM223.076 165.215L220.506 162.645L223.076 165.215ZM228.074 161.37L230.254 164.277L230.329 164.221L230.4 164.162L228.074 161.37ZM239.608 152.527L241.735 155.473L241.749 155.463L241.763 155.453L239.608 152.527ZM255.755 140.994L257.83 143.977L257.873 143.947L257.915 143.916L255.755 140.994ZM273.825 128.691L272.022 125.536L271.959 125.571L271.899 125.609L273.825 128.691ZM285.743 129.075L283.817 132.157L284.519 132.596L285.342 132.687L285.743 129.075ZM295.355 137.533L298.908 136.772L298.905 136.758L298.902 136.745L295.355 137.533ZM299.584 166.368L295.97 166.752L295.971 166.761L299.584 166.368ZM305.351 241.722L301.72 241.874L301.721 241.914L301.724 241.954L305.351 241.722ZM306.504 270.942H302.87C302.87 275.916 303.131 282.917 303.645 291.91L307.273 291.702L310.901 291.495C310.39 282.546 310.138 275.707 310.138 270.942H306.504ZM307.273 291.702L303.652 292.013C304.419 300.963 305.187 310.814 305.955 321.565L309.58 321.306L313.204 321.047C312.435 310.268 311.664 300.383 310.894 291.392L307.273 291.702ZM309.58 321.306L305.963 321.659C306.987 332.159 308.012 343.044 309.036 354.314L312.655 353.985L316.274 353.656C315.249 342.371 314.223 331.47 313.197 320.953L309.58 321.306ZM312.655 353.985L309.037 354.322C310.064 365.361 311.091 375.507 312.119 384.759L315.731 384.358L319.343 383.956C318.32 374.754 317.297 364.652 316.274 353.649L312.655 353.985ZM315.731 384.358L312.12 384.77C313.143 393.719 313.908 401.241 314.416 407.343L318.038 407.041L321.659 406.739C321.143 400.538 320.369 392.938 319.342 383.945L315.731 384.358ZM318.038 407.041L314.434 407.511C314.819 410.457 315.106 412.692 315.297 414.22C315.393 414.985 315.463 415.564 315.509 415.964C315.573 416.52 315.557 416.473 315.557 416.268H319.191H322.825C322.825 415.935 322.761 415.407 322.729 415.131C322.679 414.697 322.605 414.091 322.509 413.318C322.315 411.771 322.026 409.52 321.641 406.571L318.038 407.041ZM319.191 416.268H315.557C315.557 418.081 314.953 419.376 313.722 420.453L316.115 423.188L318.509 425.923C321.378 423.412 322.825 420.094 322.825 416.268H319.191ZM316.115 423.188L313.381 420.795C312.274 422.06 310.567 423.027 307.874 423.441L308.426 427.033L308.979 430.625C312.949 430.014 316.368 428.418 318.85 425.581L316.115 423.188ZM308.426 427.033V423.399C306.454 423.399 304.878 422.8 303.515 421.607L301.121 424.342L298.728 427.077C301.466 429.472 304.76 430.667 308.426 430.667V427.033ZM301.121 424.342L303.515 421.607C302.196 420.453 301.456 419.022 301.28 417.092L297.661 417.421L294.042 417.75C294.379 421.459 295.946 424.642 298.728 427.077L301.121 424.342ZM297.661 417.421L301.109 416.272C301.137 416.358 301.096 416.238 300.996 415.69C300.91 415.217 300.805 414.564 300.679 413.717C300.429 412.027 300.113 409.656 299.729 406.59L296.123 407.041L292.518 407.492C292.903 410.577 293.228 413.012 293.49 414.782C293.726 416.377 293.961 417.812 294.214 418.571L297.661 417.421ZM296.123 407.041L299.745 406.739C299.229 400.542 298.456 392.817 297.429 383.572L293.817 383.973L290.205 384.375C291.228 393.583 291.993 401.237 292.502 407.343L296.123 407.041ZM293.817 383.973L297.438 383.671C296.668 374.431 295.77 364.295 294.744 353.264L291.125 353.601L287.507 353.937C288.531 364.949 289.427 375.062 290.195 384.275L293.817 383.973ZM291.125 353.601L294.744 353.264C293.718 342.238 292.692 331.467 291.667 320.953L288.05 321.306L284.433 321.659C285.458 332.162 286.482 342.921 287.507 353.937L291.125 353.601ZM288.05 321.306L291.674 321.041C290.904 310.52 290.134 300.765 289.364 291.777L285.743 292.087L282.122 292.397C282.89 301.351 283.657 311.075 284.425 321.571L288.05 321.306ZM285.743 292.087L289.371 291.88C288.86 282.935 288.608 275.966 288.608 270.942H284.974H281.34C281.34 276.169 281.601 283.297 282.115 292.294L285.743 292.087ZM284.974 270.942H288.608C288.608 263.939 288.349 255.288 287.835 245.001L284.205 245.183L280.576 245.364C281.087 255.582 281.34 264.103 281.34 270.942H284.974ZM284.205 245.183L287.835 245.001C287.321 234.723 286.679 224.063 285.908 213.019L282.283 213.272L278.658 213.525C279.425 224.524 280.064 235.137 280.576 245.364L284.205 245.183ZM282.283 213.272L285.908 213.019C285.135 201.94 284.104 190.988 282.816 180.163L279.207 180.593L275.599 181.023C276.873 191.728 277.893 202.562 278.658 213.525L282.283 213.272ZM279.207 180.593L282.825 180.249C281.797 169.454 280.767 160.18 279.734 152.432L276.131 152.912L272.529 153.392C273.547 161.023 274.567 170.202 275.59 180.938L279.207 180.593ZM276.131 152.912L274.048 149.935C268.931 153.516 263.944 156.969 259.085 160.293L261.137 163.292L263.19 166.291C268.071 162.952 273.079 159.484 278.215 155.889L276.131 152.912ZM261.137 163.292L259.01 160.346C254.4 163.676 250.304 166.619 246.722 169.178L248.835 172.135L250.947 175.092C254.542 172.524 258.648 169.573 263.265 166.238L261.137 163.292ZM248.835 172.135L246.619 169.254C243.292 171.813 240.614 173.854 238.581 175.379L240.761 178.286L242.941 181.194C245.009 179.643 247.713 177.583 251.05 175.015L248.835 172.135ZM240.761 178.286L238.53 175.418L235.07 178.109L237.301 180.978L239.532 183.846L242.992 181.155L240.761 178.286ZM237.301 180.978L234.731 178.408C233.626 179.513 232.375 180.035 230.765 180.035V183.669V187.303C234.281 187.303 237.387 186.031 239.871 183.547L237.301 180.978ZM230.765 183.669V180.035C228.518 180.035 226.878 179.24 225.529 177.554L222.691 179.824L219.854 182.094C222.606 185.535 226.349 187.303 230.765 187.303V183.669ZM222.691 179.824L225.261 177.254C224.227 176.221 223.634 174.877 223.634 172.904H220H216.366C216.366 176.57 217.567 179.839 220.122 182.394L222.691 179.824ZM220 172.904H223.634C223.634 170.727 224.321 169.109 225.645 167.784L223.076 165.215L220.506 162.645C217.73 165.421 216.366 168.929 216.366 172.904H220ZM223.076 165.215L225.645 167.784C225.539 167.89 225.521 167.893 225.803 167.668C226.017 167.497 226.324 167.256 226.733 166.942C227.549 166.314 228.72 165.428 230.254 164.277L228.074 161.37L225.893 158.463C224.352 159.619 223.152 160.526 222.302 161.181C221.583 161.734 220.847 162.304 220.506 162.645L223.076 165.215ZM228.074 161.37L230.4 164.162C233.391 161.669 237.164 158.775 241.735 155.473L239.608 152.527L237.48 149.581C232.824 152.944 228.908 155.944 225.747 158.578L228.074 161.37ZM239.608 152.527L241.763 155.453C246.602 151.887 251.957 148.062 257.83 143.977L255.755 140.994L253.68 138.01C247.762 142.127 242.353 145.991 237.452 149.602L239.608 152.527ZM255.755 140.994L257.915 143.916C263.735 139.614 269.68 135.566 275.751 131.772L273.825 128.691L271.899 125.609C265.666 129.504 259.565 133.658 253.595 138.071L255.755 140.994ZM273.825 128.691L275.628 131.846C276.877 131.132 278.179 130.787 279.592 130.787V127.153V123.519C276.904 123.519 274.36 124.199 272.022 125.536L273.825 128.691ZM279.592 127.153V130.787C280.847 130.787 282.239 131.171 283.817 132.157L285.743 129.075L287.669 125.994C285.146 124.417 282.437 123.519 279.592 123.519V127.153ZM285.743 129.075L285.342 132.687C286.909 132.861 288.279 133.454 289.529 134.526L291.894 131.766L294.259 129.007C291.922 127.004 289.19 125.802 286.144 125.463L285.743 129.075ZM291.894 131.766L289.529 134.526C290.727 135.552 291.465 136.783 291.807 138.322L295.355 137.533L298.902 136.745C298.219 133.671 296.651 131.057 294.259 129.007L291.894 131.766ZM295.355 137.533L291.801 138.295C293.301 145.293 294.694 154.763 295.97 166.752L299.584 166.368L303.197 165.984C301.91 153.88 300.484 144.127 298.908 136.772L295.355 137.533ZM299.584 166.368L295.971 166.761C297.248 178.511 298.398 190.906 299.421 203.945L303.044 203.661L306.667 203.377C305.639 190.272 304.482 177.805 303.196 165.975L299.584 166.368ZM303.044 203.661L299.421 203.945C300.443 216.975 301.209 229.618 301.72 241.874L305.351 241.722L308.981 241.571C308.467 229.221 307.695 216.49 306.667 203.377L303.044 203.661ZM305.351 241.722L301.724 241.954C302.491 253.964 302.87 263.618 302.87 270.942H306.504H310.138C310.138 263.399 309.748 253.573 308.977 241.491L305.351 241.722Z" fill="#FEB333" mask="url(#path-2-outside-1_134_71)"/>
<defs>
<filter id="filter0_d_134_71" x="0.612848" y="0.691219" width="572.774" height="572.774" filterUnits="userSpaceOnUse" color-interpolation-filters="sRGB">
<feFlood flood-opacity="0" result="BackgroundImageFix"/>
<feColorMatrix in="SourceAlpha" type="matrix" values="0 0 0 0 0 0 0 0 0 0 0 0 0 0 0 0 0 0 127 0" result="hardAlpha"/>
<feMorphology radius="11.3088" operator="dilate" in="SourceAlpha" result="effect1_dropShadow_134_71"/>
<feOffset dy="15.0784"/>
<feGaussianBlur stdDeviation="7.53919"/>
<feComposite in2="hardAlpha" operator="out"/>
<feColorMatrix type="matrix" values="0 0 0 0 0.12549 0 0 0 0 0.278431 0 0 0 0 0.27451 0 0 0 0.28 0"/>
<feBlend mode="normal" in2="BackgroundImageFix" result="effect1_dropShadow_134_71"/>
<feBlend mode="normal" in="SourceGraphic" in2="effect1_dropShadow_134_71" result="shape"/>
</filter>
</defs>
</svg>
