<svg width="574" height="574" viewBox="0 0 574 574" fill="none" xmlns="http://www.w3.org/2000/svg">
<g filter="url(#filter0_d_134_92)">
<rect x="27.1096" y="12" width="520" height="520" rx="73.7215" fill="white"/>
</g>
<mask id="path-2-outside-1_134_92" maskUnits="userSpaceOnUse" x="164.358" y="134.497" width="238" height="292" fill="black">
<rect fill="white" x="164.358" y="134.497" width="238" height="292"/>
<path d="M362.2 250.565C362.456 247.746 363.482 245.567 365.276 244.029C367.07 242.235 368.992 241.082 371.043 240.569C368.736 229.804 365.276 219.68 360.662 210.197C356.049 200.713 349.897 192.511 342.208 185.591C332.725 177.389 322.216 170.982 310.682 166.368C299.148 161.754 287.23 159.448 274.927 159.448C262.881 159.448 250.834 161.883 238.788 166.752C223.666 173.16 211.491 182.387 202.264 194.434C193.293 206.48 188.808 220.193 188.808 235.571C188.808 238.39 188.936 241.338 189.192 244.414C189.705 247.233 190.218 250.181 190.73 253.256C194.062 267.097 200.214 278.887 209.184 288.627C218.155 298.366 229.689 305.03 243.786 308.619C248.143 309.9 252.628 310.797 257.242 311.31C261.856 311.566 266.725 311.694 271.852 311.694C281.848 311.694 291.972 310.541 302.224 308.234C312.733 305.928 322.216 302.339 330.674 297.469C339.389 292.343 346.565 285.936 352.204 278.246C358.099 270.557 361.431 261.33 362.2 250.565ZM233.021 145.992C239.941 143.428 246.99 141.634 254.166 140.609C261.599 139.328 269.032 138.687 276.465 138.687C292.612 138.687 308.119 141.762 322.985 147.914C338.107 153.809 351.307 163.036 362.584 175.595C368.736 182.515 373.99 190.333 378.347 199.047C382.961 207.505 386.677 216.476 389.497 225.96C392.572 235.443 394.751 245.183 396.033 255.179C397.314 265.175 397.955 275.171 397.955 285.167C397.955 293.368 397.57 301.314 396.802 309.003C396.033 316.692 394.751 324.125 392.957 331.302C387.831 354.626 378.476 373.977 364.891 389.356C351.307 404.734 332.468 414.858 308.375 419.728C303.249 420.753 298.251 421.522 293.381 422.035C288.512 422.548 283.514 422.804 278.387 422.804C262.496 422.804 247.63 419.856 233.79 413.961C219.949 408.066 208.287 398.07 198.804 383.973C197.522 381.923 196.882 380 196.882 378.206C196.882 375.387 198.035 373.08 200.342 371.286C202.905 369.236 205.596 368.21 208.415 368.21C212.26 368.21 215.208 369.748 217.258 372.824C224.178 383.332 233.021 390.894 243.786 395.507C254.807 399.864 266.341 402.043 278.387 402.043C285.308 402.043 292.228 401.402 299.148 400.121C306.325 398.583 313.117 396.532 319.525 393.969C329.008 390.381 337.082 385.639 343.746 379.744C350.41 373.849 355.92 367.057 360.278 359.368C364.891 351.678 368.351 343.348 370.658 334.378C372.965 325.407 374.503 316.052 375.272 306.312C375.528 303.236 375.656 300.161 375.656 297.085C375.656 293.753 375.656 290.293 375.656 286.704V280.169C371.299 289.139 365.404 296.957 357.971 303.621C350.538 310.285 342.208 315.924 332.981 320.537C323.754 324.894 313.886 328.226 303.377 330.533C293.125 332.84 282.745 333.993 272.236 333.993C254.551 333.993 238.019 330.661 222.64 323.997C204.186 315.539 190.474 303.621 181.503 288.242C172.532 272.608 168.047 256.204 168.047 239.031C168.047 229.292 169.457 219.68 172.276 210.197C175.095 200.713 179.196 191.871 184.579 183.669C190.218 175.467 197.01 168.162 204.955 161.754C213.157 155.09 222.512 149.836 233.021 145.992Z"/>
</mask>
<path d="M362.2 250.565C362.456 247.746 363.482 245.567 365.276 244.029C367.07 242.235 368.992 241.082 371.043 240.569C368.736 229.804 365.276 219.68 360.662 210.197C356.049 200.713 349.897 192.511 342.208 185.591C332.725 177.389 322.216 170.982 310.682 166.368C299.148 161.754 287.23 159.448 274.927 159.448C262.881 159.448 250.834 161.883 238.788 166.752C223.666 173.16 211.491 182.387 202.264 194.434C193.293 206.48 188.808 220.193 188.808 235.571C188.808 238.39 188.936 241.338 189.192 244.414C189.705 247.233 190.218 250.181 190.73 253.256C194.062 267.097 200.214 278.887 209.184 288.627C218.155 298.366 229.689 305.03 243.786 308.619C248.143 309.9 252.628 310.797 257.242 311.31C261.856 311.566 266.725 311.694 271.852 311.694C281.848 311.694 291.972 310.541 302.224 308.234C312.733 305.928 322.216 302.339 330.674 297.469C339.389 292.343 346.565 285.936 352.204 278.246C358.099 270.557 361.431 261.33 362.2 250.565ZM233.021 145.992C239.941 143.428 246.99 141.634 254.166 140.609C261.599 139.328 269.032 138.687 276.465 138.687C292.612 138.687 308.119 141.762 322.985 147.914C338.107 153.809 351.307 163.036 362.584 175.595C368.736 182.515 373.99 190.333 378.347 199.047C382.961 207.505 386.677 216.476 389.497 225.96C392.572 235.443 394.751 245.183 396.033 255.179C397.314 265.175 397.955 275.171 397.955 285.167C397.955 293.368 397.57 301.314 396.802 309.003C396.033 316.692 394.751 324.125 392.957 331.302C387.831 354.626 378.476 373.977 364.891 389.356C351.307 404.734 332.468 414.858 308.375 419.728C303.249 420.753 298.251 421.522 293.381 422.035C288.512 422.548 283.514 422.804 278.387 422.804C262.496 422.804 247.63 419.856 233.79 413.961C219.949 408.066 208.287 398.07 198.804 383.973C197.522 381.923 196.882 380 196.882 378.206C196.882 375.387 198.035 373.08 200.342 371.286C202.905 369.236 205.596 368.21 208.415 368.21C212.26 368.21 215.208 369.748 217.258 372.824C224.178 383.332 233.021 390.894 243.786 395.507C254.807 399.864 266.341 402.043 278.387 402.043C285.308 402.043 292.228 401.402 299.148 400.121C306.325 398.583 313.117 396.532 319.525 393.969C329.008 390.381 337.082 385.639 343.746 379.744C350.41 373.849 355.92 367.057 360.278 359.368C364.891 351.678 368.351 343.348 370.658 334.378C372.965 325.407 374.503 316.052 375.272 306.312C375.528 303.236 375.656 300.161 375.656 297.085C375.656 293.753 375.656 290.293 375.656 286.704V280.169C371.299 289.139 365.404 296.957 357.971 303.621C350.538 310.285 342.208 315.924 332.981 320.537C323.754 324.894 313.886 328.226 303.377 330.533C293.125 332.84 282.745 333.993 272.236 333.993C254.551 333.993 238.019 330.661 222.64 323.997C204.186 315.539 190.474 303.621 181.503 288.242C172.532 272.608 168.047 256.204 168.047 239.031C168.047 229.292 169.457 219.68 172.276 210.197C175.095 200.713 179.196 191.871 184.579 183.669C190.218 175.467 197.01 168.162 204.955 161.754C213.157 155.09 222.512 149.836 233.021 145.992Z" fill="#B4D965"/>
<path d="M362.2 250.565L358.581 250.236L358.578 250.271L358.575 250.306L362.2 250.565ZM365.276 244.029L367.641 246.788L367.747 246.698L367.845 246.599L365.276 244.029ZM371.043 240.569L371.924 244.095L375.332 243.243L374.596 239.808L371.043 240.569ZM342.208 185.591L344.639 182.89L344.612 182.866L344.585 182.842L342.208 185.591ZM238.788 166.752L237.426 163.383L237.398 163.395L237.37 163.406L238.788 166.752ZM202.264 194.434L199.379 192.224L199.364 192.243L199.349 192.263L202.264 194.434ZM189.192 244.414L185.571 244.715L185.585 244.891L185.617 245.064L189.192 244.414ZM190.73 253.256L187.146 253.854L187.167 253.981L187.197 254.107L190.73 253.256ZM243.786 308.619L244.811 305.132L244.747 305.114L244.682 305.097L243.786 308.619ZM257.242 311.31L256.841 314.922L256.94 314.933L257.04 314.938L257.242 311.31ZM302.224 308.234L301.445 304.685L301.436 304.687L301.426 304.689L302.224 308.234ZM330.674 297.469L332.487 300.619L332.502 300.61L332.517 300.602L330.674 297.469ZM352.204 278.246L349.32 276.035L349.296 276.066L349.273 276.097L352.204 278.246ZM233.021 145.992L234.269 149.404L234.276 149.402L234.283 149.399L233.021 145.992ZM254.166 140.609L254.68 144.207L254.732 144.199L254.784 144.19L254.166 140.609ZM322.985 147.914L321.595 151.272L321.63 151.286L321.665 151.3L322.985 147.914ZM362.584 175.595L365.301 173.181L365.294 173.174L365.288 173.167L362.584 175.595ZM378.347 199.047L375.097 200.672L375.126 200.73L375.157 200.787L378.347 199.047ZM389.497 225.96L386.013 226.995L386.026 227.038L386.04 227.081L389.497 225.96ZM392.957 331.302L389.431 330.421L389.419 330.471L389.408 330.522L392.957 331.302ZM364.891 389.356L362.168 386.95L364.891 389.356ZM308.375 419.728L309.088 423.292L309.095 423.29L308.375 419.728ZM198.804 383.973L195.722 385.899L195.755 385.951L195.789 386.002L198.804 383.973ZM200.342 371.286L202.573 374.155L202.592 374.139L202.612 374.124L200.342 371.286ZM217.258 372.824L220.293 370.825L220.287 370.817L220.282 370.808L217.258 372.824ZM243.786 395.507L242.354 398.847L242.402 398.868L242.45 398.887L243.786 395.507ZM299.148 400.121L299.81 403.694L299.86 403.685L299.91 403.674L299.148 400.121ZM319.525 393.969L318.239 390.57L318.207 390.582L318.175 390.595L319.525 393.969ZM360.278 359.368L357.162 357.498L357.138 357.537L357.116 357.576L360.278 359.368ZM375.272 306.312L371.65 306.01L371.65 306.018L371.649 306.026L375.272 306.312ZM375.656 280.169H379.29L372.387 278.581L375.656 280.169ZM357.971 303.621L355.545 300.915L357.971 303.621ZM332.981 320.537L334.533 323.823L334.57 323.806L334.606 323.787L332.981 320.537ZM303.377 330.533L302.598 326.984L302.589 326.986L302.58 326.988L303.377 330.533ZM222.64 323.997L221.126 327.301L221.161 327.317L221.196 327.332L222.64 323.997ZM181.503 288.242L178.351 290.051L178.357 290.062L178.364 290.073L181.503 288.242ZM172.276 210.197L168.793 209.161L172.276 210.197ZM184.579 183.669L181.584 181.61L181.562 181.642L181.541 181.675L184.579 183.669ZM204.955 161.754L207.237 164.583L207.247 164.575L204.955 161.754ZM362.2 250.565L365.819 250.894C366.008 248.818 366.704 247.592 367.641 246.788L365.276 244.029L362.911 241.27C360.259 243.543 358.905 246.673 358.581 250.236L362.2 250.565ZM365.276 244.029L367.845 246.599C369.268 245.177 370.63 244.418 371.924 244.095L371.043 240.569L370.161 237.044C367.354 237.745 364.872 239.293 362.706 241.46L365.276 244.029ZM371.043 240.569L374.596 239.808C372.23 228.769 368.677 218.365 363.93 208.607L360.662 210.197L357.394 211.786C361.874 220.995 365.241 230.84 367.489 241.331L371.043 240.569ZM360.662 210.197L363.93 208.607C359.116 198.711 352.683 190.129 344.639 182.89L342.208 185.591L339.777 188.292C347.111 194.893 352.981 202.716 357.394 211.786L360.662 210.197ZM342.208 185.591L344.585 182.842C334.799 174.379 323.944 167.759 312.032 162.994L310.682 166.368L309.332 169.742C320.488 174.204 330.65 180.399 339.831 188.34L342.208 185.591ZM310.682 166.368L312.032 162.994C300.073 158.21 287.697 155.814 274.927 155.814V159.448V163.082C286.763 163.082 298.224 165.299 309.332 169.742L310.682 166.368ZM274.927 159.448V155.814C262.378 155.814 249.871 158.352 237.426 163.383L238.788 166.752L240.15 170.122C251.798 165.413 263.383 163.082 274.927 163.082V159.448ZM238.788 166.752L237.37 163.406C221.718 170.039 209.02 179.637 199.379 192.224L202.264 194.434L205.149 196.643C213.962 185.137 225.614 176.282 240.206 170.099L238.788 166.752ZM202.264 194.434L199.349 192.263C189.9 204.953 185.174 219.431 185.174 235.571H188.808H192.442C192.442 220.955 196.687 208.007 205.179 196.604L202.264 194.434ZM188.808 235.571H185.174C185.174 238.5 185.307 241.549 185.571 244.715L189.192 244.414L192.814 244.112C192.565 241.127 192.442 238.281 192.442 235.571H188.808ZM189.192 244.414L185.617 245.064C186.126 247.864 186.636 250.794 187.146 253.854L190.73 253.256L194.315 252.659C193.799 249.567 193.284 246.602 192.768 243.764L189.192 244.414ZM190.73 253.256L187.197 254.107C190.663 268.503 197.09 280.86 206.511 291.089L209.184 288.627L211.857 286.165C203.337 276.914 197.462 265.691 194.263 252.406L190.73 253.256ZM209.184 288.627L206.511 291.089C216.006 301.397 228.18 308.396 242.889 312.141L243.786 308.619L244.682 305.097C231.198 301.665 220.304 295.336 211.857 286.165L209.184 288.627ZM243.786 308.619L242.76 312.105C247.326 313.448 252.02 314.386 256.841 314.922L257.242 311.31L257.643 307.698C253.236 307.209 248.96 306.353 244.811 305.132L243.786 308.619ZM257.242 311.31L257.04 314.938C261.728 315.199 266.665 315.329 271.852 315.329V311.694V308.06C266.785 308.06 261.983 307.934 257.444 307.682L257.242 311.31ZM271.852 311.694V315.329C282.129 315.329 292.521 314.142 303.022 311.78L302.224 308.234L301.426 304.689C291.422 306.94 281.566 308.06 271.852 308.06V311.694ZM302.224 308.234L303.003 311.784C313.838 309.405 323.676 305.692 332.487 300.619L330.674 297.469L328.861 294.32C320.756 298.986 311.627 302.45 301.445 304.685L302.224 308.234ZM330.674 297.469L332.517 300.602C341.631 295.24 349.186 288.507 355.134 280.395L352.204 278.246L349.273 276.097C343.944 283.364 337.146 289.446 328.832 294.337L330.674 297.469ZM352.204 278.246L355.088 280.457C361.464 272.141 365.011 262.214 365.825 250.824L362.2 250.565L358.575 250.306C357.851 260.446 354.734 268.973 349.32 276.035L352.204 278.246ZM233.021 145.992L234.283 149.399C240.966 146.924 247.764 145.195 254.68 144.207L254.166 140.609L253.652 137.012C246.216 138.074 238.917 139.933 231.759 142.584L233.021 145.992ZM254.166 140.609L254.784 144.19C262.016 142.943 269.242 142.321 276.465 142.321V138.687V135.053C268.822 135.053 261.183 135.712 253.549 137.028L254.166 140.609ZM276.465 138.687V142.321C292.137 142.321 307.172 145.303 321.595 151.272L322.985 147.914L324.374 144.556C309.066 138.222 293.087 135.053 276.465 135.053V138.687ZM322.985 147.914L321.665 151.3C336.236 156.98 348.967 165.87 359.881 178.023L362.584 175.595L365.288 173.167C353.646 160.202 339.978 150.638 324.305 144.528L322.985 147.914ZM362.584 175.595L359.868 178.009C365.797 184.679 370.875 192.228 375.097 200.672L378.347 199.047L381.598 197.422C377.105 188.437 371.675 180.352 365.301 173.181L362.584 175.595ZM378.347 199.047L375.157 200.787C379.645 209.016 383.265 217.75 386.013 226.995L389.497 225.96L392.98 224.924C390.09 215.203 386.277 205.995 381.538 197.307L378.347 199.047ZM389.497 225.96L386.04 227.081C389.045 236.347 391.175 245.866 392.428 255.641L396.033 255.179L399.637 254.716C398.327 244.499 396.1 234.539 392.954 224.838L389.497 225.96ZM396.033 255.179L392.428 255.641C393.69 265.485 394.321 275.326 394.321 285.167H397.955H401.589C401.589 275.015 400.938 264.864 399.637 254.716L396.033 255.179ZM397.955 285.167H394.321C394.321 293.255 393.942 301.08 393.186 308.642L396.802 309.003L400.418 309.365C401.199 301.548 401.589 293.482 401.589 285.167H397.955ZM396.802 309.003L393.186 308.642C392.433 316.163 391.181 323.422 389.431 330.421L392.957 331.302L396.482 332.183C398.321 324.829 399.632 317.222 400.418 309.365L396.802 309.003ZM392.957 331.302L389.408 330.522C384.392 353.342 375.28 372.105 362.168 386.95L364.891 389.356L367.615 391.762C381.671 375.849 391.269 355.91 396.506 332.082L392.957 331.302ZM364.891 389.356L362.168 386.95C349.205 401.624 331.131 411.421 307.655 416.166L308.375 419.728L309.095 423.29C333.806 418.295 353.409 407.844 367.615 391.762L364.891 389.356ZM308.375 419.728L307.663 416.165C302.639 417.169 297.752 417.921 293.001 418.421L293.381 422.035L293.762 425.649C298.75 425.124 303.859 424.337 309.088 423.292L308.375 419.728ZM293.381 422.035L293.001 418.421C288.263 418.92 283.392 419.17 278.387 419.17V422.804V426.438C283.635 426.438 288.76 426.176 293.762 425.649L293.381 422.035ZM278.387 422.804V419.17C262.958 419.17 248.579 416.31 235.214 410.618L233.79 413.961L232.366 417.305C246.682 423.402 262.035 426.438 278.387 426.438V422.804ZM233.79 413.961L235.214 410.618C222.101 405.033 210.963 395.537 201.819 381.945L198.804 383.973L195.789 386.002C205.612 400.604 217.798 411.1 232.366 417.305L233.79 413.961ZM198.804 383.973L201.885 382.047C200.843 380.379 200.516 379.121 200.516 378.206H196.882H193.247C193.247 380.88 194.201 383.466 195.722 385.899L198.804 383.973ZM196.882 378.206H200.516C200.516 376.555 201.114 375.29 202.573 374.155L200.342 371.286L198.111 368.417C194.956 370.871 193.247 374.219 193.247 378.206H196.882ZM200.342 371.286L202.612 374.124C204.641 372.5 206.553 371.844 208.415 371.844V368.21V364.576C204.639 364.576 201.168 365.971 198.071 368.448L200.342 371.286ZM208.415 368.21V371.844C211.103 371.844 212.89 372.823 214.234 374.84L217.258 372.824L220.282 370.808C217.526 366.674 213.417 364.576 208.415 364.576V368.21ZM217.258 372.824L214.223 374.823C221.504 385.879 230.886 393.932 242.354 398.847L243.786 395.507L245.217 392.167C235.156 387.855 226.852 380.785 220.293 370.825L217.258 372.824ZM243.786 395.507L242.45 398.887C253.903 403.415 265.891 405.677 278.387 405.677V402.043V398.409C266.791 398.409 255.711 396.314 245.122 392.128L243.786 395.507ZM278.387 402.043V405.677C285.533 405.677 292.675 405.015 299.81 403.694L299.148 400.121L298.487 396.547C291.781 397.789 285.082 398.409 278.387 398.409V402.043ZM299.148 400.121L299.91 403.674C307.275 402.096 314.264 399.987 320.874 397.343L319.525 393.969L318.175 390.595C311.97 393.077 305.375 395.07 298.387 396.567L299.148 400.121ZM319.525 393.969L320.811 397.368C330.649 393.645 339.117 388.691 346.154 382.466L343.746 379.744L341.338 377.022C335.047 382.588 327.367 387.116 318.239 390.57L319.525 393.969ZM343.746 379.744L346.154 382.466C353.117 376.307 358.883 369.201 363.439 361.159L360.278 359.368L357.116 357.576C352.958 364.913 347.703 371.392 341.338 377.022L343.746 379.744ZM360.278 359.368L363.394 361.237C368.194 353.238 371.787 344.582 374.178 335.283L370.658 334.378L367.139 333.473C364.916 342.115 361.589 350.119 357.162 357.498L360.278 359.368ZM370.658 334.378L374.178 335.283C376.539 326.098 378.11 316.535 378.894 306.598L375.272 306.312L371.649 306.026C370.896 315.568 369.39 324.716 367.139 333.473L370.658 334.378ZM375.272 306.312L378.893 306.614C379.158 303.438 379.29 300.262 379.29 297.085H375.656H372.022C372.022 300.06 371.898 303.035 371.65 306.01L375.272 306.312ZM375.656 297.085H379.29C379.29 297.078 379.29 297.072 379.29 297.065C379.29 297.059 379.29 297.052 379.29 297.046C379.29 297.039 379.29 297.033 379.29 297.026C379.29 297.02 379.29 297.013 379.29 297.007C379.29 297 379.29 296.994 379.29 296.987C379.29 296.981 379.29 296.974 379.29 296.968C379.29 296.961 379.29 296.955 379.29 296.948C379.29 296.942 379.29 296.935 379.29 296.929C379.29 296.922 379.29 296.916 379.29 296.909C379.29 296.903 379.29 296.896 379.29 296.89C379.29 296.883 379.29 296.876 379.29 296.87C379.29 296.863 379.29 296.857 379.29 296.85C379.29 296.844 379.29 296.837 379.29 296.831C379.29 296.824 379.29 296.818 379.29 296.811C379.29 296.805 379.29 296.798 379.29 296.792C379.29 296.785 379.29 296.779 379.29 296.772C379.29 296.766 379.29 296.759 379.29 296.753C379.29 296.746 379.29 296.74 379.29 296.733C379.29 296.726 379.29 296.72 379.29 296.713C379.29 296.707 379.29 296.7 379.29 296.694C379.29 296.687 379.29 296.681 379.29 296.674C379.29 296.668 379.29 296.661 379.29 296.655C379.29 296.648 379.29 296.642 379.29 296.635C379.29 296.629 379.29 296.622 379.29 296.616C379.29 296.609 379.29 296.602 379.29 296.596C379.29 296.589 379.29 296.583 379.29 296.576C379.29 296.57 379.29 296.563 379.29 296.557C379.29 296.55 379.29 296.544 379.29 296.537C379.29 296.531 379.29 296.524 379.29 296.517C379.29 296.511 379.29 296.504 379.29 296.498C379.29 296.491 379.29 296.485 379.29 296.478C379.29 296.472 379.29 296.465 379.29 296.459C379.29 296.452 379.29 296.446 379.29 296.439C379.29 296.433 379.29 296.426 379.29 296.419C379.29 296.413 379.29 296.406 379.29 296.4C379.29 296.393 379.29 296.387 379.29 296.38C379.29 296.374 379.29 296.367 379.29 296.361C379.29 296.354 379.29 296.347 379.29 296.341C379.29 296.334 379.29 296.328 379.29 296.321C379.29 296.315 379.29 296.308 379.29 296.302C379.29 296.295 379.29 296.289 379.29 296.282C379.29 296.275 379.29 296.269 379.29 296.262C379.29 296.256 379.29 296.249 379.29 296.243C379.29 296.236 379.29 296.23 379.29 296.223C379.29 296.216 379.29 296.21 379.29 296.203C379.29 296.197 379.29 296.19 379.29 296.184C379.29 296.177 379.29 296.171 379.29 296.164C379.29 296.158 379.29 296.151 379.29 296.144C379.29 296.138 379.29 296.131 379.29 296.125C379.29 296.118 379.29 296.112 379.29 296.105C379.29 296.099 379.29 296.092 379.29 296.085C379.29 296.079 379.29 296.072 379.29 296.066C379.29 296.059 379.29 296.053 379.29 296.046C379.29 296.039 379.29 296.033 379.29 296.026C379.29 296.02 379.29 296.013 379.29 296.007C379.29 296 379.29 295.994 379.29 295.987C379.29 295.98 379.29 295.974 379.29 295.967C379.29 295.961 379.29 295.954 379.29 295.948C379.29 295.941 379.29 295.934 379.29 295.928C379.29 295.921 379.29 295.915 379.29 295.908C379.29 295.902 379.29 295.895 379.29 295.889C379.29 295.882 379.29 295.875 379.29 295.869C379.29 295.862 379.29 295.856 379.29 295.849C379.29 295.843 379.29 295.836 379.29 295.829C379.29 295.823 379.29 295.816 379.29 295.81C379.29 295.803 379.29 295.797 379.29 295.79C379.29 295.783 379.29 295.777 379.29 295.77C379.29 295.764 379.29 295.757 379.29 295.751C379.29 295.744 379.29 295.737 379.29 295.731C379.29 295.724 379.29 295.718 379.29 295.711C379.29 295.705 379.29 295.698 379.29 295.691C379.29 295.685 379.29 295.678 379.29 295.672C379.29 295.665 379.29 295.658 379.29 295.652C379.29 295.645 379.29 295.639 379.29 295.632C379.29 295.626 379.29 295.619 379.29 295.612C379.29 295.606 379.29 295.599 379.29 295.593C379.29 295.586 379.29 295.579 379.29 295.573C379.29 295.566 379.29 295.56 379.29 295.553C379.29 295.547 379.29 295.54 379.29 295.533C379.29 295.527 379.29 295.52 379.29 295.514C379.29 295.507 379.29 295.5 379.29 295.494C379.29 295.487 379.29 295.481 379.29 295.474C379.29 295.468 379.29 295.461 379.29 295.454C379.29 295.448 379.29 295.441 379.29 295.435C379.29 295.428 379.29 295.421 379.29 295.415C379.29 295.408 379.29 295.402 379.29 295.395C379.29 295.388 379.29 295.382 379.29 295.375C379.29 295.369 379.29 295.362 379.29 295.355C379.29 295.349 379.29 295.342 379.29 295.336C379.29 295.329 379.29 295.323 379.29 295.316C379.29 295.309 379.29 295.303 379.29 295.296C379.29 295.29 379.29 295.283 379.29 295.276C379.29 295.27 379.29 295.263 379.29 295.257C379.29 295.25 379.29 295.243 379.29 295.237C379.29 295.23 379.29 295.224 379.29 295.217C379.29 295.21 379.29 295.204 379.29 295.197C379.29 295.191 379.29 295.184 379.29 295.177C379.29 295.171 379.29 295.164 379.29 295.158C379.29 295.151 379.29 295.144 379.29 295.138C379.29 295.131 379.29 295.125 379.29 295.118C379.29 295.111 379.29 295.105 379.29 295.098C379.29 295.091 379.29 295.085 379.29 295.078C379.29 295.072 379.29 295.065 379.29 295.058C379.29 295.052 379.29 295.045 379.29 295.039C379.29 295.032 379.29 295.025 379.29 295.019C379.29 295.012 379.29 295.006 379.29 294.999C379.29 294.992 379.29 294.986 379.29 294.979C379.29 294.973 379.29 294.966 379.29 294.959C379.29 294.953 379.29 294.946 379.29 294.939C379.29 294.933 379.29 294.926 379.29 294.92C379.29 294.913 379.29 294.906 379.29 294.9C379.29 294.893 379.29 294.887 379.29 294.88C379.29 294.873 379.29 294.867 379.29 294.86C379.29 294.853 379.29 294.847 379.29 294.84C379.29 294.834 379.29 294.827 379.29 294.82C379.29 294.814 379.29 294.807 379.29 294.8C379.29 294.794 379.29 294.787 379.29 294.781C379.29 294.774 379.29 294.767 379.29 294.761C379.29 294.754 379.29 294.747 379.29 294.741C379.29 294.734 379.29 294.728 379.29 294.721C379.29 294.714 379.29 294.708 379.29 294.701C379.29 294.694 379.29 294.688 379.29 294.681C379.29 294.675 379.29 294.668 379.29 294.661C379.29 294.655 379.29 294.648 379.29 294.641C379.29 294.635 379.29 294.628 379.29 294.622C379.29 294.615 379.29 294.608 379.29 294.602C379.29 294.595 379.29 294.588 379.29 294.582C379.29 294.575 379.29 294.569 379.29 294.562C379.29 294.555 379.29 294.549 379.29 294.542C379.29 294.535 379.29 294.529 379.29 294.522C379.29 294.515 379.29 294.509 379.29 294.502C379.29 294.496 379.29 294.489 379.29 294.482C379.29 294.476 379.29 294.469 379.29 294.462C379.29 294.456 379.29 294.449 379.29 294.442C379.29 294.436 379.29 294.429 379.29 294.423C379.29 294.416 379.29 294.409 379.29 294.403C379.29 294.396 379.29 294.389 379.29 294.383C379.29 294.376 379.29 294.369 379.29 294.363C379.29 294.356 379.29 294.349 379.29 294.343C379.29 294.336 379.29 294.33 379.29 294.323C379.29 294.316 379.29 294.31 379.29 294.303C379.29 294.296 379.29 294.29 379.29 294.283C379.29 294.276 379.29 294.27 379.29 294.263C379.29 294.256 379.29 294.25 379.29 294.243C379.29 294.236 379.29 294.23 379.29 294.223C379.29 294.217 379.29 294.21 379.29 294.203C379.29 294.197 379.29 294.19 379.29 294.183C379.29 294.177 379.29 294.17 379.29 294.163C379.29 294.157 379.29 294.15 379.29 294.143C379.29 294.137 379.29 294.13 379.29 294.123C379.29 294.117 379.29 294.11 379.29 294.103C379.29 294.097 379.29 294.09 379.29 294.083C379.29 294.077 379.29 294.07 379.29 294.063C379.29 294.057 379.29 294.05 379.29 294.044C379.29 294.037 379.29 294.03 379.29 294.024C379.29 294.017 379.29 294.01 379.29 294.004C379.29 293.997 379.29 293.99 379.29 293.984C379.29 293.977 379.29 293.97 379.29 293.964C379.29 293.957 379.29 293.95 379.29 293.944C379.29 293.937 379.29 293.93 379.29 293.924C379.29 293.917 379.29 293.91 379.29 293.904C379.29 293.897 379.29 293.89 379.29 293.884C379.29 293.877 379.29 293.87 379.29 293.864C379.29 293.857 379.29 293.85 379.29 293.844C379.29 293.837 379.29 293.83 379.29 293.824C379.29 293.817 379.29 293.81 379.29 293.804C379.29 293.797 379.29 293.79 379.29 293.784C379.29 293.777 379.29 293.77 379.29 293.764C379.29 293.757 379.29 293.75 379.29 293.744C379.29 293.737 379.29 293.73 379.29 293.724C379.29 293.717 379.29 293.71 379.29 293.704C379.29 293.697 379.29 293.69 379.29 293.683C379.29 293.677 379.29 293.67 379.29 293.663C379.29 293.657 379.29 293.65 379.29 293.643C379.29 293.637 379.29 293.63 379.29 293.623C379.29 293.617 379.29 293.61 379.29 293.603C379.29 293.597 379.29 293.59 379.29 293.583C379.29 293.577 379.29 293.57 379.29 293.563C379.29 293.557 379.29 293.55 379.29 293.543C379.29 293.537 379.29 293.53 379.29 293.523C379.29 293.516 379.29 293.51 379.29 293.503C379.29 293.496 379.29 293.49 379.29 293.483C379.29 293.476 379.29 293.47 379.29 293.463C379.29 293.456 379.29 293.45 379.29 293.443C379.29 293.436 379.29 293.43 379.29 293.423C379.29 293.416 379.29 293.41 379.29 293.403C379.29 293.396 379.29 293.389 379.29 293.383C379.29 293.376 379.29 293.369 379.29 293.363C379.29 293.356 379.29 293.349 379.29 293.343C379.29 293.336 379.29 293.329 379.29 293.323C379.29 293.316 379.29 293.309 379.29 293.302C379.29 293.296 379.29 293.289 379.29 293.282C379.29 293.276 379.29 293.269 379.29 293.262C379.29 293.256 379.29 293.249 379.29 293.242C379.29 293.235 379.29 293.229 379.29 293.222C379.29 293.215 379.29 293.209 379.29 293.202C379.29 293.195 379.29 293.189 379.29 293.182C379.29 293.175 379.29 293.168 379.29 293.162C379.29 293.155 379.29 293.148 379.29 293.142C379.29 293.135 379.29 293.128 379.29 293.122C379.29 293.115 379.29 293.108 379.29 293.101C379.29 293.095 379.29 293.088 379.29 293.081C379.29 293.075 379.29 293.068 379.29 293.061C379.29 293.055 379.29 293.048 379.29 293.041C379.29 293.034 379.29 293.028 379.29 293.021C379.29 293.014 379.29 293.008 379.29 293.001C379.29 292.994 379.29 292.987 379.29 292.981C379.29 292.974 379.29 292.967 379.29 292.961C379.29 292.954 379.29 292.947 379.29 292.94C379.29 292.934 379.29 292.927 379.29 292.92C379.29 292.914 379.29 292.907 379.29 292.9C379.29 292.893 379.29 292.887 379.29 292.88C379.29 292.873 379.29 292.867 379.29 292.86C379.29 292.853 379.29 292.846 379.29 292.84C379.29 292.833 379.29 292.826 379.29 292.82C379.29 292.813 379.29 292.806 379.29 292.799C379.29 292.793 379.29 292.786 379.29 292.779C379.29 292.773 379.29 292.766 379.29 292.759C379.29 292.752 379.29 292.746 379.29 292.739C379.29 292.732 379.29 292.725 379.29 292.719C379.29 292.712 379.29 292.705 379.29 292.699C379.29 292.692 379.29 292.685 379.29 292.678C379.29 292.672 379.29 292.665 379.29 292.658C379.29 292.652 379.29 292.645 379.29 292.638C379.29 292.631 379.29 292.625 379.29 292.618C379.29 292.611 379.29 292.604 379.29 292.598C379.29 292.591 379.29 292.584 379.29 292.578C379.29 292.571 379.29 292.564 379.29 292.557C379.29 292.551 379.29 292.544 379.29 292.537C379.29 292.53 379.29 292.524 379.29 292.517C379.29 292.51 379.29 292.503 379.29 292.497C379.29 292.49 379.29 292.483 379.29 292.477C379.29 292.47 379.29 292.463 379.29 292.456C379.29 292.45 379.29 292.443 379.29 292.436C379.29 292.429 379.29 292.423 379.29 292.416C379.29 292.409 379.29 292.402 379.29 292.396C379.29 292.389 379.29 292.382 379.29 292.375C379.29 292.369 379.29 292.362 379.29 292.355C379.29 292.349 379.29 292.342 379.29 292.335C379.29 292.328 379.29 292.322 379.29 292.315C379.29 292.308 379.29 292.301 379.29 292.295C379.29 292.288 379.29 292.281 379.29 292.274C379.29 292.268 379.29 292.261 379.29 292.254C379.29 292.247 379.29 292.241 379.29 292.234C379.29 292.227 379.29 292.22 379.29 292.214C379.29 292.207 379.29 292.2 379.29 292.193C379.29 292.187 379.29 292.18 379.29 292.173C379.29 292.166 379.29 292.16 379.29 292.153C379.29 292.146 379.29 292.139 379.29 292.133C379.29 292.126 379.29 292.119 379.29 292.112C379.29 292.106 379.29 292.099 379.29 292.092C379.29 292.085 379.29 292.079 379.29 292.072C379.29 292.065 379.29 292.058 379.29 292.052C379.29 292.045 379.29 292.038 379.29 292.031C379.29 292.025 379.29 292.018 379.29 292.011C379.29 292.004 379.29 291.998 379.29 291.991C379.29 291.984 379.29 291.977 379.29 291.971C379.29 291.964 379.29 291.957 379.29 291.95C379.29 291.943 379.29 291.937 379.29 291.93C379.29 291.923 379.29 291.916 379.29 291.91C379.29 291.903 379.29 291.896 379.29 291.889C379.29 291.883 379.29 291.876 379.29 291.869C379.29 291.862 379.29 291.856 379.29 291.849C379.29 291.842 379.29 291.835 379.29 291.829C379.29 291.822 379.29 291.815 379.29 291.808C379.29 291.801 379.29 291.795 379.29 291.788C379.29 291.781 379.29 291.774 379.29 291.768C379.29 291.761 379.29 291.754 379.29 291.747C379.29 291.741 379.29 291.734 379.29 291.727C379.29 291.72 379.29 291.713 379.29 291.707C379.29 291.7 379.29 291.693 379.29 291.686C379.29 291.68 379.29 291.673 379.29 291.666C379.29 291.659 379.29 291.652 379.29 291.646C379.29 291.639 379.29 291.632 379.29 291.625C379.29 291.619 379.29 291.612 379.29 291.605C379.29 291.598 379.29 291.592 379.29 291.585C379.29 291.578 379.29 291.571 379.29 291.564C379.29 291.558 379.29 291.551 379.29 291.544C379.29 291.537 379.29 291.53 379.29 291.524C379.29 291.517 379.29 291.51 379.29 291.503C379.29 291.497 379.29 291.49 379.29 291.483C379.29 291.476 379.29 291.469 379.29 291.463C379.29 291.456 379.29 291.449 379.29 291.442C379.29 291.436 379.29 291.429 379.29 291.422C379.29 291.415 379.29 291.408 379.29 291.402C379.29 291.395 379.29 291.388 379.29 291.381C379.29 291.374 379.29 291.368 379.29 291.361C379.29 291.354 379.29 291.347 379.29 291.341C379.29 291.334 379.29 291.327 379.29 291.32C379.29 291.313 379.29 291.307 379.29 291.3C379.29 291.293 379.29 291.286 379.29 291.279C379.29 291.273 379.29 291.266 379.29 291.259C379.29 291.252 379.29 291.245 379.29 291.239C379.29 291.232 379.29 291.225 379.29 291.218C379.29 291.211 379.29 291.205 379.29 291.198C379.29 291.191 379.29 291.184 379.29 291.177C379.29 291.171 379.29 291.164 379.29 291.157C379.29 291.15 379.29 291.143 379.29 291.137C379.29 291.13 379.29 291.123 379.29 291.116C379.29 291.109 379.29 291.103 379.29 291.096C379.29 291.089 379.29 291.082 379.29 291.075C379.29 291.069 379.29 291.062 379.29 291.055C379.29 291.048 379.29 291.041 379.29 291.035C379.29 291.028 379.29 291.021 379.29 291.014C379.29 291.007 379.29 291.001 379.29 290.994C379.29 290.987 379.29 290.98 379.29 290.973C379.29 290.967 379.29 290.96 379.29 290.953C379.29 290.946 379.29 290.939 379.29 290.933C379.29 290.926 379.29 290.919 379.29 290.912C379.29 290.905 379.29 290.899 379.29 290.892C379.29 290.885 379.29 290.878 379.29 290.871C379.29 290.864 379.29 290.858 379.29 290.851C379.29 290.844 379.29 290.837 379.29 290.83C379.29 290.824 379.29 290.817 379.29 290.81C379.29 290.803 379.29 290.796 379.29 290.79C379.29 290.783 379.29 290.776 379.29 290.769C379.29 290.762 379.29 290.755 379.29 290.749C379.29 290.742 379.29 290.735 379.29 290.728C379.29 290.721 379.29 290.715 379.29 290.708C379.29 290.701 379.29 290.694 379.29 290.687C379.29 290.68 379.29 290.674 379.29 290.667C379.29 290.66 379.29 290.653 379.29 290.646C379.29 290.639 379.29 290.633 379.29 290.626C379.29 290.619 379.29 290.612 379.29 290.605C379.29 290.599 379.29 290.592 379.29 290.585C379.29 290.578 379.29 290.571 379.29 290.564C379.29 290.558 379.29 290.551 379.29 290.544C379.29 290.537 379.29 290.53 379.29 290.523C379.29 290.517 379.29 290.51 379.29 290.503C379.29 290.496 379.29 290.489 379.29 290.482C379.29 290.476 379.29 290.469 379.29 290.462C379.29 290.455 379.29 290.448 379.29 290.441C379.29 290.435 379.29 290.428 379.29 290.421C379.29 290.414 379.29 290.407 379.29 290.4C379.29 290.394 379.29 290.387 379.29 290.38C379.29 290.373 379.29 290.366 379.29 290.359C379.29 290.353 379.29 290.346 379.29 290.339C379.29 290.332 379.29 290.325 379.29 290.318C379.29 290.312 379.29 290.305 379.29 290.298C379.29 290.291 379.29 290.284 379.29 290.277C379.29 290.271 379.29 290.264 379.29 290.257C379.29 290.25 379.29 290.243 379.29 290.236C379.29 290.23 379.29 290.223 379.29 290.216C379.29 290.209 379.29 290.202 379.29 290.195C379.29 290.188 379.29 290.182 379.29 290.175C379.29 290.168 379.29 290.161 379.29 290.154C379.29 290.147 379.29 290.141 379.29 290.134C379.29 290.127 379.29 290.12 379.29 290.113C379.29 290.106 379.29 290.099 379.29 290.093C379.29 290.086 379.29 290.079 379.29 290.072C379.29 290.065 379.29 290.058 379.29 290.051C379.29 290.045 379.29 290.038 379.29 290.031C379.29 290.024 379.29 290.017 379.29 290.01C379.29 290.004 379.29 289.997 379.29 289.99C379.29 289.983 379.29 289.976 379.29 289.969C379.29 289.962 379.29 289.956 379.29 289.949C379.29 289.942 379.29 289.935 379.29 289.928C379.29 289.921 379.29 289.914 379.29 289.908C379.29 289.901 379.29 289.894 379.29 289.887C379.29 289.88 379.29 289.873 379.29 289.866C379.29 289.86 379.29 289.853 379.29 289.846C379.29 289.839 379.29 289.832 379.29 289.825C379.29 289.818 379.29 289.812 379.29 289.805C379.29 289.798 379.29 289.791 379.29 289.784C379.29 289.777 379.29 289.77 379.29 289.763C379.29 289.757 379.29 289.75 379.29 289.743C379.29 289.736 379.29 289.729 379.29 289.722C379.29 289.715 379.29 289.709 379.29 289.702C379.29 289.695 379.29 289.688 379.29 289.681C379.29 289.674 379.29 289.667 379.29 289.66C379.29 289.654 379.29 289.647 379.29 289.64C379.29 289.633 379.29 289.626 379.29 289.619C379.29 289.612 379.29 289.605 379.29 289.599C379.29 289.592 379.29 289.585 379.29 289.578C379.29 289.571 379.29 289.564 379.29 289.557C379.29 289.551 379.29 289.544 379.29 289.537C379.29 289.53 379.29 289.523 379.29 289.516C379.29 289.509 379.29 289.502 379.29 289.495C379.29 289.489 379.29 289.482 379.29 289.475C379.29 289.468 379.29 289.461 379.29 289.454C379.29 289.447 379.29 289.44 379.29 289.434C379.29 289.427 379.29 289.42 379.29 289.413C379.29 289.406 379.29 289.399 379.29 289.392C379.29 289.385 379.29 289.379 379.29 289.372C379.29 289.365 379.29 289.358 379.29 289.351C379.29 289.344 379.29 289.337 379.29 289.33C379.29 289.323 379.29 289.317 379.29 289.31C379.29 289.303 379.29 289.296 379.29 289.289C379.29 289.282 379.29 289.275 379.29 289.268C379.29 289.261 379.29 289.255 379.29 289.248C379.29 289.241 379.29 289.234 379.29 289.227C379.29 289.22 379.29 289.213 379.29 289.206C379.29 289.199 379.29 289.193 379.29 289.186C379.29 289.179 379.29 289.172 379.29 289.165C379.29 289.158 379.29 289.151 379.29 289.144C379.29 289.137 379.29 289.131 379.29 289.124C379.29 289.117 379.29 289.11 379.29 289.103C379.29 289.096 379.29 289.089 379.29 289.082C379.29 289.075 379.29 289.068 379.29 289.062C379.29 289.055 379.29 289.048 379.29 289.041C379.29 289.034 379.29 289.027 379.29 289.02C379.29 289.013 379.29 289.006 379.29 288.999C379.29 288.993 379.29 288.986 379.29 288.979C379.29 288.972 379.29 288.965 379.29 288.958C379.29 288.951 379.29 288.944 379.29 288.937C379.29 288.93 379.29 288.924 379.29 288.917C379.29 288.91 379.29 288.903 379.29 288.896C379.29 288.889 379.29 288.882 379.29 288.875C379.29 288.868 379.29 288.861 379.29 288.854C379.29 288.848 379.29 288.841 379.29 288.834C379.29 288.827 379.29 288.82 379.29 288.813C379.29 288.806 379.29 288.799 379.29 288.792C379.29 288.785 379.29 288.778 379.29 288.772C379.29 288.765 379.29 288.758 379.29 288.751C379.29 288.744 379.29 288.737 379.29 288.73C379.29 288.723 379.29 288.716 379.29 288.709C379.29 288.702 379.29 288.696 379.29 288.689C379.29 288.682 379.29 288.675 379.29 288.668C379.29 288.661 379.29 288.654 379.29 288.647C379.29 288.64 379.29 288.633 379.29 288.626C379.29 288.619 379.29 288.613 379.29 288.606C379.29 288.599 379.29 288.592 379.29 288.585C379.29 288.578 379.29 288.571 379.29 288.564C379.29 288.557 379.29 288.55 379.29 288.543C379.29 288.536 379.29 288.529 379.29 288.523C379.29 288.516 379.29 288.509 379.29 288.502C379.29 288.495 379.29 288.488 379.29 288.481C379.29 288.474 379.29 288.467 379.29 288.46C379.29 288.453 379.29 288.446 379.29 288.439C379.29 288.433 379.29 288.426 379.29 288.419C379.29 288.412 379.29 288.405 379.29 288.398C379.29 288.391 379.29 288.384 379.29 288.377C379.29 288.37 379.29 288.363 379.29 288.356C379.29 288.349 379.29 288.342 379.29 288.335C379.29 288.329 379.29 288.322 379.29 288.315C379.29 288.308 379.29 288.301 379.29 288.294C379.29 288.287 379.29 288.28 379.29 288.273C379.29 288.266 379.29 288.259 379.29 288.252C379.29 288.245 379.29 288.238 379.29 288.231C379.29 288.225 379.29 288.218 379.29 288.211C379.29 288.204 379.29 288.197 379.29 288.19C379.29 288.183 379.29 288.176 379.29 288.169C379.29 288.162 379.29 288.155 379.29 288.148C379.29 288.141 379.29 288.134 379.29 288.127C379.29 288.12 379.29 288.114 379.29 288.107C379.29 288.1 379.29 288.093 379.29 288.086C379.29 288.079 379.29 288.072 379.29 288.065C379.29 288.058 379.29 288.051 379.29 288.044C379.29 288.037 379.29 288.03 379.29 288.023C379.29 288.016 379.29 288.009 379.29 288.002C379.29 287.995 379.29 287.988 379.29 287.982C379.29 287.975 379.29 287.968 379.29 287.961C379.29 287.954 379.29 287.947 379.29 287.94C379.29 287.933 379.29 287.926 379.29 287.919C379.29 287.912 379.29 287.905 379.29 287.898C379.29 287.891 379.29 287.884 379.29 287.877C379.29 287.87 379.29 287.863 379.29 287.856C379.29 287.849 379.29 287.842 379.29 287.836C379.29 287.829 379.29 287.822 379.29 287.815C379.29 287.808 379.29 287.801 379.29 287.794C379.29 287.787 379.29 287.78 379.29 287.773C379.29 287.766 379.29 287.759 379.29 287.752C379.29 287.745 379.29 287.738 379.29 287.731C379.29 287.724 379.29 287.717 379.29 287.71C379.29 287.703 379.29 287.696 379.29 287.689C379.29 287.682 379.29 287.675 379.29 287.669C379.29 287.662 379.29 287.655 379.29 287.648C379.29 287.641 379.29 287.634 379.29 287.627C379.29 287.62 379.29 287.613 379.29 287.606C379.29 287.599 379.29 287.592 379.29 287.585C379.29 287.578 379.29 287.571 379.29 287.564C379.29 287.557 379.29 287.55 379.29 287.543C379.29 287.536 379.29 287.529 379.29 287.522C379.29 287.515 379.29 287.508 379.29 287.501C379.29 287.494 379.29 287.487 379.29 287.48C379.29 287.473 379.29 287.466 379.29 287.459C379.29 287.452 379.29 287.446 379.29 287.439C379.29 287.432 379.29 287.425 379.29 287.418C379.29 287.411 379.29 287.404 379.29 287.397C379.29 287.39 379.29 287.383 379.29 287.376C379.29 287.369 379.29 287.362 379.29 287.355C379.29 287.348 379.29 287.341 379.29 287.334C379.29 287.327 379.29 287.32 379.29 287.313C379.29 287.306 379.29 287.299 379.29 287.292C379.29 287.285 379.29 287.278 379.29 287.271C379.29 287.264 379.29 287.257 379.29 287.25C379.29 287.243 379.29 287.236 379.29 287.229C379.29 287.222 379.29 287.215 379.29 287.208C379.29 287.201 379.29 287.194 379.29 287.187C379.29 287.18 379.29 287.173 379.29 287.166C379.29 287.159 379.29 287.152 379.29 287.145C379.29 287.138 379.29 287.131 379.29 287.124C379.29 287.117 379.29 287.11 379.29 287.103C379.29 287.096 379.29 287.089 379.29 287.082C379.29 287.075 379.29 287.068 379.29 287.061C379.29 287.054 379.29 287.047 379.29 287.04C379.29 287.033 379.29 287.026 379.29 287.019C379.29 287.013 379.29 287.006 379.29 286.999C379.29 286.992 379.29 286.985 379.29 286.978C379.29 286.971 379.29 286.964 379.29 286.957C379.29 286.95 379.29 286.943 379.29 286.936C379.29 286.929 379.29 286.922 379.29 286.915C379.29 286.908 379.29 286.901 379.29 286.894C379.29 286.887 379.29 286.88 379.29 286.873C379.29 286.866 379.29 286.859 379.29 286.852C379.29 286.845 379.29 286.838 379.29 286.831C379.29 286.824 379.29 286.817 379.29 286.81C379.29 286.803 379.29 286.796 379.29 286.789C379.29 286.782 379.29 286.775 379.29 286.768C379.29 286.761 379.29 286.754 379.29 286.746C379.29 286.739 379.29 286.732 379.29 286.725C379.29 286.718 379.29 286.711 379.29 286.704H375.656H372.022C372.022 286.711 372.022 286.718 372.022 286.725C372.022 286.732 372.022 286.739 372.022 286.746C372.022 286.754 372.022 286.761 372.022 286.768C372.022 286.775 372.022 286.782 372.022 286.789C372.022 286.796 372.022 286.803 372.022 286.81C372.022 286.817 372.022 286.824 372.022 286.831C372.022 286.838 372.022 286.845 372.022 286.852C372.022 286.859 372.022 286.866 372.022 286.873C372.022 286.88 372.022 286.887 372.022 286.894C372.022 286.901 372.022 286.908 372.022 286.915C372.022 286.922 372.022 286.929 372.022 286.936C372.022 286.943 372.022 286.95 372.022 286.957C372.022 286.964 372.022 286.971 372.022 286.978C372.022 286.985 372.022 286.992 372.022 286.999C372.022 287.006 372.022 287.013 372.022 287.019C372.022 287.026 372.022 287.033 372.022 287.04C372.022 287.047 372.022 287.054 372.022 287.061C372.022 287.068 372.022 287.075 372.022 287.082C372.022 287.089 372.022 287.096 372.022 287.103C372.022 287.11 372.022 287.117 372.022 287.124C372.022 287.131 372.022 287.138 372.022 287.145C372.022 287.152 372.022 287.159 372.022 287.166C372.022 287.173 372.022 287.18 372.022 287.187C372.022 287.194 372.022 287.201 372.022 287.208C372.022 287.215 372.022 287.222 372.022 287.229C372.022 287.236 372.022 287.243 372.022 287.25C372.022 287.257 372.022 287.264 372.022 287.271C372.022 287.278 372.022 287.285 372.022 287.292C372.022 287.299 372.022 287.306 372.022 287.313C372.022 287.32 372.022 287.327 372.022 287.334C372.022 287.341 372.022 287.348 372.022 287.355C372.022 287.362 372.022 287.369 372.022 287.376C372.022 287.383 372.022 287.39 372.022 287.397C372.022 287.404 372.022 287.411 372.022 287.418C372.022 287.425 372.022 287.432 372.022 287.439C372.022 287.446 372.022 287.452 372.022 287.459C372.022 287.466 372.022 287.473 372.022 287.48C372.022 287.487 372.022 287.494 372.022 287.501C372.022 287.508 372.022 287.515 372.022 287.522C372.022 287.529 372.022 287.536 372.022 287.543C372.022 287.55 372.022 287.557 372.022 287.564C372.022 287.571 372.022 287.578 372.022 287.585C372.022 287.592 372.022 287.599 372.022 287.606C372.022 287.613 372.022 287.62 372.022 287.627C372.022 287.634 372.022 287.641 372.022 287.648C372.022 287.655 372.022 287.662 372.022 287.669C372.022 287.675 372.022 287.682 372.022 287.689C372.022 287.696 372.022 287.703 372.022 287.71C372.022 287.717 372.022 287.724 372.022 287.731C372.022 287.738 372.022 287.745 372.022 287.752C372.022 287.759 372.022 287.766 372.022 287.773C372.022 287.78 372.022 287.787 372.022 287.794C372.022 287.801 372.022 287.808 372.022 287.815C372.022 287.822 372.022 287.829 372.022 287.836C372.022 287.842 372.022 287.849 372.022 287.856C372.022 287.863 372.022 287.87 372.022 287.877C372.022 287.884 372.022 287.891 372.022 287.898C372.022 287.905 372.022 287.912 372.022 287.919C372.022 287.926 372.022 287.933 372.022 287.94C372.022 287.947 372.022 287.954 372.022 287.961C372.022 287.968 372.022 287.975 372.022 287.982C372.022 287.988 372.022 287.995 372.022 288.002C372.022 288.009 372.022 288.016 372.022 288.023C372.022 288.03 372.022 288.037 372.022 288.044C372.022 288.051 372.022 288.058 372.022 288.065C372.022 288.072 372.022 288.079 372.022 288.086C372.022 288.093 372.022 288.1 372.022 288.107C372.022 288.114 372.022 288.12 372.022 288.127C372.022 288.134 372.022 288.141 372.022 288.148C372.022 288.155 372.022 288.162 372.022 288.169C372.022 288.176 372.022 288.183 372.022 288.19C372.022 288.197 372.022 288.204 372.022 288.211C372.022 288.218 372.022 288.225 372.022 288.231C372.022 288.238 372.022 288.245 372.022 288.252C372.022 288.259 372.022 288.266 372.022 288.273C372.022 288.28 372.022 288.287 372.022 288.294C372.022 288.301 372.022 288.308 372.022 288.315C372.022 288.322 372.022 288.329 372.022 288.335C372.022 288.342 372.022 288.349 372.022 288.356C372.022 288.363 372.022 288.37 372.022 288.377C372.022 288.384 372.022 288.391 372.022 288.398C372.022 288.405 372.022 288.412 372.022 288.419C372.022 288.426 372.022 288.433 372.022 288.439C372.022 288.446 372.022 288.453 372.022 288.46C372.022 288.467 372.022 288.474 372.022 288.481C372.022 288.488 372.022 288.495 372.022 288.502C372.022 288.509 372.022 288.516 372.022 288.523C372.022 288.529 372.022 288.536 372.022 288.543C372.022 288.55 372.022 288.557 372.022 288.564C372.022 288.571 372.022 288.578 372.022 288.585C372.022 288.592 372.022 288.599 372.022 288.606C372.022 288.613 372.022 288.619 372.022 288.626C372.022 288.633 372.022 288.64 372.022 288.647C372.022 288.654 372.022 288.661 372.022 288.668C372.022 288.675 372.022 288.682 372.022 288.689C372.022 288.696 372.022 288.702 372.022 288.709C372.022 288.716 372.022 288.723 372.022 288.73C372.022 288.737 372.022 288.744 372.022 288.751C372.022 288.758 372.022 288.765 372.022 288.772C372.022 288.778 372.022 288.785 372.022 288.792C372.022 288.799 372.022 288.806 372.022 288.813C372.022 288.82 372.022 288.827 372.022 288.834C372.022 288.841 372.022 288.848 372.022 288.854C372.022 288.861 372.022 288.868 372.022 288.875C372.022 288.882 372.022 288.889 372.022 288.896C372.022 288.903 372.022 288.91 372.022 288.917C372.022 288.924 372.022 288.93 372.022 288.937C372.022 288.944 372.022 288.951 372.022 288.958C372.022 288.965 372.022 288.972 372.022 288.979C372.022 288.986 372.022 288.993 372.022 288.999C372.022 289.006 372.022 289.013 372.022 289.02C372.022 289.027 372.022 289.034 372.022 289.041C372.022 289.048 372.022 289.055 372.022 289.062C372.022 289.068 372.022 289.075 372.022 289.082C372.022 289.089 372.022 289.096 372.022 289.103C372.022 289.11 372.022 289.117 372.022 289.124C372.022 289.131 372.022 289.137 372.022 289.144C372.022 289.151 372.022 289.158 372.022 289.165C372.022 289.172 372.022 289.179 372.022 289.186C372.022 289.193 372.022 289.199 372.022 289.206C372.022 289.213 372.022 289.22 372.022 289.227C372.022 289.234 372.022 289.241 372.022 289.248C372.022 289.255 372.022 289.261 372.022 289.268C372.022 289.275 372.022 289.282 372.022 289.289C372.022 289.296 372.022 289.303 372.022 289.31C372.022 289.317 372.022 289.323 372.022 289.33C372.022 289.337 372.022 289.344 372.022 289.351C372.022 289.358 372.022 289.365 372.022 289.372C372.022 289.379 372.022 289.385 372.022 289.392C372.022 289.399 372.022 289.406 372.022 289.413C372.022 289.42 372.022 289.427 372.022 289.434C372.022 289.44 372.022 289.447 372.022 289.454C372.022 289.461 372.022 289.468 372.022 289.475C372.022 289.482 372.022 289.489 372.022 289.495C372.022 289.502 372.022 289.509 372.022 289.516C372.022 289.523 372.022 289.53 372.022 289.537C372.022 289.544 372.022 289.551 372.022 289.557C372.022 289.564 372.022 289.571 372.022 289.578C372.022 289.585 372.022 289.592 372.022 289.599C372.022 289.605 372.022 289.612 372.022 289.619C372.022 289.626 372.022 289.633 372.022 289.64C372.022 289.647 372.022 289.654 372.022 289.66C372.022 289.667 372.022 289.674 372.022 289.681C372.022 289.688 372.022 289.695 372.022 289.702C372.022 289.709 372.022 289.715 372.022 289.722C372.022 289.729 372.022 289.736 372.022 289.743C372.022 289.75 372.022 289.757 372.022 289.763C372.022 289.77 372.022 289.777 372.022 289.784C372.022 289.791 372.022 289.798 372.022 289.805C372.022 289.812 372.022 289.818 372.022 289.825C372.022 289.832 372.022 289.839 372.022 289.846C372.022 289.853 372.022 289.86 372.022 289.866C372.022 289.873 372.022 289.88 372.022 289.887C372.022 289.894 372.022 289.901 372.022 289.908C372.022 289.914 372.022 289.921 372.022 289.928C372.022 289.935 372.022 289.942 372.022 289.949C372.022 289.956 372.022 289.962 372.022 289.969C372.022 289.976 372.022 289.983 372.022 289.99C372.022 289.997 372.022 290.004 372.022 290.01C372.022 290.017 372.022 290.024 372.022 290.031C372.022 290.038 372.022 290.045 372.022 290.051C372.022 290.058 372.022 290.065 372.022 290.072C372.022 290.079 372.022 290.086 372.022 290.093C372.022 290.099 372.022 290.106 372.022 290.113C372.022 290.12 372.022 290.127 372.022 290.134C372.022 290.141 372.022 290.147 372.022 290.154C372.022 290.161 372.022 290.168 372.022 290.175C372.022 290.182 372.022 290.188 372.022 290.195C372.022 290.202 372.022 290.209 372.022 290.216C372.022 290.223 372.022 290.23 372.022 290.236C372.022 290.243 372.022 290.25 372.022 290.257C372.022 290.264 372.022 290.271 372.022 290.277C372.022 290.284 372.022 290.291 372.022 290.298C372.022 290.305 372.022 290.312 372.022 290.318C372.022 290.325 372.022 290.332 372.022 290.339C372.022 290.346 372.022 290.353 372.022 290.359C372.022 290.366 372.022 290.373 372.022 290.38C372.022 290.387 372.022 290.394 372.022 290.4C372.022 290.407 372.022 290.414 372.022 290.421C372.022 290.428 372.022 290.435 372.022 290.441C372.022 290.448 372.022 290.455 372.022 290.462C372.022 290.469 372.022 290.476 372.022 290.482C372.022 290.489 372.022 290.496 372.022 290.503C372.022 290.51 372.022 290.517 372.022 290.523C372.022 290.53 372.022 290.537 372.022 290.544C372.022 290.551 372.022 290.558 372.022 290.564C372.022 290.571 372.022 290.578 372.022 290.585C372.022 290.592 372.022 290.599 372.022 290.605C372.022 290.612 372.022 290.619 372.022 290.626C372.022 290.633 372.022 290.639 372.022 290.646C372.022 290.653 372.022 290.66 372.022 290.667C372.022 290.674 372.022 290.68 372.022 290.687C372.022 290.694 372.022 290.701 372.022 290.708C372.022 290.715 372.022 290.721 372.022 290.728C372.022 290.735 372.022 290.742 372.022 290.749C372.022 290.755 372.022 290.762 372.022 290.769C372.022 290.776 372.022 290.783 372.022 290.79C372.022 290.796 372.022 290.803 372.022 290.81C372.022 290.817 372.022 290.824 372.022 290.83C372.022 290.837 372.022 290.844 372.022 290.851C372.022 290.858 372.022 290.864 372.022 290.871C372.022 290.878 372.022 290.885 372.022 290.892C372.022 290.899 372.022 290.905 372.022 290.912C372.022 290.919 372.022 290.926 372.022 290.933C372.022 290.939 372.022 290.946 372.022 290.953C372.022 290.96 372.022 290.967 372.022 290.973C372.022 290.98 372.022 290.987 372.022 290.994C372.022 291.001 372.022 291.007 372.022 291.014C372.022 291.021 372.022 291.028 372.022 291.035C372.022 291.041 372.022 291.048 372.022 291.055C372.022 291.062 372.022 291.069 372.022 291.075C372.022 291.082 372.022 291.089 372.022 291.096C372.022 291.103 372.022 291.109 372.022 291.116C372.022 291.123 372.022 291.13 372.022 291.137C372.022 291.143 372.022 291.15 372.022 291.157C372.022 291.164 372.022 291.171 372.022 291.177C372.022 291.184 372.022 291.191 372.022 291.198C372.022 291.205 372.022 291.211 372.022 291.218C372.022 291.225 372.022 291.232 372.022 291.239C372.022 291.245 372.022 291.252 372.022 291.259C372.022 291.266 372.022 291.273 372.022 291.279C372.022 291.286 372.022 291.293 372.022 291.3C372.022 291.307 372.022 291.313 372.022 291.32C372.022 291.327 372.022 291.334 372.022 291.341C372.022 291.347 372.022 291.354 372.022 291.361C372.022 291.368 372.022 291.374 372.022 291.381C372.022 291.388 372.022 291.395 372.022 291.402C372.022 291.408 372.022 291.415 372.022 291.422C372.022 291.429 372.022 291.436 372.022 291.442C372.022 291.449 372.022 291.456 372.022 291.463C372.022 291.469 372.022 291.476 372.022 291.483C372.022 291.49 372.022 291.497 372.022 291.503C372.022 291.51 372.022 291.517 372.022 291.524C372.022 291.53 372.022 291.537 372.022 291.544C372.022 291.551 372.022 291.558 372.022 291.564C372.022 291.571 372.022 291.578 372.022 291.585C372.022 291.592 372.022 291.598 372.022 291.605C372.022 291.612 372.022 291.619 372.022 291.625C372.022 291.632 372.022 291.639 372.022 291.646C372.022 291.652 372.022 291.659 372.022 291.666C372.022 291.673 372.022 291.68 372.022 291.686C372.022 291.693 372.022 291.7 372.022 291.707C372.022 291.713 372.022 291.72 372.022 291.727C372.022 291.734 372.022 291.741 372.022 291.747C372.022 291.754 372.022 291.761 372.022 291.768C372.022 291.774 372.022 291.781 372.022 291.788C372.022 291.795 372.022 291.801 372.022 291.808C372.022 291.815 372.022 291.822 372.022 291.829C372.022 291.835 372.022 291.842 372.022 291.849C372.022 291.856 372.022 291.862 372.022 291.869C372.022 291.876 372.022 291.883 372.022 291.889C372.022 291.896 372.022 291.903 372.022 291.91C372.022 291.916 372.022 291.923 372.022 291.93C372.022 291.937 372.022 291.943 372.022 291.95C372.022 291.957 372.022 291.964 372.022 291.971C372.022 291.977 372.022 291.984 372.022 291.991C372.022 291.998 372.022 292.004 372.022 292.011C372.022 292.018 372.022 292.025 372.022 292.031C372.022 292.038 372.022 292.045 372.022 292.052C372.022 292.058 372.022 292.065 372.022 292.072C372.022 292.079 372.022 292.085 372.022 292.092C372.022 292.099 372.022 292.106 372.022 292.112C372.022 292.119 372.022 292.126 372.022 292.133C372.022 292.139 372.022 292.146 372.022 292.153C372.022 292.16 372.022 292.166 372.022 292.173C372.022 292.18 372.022 292.187 372.022 292.193C372.022 292.2 372.022 292.207 372.022 292.214C372.022 292.22 372.022 292.227 372.022 292.234C372.022 292.241 372.022 292.247 372.022 292.254C372.022 292.261 372.022 292.268 372.022 292.274C372.022 292.281 372.022 292.288 372.022 292.295C372.022 292.301 372.022 292.308 372.022 292.315C372.022 292.322 372.022 292.328 372.022 292.335C372.022 292.342 372.022 292.349 372.022 292.355C372.022 292.362 372.022 292.369 372.022 292.375C372.022 292.382 372.022 292.389 372.022 292.396C372.022 292.402 372.022 292.409 372.022 292.416C372.022 292.423 372.022 292.429 372.022 292.436C372.022 292.443 372.022 292.45 372.022 292.456C372.022 292.463 372.022 292.47 372.022 292.477C372.022 292.483 372.022 292.49 372.022 292.497C372.022 292.503 372.022 292.51 372.022 292.517C372.022 292.524 372.022 292.53 372.022 292.537C372.022 292.544 372.022 292.551 372.022 292.557C372.022 292.564 372.022 292.571 372.022 292.578C372.022 292.584 372.022 292.591 372.022 292.598C372.022 292.604 372.022 292.611 372.022 292.618C372.022 292.625 372.022 292.631 372.022 292.638C372.022 292.645 372.022 292.652 372.022 292.658C372.022 292.665 372.022 292.672 372.022 292.678C372.022 292.685 372.022 292.692 372.022 292.699C372.022 292.705 372.022 292.712 372.022 292.719C372.022 292.725 372.022 292.732 372.022 292.739C372.022 292.746 372.022 292.752 372.022 292.759C372.022 292.766 372.022 292.773 372.022 292.779C372.022 292.786 372.022 292.793 372.022 292.799C372.022 292.806 372.022 292.813 372.022 292.82C372.022 292.826 372.022 292.833 372.022 292.84C372.022 292.846 372.022 292.853 372.022 292.86C372.022 292.867 372.022 292.873 372.022 292.88C372.022 292.887 372.022 292.893 372.022 292.9C372.022 292.907 372.022 292.914 372.022 292.92C372.022 292.927 372.022 292.934 372.022 292.94C372.022 292.947 372.022 292.954 372.022 292.961C372.022 292.967 372.022 292.974 372.022 292.981C372.022 292.987 372.022 292.994 372.022 293.001C372.022 293.008 372.022 293.014 372.022 293.021C372.022 293.028 372.022 293.034 372.022 293.041C372.022 293.048 372.022 293.055 372.022 293.061C372.022 293.068 372.022 293.075 372.022 293.081C372.022 293.088 372.022 293.095 372.022 293.101C372.022 293.108 372.022 293.115 372.022 293.122C372.022 293.128 372.022 293.135 372.022 293.142C372.022 293.148 372.022 293.155 372.022 293.162C372.022 293.168 372.022 293.175 372.022 293.182C372.022 293.189 372.022 293.195 372.022 293.202C372.022 293.209 372.022 293.215 372.022 293.222C372.022 293.229 372.022 293.235 372.022 293.242C372.022 293.249 372.022 293.256 372.022 293.262C372.022 293.269 372.022 293.276 372.022 293.282C372.022 293.289 372.022 293.296 372.022 293.302C372.022 293.309 372.022 293.316 372.022 293.323C372.022 293.329 372.022 293.336 372.022 293.343C372.022 293.349 372.022 293.356 372.022 293.363C372.022 293.369 372.022 293.376 372.022 293.383C372.022 293.389 372.022 293.396 372.022 293.403C372.022 293.41 372.022 293.416 372.022 293.423C372.022 293.43 372.022 293.436 372.022 293.443C372.022 293.45 372.022 293.456 372.022 293.463C372.022 293.47 372.022 293.476 372.022 293.483C372.022 293.49 372.022 293.496 372.022 293.503C372.022 293.51 372.022 293.516 372.022 293.523C372.022 293.53 372.022 293.537 372.022 293.543C372.022 293.55 372.022 293.557 372.022 293.563C372.022 293.57 372.022 293.577 372.022 293.583C372.022 293.59 372.022 293.597 372.022 293.603C372.022 293.61 372.022 293.617 372.022 293.623C372.022 293.63 372.022 293.637 372.022 293.643C372.022 293.65 372.022 293.657 372.022 293.663C372.022 293.67 372.022 293.677 372.022 293.683C372.022 293.69 372.022 293.697 372.022 293.704C372.022 293.71 372.022 293.717 372.022 293.724C372.022 293.73 372.022 293.737 372.022 293.744C372.022 293.75 372.022 293.757 372.022 293.764C372.022 293.77 372.022 293.777 372.022 293.784C372.022 293.79 372.022 293.797 372.022 293.804C372.022 293.81 372.022 293.817 372.022 293.824C372.022 293.83 372.022 293.837 372.022 293.844C372.022 293.85 372.022 293.857 372.022 293.864C372.022 293.87 372.022 293.877 372.022 293.884C372.022 293.89 372.022 293.897 372.022 293.904C372.022 293.91 372.022 293.917 372.022 293.924C372.022 293.93 372.022 293.937 372.022 293.944C372.022 293.95 372.022 293.957 372.022 293.964C372.022 293.97 372.022 293.977 372.022 293.984C372.022 293.99 372.022 293.997 372.022 294.004C372.022 294.01 372.022 294.017 372.022 294.024C372.022 294.03 372.022 294.037 372.022 294.044C372.022 294.05 372.022 294.057 372.022 294.063C372.022 294.07 372.022 294.077 372.022 294.083C372.022 294.09 372.022 294.097 372.022 294.103C372.022 294.11 372.022 294.117 372.022 294.123C372.022 294.13 372.022 294.137 372.022 294.143C372.022 294.15 372.022 294.157 372.022 294.163C372.022 294.17 372.022 294.177 372.022 294.183C372.022 294.19 372.022 294.197 372.022 294.203C372.022 294.21 372.022 294.217 372.022 294.223C372.022 294.23 372.022 294.236 372.022 294.243C372.022 294.25 372.022 294.256 372.022 294.263C372.022 294.27 372.022 294.276 372.022 294.283C372.022 294.29 372.022 294.296 372.022 294.303C372.022 294.31 372.022 294.316 372.022 294.323C372.022 294.33 372.022 294.336 372.022 294.343C372.022 294.349 372.022 294.356 372.022 294.363C372.022 294.369 372.022 294.376 372.022 294.383C372.022 294.389 372.022 294.396 372.022 294.403C372.022 294.409 372.022 294.416 372.022 294.423C372.022 294.429 372.022 294.436 372.022 294.442C372.022 294.449 372.022 294.456 372.022 294.462C372.022 294.469 372.022 294.476 372.022 294.482C372.022 294.489 372.022 294.496 372.022 294.502C372.022 294.509 372.022 294.515 372.022 294.522C372.022 294.529 372.022 294.535 372.022 294.542C372.022 294.549 372.022 294.555 372.022 294.562C372.022 294.569 372.022 294.575 372.022 294.582C372.022 294.588 372.022 294.595 372.022 294.602C372.022 294.608 372.022 294.615 372.022 294.622C372.022 294.628 372.022 294.635 372.022 294.641C372.022 294.648 372.022 294.655 372.022 294.661C372.022 294.668 372.022 294.675 372.022 294.681C372.022 294.688 372.022 294.694 372.022 294.701C372.022 294.708 372.022 294.714 372.022 294.721C372.022 294.728 372.022 294.734 372.022 294.741C372.022 294.747 372.022 294.754 372.022 294.761C372.022 294.767 372.022 294.774 372.022 294.781C372.022 294.787 372.022 294.794 372.022 294.8C372.022 294.807 372.022 294.814 372.022 294.82C372.022 294.827 372.022 294.834 372.022 294.84C372.022 294.847 372.022 294.853 372.022 294.86C372.022 294.867 372.022 294.873 372.022 294.88C372.022 294.887 372.022 294.893 372.022 294.9C372.022 294.906 372.022 294.913 372.022 294.92C372.022 294.926 372.022 294.933 372.022 294.939C372.022 294.946 372.022 294.953 372.022 294.959C372.022 294.966 372.022 294.973 372.022 294.979C372.022 294.986 372.022 294.992 372.022 294.999C372.022 295.006 372.022 295.012 372.022 295.019C372.022 295.025 372.022 295.032 372.022 295.039C372.022 295.045 372.022 295.052 372.022 295.058C372.022 295.065 372.022 295.072 372.022 295.078C372.022 295.085 372.022 295.091 372.022 295.098C372.022 295.105 372.022 295.111 372.022 295.118C372.022 295.125 372.022 295.131 372.022 295.138C372.022 295.144 372.022 295.151 372.022 295.158C372.022 295.164 372.022 295.171 372.022 295.177C372.022 295.184 372.022 295.191 372.022 295.197C372.022 295.204 372.022 295.21 372.022 295.217C372.022 295.224 372.022 295.23 372.022 295.237C372.022 295.243 372.022 295.25 372.022 295.257C372.022 295.263 372.022 295.27 372.022 295.276C372.022 295.283 372.022 295.29 372.022 295.296C372.022 295.303 372.022 295.309 372.022 295.316C372.022 295.323 372.022 295.329 372.022 295.336C372.022 295.342 372.022 295.349 372.022 295.355C372.022 295.362 372.022 295.369 372.022 295.375C372.022 295.382 372.022 295.388 372.022 295.395C372.022 295.402 372.022 295.408 372.022 295.415C372.022 295.421 372.022 295.428 372.022 295.435C372.022 295.441 372.022 295.448 372.022 295.454C372.022 295.461 372.022 295.468 372.022 295.474C372.022 295.481 372.022 295.487 372.022 295.494C372.022 295.5 372.022 295.507 372.022 295.514C372.022 295.52 372.022 295.527 372.022 295.533C372.022 295.54 372.022 295.547 372.022 295.553C372.022 295.56 372.022 295.566 372.022 295.573C372.022 295.579 372.022 295.586 372.022 295.593C372.022 295.599 372.022 295.606 372.022 295.612C372.022 295.619 372.022 295.626 372.022 295.632C372.022 295.639 372.022 295.645 372.022 295.652C372.022 295.658 372.022 295.665 372.022 295.672C372.022 295.678 372.022 295.685 372.022 295.691C372.022 295.698 372.022 295.705 372.022 295.711C372.022 295.718 372.022 295.724 372.022 295.731C372.022 295.737 372.022 295.744 372.022 295.751C372.022 295.757 372.022 295.764 372.022 295.77C372.022 295.777 372.022 295.783 372.022 295.79C372.022 295.797 372.022 295.803 372.022 295.81C372.022 295.816 372.022 295.823 372.022 295.829C372.022 295.836 372.022 295.843 372.022 295.849C372.022 295.856 372.022 295.862 372.022 295.869C372.022 295.875 372.022 295.882 372.022 295.889C372.022 295.895 372.022 295.902 372.022 295.908C372.022 295.915 372.022 295.921 372.022 295.928C372.022 295.934 372.022 295.941 372.022 295.948C372.022 295.954 372.022 295.961 372.022 295.967C372.022 295.974 372.022 295.98 372.022 295.987C372.022 295.994 372.022 296 372.022 296.007C372.022 296.013 372.022 296.02 372.022 296.026C372.022 296.033 372.022 296.039 372.022 296.046C372.022 296.053 372.022 296.059 372.022 296.066C372.022 296.072 372.022 296.079 372.022 296.085C372.022 296.092 372.022 296.099 372.022 296.105C372.022 296.112 372.022 296.118 372.022 296.125C372.022 296.131 372.022 296.138 372.022 296.144C372.022 296.151 372.022 296.158 372.022 296.164C372.022 296.171 372.022 296.177 372.022 296.184C372.022 296.19 372.022 296.197 372.022 296.203C372.022 296.21 372.022 296.216 372.022 296.223C372.022 296.23 372.022 296.236 372.022 296.243C372.022 296.249 372.022 296.256 372.022 296.262C372.022 296.269 372.022 296.275 372.022 296.282C372.022 296.289 372.022 296.295 372.022 296.302C372.022 296.308 372.022 296.315 372.022 296.321C372.022 296.328 372.022 296.334 372.022 296.341C372.022 296.347 372.022 296.354 372.022 296.361C372.022 296.367 372.022 296.374 372.022 296.38C372.022 296.387 372.022 296.393 372.022 296.4C372.022 296.406 372.022 296.413 372.022 296.419C372.022 296.426 372.022 296.433 372.022 296.439C372.022 296.446 372.022 296.452 372.022 296.459C372.022 296.465 372.022 296.472 372.022 296.478C372.022 296.485 372.022 296.491 372.022 296.498C372.022 296.504 372.022 296.511 372.022 296.517C372.022 296.524 372.022 296.531 372.022 296.537C372.022 296.544 372.022 296.55 372.022 296.557C372.022 296.563 372.022 296.57 372.022 296.576C372.022 296.583 372.022 296.589 372.022 296.596C372.022 296.602 372.022 296.609 372.022 296.616C372.022 296.622 372.022 296.629 372.022 296.635C372.022 296.642 372.022 296.648 372.022 296.655C372.022 296.661 372.022 296.668 372.022 296.674C372.022 296.681 372.022 296.687 372.022 296.694C372.022 296.7 372.022 296.707 372.022 296.713C372.022 296.72 372.022 296.726 372.022 296.733C372.022 296.74 372.022 296.746 372.022 296.753C372.022 296.759 372.022 296.766 372.022 296.772C372.022 296.779 372.022 296.785 372.022 296.792C372.022 296.798 372.022 296.805 372.022 296.811C372.022 296.818 372.022 296.824 372.022 296.831C372.022 296.837 372.022 296.844 372.022 296.85C372.022 296.857 372.022 296.863 372.022 296.87C372.022 296.876 372.022 296.883 372.022 296.89C372.022 296.896 372.022 296.903 372.022 296.909C372.022 296.916 372.022 296.922 372.022 296.929C372.022 296.935 372.022 296.942 372.022 296.948C372.022 296.955 372.022 296.961 372.022 296.968C372.022 296.974 372.022 296.981 372.022 296.987C372.022 296.994 372.022 297 372.022 297.007C372.022 297.013 372.022 297.02 372.022 297.026C372.022 297.033 372.022 297.039 372.022 297.046C372.022 297.052 372.022 297.059 372.022 297.065C372.022 297.072 372.022 297.078 372.022 297.085H375.656ZM375.656 286.704H379.29V280.169H375.656H372.022V286.704H375.656ZM375.656 280.169L372.387 278.581C368.236 287.127 362.627 294.565 355.545 300.915L357.971 303.621L360.397 306.327C368.18 299.348 374.362 291.151 378.925 281.756L375.656 280.169ZM357.971 303.621L355.545 300.915C348.361 307.355 340.303 312.813 331.356 317.287L332.981 320.537L334.606 323.787C344.113 319.034 352.714 313.214 360.397 306.327L357.971 303.621ZM332.981 320.537L331.429 317.251C322.462 321.486 312.855 324.732 302.598 326.984L303.377 330.533L304.157 334.083C314.917 331.72 325.046 328.303 334.533 323.823L332.981 320.537ZM303.377 330.533L302.58 326.988C292.589 329.236 282.476 330.359 272.236 330.359V333.993V337.627C283.013 337.627 293.661 336.444 304.175 334.078L303.377 330.533ZM272.236 333.993V330.359C255.02 330.359 238.983 327.118 224.085 320.663L222.64 323.997L221.196 327.332C237.055 334.204 254.082 337.627 272.236 337.627V333.993ZM222.64 323.997L224.155 320.694C206.282 312.502 193.184 301.055 184.642 286.411L181.503 288.242L178.364 290.073C187.763 306.186 202.091 318.576 221.126 327.301L222.64 323.997ZM181.503 288.242L184.655 286.434C175.984 271.321 171.681 255.537 171.681 239.031H168.047H164.413C164.413 256.87 169.081 273.894 178.351 290.051L181.503 288.242ZM168.047 239.031H171.681C171.681 229.648 173.038 220.385 175.759 211.232L172.276 210.197L168.793 209.161C165.875 218.975 164.413 228.935 164.413 239.031H168.047ZM172.276 210.197L175.759 211.232C178.479 202.085 182.43 193.566 187.617 185.663L184.579 183.669L181.541 181.675C175.962 190.175 171.712 199.341 168.793 209.161L172.276 210.197ZM184.579 183.669L187.573 185.728C193.008 177.823 199.558 170.776 207.236 164.583L204.955 161.754L202.674 158.926C194.462 165.548 187.427 173.111 181.584 181.61L184.579 183.669ZM204.955 161.754L207.247 164.575C215.118 158.179 224.117 153.119 234.269 149.404L233.021 145.992L231.772 142.579C220.908 146.553 211.196 152.002 202.664 158.934L204.955 161.754Z" fill="#B4D965" mask="url(#path-2-outside-1_134_92)"/>
<defs>
<filter id="filter0_d_134_92" x="0.722467" y="0.691219" width="572.774" height="572.774" filterUnits="userSpaceOnUse" color-interpolation-filters="sRGB">
<feFlood flood-opacity="0" result="BackgroundImageFix"/>
<feColorMatrix in="SourceAlpha" type="matrix" values="0 0 0 0 0 0 0 0 0 0 0 0 0 0 0 0 0 0 127 0" result="hardAlpha"/>
<feMorphology radius="11.3088" operator="dilate" in="SourceAlpha" result="effect1_dropShadow_134_92"/>
<feOffset dy="15.0784"/>
<feGaussianBlur stdDeviation="7.53919"/>
<feComposite in2="hardAlpha" operator="out"/>
<feColorMatrix type="matrix" values="0 0 0 0 0.12549 0 0 0 0 0.278431 0 0 0 0 0.27451 0 0 0 0.28 0"/>
<feBlend mode="normal" in2="BackgroundImageFix" result="effect1_dropShadow_134_92"/>
<feBlend mode="normal" in="SourceGraphic" in2="effect1_dropShadow_134_92" result="shape"/>
</filter>
</defs>
</svg>
