<svg width="574" height="574" viewBox="0 0 574 574" fill="none" xmlns="http://www.w3.org/2000/svg">
<g filter="url(#filter0_d_134_83)">
<rect x="26.7798" y="12" width="520" height="520" rx="73.7215" fill="white"/>
</g>
<mask id="path-2-outside-1_134_83" maskUnits="userSpaceOnUse" x="169.239" y="132.497" width="235" height="296" fill="black">
<rect fill="white" x="169.239" y="132.497" width="235" height="296"/>
<path d="M335.785 393.585C349.369 386.408 360.006 377.181 367.695 365.904C375.384 354.37 379.229 341.298 379.229 326.688C379.229 323.613 378.973 320.537 378.46 317.461C378.204 314.386 377.819 311.31 377.307 308.234C373.975 294.394 367.951 282.475 359.237 272.479C350.522 262.483 339.117 255.691 325.02 252.103C316.305 250.052 307.335 249.027 298.108 249.027C288.112 249.027 277.859 250.309 267.351 252.872C257.098 255.179 247.743 259.023 239.285 264.406C230.827 269.532 223.778 276.068 218.14 284.013C212.501 291.702 209.297 300.93 208.528 311.694C208.272 314.514 207.246 316.821 205.452 318.615C203.658 320.153 201.736 321.178 199.685 321.69C201.992 332.712 205.452 343.092 210.066 352.832C214.679 362.572 220.831 370.902 228.52 377.822C237.491 386.024 247.743 392.431 259.277 397.045C270.811 401.658 282.729 403.965 295.032 403.965C301.952 403.965 308.744 403.196 315.408 401.658C322.329 399.864 329.121 397.173 335.785 393.585ZM343.474 235.956C352.957 239.8 361.287 244.798 368.464 250.95C375.641 257.101 381.536 264.021 386.149 271.71C390.763 279.143 394.223 287.217 396.53 295.932C398.836 304.646 399.99 313.36 399.99 322.075C399.99 331.815 398.708 341.426 396.145 350.91C393.582 360.137 389.609 368.979 384.227 377.437C379.101 385.639 372.693 393.072 365.004 399.736C357.571 406.4 348.856 411.783 338.86 415.884C331.428 418.959 323.738 421.138 315.793 422.419C308.104 423.957 300.414 424.726 292.725 424.726C276.578 424.726 261.071 421.779 246.205 415.884C231.596 409.732 218.908 400.377 208.144 387.818C201.992 380.641 196.61 372.696 191.996 363.981C187.639 355.267 184.051 346.168 181.231 336.684C178.412 326.945 176.361 317.077 175.08 307.081C173.798 296.829 173.158 286.704 173.158 276.708C173.158 262.868 174.311 249.796 176.618 237.493C178.668 225.447 181.744 214.169 185.845 203.661C189.946 193.152 195.2 183.797 201.608 175.595C208.272 167.137 216.217 159.96 225.444 154.065C234.671 148.17 245.436 143.685 257.739 140.609C263.378 139.328 269.017 138.43 274.655 137.918C280.294 137.149 285.933 136.764 291.572 136.764C306.95 136.764 321.432 139.84 335.016 145.992C348.856 151.887 360.262 161.883 369.233 175.98C370.514 177.517 371.155 179.44 371.155 181.746C371.155 184.566 369.874 187.001 367.311 189.051C365.004 190.845 362.441 191.742 359.621 191.742C356.033 191.742 353.086 190.076 350.779 186.744C344.115 176.236 335.4 168.803 324.635 164.446C314.127 159.832 302.977 157.525 291.187 157.525C277.603 157.525 264.659 160.088 252.357 165.215C242.617 169.059 234.287 174.057 227.367 180.209C220.703 186.104 215.064 193.024 210.45 200.97C206.093 208.659 202.761 217.117 200.454 226.344C198.148 235.571 196.61 245.183 195.841 255.179C195.584 258.254 195.328 261.458 195.072 264.79C195.072 268.122 195.072 271.582 195.072 275.171V281.322C199.685 272.608 205.58 264.918 212.757 258.254C220.19 251.334 228.392 245.695 237.363 241.338C246.59 236.724 256.329 233.264 266.582 230.958C276.834 228.651 287.086 227.497 297.339 227.497C305.54 227.497 313.486 228.266 321.175 229.804C328.864 231.086 336.297 233.136 343.474 235.956Z"/>
</mask>
<path d="M335.785 393.585C349.369 386.408 360.006 377.181 367.695 365.904C375.384 354.37 379.229 341.298 379.229 326.688C379.229 323.613 378.973 320.537 378.46 317.461C378.204 314.386 377.819 311.31 377.307 308.234C373.975 294.394 367.951 282.475 359.237 272.479C350.522 262.483 339.117 255.691 325.02 252.103C316.305 250.052 307.335 249.027 298.108 249.027C288.112 249.027 277.859 250.309 267.351 252.872C257.098 255.179 247.743 259.023 239.285 264.406C230.827 269.532 223.778 276.068 218.14 284.013C212.501 291.702 209.297 300.93 208.528 311.694C208.272 314.514 207.246 316.821 205.452 318.615C203.658 320.153 201.736 321.178 199.685 321.69C201.992 332.712 205.452 343.092 210.066 352.832C214.679 362.572 220.831 370.902 228.52 377.822C237.491 386.024 247.743 392.431 259.277 397.045C270.811 401.658 282.729 403.965 295.032 403.965C301.952 403.965 308.744 403.196 315.408 401.658C322.329 399.864 329.121 397.173 335.785 393.585ZM343.474 235.956C352.957 239.8 361.287 244.798 368.464 250.95C375.641 257.101 381.536 264.021 386.149 271.71C390.763 279.143 394.223 287.217 396.53 295.932C398.836 304.646 399.99 313.36 399.99 322.075C399.99 331.815 398.708 341.426 396.145 350.91C393.582 360.137 389.609 368.979 384.227 377.437C379.101 385.639 372.693 393.072 365.004 399.736C357.571 406.4 348.856 411.783 338.86 415.884C331.428 418.959 323.738 421.138 315.793 422.419C308.104 423.957 300.414 424.726 292.725 424.726C276.578 424.726 261.071 421.779 246.205 415.884C231.596 409.732 218.908 400.377 208.144 387.818C201.992 380.641 196.61 372.696 191.996 363.981C187.639 355.267 184.051 346.168 181.231 336.684C178.412 326.945 176.361 317.077 175.08 307.081C173.798 296.829 173.158 286.704 173.158 276.708C173.158 262.868 174.311 249.796 176.618 237.493C178.668 225.447 181.744 214.169 185.845 203.661C189.946 193.152 195.2 183.797 201.608 175.595C208.272 167.137 216.217 159.96 225.444 154.065C234.671 148.17 245.436 143.685 257.739 140.609C263.378 139.328 269.017 138.43 274.655 137.918C280.294 137.149 285.933 136.764 291.572 136.764C306.95 136.764 321.432 139.84 335.016 145.992C348.856 151.887 360.262 161.883 369.233 175.98C370.514 177.517 371.155 179.44 371.155 181.746C371.155 184.566 369.874 187.001 367.311 189.051C365.004 190.845 362.441 191.742 359.621 191.742C356.033 191.742 353.086 190.076 350.779 186.744C344.115 176.236 335.4 168.803 324.635 164.446C314.127 159.832 302.977 157.525 291.187 157.525C277.603 157.525 264.659 160.088 252.357 165.215C242.617 169.059 234.287 174.057 227.367 180.209C220.703 186.104 215.064 193.024 210.45 200.97C206.093 208.659 202.761 217.117 200.454 226.344C198.148 235.571 196.61 245.183 195.841 255.179C195.584 258.254 195.328 261.458 195.072 264.79C195.072 268.122 195.072 271.582 195.072 275.171V281.322C199.685 272.608 205.58 264.918 212.757 258.254C220.19 251.334 228.392 245.695 237.363 241.338C246.59 236.724 256.329 233.264 266.582 230.958C276.834 228.651 287.086 227.497 297.339 227.497C305.54 227.497 313.486 228.266 321.175 229.804C328.864 231.086 336.297 233.136 343.474 235.956Z" fill="#DC4E8E"/>
<path d="M335.785 393.585L334.087 390.372L334.075 390.378L334.062 390.385L335.785 393.585ZM367.695 365.904L370.698 367.951L370.708 367.935L370.719 367.919L367.695 365.904ZM378.46 317.461L374.839 317.763L374.851 317.912L374.875 318.059L378.46 317.461ZM377.307 308.234L380.891 307.637L380.87 307.509L380.84 307.384L377.307 308.234ZM359.237 272.479L361.976 270.091L359.237 272.479ZM325.02 252.103L325.916 248.581L325.884 248.573L325.852 248.565L325.02 252.103ZM267.351 252.872L268.148 256.417L268.18 256.41L268.212 256.402L267.351 252.872ZM239.285 264.406L241.168 267.514L241.202 267.493L241.236 267.472L239.285 264.406ZM218.14 284.013L221.07 286.162L221.087 286.139L221.103 286.116L218.14 284.013ZM208.528 311.694L212.147 312.023L212.15 311.988L212.153 311.953L208.528 311.694ZM205.452 318.615L207.817 321.374L207.923 321.283L208.022 321.184L205.452 318.615ZM199.685 321.69L198.804 318.165L195.412 319.013L196.128 322.435L199.685 321.69ZM228.52 377.822L230.972 375.14L230.962 375.13L230.951 375.121L228.52 377.822ZM315.408 401.658L316.225 405.199L316.273 405.188L316.32 405.176L315.408 401.658ZM343.474 235.956L344.839 232.588L344.821 232.58L344.803 232.573L343.474 235.956ZM386.149 271.71L383.033 273.58L383.047 273.604L383.062 273.627L386.149 271.71ZM396.53 295.932L393.017 296.861L396.53 295.932ZM396.145 350.91L399.647 351.882L399.65 351.87L399.653 351.858L396.145 350.91ZM384.227 377.437L381.161 375.486L381.153 375.499L381.145 375.511L384.227 377.437ZM365.004 399.736L362.624 396.99L362.601 397.01L362.578 397.03L365.004 399.736ZM338.86 415.884L337.481 412.521L337.471 412.526L338.86 415.884ZM315.793 422.419L315.214 418.832L315.147 418.843L315.08 418.856L315.793 422.419ZM246.205 415.884L244.795 419.233L244.83 419.248L244.866 419.262L246.205 415.884ZM208.144 387.818L205.384 390.183L208.144 387.818ZM191.996 363.981L188.746 365.606L188.765 365.644L188.784 365.682L191.996 363.981ZM181.231 336.684L177.741 337.695L177.744 337.708L177.748 337.72L181.231 336.684ZM175.08 307.081L171.474 307.532L171.475 307.543L175.08 307.081ZM176.618 237.493L180.19 238.163L180.195 238.133L180.2 238.103L176.618 237.493ZM185.845 203.661L182.459 202.34L185.845 203.661ZM201.608 175.595L198.753 173.346L198.749 173.352L198.744 173.358L201.608 175.595ZM257.739 140.609L256.934 137.065L256.896 137.074L256.858 137.084L257.739 140.609ZM274.655 137.918L274.984 141.537L275.066 141.53L275.146 141.519L274.655 137.918ZM335.016 145.992L333.517 149.302L333.554 149.319L333.592 149.335L335.016 145.992ZM369.233 175.98L366.167 177.931L366.292 178.127L366.441 178.306L369.233 175.98ZM367.311 189.051L369.542 191.92L369.561 191.904L369.581 191.889L367.311 189.051ZM350.779 186.744L347.71 188.691L347.749 188.753L347.791 188.813L350.779 186.744ZM324.635 164.446L323.175 167.773L323.223 167.794L323.272 167.814L324.635 164.446ZM252.357 165.215L253.691 168.595L253.723 168.582L253.754 168.569L252.357 165.215ZM227.367 180.209L229.774 182.93L229.781 182.925L227.367 180.209ZM210.45 200.97L207.308 199.145L207.298 199.161L207.289 199.178L210.45 200.97ZM195.841 255.179L199.462 255.48L199.463 255.469L199.464 255.457L195.841 255.179ZM195.072 264.79L191.449 264.511L191.438 264.651V264.79H195.072ZM195.072 281.322H191.438L198.284 283.022L195.072 281.322ZM212.757 258.254L215.23 260.917L215.233 260.914L212.757 258.254ZM237.363 241.338L238.95 244.607L238.969 244.598L238.988 244.588L237.363 241.338ZM266.582 230.958L265.784 227.412L266.582 230.958ZM321.175 229.804L320.463 233.368L320.52 233.379L320.578 233.389L321.175 229.804ZM335.785 393.585L337.482 396.798C351.524 389.38 362.635 379.776 370.698 367.951L367.695 365.904L364.693 363.856C357.377 374.586 347.215 383.436 334.087 390.372L335.785 393.585ZM367.695 365.904L370.719 367.919C378.828 355.755 382.863 341.975 382.863 326.688H379.229H375.595C375.595 340.621 371.941 352.984 364.671 363.888L367.695 365.904ZM379.229 326.688H382.863C382.863 323.41 382.59 320.134 382.045 316.864L378.46 317.461L374.875 318.059C375.356 320.94 375.595 323.816 375.595 326.688H379.229ZM378.46 317.461L382.082 317.16C381.817 313.984 381.42 310.81 380.891 307.637L377.307 308.234L373.722 308.832C374.218 311.81 374.591 314.787 374.839 317.763L378.46 317.461ZM377.307 308.234L380.84 307.384C377.381 293.017 371.103 280.561 361.976 270.091L359.237 272.479L356.498 274.867C364.8 284.39 370.568 295.77 373.774 309.085L377.307 308.234ZM359.237 272.479L361.976 270.091C352.73 259.485 340.656 252.333 325.916 248.581L325.02 252.103L324.123 255.625C337.578 259.049 348.315 265.482 356.498 274.867L359.237 272.479ZM325.02 252.103L325.852 248.565C316.857 246.449 307.606 245.393 298.108 245.393V249.027V252.661C307.063 252.661 315.754 253.656 324.188 255.64L325.02 252.103ZM298.108 249.027V245.393C287.799 245.393 277.257 246.715 266.49 249.341L267.351 252.872L268.212 256.402C278.461 253.902 288.424 252.661 298.108 252.661V249.027ZM267.351 252.872L266.553 249.326C255.911 251.721 246.163 255.721 237.334 261.34L239.285 264.406L241.236 267.472C249.323 262.325 258.285 258.636 268.148 256.417L267.351 252.872ZM239.285 264.406L237.401 261.298C228.525 266.678 221.107 273.553 215.176 281.91L218.14 284.013L221.103 286.116C226.45 278.582 233.129 272.386 241.168 267.514L239.285 264.406ZM218.14 284.013L215.209 281.864C209.114 290.176 205.714 300.08 204.903 311.436L208.528 311.694L212.153 311.953C212.88 301.779 215.888 293.229 221.07 286.162L218.14 284.013ZM208.528 311.694L204.909 311.365C204.72 313.443 204.006 314.922 202.883 316.045L205.452 318.615L208.022 321.184C210.487 318.719 211.823 315.585 212.147 312.023L208.528 311.694ZM205.452 318.615L203.087 315.856C201.67 317.07 200.245 317.805 198.804 318.165L199.685 321.69L200.567 325.216C203.226 324.551 205.646 323.235 207.817 321.374L205.452 318.615ZM199.685 321.69L196.128 322.435C198.491 333.724 202.04 344.378 206.782 354.388L210.066 352.832L213.35 351.276C208.864 341.807 205.493 331.7 203.242 320.946L199.685 321.69ZM210.066 352.832L206.782 354.388C211.592 364.543 218.027 373.268 226.089 380.523L228.52 377.822L230.951 375.121C223.634 368.535 217.767 360.6 213.35 351.276L210.066 352.832ZM228.52 377.822L226.068 380.504C235.369 389.007 245.996 395.647 257.927 400.419L259.277 397.045L260.627 393.671C249.49 389.216 239.613 383.04 230.972 375.14L228.52 377.822ZM259.277 397.045L257.927 400.419C269.886 405.203 282.262 407.599 295.032 407.599V403.965V400.331C283.196 400.331 271.735 398.114 260.627 393.671L259.277 397.045ZM295.032 403.965V407.599C302.224 407.599 309.29 406.8 316.225 405.199L315.408 401.658L314.591 398.117C308.198 399.593 301.68 400.331 295.032 400.331V403.965ZM315.408 401.658L316.32 405.176C323.539 403.305 330.602 400.503 337.508 396.784L335.785 393.585L334.062 390.385C327.639 393.843 321.119 396.424 314.496 398.141L315.408 401.658ZM343.474 235.956L342.109 239.323C351.258 243.033 359.244 247.833 366.099 253.709L368.464 250.95L370.829 248.19C363.331 241.763 354.657 236.568 344.839 232.588L343.474 235.956ZM368.464 250.95L366.099 253.709C372.995 259.62 378.631 266.244 383.033 273.58L386.149 271.71L389.265 269.841C384.44 261.799 378.286 254.582 370.829 248.19L368.464 250.95ZM386.149 271.71L383.062 273.627C387.48 280.745 390.799 288.484 393.017 296.861L396.53 295.932L400.043 295.002C397.647 285.95 394.046 277.542 389.237 269.794L386.149 271.71ZM396.53 295.932L393.017 296.861C395.246 305.283 396.356 313.685 396.356 322.075H399.99H403.624C403.624 313.036 402.427 304.009 400.043 295.002L396.53 295.932ZM399.99 322.075H396.356C396.356 331.492 395.117 340.784 392.637 349.961L396.145 350.91L399.653 351.858C402.299 342.068 403.624 332.138 403.624 322.075H399.99ZM396.145 350.91L392.644 349.937C390.181 358.802 386.36 367.317 381.161 375.486L384.227 377.437L387.293 379.388C392.859 370.642 396.983 361.471 399.647 351.882L396.145 350.91ZM384.227 377.437L381.145 375.511C376.221 383.391 370.054 390.551 362.624 396.99L365.004 399.736L367.384 402.482C375.332 395.594 381.981 387.888 387.309 379.363L384.227 377.437ZM365.004 399.736L362.578 397.03C355.478 403.396 347.125 408.565 337.481 412.521L338.86 415.884L340.24 419.246C350.588 415 359.664 409.405 367.43 402.442L365.004 399.736ZM338.86 415.884L337.471 412.526C330.299 415.493 322.882 417.595 315.214 418.832L315.793 422.419L316.371 426.007C324.595 424.681 332.556 422.425 340.25 419.241L338.86 415.884ZM315.793 422.419L315.08 418.856C307.621 420.348 300.17 421.092 292.725 421.092V424.726V428.36C300.658 428.36 308.586 427.567 316.505 425.983L315.793 422.419ZM292.725 424.726V421.092C277.032 421.092 261.98 418.23 247.545 412.505L246.205 415.884L244.866 419.262C260.162 425.327 276.124 428.36 292.725 428.36V424.726ZM246.205 415.884L247.615 412.534C233.549 406.611 221.317 397.603 210.903 385.453L208.144 387.818L205.384 390.183C216.5 403.151 229.643 412.853 244.795 419.233L246.205 415.884ZM208.144 387.818L210.903 385.453C204.934 378.489 199.701 370.768 195.208 362.281L191.996 363.981L188.784 365.682C193.518 374.623 199.051 382.793 205.384 390.183L208.144 387.818ZM191.996 363.981L195.247 362.356C190.985 353.834 187.475 344.932 184.715 335.649L181.231 336.684L177.748 337.72C180.627 347.403 184.292 356.7 188.746 365.606L191.996 363.981ZM181.231 336.684L184.722 335.674C181.954 326.113 179.942 316.428 178.684 306.619L175.08 307.081L171.475 307.543C172.781 317.726 174.869 327.777 177.741 337.695L181.231 336.684ZM175.08 307.081L178.686 306.63C177.422 296.522 176.792 286.549 176.792 276.708H173.158H169.524C169.524 286.86 170.174 297.135 171.474 307.532L175.08 307.081ZM173.158 276.708H176.792C176.792 263.069 177.928 250.223 180.19 238.163L176.618 237.493L173.046 236.824C170.694 249.369 169.524 262.666 169.524 276.708H173.158ZM176.618 237.493L180.2 238.103C182.213 226.28 185.226 215.243 189.23 204.982L185.845 203.661L182.459 202.34C178.262 213.096 175.124 224.614 173.035 236.884L176.618 237.493ZM185.845 203.661L189.23 204.982C193.213 194.775 198.299 185.733 204.471 177.832L201.608 175.595L198.744 173.358C192.101 181.86 186.678 191.529 182.459 202.34L185.845 203.661ZM201.608 175.595L204.462 177.844C210.87 169.711 218.511 162.807 227.401 157.128L225.444 154.065L223.488 151.003C213.924 157.113 205.673 164.563 198.753 173.346L201.608 175.595ZM225.444 154.065L227.401 157.128C236.249 151.474 246.64 147.13 258.62 144.135L257.739 140.609L256.858 137.084C244.233 140.24 233.094 144.866 223.488 151.003L225.444 154.065ZM257.739 140.609L258.544 144.153C264.03 142.906 269.509 142.035 274.984 141.537L274.655 137.918L274.326 134.299C268.524 134.826 262.726 135.749 256.934 137.065L257.739 140.609ZM274.655 137.918L275.146 141.519C280.624 140.772 286.099 140.398 291.572 140.398V136.764V133.13C285.767 133.13 279.964 133.526 274.164 134.317L274.655 137.918ZM291.572 136.764V140.398C306.45 140.398 320.418 143.371 333.517 149.302L335.016 145.992L336.515 142.681C322.445 136.31 307.451 133.13 291.572 133.13V136.764ZM335.016 145.992L333.592 149.335C346.683 154.911 357.545 164.381 366.167 177.931L369.233 175.98L372.299 174.028C362.979 159.384 351.03 148.862 336.44 142.648L335.016 145.992ZM369.233 175.98L366.441 178.306C367.097 179.093 367.521 180.153 367.521 181.746H371.155H374.789C374.789 178.726 373.932 175.942 372.025 173.653L369.233 175.98ZM371.155 181.746H367.521C367.521 183.273 366.9 184.726 365.04 186.214L367.311 189.051L369.581 191.889C372.847 189.276 374.789 185.858 374.789 181.746H371.155ZM367.311 189.051L365.08 186.183C363.386 187.5 361.601 188.108 359.621 188.108V191.742V195.376C363.28 195.376 366.622 194.191 369.542 191.92L367.311 189.051ZM359.621 191.742V188.108C357.394 188.108 355.497 187.175 353.767 184.676L350.779 186.744L347.791 188.813C350.674 192.978 354.672 195.376 359.621 195.376V191.742ZM350.779 186.744L353.848 184.798C346.808 173.698 337.518 165.74 325.999 161.077L324.635 164.446L323.272 167.814C333.283 171.866 341.421 178.774 347.71 188.691L350.779 186.744ZM324.635 164.446L326.096 161.118C315.114 156.297 303.466 153.891 291.187 153.891V157.525V161.159C302.489 161.159 313.139 163.367 323.175 167.773L324.635 164.446ZM291.187 157.525V153.891C277.133 153.891 263.713 156.546 250.959 161.86L252.357 165.215L253.754 168.569C265.606 163.631 278.073 161.159 291.187 161.159V157.525ZM252.357 165.215L251.022 161.834C240.938 165.815 232.23 171.024 224.952 177.492L227.367 180.209L229.781 182.925C236.344 177.091 244.296 172.303 253.691 168.595L252.357 165.215ZM227.367 180.209L224.959 177.487C217.994 183.648 212.11 190.874 207.308 199.145L210.45 200.97L213.593 202.794C218.018 195.174 223.411 188.559 229.774 182.93L227.367 180.209ZM210.45 200.97L207.289 199.178C202.758 207.174 199.309 215.941 196.929 225.463L200.454 226.344L203.98 227.225C206.213 218.293 209.428 210.144 213.612 202.761L210.45 200.97ZM200.454 226.344L196.929 225.463C194.57 234.898 193.001 244.712 192.217 254.9L195.841 255.179L199.464 255.457C200.218 245.654 201.725 236.244 203.98 227.225L200.454 226.344ZM195.841 255.179L192.219 254.877C191.962 257.961 191.705 261.172 191.449 264.511L195.072 264.79L198.695 265.069C198.951 261.744 199.207 258.548 199.462 255.48L195.841 255.179ZM195.072 264.79H191.438C191.438 264.797 191.438 264.803 191.438 264.81C191.438 264.816 191.438 264.823 191.438 264.829C191.438 264.836 191.438 264.842 191.438 264.849C191.438 264.855 191.438 264.862 191.438 264.868C191.438 264.875 191.438 264.881 191.438 264.888C191.438 264.894 191.438 264.901 191.438 264.907C191.438 264.914 191.438 264.92 191.438 264.927C191.438 264.933 191.438 264.94 191.438 264.946C191.438 264.953 191.438 264.959 191.438 264.966C191.438 264.972 191.438 264.979 191.438 264.986C191.438 264.992 191.438 264.999 191.438 265.005C191.438 265.012 191.438 265.018 191.438 265.025C191.438 265.031 191.438 265.038 191.438 265.044C191.438 265.051 191.438 265.057 191.438 265.064C191.438 265.07 191.438 265.077 191.438 265.083C191.438 265.09 191.438 265.096 191.438 265.103C191.438 265.109 191.438 265.116 191.438 265.122C191.438 265.129 191.438 265.136 191.438 265.142C191.438 265.149 191.438 265.155 191.438 265.162C191.438 265.168 191.438 265.175 191.438 265.181C191.438 265.188 191.438 265.194 191.438 265.201C191.438 265.207 191.438 265.214 191.438 265.22C191.438 265.227 191.438 265.233 191.438 265.24C191.438 265.246 191.438 265.253 191.438 265.26C191.438 265.266 191.438 265.273 191.438 265.279C191.438 265.286 191.438 265.292 191.438 265.299C191.438 265.305 191.438 265.312 191.438 265.318C191.438 265.325 191.438 265.331 191.438 265.338C191.438 265.344 191.438 265.351 191.438 265.358C191.438 265.364 191.438 265.371 191.438 265.377C191.438 265.384 191.438 265.39 191.438 265.397C191.438 265.403 191.438 265.41 191.438 265.416C191.438 265.423 191.438 265.429 191.438 265.436C191.438 265.443 191.438 265.449 191.438 265.456C191.438 265.462 191.438 265.469 191.438 265.475C191.438 265.482 191.438 265.488 191.438 265.495C191.438 265.501 191.438 265.508 191.438 265.515C191.438 265.521 191.438 265.528 191.438 265.534C191.438 265.541 191.438 265.547 191.438 265.554C191.438 265.56 191.438 265.567 191.438 265.573C191.438 265.58 191.438 265.587 191.438 265.593C191.438 265.6 191.438 265.606 191.438 265.613C191.438 265.619 191.438 265.626 191.438 265.632C191.438 265.639 191.438 265.645 191.438 265.652C191.438 265.659 191.438 265.665 191.438 265.672C191.438 265.678 191.438 265.685 191.438 265.691C191.438 265.698 191.438 265.704 191.438 265.711C191.438 265.718 191.438 265.724 191.438 265.731C191.438 265.737 191.438 265.744 191.438 265.75C191.438 265.757 191.438 265.763 191.438 265.77C191.438 265.777 191.438 265.783 191.438 265.79C191.438 265.796 191.438 265.803 191.438 265.809C191.438 265.816 191.438 265.822 191.438 265.829C191.438 265.836 191.438 265.842 191.438 265.849C191.438 265.855 191.438 265.862 191.438 265.868C191.438 265.875 191.438 265.881 191.438 265.888C191.438 265.895 191.438 265.901 191.438 265.908C191.438 265.914 191.438 265.921 191.438 265.927C191.438 265.934 191.438 265.941 191.438 265.947C191.438 265.954 191.438 265.96 191.438 265.967C191.438 265.973 191.438 265.98 191.438 265.987C191.438 265.993 191.438 266 191.438 266.006C191.438 266.013 191.438 266.019 191.438 266.026C191.438 266.033 191.438 266.039 191.438 266.046C191.438 266.052 191.438 266.059 191.438 266.065C191.438 266.072 191.438 266.079 191.438 266.085C191.438 266.092 191.438 266.098 191.438 266.105C191.438 266.111 191.438 266.118 191.438 266.125C191.438 266.131 191.438 266.138 191.438 266.144C191.438 266.151 191.438 266.157 191.438 266.164C191.438 266.171 191.438 266.177 191.438 266.184C191.438 266.19 191.438 266.197 191.438 266.203C191.438 266.21 191.438 266.217 191.438 266.223C191.438 266.23 191.438 266.236 191.438 266.243C191.438 266.249 191.438 266.256 191.438 266.263C191.438 266.269 191.438 266.276 191.438 266.282C191.438 266.289 191.438 266.296 191.438 266.302C191.438 266.309 191.438 266.315 191.438 266.322C191.438 266.328 191.438 266.335 191.438 266.342C191.438 266.348 191.438 266.355 191.438 266.361C191.438 266.368 191.438 266.375 191.438 266.381C191.438 266.388 191.438 266.394 191.438 266.401C191.438 266.408 191.438 266.414 191.438 266.421C191.438 266.427 191.438 266.434 191.438 266.44C191.438 266.447 191.438 266.454 191.438 266.46C191.438 266.467 191.438 266.473 191.438 266.48C191.438 266.487 191.438 266.493 191.438 266.5C191.438 266.506 191.438 266.513 191.438 266.52C191.438 266.526 191.438 266.533 191.438 266.539C191.438 266.546 191.438 266.553 191.438 266.559C191.438 266.566 191.438 266.572 191.438 266.579C191.438 266.586 191.438 266.592 191.438 266.599C191.438 266.605 191.438 266.612 191.438 266.619C191.438 266.625 191.438 266.632 191.438 266.638C191.438 266.645 191.438 266.652 191.438 266.658C191.438 266.665 191.438 266.671 191.438 266.678C191.438 266.685 191.438 266.691 191.438 266.698C191.438 266.704 191.438 266.711 191.438 266.718C191.438 266.724 191.438 266.731 191.438 266.737C191.438 266.744 191.438 266.751 191.438 266.757C191.438 266.764 191.438 266.77 191.438 266.777C191.438 266.784 191.438 266.79 191.438 266.797C191.438 266.803 191.438 266.81 191.438 266.817C191.438 266.823 191.438 266.83 191.438 266.836C191.438 266.843 191.438 266.85 191.438 266.856C191.438 266.863 191.438 266.869 191.438 266.876C191.438 266.883 191.438 266.889 191.438 266.896C191.438 266.903 191.438 266.909 191.438 266.916C191.438 266.922 191.438 266.929 191.438 266.936C191.438 266.942 191.438 266.949 191.438 266.955C191.438 266.962 191.438 266.969 191.438 266.975C191.438 266.982 191.438 266.989 191.438 266.995C191.438 267.002 191.438 267.008 191.438 267.015C191.438 267.022 191.438 267.028 191.438 267.035C191.438 267.041 191.438 267.048 191.438 267.055C191.438 267.061 191.438 267.068 191.438 267.075C191.438 267.081 191.438 267.088 191.438 267.094C191.438 267.101 191.438 267.108 191.438 267.114C191.438 267.121 191.438 267.128 191.438 267.134C191.438 267.141 191.438 267.147 191.438 267.154C191.438 267.161 191.438 267.167 191.438 267.174C191.438 267.181 191.438 267.187 191.438 267.194C191.438 267.2 191.438 267.207 191.438 267.214C191.438 267.22 191.438 267.227 191.438 267.234C191.438 267.24 191.438 267.247 191.438 267.253C191.438 267.26 191.438 267.267 191.438 267.273C191.438 267.28 191.438 267.287 191.438 267.293C191.438 267.3 191.438 267.307 191.438 267.313C191.438 267.32 191.438 267.326 191.438 267.333C191.438 267.34 191.438 267.346 191.438 267.353C191.438 267.36 191.438 267.366 191.438 267.373C191.438 267.38 191.438 267.386 191.438 267.393C191.438 267.399 191.438 267.406 191.438 267.413C191.438 267.419 191.438 267.426 191.438 267.433C191.438 267.439 191.438 267.446 191.438 267.453C191.438 267.459 191.438 267.466 191.438 267.472C191.438 267.479 191.438 267.486 191.438 267.492C191.438 267.499 191.438 267.506 191.438 267.512C191.438 267.519 191.438 267.526 191.438 267.532C191.438 267.539 191.438 267.546 191.438 267.552C191.438 267.559 191.438 267.565 191.438 267.572C191.438 267.579 191.438 267.585 191.438 267.592C191.438 267.599 191.438 267.605 191.438 267.612C191.438 267.619 191.438 267.625 191.438 267.632C191.438 267.639 191.438 267.645 191.438 267.652C191.438 267.659 191.438 267.665 191.438 267.672C191.438 267.678 191.438 267.685 191.438 267.692C191.438 267.698 191.438 267.705 191.438 267.712C191.438 267.718 191.438 267.725 191.438 267.732C191.438 267.738 191.438 267.745 191.438 267.752C191.438 267.758 191.438 267.765 191.438 267.772C191.438 267.778 191.438 267.785 191.438 267.792C191.438 267.798 191.438 267.805 191.438 267.812C191.438 267.818 191.438 267.825 191.438 267.832C191.438 267.838 191.438 267.845 191.438 267.852C191.438 267.858 191.438 267.865 191.438 267.871C191.438 267.878 191.438 267.885 191.438 267.891C191.438 267.898 191.438 267.905 191.438 267.911C191.438 267.918 191.438 267.925 191.438 267.931C191.438 267.938 191.438 267.945 191.438 267.951C191.438 267.958 191.438 267.965 191.438 267.971C191.438 267.978 191.438 267.985 191.438 267.991C191.438 267.998 191.438 268.005 191.438 268.011C191.438 268.018 191.438 268.025 191.438 268.031C191.438 268.038 191.438 268.045 191.438 268.051C191.438 268.058 191.438 268.065 191.438 268.071C191.438 268.078 191.438 268.085 191.438 268.091C191.438 268.098 191.438 268.105 191.438 268.111C191.438 268.118 191.438 268.125 191.438 268.131C191.438 268.138 191.438 268.145 191.438 268.152C191.438 268.158 191.438 268.165 191.438 268.172C191.438 268.178 191.438 268.185 191.438 268.192C191.438 268.198 191.438 268.205 191.438 268.212C191.438 268.218 191.438 268.225 191.438 268.232C191.438 268.238 191.438 268.245 191.438 268.252C191.438 268.258 191.438 268.265 191.438 268.272C191.438 268.278 191.438 268.285 191.438 268.292C191.438 268.298 191.438 268.305 191.438 268.312C191.438 268.318 191.438 268.325 191.438 268.332C191.438 268.339 191.438 268.345 191.438 268.352C191.438 268.359 191.438 268.365 191.438 268.372C191.438 268.379 191.438 268.385 191.438 268.392C191.438 268.399 191.438 268.405 191.438 268.412C191.438 268.419 191.438 268.425 191.438 268.432C191.438 268.439 191.438 268.445 191.438 268.452C191.438 268.459 191.438 268.466 191.438 268.472C191.438 268.479 191.438 268.486 191.438 268.492C191.438 268.499 191.438 268.506 191.438 268.512C191.438 268.519 191.438 268.526 191.438 268.532C191.438 268.539 191.438 268.546 191.438 268.553C191.438 268.559 191.438 268.566 191.438 268.573C191.438 268.579 191.438 268.586 191.438 268.593C191.438 268.599 191.438 268.606 191.438 268.613C191.438 268.619 191.438 268.626 191.438 268.633C191.438 268.64 191.438 268.646 191.438 268.653C191.438 268.66 191.438 268.666 191.438 268.673C191.438 268.68 191.438 268.686 191.438 268.693C191.438 268.7 191.438 268.707 191.438 268.713C191.438 268.72 191.438 268.727 191.438 268.733C191.438 268.74 191.438 268.747 191.438 268.753C191.438 268.76 191.438 268.767 191.438 268.774C191.438 268.78 191.438 268.787 191.438 268.794C191.438 268.8 191.438 268.807 191.438 268.814C191.438 268.821 191.438 268.827 191.438 268.834C191.438 268.841 191.438 268.847 191.438 268.854C191.438 268.861 191.438 268.867 191.438 268.874C191.438 268.881 191.438 268.888 191.438 268.894C191.438 268.901 191.438 268.908 191.438 268.914C191.438 268.921 191.438 268.928 191.438 268.935C191.438 268.941 191.438 268.948 191.438 268.955C191.438 268.961 191.438 268.968 191.438 268.975C191.438 268.982 191.438 268.988 191.438 268.995C191.438 269.002 191.438 269.008 191.438 269.015C191.438 269.022 191.438 269.029 191.438 269.035C191.438 269.042 191.438 269.049 191.438 269.055C191.438 269.062 191.438 269.069 191.438 269.076C191.438 269.082 191.438 269.089 191.438 269.096C191.438 269.103 191.438 269.109 191.438 269.116C191.438 269.123 191.438 269.129 191.438 269.136C191.438 269.143 191.438 269.15 191.438 269.156C191.438 269.163 191.438 269.17 191.438 269.176C191.438 269.183 191.438 269.19 191.438 269.197C191.438 269.203 191.438 269.21 191.438 269.217C191.438 269.224 191.438 269.23 191.438 269.237C191.438 269.244 191.438 269.25 191.438 269.257C191.438 269.264 191.438 269.271 191.438 269.277C191.438 269.284 191.438 269.291 191.438 269.298C191.438 269.304 191.438 269.311 191.438 269.318C191.438 269.324 191.438 269.331 191.438 269.338C191.438 269.345 191.438 269.351 191.438 269.358C191.438 269.365 191.438 269.372 191.438 269.378C191.438 269.385 191.438 269.392 191.438 269.399C191.438 269.405 191.438 269.412 191.438 269.419C191.438 269.425 191.438 269.432 191.438 269.439C191.438 269.446 191.438 269.452 191.438 269.459C191.438 269.466 191.438 269.473 191.438 269.479C191.438 269.486 191.438 269.493 191.438 269.5C191.438 269.506 191.438 269.513 191.438 269.52C191.438 269.527 191.438 269.533 191.438 269.54C191.438 269.547 191.438 269.554 191.438 269.56C191.438 269.567 191.438 269.574 191.438 269.58C191.438 269.587 191.438 269.594 191.438 269.601C191.438 269.607 191.438 269.614 191.438 269.621C191.438 269.628 191.438 269.634 191.438 269.641C191.438 269.648 191.438 269.655 191.438 269.661C191.438 269.668 191.438 269.675 191.438 269.682C191.438 269.688 191.438 269.695 191.438 269.702C191.438 269.709 191.438 269.715 191.438 269.722C191.438 269.729 191.438 269.736 191.438 269.742C191.438 269.749 191.438 269.756 191.438 269.763C191.438 269.769 191.438 269.776 191.438 269.783C191.438 269.79 191.438 269.796 191.438 269.803C191.438 269.81 191.438 269.817 191.438 269.823C191.438 269.83 191.438 269.837 191.438 269.844C191.438 269.85 191.438 269.857 191.438 269.864C191.438 269.871 191.438 269.877 191.438 269.884C191.438 269.891 191.438 269.898 191.438 269.905C191.438 269.911 191.438 269.918 191.438 269.925C191.438 269.932 191.438 269.938 191.438 269.945C191.438 269.952 191.438 269.959 191.438 269.965C191.438 269.972 191.438 269.979 191.438 269.986C191.438 269.992 191.438 269.999 191.438 270.006C191.438 270.013 191.438 270.019 191.438 270.026C191.438 270.033 191.438 270.04 191.438 270.047C191.438 270.053 191.438 270.06 191.438 270.067C191.438 270.074 191.438 270.08 191.438 270.087C191.438 270.094 191.438 270.101 191.438 270.107C191.438 270.114 191.438 270.121 191.438 270.128C191.438 270.135 191.438 270.141 191.438 270.148C191.438 270.155 191.438 270.162 191.438 270.168C191.438 270.175 191.438 270.182 191.438 270.189C191.438 270.195 191.438 270.202 191.438 270.209C191.438 270.216 191.438 270.223 191.438 270.229C191.438 270.236 191.438 270.243 191.438 270.25C191.438 270.256 191.438 270.263 191.438 270.27C191.438 270.277 191.438 270.284 191.438 270.29C191.438 270.297 191.438 270.304 191.438 270.311C191.438 270.317 191.438 270.324 191.438 270.331C191.438 270.338 191.438 270.345 191.438 270.351C191.438 270.358 191.438 270.365 191.438 270.372C191.438 270.378 191.438 270.385 191.438 270.392C191.438 270.399 191.438 270.406 191.438 270.412C191.438 270.419 191.438 270.426 191.438 270.433C191.438 270.44 191.438 270.446 191.438 270.453C191.438 270.46 191.438 270.467 191.438 270.473C191.438 270.48 191.438 270.487 191.438 270.494C191.438 270.501 191.438 270.507 191.438 270.514C191.438 270.521 191.438 270.528 191.438 270.535C191.438 270.541 191.438 270.548 191.438 270.555C191.438 270.562 191.438 270.568 191.438 270.575C191.438 270.582 191.438 270.589 191.438 270.596C191.438 270.602 191.438 270.609 191.438 270.616C191.438 270.623 191.438 270.63 191.438 270.636C191.438 270.643 191.438 270.65 191.438 270.657C191.438 270.664 191.438 270.67 191.438 270.677C191.438 270.684 191.438 270.691 191.438 270.698C191.438 270.704 191.438 270.711 191.438 270.718C191.438 270.725 191.438 270.732 191.438 270.738C191.438 270.745 191.438 270.752 191.438 270.759C191.438 270.766 191.438 270.772 191.438 270.779C191.438 270.786 191.438 270.793 191.438 270.8C191.438 270.806 191.438 270.813 191.438 270.82C191.438 270.827 191.438 270.834 191.438 270.84C191.438 270.847 191.438 270.854 191.438 270.861C191.438 270.868 191.438 270.874 191.438 270.881C191.438 270.888 191.438 270.895 191.438 270.902C191.438 270.908 191.438 270.915 191.438 270.922C191.438 270.929 191.438 270.936 191.438 270.942C191.438 270.949 191.438 270.956 191.438 270.963C191.438 270.97 191.438 270.977 191.438 270.983C191.438 270.99 191.438 270.997 191.438 271.004C191.438 271.011 191.438 271.017 191.438 271.024C191.438 271.031 191.438 271.038 191.438 271.045C191.438 271.051 191.438 271.058 191.438 271.065C191.438 271.072 191.438 271.079 191.438 271.086C191.438 271.092 191.438 271.099 191.438 271.106C191.438 271.113 191.438 271.12 191.438 271.126C191.438 271.133 191.438 271.14 191.438 271.147C191.438 271.154 191.438 271.161 191.438 271.167C191.438 271.174 191.438 271.181 191.438 271.188C191.438 271.195 191.438 271.201 191.438 271.208C191.438 271.215 191.438 271.222 191.438 271.229C191.438 271.236 191.438 271.242 191.438 271.249C191.438 271.256 191.438 271.263 191.438 271.27C191.438 271.277 191.438 271.283 191.438 271.29C191.438 271.297 191.438 271.304 191.438 271.311C191.438 271.317 191.438 271.324 191.438 271.331C191.438 271.338 191.438 271.345 191.438 271.352C191.438 271.358 191.438 271.365 191.438 271.372C191.438 271.379 191.438 271.386 191.438 271.393C191.438 271.399 191.438 271.406 191.438 271.413C191.438 271.42 191.438 271.427 191.438 271.434C191.438 271.44 191.438 271.447 191.438 271.454C191.438 271.461 191.438 271.468 191.438 271.475C191.438 271.481 191.438 271.488 191.438 271.495C191.438 271.502 191.438 271.509 191.438 271.516C191.438 271.522 191.438 271.529 191.438 271.536C191.438 271.543 191.438 271.55 191.438 271.557C191.438 271.563 191.438 271.57 191.438 271.577C191.438 271.584 191.438 271.591 191.438 271.598C191.438 271.604 191.438 271.611 191.438 271.618C191.438 271.625 191.438 271.632 191.438 271.639C191.438 271.646 191.438 271.652 191.438 271.659C191.438 271.666 191.438 271.673 191.438 271.68C191.438 271.687 191.438 271.693 191.438 271.7C191.438 271.707 191.438 271.714 191.438 271.721C191.438 271.728 191.438 271.735 191.438 271.741C191.438 271.748 191.438 271.755 191.438 271.762C191.438 271.769 191.438 271.776 191.438 271.782C191.438 271.789 191.438 271.796 191.438 271.803C191.438 271.81 191.438 271.817 191.438 271.824C191.438 271.83 191.438 271.837 191.438 271.844C191.438 271.851 191.438 271.858 191.438 271.865C191.438 271.872 191.438 271.878 191.438 271.885C191.438 271.892 191.438 271.899 191.438 271.906C191.438 271.913 191.438 271.92 191.438 271.926C191.438 271.933 191.438 271.94 191.438 271.947C191.438 271.954 191.438 271.961 191.438 271.967C191.438 271.974 191.438 271.981 191.438 271.988C191.438 271.995 191.438 272.002 191.438 272.009C191.438 272.016 191.438 272.022 191.438 272.029C191.438 272.036 191.438 272.043 191.438 272.05C191.438 272.057 191.438 272.064 191.438 272.07C191.438 272.077 191.438 272.084 191.438 272.091C191.438 272.098 191.438 272.105 191.438 272.112C191.438 272.118 191.438 272.125 191.438 272.132C191.438 272.139 191.438 272.146 191.438 272.153C191.438 272.16 191.438 272.167 191.438 272.173C191.438 272.18 191.438 272.187 191.438 272.194C191.438 272.201 191.438 272.208 191.438 272.215C191.438 272.221 191.438 272.228 191.438 272.235C191.438 272.242 191.438 272.249 191.438 272.256C191.438 272.263 191.438 272.27 191.438 272.276C191.438 272.283 191.438 272.29 191.438 272.297C191.438 272.304 191.438 272.311 191.438 272.318C191.438 272.325 191.438 272.331 191.438 272.338C191.438 272.345 191.438 272.352 191.438 272.359C191.438 272.366 191.438 272.373 191.438 272.38C191.438 272.386 191.438 272.393 191.438 272.4C191.438 272.407 191.438 272.414 191.438 272.421C191.438 272.428 191.438 272.435 191.438 272.441C191.438 272.448 191.438 272.455 191.438 272.462C191.438 272.469 191.438 272.476 191.438 272.483C191.438 272.49 191.438 272.497 191.438 272.503C191.438 272.51 191.438 272.517 191.438 272.524C191.438 272.531 191.438 272.538 191.438 272.545C191.438 272.552 191.438 272.558 191.438 272.565C191.438 272.572 191.438 272.579 191.438 272.586C191.438 272.593 191.438 272.6 191.438 272.607C191.438 272.614 191.438 272.62 191.438 272.627C191.438 272.634 191.438 272.641 191.438 272.648C191.438 272.655 191.438 272.662 191.438 272.669C191.438 272.676 191.438 272.682 191.438 272.689C191.438 272.696 191.438 272.703 191.438 272.71C191.438 272.717 191.438 272.724 191.438 272.731C191.438 272.738 191.438 272.745 191.438 272.751C191.438 272.758 191.438 272.765 191.438 272.772C191.438 272.779 191.438 272.786 191.438 272.793C191.438 272.8 191.438 272.807 191.438 272.813C191.438 272.82 191.438 272.827 191.438 272.834C191.438 272.841 191.438 272.848 191.438 272.855C191.438 272.862 191.438 272.869 191.438 272.876C191.438 272.882 191.438 272.889 191.438 272.896C191.438 272.903 191.438 272.91 191.438 272.917C191.438 272.924 191.438 272.931 191.438 272.938C191.438 272.945 191.438 272.952 191.438 272.958C191.438 272.965 191.438 272.972 191.438 272.979C191.438 272.986 191.438 272.993 191.438 273C191.438 273.007 191.438 273.014 191.438 273.021C191.438 273.027 191.438 273.034 191.438 273.041C191.438 273.048 191.438 273.055 191.438 273.062C191.438 273.069 191.438 273.076 191.438 273.083C191.438 273.09 191.438 273.097 191.438 273.103C191.438 273.11 191.438 273.117 191.438 273.124C191.438 273.131 191.438 273.138 191.438 273.145C191.438 273.152 191.438 273.159 191.438 273.166C191.438 273.173 191.438 273.18 191.438 273.186C191.438 273.193 191.438 273.2 191.438 273.207C191.438 273.214 191.438 273.221 191.438 273.228C191.438 273.235 191.438 273.242 191.438 273.249C191.438 273.256 191.438 273.263 191.438 273.269C191.438 273.276 191.438 273.283 191.438 273.29C191.438 273.297 191.438 273.304 191.438 273.311C191.438 273.318 191.438 273.325 191.438 273.332C191.438 273.339 191.438 273.346 191.438 273.353C191.438 273.359 191.438 273.366 191.438 273.373C191.438 273.38 191.438 273.387 191.438 273.394C191.438 273.401 191.438 273.408 191.438 273.415C191.438 273.422 191.438 273.429 191.438 273.436C191.438 273.443 191.438 273.449 191.438 273.456C191.438 273.463 191.438 273.47 191.438 273.477C191.438 273.484 191.438 273.491 191.438 273.498C191.438 273.505 191.438 273.512 191.438 273.519C191.438 273.526 191.438 273.533 191.438 273.54C191.438 273.546 191.438 273.553 191.438 273.56C191.438 273.567 191.438 273.574 191.438 273.581C191.438 273.588 191.438 273.595 191.438 273.602C191.438 273.609 191.438 273.616 191.438 273.623C191.438 273.63 191.438 273.637 191.438 273.644C191.438 273.651 191.438 273.657 191.438 273.664C191.438 273.671 191.438 273.678 191.438 273.685C191.438 273.692 191.438 273.699 191.438 273.706C191.438 273.713 191.438 273.72 191.438 273.727C191.438 273.734 191.438 273.741 191.438 273.748C191.438 273.755 191.438 273.762 191.438 273.768C191.438 273.775 191.438 273.782 191.438 273.789C191.438 273.796 191.438 273.803 191.438 273.81C191.438 273.817 191.438 273.824 191.438 273.831C191.438 273.838 191.438 273.845 191.438 273.852C191.438 273.859 191.438 273.866 191.438 273.873C191.438 273.88 191.438 273.887 191.438 273.894C191.438 273.9 191.438 273.907 191.438 273.914C191.438 273.921 191.438 273.928 191.438 273.935C191.438 273.942 191.438 273.949 191.438 273.956C191.438 273.963 191.438 273.97 191.438 273.977C191.438 273.984 191.438 273.991 191.438 273.998C191.438 274.005 191.438 274.012 191.438 274.019C191.438 274.026 191.438 274.033 191.438 274.04C191.438 274.046 191.438 274.053 191.438 274.06C191.438 274.067 191.438 274.074 191.438 274.081C191.438 274.088 191.438 274.095 191.438 274.102C191.438 274.109 191.438 274.116 191.438 274.123C191.438 274.13 191.438 274.137 191.438 274.144C191.438 274.151 191.438 274.158 191.438 274.165C191.438 274.172 191.438 274.179 191.438 274.186C191.438 274.193 191.438 274.2 191.438 274.207C191.438 274.214 191.438 274.22 191.438 274.227C191.438 274.234 191.438 274.241 191.438 274.248C191.438 274.255 191.438 274.262 191.438 274.269C191.438 274.276 191.438 274.283 191.438 274.29C191.438 274.297 191.438 274.304 191.438 274.311C191.438 274.318 191.438 274.325 191.438 274.332C191.438 274.339 191.438 274.346 191.438 274.353C191.438 274.36 191.438 274.367 191.438 274.374C191.438 274.381 191.438 274.388 191.438 274.395C191.438 274.402 191.438 274.409 191.438 274.416C191.438 274.423 191.438 274.43 191.438 274.437C191.438 274.443 191.438 274.45 191.438 274.457C191.438 274.464 191.438 274.471 191.438 274.478C191.438 274.485 191.438 274.492 191.438 274.499C191.438 274.506 191.438 274.513 191.438 274.52C191.438 274.527 191.438 274.534 191.438 274.541C191.438 274.548 191.438 274.555 191.438 274.562C191.438 274.569 191.438 274.576 191.438 274.583C191.438 274.59 191.438 274.597 191.438 274.604C191.438 274.611 191.438 274.618 191.438 274.625C191.438 274.632 191.438 274.639 191.438 274.646C191.438 274.653 191.438 274.66 191.438 274.667C191.438 274.674 191.438 274.681 191.438 274.688C191.438 274.695 191.438 274.702 191.438 274.709C191.438 274.716 191.438 274.723 191.438 274.73C191.438 274.737 191.438 274.744 191.438 274.751C191.438 274.758 191.438 274.765 191.438 274.772C191.438 274.779 191.438 274.786 191.438 274.793C191.438 274.8 191.438 274.807 191.438 274.814C191.438 274.821 191.438 274.828 191.438 274.835C191.438 274.842 191.438 274.849 191.438 274.856C191.438 274.863 191.438 274.87 191.438 274.877C191.438 274.884 191.438 274.891 191.438 274.898C191.438 274.905 191.438 274.912 191.438 274.919C191.438 274.926 191.438 274.933 191.438 274.94C191.438 274.947 191.438 274.953 191.438 274.96C191.438 274.967 191.438 274.974 191.438 274.981C191.438 274.988 191.438 274.995 191.438 275.002C191.438 275.009 191.438 275.016 191.438 275.023C191.438 275.031 191.438 275.038 191.438 275.045C191.438 275.052 191.438 275.059 191.438 275.066C191.438 275.073 191.438 275.08 191.438 275.087C191.438 275.094 191.438 275.101 191.438 275.108C191.438 275.115 191.438 275.122 191.438 275.129C191.438 275.136 191.438 275.143 191.438 275.15C191.438 275.157 191.438 275.164 191.438 275.171H195.072H198.706C198.706 275.164 198.706 275.157 198.706 275.15C198.706 275.143 198.706 275.136 198.706 275.129C198.706 275.122 198.706 275.115 198.706 275.108C198.706 275.101 198.706 275.094 198.706 275.087C198.706 275.08 198.706 275.073 198.706 275.066C198.706 275.059 198.706 275.052 198.706 275.045C198.706 275.038 198.706 275.031 198.706 275.023C198.706 275.016 198.706 275.009 198.706 275.002C198.706 274.995 198.706 274.988 198.706 274.981C198.706 274.974 198.706 274.967 198.706 274.96C198.706 274.953 198.706 274.947 198.706 274.94C198.706 274.933 198.706 274.926 198.706 274.919C198.706 274.912 198.706 274.905 198.706 274.898C198.706 274.891 198.706 274.884 198.706 274.877C198.706 274.87 198.706 274.863 198.706 274.856C198.706 274.849 198.706 274.842 198.706 274.835C198.706 274.828 198.706 274.821 198.706 274.814C198.706 274.807 198.706 274.8 198.706 274.793C198.706 274.786 198.706 274.779 198.706 274.772C198.706 274.765 198.706 274.758 198.706 274.751C198.706 274.744 198.706 274.737 198.706 274.73C198.706 274.723 198.706 274.716 198.706 274.709C198.706 274.702 198.706 274.695 198.706 274.688C198.706 274.681 198.706 274.674 198.706 274.667C198.706 274.66 198.706 274.653 198.706 274.646C198.706 274.639 198.706 274.632 198.706 274.625C198.706 274.618 198.706 274.611 198.706 274.604C198.706 274.597 198.706 274.59 198.706 274.583C198.706 274.576 198.706 274.569 198.706 274.562C198.706 274.555 198.706 274.548 198.706 274.541C198.706 274.534 198.706 274.527 198.706 274.52C198.706 274.513 198.706 274.506 198.706 274.499C198.706 274.492 198.706 274.485 198.706 274.478C198.706 274.471 198.706 274.464 198.706 274.457C198.706 274.45 198.706 274.443 198.706 274.437C198.706 274.43 198.706 274.423 198.706 274.416C198.706 274.409 198.706 274.402 198.706 274.395C198.706 274.388 198.706 274.381 198.706 274.374C198.706 274.367 198.706 274.36 198.706 274.353C198.706 274.346 198.706 274.339 198.706 274.332C198.706 274.325 198.706 274.318 198.706 274.311C198.706 274.304 198.706 274.297 198.706 274.29C198.706 274.283 198.706 274.276 198.706 274.269C198.706 274.262 198.706 274.255 198.706 274.248C198.706 274.241 198.706 274.234 198.706 274.227C198.706 274.22 198.706 274.214 198.706 274.207C198.706 274.2 198.706 274.193 198.706 274.186C198.706 274.179 198.706 274.172 198.706 274.165C198.706 274.158 198.706 274.151 198.706 274.144C198.706 274.137 198.706 274.13 198.706 274.123C198.706 274.116 198.706 274.109 198.706 274.102C198.706 274.095 198.706 274.088 198.706 274.081C198.706 274.074 198.706 274.067 198.706 274.06C198.706 274.053 198.706 274.046 198.706 274.04C198.706 274.033 198.706 274.026 198.706 274.019C198.706 274.012 198.706 274.005 198.706 273.998C198.706 273.991 198.706 273.984 198.706 273.977C198.706 273.97 198.706 273.963 198.706 273.956C198.706 273.949 198.706 273.942 198.706 273.935C198.706 273.928 198.706 273.921 198.706 273.914C198.706 273.907 198.706 273.9 198.706 273.894C198.706 273.887 198.706 273.88 198.706 273.873C198.706 273.866 198.706 273.859 198.706 273.852C198.706 273.845 198.706 273.838 198.706 273.831C198.706 273.824 198.706 273.817 198.706 273.81C198.706 273.803 198.706 273.796 198.706 273.789C198.706 273.782 198.706 273.775 198.706 273.768C198.706 273.762 198.706 273.755 198.706 273.748C198.706 273.741 198.706 273.734 198.706 273.727C198.706 273.72 198.706 273.713 198.706 273.706C198.706 273.699 198.706 273.692 198.706 273.685C198.706 273.678 198.706 273.671 198.706 273.664C198.706 273.657 198.706 273.651 198.706 273.644C198.706 273.637 198.706 273.63 198.706 273.623C198.706 273.616 198.706 273.609 198.706 273.602C198.706 273.595 198.706 273.588 198.706 273.581C198.706 273.574 198.706 273.567 198.706 273.56C198.706 273.553 198.706 273.546 198.706 273.54C198.706 273.533 198.706 273.526 198.706 273.519C198.706 273.512 198.706 273.505 198.706 273.498C198.706 273.491 198.706 273.484 198.706 273.477C198.706 273.47 198.706 273.463 198.706 273.456C198.706 273.449 198.706 273.443 198.706 273.436C198.706 273.429 198.706 273.422 198.706 273.415C198.706 273.408 198.706 273.401 198.706 273.394C198.706 273.387 198.706 273.38 198.706 273.373C198.706 273.366 198.706 273.359 198.706 273.353C198.706 273.346 198.706 273.339 198.706 273.332C198.706 273.325 198.706 273.318 198.706 273.311C198.706 273.304 198.706 273.297 198.706 273.29C198.706 273.283 198.706 273.276 198.706 273.269C198.706 273.263 198.706 273.256 198.706 273.249C198.706 273.242 198.706 273.235 198.706 273.228C198.706 273.221 198.706 273.214 198.706 273.207C198.706 273.2 198.706 273.193 198.706 273.186C198.706 273.18 198.706 273.173 198.706 273.166C198.706 273.159 198.706 273.152 198.706 273.145C198.706 273.138 198.706 273.131 198.706 273.124C198.706 273.117 198.706 273.11 198.706 273.103C198.706 273.097 198.706 273.09 198.706 273.083C198.706 273.076 198.706 273.069 198.706 273.062C198.706 273.055 198.706 273.048 198.706 273.041C198.706 273.034 198.706 273.027 198.706 273.021C198.706 273.014 198.706 273.007 198.706 273C198.706 272.993 198.706 272.986 198.706 272.979C198.706 272.972 198.706 272.965 198.706 272.958C198.706 272.952 198.706 272.945 198.706 272.938C198.706 272.931 198.706 272.924 198.706 272.917C198.706 272.91 198.706 272.903 198.706 272.896C198.706 272.889 198.706 272.882 198.706 272.876C198.706 272.869 198.706 272.862 198.706 272.855C198.706 272.848 198.706 272.841 198.706 272.834C198.706 272.827 198.706 272.82 198.706 272.813C198.706 272.807 198.706 272.8 198.706 272.793C198.706 272.786 198.706 272.779 198.706 272.772C198.706 272.765 198.706 272.758 198.706 272.751C198.706 272.745 198.706 272.738 198.706 272.731C198.706 272.724 198.706 272.717 198.706 272.71C198.706 272.703 198.706 272.696 198.706 272.689C198.706 272.682 198.706 272.676 198.706 272.669C198.706 272.662 198.706 272.655 198.706 272.648C198.706 272.641 198.706 272.634 198.706 272.627C198.706 272.62 198.706 272.614 198.706 272.607C198.706 272.6 198.706 272.593 198.706 272.586C198.706 272.579 198.706 272.572 198.706 272.565C198.706 272.558 198.706 272.552 198.706 272.545C198.706 272.538 198.706 272.531 198.706 272.524C198.706 272.517 198.706 272.51 198.706 272.503C198.706 272.497 198.706 272.49 198.706 272.483C198.706 272.476 198.706 272.469 198.706 272.462C198.706 272.455 198.706 272.448 198.706 272.441C198.706 272.435 198.706 272.428 198.706 272.421C198.706 272.414 198.706 272.407 198.706 272.4C198.706 272.393 198.706 272.386 198.706 272.38C198.706 272.373 198.706 272.366 198.706 272.359C198.706 272.352 198.706 272.345 198.706 272.338C198.706 272.331 198.706 272.325 198.706 272.318C198.706 272.311 198.706 272.304 198.706 272.297C198.706 272.29 198.706 272.283 198.706 272.276C198.706 272.27 198.706 272.263 198.706 272.256C198.706 272.249 198.706 272.242 198.706 272.235C198.706 272.228 198.706 272.221 198.706 272.215C198.706 272.208 198.706 272.201 198.706 272.194C198.706 272.187 198.706 272.18 198.706 272.173C198.706 272.167 198.706 272.16 198.706 272.153C198.706 272.146 198.706 272.139 198.706 272.132C198.706 272.125 198.706 272.118 198.706 272.112C198.706 272.105 198.706 272.098 198.706 272.091C198.706 272.084 198.706 272.077 198.706 272.07C198.706 272.064 198.706 272.057 198.706 272.05C198.706 272.043 198.706 272.036 198.706 272.029C198.706 272.022 198.706 272.016 198.706 272.009C198.706 272.002 198.706 271.995 198.706 271.988C198.706 271.981 198.706 271.974 198.706 271.967C198.706 271.961 198.706 271.954 198.706 271.947C198.706 271.94 198.706 271.933 198.706 271.926C198.706 271.92 198.706 271.913 198.706 271.906C198.706 271.899 198.706 271.892 198.706 271.885C198.706 271.878 198.706 271.872 198.706 271.865C198.706 271.858 198.706 271.851 198.706 271.844C198.706 271.837 198.706 271.83 198.706 271.824C198.706 271.817 198.706 271.81 198.706 271.803C198.706 271.796 198.706 271.789 198.706 271.782C198.706 271.776 198.706 271.769 198.706 271.762C198.706 271.755 198.706 271.748 198.706 271.741C198.706 271.735 198.706 271.728 198.706 271.721C198.706 271.714 198.706 271.707 198.706 271.7C198.706 271.693 198.706 271.687 198.706 271.68C198.706 271.673 198.706 271.666 198.706 271.659C198.706 271.652 198.706 271.646 198.706 271.639C198.706 271.632 198.706 271.625 198.706 271.618C198.706 271.611 198.706 271.604 198.706 271.598C198.706 271.591 198.706 271.584 198.706 271.577C198.706 271.57 198.706 271.563 198.706 271.557C198.706 271.55 198.706 271.543 198.706 271.536C198.706 271.529 198.706 271.522 198.706 271.516C198.706 271.509 198.706 271.502 198.706 271.495C198.706 271.488 198.706 271.481 198.706 271.475C198.706 271.468 198.706 271.461 198.706 271.454C198.706 271.447 198.706 271.44 198.706 271.434C198.706 271.427 198.706 271.42 198.706 271.413C198.706 271.406 198.706 271.399 198.706 271.393C198.706 271.386 198.706 271.379 198.706 271.372C198.706 271.365 198.706 271.358 198.706 271.352C198.706 271.345 198.706 271.338 198.706 271.331C198.706 271.324 198.706 271.317 198.706 271.311C198.706 271.304 198.706 271.297 198.706 271.29C198.706 271.283 198.706 271.277 198.706 271.27C198.706 271.263 198.706 271.256 198.706 271.249C198.706 271.242 198.706 271.236 198.706 271.229C198.706 271.222 198.706 271.215 198.706 271.208C198.706 271.201 198.706 271.195 198.706 271.188C198.706 271.181 198.706 271.174 198.706 271.167C198.706 271.161 198.706 271.154 198.706 271.147C198.706 271.14 198.706 271.133 198.706 271.126C198.706 271.12 198.706 271.113 198.706 271.106C198.706 271.099 198.706 271.092 198.706 271.086C198.706 271.079 198.706 271.072 198.706 271.065C198.706 271.058 198.706 271.051 198.706 271.045C198.706 271.038 198.706 271.031 198.706 271.024C198.706 271.017 198.706 271.011 198.706 271.004C198.706 270.997 198.706 270.99 198.706 270.983C198.706 270.977 198.706 270.97 198.706 270.963C198.706 270.956 198.706 270.949 198.706 270.942C198.706 270.936 198.706 270.929 198.706 270.922C198.706 270.915 198.706 270.908 198.706 270.902C198.706 270.895 198.706 270.888 198.706 270.881C198.706 270.874 198.706 270.868 198.706 270.861C198.706 270.854 198.706 270.847 198.706 270.84C198.706 270.834 198.706 270.827 198.706 270.82C198.706 270.813 198.706 270.806 198.706 270.8C198.706 270.793 198.706 270.786 198.706 270.779C198.706 270.772 198.706 270.766 198.706 270.759C198.706 270.752 198.706 270.745 198.706 270.738C198.706 270.732 198.706 270.725 198.706 270.718C198.706 270.711 198.706 270.704 198.706 270.698C198.706 270.691 198.706 270.684 198.706 270.677C198.706 270.67 198.706 270.664 198.706 270.657C198.706 270.65 198.706 270.643 198.706 270.636C198.706 270.63 198.706 270.623 198.706 270.616C198.706 270.609 198.706 270.602 198.706 270.596C198.706 270.589 198.706 270.582 198.706 270.575C198.706 270.568 198.706 270.562 198.706 270.555C198.706 270.548 198.706 270.541 198.706 270.535C198.706 270.528 198.706 270.521 198.706 270.514C198.706 270.507 198.706 270.501 198.706 270.494C198.706 270.487 198.706 270.48 198.706 270.473C198.706 270.467 198.706 270.46 198.706 270.453C198.706 270.446 198.706 270.44 198.706 270.433C198.706 270.426 198.706 270.419 198.706 270.412C198.706 270.406 198.706 270.399 198.706 270.392C198.706 270.385 198.706 270.378 198.706 270.372C198.706 270.365 198.706 270.358 198.706 270.351C198.706 270.345 198.706 270.338 198.706 270.331C198.706 270.324 198.706 270.317 198.706 270.311C198.706 270.304 198.706 270.297 198.706 270.29C198.706 270.284 198.706 270.277 198.706 270.27C198.706 270.263 198.706 270.256 198.706 270.25C198.706 270.243 198.706 270.236 198.706 270.229C198.706 270.223 198.706 270.216 198.706 270.209C198.706 270.202 198.706 270.195 198.706 270.189C198.706 270.182 198.706 270.175 198.706 270.168C198.706 270.162 198.706 270.155 198.706 270.148C198.706 270.141 198.706 270.135 198.706 270.128C198.706 270.121 198.706 270.114 198.706 270.107C198.706 270.101 198.706 270.094 198.706 270.087C198.706 270.08 198.706 270.074 198.706 270.067C198.706 270.06 198.706 270.053 198.706 270.047C198.706 270.04 198.706 270.033 198.706 270.026C198.706 270.019 198.706 270.013 198.706 270.006C198.706 269.999 198.706 269.992 198.706 269.986C198.706 269.979 198.706 269.972 198.706 269.965C198.706 269.959 198.706 269.952 198.706 269.945C198.706 269.938 198.706 269.932 198.706 269.925C198.706 269.918 198.706 269.911 198.706 269.905C198.706 269.898 198.706 269.891 198.706 269.884C198.706 269.877 198.706 269.871 198.706 269.864C198.706 269.857 198.706 269.85 198.706 269.844C198.706 269.837 198.706 269.83 198.706 269.823C198.706 269.817 198.706 269.81 198.706 269.803C198.706 269.796 198.706 269.79 198.706 269.783C198.706 269.776 198.706 269.769 198.706 269.763C198.706 269.756 198.706 269.749 198.706 269.742C198.706 269.736 198.706 269.729 198.706 269.722C198.706 269.715 198.706 269.709 198.706 269.702C198.706 269.695 198.706 269.688 198.706 269.682C198.706 269.675 198.706 269.668 198.706 269.661C198.706 269.655 198.706 269.648 198.706 269.641C198.706 269.634 198.706 269.628 198.706 269.621C198.706 269.614 198.706 269.607 198.706 269.601C198.706 269.594 198.706 269.587 198.706 269.58C198.706 269.574 198.706 269.567 198.706 269.56C198.706 269.554 198.706 269.547 198.706 269.54C198.706 269.533 198.706 269.527 198.706 269.52C198.706 269.513 198.706 269.506 198.706 269.5C198.706 269.493 198.706 269.486 198.706 269.479C198.706 269.473 198.706 269.466 198.706 269.459C198.706 269.452 198.706 269.446 198.706 269.439C198.706 269.432 198.706 269.425 198.706 269.419C198.706 269.412 198.706 269.405 198.706 269.399C198.706 269.392 198.706 269.385 198.706 269.378C198.706 269.372 198.706 269.365 198.706 269.358C198.706 269.351 198.706 269.345 198.706 269.338C198.706 269.331 198.706 269.324 198.706 269.318C198.706 269.311 198.706 269.304 198.706 269.298C198.706 269.291 198.706 269.284 198.706 269.277C198.706 269.271 198.706 269.264 198.706 269.257C198.706 269.25 198.706 269.244 198.706 269.237C198.706 269.23 198.706 269.224 198.706 269.217C198.706 269.21 198.706 269.203 198.706 269.197C198.706 269.19 198.706 269.183 198.706 269.176C198.706 269.17 198.706 269.163 198.706 269.156C198.706 269.15 198.706 269.143 198.706 269.136C198.706 269.129 198.706 269.123 198.706 269.116C198.706 269.109 198.706 269.103 198.706 269.096C198.706 269.089 198.706 269.082 198.706 269.076C198.706 269.069 198.706 269.062 198.706 269.055C198.706 269.049 198.706 269.042 198.706 269.035C198.706 269.029 198.706 269.022 198.706 269.015C198.706 269.008 198.706 269.002 198.706 268.995C198.706 268.988 198.706 268.982 198.706 268.975C198.706 268.968 198.706 268.961 198.706 268.955C198.706 268.948 198.706 268.941 198.706 268.935C198.706 268.928 198.706 268.921 198.706 268.914C198.706 268.908 198.706 268.901 198.706 268.894C198.706 268.888 198.706 268.881 198.706 268.874C198.706 268.867 198.706 268.861 198.706 268.854C198.706 268.847 198.706 268.841 198.706 268.834C198.706 268.827 198.706 268.821 198.706 268.814C198.706 268.807 198.706 268.8 198.706 268.794C198.706 268.787 198.706 268.78 198.706 268.774C198.706 268.767 198.706 268.76 198.706 268.753C198.706 268.747 198.706 268.74 198.706 268.733C198.706 268.727 198.706 268.72 198.706 268.713C198.706 268.707 198.706 268.7 198.706 268.693C198.706 268.686 198.706 268.68 198.706 268.673C198.706 268.666 198.706 268.66 198.706 268.653C198.706 268.646 198.706 268.64 198.706 268.633C198.706 268.626 198.706 268.619 198.706 268.613C198.706 268.606 198.706 268.599 198.706 268.593C198.706 268.586 198.706 268.579 198.706 268.573C198.706 268.566 198.706 268.559 198.706 268.553C198.706 268.546 198.706 268.539 198.706 268.532C198.706 268.526 198.706 268.519 198.706 268.512C198.706 268.506 198.706 268.499 198.706 268.492C198.706 268.486 198.706 268.479 198.706 268.472C198.706 268.466 198.706 268.459 198.706 268.452C198.706 268.445 198.706 268.439 198.706 268.432C198.706 268.425 198.706 268.419 198.706 268.412C198.706 268.405 198.706 268.399 198.706 268.392C198.706 268.385 198.706 268.379 198.706 268.372C198.706 268.365 198.706 268.359 198.706 268.352C198.706 268.345 198.706 268.339 198.706 268.332C198.706 268.325 198.706 268.318 198.706 268.312C198.706 268.305 198.706 268.298 198.706 268.292C198.706 268.285 198.706 268.278 198.706 268.272C198.706 268.265 198.706 268.258 198.706 268.252C198.706 268.245 198.706 268.238 198.706 268.232C198.706 268.225 198.706 268.218 198.706 268.212C198.706 268.205 198.706 268.198 198.706 268.192C198.706 268.185 198.706 268.178 198.706 268.172C198.706 268.165 198.706 268.158 198.706 268.152C198.706 268.145 198.706 268.138 198.706 268.131C198.706 268.125 198.706 268.118 198.706 268.111C198.706 268.105 198.706 268.098 198.706 268.091C198.706 268.085 198.706 268.078 198.706 268.071C198.706 268.065 198.706 268.058 198.706 268.051C198.706 268.045 198.706 268.038 198.706 268.031C198.706 268.025 198.706 268.018 198.706 268.011C198.706 268.005 198.706 267.998 198.706 267.991C198.706 267.985 198.706 267.978 198.706 267.971C198.706 267.965 198.706 267.958 198.706 267.951C198.706 267.945 198.706 267.938 198.706 267.931C198.706 267.925 198.706 267.918 198.706 267.911C198.706 267.905 198.706 267.898 198.706 267.891C198.706 267.885 198.706 267.878 198.706 267.871C198.706 267.865 198.706 267.858 198.706 267.852C198.706 267.845 198.706 267.838 198.706 267.832C198.706 267.825 198.706 267.818 198.706 267.812C198.706 267.805 198.706 267.798 198.706 267.792C198.706 267.785 198.706 267.778 198.706 267.772C198.706 267.765 198.706 267.758 198.706 267.752C198.706 267.745 198.706 267.738 198.706 267.732C198.706 267.725 198.706 267.718 198.706 267.712C198.706 267.705 198.706 267.698 198.706 267.692C198.706 267.685 198.706 267.678 198.706 267.672C198.706 267.665 198.706 267.659 198.706 267.652C198.706 267.645 198.706 267.639 198.706 267.632C198.706 267.625 198.706 267.619 198.706 267.612C198.706 267.605 198.706 267.599 198.706 267.592C198.706 267.585 198.706 267.579 198.706 267.572C198.706 267.565 198.706 267.559 198.706 267.552C198.706 267.546 198.706 267.539 198.706 267.532C198.706 267.526 198.706 267.519 198.706 267.512C198.706 267.506 198.706 267.499 198.706 267.492C198.706 267.486 198.706 267.479 198.706 267.472C198.706 267.466 198.706 267.459 198.706 267.453C198.706 267.446 198.706 267.439 198.706 267.433C198.706 267.426 198.706 267.419 198.706 267.413C198.706 267.406 198.706 267.399 198.706 267.393C198.706 267.386 198.706 267.38 198.706 267.373C198.706 267.366 198.706 267.36 198.706 267.353C198.706 267.346 198.706 267.34 198.706 267.333C198.706 267.326 198.706 267.32 198.706 267.313C198.706 267.307 198.706 267.3 198.706 267.293C198.706 267.287 198.706 267.28 198.706 267.273C198.706 267.267 198.706 267.26 198.706 267.253C198.706 267.247 198.706 267.24 198.706 267.234C198.706 267.227 198.706 267.22 198.706 267.214C198.706 267.207 198.706 267.2 198.706 267.194C198.706 267.187 198.706 267.181 198.706 267.174C198.706 267.167 198.706 267.161 198.706 267.154C198.706 267.147 198.706 267.141 198.706 267.134C198.706 267.128 198.706 267.121 198.706 267.114C198.706 267.108 198.706 267.101 198.706 267.094C198.706 267.088 198.706 267.081 198.706 267.075C198.706 267.068 198.706 267.061 198.706 267.055C198.706 267.048 198.706 267.041 198.706 267.035C198.706 267.028 198.706 267.022 198.706 267.015C198.706 267.008 198.706 267.002 198.706 266.995C198.706 266.989 198.706 266.982 198.706 266.975C198.706 266.969 198.706 266.962 198.706 266.955C198.706 266.949 198.706 266.942 198.706 266.936C198.706 266.929 198.706 266.922 198.706 266.916C198.706 266.909 198.706 266.903 198.706 266.896C198.706 266.889 198.706 266.883 198.706 266.876C198.706 266.869 198.706 266.863 198.706 266.856C198.706 266.85 198.706 266.843 198.706 266.836C198.706 266.83 198.706 266.823 198.706 266.817C198.706 266.81 198.706 266.803 198.706 266.797C198.706 266.79 198.706 266.784 198.706 266.777C198.706 266.77 198.706 266.764 198.706 266.757C198.706 266.751 198.706 266.744 198.706 266.737C198.706 266.731 198.706 266.724 198.706 266.718C198.706 266.711 198.706 266.704 198.706 266.698C198.706 266.691 198.706 266.685 198.706 266.678C198.706 266.671 198.706 266.665 198.706 266.658C198.706 266.652 198.706 266.645 198.706 266.638C198.706 266.632 198.706 266.625 198.706 266.619C198.706 266.612 198.706 266.605 198.706 266.599C198.706 266.592 198.706 266.586 198.706 266.579C198.706 266.572 198.706 266.566 198.706 266.559C198.706 266.553 198.706 266.546 198.706 266.539C198.706 266.533 198.706 266.526 198.706 266.52C198.706 266.513 198.706 266.506 198.706 266.5C198.706 266.493 198.706 266.487 198.706 266.48C198.706 266.473 198.706 266.467 198.706 266.46C198.706 266.454 198.706 266.447 198.706 266.44C198.706 266.434 198.706 266.427 198.706 266.421C198.706 266.414 198.706 266.408 198.706 266.401C198.706 266.394 198.706 266.388 198.706 266.381C198.706 266.375 198.706 266.368 198.706 266.361C198.706 266.355 198.706 266.348 198.706 266.342C198.706 266.335 198.706 266.328 198.706 266.322C198.706 266.315 198.706 266.309 198.706 266.302C198.706 266.296 198.706 266.289 198.706 266.282C198.706 266.276 198.706 266.269 198.706 266.263C198.706 266.256 198.706 266.249 198.706 266.243C198.706 266.236 198.706 266.23 198.706 266.223C198.706 266.217 198.706 266.21 198.706 266.203C198.706 266.197 198.706 266.19 198.706 266.184C198.706 266.177 198.706 266.171 198.706 266.164C198.706 266.157 198.706 266.151 198.706 266.144C198.706 266.138 198.706 266.131 198.706 266.125C198.706 266.118 198.706 266.111 198.706 266.105C198.706 266.098 198.706 266.092 198.706 266.085C198.706 266.079 198.706 266.072 198.706 266.065C198.706 266.059 198.706 266.052 198.706 266.046C198.706 266.039 198.706 266.033 198.706 266.026C198.706 266.019 198.706 266.013 198.706 266.006C198.706 266 198.706 265.993 198.706 265.987C198.706 265.98 198.706 265.973 198.706 265.967C198.706 265.96 198.706 265.954 198.706 265.947C198.706 265.941 198.706 265.934 198.706 265.927C198.706 265.921 198.706 265.914 198.706 265.908C198.706 265.901 198.706 265.895 198.706 265.888C198.706 265.881 198.706 265.875 198.706 265.868C198.706 265.862 198.706 265.855 198.706 265.849C198.706 265.842 198.706 265.836 198.706 265.829C198.706 265.822 198.706 265.816 198.706 265.809C198.706 265.803 198.706 265.796 198.706 265.79C198.706 265.783 198.706 265.777 198.706 265.77C198.706 265.763 198.706 265.757 198.706 265.75C198.706 265.744 198.706 265.737 198.706 265.731C198.706 265.724 198.706 265.718 198.706 265.711C198.706 265.704 198.706 265.698 198.706 265.691C198.706 265.685 198.706 265.678 198.706 265.672C198.706 265.665 198.706 265.659 198.706 265.652C198.706 265.645 198.706 265.639 198.706 265.632C198.706 265.626 198.706 265.619 198.706 265.613C198.706 265.606 198.706 265.6 198.706 265.593C198.706 265.587 198.706 265.58 198.706 265.573C198.706 265.567 198.706 265.56 198.706 265.554C198.706 265.547 198.706 265.541 198.706 265.534C198.706 265.528 198.706 265.521 198.706 265.515C198.706 265.508 198.706 265.501 198.706 265.495C198.706 265.488 198.706 265.482 198.706 265.475C198.706 265.469 198.706 265.462 198.706 265.456C198.706 265.449 198.706 265.443 198.706 265.436C198.706 265.429 198.706 265.423 198.706 265.416C198.706 265.41 198.706 265.403 198.706 265.397C198.706 265.39 198.706 265.384 198.706 265.377C198.706 265.371 198.706 265.364 198.706 265.358C198.706 265.351 198.706 265.344 198.706 265.338C198.706 265.331 198.706 265.325 198.706 265.318C198.706 265.312 198.706 265.305 198.706 265.299C198.706 265.292 198.706 265.286 198.706 265.279C198.706 265.273 198.706 265.266 198.706 265.26C198.706 265.253 198.706 265.246 198.706 265.24C198.706 265.233 198.706 265.227 198.706 265.22C198.706 265.214 198.706 265.207 198.706 265.201C198.706 265.194 198.706 265.188 198.706 265.181C198.706 265.175 198.706 265.168 198.706 265.162C198.706 265.155 198.706 265.149 198.706 265.142C198.706 265.136 198.706 265.129 198.706 265.122C198.706 265.116 198.706 265.109 198.706 265.103C198.706 265.096 198.706 265.09 198.706 265.083C198.706 265.077 198.706 265.07 198.706 265.064C198.706 265.057 198.706 265.051 198.706 265.044C198.706 265.038 198.706 265.031 198.706 265.025C198.706 265.018 198.706 265.012 198.706 265.005C198.706 264.999 198.706 264.992 198.706 264.986C198.706 264.979 198.706 264.972 198.706 264.966C198.706 264.959 198.706 264.953 198.706 264.946C198.706 264.94 198.706 264.933 198.706 264.927C198.706 264.92 198.706 264.914 198.706 264.907C198.706 264.901 198.706 264.894 198.706 264.888C198.706 264.881 198.706 264.875 198.706 264.868C198.706 264.862 198.706 264.855 198.706 264.849C198.706 264.842 198.706 264.836 198.706 264.829C198.706 264.823 198.706 264.816 198.706 264.81C198.706 264.803 198.706 264.797 198.706 264.79H195.072ZM195.072 275.171H191.438V281.322H195.072H198.706V275.171H195.072ZM195.072 281.322L198.284 283.022C202.708 274.665 208.354 267.302 215.23 260.917L212.757 258.254L210.284 255.591C202.807 262.534 196.663 270.55 191.86 279.622L195.072 281.322ZM212.757 258.254L215.233 260.914C222.407 254.235 230.31 248.803 238.95 244.607L237.363 241.338L235.775 238.069C226.473 242.587 217.973 248.433 210.281 255.595L212.757 258.254ZM237.363 241.338L238.988 244.588C247.947 240.109 257.408 236.746 267.379 234.503L266.582 230.958L265.784 227.412C255.25 229.782 245.232 233.34 235.737 238.088L237.363 241.338ZM266.582 230.958L267.379 234.503C277.376 232.254 287.361 231.131 297.339 231.131V227.497V223.863C286.811 223.863 276.292 225.048 265.784 227.412L266.582 230.958ZM297.339 227.497V231.131C305.312 231.131 313.018 231.879 320.463 233.368L321.175 229.804L321.888 226.241C313.954 224.654 305.769 223.863 297.339 223.863V227.497ZM321.175 229.804L320.578 233.389C328.02 234.629 335.207 236.612 342.145 239.338L343.474 235.956L344.803 232.573C337.388 229.66 329.709 227.542 321.773 226.22L321.175 229.804Z" fill="#DC4E8E" mask="url(#path-2-outside-1_134_83)"/>
<defs>
<filter id="filter0_d_134_83" x="0.392633" y="0.691219" width="572.774" height="572.774" filterUnits="userSpaceOnUse" color-interpolation-filters="sRGB">
<feFlood flood-opacity="0" result="BackgroundImageFix"/>
<feColorMatrix in="SourceAlpha" type="matrix" values="0 0 0 0 0 0 0 0 0 0 0 0 0 0 0 0 0 0 127 0" result="hardAlpha"/>
<feMorphology radius="11.3088" operator="dilate" in="SourceAlpha" result="effect1_dropShadow_134_83"/>
<feOffset dy="15.0784"/>
<feGaussianBlur stdDeviation="7.53919"/>
<feComposite in2="hardAlpha" operator="out"/>
<feColorMatrix type="matrix" values="0 0 0 0 0.12549 0 0 0 0 0.278431 0 0 0 0 0.27451 0 0 0 0.28 0"/>
<feBlend mode="normal" in2="BackgroundImageFix" result="effect1_dropShadow_134_83"/>
<feBlend mode="normal" in="SourceGraphic" in2="effect1_dropShadow_134_83" result="shape"/>
</filter>
</defs>
</svg>
