<svg width="574" height="574" viewBox="0 0 574 574" fill="none" xmlns="http://www.w3.org/2000/svg">
<g filter="url(#filter0_d_134_86)">
<rect x="27" y="12" width="520" height="520" rx="73.7215" fill="white"/>
</g>
<mask id="path-2-outside-1_134_86" maskUnits="userSpaceOnUse" x="177.138" y="126.497" width="188" height="303" fill="black">
<rect fill="white" x="177.138" y="126.497" width="188" height="303"/>
<path d="M352.612 136.38C358.25 137.662 361.07 142.403 361.07 150.605C359.788 158.038 357.61 167.65 354.534 179.44C351.458 190.974 347.998 203.02 344.153 215.579C340.309 227.882 336.464 239.8 332.62 251.334C328.775 262.612 325.571 271.71 323.008 278.631C321.214 283.244 318.907 289.908 316.088 298.623C313.525 307.081 310.705 316.436 307.63 326.688C304.554 336.941 301.478 347.449 298.402 358.214C295.583 368.723 292.892 378.334 290.329 387.049C287.766 395.763 285.715 402.94 284.177 408.579C282.64 414.218 281.871 417.165 281.871 417.421C281.358 419.728 279.948 421.65 277.642 423.188C275.591 424.726 272.644 425.367 268.799 425.111C266.492 424.342 264.57 422.804 263.032 420.497C261.494 418.447 260.853 415.499 261.11 411.654C261.366 410.886 262.263 407.554 263.801 401.658C265.595 395.763 267.646 388.459 269.952 379.744C272.515 370.773 275.335 361.034 278.41 350.525C281.486 339.76 284.434 329.38 287.253 319.384C290.329 309.131 293.148 299.776 295.711 291.318C298.531 282.604 300.966 275.811 303.016 270.942C305.579 264.278 308.527 255.948 311.859 245.952C315.191 235.956 318.394 225.575 321.47 214.81C324.802 204.045 327.878 193.408 330.697 182.9C333.773 172.391 336.208 163.42 338.002 155.988C332.62 155.219 325.187 154.45 315.703 153.681C306.476 152.912 295.711 152.527 283.408 152.527C273.412 152.527 263.16 152.912 252.652 153.681C242.143 154.45 232.403 155.219 223.432 155.988C214.718 156.756 207.413 157.525 201.518 158.294C195.623 159.063 192.419 159.448 191.907 159.448C189.344 159.448 187.037 158.551 184.986 156.756C182.936 154.962 181.654 152.271 181.142 148.683C181.142 146.12 182.039 143.941 183.833 142.147C185.371 140.096 187.549 138.815 190.369 138.302C190.881 138.302 194.085 137.918 199.98 137.149C205.875 136.38 213.18 135.611 221.895 134.842C230.865 133.817 240.733 132.92 251.498 132.151C262.263 131.382 272.9 130.998 283.408 130.998C304.169 130.998 320.701 131.895 333.004 133.689C345.563 135.483 352.099 136.38 352.612 136.38Z"/>
</mask>
<path d="M352.612 136.38C358.25 137.662 361.07 142.403 361.07 150.605C359.788 158.038 357.61 167.65 354.534 179.44C351.458 190.974 347.998 203.02 344.153 215.579C340.309 227.882 336.464 239.8 332.62 251.334C328.775 262.612 325.571 271.71 323.008 278.631C321.214 283.244 318.907 289.908 316.088 298.623C313.525 307.081 310.705 316.436 307.63 326.688C304.554 336.941 301.478 347.449 298.402 358.214C295.583 368.723 292.892 378.334 290.329 387.049C287.766 395.763 285.715 402.94 284.177 408.579C282.64 414.218 281.871 417.165 281.871 417.421C281.358 419.728 279.948 421.65 277.642 423.188C275.591 424.726 272.644 425.367 268.799 425.111C266.492 424.342 264.57 422.804 263.032 420.497C261.494 418.447 260.853 415.499 261.11 411.654C261.366 410.886 262.263 407.554 263.801 401.658C265.595 395.763 267.646 388.459 269.952 379.744C272.515 370.773 275.335 361.034 278.41 350.525C281.486 339.76 284.434 329.38 287.253 319.384C290.329 309.131 293.148 299.776 295.711 291.318C298.531 282.604 300.966 275.811 303.016 270.942C305.579 264.278 308.527 255.948 311.859 245.952C315.191 235.956 318.394 225.575 321.47 214.81C324.802 204.045 327.878 193.408 330.697 182.9C333.773 172.391 336.208 163.42 338.002 155.988C332.62 155.219 325.187 154.45 315.703 153.681C306.476 152.912 295.711 152.527 283.408 152.527C273.412 152.527 263.16 152.912 252.652 153.681C242.143 154.45 232.403 155.219 223.432 155.988C214.718 156.756 207.413 157.525 201.518 158.294C195.623 159.063 192.419 159.448 191.907 159.448C189.344 159.448 187.037 158.551 184.986 156.756C182.936 154.962 181.654 152.271 181.142 148.683C181.142 146.12 182.039 143.941 183.833 142.147C185.371 140.096 187.549 138.815 190.369 138.302C190.881 138.302 194.085 137.918 199.98 137.149C205.875 136.38 213.18 135.611 221.895 134.842C230.865 133.817 240.733 132.92 251.498 132.151C262.263 131.382 272.9 130.998 283.408 130.998C304.169 130.998 320.701 131.895 333.004 133.689C345.563 135.483 352.099 136.38 352.612 136.38Z" fill="#FF6835"/>
<path d="M352.612 136.38L353.417 132.836L353.019 132.746H352.612V136.38ZM361.07 150.605L364.651 151.223L364.704 150.916V150.605H361.07ZM354.534 179.44L358.045 180.376L358.048 180.367L358.05 180.357L354.534 179.44ZM344.153 215.579L347.622 216.663L347.625 216.653L347.628 216.643L344.153 215.579ZM332.62 251.334L336.059 252.507L336.063 252.495L336.067 252.483L332.62 251.334ZM323.008 278.631L326.395 279.948L326.406 279.92L326.416 279.893L323.008 278.631ZM316.088 298.623L312.63 297.504L312.62 297.536L312.61 297.569L316.088 298.623ZM298.402 358.214L294.908 357.216L294.9 357.244L294.893 357.273L298.402 358.214ZM290.329 387.049L286.842 386.024L290.329 387.049ZM284.177 408.579L280.671 407.623L284.177 408.579ZM281.871 417.421L285.418 418.21L285.505 417.82V417.421H281.871ZM277.642 423.188L275.626 420.165L275.542 420.221L275.461 420.281L277.642 423.188ZM268.799 425.111L267.65 428.558L268.092 428.706L268.557 428.737L268.799 425.111ZM263.032 420.497L266.056 418.481L266 418.397L265.939 418.317L263.032 420.497ZM261.11 411.654L257.662 410.505L257.515 410.948L257.484 411.413L261.11 411.654ZM263.801 401.658L260.324 400.6L260.303 400.67L260.285 400.741L263.801 401.658ZM269.952 379.744L266.458 378.746L266.448 378.78L266.439 378.814L269.952 379.744ZM278.41 350.525L281.898 351.546L281.901 351.535L281.905 351.523L278.41 350.525ZM287.253 319.384L283.772 318.339L283.764 318.368L283.755 318.397L287.253 319.384ZM295.711 291.318L292.254 290.199L292.243 290.232L292.233 290.264L295.711 291.318ZM303.016 270.942L306.365 272.352L306.387 272.299L306.408 272.246L303.016 270.942ZM321.47 214.81L317.999 213.736L317.987 213.774L317.976 213.812L321.47 214.81ZM330.697 182.9L327.21 181.879L327.198 181.918L327.187 181.958L330.697 182.9ZM338.002 155.988L341.535 156.84L342.472 152.955L338.516 152.39L338.002 155.988ZM315.703 153.681L315.401 157.302L315.41 157.303L315.703 153.681ZM223.432 155.988L223.122 152.367L223.113 152.368L223.432 155.988ZM201.518 158.294L201.048 154.691L201.048 154.691L201.518 158.294ZM184.986 156.756L182.593 159.491L184.986 156.756ZM181.142 148.683H177.508V148.941L177.544 149.197L181.142 148.683ZM183.833 142.147L186.403 144.717L186.585 144.534L186.74 144.327L183.833 142.147ZM190.369 138.302V134.668H190.041L189.719 134.727L190.369 138.302ZM199.98 137.149L199.51 133.545L199.98 137.149ZM221.895 134.842L222.214 138.462L222.261 138.458L222.307 138.453L221.895 134.842ZM333.004 133.689L332.48 137.285L332.49 137.286L333.004 133.689ZM352.612 136.38L351.806 139.924C353.707 140.356 354.958 141.285 355.832 142.755C356.783 144.354 357.436 146.862 357.436 150.605H361.07H364.704C364.704 146.147 363.947 142.182 362.079 139.04C360.133 135.768 357.155 133.686 353.417 132.836L352.612 136.38ZM361.07 150.605L357.488 149.988C356.232 157.278 354.081 166.779 351.017 178.522L354.534 179.44L358.05 180.357C361.138 168.52 363.345 158.798 364.651 151.223L361.07 150.605ZM354.534 179.44L351.023 178.503C347.959 189.991 344.511 201.994 340.679 214.515L344.153 215.579L347.628 216.643C351.485 204.046 354.957 191.957 358.045 180.376L354.534 179.44ZM344.153 215.579L340.685 214.495C336.847 226.777 333.009 238.674 329.172 250.185L332.62 251.334L336.067 252.483C339.919 240.926 343.771 228.986 347.622 216.663L344.153 215.579ZM332.62 251.334L329.18 250.161C325.34 261.425 322.148 270.49 319.6 277.369L323.008 278.631L326.416 279.893C328.994 272.931 332.21 263.798 336.059 252.507L332.62 251.334ZM323.008 278.631L319.621 277.314C317.789 282.026 315.456 288.769 312.63 297.504L316.088 298.623L319.545 299.741C322.358 291.048 324.639 284.463 326.395 279.948L323.008 278.631ZM316.088 298.623L312.61 297.569C310.046 306.031 307.225 315.389 304.149 325.644L307.63 326.688L311.11 327.733C314.185 317.483 317.004 308.131 319.566 299.677L316.088 298.623ZM307.63 326.688L304.149 325.644C301.068 335.912 297.988 346.436 294.908 357.216L298.402 358.214L301.897 359.213C304.968 348.462 308.039 337.969 311.11 327.733L307.63 326.688ZM298.402 358.214L294.893 357.273C292.079 367.758 289.396 377.342 286.842 386.024L290.329 387.049L293.815 388.074C296.388 379.327 299.087 369.687 301.912 359.156L298.402 358.214ZM290.329 387.049L286.842 386.024C284.276 394.75 282.218 401.952 280.671 407.623L284.177 408.579L287.683 409.535C289.212 403.928 291.256 396.777 293.815 388.074L290.329 387.049ZM284.177 408.579L280.671 407.623C279.902 410.445 279.321 412.608 278.931 414.101C278.737 414.845 278.586 415.441 278.481 415.876C278.43 416.091 278.383 416.292 278.348 416.463C278.331 416.547 278.31 416.651 278.292 416.76C278.285 416.803 278.237 417.085 278.237 417.421H281.871H285.505C285.505 417.841 285.417 418.17 285.465 417.935C285.478 417.874 285.504 417.758 285.548 417.573C285.636 417.207 285.773 416.665 285.964 415.936C286.343 414.482 286.915 412.351 287.683 409.535L284.177 408.579ZM281.871 417.421L278.323 416.633C278.049 417.868 277.297 419.05 275.626 420.165L277.642 423.188L279.657 426.212C282.599 424.251 284.667 421.588 285.418 418.21L281.871 417.421ZM277.642 423.188L275.461 420.281C274.383 421.09 272.44 421.711 269.041 421.485L268.799 425.111L268.557 428.737C272.847 429.023 276.8 428.362 279.822 426.096L277.642 423.188ZM268.799 425.111L269.948 421.663C268.514 421.185 267.211 420.215 266.056 418.481L263.032 420.497L260.008 422.513C261.928 425.393 264.471 427.498 267.65 428.558L268.799 425.111ZM263.032 420.497L265.939 418.317C265.13 417.238 264.509 415.295 264.736 411.896L261.11 411.654L257.484 411.413C257.198 415.703 257.858 419.655 260.125 422.677L263.032 420.497ZM261.11 411.654L264.557 412.804C264.863 411.886 265.802 408.384 267.317 402.576L263.801 401.658L260.285 400.741C258.724 406.723 257.869 409.885 257.662 410.505L261.11 411.654ZM263.801 401.658L267.278 402.717C269.089 396.764 271.152 389.414 273.465 380.674L269.952 379.744L266.439 378.814C264.139 387.503 262.101 394.762 260.324 400.6L263.801 401.658ZM269.952 379.744L273.447 380.742C276.007 371.78 278.824 362.048 281.898 351.546L278.41 350.525L274.923 349.504C271.845 360.019 269.024 369.766 266.458 378.746L269.952 379.744ZM278.41 350.525L281.905 351.523C284.981 340.755 287.93 330.37 290.751 320.37L287.253 319.384L283.755 318.397C280.937 328.389 277.991 338.765 274.916 349.527L278.41 350.525ZM287.253 319.384L290.734 320.428C293.809 310.178 296.627 300.826 299.189 292.372L295.711 291.318L292.233 290.264C289.669 298.726 286.849 308.085 283.772 318.339L287.253 319.384ZM295.711 291.318L299.169 292.437C301.976 283.761 304.374 277.082 306.365 272.352L303.016 270.942L299.667 269.531C297.557 274.541 295.085 281.446 292.254 290.199L295.711 291.318ZM303.016 270.942L306.408 272.246C308.998 265.513 311.964 257.127 315.306 247.101L311.859 245.952L308.411 244.802C305.089 254.768 302.161 263.042 299.624 269.637L303.016 270.942ZM311.859 245.952L315.306 247.101C318.656 237.052 321.875 226.621 324.964 215.808L321.47 214.81L317.976 213.812C314.914 224.529 311.725 234.859 308.411 244.802L311.859 245.952ZM321.47 214.81L324.942 215.885C328.287 205.077 331.375 194.396 334.207 183.842L330.697 182.9L327.187 181.958C324.38 192.421 321.317 203.013 317.999 213.736L321.47 214.81ZM330.697 182.9L334.185 183.921C337.271 173.378 339.722 164.348 341.535 156.84L338.002 155.988L334.469 155.135C332.693 162.493 330.275 171.405 327.21 181.879L330.697 182.9ZM338.002 155.988L338.516 152.39C333.026 151.606 325.508 150.83 315.997 150.059L315.703 153.681L315.41 157.303C324.865 158.07 332.213 158.831 337.488 159.585L338.002 155.988ZM315.703 153.681L316.005 150.059C306.651 149.28 295.781 148.893 283.408 148.893V152.527V156.161C295.641 156.161 306.301 156.544 315.401 157.302L315.703 153.681ZM283.408 152.527V148.893C273.319 148.893 262.978 149.281 252.386 150.056L252.652 153.681L252.917 157.305C263.342 156.542 273.506 156.161 283.408 156.161V152.527ZM252.652 153.681L252.386 150.056C241.865 150.826 232.11 151.596 223.122 152.367L223.432 155.988L223.743 159.608C232.696 158.841 242.421 158.073 252.917 157.305L252.652 153.681ZM223.432 155.988L223.113 152.368C214.369 153.139 207.011 153.913 201.048 154.691L201.518 158.294L201.988 161.898C207.816 161.138 215.067 160.374 223.752 159.608L223.432 155.988ZM201.518 158.294L201.048 154.691C198.105 155.075 195.844 155.361 194.261 155.551C192.518 155.76 191.884 155.814 191.907 155.814V159.448V163.082C192.442 163.082 193.666 162.943 195.127 162.767C196.747 162.573 199.037 162.283 201.988 161.898L201.518 158.294ZM191.907 159.448V155.814C190.282 155.814 188.813 155.276 187.379 154.022L184.986 156.756L182.593 159.491C185.261 161.825 188.405 163.082 191.907 163.082V159.448ZM184.986 156.756L187.379 154.022C186.173 152.966 185.17 151.184 184.739 148.169L181.142 148.683L177.544 149.197C178.139 153.358 179.699 156.959 182.593 159.491L184.986 156.756ZM181.142 148.683H184.776C184.776 147.072 185.298 145.821 186.403 144.717L183.833 142.147L181.263 139.577C178.78 142.061 177.508 145.167 177.508 148.683H181.142ZM183.833 142.147L186.74 144.327C187.662 143.098 188.986 142.247 191.019 141.878L190.369 138.302L189.719 134.727C186.113 135.382 183.08 137.095 180.926 139.966L183.833 142.147ZM190.369 138.302V141.936C190.904 141.936 192.128 141.797 193.589 141.622C195.21 141.428 197.499 141.137 200.45 140.752L199.98 137.149L199.51 133.545C196.567 133.929 194.306 134.216 192.723 134.406C190.98 134.615 190.346 134.668 190.369 134.668V138.302ZM199.98 137.149L200.45 140.752C206.278 139.992 213.529 139.228 222.214 138.462L221.895 134.842L221.575 131.222C212.831 131.994 205.473 132.768 199.51 133.545L199.98 137.149ZM221.895 134.842L222.307 138.453C231.218 137.434 241.034 136.542 251.757 135.776L251.498 132.151L251.239 128.526C240.433 129.298 230.513 130.2 221.482 131.232L221.895 134.842ZM251.498 132.151L251.757 135.776C262.438 135.013 272.989 134.632 283.408 134.632V130.998V127.363C272.811 127.363 262.088 127.751 251.239 128.526L251.498 132.151ZM283.408 130.998V134.632C304.093 134.632 320.427 135.527 332.48 137.285L333.004 133.689L333.528 130.093C320.976 128.262 304.245 127.363 283.408 127.363V130.998ZM333.004 133.689L332.49 137.286C338.771 138.184 343.553 138.858 346.831 139.307C348.469 139.532 349.74 139.702 350.639 139.817C351.087 139.874 351.455 139.919 351.736 139.95C351.914 139.97 352.301 140.014 352.612 140.014V136.38V132.746C352.794 132.746 352.864 132.762 352.538 132.726C352.314 132.701 351.99 132.662 351.557 132.607C350.693 132.497 349.45 132.331 347.819 132.107C344.562 131.66 339.796 130.988 333.518 130.091L333.004 133.689Z" fill="#FF6835" mask="url(#path-2-outside-1_134_86)"/>
<defs>
<filter id="filter0_d_134_86" x="0.612848" y="0.691219" width="572.774" height="572.774" filterUnits="userSpaceOnUse" color-interpolation-filters="sRGB">
<feFlood flood-opacity="0" result="BackgroundImageFix"/>
<feColorMatrix in="SourceAlpha" type="matrix" values="0 0 0 0 0 0 0 0 0 0 0 0 0 0 0 0 0 0 127 0" result="hardAlpha"/>
<feMorphology radius="11.3088" operator="dilate" in="SourceAlpha" result="effect1_dropShadow_134_86"/>
<feOffset dy="15.0784"/>
<feGaussianBlur stdDeviation="7.53919"/>
<feComposite in2="hardAlpha" operator="out"/>
<feColorMatrix type="matrix" values="0 0 0 0 0.12549 0 0 0 0 0.278431 0 0 0 0 0.27451 0 0 0 0.28 0"/>
<feBlend mode="normal" in2="BackgroundImageFix" result="effect1_dropShadow_134_86"/>
<feBlend mode="normal" in="SourceGraphic" in2="effect1_dropShadow_134_86" result="shape"/>
</filter>
</defs>
</svg>
