<svg width="574" height="574" viewBox="0 0 574 574" fill="none" xmlns="http://www.w3.org/2000/svg">
<g filter="url(#filter0_d_132_67)">
<rect x="27.1641" y="12.2773" width="519.783" height="519.783" rx="73.6907" fill="white"/>
</g>
<mask id="path-2-outside-1_132_67" maskUnits="userSpaceOnUse" x="181.309" y="117.663" width="211" height="315" fill="black">
<rect fill="white" x="181.309" y="117.663" width="211" height="315"/>
<path d="M380.22 407.597C385.856 408.878 388.674 413.233 388.674 420.663C388.162 423.225 386.753 425.275 384.447 426.812C382.141 428.349 379.195 428.99 375.608 428.733C370.484 427.965 364.591 427.068 357.93 426.043C352.294 425.275 345.376 424.506 337.178 423.737C329.236 423.225 320.397 422.841 310.661 422.585H305.281C295.545 422.585 285.681 422.841 275.69 423.353C265.698 424.122 256.603 424.89 248.404 425.659C240.462 426.428 233.801 427.068 228.421 427.581C223.04 428.349 220.094 428.733 219.582 428.733C218.813 428.733 217.916 428.605 216.892 428.349C216.123 428.349 214.458 428.349 211.896 428.349C208.821 428.349 206.259 427.196 204.21 424.89C202.16 422.841 201.135 420.407 201.135 417.589C201.391 396.068 204.338 377.878 209.974 363.018C215.867 348.158 224.962 334.58 237.26 322.282C244.689 314.852 252.888 308.191 261.855 302.298C270.822 296.15 279.789 290.129 288.756 284.236C296.698 279.368 304.384 274.501 311.814 269.633C319.244 264.509 325.777 259.257 331.413 253.876C337.05 248.496 341.533 242.86 344.864 236.967C348.451 230.818 350.244 224.285 350.244 217.368C350.244 209.682 349.86 202.508 349.091 195.847C348.323 188.93 346.529 182.525 343.711 176.632C340.893 170.739 336.665 165.487 331.029 160.876C325.393 156.264 317.578 152.165 307.587 148.578C301.95 146.528 296.954 145.119 292.599 144.351C288.5 143.326 284.529 142.813 280.686 142.813C275.305 142.813 269.669 143.582 263.776 145.119C257.884 146.656 250.454 148.834 241.487 151.652C235.082 153.702 229.702 156.904 225.346 161.26C220.991 165.359 217.404 169.586 214.586 173.942C211.255 179.066 208.437 184.574 206.131 190.467C204.338 195.591 199.854 198.025 192.681 197.768C190.375 197 188.453 195.591 186.916 193.541C185.635 191.235 185.251 188.161 185.763 184.318C185.763 183.806 186.66 181.244 188.453 176.632C190.247 172.02 193.065 166.896 196.908 161.26C201.007 155.367 206.259 149.603 212.664 143.966C219.069 138.074 226.883 133.718 236.107 130.9C245.074 128.082 253.016 125.904 259.933 124.367C266.851 122.574 273.768 121.677 280.686 121.677C285.553 121.677 290.677 122.189 296.058 123.214C301.694 124.239 307.971 125.904 314.888 128.21C328.979 133.078 339.868 139.355 347.554 147.041C355.496 154.471 361.133 162.285 364.463 170.483C368.05 178.682 370.1 187.008 370.612 195.463C371.381 203.661 371.765 210.963 371.765 217.368C371.765 227.36 369.715 236.327 365.616 244.269C361.517 252.211 356.009 259.641 349.091 266.558C342.43 273.22 334.744 279.497 326.033 285.389C317.578 291.026 308.996 296.662 300.285 302.298C291.83 307.935 283.376 313.571 274.921 319.208C266.466 324.844 258.909 330.993 252.247 337.654C243.024 346.621 236.107 356.485 231.495 367.245C226.883 378.006 224.065 391.072 223.04 406.444C226.371 406.188 230.983 405.803 236.875 405.291C242.768 404.522 249.429 403.882 256.859 403.37C264.289 402.601 272.103 402.089 280.301 401.832C288.756 401.32 297.211 401.064 305.665 401.064H311.045C332.054 401.576 348.707 402.857 361.004 404.907C373.302 406.7 379.707 407.597 380.22 407.597Z"/>
</mask>
<path d="M380.22 407.597C385.856 408.878 388.674 413.233 388.674 420.663C388.162 423.225 386.753 425.275 384.447 426.812C382.141 428.349 379.195 428.99 375.608 428.733C370.484 427.965 364.591 427.068 357.93 426.043C352.294 425.275 345.376 424.506 337.178 423.737C329.236 423.225 320.397 422.841 310.661 422.585H305.281C295.545 422.585 285.681 422.841 275.69 423.353C265.698 424.122 256.603 424.89 248.404 425.659C240.462 426.428 233.801 427.068 228.421 427.581C223.04 428.349 220.094 428.733 219.582 428.733C218.813 428.733 217.916 428.605 216.892 428.349C216.123 428.349 214.458 428.349 211.896 428.349C208.821 428.349 206.259 427.196 204.21 424.89C202.16 422.841 201.135 420.407 201.135 417.589C201.391 396.068 204.338 377.878 209.974 363.018C215.867 348.158 224.962 334.58 237.26 322.282C244.689 314.852 252.888 308.191 261.855 302.298C270.822 296.15 279.789 290.129 288.756 284.236C296.698 279.368 304.384 274.501 311.814 269.633C319.244 264.509 325.777 259.257 331.413 253.876C337.05 248.496 341.533 242.86 344.864 236.967C348.451 230.818 350.244 224.285 350.244 217.368C350.244 209.682 349.86 202.508 349.091 195.847C348.323 188.93 346.529 182.525 343.711 176.632C340.893 170.739 336.665 165.487 331.029 160.876C325.393 156.264 317.578 152.165 307.587 148.578C301.95 146.528 296.954 145.119 292.599 144.351C288.5 143.326 284.529 142.813 280.686 142.813C275.305 142.813 269.669 143.582 263.776 145.119C257.884 146.656 250.454 148.834 241.487 151.652C235.082 153.702 229.702 156.904 225.346 161.26C220.991 165.359 217.404 169.586 214.586 173.942C211.255 179.066 208.437 184.574 206.131 190.467C204.338 195.591 199.854 198.025 192.681 197.768C190.375 197 188.453 195.591 186.916 193.541C185.635 191.235 185.251 188.161 185.763 184.318C185.763 183.806 186.66 181.244 188.453 176.632C190.247 172.02 193.065 166.896 196.908 161.26C201.007 155.367 206.259 149.603 212.664 143.966C219.069 138.074 226.883 133.718 236.107 130.9C245.074 128.082 253.016 125.904 259.933 124.367C266.851 122.574 273.768 121.677 280.686 121.677C285.553 121.677 290.677 122.189 296.058 123.214C301.694 124.239 307.971 125.904 314.888 128.21C328.979 133.078 339.868 139.355 347.554 147.041C355.496 154.471 361.133 162.285 364.463 170.483C368.05 178.682 370.1 187.008 370.612 195.463C371.381 203.661 371.765 210.963 371.765 217.368C371.765 227.36 369.715 236.327 365.616 244.269C361.517 252.211 356.009 259.641 349.091 266.558C342.43 273.22 334.744 279.497 326.033 285.389C317.578 291.026 308.996 296.662 300.285 302.298C291.83 307.935 283.376 313.571 274.921 319.208C266.466 324.844 258.909 330.993 252.247 337.654C243.024 346.621 236.107 356.485 231.495 367.245C226.883 378.006 224.065 391.072 223.04 406.444C226.371 406.188 230.983 405.803 236.875 405.291C242.768 404.522 249.429 403.882 256.859 403.37C264.289 402.601 272.103 402.089 280.301 401.832C288.756 401.32 297.211 401.064 305.665 401.064H311.045C332.054 401.576 348.707 402.857 361.004 404.907C373.302 406.7 379.707 407.597 380.22 407.597Z" fill="#91CF5F"/>
<path d="M380.22 407.597L381.025 404.055L380.627 403.964H380.22V407.597ZM388.674 420.663L392.236 421.375L392.307 421.023V420.663H388.674ZM375.608 428.733L375.069 432.326L375.208 432.347L375.349 432.357L375.608 428.733ZM357.93 426.043L358.482 422.453L358.452 422.448L358.421 422.444L357.93 426.043ZM337.178 423.737L337.517 420.121L337.464 420.116L337.412 420.112L337.178 423.737ZM310.661 422.585L310.757 418.953L310.709 418.952H310.661V422.585ZM275.69 423.353L275.504 419.725L275.457 419.728L275.411 419.731L275.69 423.353ZM248.404 425.659L248.065 422.042L248.054 422.043L248.404 425.659ZM228.421 427.581L228.076 423.964L227.991 423.972L227.907 423.984L228.421 427.581ZM216.892 428.349L217.773 424.825L217.339 424.717H216.892V428.349ZM204.21 424.89L206.925 422.477L206.854 422.397L206.778 422.322L204.21 424.89ZM201.135 417.589L197.503 417.545L197.503 417.567V417.589H201.135ZM209.974 363.018L206.597 361.679L206.587 361.704L206.578 361.73L209.974 363.018ZM237.26 322.282L234.691 319.713L237.26 322.282ZM261.855 302.298L263.85 305.334L263.88 305.314L263.909 305.294L261.855 302.298ZM288.756 284.236L286.858 281.139L286.809 281.169L286.761 281.2L288.756 284.236ZM311.814 269.633L313.805 272.671L313.841 272.648L313.876 272.623L311.814 269.633ZM344.864 236.967L341.726 235.137L341.714 235.158L341.701 235.18L344.864 236.967ZM349.091 195.847L345.481 196.248L345.482 196.256L345.483 196.263L349.091 195.847ZM307.587 148.578L306.345 151.992L306.352 151.994L306.359 151.997L307.587 148.578ZM292.599 144.351L291.718 147.875L291.842 147.906L291.968 147.928L292.599 144.351ZM241.487 151.652L240.398 148.187L240.389 148.19L240.38 148.193L241.487 151.652ZM225.346 161.26L227.836 163.905L227.876 163.867L227.915 163.828L225.346 161.26ZM214.586 173.942L217.631 175.922L217.636 175.915L214.586 173.942ZM206.131 190.467L202.748 189.143L202.724 189.204L202.703 189.267L206.131 190.467ZM192.681 197.768L191.532 201.215L192.028 201.38L192.551 201.399L192.681 197.768ZM186.916 193.541L183.741 195.305L183.861 195.522L184.01 195.721L186.916 193.541ZM185.763 184.318L189.364 184.798L189.396 184.559V184.318H185.763ZM196.908 161.26L193.926 159.185L193.916 159.199L193.907 159.214L196.908 161.26ZM212.664 143.966L215.064 146.693L215.094 146.667L215.124 146.64L212.664 143.966ZM236.107 130.9L237.168 134.374L237.182 134.37L237.196 134.366L236.107 130.9ZM259.933 124.367L260.721 127.913L260.783 127.899L260.845 127.883L259.933 124.367ZM296.058 123.214L295.378 126.782L295.393 126.785L295.408 126.788L296.058 123.214ZM314.888 128.21L316.074 124.777L316.056 124.77L316.037 124.764L314.888 128.21ZM347.554 147.041L344.985 149.609L345.028 149.652L345.072 149.693L347.554 147.041ZM364.463 170.483L361.098 171.85L361.116 171.895L361.135 171.939L364.463 170.483ZM370.612 195.463L366.986 195.682L366.99 195.742L366.995 195.802L370.612 195.463ZM326.033 285.389L328.048 288.412L328.058 288.405L328.068 288.398L326.033 285.389ZM300.285 302.298L298.312 299.249L298.291 299.262L298.27 299.276L300.285 302.298ZM274.921 319.208L276.936 322.23L274.921 319.208ZM252.247 337.654L254.779 340.259L254.798 340.241L254.816 340.223L252.247 337.654ZM223.04 406.444L219.416 406.202L219.137 410.387L223.319 410.066L223.04 406.444ZM236.875 405.291L237.19 408.91L237.268 408.903L237.345 408.893L236.875 405.291ZM256.859 403.37L257.109 406.993L257.171 406.989L257.233 406.983L256.859 403.37ZM280.301 401.832L280.415 405.463L280.468 405.461L280.521 405.458L280.301 401.832ZM311.045 401.064L311.134 397.432L311.09 397.431H311.045V401.064ZM361.004 404.907L360.407 408.49L360.444 408.496L360.48 408.501L361.004 404.907ZM380.22 407.597L379.414 411.139C381.424 411.596 382.677 412.509 383.511 413.798C384.408 415.185 385.042 417.36 385.042 420.663H388.674H392.307C392.307 416.536 391.531 412.819 389.61 409.851C387.626 406.783 384.652 404.879 381.025 404.055L380.22 407.597ZM388.674 420.663L385.112 419.951C384.801 421.506 383.99 422.751 382.432 423.789L384.447 426.812L386.462 429.834C389.515 427.799 391.522 424.944 392.236 421.375L388.674 420.663ZM384.447 426.812L382.432 423.789C380.973 424.762 378.891 425.326 375.867 425.11L375.608 428.733L375.349 432.357C379.499 432.653 383.309 431.936 386.462 429.834L384.447 426.812ZM375.608 428.733L376.147 425.141C371.028 424.373 365.14 423.477 358.482 422.453L357.93 426.043L357.378 429.634C364.042 430.659 369.939 431.556 375.069 432.326L375.608 428.733ZM357.93 426.043L358.421 422.444C352.717 421.666 345.746 420.892 337.517 420.121L337.178 423.737L336.839 427.354C345.007 428.12 351.87 428.883 357.439 429.643L357.93 426.043ZM337.178 423.737L337.412 420.112C329.415 419.597 320.529 419.21 310.757 418.953L310.661 422.585L310.565 426.216C320.265 426.471 329.057 426.854 336.944 427.362L337.178 423.737ZM310.661 422.585V418.952H305.281V422.585V426.217H310.661V422.585ZM305.281 422.585V418.952C295.481 418.952 285.556 419.21 275.504 419.725L275.69 423.353L275.876 426.981C285.807 426.472 295.609 426.217 305.281 426.217V422.585ZM275.69 423.353L275.411 419.731C265.403 420.501 256.288 421.271 248.065 422.042L248.404 425.659L248.743 429.276C256.918 428.509 265.992 427.742 275.968 426.975L275.69 423.353ZM248.404 425.659L248.054 422.043C240.113 422.812 233.454 423.452 228.076 423.964L228.421 427.581L228.765 431.197C234.148 430.684 240.811 430.043 248.754 429.275L248.404 425.659ZM228.421 427.581L227.907 423.984C225.222 424.368 223.157 424.654 221.706 424.843C220.09 425.054 219.537 425.101 219.582 425.101V428.733V432.366C220.139 432.366 221.315 432.221 222.646 432.047C224.141 431.852 226.239 431.562 228.934 431.177L228.421 427.581ZM219.582 428.733V425.101C219.197 425.101 218.608 425.034 217.773 424.825L216.892 428.349L216.011 431.873C217.224 432.177 218.429 432.366 219.582 432.366V428.733ZM216.892 428.349V424.717C216.89 424.717 216.889 424.717 216.887 424.717C216.886 424.717 216.884 424.717 216.883 424.717C216.881 424.717 216.88 424.717 216.878 424.717C216.876 424.717 216.875 424.717 216.873 424.717C216.872 424.717 216.87 424.717 216.869 424.717C216.867 424.717 216.866 424.717 216.864 424.717C216.863 424.717 216.861 424.717 216.86 424.717C216.858 424.717 216.856 424.717 216.855 424.717C216.853 424.717 216.852 424.717 216.85 424.717C216.849 424.717 216.847 424.717 216.846 424.717C216.844 424.717 216.842 424.717 216.841 424.717C216.839 424.717 216.838 424.717 216.836 424.717C216.834 424.717 216.833 424.717 216.831 424.717C216.83 424.717 216.828 424.717 216.827 424.717C216.825 424.717 216.823 424.717 216.822 424.717C216.82 424.717 216.819 424.717 216.817 424.717C216.815 424.717 216.814 424.717 216.812 424.717C216.81 424.717 216.809 424.717 216.807 424.717C216.806 424.717 216.804 424.717 216.802 424.717C216.801 424.717 216.799 424.717 216.797 424.717C216.796 424.717 216.794 424.717 216.793 424.717C216.791 424.717 216.789 424.717 216.788 424.717C216.786 424.717 216.784 424.717 216.783 424.717C216.781 424.717 216.779 424.717 216.778 424.717C216.776 424.717 216.774 424.717 216.773 424.717C216.771 424.717 216.769 424.717 216.768 424.717C216.766 424.717 216.764 424.717 216.763 424.717C216.761 424.717 216.759 424.717 216.757 424.717C216.756 424.717 216.754 424.717 216.752 424.717C216.751 424.717 216.749 424.717 216.747 424.717C216.746 424.717 216.744 424.717 216.742 424.717C216.74 424.717 216.739 424.717 216.737 424.717C216.735 424.717 216.734 424.717 216.732 424.717C216.73 424.717 216.728 424.717 216.727 424.717C216.725 424.717 216.723 424.717 216.721 424.717C216.72 424.717 216.718 424.717 216.716 424.717C216.714 424.717 216.713 424.717 216.711 424.717C216.709 424.717 216.707 424.717 216.706 424.717C216.704 424.717 216.702 424.717 216.7 424.717C216.699 424.717 216.697 424.717 216.695 424.717C216.693 424.717 216.691 424.717 216.69 424.717C216.688 424.717 216.686 424.717 216.684 424.717C216.683 424.717 216.681 424.717 216.679 424.717C216.677 424.717 216.675 424.717 216.674 424.717C216.672 424.717 216.67 424.717 216.668 424.717C216.666 424.717 216.665 424.717 216.663 424.717C216.661 424.717 216.659 424.717 216.657 424.717C216.655 424.717 216.654 424.717 216.652 424.717C216.65 424.717 216.648 424.717 216.646 424.717C216.644 424.717 216.643 424.717 216.641 424.717C216.639 424.717 216.637 424.717 216.635 424.717C216.633 424.717 216.632 424.717 216.63 424.717C216.628 424.717 216.626 424.717 216.624 424.717C216.622 424.717 216.62 424.717 216.618 424.717C216.617 424.717 216.615 424.717 216.613 424.717C216.611 424.717 216.609 424.717 216.607 424.717C216.605 424.717 216.603 424.717 216.602 424.717C216.6 424.717 216.598 424.717 216.596 424.717C216.594 424.717 216.592 424.717 216.59 424.717C216.588 424.717 216.586 424.717 216.584 424.717C216.583 424.717 216.581 424.717 216.579 424.717C216.577 424.717 216.575 424.717 216.573 424.717C216.571 424.717 216.569 424.717 216.567 424.717C216.565 424.717 216.563 424.717 216.561 424.717C216.559 424.717 216.557 424.717 216.556 424.717C216.554 424.717 216.552 424.717 216.55 424.717C216.548 424.717 216.546 424.717 216.544 424.717C216.542 424.717 216.54 424.717 216.538 424.717C216.536 424.717 216.534 424.717 216.532 424.717C216.53 424.717 216.528 424.717 216.526 424.717C216.524 424.717 216.522 424.717 216.52 424.717C216.518 424.717 216.516 424.717 216.514 424.717C216.512 424.717 216.51 424.717 216.508 424.717C216.506 424.717 216.504 424.717 216.502 424.717C216.5 424.717 216.498 424.717 216.496 424.717C216.494 424.717 216.492 424.717 216.49 424.717C216.488 424.717 216.486 424.717 216.484 424.717C216.482 424.717 216.48 424.717 216.478 424.717C216.476 424.717 216.474 424.717 216.472 424.717C216.47 424.717 216.468 424.717 216.466 424.717C216.464 424.717 216.462 424.717 216.459 424.717C216.457 424.717 216.455 424.717 216.453 424.717C216.451 424.717 216.449 424.717 216.447 424.717C216.445 424.717 216.443 424.717 216.441 424.717C216.439 424.717 216.437 424.717 216.435 424.717C216.433 424.717 216.43 424.717 216.428 424.717C216.426 424.717 216.424 424.717 216.422 424.717C216.42 424.717 216.418 424.717 216.416 424.717C216.414 424.717 216.412 424.717 216.41 424.717C216.407 424.717 216.405 424.717 216.403 424.717C216.401 424.717 216.399 424.717 216.397 424.717C216.395 424.717 216.393 424.717 216.39 424.717C216.388 424.717 216.386 424.717 216.384 424.717C216.382 424.717 216.38 424.717 216.378 424.717C216.375 424.717 216.373 424.717 216.371 424.717C216.369 424.717 216.367 424.717 216.365 424.717C216.363 424.717 216.36 424.717 216.358 424.717C216.356 424.717 216.354 424.717 216.352 424.717C216.35 424.717 216.347 424.717 216.345 424.717C216.343 424.717 216.341 424.717 216.339 424.717C216.336 424.717 216.334 424.717 216.332 424.717C216.33 424.717 216.328 424.717 216.325 424.717C216.323 424.717 216.321 424.717 216.319 424.717C216.317 424.717 216.314 424.717 216.312 424.717C216.31 424.717 216.308 424.717 216.306 424.717C216.303 424.717 216.301 424.717 216.299 424.717C216.297 424.717 216.294 424.717 216.292 424.717C216.29 424.717 216.288 424.717 216.286 424.717C216.283 424.717 216.281 424.717 216.279 424.717C216.277 424.717 216.274 424.717 216.272 424.717C216.27 424.717 216.268 424.717 216.265 424.717C216.263 424.717 216.261 424.717 216.258 424.717C216.256 424.717 216.254 424.717 216.252 424.717C216.249 424.717 216.247 424.717 216.245 424.717C216.243 424.717 216.24 424.717 216.238 424.717C216.236 424.717 216.233 424.717 216.231 424.717C216.229 424.717 216.227 424.717 216.224 424.717C216.222 424.717 216.22 424.717 216.217 424.717C216.215 424.717 216.213 424.717 216.21 424.717C216.208 424.717 216.206 424.717 216.203 424.717C216.201 424.717 216.199 424.717 216.196 424.717C216.194 424.717 216.192 424.717 216.189 424.717C216.187 424.717 216.185 424.717 216.182 424.717C216.18 424.717 216.178 424.717 216.175 424.717C216.173 424.717 216.171 424.717 216.168 424.717C216.166 424.717 216.164 424.717 216.161 424.717C216.159 424.717 216.157 424.717 216.154 424.717C216.152 424.717 216.149 424.717 216.147 424.717C216.145 424.717 216.142 424.717 216.14 424.717C216.137 424.717 216.135 424.717 216.133 424.717C216.13 424.717 216.128 424.717 216.126 424.717C216.123 424.717 216.121 424.717 216.118 424.717C216.116 424.717 216.114 424.717 216.111 424.717C216.109 424.717 216.106 424.717 216.104 424.717C216.101 424.717 216.099 424.717 216.097 424.717C216.094 424.717 216.092 424.717 216.089 424.717C216.087 424.717 216.084 424.717 216.082 424.717C216.08 424.717 216.077 424.717 216.075 424.717C216.072 424.717 216.07 424.717 216.067 424.717C216.065 424.717 216.062 424.717 216.06 424.717C216.058 424.717 216.055 424.717 216.053 424.717C216.05 424.717 216.048 424.717 216.045 424.717C216.043 424.717 216.04 424.717 216.038 424.717C216.035 424.717 216.033 424.717 216.03 424.717C216.028 424.717 216.025 424.717 216.023 424.717C216.02 424.717 216.018 424.717 216.015 424.717C216.013 424.717 216.01 424.717 216.008 424.717C216.005 424.717 216.003 424.717 216 424.717C215.998 424.717 215.995 424.717 215.993 424.717C215.99 424.717 215.988 424.717 215.985 424.717C215.983 424.717 215.98 424.717 215.978 424.717C215.975 424.717 215.973 424.717 215.97 424.717C215.967 424.717 215.965 424.717 215.962 424.717C215.96 424.717 215.957 424.717 215.955 424.717C215.952 424.717 215.95 424.717 215.947 424.717C215.944 424.717 215.942 424.717 215.939 424.717C215.937 424.717 215.934 424.717 215.932 424.717C215.929 424.717 215.926 424.717 215.924 424.717C215.921 424.717 215.919 424.717 215.916 424.717C215.914 424.717 215.911 424.717 215.908 424.717C215.906 424.717 215.903 424.717 215.901 424.717C215.898 424.717 215.895 424.717 215.893 424.717C215.89 424.717 215.887 424.717 215.885 424.717C215.882 424.717 215.88 424.717 215.877 424.717C215.874 424.717 215.872 424.717 215.869 424.717C215.867 424.717 215.864 424.717 215.861 424.717C215.859 424.717 215.856 424.717 215.853 424.717C215.851 424.717 215.848 424.717 215.845 424.717C215.843 424.717 215.84 424.717 215.837 424.717C215.835 424.717 215.832 424.717 215.829 424.717C215.827 424.717 215.824 424.717 215.821 424.717C215.819 424.717 215.816 424.717 215.813 424.717C215.811 424.717 215.808 424.717 215.805 424.717C215.803 424.717 215.8 424.717 215.797 424.717C215.795 424.717 215.792 424.717 215.789 424.717C215.787 424.717 215.784 424.717 215.781 424.717C215.778 424.717 215.776 424.717 215.773 424.717C215.77 424.717 215.768 424.717 215.765 424.717C215.762 424.717 215.759 424.717 215.757 424.717C215.754 424.717 215.751 424.717 215.748 424.717C215.746 424.717 215.743 424.717 215.74 424.717C215.738 424.717 215.735 424.717 215.732 424.717C215.729 424.717 215.727 424.717 215.724 424.717C215.721 424.717 215.718 424.717 215.716 424.717C215.713 424.717 215.71 424.717 215.707 424.717C215.704 424.717 215.702 424.717 215.699 424.717C215.696 424.717 215.693 424.717 215.691 424.717C215.688 424.717 215.685 424.717 215.682 424.717C215.679 424.717 215.677 424.717 215.674 424.717C215.671 424.717 215.668 424.717 215.665 424.717C215.663 424.717 215.66 424.717 215.657 424.717C215.654 424.717 215.651 424.717 215.649 424.717C215.646 424.717 215.643 424.717 215.64 424.717C215.637 424.717 215.635 424.717 215.632 424.717C215.629 424.717 215.626 424.717 215.623 424.717C215.62 424.717 215.618 424.717 215.615 424.717C215.612 424.717 215.609 424.717 215.606 424.717C215.603 424.717 215.6 424.717 215.598 424.717C215.595 424.717 215.592 424.717 215.589 424.717C215.586 424.717 215.583 424.717 215.58 424.717C215.578 424.717 215.575 424.717 215.572 424.717C215.569 424.717 215.566 424.717 215.563 424.717C215.56 424.717 215.557 424.717 215.554 424.717C215.552 424.717 215.549 424.717 215.546 424.717C215.543 424.717 215.54 424.717 215.537 424.717C215.534 424.717 215.531 424.717 215.528 424.717C215.525 424.717 215.523 424.717 215.52 424.717C215.517 424.717 215.514 424.717 215.511 424.717C215.508 424.717 215.505 424.717 215.502 424.717C215.499 424.717 215.496 424.717 215.493 424.717C215.49 424.717 215.487 424.717 215.484 424.717C215.482 424.717 215.479 424.717 215.476 424.717C215.473 424.717 215.47 424.717 215.467 424.717C215.464 424.717 215.461 424.717 215.458 424.717C215.455 424.717 215.452 424.717 215.449 424.717C215.446 424.717 215.443 424.717 215.44 424.717C215.437 424.717 215.434 424.717 215.431 424.717C215.428 424.717 215.425 424.717 215.422 424.717C215.419 424.717 215.416 424.717 215.413 424.717C215.41 424.717 215.407 424.717 215.404 424.717C215.401 424.717 215.398 424.717 215.395 424.717C215.392 424.717 215.389 424.717 215.386 424.717C215.383 424.717 215.38 424.717 215.377 424.717C215.374 424.717 215.371 424.717 215.368 424.717C215.365 424.717 215.362 424.717 215.359 424.717C215.356 424.717 215.353 424.717 215.35 424.717C215.347 424.717 215.344 424.717 215.341 424.717C215.337 424.717 215.334 424.717 215.331 424.717C215.328 424.717 215.325 424.717 215.322 424.717C215.319 424.717 215.316 424.717 215.313 424.717C215.31 424.717 215.307 424.717 215.304 424.717C215.301 424.717 215.298 424.717 215.294 424.717C215.291 424.717 215.288 424.717 215.285 424.717C215.282 424.717 215.279 424.717 215.276 424.717C215.273 424.717 215.27 424.717 215.267 424.717C215.263 424.717 215.26 424.717 215.257 424.717C215.254 424.717 215.251 424.717 215.248 424.717C215.245 424.717 215.242 424.717 215.238 424.717C215.235 424.717 215.232 424.717 215.229 424.717C215.226 424.717 215.223 424.717 215.22 424.717C215.217 424.717 215.213 424.717 215.21 424.717C215.207 424.717 215.204 424.717 215.201 424.717C215.198 424.717 215.194 424.717 215.191 424.717C215.188 424.717 215.185 424.717 215.182 424.717C215.179 424.717 215.175 424.717 215.172 424.717C215.169 424.717 215.166 424.717 215.163 424.717C215.16 424.717 215.156 424.717 215.153 424.717C215.15 424.717 215.147 424.717 215.144 424.717C215.14 424.717 215.137 424.717 215.134 424.717C215.131 424.717 215.128 424.717 215.124 424.717C215.121 424.717 215.118 424.717 215.115 424.717C215.111 424.717 215.108 424.717 215.105 424.717C215.102 424.717 215.099 424.717 215.095 424.717C215.092 424.717 215.089 424.717 215.086 424.717C215.082 424.717 215.079 424.717 215.076 424.717C215.073 424.717 215.069 424.717 215.066 424.717C215.063 424.717 215.06 424.717 215.056 424.717C215.053 424.717 215.05 424.717 215.047 424.717C215.043 424.717 215.04 424.717 215.037 424.717C215.034 424.717 215.03 424.717 215.027 424.717C215.024 424.717 215.02 424.717 215.017 424.717C215.014 424.717 215.011 424.717 215.007 424.717C215.004 424.717 215.001 424.717 214.997 424.717C214.994 424.717 214.991 424.717 214.987 424.717C214.984 424.717 214.981 424.717 214.978 424.717C214.974 424.717 214.971 424.717 214.968 424.717C214.964 424.717 214.961 424.717 214.958 424.717C214.954 424.717 214.951 424.717 214.948 424.717C214.944 424.717 214.941 424.717 214.938 424.717C214.934 424.717 214.931 424.717 214.928 424.717C214.924 424.717 214.921 424.717 214.917 424.717C214.914 424.717 214.911 424.717 214.907 424.717C214.904 424.717 214.901 424.717 214.897 424.717C214.894 424.717 214.891 424.717 214.887 424.717C214.884 424.717 214.88 424.717 214.877 424.717C214.874 424.717 214.87 424.717 214.867 424.717C214.864 424.717 214.86 424.717 214.857 424.717C214.853 424.717 214.85 424.717 214.847 424.717C214.843 424.717 214.84 424.717 214.836 424.717C214.833 424.717 214.829 424.717 214.826 424.717C214.823 424.717 214.819 424.717 214.816 424.717C214.812 424.717 214.809 424.717 214.806 424.717C214.802 424.717 214.799 424.717 214.795 424.717C214.792 424.717 214.788 424.717 214.785 424.717C214.781 424.717 214.778 424.717 214.775 424.717C214.771 424.717 214.768 424.717 214.764 424.717C214.761 424.717 214.757 424.717 214.754 424.717C214.75 424.717 214.747 424.717 214.743 424.717C214.74 424.717 214.736 424.717 214.733 424.717C214.73 424.717 214.726 424.717 214.723 424.717C214.719 424.717 214.716 424.717 214.712 424.717C214.709 424.717 214.705 424.717 214.702 424.717C214.698 424.717 214.695 424.717 214.691 424.717C214.688 424.717 214.684 424.717 214.681 424.717C214.677 424.717 214.674 424.717 214.67 424.717C214.666 424.717 214.663 424.717 214.659 424.717C214.656 424.717 214.652 424.717 214.649 424.717C214.645 424.717 214.642 424.717 214.638 424.717C214.635 424.717 214.631 424.717 214.628 424.717C214.624 424.717 214.621 424.717 214.617 424.717C214.613 424.717 214.61 424.717 214.606 424.717C214.603 424.717 214.599 424.717 214.596 424.717C214.592 424.717 214.588 424.717 214.585 424.717C214.581 424.717 214.578 424.717 214.574 424.717C214.571 424.717 214.567 424.717 214.563 424.717C214.56 424.717 214.556 424.717 214.553 424.717C214.549 424.717 214.545 424.717 214.542 424.717C214.538 424.717 214.535 424.717 214.531 424.717C214.527 424.717 214.524 424.717 214.52 424.717C214.517 424.717 214.513 424.717 214.509 424.717C214.506 424.717 214.502 424.717 214.498 424.717C214.495 424.717 214.491 424.717 214.488 424.717C214.484 424.717 214.48 424.717 214.477 424.717C214.473 424.717 214.469 424.717 214.466 424.717C214.462 424.717 214.458 424.717 214.455 424.717C214.451 424.717 214.447 424.717 214.444 424.717C214.44 424.717 214.436 424.717 214.433 424.717C214.429 424.717 214.425 424.717 214.422 424.717C214.418 424.717 214.414 424.717 214.411 424.717C214.407 424.717 214.403 424.717 214.4 424.717C214.396 424.717 214.392 424.717 214.389 424.717C214.385 424.717 214.381 424.717 214.377 424.717C214.374 424.717 214.37 424.717 214.366 424.717C214.363 424.717 214.359 424.717 214.355 424.717C214.351 424.717 214.348 424.717 214.344 424.717C214.34 424.717 214.337 424.717 214.333 424.717C214.329 424.717 214.325 424.717 214.322 424.717C214.318 424.717 214.314 424.717 214.31 424.717C214.307 424.717 214.303 424.717 214.299 424.717C214.295 424.717 214.292 424.717 214.288 424.717C214.284 424.717 214.28 424.717 214.277 424.717C214.273 424.717 214.269 424.717 214.265 424.717C214.262 424.717 214.258 424.717 214.254 424.717C214.25 424.717 214.246 424.717 214.243 424.717C214.239 424.717 214.235 424.717 214.231 424.717C214.227 424.717 214.224 424.717 214.22 424.717C214.216 424.717 214.212 424.717 214.208 424.717C214.205 424.717 214.201 424.717 214.197 424.717C214.193 424.717 214.189 424.717 214.186 424.717C214.182 424.717 214.178 424.717 214.174 424.717C214.17 424.717 214.166 424.717 214.163 424.717C214.159 424.717 214.155 424.717 214.151 424.717C214.147 424.717 214.143 424.717 214.14 424.717C214.136 424.717 214.132 424.717 214.128 424.717C214.124 424.717 214.12 424.717 214.116 424.717C214.113 424.717 214.109 424.717 214.105 424.717C214.101 424.717 214.097 424.717 214.093 424.717C214.089 424.717 214.085 424.717 214.082 424.717C214.078 424.717 214.074 424.717 214.07 424.717C214.066 424.717 214.062 424.717 214.058 424.717C214.054 424.717 214.05 424.717 214.047 424.717C214.043 424.717 214.039 424.717 214.035 424.717C214.031 424.717 214.027 424.717 214.023 424.717C214.019 424.717 214.015 424.717 214.011 424.717C214.007 424.717 214.004 424.717 214 424.717C213.996 424.717 213.992 424.717 213.988 424.717C213.984 424.717 213.98 424.717 213.976 424.717C213.972 424.717 213.968 424.717 213.964 424.717C213.96 424.717 213.956 424.717 213.952 424.717C213.948 424.717 213.944 424.717 213.94 424.717C213.936 424.717 213.932 424.717 213.928 424.717C213.925 424.717 213.921 424.717 213.917 424.717C213.913 424.717 213.909 424.717 213.905 424.717C213.901 424.717 213.897 424.717 213.893 424.717C213.889 424.717 213.885 424.717 213.881 424.717C213.877 424.717 213.873 424.717 213.869 424.717C213.865 424.717 213.861 424.717 213.857 424.717C213.853 424.717 213.849 424.717 213.845 424.717C213.841 424.717 213.837 424.717 213.833 424.717C213.828 424.717 213.824 424.717 213.82 424.717C213.816 424.717 213.812 424.717 213.808 424.717C213.804 424.717 213.8 424.717 213.796 424.717C213.792 424.717 213.788 424.717 213.784 424.717C213.78 424.717 213.776 424.717 213.772 424.717C213.768 424.717 213.764 424.717 213.76 424.717C213.756 424.717 213.752 424.717 213.747 424.717C213.743 424.717 213.739 424.717 213.735 424.717C213.731 424.717 213.727 424.717 213.723 424.717C213.719 424.717 213.715 424.717 213.711 424.717C213.707 424.717 213.703 424.717 213.698 424.717C213.694 424.717 213.69 424.717 213.686 424.717C213.682 424.717 213.678 424.717 213.674 424.717C213.67 424.717 213.666 424.717 213.661 424.717C213.657 424.717 213.653 424.717 213.649 424.717C213.645 424.717 213.641 424.717 213.637 424.717C213.633 424.717 213.628 424.717 213.624 424.717C213.62 424.717 213.616 424.717 213.612 424.717C213.608 424.717 213.604 424.717 213.599 424.717C213.595 424.717 213.591 424.717 213.587 424.717C213.583 424.717 213.579 424.717 213.574 424.717C213.57 424.717 213.566 424.717 213.562 424.717C213.558 424.717 213.554 424.717 213.549 424.717C213.545 424.717 213.541 424.717 213.537 424.717C213.533 424.717 213.528 424.717 213.524 424.717C213.52 424.717 213.516 424.717 213.512 424.717C213.507 424.717 213.503 424.717 213.499 424.717C213.495 424.717 213.491 424.717 213.486 424.717C213.482 424.717 213.478 424.717 213.474 424.717C213.469 424.717 213.465 424.717 213.461 424.717C213.457 424.717 213.453 424.717 213.448 424.717C213.444 424.717 213.44 424.717 213.436 424.717C213.431 424.717 213.427 424.717 213.423 424.717C213.419 424.717 213.414 424.717 213.41 424.717C213.406 424.717 213.402 424.717 213.397 424.717C213.393 424.717 213.389 424.717 213.384 424.717C213.38 424.717 213.376 424.717 213.372 424.717C213.367 424.717 213.363 424.717 213.359 424.717C213.354 424.717 213.35 424.717 213.346 424.717C213.342 424.717 213.337 424.717 213.333 424.717C213.329 424.717 213.324 424.717 213.32 424.717C213.316 424.717 213.312 424.717 213.307 424.717C213.303 424.717 213.299 424.717 213.294 424.717C213.29 424.717 213.286 424.717 213.281 424.717C213.277 424.717 213.273 424.717 213.268 424.717C213.264 424.717 213.26 424.717 213.255 424.717C213.251 424.717 213.247 424.717 213.242 424.717C213.238 424.717 213.234 424.717 213.229 424.717C213.225 424.717 213.22 424.717 213.216 424.717C213.212 424.717 213.207 424.717 213.203 424.717C213.199 424.717 213.194 424.717 213.19 424.717C213.186 424.717 213.181 424.717 213.177 424.717C213.172 424.717 213.168 424.717 213.164 424.717C213.159 424.717 213.155 424.717 213.15 424.717C213.146 424.717 213.142 424.717 213.137 424.717C213.133 424.717 213.128 424.717 213.124 424.717C213.12 424.717 213.115 424.717 213.111 424.717C213.106 424.717 213.102 424.717 213.098 424.717C213.093 424.717 213.089 424.717 213.084 424.717C213.08 424.717 213.075 424.717 213.071 424.717C213.067 424.717 213.062 424.717 213.058 424.717C213.053 424.717 213.049 424.717 213.044 424.717C213.04 424.717 213.035 424.717 213.031 424.717C213.026 424.717 213.022 424.717 213.018 424.717C213.013 424.717 213.009 424.717 213.004 424.717C213 424.717 212.995 424.717 212.991 424.717C212.986 424.717 212.982 424.717 212.977 424.717C212.973 424.717 212.968 424.717 212.964 424.717C212.959 424.717 212.955 424.717 212.95 424.717C212.946 424.717 212.941 424.717 212.937 424.717C212.932 424.717 212.928 424.717 212.923 424.717C212.919 424.717 212.914 424.717 212.91 424.717C212.905 424.717 212.901 424.717 212.896 424.717C212.892 424.717 212.887 424.717 212.883 424.717C212.878 424.717 212.874 424.717 212.869 424.717C212.864 424.717 212.86 424.717 212.855 424.717C212.851 424.717 212.846 424.717 212.842 424.717C212.837 424.717 212.833 424.717 212.828 424.717C212.824 424.717 212.819 424.717 212.814 424.717C212.81 424.717 212.805 424.717 212.801 424.717C212.796 424.717 212.792 424.717 212.787 424.717C212.782 424.717 212.778 424.717 212.773 424.717C212.769 424.717 212.764 424.717 212.759 424.717C212.755 424.717 212.75 424.717 212.746 424.717C212.741 424.717 212.736 424.717 212.732 424.717C212.727 424.717 212.723 424.717 212.718 424.717C212.713 424.717 212.709 424.717 212.704 424.717C212.7 424.717 212.695 424.717 212.69 424.717C212.686 424.717 212.681 424.717 212.676 424.717C212.672 424.717 212.667 424.717 212.662 424.717C212.658 424.717 212.653 424.717 212.649 424.717C212.644 424.717 212.639 424.717 212.635 424.717C212.63 424.717 212.625 424.717 212.621 424.717C212.616 424.717 212.611 424.717 212.607 424.717C212.602 424.717 212.597 424.717 212.593 424.717C212.588 424.717 212.583 424.717 212.579 424.717C212.574 424.717 212.569 424.717 212.565 424.717C212.56 424.717 212.555 424.717 212.55 424.717C212.546 424.717 212.541 424.717 212.536 424.717C212.532 424.717 212.527 424.717 212.522 424.717C212.518 424.717 212.513 424.717 212.508 424.717C212.503 424.717 212.499 424.717 212.494 424.717C212.489 424.717 212.484 424.717 212.48 424.717C212.475 424.717 212.47 424.717 212.466 424.717C212.461 424.717 212.456 424.717 212.451 424.717C212.447 424.717 212.442 424.717 212.437 424.717C212.432 424.717 212.428 424.717 212.423 424.717C212.418 424.717 212.413 424.717 212.409 424.717C212.404 424.717 212.399 424.717 212.394 424.717C212.389 424.717 212.385 424.717 212.38 424.717C212.375 424.717 212.37 424.717 212.366 424.717C212.361 424.717 212.356 424.717 212.351 424.717C212.346 424.717 212.342 424.717 212.337 424.717C212.332 424.717 212.327 424.717 212.322 424.717C212.318 424.717 212.313 424.717 212.308 424.717C212.303 424.717 212.298 424.717 212.294 424.717C212.289 424.717 212.284 424.717 212.279 424.717C212.274 424.717 212.269 424.717 212.265 424.717C212.26 424.717 212.255 424.717 212.25 424.717C212.245 424.717 212.24 424.717 212.236 424.717C212.231 424.717 212.226 424.717 212.221 424.717C212.216 424.717 212.211 424.717 212.206 424.717C212.202 424.717 212.197 424.717 212.192 424.717C212.187 424.717 212.182 424.717 212.177 424.717C212.172 424.717 212.167 424.717 212.163 424.717C212.158 424.717 212.153 424.717 212.148 424.717C212.143 424.717 212.138 424.717 212.133 424.717C212.128 424.717 212.123 424.717 212.119 424.717C212.114 424.717 212.109 424.717 212.104 424.717C212.099 424.717 212.094 424.717 212.089 424.717C212.084 424.717 212.079 424.717 212.074 424.717C212.069 424.717 212.065 424.717 212.06 424.717C212.055 424.717 212.05 424.717 212.045 424.717C212.04 424.717 212.035 424.717 212.03 424.717C212.025 424.717 212.02 424.717 212.015 424.717C212.01 424.717 212.005 424.717 212 424.717C211.995 424.717 211.99 424.717 211.985 424.717C211.98 424.717 211.975 424.717 211.97 424.717C211.966 424.717 211.961 424.717 211.956 424.717C211.951 424.717 211.946 424.717 211.941 424.717C211.936 424.717 211.931 424.717 211.926 424.717C211.921 424.717 211.916 424.717 211.911 424.717C211.906 424.717 211.901 424.717 211.896 424.717V428.349V431.982C211.901 431.982 211.906 431.982 211.911 431.982C211.916 431.982 211.921 431.982 211.926 431.982C211.931 431.982 211.936 431.982 211.941 431.982C211.946 431.982 211.951 431.982 211.956 431.982C211.961 431.982 211.966 431.982 211.97 431.982C211.975 431.982 211.98 431.982 211.985 431.982C211.99 431.982 211.995 431.982 212 431.982C212.005 431.982 212.01 431.982 212.015 431.982C212.02 431.982 212.025 431.982 212.03 431.982C212.035 431.982 212.04 431.982 212.045 431.982C212.05 431.982 212.055 431.982 212.06 431.982C212.065 431.982 212.069 431.982 212.074 431.982C212.079 431.982 212.084 431.982 212.089 431.982C212.094 431.982 212.099 431.982 212.104 431.982C212.109 431.982 212.114 431.982 212.119 431.982C212.123 431.982 212.128 431.982 212.133 431.982C212.138 431.982 212.143 431.982 212.148 431.982C212.153 431.982 212.158 431.982 212.163 431.982C212.167 431.982 212.172 431.982 212.177 431.982C212.182 431.982 212.187 431.982 212.192 431.982C212.197 431.982 212.202 431.982 212.206 431.982C212.211 431.982 212.216 431.982 212.221 431.982C212.226 431.982 212.231 431.982 212.236 431.982C212.24 431.982 212.245 431.982 212.25 431.982C212.255 431.982 212.26 431.982 212.265 431.982C212.269 431.982 212.274 431.982 212.279 431.982C212.284 431.982 212.289 431.982 212.294 431.982C212.298 431.982 212.303 431.982 212.308 431.982C212.313 431.982 212.318 431.982 212.322 431.982C212.327 431.982 212.332 431.982 212.337 431.982C212.342 431.982 212.346 431.982 212.351 431.982C212.356 431.982 212.361 431.982 212.366 431.982C212.37 431.982 212.375 431.982 212.38 431.982C212.385 431.982 212.389 431.982 212.394 431.982C212.399 431.982 212.404 431.982 212.409 431.982C212.413 431.982 212.418 431.982 212.423 431.982C212.428 431.982 212.432 431.982 212.437 431.982C212.442 431.982 212.447 431.982 212.451 431.982C212.456 431.982 212.461 431.982 212.466 431.982C212.47 431.982 212.475 431.982 212.48 431.982C212.484 431.982 212.489 431.982 212.494 431.982C212.499 431.982 212.503 431.982 212.508 431.982C212.513 431.982 212.518 431.982 212.522 431.982C212.527 431.982 212.532 431.982 212.536 431.982C212.541 431.982 212.546 431.982 212.55 431.982C212.555 431.982 212.56 431.982 212.565 431.982C212.569 431.982 212.574 431.982 212.579 431.982C212.583 431.982 212.588 431.982 212.593 431.982C212.597 431.982 212.602 431.982 212.607 431.982C212.611 431.982 212.616 431.982 212.621 431.982C212.625 431.982 212.63 431.982 212.635 431.982C212.639 431.982 212.644 431.982 212.649 431.982C212.653 431.982 212.658 431.982 212.662 431.982C212.667 431.982 212.672 431.982 212.676 431.982C212.681 431.982 212.686 431.982 212.69 431.982C212.695 431.982 212.7 431.982 212.704 431.982C212.709 431.982 212.713 431.982 212.718 431.982C212.723 431.982 212.727 431.982 212.732 431.982C212.736 431.982 212.741 431.982 212.746 431.982C212.75 431.982 212.755 431.982 212.759 431.982C212.764 431.982 212.769 431.982 212.773 431.982C212.778 431.982 212.782 431.982 212.787 431.982C212.792 431.982 212.796 431.982 212.801 431.982C212.805 431.982 212.81 431.982 212.814 431.982C212.819 431.982 212.824 431.982 212.828 431.982C212.833 431.982 212.837 431.982 212.842 431.982C212.846 431.982 212.851 431.982 212.855 431.982C212.86 431.982 212.864 431.982 212.869 431.982C212.874 431.982 212.878 431.982 212.883 431.982C212.887 431.982 212.892 431.982 212.896 431.982C212.901 431.982 212.905 431.982 212.91 431.982C212.914 431.982 212.919 431.982 212.923 431.982C212.928 431.982 212.932 431.982 212.937 431.982C212.941 431.982 212.946 431.982 212.95 431.982C212.955 431.982 212.959 431.982 212.964 431.982C212.968 431.982 212.973 431.982 212.977 431.982C212.982 431.982 212.986 431.982 212.991 431.982C212.995 431.982 213 431.982 213.004 431.982C213.009 431.982 213.013 431.982 213.018 431.982C213.022 431.982 213.026 431.982 213.031 431.982C213.035 431.982 213.04 431.982 213.044 431.982C213.049 431.982 213.053 431.982 213.058 431.982C213.062 431.982 213.067 431.982 213.071 431.982C213.075 431.982 213.08 431.982 213.084 431.982C213.089 431.982 213.093 431.982 213.098 431.982C213.102 431.982 213.106 431.982 213.111 431.982C213.115 431.982 213.12 431.982 213.124 431.982C213.128 431.982 213.133 431.982 213.137 431.982C213.142 431.982 213.146 431.982 213.15 431.982C213.155 431.982 213.159 431.982 213.164 431.982C213.168 431.982 213.172 431.982 213.177 431.982C213.181 431.982 213.186 431.982 213.19 431.982C213.194 431.982 213.199 431.982 213.203 431.982C213.207 431.982 213.212 431.982 213.216 431.982C213.22 431.982 213.225 431.982 213.229 431.982C213.234 431.982 213.238 431.982 213.242 431.982C213.247 431.982 213.251 431.982 213.255 431.982C213.26 431.982 213.264 431.982 213.268 431.982C213.273 431.982 213.277 431.982 213.281 431.982C213.286 431.982 213.29 431.982 213.294 431.982C213.299 431.982 213.303 431.982 213.307 431.982C213.312 431.982 213.316 431.982 213.32 431.982C213.324 431.982 213.329 431.982 213.333 431.982C213.337 431.982 213.342 431.982 213.346 431.982C213.35 431.982 213.354 431.982 213.359 431.982C213.363 431.982 213.367 431.982 213.372 431.982C213.376 431.982 213.38 431.982 213.384 431.982C213.389 431.982 213.393 431.982 213.397 431.982C213.402 431.982 213.406 431.982 213.41 431.982C213.414 431.982 213.419 431.982 213.423 431.982C213.427 431.982 213.431 431.982 213.436 431.982C213.44 431.982 213.444 431.982 213.448 431.982C213.453 431.982 213.457 431.982 213.461 431.982C213.465 431.982 213.469 431.982 213.474 431.982C213.478 431.982 213.482 431.982 213.486 431.982C213.491 431.982 213.495 431.982 213.499 431.982C213.503 431.982 213.507 431.982 213.512 431.982C213.516 431.982 213.52 431.982 213.524 431.982C213.528 431.982 213.533 431.982 213.537 431.982C213.541 431.982 213.545 431.982 213.549 431.982C213.554 431.982 213.558 431.982 213.562 431.982C213.566 431.982 213.57 431.982 213.574 431.982C213.579 431.982 213.583 431.982 213.587 431.982C213.591 431.982 213.595 431.982 213.599 431.982C213.604 431.982 213.608 431.982 213.612 431.982C213.616 431.982 213.62 431.982 213.624 431.982C213.628 431.982 213.633 431.982 213.637 431.982C213.641 431.982 213.645 431.982 213.649 431.982C213.653 431.982 213.657 431.982 213.661 431.982C213.666 431.982 213.67 431.982 213.674 431.982C213.678 431.982 213.682 431.982 213.686 431.982C213.69 431.982 213.694 431.982 213.698 431.982C213.703 431.982 213.707 431.982 213.711 431.982C213.715 431.982 213.719 431.982 213.723 431.982C213.727 431.982 213.731 431.982 213.735 431.982C213.739 431.982 213.743 431.982 213.747 431.982C213.752 431.982 213.756 431.982 213.76 431.982C213.764 431.982 213.768 431.982 213.772 431.982C213.776 431.982 213.78 431.982 213.784 431.982C213.788 431.982 213.792 431.982 213.796 431.982C213.8 431.982 213.804 431.982 213.808 431.982C213.812 431.982 213.816 431.982 213.82 431.982C213.824 431.982 213.828 431.982 213.833 431.982C213.837 431.982 213.841 431.982 213.845 431.982C213.849 431.982 213.853 431.982 213.857 431.982C213.861 431.982 213.865 431.982 213.869 431.982C213.873 431.982 213.877 431.982 213.881 431.982C213.885 431.982 213.889 431.982 213.893 431.982C213.897 431.982 213.901 431.982 213.905 431.982C213.909 431.982 213.913 431.982 213.917 431.982C213.921 431.982 213.925 431.982 213.928 431.982C213.932 431.982 213.936 431.982 213.94 431.982C213.944 431.982 213.948 431.982 213.952 431.982C213.956 431.982 213.96 431.982 213.964 431.982C213.968 431.982 213.972 431.982 213.976 431.982C213.98 431.982 213.984 431.982 213.988 431.982C213.992 431.982 213.996 431.982 214 431.982C214.004 431.982 214.007 431.982 214.011 431.982C214.015 431.982 214.019 431.982 214.023 431.982C214.027 431.982 214.031 431.982 214.035 431.982C214.039 431.982 214.043 431.982 214.047 431.982C214.05 431.982 214.054 431.982 214.058 431.982C214.062 431.982 214.066 431.982 214.07 431.982C214.074 431.982 214.078 431.982 214.082 431.982C214.085 431.982 214.089 431.982 214.093 431.982C214.097 431.982 214.101 431.982 214.105 431.982C214.109 431.982 214.113 431.982 214.116 431.982C214.12 431.982 214.124 431.982 214.128 431.982C214.132 431.982 214.136 431.982 214.14 431.982C214.143 431.982 214.147 431.982 214.151 431.982C214.155 431.982 214.159 431.982 214.163 431.982C214.166 431.982 214.17 431.982 214.174 431.982C214.178 431.982 214.182 431.982 214.186 431.982C214.189 431.982 214.193 431.982 214.197 431.982C214.201 431.982 214.205 431.982 214.208 431.982C214.212 431.982 214.216 431.982 214.22 431.982C214.224 431.982 214.227 431.982 214.231 431.982C214.235 431.982 214.239 431.982 214.243 431.982C214.246 431.982 214.25 431.982 214.254 431.982C214.258 431.982 214.262 431.982 214.265 431.982C214.269 431.982 214.273 431.982 214.277 431.982C214.28 431.982 214.284 431.982 214.288 431.982C214.292 431.982 214.295 431.982 214.299 431.982C214.303 431.982 214.307 431.982 214.31 431.982C214.314 431.982 214.318 431.982 214.322 431.982C214.325 431.982 214.329 431.982 214.333 431.982C214.337 431.982 214.34 431.982 214.344 431.982C214.348 431.982 214.351 431.982 214.355 431.982C214.359 431.982 214.363 431.982 214.366 431.982C214.37 431.982 214.374 431.982 214.377 431.982C214.381 431.982 214.385 431.982 214.389 431.982C214.392 431.982 214.396 431.982 214.4 431.982C214.403 431.982 214.407 431.982 214.411 431.982C214.414 431.982 214.418 431.982 214.422 431.982C214.425 431.982 214.429 431.982 214.433 431.982C214.436 431.982 214.44 431.982 214.444 431.982C214.447 431.982 214.451 431.982 214.455 431.982C214.458 431.982 214.462 431.982 214.466 431.982C214.469 431.982 214.473 431.982 214.477 431.982C214.48 431.982 214.484 431.982 214.488 431.982C214.491 431.982 214.495 431.982 214.498 431.982C214.502 431.982 214.506 431.982 214.509 431.982C214.513 431.982 214.517 431.982 214.52 431.982C214.524 431.982 214.527 431.982 214.531 431.982C214.535 431.982 214.538 431.982 214.542 431.982C214.545 431.982 214.549 431.982 214.553 431.982C214.556 431.982 214.56 431.982 214.563 431.982C214.567 431.982 214.571 431.982 214.574 431.982C214.578 431.982 214.581 431.982 214.585 431.982C214.588 431.982 214.592 431.982 214.596 431.982C214.599 431.982 214.603 431.982 214.606 431.982C214.61 431.982 214.613 431.982 214.617 431.982C214.621 431.982 214.624 431.982 214.628 431.982C214.631 431.982 214.635 431.982 214.638 431.982C214.642 431.982 214.645 431.982 214.649 431.982C214.652 431.982 214.656 431.982 214.659 431.982C214.663 431.982 214.666 431.982 214.67 431.982C214.674 431.982 214.677 431.982 214.681 431.982C214.684 431.982 214.688 431.982 214.691 431.982C214.695 431.982 214.698 431.982 214.702 431.982C214.705 431.982 214.709 431.982 214.712 431.982C214.716 431.982 214.719 431.982 214.723 431.982C214.726 431.982 214.73 431.982 214.733 431.982C214.736 431.982 214.74 431.982 214.743 431.982C214.747 431.982 214.75 431.982 214.754 431.982C214.757 431.982 214.761 431.982 214.764 431.982C214.768 431.982 214.771 431.982 214.775 431.982C214.778 431.982 214.781 431.982 214.785 431.982C214.788 431.982 214.792 431.982 214.795 431.982C214.799 431.982 214.802 431.982 214.806 431.982C214.809 431.982 214.812 431.982 214.816 431.982C214.819 431.982 214.823 431.982 214.826 431.982C214.829 431.982 214.833 431.982 214.836 431.982C214.84 431.982 214.843 431.982 214.847 431.982C214.85 431.982 214.853 431.982 214.857 431.982C214.86 431.982 214.864 431.982 214.867 431.982C214.87 431.982 214.874 431.982 214.877 431.982C214.88 431.982 214.884 431.982 214.887 431.982C214.891 431.982 214.894 431.982 214.897 431.982C214.901 431.982 214.904 431.982 214.907 431.982C214.911 431.982 214.914 431.982 214.917 431.982C214.921 431.982 214.924 431.982 214.928 431.982C214.931 431.982 214.934 431.982 214.938 431.982C214.941 431.982 214.944 431.982 214.948 431.982C214.951 431.982 214.954 431.982 214.958 431.982C214.961 431.982 214.964 431.982 214.968 431.982C214.971 431.982 214.974 431.982 214.978 431.982C214.981 431.982 214.984 431.982 214.987 431.982C214.991 431.982 214.994 431.982 214.997 431.982C215.001 431.982 215.004 431.982 215.007 431.982C215.011 431.982 215.014 431.982 215.017 431.982C215.02 431.982 215.024 431.982 215.027 431.982C215.03 431.982 215.034 431.982 215.037 431.982C215.04 431.982 215.043 431.982 215.047 431.982C215.05 431.982 215.053 431.982 215.056 431.982C215.06 431.982 215.063 431.982 215.066 431.982C215.069 431.982 215.073 431.982 215.076 431.982C215.079 431.982 215.082 431.982 215.086 431.982C215.089 431.982 215.092 431.982 215.095 431.982C215.099 431.982 215.102 431.982 215.105 431.982C215.108 431.982 215.111 431.982 215.115 431.982C215.118 431.982 215.121 431.982 215.124 431.982C215.128 431.982 215.131 431.982 215.134 431.982C215.137 431.982 215.14 431.982 215.144 431.982C215.147 431.982 215.15 431.982 215.153 431.982C215.156 431.982 215.16 431.982 215.163 431.982C215.166 431.982 215.169 431.982 215.172 431.982C215.175 431.982 215.179 431.982 215.182 431.982C215.185 431.982 215.188 431.982 215.191 431.982C215.194 431.982 215.198 431.982 215.201 431.982C215.204 431.982 215.207 431.982 215.21 431.982C215.213 431.982 215.217 431.982 215.22 431.982C215.223 431.982 215.226 431.982 215.229 431.982C215.232 431.982 215.235 431.982 215.238 431.982C215.242 431.982 215.245 431.982 215.248 431.982C215.251 431.982 215.254 431.982 215.257 431.982C215.26 431.982 215.263 431.982 215.267 431.982C215.27 431.982 215.273 431.982 215.276 431.982C215.279 431.982 215.282 431.982 215.285 431.982C215.288 431.982 215.291 431.982 215.294 431.982C215.298 431.982 215.301 431.982 215.304 431.982C215.307 431.982 215.31 431.982 215.313 431.982C215.316 431.982 215.319 431.982 215.322 431.982C215.325 431.982 215.328 431.982 215.331 431.982C215.334 431.982 215.337 431.982 215.341 431.982C215.344 431.982 215.347 431.982 215.35 431.982C215.353 431.982 215.356 431.982 215.359 431.982C215.362 431.982 215.365 431.982 215.368 431.982C215.371 431.982 215.374 431.982 215.377 431.982C215.38 431.982 215.383 431.982 215.386 431.982C215.389 431.982 215.392 431.982 215.395 431.982C215.398 431.982 215.401 431.982 215.404 431.982C215.407 431.982 215.41 431.982 215.413 431.982C215.416 431.982 215.419 431.982 215.422 431.982C215.425 431.982 215.428 431.982 215.431 431.982C215.434 431.982 215.437 431.982 215.44 431.982C215.443 431.982 215.446 431.982 215.449 431.982C215.452 431.982 215.455 431.982 215.458 431.982C215.461 431.982 215.464 431.982 215.467 431.982C215.47 431.982 215.473 431.982 215.476 431.982C215.479 431.982 215.482 431.982 215.484 431.982C215.487 431.982 215.49 431.982 215.493 431.982C215.496 431.982 215.499 431.982 215.502 431.982C215.505 431.982 215.508 431.982 215.511 431.982C215.514 431.982 215.517 431.982 215.52 431.982C215.523 431.982 215.525 431.982 215.528 431.982C215.531 431.982 215.534 431.982 215.537 431.982C215.54 431.982 215.543 431.982 215.546 431.982C215.549 431.982 215.552 431.982 215.554 431.982C215.557 431.982 215.56 431.982 215.563 431.982C215.566 431.982 215.569 431.982 215.572 431.982C215.575 431.982 215.578 431.982 215.58 431.982C215.583 431.982 215.586 431.982 215.589 431.982C215.592 431.982 215.595 431.982 215.598 431.982C215.6 431.982 215.603 431.982 215.606 431.982C215.609 431.982 215.612 431.982 215.615 431.982C215.618 431.982 215.62 431.982 215.623 431.982C215.626 431.982 215.629 431.982 215.632 431.982C215.635 431.982 215.637 431.982 215.64 431.982C215.643 431.982 215.646 431.982 215.649 431.982C215.651 431.982 215.654 431.982 215.657 431.982C215.66 431.982 215.663 431.982 215.665 431.982C215.668 431.982 215.671 431.982 215.674 431.982C215.677 431.982 215.679 431.982 215.682 431.982C215.685 431.982 215.688 431.982 215.691 431.982C215.693 431.982 215.696 431.982 215.699 431.982C215.702 431.982 215.704 431.982 215.707 431.982C215.71 431.982 215.713 431.982 215.716 431.982C215.718 431.982 215.721 431.982 215.724 431.982C215.727 431.982 215.729 431.982 215.732 431.982C215.735 431.982 215.738 431.982 215.74 431.982C215.743 431.982 215.746 431.982 215.748 431.982C215.751 431.982 215.754 431.982 215.757 431.982C215.759 431.982 215.762 431.982 215.765 431.982C215.768 431.982 215.77 431.982 215.773 431.982C215.776 431.982 215.778 431.982 215.781 431.982C215.784 431.982 215.787 431.982 215.789 431.982C215.792 431.982 215.795 431.982 215.797 431.982C215.8 431.982 215.803 431.982 215.805 431.982C215.808 431.982 215.811 431.982 215.813 431.982C215.816 431.982 215.819 431.982 215.821 431.982C215.824 431.982 215.827 431.982 215.829 431.982C215.832 431.982 215.835 431.982 215.837 431.982C215.84 431.982 215.843 431.982 215.845 431.982C215.848 431.982 215.851 431.982 215.853 431.982C215.856 431.982 215.859 431.982 215.861 431.982C215.864 431.982 215.867 431.982 215.869 431.982C215.872 431.982 215.874 431.982 215.877 431.982C215.88 431.982 215.882 431.982 215.885 431.982C215.887 431.982 215.89 431.982 215.893 431.982C215.895 431.982 215.898 431.982 215.901 431.982C215.903 431.982 215.906 431.982 215.908 431.982C215.911 431.982 215.914 431.982 215.916 431.982C215.919 431.982 215.921 431.982 215.924 431.982C215.926 431.982 215.929 431.982 215.932 431.982C215.934 431.982 215.937 431.982 215.939 431.982C215.942 431.982 215.944 431.982 215.947 431.982C215.95 431.982 215.952 431.982 215.955 431.982C215.957 431.982 215.96 431.982 215.962 431.982C215.965 431.982 215.967 431.982 215.97 431.982C215.973 431.982 215.975 431.982 215.978 431.982C215.98 431.982 215.983 431.982 215.985 431.982C215.988 431.982 215.99 431.982 215.993 431.982C215.995 431.982 215.998 431.982 216 431.982C216.003 431.982 216.005 431.982 216.008 431.982C216.01 431.982 216.013 431.982 216.015 431.982C216.018 431.982 216.02 431.982 216.023 431.982C216.025 431.982 216.028 431.982 216.03 431.982C216.033 431.982 216.035 431.982 216.038 431.982C216.04 431.982 216.043 431.982 216.045 431.982C216.048 431.982 216.05 431.982 216.053 431.982C216.055 431.982 216.058 431.982 216.06 431.982C216.062 431.982 216.065 431.982 216.067 431.982C216.07 431.982 216.072 431.982 216.075 431.982C216.077 431.982 216.08 431.982 216.082 431.982C216.084 431.982 216.087 431.982 216.089 431.982C216.092 431.982 216.094 431.982 216.097 431.982C216.099 431.982 216.101 431.982 216.104 431.982C216.106 431.982 216.109 431.982 216.111 431.982C216.114 431.982 216.116 431.982 216.118 431.982C216.121 431.982 216.123 431.982 216.126 431.982C216.128 431.982 216.13 431.982 216.133 431.982C216.135 431.982 216.137 431.982 216.14 431.982C216.142 431.982 216.145 431.982 216.147 431.982C216.149 431.982 216.152 431.982 216.154 431.982C216.157 431.982 216.159 431.982 216.161 431.982C216.164 431.982 216.166 431.982 216.168 431.982C216.171 431.982 216.173 431.982 216.175 431.982C216.178 431.982 216.18 431.982 216.182 431.982C216.185 431.982 216.187 431.982 216.189 431.982C216.192 431.982 216.194 431.982 216.196 431.982C216.199 431.982 216.201 431.982 216.203 431.982C216.206 431.982 216.208 431.982 216.21 431.982C216.213 431.982 216.215 431.982 216.217 431.982C216.22 431.982 216.222 431.982 216.224 431.982C216.227 431.982 216.229 431.982 216.231 431.982C216.233 431.982 216.236 431.982 216.238 431.982C216.24 431.982 216.243 431.982 216.245 431.982C216.247 431.982 216.249 431.982 216.252 431.982C216.254 431.982 216.256 431.982 216.258 431.982C216.261 431.982 216.263 431.982 216.265 431.982C216.268 431.982 216.27 431.982 216.272 431.982C216.274 431.982 216.277 431.982 216.279 431.982C216.281 431.982 216.283 431.982 216.286 431.982C216.288 431.982 216.29 431.982 216.292 431.982C216.294 431.982 216.297 431.982 216.299 431.982C216.301 431.982 216.303 431.982 216.306 431.982C216.308 431.982 216.31 431.982 216.312 431.982C216.314 431.982 216.317 431.982 216.319 431.982C216.321 431.982 216.323 431.982 216.325 431.982C216.328 431.982 216.33 431.982 216.332 431.982C216.334 431.982 216.336 431.982 216.339 431.982C216.341 431.982 216.343 431.982 216.345 431.982C216.347 431.982 216.35 431.982 216.352 431.982C216.354 431.982 216.356 431.982 216.358 431.982C216.36 431.982 216.363 431.982 216.365 431.982C216.367 431.982 216.369 431.982 216.371 431.982C216.373 431.982 216.375 431.982 216.378 431.982C216.38 431.982 216.382 431.982 216.384 431.982C216.386 431.982 216.388 431.982 216.39 431.982C216.393 431.982 216.395 431.982 216.397 431.982C216.399 431.982 216.401 431.982 216.403 431.982C216.405 431.982 216.407 431.982 216.41 431.982C216.412 431.982 216.414 431.982 216.416 431.982C216.418 431.982 216.42 431.982 216.422 431.982C216.424 431.982 216.426 431.982 216.428 431.982C216.43 431.982 216.433 431.982 216.435 431.982C216.437 431.982 216.439 431.982 216.441 431.982C216.443 431.982 216.445 431.982 216.447 431.982C216.449 431.982 216.451 431.982 216.453 431.982C216.455 431.982 216.457 431.982 216.459 431.982C216.462 431.982 216.464 431.982 216.466 431.982C216.468 431.982 216.47 431.982 216.472 431.982C216.474 431.982 216.476 431.982 216.478 431.982C216.48 431.982 216.482 431.982 216.484 431.982C216.486 431.982 216.488 431.982 216.49 431.982C216.492 431.982 216.494 431.982 216.496 431.982C216.498 431.982 216.5 431.982 216.502 431.982C216.504 431.982 216.506 431.982 216.508 431.982C216.51 431.982 216.512 431.982 216.514 431.982C216.516 431.982 216.518 431.982 216.52 431.982C216.522 431.982 216.524 431.982 216.526 431.982C216.528 431.982 216.53 431.982 216.532 431.982C216.534 431.982 216.536 431.982 216.538 431.982C216.54 431.982 216.542 431.982 216.544 431.982C216.546 431.982 216.548 431.982 216.55 431.982C216.552 431.982 216.554 431.982 216.556 431.982C216.557 431.982 216.559 431.982 216.561 431.982C216.563 431.982 216.565 431.982 216.567 431.982C216.569 431.982 216.571 431.982 216.573 431.982C216.575 431.982 216.577 431.982 216.579 431.982C216.581 431.982 216.583 431.982 216.584 431.982C216.586 431.982 216.588 431.982 216.59 431.982C216.592 431.982 216.594 431.982 216.596 431.982C216.598 431.982 216.6 431.982 216.602 431.982C216.603 431.982 216.605 431.982 216.607 431.982C216.609 431.982 216.611 431.982 216.613 431.982C216.615 431.982 216.617 431.982 216.618 431.982C216.62 431.982 216.622 431.982 216.624 431.982C216.626 431.982 216.628 431.982 216.63 431.982C216.632 431.982 216.633 431.982 216.635 431.982C216.637 431.982 216.639 431.982 216.641 431.982C216.643 431.982 216.644 431.982 216.646 431.982C216.648 431.982 216.65 431.982 216.652 431.982C216.654 431.982 216.655 431.982 216.657 431.982C216.659 431.982 216.661 431.982 216.663 431.982C216.665 431.982 216.666 431.982 216.668 431.982C216.67 431.982 216.672 431.982 216.674 431.982C216.675 431.982 216.677 431.982 216.679 431.982C216.681 431.982 216.683 431.982 216.684 431.982C216.686 431.982 216.688 431.982 216.69 431.982C216.691 431.982 216.693 431.982 216.695 431.982C216.697 431.982 216.699 431.982 216.7 431.982C216.702 431.982 216.704 431.982 216.706 431.982C216.707 431.982 216.709 431.982 216.711 431.982C216.713 431.982 216.714 431.982 216.716 431.982C216.718 431.982 216.72 431.982 216.721 431.982C216.723 431.982 216.725 431.982 216.727 431.982C216.728 431.982 216.73 431.982 216.732 431.982C216.734 431.982 216.735 431.982 216.737 431.982C216.739 431.982 216.74 431.982 216.742 431.982C216.744 431.982 216.746 431.982 216.747 431.982C216.749 431.982 216.751 431.982 216.752 431.982C216.754 431.982 216.756 431.982 216.757 431.982C216.759 431.982 216.761 431.982 216.763 431.982C216.764 431.982 216.766 431.982 216.768 431.982C216.769 431.982 216.771 431.982 216.773 431.982C216.774 431.982 216.776 431.982 216.778 431.982C216.779 431.982 216.781 431.982 216.783 431.982C216.784 431.982 216.786 431.982 216.788 431.982C216.789 431.982 216.791 431.982 216.793 431.982C216.794 431.982 216.796 431.982 216.797 431.982C216.799 431.982 216.801 431.982 216.802 431.982C216.804 431.982 216.806 431.982 216.807 431.982C216.809 431.982 216.81 431.982 216.812 431.982C216.814 431.982 216.815 431.982 216.817 431.982C216.819 431.982 216.82 431.982 216.822 431.982C216.823 431.982 216.825 431.982 216.827 431.982C216.828 431.982 216.83 431.982 216.831 431.982C216.833 431.982 216.834 431.982 216.836 431.982C216.838 431.982 216.839 431.982 216.841 431.982C216.842 431.982 216.844 431.982 216.846 431.982C216.847 431.982 216.849 431.982 216.85 431.982C216.852 431.982 216.853 431.982 216.855 431.982C216.856 431.982 216.858 431.982 216.86 431.982C216.861 431.982 216.863 431.982 216.864 431.982C216.866 431.982 216.867 431.982 216.869 431.982C216.87 431.982 216.872 431.982 216.873 431.982C216.875 431.982 216.876 431.982 216.878 431.982C216.88 431.982 216.881 431.982 216.883 431.982C216.884 431.982 216.886 431.982 216.887 431.982C216.889 431.982 216.89 431.982 216.892 431.982V428.349ZM211.896 428.349V424.717C209.863 424.717 208.288 424.01 206.925 422.477L204.21 424.89L201.495 427.304C204.231 430.382 207.78 431.982 211.896 431.982V428.349ZM204.21 424.89L206.778 422.322C205.388 420.932 204.768 419.413 204.768 417.589H201.135H197.503C197.503 421.401 198.932 424.75 201.641 427.459L204.21 424.89ZM201.135 417.589L204.768 417.632C205.02 396.396 207.928 378.655 213.371 364.306L209.974 363.018L206.578 361.73C200.747 377.101 197.763 395.74 197.503 417.545L201.135 417.589ZM209.974 363.018L213.351 364.357C219.045 349.997 227.85 336.829 239.828 324.851L237.26 322.282L234.691 319.713C222.074 332.33 212.688 346.319 206.597 361.679L209.974 363.018ZM237.26 322.282L239.828 324.851C247.079 317.599 255.085 311.094 263.85 305.334L261.855 302.298L259.86 299.263C250.691 305.288 242.299 312.105 234.691 319.713L237.26 322.282ZM261.855 302.298L263.909 305.294C272.857 299.159 281.804 293.151 290.751 287.272L288.756 284.236L286.761 281.2C277.774 287.106 268.787 293.14 259.801 299.303L261.855 302.298ZM288.756 284.236L290.654 287.333C298.626 282.447 306.343 277.56 313.805 272.671L311.814 269.633L309.823 266.594C302.425 271.441 294.77 276.289 286.858 281.139L288.756 284.236ZM311.814 269.633L313.876 272.623C321.44 267.407 328.127 262.036 333.921 256.504L331.413 253.876L328.905 251.249C323.427 256.478 317.048 261.611 309.752 266.642L311.814 269.633ZM331.413 253.876L333.921 256.504C339.778 250.914 344.496 245.001 348.026 238.755L344.864 236.967L341.701 235.18C338.571 240.719 334.322 246.079 328.905 251.249L331.413 253.876ZM344.864 236.967L348.002 238.798C351.903 232.11 353.877 224.948 353.877 217.368H350.244H346.612C346.612 223.623 344.999 229.527 341.726 235.137L344.864 236.967ZM350.244 217.368H353.877C353.877 209.562 353.486 202.248 352.7 195.431L349.091 195.847L345.483 196.263C346.233 202.768 346.612 209.801 346.612 217.368H350.244ZM349.091 195.847L352.701 195.446C351.891 188.15 349.993 181.348 346.988 175.065L343.711 176.632L340.434 178.199C343.065 183.701 344.754 189.709 345.481 196.248L349.091 195.847ZM343.711 176.632L346.988 175.065C343.914 168.638 339.331 162.975 333.329 158.064L331.029 160.876L328.729 163.687C334 168 337.871 172.841 340.434 178.199L343.711 176.632ZM331.029 160.876L333.329 158.064C327.262 153.1 319.033 148.828 308.814 145.159L307.587 148.578L306.359 151.997C316.124 155.502 323.523 159.428 328.729 163.687L331.029 160.876ZM307.587 148.578L308.828 145.164C303.058 143.066 297.852 141.589 293.23 140.773L292.599 144.351L291.968 147.928C296.057 148.65 300.842 149.991 306.345 151.992L307.587 148.578ZM292.599 144.351L293.48 140.827C289.121 139.737 284.853 139.181 280.686 139.181V142.813V146.446C284.204 146.446 287.879 146.915 291.718 147.875L292.599 144.351ZM280.686 142.813V139.181C274.958 139.181 269.013 139.999 262.859 141.604L263.776 145.119L264.693 148.634C270.325 147.165 275.652 146.446 280.686 146.446V142.813ZM263.776 145.119L262.859 141.604C256.887 143.162 249.395 145.359 240.398 148.187L241.487 151.652L242.576 155.118C251.513 152.309 258.881 150.151 264.693 148.634L263.776 145.119ZM241.487 151.652L240.38 148.193C233.475 150.402 227.579 153.89 222.778 158.691L225.346 161.26L227.915 163.828C231.824 159.919 236.689 157.002 242.594 155.112L241.487 151.652ZM225.346 161.26L222.857 158.615C218.32 162.885 214.535 167.333 211.536 171.968L214.586 173.942L217.636 175.915C220.273 171.84 223.662 167.834 227.836 163.905L225.346 161.26ZM214.586 173.942L211.54 171.962C208.071 177.3 205.141 183.029 202.748 189.143L206.131 190.467L209.514 191.79C211.733 186.119 214.44 180.832 217.631 175.922L214.586 173.942ZM206.131 190.467L202.703 189.267C202.083 191.037 201.085 192.186 199.69 192.943C198.206 193.749 195.999 194.252 192.81 194.138L192.681 197.768L192.551 201.399C196.536 201.541 200.158 200.956 203.157 199.328C206.245 197.651 208.386 195.021 209.56 191.667L206.131 190.467ZM192.681 197.768L193.829 194.322C192.264 193.8 190.941 192.854 189.822 191.362L186.916 193.541L184.01 195.721C185.965 198.328 188.486 200.199 191.532 201.215L192.681 197.768ZM186.916 193.541L190.092 191.777C189.331 190.408 188.908 188.215 189.364 184.798L185.763 184.318L182.163 183.838C181.593 188.107 181.939 192.063 183.741 195.305L186.916 193.541ZM185.763 184.318H189.396C189.396 184.665 189.336 184.886 189.354 184.806C189.358 184.789 189.375 184.716 189.419 184.566C189.505 184.271 189.649 183.827 189.864 183.212C190.292 181.99 190.947 180.242 191.839 177.949L188.453 176.632L185.068 175.315C184.166 177.634 183.476 179.473 183.007 180.812C182.774 181.478 182.582 182.059 182.444 182.532C182.376 182.767 182.309 183.014 182.257 183.253C182.218 183.43 182.131 183.843 182.131 184.318H185.763ZM188.453 176.632L191.839 177.949C193.503 173.67 196.168 168.794 199.909 163.306L196.908 161.26L193.907 159.214C189.962 164.999 186.991 170.371 185.068 175.315L188.453 176.632ZM196.908 161.26L199.89 163.334C203.794 157.722 208.839 152.172 215.064 146.693L212.664 143.966L210.265 141.239C203.68 147.034 198.22 153.013 193.926 159.185L196.908 161.26ZM212.664 143.966L215.124 146.64C221.087 141.153 228.408 137.051 237.168 134.374L236.107 130.9L235.045 127.426C225.359 130.386 217.052 134.994 210.205 141.293L212.664 143.966ZM236.107 130.9L237.196 134.366C246.093 131.569 253.932 129.422 260.721 127.913L259.933 124.367L259.145 120.821C252.1 122.387 244.054 124.595 235.018 127.435L236.107 130.9ZM259.933 124.367L260.845 127.883C267.475 126.164 274.086 125.309 280.686 125.309V121.677V118.044C273.451 118.044 266.227 118.983 259.022 120.851L259.933 124.367ZM280.686 121.677V125.309C285.299 125.309 290.194 125.795 295.378 126.782L296.058 123.214L296.737 119.646C291.16 118.583 285.808 118.044 280.686 118.044V121.677ZM296.058 123.214L295.408 126.788C300.837 127.775 306.944 129.391 313.74 131.656L314.888 128.21L316.037 124.764C308.998 122.418 302.551 120.703 296.707 119.64L296.058 123.214ZM314.888 128.21L313.702 131.643C327.456 136.395 337.805 142.429 344.985 149.609L347.554 147.041L350.123 144.472C341.93 136.28 330.503 129.761 316.074 124.777L314.888 128.21ZM347.554 147.041L345.072 149.693C352.716 156.844 358.005 164.238 361.098 171.85L364.463 170.483L367.829 169.116C364.26 160.332 358.276 152.097 350.036 144.388L347.554 147.041ZM364.463 170.483L361.135 171.939C364.561 179.768 366.501 187.678 366.986 195.682L370.612 195.463L374.238 195.243C373.698 186.338 371.539 177.595 367.791 169.027L364.463 170.483ZM370.612 195.463L366.995 195.802C367.756 203.917 368.132 211.103 368.132 217.368H371.765H375.397C375.397 210.823 375.005 203.405 374.229 195.124L370.612 195.463ZM371.765 217.368H368.132C368.132 226.849 366.191 235.234 362.388 242.603L365.616 244.269L368.844 245.935C373.239 237.419 375.397 227.87 375.397 217.368H371.765ZM365.616 244.269L362.388 242.603C358.476 250.182 353.2 257.312 346.523 263.99L349.091 266.558L351.66 269.127C358.817 261.969 364.557 254.24 368.844 245.935L365.616 244.269ZM349.091 266.558L346.523 263.99C340.042 270.47 332.539 276.602 323.998 282.38L326.033 285.389L328.068 288.398C336.949 282.391 344.818 275.969 351.66 269.127L349.091 266.558ZM326.033 285.389L324.018 282.367C315.578 287.994 307.009 293.621 298.312 299.249L300.285 302.298L302.258 305.348C310.983 299.703 319.579 294.057 328.048 288.412L326.033 285.389ZM300.285 302.298L298.27 299.276C298.152 299.354 297.595 299.726 297.477 299.804C297.36 299.883 296.802 300.254 296.685 300.333C296.567 300.411 296.01 300.783 295.892 300.861C295.775 300.94 295.217 301.311 295.099 301.39C294.982 301.468 294.424 301.84 294.307 301.918C294.189 301.996 293.632 302.368 293.514 302.446C293.397 302.525 292.839 302.896 292.722 302.975C292.604 303.053 292.047 303.425 291.929 303.503C291.811 303.582 291.254 303.953 291.136 304.032C291.019 304.11 290.461 304.482 290.344 304.56C290.226 304.638 289.669 305.01 289.551 305.088C289.434 305.167 288.876 305.539 288.759 305.617C288.641 305.695 288.083 306.067 287.966 306.145C287.848 306.224 287.291 306.595 287.173 306.674C287.056 306.752 286.498 307.124 286.381 307.202C286.263 307.281 285.706 307.652 285.588 307.731C285.118 308.044 284.473 308.474 284.003 308.787C283.533 309.101 282.888 309.531 282.418 309.844C281.947 310.158 281.303 310.588 280.832 310.901C280.362 311.215 279.717 311.644 279.247 311.958C278.777 312.271 278.132 312.701 277.662 313.015C277.192 313.328 276.547 313.758 276.077 314.072C275.606 314.385 274.962 314.815 274.491 315.128C274.021 315.442 273.376 315.872 272.906 316.185L274.921 319.208L276.936 322.23C277.054 322.152 277.611 321.78 277.729 321.702C277.846 321.623 278.404 321.252 278.521 321.173C278.639 321.095 279.196 320.723 279.314 320.645C279.431 320.566 279.989 320.195 280.107 320.116C280.224 320.038 280.782 319.666 280.899 319.588C281.017 319.51 281.574 319.138 281.692 319.06C281.809 318.981 282.367 318.61 282.484 318.531C282.602 318.453 283.159 318.081 283.277 318.003C283.395 317.924 283.952 317.553 284.07 317.474C284.187 317.396 284.745 317.024 284.862 316.946C284.98 316.868 285.537 316.496 285.655 316.418C285.772 316.339 286.33 315.967 286.447 315.889C286.565 315.811 287.123 315.439 287.24 315.361C287.358 315.282 287.915 314.911 288.033 314.832C288.15 314.754 288.708 314.382 288.825 314.304C288.943 314.225 289.5 313.854 289.618 313.775C290.088 313.462 290.733 313.032 291.203 312.719C291.673 312.405 292.318 311.975 292.788 311.662C293.259 311.348 293.903 310.918 294.374 310.605C294.844 310.291 295.489 309.862 295.959 309.548C296.429 309.235 297.074 308.805 297.544 308.491C298.014 308.178 298.659 307.748 299.129 307.434C299.6 307.121 300.244 306.691 300.715 306.378C301.185 306.064 301.83 305.634 302.3 305.321L300.285 302.298ZM274.921 319.208L272.906 316.185C264.268 321.944 256.522 328.242 249.679 335.085L252.247 337.654L254.816 340.223C261.295 333.743 268.665 327.744 276.936 322.23L274.921 319.208ZM252.247 337.654L249.715 335.05C240.182 344.318 232.975 354.572 228.156 365.814L231.495 367.245L234.834 368.676C239.239 358.398 245.866 348.925 254.779 340.259L252.247 337.654ZM231.495 367.245L228.156 365.814C223.341 377.05 220.46 390.543 219.416 406.202L223.04 406.444L226.665 406.686C227.671 391.601 230.426 378.961 234.834 368.676L231.495 367.245ZM223.04 406.444L223.319 410.066C226.667 409.808 231.293 409.423 237.19 408.91L236.875 405.291L236.561 401.672C230.672 402.184 226.075 402.567 222.762 402.822L223.04 406.444ZM236.875 405.291L237.345 408.893C243.149 408.136 249.735 407.502 257.109 406.993L256.859 403.37L256.609 399.746C249.123 400.262 242.387 400.909 236.405 401.689L236.875 405.291ZM256.859 403.37L257.233 406.983C264.568 406.224 272.295 405.717 280.415 405.463L280.301 401.832L280.188 398.202C271.911 398.46 264.009 398.978 256.485 399.756L256.859 403.37ZM280.301 401.832L280.521 405.458C288.903 404.95 297.284 404.696 305.665 404.696V401.064V397.431C297.137 397.431 288.609 397.69 280.082 398.206L280.301 401.832ZM305.665 401.064V404.696H311.045V401.064V397.431H305.665V401.064ZM311.045 401.064L310.957 404.695C331.893 405.206 348.353 406.481 360.407 408.49L361.004 404.907L361.602 401.324C349.061 399.233 332.214 397.946 311.134 397.432L311.045 401.064ZM361.004 404.907L360.48 408.501C366.631 409.398 371.315 410.072 374.528 410.522C376.133 410.746 377.38 410.917 378.263 411.031C378.703 411.088 379.066 411.133 379.344 411.164C379.519 411.184 379.906 411.229 380.22 411.229V407.597V403.964C380.405 403.964 380.48 403.981 380.159 403.945C379.94 403.92 379.622 403.881 379.197 403.826C378.351 403.717 377.133 403.551 375.535 403.327C372.343 402.88 367.676 402.209 361.529 401.312L361.004 404.907Z" fill="#91CF5F" mask="url(#path-2-outside-1_132_67)"/>
<defs>
<filter id="filter0_d_132_67" x="0.787928" y="0.973285" width="572.535" height="572.535" filterUnits="userSpaceOnUse" color-interpolation-filters="sRGB">
<feFlood flood-opacity="0" result="BackgroundImageFix"/>
<feColorMatrix in="SourceAlpha" type="matrix" values="0 0 0 0 0 0 0 0 0 0 0 0 0 0 0 0 0 0 127 0" result="hardAlpha"/>
<feMorphology radius="11.3041" operator="dilate" in="SourceAlpha" result="effect1_dropShadow_132_67"/>
<feOffset dy="15.0721"/>
<feGaussianBlur stdDeviation="7.53604"/>
<feComposite in2="hardAlpha" operator="out"/>
<feColorMatrix type="matrix" values="0 0 0 0 0.12549 0 0 0 0 0.278431 0 0 0 0 0.27451 0 0 0 0.28 0"/>
<feBlend mode="normal" in2="BackgroundImageFix" result="effect1_dropShadow_132_67"/>
<feBlend mode="normal" in="SourceGraphic" in2="effect1_dropShadow_132_67" result="shape"/>
</filter>
</defs>
</svg>
