<svg width="276" height="75" viewBox="0 0 276 75" fill="none" xmlns="http://www.w3.org/2000/svg">
<rect y="3" width="275.413" height="71.983" rx="19.5606" fill="#045792"/>
<rect width="275.413" height="71.983" rx="19.5606" fill="#0494FA"/>
<path d="M100.793 30.1859C100.793 29.193 101.082 28.4079 101.659 27.8307C102.236 27.2534 103.021 26.9648 104.014 26.9648H115.444C115.606 27.2188 115.744 27.5536 115.86 27.9692C115.998 28.3848 116.068 28.8236 116.068 29.2854C116.068 30.1628 115.871 30.7862 115.479 31.1557C115.109 31.5251 114.613 31.7098 113.989 31.7098H106.681V34.9309H114.474C114.636 35.1849 114.774 35.5197 114.89 35.9354C115.028 36.3279 115.098 36.7551 115.098 37.2169C115.098 38.0943 114.913 38.7177 114.544 39.0872C114.174 39.4566 113.678 39.6414 113.054 39.6414H106.681V43.2781H115.583C115.744 43.5321 115.883 43.8669 115.998 44.2825C116.137 44.6981 116.206 45.1368 116.206 45.5986C116.206 46.4761 116.01 47.1111 115.617 47.5036C115.248 47.873 114.751 48.0578 114.128 48.0578H104.014C103.021 48.0578 102.236 47.7691 101.659 47.1919C101.082 46.6146 100.793 45.8296 100.793 44.8367V30.1859ZM129.817 37.2861C129.817 36.5703 129.609 36.0508 129.193 35.7276C128.801 35.3812 128.258 35.208 127.565 35.208C127.104 35.208 126.642 35.2657 126.18 35.3812C125.741 35.4966 125.36 35.6698 125.037 35.9007V47.9192C124.806 47.9885 124.437 48.0578 123.929 48.127C123.444 48.1963 122.936 48.2309 122.405 48.2309C121.897 48.2309 121.435 48.1963 121.019 48.127C120.627 48.0578 120.292 47.9192 120.015 47.7114C119.738 47.5036 119.518 47.2265 119.357 46.8802C119.218 46.5107 119.149 46.0374 119.149 45.4601V35.0695C119.149 34.446 119.276 33.9381 119.53 33.5455C119.807 33.153 120.176 32.7951 120.638 32.4718C121.423 31.9177 122.405 31.4674 123.582 31.121C124.783 30.7747 126.111 30.6015 127.565 30.6015C130.175 30.6015 132.183 31.1788 133.592 32.3333C135 33.4647 135.705 35.0464 135.705 37.0783V47.9192C135.474 47.9885 135.104 48.0578 134.596 48.127C134.111 48.1963 133.603 48.2309 133.072 48.2309C132.564 48.2309 132.103 48.1963 131.687 48.127C131.294 48.0578 130.96 47.9192 130.683 47.7114C130.405 47.5036 130.186 47.2265 130.025 46.8802C129.886 46.5107 129.817 46.0374 129.817 45.4601V37.2861ZM138.614 39.5374C138.614 38.0135 138.845 36.6973 139.307 35.589C139.769 34.4576 140.404 33.5224 141.212 32.7835C142.043 32.0447 143.002 31.502 144.087 31.1557C145.195 30.7862 146.384 30.6015 147.654 30.6015C148.116 30.6015 148.566 30.6477 149.005 30.7401C149.444 30.8093 149.802 30.9017 150.079 31.0171V25.4062C150.31 25.3369 150.679 25.2677 151.187 25.1984C151.695 25.106 152.215 25.0598 152.746 25.0598C153.254 25.0598 153.704 25.0945 154.096 25.1637C154.512 25.233 154.858 25.3716 155.135 25.5794C155.413 25.7872 155.62 26.0758 155.759 26.4453C155.897 26.7916 155.967 27.2534 155.967 27.8307V44.2479C155.967 45.3331 155.459 46.199 154.443 46.8455C153.773 47.2842 152.907 47.6652 151.845 47.9885C150.783 48.3348 149.559 48.508 148.174 48.508C146.673 48.508 145.322 48.3002 144.121 47.8846C142.944 47.469 141.939 46.8686 141.108 46.0835C140.3 45.2985 139.677 44.3633 139.238 43.2781C138.822 42.1697 138.614 40.9229 138.614 39.5374ZM148.451 35.208C147.204 35.208 146.246 35.5659 145.576 36.2817C144.906 36.9975 144.572 38.0828 144.572 39.5374C144.572 40.969 144.883 42.0543 145.507 42.7932C146.13 43.509 147.031 43.8669 148.208 43.8669C148.624 43.8669 148.993 43.8092 149.317 43.6937C149.663 43.5552 149.929 43.4051 150.113 43.2434V35.6236C149.652 35.3466 149.097 35.208 148.451 35.208ZM168.537 48.508C167.175 48.508 165.905 48.3233 164.727 47.9539C163.573 47.5613 162.557 46.9841 161.679 46.2221C160.825 45.4601 160.144 44.5019 159.636 43.3473C159.151 42.1928 158.909 40.842 158.909 39.295C158.909 37.771 159.151 36.4664 159.636 35.3812C160.144 34.2729 160.802 33.3723 161.61 32.6796C162.418 31.9638 163.342 31.4443 164.381 31.121C165.42 30.7747 166.482 30.6015 167.567 30.6015C168.791 30.6015 169.9 30.7862 170.892 31.1557C171.908 31.5251 172.774 32.0331 173.49 32.6796C174.229 33.3262 174.795 34.0997 175.187 35.0002C175.603 35.9007 175.811 36.8821 175.811 37.9442C175.811 38.7293 175.591 39.3296 175.153 39.7453C174.714 40.1609 174.102 40.4264 173.317 40.5419L164.762 41.8234C165.016 42.5854 165.535 43.1626 166.321 43.5552C167.106 43.9246 168.006 44.1093 169.022 44.1093C169.969 44.1093 170.858 43.9939 171.689 43.763C172.543 43.509 173.236 43.2203 173.767 42.8971C174.137 43.128 174.448 43.4513 174.702 43.8669C174.956 44.2825 175.083 44.7212 175.083 45.183C175.083 46.2221 174.598 46.9956 173.629 47.5036C172.89 47.8961 172.058 48.1617 171.135 48.3002C170.211 48.4388 169.345 48.508 168.537 48.508ZM167.567 34.8963C167.013 34.8963 166.528 34.9887 166.113 35.1734C165.72 35.3581 165.397 35.6006 165.143 35.9007C164.889 36.1778 164.693 36.5011 164.554 36.8705C164.439 37.2169 164.369 37.5748 164.346 37.9442L170.269 36.9744C170.2 36.5126 169.946 36.0508 169.507 35.589C169.068 35.1272 168.422 34.8963 167.567 34.8963Z" fill="white"/>
</svg>
