<svg width="277" height="76" viewBox="0 0 277 76" fill="none" xmlns="http://www.w3.org/2000/svg">
<g filter="url(#filter0_d_61_34)">
<rect x="0.828613" width="275.413" height="71.983" rx="19.5606" fill="#0463E8"/>
</g>
<path d="M121.112 47.8153C120.858 47.8846 120.454 47.9539 119.9 48.0231C119.369 48.0924 118.838 48.127 118.306 48.127C117.775 48.127 117.302 48.0809 116.886 47.9885C116.494 47.9192 116.159 47.7807 115.882 47.5729C115.605 47.3651 115.397 47.0764 115.259 46.707C115.12 46.3375 115.051 45.8526 115.051 45.2523V39.8492H108.401V47.8153C108.147 47.8846 107.743 47.9539 107.189 48.0231C106.657 48.0924 106.126 48.127 105.595 48.127C105.064 48.127 104.591 48.0809 104.175 47.9885C103.783 47.9192 103.448 47.7807 103.171 47.5729C102.894 47.3651 102.686 47.0764 102.547 46.707C102.409 46.3375 102.34 45.8526 102.34 45.2523V26.9648C102.594 26.9186 102.998 26.8609 103.552 26.7916C104.106 26.6993 104.637 26.6531 105.145 26.6531C105.676 26.6531 106.138 26.6993 106.53 26.7916C106.946 26.8609 107.292 26.9994 107.57 27.2072C107.847 27.415 108.054 27.7037 108.193 28.0731C108.331 28.4426 108.401 28.9275 108.401 29.5278V35.0695H115.051V26.9648C115.305 26.9186 115.709 26.8609 116.263 26.7916C116.817 26.6993 117.348 26.6531 117.856 26.6531C118.387 26.6531 118.849 26.6993 119.242 26.7916C119.657 26.8609 120.004 26.9994 120.281 27.2072C120.558 27.415 120.766 27.7037 120.904 28.0731C121.043 28.4426 121.112 28.9275 121.112 29.5278V47.8153ZM125.021 26.4453C125.021 25.5678 125.31 24.8289 125.887 24.2286C126.488 23.6282 127.273 23.3281 128.243 23.3281C129.212 23.3281 129.986 23.6282 130.563 24.2286C131.163 24.8289 131.464 25.5678 131.464 26.4453C131.464 27.3227 131.163 28.0616 130.563 28.6619C129.986 29.2623 129.212 29.5624 128.243 29.5624C127.273 29.5624 126.488 29.2623 125.887 28.6619C125.31 28.0616 125.021 27.3227 125.021 26.4453ZM131.187 47.9192C130.933 47.9654 130.552 48.0231 130.044 48.0924C129.559 48.1848 129.062 48.2309 128.554 48.2309C128.046 48.2309 127.584 48.1963 127.169 48.127C126.776 48.0578 126.441 47.9192 126.164 47.7114C125.887 47.5036 125.668 47.2265 125.506 46.8802C125.368 46.5107 125.299 46.0374 125.299 45.4601V31.3635C125.553 31.3173 125.922 31.2596 126.407 31.1903C126.915 31.0979 127.423 31.0518 127.931 31.0518C128.439 31.0518 128.889 31.0864 129.282 31.1557C129.697 31.2249 130.044 31.3635 130.321 31.5713C130.598 31.7791 130.806 32.0677 130.944 32.4372C131.106 32.7835 131.187 33.2453 131.187 33.8226V47.9192ZM140.927 47.9192C140.673 47.9654 140.292 48.0231 139.784 48.0924C139.299 48.1848 138.803 48.2309 138.295 48.2309C137.787 48.2309 137.325 48.1963 136.909 48.127C136.517 48.0578 136.182 47.9192 135.905 47.7114C135.628 47.5036 135.408 47.2265 135.247 46.8802C135.108 46.5107 135.039 46.0374 135.039 45.4601V25.3716C135.293 25.3254 135.662 25.2677 136.147 25.1984C136.655 25.106 137.163 25.0598 137.671 25.0598C138.179 25.0598 138.629 25.0945 139.022 25.1637C139.438 25.233 139.784 25.3716 140.061 25.5794C140.338 25.7872 140.546 26.0758 140.684 26.4453C140.846 26.7916 140.927 27.2534 140.927 27.8307V47.9192ZM144.712 31.121C144.712 29.9434 144.908 28.939 145.3 28.1078C145.716 27.2534 146.27 26.5607 146.963 26.0296C147.656 25.4755 148.464 25.0714 149.387 24.8174C150.334 24.5634 151.339 24.4364 152.401 24.4364C154.109 24.4364 155.368 24.6673 156.176 25.1291C156.984 25.5678 157.388 26.3298 157.388 27.415C157.388 27.8769 157.284 28.2925 157.077 28.6619C156.892 29.0314 156.684 29.3085 156.453 29.4932C156.014 29.3777 155.553 29.2854 155.068 29.2161C154.606 29.1237 154.063 29.0775 153.44 29.0775C152.447 29.0775 151.673 29.2507 151.119 29.5971C150.565 29.9203 150.288 30.4976 150.288 31.3289V32.4372H155.968C156.107 32.6912 156.234 33.0144 156.349 33.407C156.488 33.7764 156.557 34.192 156.557 34.6539C156.557 35.462 156.372 36.0508 156.003 36.4203C155.656 36.7666 155.183 36.9398 154.583 36.9398H150.6V47.9192C150.369 47.9885 149.999 48.0578 149.491 48.127C149.006 48.1963 148.498 48.2309 147.967 48.2309C147.459 48.2309 146.998 48.1963 146.582 48.127C146.189 48.0578 145.855 47.9192 145.578 47.7114C145.3 47.5036 145.081 47.2265 144.919 46.8802C144.781 46.5107 144.712 46.0374 144.712 45.4601V31.121ZM167.648 48.508C166.286 48.508 165.016 48.3233 163.838 47.9539C162.684 47.5613 161.668 46.9841 160.79 46.2221C159.936 45.4601 159.255 44.5019 158.747 43.3473C158.262 42.1928 158.02 40.842 158.02 39.295C158.02 37.771 158.262 36.4664 158.747 35.3812C159.255 34.2729 159.913 33.3723 160.721 32.6796C161.529 31.9638 162.453 31.4443 163.492 31.121C164.531 30.7747 165.593 30.6015 166.678 30.6015C167.902 30.6015 169.01 30.7862 170.003 31.1557C171.019 31.5251 171.885 32.0331 172.601 32.6796C173.34 33.3262 173.906 34.0997 174.298 35.0002C174.714 35.9007 174.922 36.8821 174.922 37.9442C174.922 38.7293 174.702 39.3296 174.264 39.7453C173.825 40.1609 173.213 40.4264 172.428 40.5419L163.873 41.8234C164.127 42.5854 164.646 43.1626 165.431 43.5552C166.217 43.9246 167.117 44.1093 168.133 44.1093C169.08 44.1093 169.969 43.9939 170.8 43.763C171.654 43.509 172.347 43.2203 172.878 42.8971C173.248 43.128 173.559 43.4513 173.813 43.8669C174.067 44.2825 174.194 44.7212 174.194 45.183C174.194 46.2221 173.709 46.9956 172.74 47.5036C172.001 47.8961 171.169 48.1617 170.246 48.3002C169.322 48.4388 168.456 48.508 167.648 48.508ZM166.678 34.8963C166.124 34.8963 165.639 34.9887 165.224 35.1734C164.831 35.3581 164.508 35.6006 164.254 35.9007C164 36.1778 163.804 36.5011 163.665 36.8705C163.55 37.2169 163.48 37.5748 163.457 37.9442L169.38 36.9744C169.311 36.5126 169.057 36.0508 168.618 35.589C168.179 35.1272 167.533 34.8963 166.678 34.8963Z" fill="white"/>
<defs>
<filter id="filter0_d_61_34" x="0.828613" y="0" width="275.413" height="75.406" filterUnits="userSpaceOnUse" color-interpolation-filters="sRGB">
<feFlood flood-opacity="0" result="BackgroundImageFix"/>
<feColorMatrix in="SourceAlpha" type="matrix" values="0 0 0 0 0 0 0 0 0 0 0 0 0 0 0 0 0 0 127 0" result="hardAlpha"/>
<feOffset dy="3.4231"/>
<feComposite in2="hardAlpha" operator="out"/>
<feColorMatrix type="matrix" values="0 0 0 0 0.0182856 0 0 0 0 0.463237 0 0 0 0 0.552227 0 0 0 1 0"/>
<feBlend mode="normal" in2="BackgroundImageFix" result="effect1_dropShadow_61_34"/>
<feBlend mode="normal" in="SourceGraphic" in2="effect1_dropShadow_61_34" result="shape"/>
</filter>
</defs>
</svg>
