<svg width="276" height="76" viewBox="0 0 276 76" fill="none" xmlns="http://www.w3.org/2000/svg">
<g filter="url(#filter0_d_61_34)">
<rect width="275.413" height="71.983" rx="19.5606" fill="#0494FA"/>
</g>
<path d="M120.283 47.8153C120.029 47.8846 119.625 47.9539 119.071 48.0231C118.54 48.0924 118.009 48.127 117.478 48.127C116.947 48.127 116.473 48.0809 116.058 47.9885C115.665 47.9192 115.33 47.7807 115.053 47.5729C114.776 47.3651 114.568 47.0764 114.43 46.707C114.291 46.3375 114.222 45.8526 114.222 45.2523V39.8492H107.572V47.8153C107.318 47.8846 106.914 47.9539 106.36 48.0231C105.829 48.0924 105.298 48.127 104.767 48.127C104.236 48.127 103.762 48.0809 103.347 47.9885C102.954 47.9192 102.619 47.7807 102.342 47.5729C102.065 47.3651 101.857 47.0764 101.719 46.707C101.58 46.3375 101.511 45.8526 101.511 45.2523V26.9648C101.765 26.9186 102.169 26.8609 102.723 26.7916C103.277 26.6993 103.808 26.6531 104.316 26.6531C104.847 26.6531 105.309 26.6993 105.702 26.7916C106.117 26.8609 106.464 26.9994 106.741 27.2072C107.018 27.415 107.226 27.7037 107.364 28.0731C107.503 28.4426 107.572 28.9275 107.572 29.5278V35.0695H114.222V26.9648C114.476 26.9186 114.88 26.8609 115.434 26.7916C115.989 26.6993 116.52 26.6531 117.028 26.6531C117.559 26.6531 118.02 26.6993 118.413 26.7916C118.829 26.8609 119.175 26.9994 119.452 27.2072C119.729 27.415 119.937 27.7037 120.076 28.0731C120.214 28.4426 120.283 28.9275 120.283 29.5278V47.8153ZM124.193 26.4453C124.193 25.5678 124.481 24.8289 125.059 24.2286C125.659 23.6282 126.444 23.3281 127.414 23.3281C128.384 23.3281 129.157 23.6282 129.734 24.2286C130.335 24.8289 130.635 25.5678 130.635 26.4453C130.635 27.3227 130.335 28.0616 129.734 28.6619C129.157 29.2623 128.384 29.5624 127.414 29.5624C126.444 29.5624 125.659 29.2623 125.059 28.6619C124.481 28.0616 124.193 27.3227 124.193 26.4453ZM130.358 47.9192C130.104 47.9654 129.723 48.0231 129.215 48.0924C128.73 48.1848 128.234 48.2309 127.726 48.2309C127.218 48.2309 126.756 48.1963 126.34 48.127C125.948 48.0578 125.613 47.9192 125.336 47.7114C125.059 47.5036 124.839 47.2265 124.678 46.8802C124.539 46.5107 124.47 46.0374 124.47 45.4601V31.3635C124.724 31.3173 125.093 31.2596 125.578 31.1903C126.086 31.0979 126.594 31.0518 127.102 31.0518C127.61 31.0518 128.06 31.0864 128.453 31.1557C128.869 31.2249 129.215 31.3635 129.492 31.5713C129.769 31.7791 129.977 32.0677 130.115 32.4372C130.277 32.7835 130.358 33.2453 130.358 33.8226V47.9192ZM140.098 47.9192C139.844 47.9654 139.463 48.0231 138.955 48.0924C138.47 48.1848 137.974 48.2309 137.466 48.2309C136.958 48.2309 136.496 48.1963 136.081 48.127C135.688 48.0578 135.353 47.9192 135.076 47.7114C134.799 47.5036 134.58 47.2265 134.418 46.8802C134.28 46.5107 134.21 46.0374 134.21 45.4601V25.3716C134.464 25.3254 134.834 25.2677 135.319 25.1984C135.827 25.106 136.335 25.0598 136.843 25.0598C137.351 25.0598 137.801 25.0945 138.193 25.1637C138.609 25.233 138.955 25.3716 139.232 25.5794C139.51 25.7872 139.717 26.0758 139.856 26.4453C140.018 26.7916 140.098 27.2534 140.098 27.8307V47.9192ZM143.883 31.121C143.883 29.9434 144.079 28.939 144.472 28.1078C144.887 27.2534 145.442 26.5607 146.134 26.0296C146.827 25.4755 147.635 25.0714 148.559 24.8174C149.506 24.5634 150.51 24.4364 151.572 24.4364C153.281 24.4364 154.539 24.6673 155.347 25.1291C156.156 25.5678 156.56 26.3298 156.56 27.415C156.56 27.8769 156.456 28.2925 156.248 28.6619C156.063 29.0314 155.855 29.3085 155.624 29.4932C155.186 29.3777 154.724 29.2854 154.239 29.2161C153.777 29.1237 153.235 29.0775 152.611 29.0775C151.618 29.0775 150.845 29.2507 150.291 29.5971C149.736 29.9203 149.459 30.4976 149.459 31.3289V32.4372H155.14C155.278 32.6912 155.405 33.0144 155.521 33.407C155.659 33.7764 155.728 34.192 155.728 34.6539C155.728 35.462 155.544 36.0508 155.174 36.4203C154.828 36.7666 154.354 36.9398 153.754 36.9398H149.771V47.9192C149.54 47.9885 149.171 48.0578 148.663 48.127C148.178 48.1963 147.67 48.2309 147.139 48.2309C146.631 48.2309 146.169 48.1963 145.753 48.127C145.361 48.0578 145.026 47.9192 144.749 47.7114C144.472 47.5036 144.252 47.2265 144.091 46.8802C143.952 46.5107 143.883 46.0374 143.883 45.4601V31.121ZM166.82 48.508C165.457 48.508 164.187 48.3233 163.01 47.9539C161.855 47.5613 160.839 46.9841 159.962 46.2221C159.107 45.4601 158.426 44.5019 157.918 43.3473C157.433 42.1928 157.191 40.842 157.191 39.295C157.191 37.771 157.433 36.4664 157.918 35.3812C158.426 34.2729 159.084 33.3723 159.892 32.6796C160.701 31.9638 161.624 31.4443 162.663 31.121C163.702 30.7747 164.765 30.6015 165.85 30.6015C167.074 30.6015 168.182 30.7862 169.175 31.1557C170.191 31.5251 171.057 32.0331 171.772 32.6796C172.511 33.3262 173.077 34.0997 173.47 35.0002C173.885 35.9007 174.093 36.8821 174.093 37.9442C174.093 38.7293 173.874 39.3296 173.435 39.7453C172.996 40.1609 172.384 40.4264 171.599 40.5419L163.044 41.8234C163.298 42.5854 163.818 43.1626 164.603 43.5552C165.388 43.9246 166.288 44.1093 167.304 44.1093C168.251 44.1093 169.14 43.9939 169.971 43.763C170.826 43.509 171.518 43.2203 172.05 42.8971C172.419 43.128 172.731 43.4513 172.985 43.8669C173.239 44.2825 173.366 44.7212 173.366 45.183C173.366 46.2221 172.881 46.9956 171.911 47.5036C171.172 47.8961 170.341 48.1617 169.417 48.3002C168.494 48.4388 167.628 48.508 166.82 48.508ZM165.85 34.8963C165.296 34.8963 164.811 34.9887 164.395 35.1734C164.003 35.3581 163.679 35.6006 163.425 35.9007C163.171 36.1778 162.975 36.5011 162.836 36.8705C162.721 37.2169 162.652 37.5748 162.629 37.9442L168.551 36.9744C168.482 36.5126 168.228 36.0508 167.789 35.589C167.351 35.1272 166.704 34.8963 165.85 34.8963Z" fill="white"/>
<defs>
<filter id="filter0_d_61_34" x="0" y="0" width="275.413" height="75.406" filterUnits="userSpaceOnUse" color-interpolation-filters="sRGB">
<feFlood flood-opacity="0" result="BackgroundImageFix"/>
<feColorMatrix in="SourceAlpha" type="matrix" values="0 0 0 0 0 0 0 0 0 0 0 0 0 0 0 0 0 0 127 0" result="hardAlpha"/>
<feOffset dy="3.4231"/>
<feComposite in2="hardAlpha" operator="out"/>
<feColorMatrix type="matrix" values="0 0 0 0 0.0182856 0 0 0 0 0.463237 0 0 0 0 0.552227 0 0 0 1 0"/>
<feBlend mode="normal" in2="BackgroundImageFix" result="effect1_dropShadow_61_34"/>
<feBlend mode="normal" in="SourceGraphic" in2="effect1_dropShadow_61_34" result="shape"/>
</filter>
</defs>
</svg>
