<svg width="322" height="89" viewBox="0 0 322 89" fill="none" xmlns="http://www.w3.org/2000/svg">
<rect y="4" width="321.829" height="84.1143" rx="22.8571" fill="#AB8302"/>
<rect width="321.829" height="84.1143" rx="22.8571" fill="#F0B800"/>
<path d="M68.7666 53.2357C67.6064 53.2357 66.689 52.8984 66.0145 52.2239C65.34 51.5493 65.0027 50.6319 65.0027 49.4717V28.5474C65.2995 28.4935 65.7717 28.426 66.4192 28.3451C67.0668 28.2371 67.6874 28.1832 68.281 28.1832C68.9015 28.1832 69.4412 28.2371 69.8999 28.3451C70.3855 28.426 70.7903 28.5879 71.114 28.8307C71.4378 29.0736 71.6807 29.4108 71.8425 29.8425C72.0044 30.2742 72.0854 30.8409 72.0854 31.5424V47.529H81.3536C81.5425 47.8258 81.7178 48.2306 81.8797 48.7432C82.0416 49.2289 82.1226 49.7415 82.1226 50.2812C82.1226 51.3604 81.8932 52.1294 81.4345 52.5881C80.9758 53.0198 80.3688 53.2357 79.6133 53.2357H68.7666ZM105.189 43.2794C105.189 44.9523 104.933 46.4498 104.42 47.7719C103.907 49.067 103.179 50.1598 102.235 51.0502C101.317 51.9406 100.211 52.6151 98.9158 53.0738C97.6207 53.5325 96.1772 53.7618 94.5853 53.7618C92.9933 53.7618 91.5498 53.519 90.2547 53.0333C88.9596 52.5476 87.8398 51.8596 86.8955 50.9692C85.9781 50.0518 85.2631 48.9456 84.7504 47.6505C84.2378 46.3553 83.9815 44.8983 83.9815 43.2794C83.9815 41.6875 84.2378 40.244 84.7504 38.9489C85.2631 37.6537 85.9781 36.561 86.8955 35.6706C87.8398 34.7532 88.9596 34.0517 90.2547 33.566C91.5498 33.0803 92.9933 32.8375 94.5853 32.8375C96.1772 32.8375 97.6207 33.0938 98.9158 33.6065C100.211 34.0922 101.317 34.7937 102.235 35.7111C103.179 36.6015 103.907 37.6942 104.42 38.9893C104.933 40.2845 105.189 41.7145 105.189 43.2794ZM91.0237 43.2794C91.0237 44.9253 91.334 46.1935 91.9546 47.0838C92.6021 47.9473 93.4925 48.379 94.6257 48.379C95.759 48.379 96.6224 47.9338 97.216 47.0434C97.8366 46.153 98.1469 44.8983 98.1469 43.2794C98.1469 41.6605 97.8366 40.4194 97.216 39.556C96.5954 38.6656 95.7185 38.2204 94.5853 38.2204C93.452 38.2204 92.5751 38.6656 91.9546 39.556C91.334 40.4194 91.0237 41.6605 91.0237 43.2794ZM125.14 47.2457C125.14 49.2963 124.371 50.9018 122.833 52.062C121.295 53.2222 119.028 53.8023 116.033 53.8023C114.9 53.8023 113.848 53.7213 112.876 53.5595C111.905 53.3976 111.069 53.1547 110.367 52.8309C109.692 52.4802 109.153 52.0485 108.748 51.5358C108.37 51.0232 108.182 50.4161 108.182 49.7146C108.182 49.067 108.316 48.5274 108.586 48.0957C108.856 47.637 109.18 47.2592 109.558 46.9624C110.34 47.3941 111.23 47.7854 112.229 48.1361C113.254 48.4599 114.428 48.6218 115.75 48.6218C116.586 48.6218 117.22 48.5004 117.652 48.2576C118.111 48.0147 118.34 47.6909 118.34 47.2862C118.34 46.9085 118.178 46.6117 117.854 46.3958C117.531 46.18 116.991 46.0046 116.236 45.8697L115.021 45.6268C112.674 45.1681 110.92 44.4531 109.76 43.4818C108.627 42.4835 108.06 41.0669 108.06 39.2322C108.06 38.2338 108.276 37.33 108.708 36.5205C109.139 35.7111 109.746 35.0365 110.529 34.4969C111.311 33.9573 112.242 33.539 113.322 33.2422C114.428 32.9454 115.642 32.797 116.964 32.797C117.962 32.797 118.893 32.878 119.757 33.0399C120.647 33.1748 121.416 33.3906 122.064 33.6874C122.711 33.9842 123.224 34.3755 123.602 34.8611C123.979 35.3198 124.168 35.873 124.168 36.5205C124.168 37.1411 124.047 37.6807 123.804 38.1394C123.588 38.5711 123.305 38.9354 122.954 39.2322C122.738 39.0973 122.414 38.9624 121.983 38.8274C121.551 38.6656 121.079 38.5306 120.566 38.4227C120.053 38.2878 119.527 38.1799 118.988 38.0989C118.475 38.018 118.003 37.9775 117.571 37.9775C116.681 37.9775 115.993 38.0855 115.507 38.3013C115.021 38.4902 114.779 38.8005 114.779 39.2322C114.779 39.529 114.913 39.7718 115.183 39.9607C115.453 40.1496 115.966 40.3249 116.721 40.4868L117.976 40.7701C120.566 41.3637 122.401 42.1867 123.48 43.239C124.586 44.2643 125.14 45.5999 125.14 47.2457ZM159.314 49.1075C159.314 49.9439 159.165 50.5645 158.869 50.9692C158.572 51.3739 158.1 51.7652 157.452 52.1429C157.074 52.3588 156.602 52.5746 156.036 52.7905C155.469 52.9793 154.848 53.1412 154.174 53.2761C153.499 53.438 152.784 53.5595 152.029 53.6404C151.3 53.7213 150.572 53.7618 149.843 53.7618C147.901 53.7618 146.079 53.5055 144.379 52.9928C142.68 52.4532 141.196 51.6572 139.927 50.605C138.686 49.5257 137.701 48.1901 136.973 46.5982C136.244 45.0063 135.88 43.158 135.88 41.0534C135.88 38.8409 136.271 36.9117 137.054 35.2659C137.863 33.62 138.916 32.2574 140.211 31.1781C141.533 30.0719 143.03 29.2489 144.703 28.7093C146.403 28.1697 148.143 27.8999 149.924 27.8999C152.487 27.8999 154.511 28.3181 155.995 29.1545C157.506 29.964 158.262 31.0297 158.262 32.3518C158.262 33.0534 158.086 33.6605 157.735 34.1731C157.385 34.6858 156.98 35.0905 156.521 35.3873C155.847 34.9826 154.997 34.5913 153.971 34.2136C152.973 33.8089 151.84 33.6065 150.572 33.6065C148.305 33.6065 146.498 34.254 145.148 35.5492C143.826 36.8443 143.165 38.6386 143.165 40.932C143.165 42.1732 143.341 43.2524 143.691 44.1698C144.069 45.0602 144.568 45.8022 145.189 46.3958C145.809 46.9624 146.525 47.3941 147.334 47.6909C148.143 47.9608 149.007 48.0957 149.924 48.0957C150.518 48.0957 151.044 48.0417 151.503 47.9338C151.961 47.8258 152.312 47.7044 152.555 47.5695V43.7651H148.224C148.062 43.4683 147.901 43.0771 147.739 42.5914C147.604 42.1057 147.536 41.5931 147.536 41.0534C147.536 40.0821 147.752 39.3806 148.184 38.9489C148.643 38.5172 149.223 38.3013 149.924 38.3013H156.764C157.574 38.3013 158.194 38.5306 158.626 38.9893C159.084 39.421 159.314 40.0416 159.314 40.8511V49.1075ZM173.846 53.7618C172.254 53.7618 170.77 53.546 169.394 53.1143C168.045 52.6556 166.858 51.981 165.832 51.0906C164.834 50.2002 164.038 49.0805 163.445 47.7314C162.878 46.3823 162.595 44.8039 162.595 42.9961C162.595 41.2153 162.878 39.6909 163.445 38.4227C164.038 37.1276 164.807 36.0753 165.752 35.2659C166.696 34.4294 167.775 33.8223 168.989 33.4446C170.203 33.0399 171.445 32.8375 172.713 32.8375C174.143 32.8375 175.438 33.0534 176.598 33.4851C177.785 33.9168 178.797 34.5104 179.634 35.2659C180.497 36.0214 181.158 36.9252 181.617 37.9775C182.102 39.0298 182.345 40.1765 182.345 41.4177C182.345 42.3351 182.089 43.0366 181.576 43.5223C181.064 44.0079 180.349 44.3182 179.431 44.4531L169.435 45.9506C169.731 46.841 170.338 47.5156 171.256 47.9742C172.173 48.406 173.225 48.6218 174.413 48.6218C175.519 48.6218 176.558 48.4869 177.529 48.2171C178.527 47.9203 179.337 47.583 179.957 47.2053C180.389 47.4751 180.753 47.8528 181.05 48.3385C181.347 48.8242 181.495 49.3368 181.495 49.8765C181.495 51.0906 180.929 51.9945 179.795 52.5881C178.932 53.0468 177.961 53.3571 176.881 53.519C175.802 53.6809 174.79 53.7618 173.846 53.7618ZM172.713 37.8561C172.065 37.8561 171.499 37.964 171.013 38.1799C170.554 38.3957 170.177 38.679 169.88 39.0298C169.583 39.3536 169.354 39.7313 169.192 40.163C169.057 40.5678 168.976 40.986 168.949 41.4177L175.87 40.2845C175.789 39.7448 175.492 39.2052 174.979 38.6656C174.467 38.1259 173.711 37.8561 172.713 37.8561ZM205.084 53.0738C204.814 53.1547 204.382 53.2357 203.789 53.3166C203.222 53.3976 202.629 53.438 202.008 53.438C201.414 53.438 200.875 53.3976 200.389 53.3166C199.93 53.2357 199.539 53.0738 199.215 52.8309C198.892 52.5881 198.635 52.2643 198.446 51.8596C198.284 51.4279 198.204 50.8748 198.204 50.2002V41.2153C198.204 40.1091 197.92 39.3401 197.354 38.9084C196.814 38.4497 196.139 38.2204 195.33 38.2204C194.79 38.2204 194.278 38.2878 193.792 38.4227C193.306 38.5576 192.915 38.7195 192.618 38.9084V53.0738C192.349 53.1547 191.917 53.2357 191.323 53.3166C190.757 53.3976 190.163 53.438 189.542 53.438C188.949 53.438 188.409 53.3976 187.924 53.3166C187.465 53.2357 187.074 53.0738 186.75 52.8309C186.426 52.5881 186.17 52.2643 185.981 51.8596C185.819 51.4279 185.738 50.8748 185.738 50.2002V26.7262C186.035 26.6722 186.466 26.6047 187.033 26.5238C187.627 26.4159 188.22 26.3619 188.814 26.3619C189.407 26.3619 189.934 26.4024 190.392 26.4833C190.878 26.5643 191.283 26.7262 191.607 26.969C191.93 27.2118 192.173 27.5491 192.335 27.9808C192.524 28.3855 192.618 28.9252 192.618 29.5997V33.566C192.969 33.4311 193.495 33.2827 194.197 33.1208C194.925 32.9319 195.721 32.8375 196.585 32.8375C199.256 32.8375 201.333 33.5121 202.817 34.8611C204.328 36.1832 205.084 38.1664 205.084 40.8106V53.0738ZM216.212 46.3553C216.212 47.0569 216.428 47.556 216.86 47.8528C217.318 48.1496 217.953 48.298 218.762 48.298C219.167 48.298 219.585 48.271 220.017 48.2171C220.448 48.1361 220.826 48.0417 221.15 47.9338C221.393 48.2306 221.595 48.5678 221.757 48.9456C221.946 49.2963 222.04 49.7281 222.04 50.2407C222.04 51.266 221.649 52.1024 220.867 52.75C220.111 53.3976 218.762 53.7213 216.819 53.7213C214.445 53.7213 212.61 53.1817 211.315 52.1024C210.047 51.0232 209.413 49.2694 209.413 46.841V29.5188C209.71 29.4378 210.128 29.3569 210.667 29.2759C211.234 29.168 211.828 29.114 212.448 29.114C213.635 29.114 214.553 29.3299 215.2 29.7616C215.875 30.1663 216.212 31.0432 216.212 32.3923V34.9826H221.514C221.676 35.2794 221.824 35.6571 221.959 36.1158C222.121 36.5475 222.202 37.0332 222.202 37.5728C222.202 38.5172 221.986 39.2052 221.555 39.6369C221.15 40.0416 220.597 40.244 219.895 40.244H216.212V46.3553ZM229.979 36.0348C229.682 36.4935 229.332 36.8308 228.927 37.0467C228.522 37.2625 228.01 37.3704 227.389 37.3704C226.876 37.3704 226.404 37.3165 225.972 37.2085C225.541 37.1006 225.123 36.9522 224.718 36.7633C224.853 35.1175 224.988 33.4716 225.123 31.8257C225.257 30.1798 225.352 28.6553 225.406 27.2523C225.784 27.0364 226.269 26.8341 226.863 26.6452C227.483 26.4563 228.077 26.3619 228.644 26.3619C229.075 26.3619 229.494 26.4024 229.898 26.4833C230.33 26.5643 230.708 26.7127 231.032 26.9285C231.355 27.1174 231.612 27.3872 231.8 27.738C231.989 28.0617 232.084 28.4665 232.084 28.9521C232.084 29.4918 232.03 30.0854 231.922 30.7329C231.814 31.3805 231.652 32.0281 231.436 32.6756C231.247 33.3232 231.018 33.9438 230.748 34.5374C230.505 35.131 230.249 35.6301 229.979 36.0348ZM250.351 47.2457C250.351 49.2963 249.582 50.9018 248.045 52.062C246.507 53.2222 244.24 53.8023 241.245 53.8023C240.112 53.8023 239.06 53.7213 238.088 53.5595C237.117 53.3976 236.28 53.1547 235.579 52.8309C234.904 52.4802 234.365 52.0485 233.96 51.5358C233.582 51.0232 233.393 50.4161 233.393 49.7146C233.393 49.067 233.528 48.5274 233.798 48.0957C234.068 47.637 234.392 47.2592 234.77 46.9624C235.552 47.3941 236.442 47.7854 237.441 48.1361C238.466 48.4599 239.64 48.6218 240.962 48.6218C241.798 48.6218 242.432 48.5004 242.864 48.2576C243.323 48.0147 243.552 47.6909 243.552 47.2862C243.552 46.9085 243.39 46.6117 243.066 46.3958C242.743 46.18 242.203 46.0046 241.447 45.8697L240.233 45.6268C237.886 45.1681 236.132 44.4531 234.972 43.4818C233.839 42.4835 233.272 41.0669 233.272 39.2322C233.272 38.2338 233.488 37.33 233.92 36.5205C234.351 35.7111 234.958 35.0365 235.741 34.4969C236.523 33.9573 237.454 33.539 238.533 33.2422C239.64 32.9454 240.854 32.797 242.176 32.797C243.174 32.797 244.105 32.878 244.969 33.0399C245.859 33.1748 246.628 33.3906 247.276 33.6874C247.923 33.9842 248.436 34.3755 248.813 34.8611C249.191 35.3198 249.38 35.873 249.38 36.5205C249.38 37.1411 249.259 37.6807 249.016 38.1394C248.8 38.5711 248.517 38.9354 248.166 39.2322C247.95 39.0973 247.626 38.9624 247.195 38.8274C246.763 38.6656 246.291 38.5306 245.778 38.4227C245.265 38.2878 244.739 38.1799 244.2 38.0989C243.687 38.018 243.215 37.9775 242.783 37.9775C241.893 37.9775 241.205 38.0855 240.719 38.3013C240.233 38.4902 239.99 38.8005 239.99 39.2322C239.99 39.529 240.125 39.7718 240.395 39.9607C240.665 40.1496 241.178 40.3249 241.933 40.4868L243.188 40.7701C245.778 41.3637 247.613 42.1867 248.692 43.239C249.798 44.2643 250.351 45.5999 250.351 47.2457ZM261.165 29.6402C261.165 30.2608 261.152 31.1646 261.125 32.3518C261.098 33.5121 261.044 34.7802 260.963 36.1563C260.882 37.5053 260.774 38.8679 260.639 40.244C260.504 41.5931 260.342 42.7668 260.153 43.7651C260.045 43.846 259.884 43.927 259.668 44.0079C259.452 44.0889 259.223 44.1563 258.98 44.2103C258.737 44.2643 258.494 44.3047 258.251 44.3317C258.008 44.3587 257.793 44.3722 257.604 44.3722C256.821 44.3722 256.16 44.2508 255.62 44.0079C255.108 43.7651 254.784 43.2929 254.649 42.5914C254.514 41.9708 254.393 41.0265 254.285 39.7583C254.204 38.4902 254.123 37.1141 254.042 35.6301C253.961 34.1461 253.894 32.6756 253.84 31.2186C253.813 29.7616 253.799 28.5204 253.799 27.4951C254.339 27.1983 254.946 26.969 255.62 26.8071C256.322 26.6182 257.01 26.5238 257.685 26.5238C258.791 26.5238 259.641 26.7801 260.234 27.2928C260.855 27.8054 261.165 28.5879 261.165 29.6402ZM253.718 50.0383C253.718 48.9321 254.056 48.0282 254.73 47.3267C255.432 46.5982 256.389 46.2339 257.604 46.2339C258.818 46.2339 259.762 46.5982 260.437 47.3267C261.138 48.0282 261.489 48.9321 261.489 50.0383C261.489 51.1446 261.138 52.062 260.437 52.7905C259.762 53.492 258.818 53.8428 257.604 53.8428C256.389 53.8428 255.432 53.492 254.73 52.7905C254.056 52.062 253.718 51.1446 253.718 50.0383Z" fill="white"/>
</svg>
