<svg width="322" height="89" viewBox="0 0 322 89" fill="none" xmlns="http://www.w3.org/2000/svg">
<g filter="url(#filter0_d_61_37)">
<rect width="321.829" height="84.1143" rx="22.8571" fill="#F09400"/>
</g>
<path d="M68.7666 55.2357C67.6064 55.2357 66.689 54.8984 66.0145 54.2239C65.34 53.5493 65.0027 52.6319 65.0027 51.4717V30.5474C65.2995 30.4935 65.7717 30.426 66.4192 30.3451C67.0668 30.2371 67.6874 30.1832 68.281 30.1832C68.9015 30.1832 69.4412 30.2371 69.8999 30.3451C70.3855 30.426 70.7903 30.5879 71.114 30.8307C71.4378 31.0736 71.6807 31.4108 71.8425 31.8425C72.0044 32.2742 72.0854 32.8409 72.0854 33.5424V49.529H81.3536C81.5425 49.8258 81.7178 50.2306 81.8797 50.7432C82.0416 51.2289 82.1226 51.7415 82.1226 52.2812C82.1226 53.3604 81.8932 54.1294 81.4345 54.5881C80.9758 55.0198 80.3688 55.2357 79.6133 55.2357H68.7666ZM105.189 45.2794C105.189 46.9523 104.933 48.4498 104.42 49.7719C103.907 51.067 103.179 52.1598 102.235 53.0502C101.317 53.9406 100.211 54.6151 98.9158 55.0738C97.6207 55.5325 96.1772 55.7618 94.5853 55.7618C92.9933 55.7618 91.5498 55.519 90.2547 55.0333C88.9596 54.5476 87.8398 53.8596 86.8955 52.9692C85.9781 52.0518 85.2631 50.9456 84.7504 49.6505C84.2378 48.3553 83.9815 46.8983 83.9815 45.2794C83.9815 43.6875 84.2378 42.244 84.7504 40.9489C85.2631 39.6537 85.9781 38.561 86.8955 37.6706C87.8398 36.7532 88.9596 36.0517 90.2547 35.566C91.5498 35.0803 92.9933 34.8375 94.5853 34.8375C96.1772 34.8375 97.6207 35.0938 98.9158 35.6065C100.211 36.0922 101.317 36.7937 102.235 37.7111C103.179 38.6015 103.907 39.6942 104.42 40.9893C104.933 42.2845 105.189 43.7145 105.189 45.2794ZM91.0237 45.2794C91.0237 46.9253 91.334 48.1935 91.9546 49.0838C92.6021 49.9473 93.4925 50.379 94.6257 50.379C95.759 50.379 96.6224 49.9338 97.216 49.0434C97.8366 48.153 98.1469 46.8983 98.1469 45.2794C98.1469 43.6605 97.8366 42.4194 97.216 41.556C96.5954 40.6656 95.7185 40.2204 94.5853 40.2204C93.452 40.2204 92.5751 40.6656 91.9546 41.556C91.334 42.4194 91.0237 43.6605 91.0237 45.2794ZM125.14 49.2457C125.14 51.2963 124.371 52.9018 122.833 54.062C121.295 55.2222 119.028 55.8023 116.033 55.8023C114.9 55.8023 113.848 55.7213 112.876 55.5595C111.905 55.3976 111.069 55.1547 110.367 54.8309C109.692 54.4802 109.153 54.0485 108.748 53.5358C108.37 53.0232 108.182 52.4161 108.182 51.7146C108.182 51.067 108.316 50.5274 108.586 50.0957C108.856 49.637 109.18 49.2592 109.558 48.9624C110.34 49.3941 111.23 49.7854 112.229 50.1361C113.254 50.4599 114.428 50.6218 115.75 50.6218C116.586 50.6218 117.22 50.5004 117.652 50.2576C118.111 50.0147 118.34 49.6909 118.34 49.2862C118.34 48.9085 118.178 48.6117 117.854 48.3958C117.531 48.18 116.991 48.0046 116.236 47.8697L115.021 47.6268C112.674 47.1681 110.92 46.4531 109.76 45.4818C108.627 44.4835 108.06 43.0669 108.06 41.2322C108.06 40.2338 108.276 39.33 108.708 38.5205C109.139 37.7111 109.746 37.0365 110.529 36.4969C111.311 35.9573 112.242 35.539 113.322 35.2422C114.428 34.9454 115.642 34.797 116.964 34.797C117.962 34.797 118.893 34.878 119.757 35.0399C120.647 35.1748 121.416 35.3906 122.064 35.6874C122.711 35.9842 123.224 36.3755 123.602 36.8611C123.979 37.3198 124.168 37.873 124.168 38.5205C124.168 39.1411 124.047 39.6807 123.804 40.1394C123.588 40.5711 123.305 40.9354 122.954 41.2322C122.738 41.0973 122.414 40.9624 121.983 40.8274C121.551 40.6656 121.079 40.5306 120.566 40.4227C120.053 40.2878 119.527 40.1799 118.988 40.0989C118.475 40.018 118.003 39.9775 117.571 39.9775C116.681 39.9775 115.993 40.0855 115.507 40.3013C115.021 40.4902 114.779 40.8005 114.779 41.2322C114.779 41.529 114.913 41.7718 115.183 41.9607C115.453 42.1496 115.966 42.3249 116.721 42.4868L117.976 42.7701C120.566 43.3637 122.401 44.1867 123.48 45.239C124.586 46.2643 125.14 47.5999 125.14 49.2457ZM159.314 51.1075C159.314 51.9439 159.165 52.5645 158.869 52.9692C158.572 53.3739 158.1 53.7652 157.452 54.1429C157.074 54.3588 156.602 54.5746 156.036 54.7905C155.469 54.9793 154.848 55.1412 154.174 55.2761C153.499 55.438 152.784 55.5595 152.029 55.6404C151.3 55.7213 150.572 55.7618 149.843 55.7618C147.901 55.7618 146.079 55.5055 144.379 54.9928C142.68 54.4532 141.196 53.6572 139.927 52.605C138.686 51.5257 137.701 50.1901 136.973 48.5982C136.244 47.0063 135.88 45.158 135.88 43.0534C135.88 40.8409 136.271 38.9117 137.054 37.2659C137.863 35.62 138.916 34.2574 140.211 33.1781C141.533 32.0719 143.03 31.2489 144.703 30.7093C146.403 30.1697 148.143 29.8999 149.924 29.8999C152.487 29.8999 154.511 30.3181 155.995 31.1545C157.506 31.964 158.262 33.0297 158.262 34.3518C158.262 35.0534 158.086 35.6605 157.735 36.1731C157.385 36.6858 156.98 37.0905 156.521 37.3873C155.847 36.9826 154.997 36.5913 153.971 36.2136C152.973 35.8089 151.84 35.6065 150.572 35.6065C148.305 35.6065 146.498 36.254 145.148 37.5492C143.826 38.8443 143.165 40.6386 143.165 42.932C143.165 44.1732 143.341 45.2524 143.691 46.1698C144.069 47.0602 144.568 47.8022 145.189 48.3958C145.809 48.9624 146.525 49.3941 147.334 49.6909C148.143 49.9608 149.007 50.0957 149.924 50.0957C150.518 50.0957 151.044 50.0417 151.503 49.9338C151.961 49.8258 152.312 49.7044 152.555 49.5695V45.7651H148.224C148.062 45.4683 147.901 45.0771 147.739 44.5914C147.604 44.1057 147.536 43.5931 147.536 43.0534C147.536 42.0821 147.752 41.3806 148.184 40.9489C148.643 40.5172 149.223 40.3013 149.924 40.3013H156.764C157.574 40.3013 158.194 40.5306 158.626 40.9893C159.084 41.421 159.314 42.0416 159.314 42.8511V51.1075ZM173.846 55.7618C172.254 55.7618 170.77 55.546 169.394 55.1143C168.045 54.6556 166.858 53.981 165.832 53.0906C164.834 52.2002 164.038 51.0805 163.445 49.7314C162.878 48.3823 162.595 46.8039 162.595 44.9961C162.595 43.2153 162.878 41.6909 163.445 40.4227C164.038 39.1276 164.807 38.0753 165.752 37.2659C166.696 36.4294 167.775 35.8223 168.989 35.4446C170.203 35.0399 171.445 34.8375 172.713 34.8375C174.143 34.8375 175.438 35.0534 176.598 35.4851C177.785 35.9168 178.797 36.5104 179.634 37.2659C180.497 38.0214 181.158 38.9252 181.617 39.9775C182.102 41.0298 182.345 42.1765 182.345 43.4177C182.345 44.3351 182.089 45.0366 181.576 45.5223C181.064 46.0079 180.349 46.3182 179.431 46.4531L169.435 47.9506C169.731 48.841 170.338 49.5156 171.256 49.9742C172.173 50.406 173.225 50.6218 174.413 50.6218C175.519 50.6218 176.558 50.4869 177.529 50.2171C178.527 49.9203 179.337 49.583 179.957 49.2053C180.389 49.4751 180.753 49.8528 181.05 50.3385C181.347 50.8242 181.495 51.3368 181.495 51.8765C181.495 53.0906 180.929 53.9945 179.795 54.5881C178.932 55.0468 177.961 55.3571 176.881 55.519C175.802 55.6809 174.79 55.7618 173.846 55.7618ZM172.713 39.8561C172.065 39.8561 171.499 39.964 171.013 40.1799C170.554 40.3957 170.177 40.679 169.88 41.0298C169.583 41.3536 169.354 41.7313 169.192 42.163C169.057 42.5678 168.976 42.986 168.949 43.4177L175.87 42.2845C175.789 41.7448 175.492 41.2052 174.979 40.6656C174.467 40.1259 173.711 39.8561 172.713 39.8561ZM205.084 55.0738C204.814 55.1547 204.382 55.2357 203.789 55.3166C203.222 55.3976 202.629 55.438 202.008 55.438C201.414 55.438 200.875 55.3976 200.389 55.3166C199.93 55.2357 199.539 55.0738 199.215 54.8309C198.892 54.5881 198.635 54.2643 198.446 53.8596C198.284 53.4279 198.204 52.8748 198.204 52.2002V43.2153C198.204 42.1091 197.92 41.3401 197.354 40.9084C196.814 40.4497 196.139 40.2204 195.33 40.2204C194.79 40.2204 194.278 40.2878 193.792 40.4227C193.306 40.5576 192.915 40.7195 192.618 40.9084V55.0738C192.349 55.1547 191.917 55.2357 191.323 55.3166C190.757 55.3976 190.163 55.438 189.542 55.438C188.949 55.438 188.409 55.3976 187.924 55.3166C187.465 55.2357 187.074 55.0738 186.75 54.8309C186.426 54.5881 186.17 54.2643 185.981 53.8596C185.819 53.4279 185.738 52.8748 185.738 52.2002V28.7262C186.035 28.6722 186.466 28.6047 187.033 28.5238C187.627 28.4159 188.22 28.3619 188.814 28.3619C189.407 28.3619 189.934 28.4024 190.392 28.4833C190.878 28.5643 191.283 28.7262 191.607 28.969C191.93 29.2118 192.173 29.5491 192.335 29.9808C192.524 30.3855 192.618 30.9252 192.618 31.5997V35.566C192.969 35.4311 193.495 35.2827 194.197 35.1208C194.925 34.9319 195.721 34.8375 196.585 34.8375C199.256 34.8375 201.333 35.5121 202.817 36.8611C204.328 38.1832 205.084 40.1664 205.084 42.8106V55.0738ZM216.212 48.3553C216.212 49.0569 216.428 49.556 216.86 49.8528C217.318 50.1496 217.953 50.298 218.762 50.298C219.167 50.298 219.585 50.271 220.017 50.2171C220.448 50.1361 220.826 50.0417 221.15 49.9338C221.393 50.2306 221.595 50.5678 221.757 50.9456C221.946 51.2963 222.04 51.7281 222.04 52.2407C222.04 53.266 221.649 54.1024 220.867 54.75C220.111 55.3976 218.762 55.7213 216.819 55.7213C214.445 55.7213 212.61 55.1817 211.315 54.1024C210.047 53.0232 209.413 51.2694 209.413 48.841V31.5188C209.71 31.4378 210.128 31.3569 210.667 31.2759C211.234 31.168 211.828 31.114 212.448 31.114C213.635 31.114 214.553 31.3299 215.2 31.7616C215.875 32.1663 216.212 33.0432 216.212 34.3923V36.9826H221.514C221.676 37.2794 221.824 37.6571 221.959 38.1158C222.121 38.5475 222.202 39.0332 222.202 39.5728C222.202 40.5172 221.986 41.2052 221.555 41.6369C221.15 42.0416 220.597 42.244 219.895 42.244H216.212V48.3553ZM229.979 38.0348C229.682 38.4935 229.332 38.8308 228.927 39.0467C228.522 39.2625 228.01 39.3704 227.389 39.3704C226.876 39.3704 226.404 39.3165 225.972 39.2085C225.541 39.1006 225.123 38.9522 224.718 38.7633C224.853 37.1175 224.988 35.4716 225.123 33.8257C225.257 32.1798 225.352 30.6553 225.406 29.2523C225.784 29.0364 226.269 28.8341 226.863 28.6452C227.483 28.4563 228.077 28.3619 228.644 28.3619C229.075 28.3619 229.494 28.4024 229.898 28.4833C230.33 28.5643 230.708 28.7127 231.032 28.9285C231.355 29.1174 231.612 29.3872 231.8 29.738C231.989 30.0617 232.084 30.4665 232.084 30.9521C232.084 31.4918 232.03 32.0854 231.922 32.7329C231.814 33.3805 231.652 34.0281 231.436 34.6756C231.247 35.3232 231.018 35.9438 230.748 36.5374C230.505 37.131 230.249 37.6301 229.979 38.0348ZM250.351 49.2457C250.351 51.2963 249.582 52.9018 248.045 54.062C246.507 55.2222 244.24 55.8023 241.245 55.8023C240.112 55.8023 239.06 55.7213 238.088 55.5595C237.117 55.3976 236.28 55.1547 235.579 54.8309C234.904 54.4802 234.365 54.0485 233.96 53.5358C233.582 53.0232 233.393 52.4161 233.393 51.7146C233.393 51.067 233.528 50.5274 233.798 50.0957C234.068 49.637 234.392 49.2592 234.77 48.9624C235.552 49.3941 236.442 49.7854 237.441 50.1361C238.466 50.4599 239.64 50.6218 240.962 50.6218C241.798 50.6218 242.432 50.5004 242.864 50.2576C243.323 50.0147 243.552 49.6909 243.552 49.2862C243.552 48.9085 243.39 48.6117 243.066 48.3958C242.743 48.18 242.203 48.0046 241.447 47.8697L240.233 47.6268C237.886 47.1681 236.132 46.4531 234.972 45.4818C233.839 44.4835 233.272 43.0669 233.272 41.2322C233.272 40.2338 233.488 39.33 233.92 38.5205C234.351 37.7111 234.958 37.0365 235.741 36.4969C236.523 35.9573 237.454 35.539 238.533 35.2422C239.64 34.9454 240.854 34.797 242.176 34.797C243.174 34.797 244.105 34.878 244.969 35.0399C245.859 35.1748 246.628 35.3906 247.276 35.6874C247.923 35.9842 248.436 36.3755 248.813 36.8611C249.191 37.3198 249.38 37.873 249.38 38.5205C249.38 39.1411 249.259 39.6807 249.016 40.1394C248.8 40.5711 248.517 40.9354 248.166 41.2322C247.95 41.0973 247.626 40.9624 247.195 40.8274C246.763 40.6656 246.291 40.5306 245.778 40.4227C245.265 40.2878 244.739 40.1799 244.2 40.0989C243.687 40.018 243.215 39.9775 242.783 39.9775C241.893 39.9775 241.205 40.0855 240.719 40.3013C240.233 40.4902 239.99 40.8005 239.99 41.2322C239.99 41.529 240.125 41.7718 240.395 41.9607C240.665 42.1496 241.178 42.3249 241.933 42.4868L243.188 42.7701C245.778 43.3637 247.613 44.1867 248.692 45.239C249.798 46.2643 250.351 47.5999 250.351 49.2457ZM261.165 31.6402C261.165 32.2608 261.152 33.1646 261.125 34.3518C261.098 35.5121 261.044 36.7802 260.963 38.1563C260.882 39.5053 260.774 40.8679 260.639 42.244C260.504 43.5931 260.342 44.7668 260.153 45.7651C260.045 45.846 259.884 45.927 259.668 46.0079C259.452 46.0889 259.223 46.1563 258.98 46.2103C258.737 46.2643 258.494 46.3047 258.251 46.3317C258.008 46.3587 257.793 46.3722 257.604 46.3722C256.821 46.3722 256.16 46.2508 255.62 46.0079C255.108 45.7651 254.784 45.2929 254.649 44.5914C254.514 43.9708 254.393 43.0265 254.285 41.7583C254.204 40.4902 254.123 39.1141 254.042 37.6301C253.961 36.1461 253.894 34.6756 253.84 33.2186C253.813 31.7616 253.799 30.5204 253.799 29.4951C254.339 29.1983 254.946 28.969 255.62 28.8071C256.322 28.6182 257.01 28.5238 257.685 28.5238C258.791 28.5238 259.641 28.7801 260.234 29.2928C260.855 29.8054 261.165 30.5879 261.165 31.6402ZM253.718 52.0383C253.718 50.9321 254.056 50.0282 254.73 49.3267C255.432 48.5982 256.389 48.2339 257.604 48.2339C258.818 48.2339 259.762 48.5982 260.437 49.3267C261.138 50.0282 261.489 50.9321 261.489 52.0383C261.489 53.1446 261.138 54.062 260.437 54.7905C259.762 55.492 258.818 55.8428 257.604 55.8428C256.389 55.8428 255.432 55.492 254.73 54.7905C254.056 54.062 253.718 53.1446 253.718 52.0383Z" fill="white"/>
<defs>
<filter id="filter0_d_61_37" x="0" y="0" width="321.829" height="88.1143" filterUnits="userSpaceOnUse" color-interpolation-filters="sRGB">
<feFlood flood-opacity="0" result="BackgroundImageFix"/>
<feColorMatrix in="SourceAlpha" type="matrix" values="0 0 0 0 0 0 0 0 0 0 0 0 0 0 0 0 0 0 127 0" result="hardAlpha"/>
<feOffset dy="4"/>
<feComposite in2="hardAlpha" operator="out"/>
<feColorMatrix type="matrix" values="0 0 0 0 0.669687 0 0 0 0 0.515713 0 0 0 0 0.00980029 0 0 0 1 0"/>
<feBlend mode="normal" in2="BackgroundImageFix" result="effect1_dropShadow_61_37"/>
<feBlend mode="normal" in="SourceGraphic" in2="effect1_dropShadow_61_37" result="shape"/>
</filter>
</defs>
</svg>
