<svg width="51" height="61" viewBox="0 0 51 61" fill="none" xmlns="http://www.w3.org/2000/svg">
<rect x="0.777588" y="7.4751" width="49.9879" height="49.9879" rx="14.5126" fill="#0247A9"/>
<rect x="0.777588" y="4.30127" width="49.9879" height="49.9879" rx="14.5126" fill="#0463E8"/>
<path d="M20.5855 37.4018C20.5855 36.3608 20.9029 35.5102 21.5377 34.8501C22.1978 34.1645 23.0992 33.8218 24.2418 33.8218C25.3844 33.8218 26.273 34.1645 26.9078 34.8501C27.568 35.5102 27.898 36.3608 27.898 37.4018C27.898 38.4429 27.568 39.3062 26.9078 39.9917C26.273 40.6519 25.3844 40.9819 24.2418 40.9819C23.0992 40.9819 22.1978 40.6519 21.5377 39.9917C20.9029 39.3062 20.5855 38.4429 20.5855 37.4018ZM21.8424 32.4126C21.4107 32.1841 21.0045 31.7778 20.6236 31.1938C20.2427 30.5845 20.0523 29.8735 20.0523 29.061C20.0523 28.2739 20.2554 27.6899 20.6617 27.3091C21.0933 26.9028 21.7154 26.5981 22.5279 26.395L25.4986 25.6714C26.7682 25.3413 27.4029 24.7319 27.4029 23.8432C27.4029 23.3608 27.1617 22.9419 26.6793 22.5864C26.2223 22.2309 25.4224 22.0532 24.2799 22.0532C23.2388 22.0532 22.2613 22.1928 21.3472 22.4721C20.4332 22.726 19.6968 23.0307 19.1383 23.3862C18.7066 23.0561 18.3384 22.6626 18.0338 22.2055C17.7291 21.7231 17.5767 21.1518 17.5767 20.4917C17.5767 19.8315 17.7672 19.2602 18.148 18.7778C18.5289 18.27 19.0494 17.8637 19.7095 17.559C20.3951 17.229 21.1949 16.9878 22.109 16.8354C23.0484 16.6831 24.0767 16.6069 25.1939 16.6069C28.19 16.6069 30.4498 17.2797 31.9732 18.6254C33.5221 19.9458 34.2965 21.685 34.2965 23.8432C34.2965 27.9057 31.4273 30.5083 25.689 31.6509L21.8424 32.4126Z" fill="white"/>
</svg>
