<svg width="51" height="60" viewBox="0 0 51 60" fill="none" xmlns="http://www.w3.org/2000/svg">
<rect x="0.777588" y="7.14111" width="49.9879" height="49.9879" rx="14.5126" fill="#045792"/>
<rect x="0.777588" y="3.96777" width="49.9879" height="49.9879" rx="14.5126" fill="#0494FA"/>
<path d="M20.5855 37.0674C20.5855 36.0264 20.9029 35.1758 21.5377 34.5156C22.1978 33.8301 23.0992 33.4873 24.2418 33.4873C25.3844 33.4873 26.273 33.8301 26.9078 34.5156C27.568 35.1758 27.898 36.0264 27.898 37.0674C27.898 38.1084 27.568 38.9717 26.9078 39.6572C26.273 40.3174 25.3844 40.6475 24.2418 40.6475C23.0992 40.6475 22.1978 40.3174 21.5377 39.6572C20.9029 38.9717 20.5855 38.1084 20.5855 37.0674ZM21.8424 32.0781C21.4107 31.8496 21.0045 31.4433 20.6236 30.8594C20.2427 30.25 20.0523 29.539 20.0523 28.7265C20.0523 27.9394 20.2554 27.3554 20.6617 26.9746C21.0933 26.5683 21.7154 26.2636 22.5279 26.0605L25.4986 25.3369C26.7682 25.0068 27.4029 24.3974 27.4029 23.5088C27.4029 23.0263 27.1617 22.6074 26.6793 22.2519C26.2223 21.8965 25.4224 21.7187 24.2799 21.7187C23.2388 21.7187 22.2613 21.8584 21.3472 22.1377C20.4332 22.3916 19.6968 22.6963 19.1383 23.0517C18.7066 22.7216 18.3384 22.3281 18.0338 21.8711C17.7291 21.3886 17.5767 20.8173 17.5767 20.1572C17.5767 19.497 17.7672 18.9257 18.148 18.4433C18.5289 17.9355 19.0494 17.5293 19.7095 17.2246C20.3951 16.8945 21.1949 16.6533 22.109 16.5009C23.0484 16.3486 24.0767 16.2724 25.1939 16.2724C28.19 16.2724 30.4498 16.9453 31.9732 18.291C33.5221 19.6113 34.2965 21.3506 34.2965 23.5088C34.2965 27.5713 31.4273 30.1738 25.689 31.3164L21.8424 32.0781Z" fill="white"/>
</svg>
