<svg width="76" height="76" viewBox="0 0 76 76" fill="none" xmlns="http://www.w3.org/2000/svg">
<g filter="url(#filter0_d_61_60)">
<rect x="7" y="3" width="62" height="62" rx="18" fill="#0494FA"/>
</g>
<g clip-path="url(#clip0_61_60)">
<path d="M48.9087 39.1248C48.7034 39.5898 48.6422 40.1056 48.7329 40.6057C48.8236 41.1059 49.062 41.5673 49.4174 41.9307L49.5099 42.0232C49.7966 42.3095 50.024 42.6496 50.1792 43.0239C50.3343 43.3982 50.4142 43.7994 50.4142 44.2046C50.4142 44.6098 50.3343 45.0111 50.1792 45.3854C50.024 45.7597 49.7966 46.0997 49.5099 46.3861C49.2236 46.6728 48.8835 46.9002 48.5092 47.0554C48.1349 47.2105 47.7336 47.2904 47.3285 47.2904C46.9233 47.2904 46.522 47.2105 46.1477 47.0554C45.7734 46.9002 45.4334 46.6728 45.147 46.3861L45.0545 46.2936C44.6912 45.9382 44.2297 45.6998 43.7296 45.6091C43.2295 45.5184 42.7137 45.5796 42.2487 45.7848C41.7927 45.9803 41.4038 46.3048 41.1299 46.7184C40.856 47.132 40.709 47.6167 40.707 48.1128V48.3748C40.707 49.1926 40.3821 49.9768 39.8039 50.5551C39.2257 51.1333 38.4414 51.4582 37.6237 51.4582C36.8059 51.4582 36.0217 51.1333 35.4434 50.5551C34.8652 49.9768 34.5403 49.1926 34.5403 48.3748V48.2361C34.5284 47.7258 34.3632 47.2309 34.0663 46.8158C33.7693 46.4006 33.3544 46.0844 32.8753 45.9082C32.4103 45.703 31.8945 45.6417 31.3944 45.7324C30.8943 45.8231 30.4328 46.0615 30.0695 46.4169L29.977 46.5094C29.6906 46.7961 29.3506 47.0235 28.9763 47.1787C28.602 47.3339 28.2007 47.4137 27.7955 47.4137C27.3903 47.4137 26.9891 47.3339 26.6148 47.1787C26.2405 47.0235 25.9004 46.7961 25.6141 46.5094C25.3274 46.2231 25.1 45.883 24.9448 45.5087C24.7896 45.1344 24.7098 44.7332 24.7098 44.328C24.7098 43.9228 24.7896 43.5215 24.9448 43.1472C25.1 42.7729 25.3274 42.4329 25.6141 42.1465L25.7066 42.054C26.062 41.6907 26.3004 41.2292 26.3911 40.7291C26.4818 40.229 26.4205 39.7132 26.2153 39.2482C26.0199 38.7922 25.6954 38.4033 25.2818 38.1294C24.8682 37.8555 24.3835 37.7085 23.8874 37.7065H23.6253C22.8076 37.7065 22.0233 37.3817 21.4451 36.8034C20.8668 36.2252 20.542 35.4409 20.542 34.6232C20.542 33.8054 20.8668 33.0212 21.4451 32.4429C22.0233 31.8647 22.8076 31.5398 23.6253 31.5398H23.7641C24.2744 31.5279 24.7692 31.3627 25.1844 31.0658C25.5996 30.7689 25.9158 30.3539 26.092 29.8748C26.2972 29.4098 26.3584 28.894 26.2677 28.3939C26.1771 27.8938 25.9387 27.4323 25.5832 27.069L25.4907 26.9765C25.2041 26.6901 24.9766 26.3501 24.8215 25.9758C24.6663 25.6015 24.5864 25.2002 24.5864 24.795C24.5864 24.3898 24.6663 23.9886 24.8215 23.6143C24.9766 23.24 25.2041 22.8999 25.4907 22.6136C25.7771 22.3269 26.1172 22.0995 26.4915 21.9443C26.8658 21.7892 27.267 21.7093 27.6722 21.7093C28.0774 21.7093 28.4786 21.7892 28.8529 21.9443C29.2272 22.0995 29.5673 22.3269 29.8537 22.6136L29.9462 22.7061C30.3095 23.0615 30.771 23.2999 31.2711 23.3906C31.7712 23.4813 32.287 23.4201 32.752 23.2148H32.8753C33.3313 23.0194 33.7202 22.6949 33.9941 22.2813C34.268 21.8677 34.415 21.383 34.417 20.8869V20.6248C34.417 19.8071 34.7418 19.0228 35.3201 18.4446C35.8983 17.8664 36.6826 17.5415 37.5003 17.5415C38.3181 17.5415 39.1023 17.8664 39.6806 18.4446C40.2588 19.0228 40.5837 19.8071 40.5837 20.6248V20.7636C40.5856 21.2597 40.7326 21.7444 41.0066 22.158C41.2805 22.5716 41.6693 22.8961 42.1253 23.0915C42.5903 23.2967 43.1061 23.3579 43.6062 23.2673C44.1063 23.1766 44.5678 22.9382 44.9312 22.5828L45.0237 22.4903C45.31 22.2036 45.6501 21.9762 46.0244 21.821C46.3987 21.6658 46.7999 21.586 47.2051 21.586C47.6103 21.586 48.0115 21.6658 48.3859 21.821C48.7602 21.9762 49.1002 22.2036 49.3866 22.4903C49.6733 22.7766 49.9007 23.1167 50.0558 23.491C50.211 23.8653 50.2909 24.2665 50.2909 24.6717C50.2909 25.0769 50.211 25.4781 50.0558 25.8524C49.9007 26.2268 49.6733 26.5668 49.3866 26.8532L49.2941 26.9457C48.9387 27.309 48.7002 27.7705 48.6096 28.2706C48.5189 28.7707 48.5801 29.2865 48.7853 29.7515V29.8748C48.9808 30.3308 49.3052 30.7197 49.7189 30.9936C50.1325 31.2675 50.6172 31.4145 51.1132 31.4165H51.3753C52.1931 31.4165 52.9773 31.7414 53.5556 32.3196C54.1338 32.8978 54.4587 33.6821 54.4587 34.4998C54.4587 35.3176 54.1338 36.1018 53.5556 36.6801C52.9773 37.2583 52.1931 37.5832 51.3753 37.5832H51.2366C50.7405 37.5852 50.2558 37.7321 49.8422 38.0061C49.4286 38.28 49.1041 38.6689 48.9087 39.1248Z" fill="white" stroke="white" stroke-width="3.08333" stroke-linecap="round" stroke-linejoin="round"/>
<path d="M37.5 39.125C40.0543 39.125 42.125 37.0543 42.125 34.5C42.125 31.9457 40.0543 29.875 37.5 29.875C34.9457 29.875 32.875 31.9457 32.875 34.5C32.875 37.0543 34.9457 39.125 37.5 39.125Z" fill="#0494FA" stroke="#0494FA" stroke-width="3.08333" stroke-linecap="round" stroke-linejoin="round"/>
</g>
<defs>
<filter id="filter0_d_61_60" x="0" y="0" width="76" height="76" filterUnits="userSpaceOnUse" color-interpolation-filters="sRGB">
<feFlood flood-opacity="0" result="BackgroundImageFix"/>
<feColorMatrix in="SourceAlpha" type="matrix" values="0 0 0 0 0 0 0 0 0 0 0 0 0 0 0 0 0 0 127 0" result="hardAlpha"/>
<feOffset dy="4"/>
<feGaussianBlur stdDeviation="3.5"/>
<feComposite in2="hardAlpha" operator="out"/>
<feColorMatrix type="matrix" values="0 0 0 0 0 0 0 0 0 0 0 0 0 0 0 0 0 0 0.25 0"/>
<feBlend mode="normal" in2="BackgroundImageFix" result="effect1_dropShadow_61_60"/>
<feBlend mode="normal" in="SourceGraphic" in2="effect1_dropShadow_61_60" result="shape"/>
</filter>
<clipPath id="clip0_61_60">
<rect width="37" height="37" fill="white" transform="translate(19 16)"/>
</clipPath>
</defs>
</svg>
